<svg width="45" height="45" viewBox="0 0 45 45" fill="none" xmlns="http://www.w3.org/2000/svg">
<path d="M37.6772 1.87347C37.4307 1.87347 37.1867 1.92206 36.959 2.01646C36.7314 2.11086 36.5246 2.24922 36.3504 2.42362C36.1763 2.59803 36.0382 2.80505 35.9442 3.03285C35.8501 3.26065 35.8019 3.50476 35.8023 3.75122C35.8023 8.07215 34.1655 11.0751 31.5267 13.6685C28.8865 16.2619 25.192 18.3225 21.3741 20.196C17.5563 22.0681 13.6393 23.7432 10.5073 25.8618C7.37539 27.9791 4.84717 30.8318 4.84717 34.6681C4.84717 39.5516 7.6985 42.4937 10.3571 43.7592C13.0157 45.0233 15.6049 44.9964 15.6049 44.9964H43.1234C43.6206 44.9964 44.0975 44.7988 44.4491 44.4472C44.8007 44.0956 44.9983 43.6187 44.9983 43.1215C44.9984 42.8751 44.9501 42.6312 44.8559 42.4035C44.7618 42.1759 44.6237 41.969 44.4496 41.7948C44.2755 41.6205 44.0687 41.4823 43.8412 41.388C43.6136 41.2937 43.3697 41.2451 43.1234 41.2451H15.6049C15.6049 41.2451 13.7512 41.2182 11.9684 40.3707C10.1856 39.5219 8.59698 38.2379 8.59698 34.6681C8.59698 32.4204 9.9362 30.7765 12.6076 28.9697C15.2789 27.1628 19.1053 25.4848 23.0265 23.5618C26.9478 21.6372 30.9882 19.4548 34.1527 16.3456C37.3172 13.2349 39.5507 9.0755 39.5507 3.75122C39.5509 3.505 39.5026 3.26116 39.4085 3.03361C39.3145 2.80607 39.1765 2.59927 39.0025 2.42504C38.8286 2.25081 38.622 2.11255 38.3946 2.01815C38.1672 1.92376 37.9234 1.87366 37.6772 1.87347Z" fill="url(#paint0_linear_208_471)"/>
<path d="M15.1955 15.1948C13.4127 17.013 11.8836 19.0864 10.0342 21.8909L27.8323 39.6905C28.6543 40.5125 29.9411 41.221 31.3072 41.8021C33.1779 39.9314 39.7365 33.3799 41.8042 31.3108C41.2231 29.9432 40.5145 28.655 39.6898 27.8317L21.8902 10.0335C19.0176 11.8149 16.9783 13.378 15.1955 15.1948Z" fill="url(#paint1_linear_208_471)"/>
<path d="M21.8917 10.0335L17.772 5.91525C10.3914 10.3595 8.47253 12.9557 5.91455 17.7712L10.0342 21.8909L21.8917 10.0335Z" fill="url(#paint2_linear_208_471)"/>
<path d="M5.91453 17.7712L17.7719 5.91524L13.0174 1.16065C12.6513 0.7928 12.2161 0.500898 11.7369 0.301717C11.2577 0.102536 10.7438 0 10.2248 0C9.70587 0 9.19201 0.102536 8.71278 0.301717C8.23355 0.500898 7.7984 0.7928 7.43232 1.16065L1.16137 7.43161C0.793299 7.79771 0.501217 8.23295 0.30191 8.71231C0.102602 9.19167 0 9.70569 0 10.2248C0 10.744 0.102602 11.258 0.30191 11.7374C0.501217 12.2167 0.793299 12.652 1.16137 13.0181L5.91453 17.7712Z" fill="url(#paint3_linear_208_471)"/>
<path d="M23.7607 13.4262L23.4829 13.1484L22.9245 13.7068L23.2023 13.986L23.7607 13.4262ZM22.3633 14.8249L22.0856 14.5458L21.5272 15.1041L21.805 15.3833L22.3633 14.8249ZM20.9674 16.2208L20.6897 15.9417L20.1313 16.5L20.4091 16.7792L20.9674 16.2208ZM19.5715 17.6153L19.2937 17.3376L18.7354 17.8959L19.0132 18.1751L19.5715 17.6153ZM18.1742 19.0141L17.8964 18.7349L17.3381 19.2933L17.6158 19.5724L18.1742 19.0141ZM16.7783 20.41L16.5005 20.1308L15.9422 20.6892L16.2199 20.9683L16.7783 20.41ZM15.3824 21.8059L15.1046 21.5267L14.5462 22.0851L14.824 22.3643L15.3824 21.8059ZM13.9851 23.2032L13.7073 22.924L13.1489 23.4824L13.4267 23.7616L13.9851 23.2032Z" fill="#CE2A32"/>
<path d="M35.6947 35.7054C33.9072 37.4828 32.4248 39.5426 31.3071 41.802C33.7319 42.8366 36.4118 43.4714 37.2252 43.6202C40.0425 42.5772 42.4871 40.9446 43.6195 37.226C43.4721 36.4126 42.8372 33.7355 41.8055 31.3108C39.5406 32.4288 37.4759 33.9146 35.6947 35.7054Z" fill="url(#paint4_linear_208_471)"/>
<path d="M37.2256 43.6203C38.6031 44.0313 43.8154 45.627 44.7224 44.7214C45.6294 43.8159 44.0634 38.7353 43.6198 37.2246L37.2256 43.6203Z" fill="url(#paint5_linear_208_471)"/>
<defs>
<linearGradient id="paint0_linear_208_471" x1="-3.49568" y1="22.4975" x2="43.1219" y2="44.9949" gradientUnits="userSpaceOnUse">
<stop stop-color="#BCA6AE"/>
<stop offset="1" stop-color="#534666"/>
</linearGradient>
<linearGradient id="paint1_linear_208_471" x1="17.8413" y1="16.3046" x2="45.4902" y2="43.9535" gradientUnits="userSpaceOnUse">
<stop stop-color="#FF5E3F"/>
<stop offset="1" stop-color="#FFBE3F"/>
</linearGradient>
<linearGradient id="paint2_linear_208_471" x1="11.4615" y1="10.8502" x2="15.7219" y2="15.7206" gradientUnits="userSpaceOnUse">
<stop stop-color="#F5F8FF"/>
<stop offset="1" stop-color="#A0C9FF"/>
</linearGradient>
<linearGradient id="paint3_linear_208_471" x1="13.0899" y1="12.0916" x2="7.44286" y2="6.70765" gradientUnits="userSpaceOnUse">
<stop stop-color="#D90947"/>
<stop offset="1" stop-color="#FF585B"/>
</linearGradient>
<linearGradient id="paint4_linear_208_471" x1="33.9647" y1="33.3653" x2="45.4901" y2="43.9534" gradientUnits="userSpaceOnUse">
<stop stop-color="#F6D3B7"/>
<stop offset="1" stop-color="#F68ECB"/>
</linearGradient>
<linearGradient id="paint5_linear_208_471" x1="44.5427" y1="44.5417" x2="39.9979" y2="39.997" gradientUnits="userSpaceOnUse">
<stop stop-color="#BCA6AE"/>
<stop offset="1" stop-color="#534666"/>
</linearGradient>
</defs>
</svg>
