<svg width="33" height="27" viewBox="0 0 33 27" fill="none" xmlns="http://www.w3.org/2000/svg">
<path fill-rule="evenodd" clip-rule="evenodd" d="M13.25 0.5C11.5931 0.5 10.25 1.84315 10.25 3.5V4.5H3.25C1.59315 4.5 0.25 5.84315 0.25 7.5V10.268L15.478 14.328C15.9839 14.4627 16.5161 14.4627 17.022 14.328L32.25 10.268V7.5C32.25 5.84315 30.9069 4.5 29.25 4.5H22.25V3.5C22.25 1.84315 20.9069 0.5 19.25 0.5H13.25ZM13.25 2.5H19.25C19.8023 2.5 20.25 2.94772 20.25 3.5V4.5H12.25V3.5C12.25 2.94772 12.6977 2.5 13.25 2.5ZM3.25 26.5C1.59315 26.5 0.25 25.1569 0.25 23.5V12.2L15.992 16.394C16.161 16.4391 16.339 16.4391 16.508 16.394L32.25 12.2V23.5C32.25 25.1569 30.9069 26.5 29.25 26.5H3.25Z" fill="white"/>
</svg>
