<svg width="113" height="26" viewBox="0 0 113 26" fill="none" xmlns="http://www.w3.org/2000/svg">
<path fill-rule="evenodd" clip-rule="evenodd" d="M11.6466 0.423828V4.14629C9.2608 4.14629 6.97271 5.10138 5.28569 6.80146C3.59867 8.50153 2.65091 10.8073 2.65091 13.2116C2.65091 15.6159 3.59867 17.9216 5.28569 19.6217C6.97271 21.3218 9.2608 22.2769 11.6466 22.2769V25.9994H0V0.423828H11.6466ZM29.7859 6.42399H27.1784V19.0804H29.7859V6.42399ZM32.0168 12.1867C31.5143 12.9434 31.246 13.8335 31.246 14.7441C31.2379 15.348 31.3495 15.9474 31.5743 16.5073C31.7991 17.0672 32.1325 17.5762 32.5551 18.0045C32.9777 18.4328 33.4809 18.7717 34.0351 19.0015C34.5894 19.2312 35.1836 19.3471 35.7829 19.3424C36.6865 19.3476 37.5713 19.0824 38.3251 18.5803C39.0789 18.0782 39.6678 17.3618 40.0172 16.5221C40.3666 15.6823 40.4606 14.7569 40.2875 13.8632C40.1144 12.9695 39.6819 12.1477 39.0448 11.502C38.4077 10.8562 37.5947 10.4157 36.7089 10.2361C35.823 10.0565 34.9042 10.146 34.0689 10.4933C33.2336 10.8405 32.5194 11.4299 32.0168 12.1867ZM37.423 13.6493C37.6469 13.9707 37.7717 14.3515 37.782 14.7441H37.7646C37.779 15.0111 37.7386 15.2782 37.6459 15.5288C37.5532 15.7794 37.4102 16.008 37.2258 16.2004C37.0415 16.3927 36.8197 16.5447 36.5744 16.6468C36.3292 16.7488 36.0656 16.7988 35.8003 16.7936C35.4106 16.7935 35.0296 16.6776 34.705 16.4604C34.3803 16.2432 34.1264 15.9343 33.975 15.5725C33.8236 15.2106 33.7815 14.8118 33.8538 14.426C33.9261 14.0401 34.1097 13.6843 34.3817 13.403C34.6536 13.1217 35.0018 12.9275 35.3827 12.8446C35.7636 12.7617 36.1604 12.7939 36.5232 12.937C36.8861 13.0801 37.1991 13.3279 37.423 13.6493ZM50.6367 10.4085V18.6505C50.6367 21.5584 48.3769 22.7934 46.0911 22.7934C45.2848 22.8601 44.476 22.6987 43.7559 22.3273C43.0357 21.9559 42.4327 21.3893 42.0147 20.6913L44.2137 19.4125C44.3919 19.7746 44.6753 20.0733 45.0263 20.2689C45.3772 20.4645 45.7789 20.5477 46.178 20.5074C46.4322 20.5389 46.6902 20.5135 46.9335 20.4329C47.1768 20.3523 47.3994 20.2185 47.5854 20.0411C47.7714 19.8636 47.9162 19.647 48.0095 19.4066C48.1028 19.1662 48.1422 18.908 48.1249 18.6505V17.8535C47.8214 18.2242 47.4364 18.5186 47.0004 18.7132C46.5644 18.9078 46.0894 18.9973 45.613 18.9746C44.4605 18.9746 43.3551 18.5132 42.5401 17.6919C41.7251 16.8706 41.2673 15.7567 41.2673 14.5952C41.2673 13.4337 41.7251 12.3198 42.5401 11.4985C43.3551 10.6773 44.4605 10.2159 45.613 10.2159C46.0894 10.1932 46.5644 10.2827 47.0004 10.4773C47.4364 10.6719 47.8214 10.9662 48.1249 11.337V10.4611L50.6367 10.4085ZM48.1249 14.569C48.1422 14.1499 48.0348 13.7352 47.8163 13.3782C47.5979 13.0212 47.2785 12.7382 46.8992 12.5656C46.5199 12.3929 46.0981 12.3386 45.6879 12.4096C45.2777 12.4805 44.8979 12.6735 44.5974 12.9637C44.297 13.2539 44.0895 13.628 44.0017 14.038C43.9139 14.448 43.9498 14.875 44.1048 15.2643C44.2598 15.6535 44.5268 15.9871 44.8715 16.2222C45.2162 16.4573 45.6227 16.5831 46.0389 16.5835C46.3105 16.6032 46.5831 16.5653 46.8393 16.4722C47.0954 16.3791 47.3293 16.2329 47.5259 16.0431C47.7225 15.8532 47.8773 15.624 47.9805 15.37C48.0837 15.1161 48.1329 14.8432 48.1249 14.569ZM52.8751 12.1885C52.3733 12.9449 52.1055 13.8343 52.1055 14.7441C52.0985 15.3492 52.2115 15.9496 52.4378 16.5101C52.6641 17.0706 52.9991 17.5799 53.4233 18.0082C53.8475 18.4365 54.3523 18.7751 54.908 19.0042C55.4638 19.2333 56.0594 19.3483 56.6598 19.3425C57.5626 19.3442 58.4457 19.076 59.1972 18.5718C59.9488 18.0676 60.535 17.35 60.8817 16.5099C61.2284 15.6698 61.32 14.745 61.1449 13.8524C60.9698 12.9599 60.5359 12.1397 59.8981 11.4957C59.2603 10.8518 58.4473 10.4129 57.5619 10.2348C56.6765 10.0567 55.7586 10.1472 54.9243 10.495C54.09 10.8428 53.3768 11.4321 52.8751 12.1885ZM58.2818 13.6485C58.5061 13.9701 58.6312 14.3512 58.6415 14.7441H58.6328C58.6472 15.0112 58.6067 15.2783 58.514 15.5289C58.4213 15.7795 58.2783 16.0081 58.094 16.2004C57.9096 16.3928 57.6879 16.5447 57.4426 16.6468C57.1973 16.7489 56.9338 16.7989 56.6685 16.7937C56.2784 16.7953 55.8966 16.6808 55.5708 16.4647C55.245 16.2485 54.9898 15.9403 54.837 15.5786C54.6843 15.2169 54.6409 14.8179 54.7123 14.4314C54.7836 14.045 54.9665 13.6883 55.2381 13.4062C55.5097 13.1241 55.8579 12.929 56.239 12.8454C56.6201 12.7618 57.0173 12.7934 57.3807 12.9363C57.7441 13.0791 58.0575 13.3269 58.2818 13.6485ZM62.4223 8.0875C62.4223 7.77915 62.513 7.47772 62.683 7.22133C62.853 6.96495 63.0946 6.76512 63.3773 6.64712C63.66 6.52912 63.9711 6.49824 64.2712 6.5584C64.5713 6.61856 64.8469 6.76704 65.0633 6.98508C65.2797 7.20312 65.427 7.48092 65.4867 7.78334C65.5464 8.08577 65.5157 8.39925 65.3987 8.68413C65.2816 8.96901 65.0833 9.2125 64.8288 9.38381C64.5744 9.55512 64.2753 9.64656 63.9693 9.64656C63.5604 9.642 63.1695 9.47628 62.8804 9.18489C62.5912 8.89349 62.4268 8.49958 62.4223 8.0875ZM62.6743 10.4086H65.2818V19.0797H62.6743V10.4086ZM76.1938 16.4412C76.3867 15.8975 76.4709 15.3207 76.4417 14.744C76.4674 14.1695 76.3805 13.5955 76.1861 13.0548C75.9916 12.514 75.6934 12.0172 75.3084 11.5927C74.9234 11.1681 74.4593 10.8241 73.9424 10.5804C73.4255 10.3366 72.866 10.1978 72.2959 10.1719C71.8107 10.1376 71.3242 10.2144 70.8726 10.3964C70.4211 10.5784 70.0162 10.861 69.6884 11.223V10.4084H67.0809V22.5656H69.6884V18.2825C70.0158 18.6456 70.4203 18.9295 70.8718 19.113C71.3233 19.2965 71.8101 19.3749 72.2959 19.3423C72.8683 19.3165 73.43 19.1769 73.9487 18.9315C74.4673 18.686 74.9327 18.3397 75.318 17.9123C75.7033 17.4849 76.001 16.985 76.1938 16.4412ZM73.4629 13.6094C73.6948 13.9425 73.824 14.3372 73.8342 14.744C73.8541 15.0223 73.8154 15.3016 73.7206 15.5637C73.6258 15.8258 73.4771 16.0648 73.2842 16.2649C73.0913 16.4651 72.8587 16.6219 72.6015 16.725C72.3443 16.8282 72.0683 16.8754 71.7917 16.8636C71.3879 16.8652 70.9926 16.7467 70.6554 16.5228C70.3182 16.299 70.054 15.9798 69.896 15.6053C69.738 15.2308 69.6933 14.8177 69.7673 14.4176C69.8413 14.0176 70.0309 13.6485 70.3122 13.3565C70.5935 13.0646 70.954 12.8628 71.3487 12.7765C71.7433 12.6902 72.1544 12.7232 72.5305 12.8714C72.9066 13.0195 73.2309 13.2763 73.4629 13.6094ZM84.3771 16.4786C84.3771 18.4756 82.6388 19.3252 80.7962 19.3252C80.0446 19.3934 79.2901 19.2328 78.63 18.8643C77.97 18.4959 77.4348 17.9363 77.0936 17.2581L79.336 15.9794C79.4248 16.2919 79.6174 16.5642 79.8817 16.7507C80.1459 16.9373 80.4656 17.0267 80.7875 17.0041C81.4046 17.0041 81.7175 16.8114 81.7175 16.4611C81.7175 16.1169 81.1674 15.9628 80.4638 15.7658C79.2157 15.4162 77.4847 14.9314 77.4847 13.0101C77.4847 11.1183 79.0666 10.1723 80.857 10.1723C81.5376 10.1416 82.2137 10.2972 82.8136 10.6226C83.4135 10.948 83.9147 11.431 84.2641 12.0204L82.0217 13.2116C81.9226 12.9856 81.7607 12.7934 81.5556 12.6582C81.3504 12.523 81.1108 12.4505 80.8657 12.4496C80.4137 12.4496 80.1443 12.6248 80.1443 12.9313C80.1443 13.289 80.6874 13.4342 81.3845 13.6207C82.6335 13.9548 84.3771 14.4212 84.3771 16.4786ZM93.8246 19.0796V10.4085H91.2519V15.182C91.2519 16.3732 90.5914 16.9337 89.6527 16.9337C89.4468 16.9462 89.2406 16.9134 89.0484 16.8377C88.8563 16.762 88.6827 16.6451 88.5397 16.4952C88.3968 16.3453 88.2878 16.1659 88.2204 15.9694C88.1529 15.7729 88.1286 15.564 88.1491 15.3571V10.4085H85.5416V15.7513C85.5416 18.0899 87.0279 19.3424 88.7662 19.3424C89.2299 19.3689 89.6934 19.2852 90.1191 19.0981C90.5448 18.911 90.921 18.6256 91.2172 18.265V19.0796H93.8246ZM108.6 13.7544V19.0798H105.993V13.9822C105.993 13.1063 105.584 12.5633 104.758 12.5633C103.933 12.5633 103.411 13.1676 103.411 14.1924V19.0798H100.804V13.9822C100.804 13.1063 100.395 12.5633 99.5696 12.5633C98.744 12.5633 98.2225 13.1676 98.2225 14.1924V19.0798H95.615V10.4086H98.2225V11.2057C98.4924 10.8535 98.8451 10.5747 99.2487 10.3942C99.6523 10.2138 100.094 10.1375 100.534 10.1721C100.975 10.1489 101.415 10.2417 101.809 10.4413C102.204 10.641 102.54 10.9406 102.785 11.3108C103.072 10.924 103.451 10.6167 103.887 10.4176C104.323 10.2185 104.803 10.134 105.28 10.1721C107.314 10.1721 108.6 11.591 108.6 13.7544ZM11.6466 4.14639V22.277C14.0325 22.277 16.3205 21.3219 18.0076 19.6218C19.6946 17.9218 20.6423 15.616 20.6423 13.2117C20.6423 10.8074 19.6946 8.50163 18.0076 6.80156C16.3205 5.10149 14.0325 4.14639 11.6466 4.14639ZM112.703 8.42963C112.703 9.49384 111.847 10.3566 110.791 10.3566C109.735 10.3566 108.878 9.49384 108.878 8.42963C108.878 7.36542 109.735 6.50271 110.791 6.50271C111.847 6.50271 112.703 7.36542 112.703 8.42963Z" fill="#C9C9C9"/>
</svg>
