<svg width="38" height="38" viewBox="0 0 38 38" fill="none" xmlns="http://www.w3.org/2000/svg">
<path d="M29.1283 14.7664C28.3763 14.7664 27.6412 15.0141 27.016 15.4783C26.3907 15.9424 25.9034 16.6022 25.6156 17.3741C25.3278 18.1459 25.2525 18.9953 25.3992 19.8147C25.5459 20.6342 25.9081 21.3868 26.4398 21.9776C26.9715 22.5684 27.649 22.9707 28.3865 23.1337C29.1241 23.2967 29.8886 23.213 30.5833 22.8933C31.2781 22.5736 31.8719 22.0322 32.2897 21.3375C32.7074 20.6428 32.9304 19.8261 32.9304 18.9906C32.9294 17.8706 32.5285 16.7968 31.8157 16.0048C31.1029 15.2129 30.1364 14.7675 29.1283 14.7664ZM29.1283 21.8068C28.627 21.8068 28.1369 21.6416 27.7201 21.3322C27.3032 21.0227 26.9783 20.5829 26.7865 20.0683C26.5946 19.5537 26.5445 18.9875 26.6423 18.4412C26.7401 17.8949 26.9815 17.3931 27.336 16.9993C27.6905 16.6054 28.1421 16.3372 28.6338 16.2286C29.1255 16.1199 29.6351 16.1757 30.0983 16.3888C30.5615 16.602 30.9574 16.9629 31.2359 17.426C31.5144 17.8891 31.6631 18.4336 31.6631 18.9906C31.6631 19.7375 31.396 20.4538 30.9206 20.9819C30.4453 21.5101 29.8006 21.8068 29.1283 21.8068Z" fill="url(#paint0_linear_208_883)"/>
<path d="M37.3664 16.1745H35.248L36.746 14.5101C36.8648 14.3781 36.9316 14.199 36.9316 14.0123C36.9316 13.8257 36.8648 13.6466 36.746 13.5146L34.0573 10.5273C33.9385 10.3953 33.7773 10.3212 33.6093 10.3212C33.4413 10.3212 33.2801 10.3953 33.1613 10.5273L31.6632 12.1917V9.83808C31.6632 9.65135 31.5965 9.47228 31.4776 9.34024C31.3588 9.20821 31.1976 9.13403 31.0295 9.13403H27.2274C27.0593 9.13403 26.8982 9.20821 26.7793 9.34024C26.6605 9.47228 26.5937 9.65135 26.5937 9.83808V12.1917L25.0957 10.5273C24.9768 10.3953 24.8157 10.3212 24.6477 10.3212C24.4796 10.3212 24.3185 10.3953 24.1996 10.5273L21.5109 13.5146C21.3921 13.6466 21.3254 13.8257 21.3254 14.0123C21.3254 14.199 21.3921 14.3781 21.5109 14.5101L23.0096 16.1745H20.8905C20.7225 16.1745 20.5613 16.2486 20.4424 16.3807C20.3236 16.5127 20.2568 16.6918 20.2568 16.8785V21.1028C20.2568 21.2895 20.3236 21.4686 20.4424 21.6006C20.5613 21.7326 20.7225 21.8068 20.8905 21.8068H23.0089L21.5109 23.4712C21.3921 23.6032 21.3254 23.7822 21.3254 23.9689C21.3254 24.1556 21.3921 24.3346 21.5109 24.4667L24.1996 27.4539C24.3185 27.5859 24.4796 27.6601 24.6477 27.6601C24.8157 27.6601 24.9768 27.5859 25.0957 27.4539L26.5937 25.7896V28.1432C26.5937 28.3299 26.6605 28.509 26.7793 28.641C26.8982 28.773 27.0593 28.8472 27.2274 28.8472H31.0295C31.1976 28.8472 31.3588 28.773 31.4776 28.641C31.5965 28.509 31.6632 28.3299 31.6632 28.1432V25.7896L33.1613 27.4539C33.2801 27.5859 33.4413 27.6601 33.6093 27.6601C33.7773 27.6601 33.9385 27.5859 34.0573 27.4539L36.746 24.4667C36.8648 24.3346 36.9316 24.1556 36.9316 23.9689C36.9316 23.7822 36.8648 23.6032 36.746 23.4712L35.2474 21.8068H37.3664C37.5345 21.8068 37.6957 21.7326 37.8145 21.6006C37.9333 21.4686 38.0001 21.2895 38.0001 21.1028V16.8785C38.0001 16.6918 37.9333 16.5127 37.8145 16.3807C37.6957 16.2486 37.5345 16.1745 37.3664 16.1745ZM36.7327 20.3987H34.5009C34.3701 20.3987 34.2426 20.4436 34.1357 20.5273C34.0288 20.611 33.9479 20.7294 33.9039 20.8662C33.844 21.0521 33.7755 21.2345 33.6986 21.4125C33.642 21.544 33.6235 21.6917 33.6456 21.8353C33.6677 21.979 33.7294 22.1114 33.8222 22.2144L35.402 23.9689L33.6093 25.9606L32.0301 24.2069C31.9378 24.1034 31.8189 24.0343 31.6897 24.0091C31.5606 23.9838 31.4275 24.0038 31.309 24.0661C31.1489 24.1507 30.985 24.2262 30.8179 24.2921C30.6945 24.3406 30.5877 24.4305 30.5121 24.5492C30.4365 24.668 30.3959 24.8098 30.3959 24.9553V27.4391H27.8611V24.9595C27.8612 24.814 27.8207 24.6721 27.7453 24.5532C27.6698 24.4343 27.5631 24.3443 27.4397 24.2956C27.2723 24.2296 27.1081 24.1537 26.948 24.0682C26.8294 24.0059 26.6964 23.9859 26.5672 24.0112C26.4381 24.0364 26.3191 24.1055 26.2268 24.209L24.6477 25.9606L22.855 23.9689L24.4335 22.2151C24.5266 22.1126 24.5888 21.9804 24.6115 21.8369C24.6342 21.6934 24.6163 21.5456 24.5602 21.4139C24.4844 21.236 24.417 21.0539 24.3581 20.8683C24.3142 20.7304 24.2328 20.6111 24.1252 20.5269C24.0175 20.4428 23.889 20.398 23.7573 20.3987H21.5242V17.5825H23.7561C23.8868 17.5826 24.0144 17.5376 24.1212 17.454C24.2281 17.3703 24.3091 17.2519 24.353 17.1151C24.4129 16.9291 24.4814 16.7468 24.5583 16.5687C24.6149 16.4373 24.6335 16.2896 24.6113 16.1459C24.5892 16.0023 24.5275 15.8698 24.4347 15.7668L22.855 14.0123L24.6477 12.0206L26.2268 13.7744C26.3191 13.8779 26.4381 13.947 26.5672 13.9722C26.6964 13.9974 26.8294 13.9775 26.948 13.9152C27.108 13.8305 27.272 13.7551 27.4391 13.6892C27.5629 13.6405 27.67 13.5502 27.7456 13.4309C27.8212 13.3116 27.8615 13.1691 27.8611 13.0232V10.5421H30.3959V13.0218C30.3957 13.1672 30.4362 13.3092 30.5117 13.4281C30.5871 13.5469 30.6939 13.6369 30.8173 13.6857C30.9847 13.7517 31.1488 13.8276 31.309 13.9131C31.4275 13.9754 31.5606 13.9953 31.6897 13.9701C31.8189 13.9449 31.9378 13.8758 32.0301 13.7723L33.6093 12.0206L35.402 14.0123L33.8228 15.7661C33.7297 15.8687 33.6675 16.0008 33.6448 16.1443C33.6221 16.2878 33.64 16.4356 33.6961 16.5673C33.7719 16.7452 33.8394 16.9273 33.8982 17.1129C33.9419 17.2504 34.0229 17.3694 34.1301 17.4535C34.2372 17.5376 34.3653 17.5827 34.4964 17.5825H36.7327V20.3987Z" fill="url(#paint1_linear_208_883)"/>
<path d="M29.5719 29.821C29.1762 30.3748 28.7506 30.9015 28.2976 31.3981C25.3577 28.5451 21.623 26.9042 17.722 26.7514V19.6948H18.9893V18.2867H17.722V11.2301C21.6234 11.0775 25.3585 9.43656 28.2989 6.5834C28.7271 7.05325 29.1309 7.54969 29.5086 8.07033L30.5009 7.1945C28.617 4.55507 26.1354 2.51955 23.3103 1.29652C20.4852 0.0734868 17.4183 -0.293089 14.4237 0.234355C11.4291 0.761798 8.61457 2.1643 6.26847 4.29814C3.92238 6.43199 2.12908 9.22046 1.07233 12.3778C0.0155798 15.5352 -0.26663 18.948 0.254618 22.2664C0.775866 25.5849 2.08183 28.6897 4.03869 31.2628C5.99556 33.8358 8.53297 35.7846 11.3909 36.9094C14.2489 38.0343 17.3246 38.2947 20.303 37.6641C23.4723 36.9957 26.4043 35.3372 28.7551 32.8829C29.4101 32.2064 30.0163 31.4738 30.5681 30.6919L29.5719 29.821ZM27.0372 32.6611C26.8642 32.8167 26.6899 32.9709 26.5119 33.1181C26.3008 33.2934 26.0848 33.4588 25.8668 33.6207C25.6849 33.7566 25.503 33.8911 25.3167 34.0178C25.0911 34.1713 24.8598 34.3135 24.6273 34.4536C24.4372 34.5677 24.2515 34.6831 24.057 34.7887C23.8162 34.9204 23.5696 35.038 23.3238 35.1556C23.1337 35.2478 22.9391 35.3435 22.7433 35.4273C22.486 35.5364 22.2243 35.6294 21.9626 35.723C21.7884 35.7857 21.616 35.8533 21.4405 35.9089C22.8857 34.3389 24.0065 32.4387 24.7255 30.3399C25.6621 30.9107 26.5439 31.5861 27.3572 32.3556C27.2539 32.4577 27.1481 32.5619 27.0372 32.6611ZM11.4282 35.4266C11.2343 35.3442 11.048 35.2492 10.8579 35.1584C10.6082 35.0394 10.3591 34.9204 10.1152 34.7866C9.92507 34.6831 9.7413 34.5691 9.55563 34.4571C9.3199 34.3163 9.08543 34.1706 8.85857 34.015C8.67607 33.8904 8.49737 33.758 8.31867 33.625C8.09688 33.4602 7.87509 33.292 7.66407 33.1145C7.48791 32.9695 7.31618 32.8174 7.14571 32.6632C7.03545 32.564 6.92899 32.4584 6.82063 32.3556C7.63405 31.5862 8.51583 30.9109 9.45234 30.3399C10.1713 32.4387 11.2922 34.3389 12.7374 35.9089C12.5631 35.854 12.392 35.7864 12.2197 35.7244C11.951 35.6301 11.6867 35.5357 11.4282 35.4266ZM16.4546 36.532C14.16 36.1433 12.0188 33.6651 10.5828 29.7027C12.4332 28.7779 14.427 28.2589 16.4546 28.1743V36.532ZM23.5937 29.7027C22.1578 33.6651 20.0166 36.1433 17.722 36.532V28.1743C19.7496 28.2593 21.7434 28.7788 23.5937 29.7042V29.7027ZM16.4546 26.7514C14.2774 26.8383 12.1353 27.388 10.1443 28.3707C9.33092 25.5657 8.89905 22.6415 8.86301 19.6948H16.4546V26.7514ZM8.86301 18.2867C8.89934 15.3407 9.33121 12.4172 10.1443 9.61289C12.1354 10.5949 14.2775 11.1439 16.4546 11.2301V18.2867H8.86301ZM7.13938 5.32034C7.31237 5.16475 7.48664 5.01056 7.6647 4.86342C7.87572 4.68811 8.09244 4.52266 8.31043 4.36003C8.49167 4.22485 8.67354 4.09038 8.85921 3.96365C9.08543 3.81017 9.31736 3.66796 9.54993 3.52715C9.74003 3.4138 9.9257 3.29763 10.1202 3.19273C10.361 3.06107 10.6076 2.9435 10.8534 2.82592C11.0435 2.73369 11.2381 2.63794 11.4339 2.55416C11.6912 2.44503 11.9529 2.3521 12.2146 2.25846C12.3889 2.1958 12.5612 2.12821 12.7367 2.07259C11.2915 3.64245 10.1708 5.54268 9.45234 7.64157C8.51554 7.07078 7.63353 6.3954 6.82 5.6259C6.92266 5.52381 7.02848 5.41961 7.13938 5.32034ZM22.7484 2.55486C22.9423 2.63724 23.1286 2.73228 23.3187 2.8231C23.5684 2.94209 23.8174 3.06177 24.0614 3.19484C24.2515 3.29833 24.4346 3.41168 24.6203 3.52363C24.856 3.66443 25.0911 3.81017 25.3174 3.96647C25.5005 4.09108 25.6792 4.22344 25.8579 4.35651C26.0791 4.52125 26.2977 4.68952 26.5119 4.86694C26.6874 5.01197 26.8591 5.16405 27.0302 5.31823C27.1405 5.4175 27.2469 5.52311 27.3553 5.6259C26.5419 6.39523 25.6601 7.0706 24.7236 7.64157C24.0047 5.54275 22.8838 3.64259 21.4386 2.07259C21.6128 2.12751 21.7839 2.1951 21.9563 2.25705C22.2256 2.3514 22.4898 2.44574 22.7484 2.55486ZM16.4546 9.80721C14.4269 9.72209 12.4332 9.20261 10.5828 8.27732C12.0188 4.31708 14.16 1.83815 16.4546 1.44952V9.80721ZM17.722 1.44952C20.0166 1.83815 22.1578 4.31638 23.5937 8.27873C21.7433 9.20362 19.7496 9.72262 17.722 9.80721V1.44952ZM5.872 6.57776C6.82983 7.50709 7.87837 8.31427 8.99798 8.98418C8.10518 11.9871 7.63223 15.1244 7.59563 18.2867H1.26255C1.42523 13.8802 3.07011 9.70181 5.872 6.57776ZM1.26255 19.6948H7.59563C7.63244 22.857 8.10538 25.9943 8.99798 28.9973C7.87844 29.6673 6.82992 30.4745 5.872 31.4037C3.07001 28.2797 1.4251 24.1013 1.26255 19.6948Z" fill="url(#paint2_linear_208_883)"/>
<defs>
<linearGradient id="paint0_linear_208_883" x1="29.1283" y1="37.0824" x2="29.1283" y2="-3.77319" gradientUnits="userSpaceOnUse">
<stop stop-color="#E93E3A"/>
<stop offset="0.357" stop-color="#ED683C"/>
<stop offset="0.708" stop-color="#F3903F"/>
<stop offset="1" stop-color="#FDC70C"/>
</linearGradient>
<linearGradient id="paint1_linear_208_883" x1="29.1285" y1="37.0824" x2="29.1285" y2="-3.77318" gradientUnits="userSpaceOnUse">
<stop stop-color="#E93E3A"/>
<stop offset="0.357" stop-color="#ED683C"/>
<stop offset="0.708" stop-color="#F3903F"/>
<stop offset="1" stop-color="#FDC70C"/>
</linearGradient>
<linearGradient id="paint2_linear_208_883" x1="15.2747" y1="37.0825" x2="15.2747" y2="-3.77307" gradientUnits="userSpaceOnUse">
<stop stop-color="#E93E3A"/>
<stop offset="0.357" stop-color="#ED683C"/>
<stop offset="0.708" stop-color="#F3903F"/>
<stop offset="1" stop-color="#FDC70C"/>
</linearGradient>
</defs>
</svg>
