<svg width="111" height="126" viewBox="0 0 111 126" fill="none" xmlns="http://www.w3.org/2000/svg">
<rect width="111" height="126" fill="white"/>
<g clip-path="url(#clip0_1571_1816)">
<path d="M60.73 68.6296C60.6595 70.2771 60.2585 71.8937 59.5507 73.3831C58.8429 74.8725 57.8429 76.2044 56.61 77.2996C54.8408 78.8515 52.6164 79.7882 50.27 79.9696C49.86 80.0096 49.54 80.0196 49.34 80.0196H49.1C48.48 80.0796 47.17 80.0196 46.52 80.0196C38.65 80.0196 32.28 75.4796 32.28 68.1896C32.28 62.6296 35.98 54.7996 41.21 51.3696C41.37 51.2596 41.54 51.1596 41.7 51.0596C41.9822 50.8984 42.2115 50.6587 42.36 50.3696C42.4601 50.1819 42.5181 49.9747 42.5302 49.7623C42.5423 49.5499 42.5081 49.3375 42.43 49.1396C42.4003 49.0486 42.36 48.9613 42.31 48.8796C42.17 48.6496 42.03 48.3996 41.87 48.1396C40.37 45.5496 38.32 41.5996 39.91 41.5996C42.26 41.5996 44.08 42.6096 46.6 42.6096C49.12 42.6096 50.22 41.5996 53.13 41.5996C55.09 41.5996 52.95 45.5496 51.34 48.1396C51.17 48.4096 51.01 48.6696 50.86 48.8996C50.81 48.9796 50.77 49.0596 50.73 49.1396C50.6482 49.3352 50.6085 49.5459 50.6137 49.7578C50.6189 49.9698 50.6687 50.1783 50.76 50.3696C50.9045 50.6834 51.1419 50.9452 51.44 51.1196C51.57 51.1996 51.71 51.2896 51.84 51.3696C56.16 54.2096 59.32 60.0896 60.43 65.1596C60.5 65.4996 60.56 65.8296 60.62 66.1596C60.64 66.2996 60.66 66.4496 60.68 66.5896C60.7522 67.2671 60.7689 67.9494 60.73 68.6296Z" fill="#C1ECFB"/>
<path d="M78.75 57.4492V75.0292C78.75 76.5992 74.55 77.8792 69.37 77.8792C64.19 77.8792 60 76.5992 60 75.0292V57.4492C60 59.0192 64.2 60.2992 69.37 60.2992C74.54 60.2992 78.75 59.0192 78.75 57.4492Z" fill="#F6CC7C"/>
<path d="M69.374 60.2974C74.5523 60.2974 78.75 59.0241 78.75 57.4534C78.75 55.8827 74.5523 54.6094 69.374 54.6094C64.1958 54.6094 59.998 55.8827 59.998 57.4534C59.998 59.0241 64.1958 60.2974 69.374 60.2974Z" fill="#FFB963"/>
<path d="M67.18 75.07V75.3C67.182 77.1002 66.6499 78.8606 65.6512 80.3584C64.6525 81.8562 63.232 83.0241 61.5693 83.7144C59.9067 84.4047 58.0767 84.5863 56.3108 84.2363C54.5449 83.8864 52.9225 83.0205 51.6489 81.7482C50.3752 80.4759 49.5075 78.8545 49.1556 77.089C48.8036 75.3235 48.9833 73.4933 49.6717 71.8299C50.3602 70.1665 51.5265 68.7447 53.0233 67.7443C54.52 66.7439 56.2797 66.21 58.08 66.21C58.7258 66.2084 59.3698 66.2789 60 66.42C60.02 66.42 60.03 66.42 60.04 66.43C61.4378 66.7329 62.7436 67.3635 63.85 68.27C64.0983 68.4736 64.3353 68.6906 64.56 68.92C65.3177 69.6874 65.9308 70.5851 66.37 71.57C66.4568 71.7421 66.5336 71.919 66.6 72.1C66.8968 72.887 67.0819 73.7117 67.15 74.55C67.16 74.72 67.17 74.9 67.18 75.07Z" fill="#FCAC44"/>
<path d="M58.8931 74.5534H57.0101C56.7222 74.5448 56.4489 74.4243 56.2483 74.2175C56.0476 74.0108 55.9354 73.734 55.9354 73.4459C55.9354 73.1578 56.0476 72.881 56.2483 72.6743C56.4489 72.4675 56.7222 72.3471 57.0101 72.3384H58.8931C59.1867 72.3387 59.4681 72.4554 59.6756 72.6629C59.8832 72.8705 59.9999 73.1519 60.0001 73.4454C60.0001 73.6443 60.0792 73.8351 60.2198 73.9757C60.3605 74.1164 60.5512 74.1954 60.7501 74.1954C60.9491 74.1954 61.1398 74.1164 61.2805 73.9757C61.4211 73.8351 61.5001 73.6443 61.5001 73.4454C61.4994 72.7542 61.2244 72.0916 60.7357 71.6029C60.247 71.1141 59.5843 70.8392 58.8931 70.8384H58.7001V69.3994C58.7001 69.2005 58.6211 69.0097 58.4805 68.8691C58.3398 68.7284 58.1491 68.6494 57.9501 68.6494C57.7512 68.6494 57.5605 68.7284 57.4198 68.8691C57.2792 69.0097 57.2001 69.2005 57.2001 69.3994V70.8384H57.0101C56.3274 70.8518 55.6772 71.1324 55.1991 71.6199C54.721 72.1075 54.4532 72.7631 54.4532 73.4459C54.4532 74.1288 54.721 74.7844 55.1991 75.2719C55.6772 75.7595 56.3274 76.04 57.0101 76.0534H58.8931C59.1867 76.0534 59.4683 76.17 59.6759 76.3776C59.8835 76.5852 60.0001 76.8668 60.0001 77.1604C60.0001 77.454 59.8835 77.7356 59.6759 77.9432C59.4683 78.1508 59.1867 78.2674 58.8931 78.2674H57.0101C56.8646 78.2677 56.7203 78.2392 56.5858 78.1837C56.4512 78.1282 56.3288 78.0468 56.2257 77.9439C56.1226 77.8411 56.0408 77.719 55.985 77.5846C55.9291 77.4501 55.9003 77.306 55.9001 77.1604C55.9001 76.9615 55.8211 76.7707 55.6805 76.6301C55.5398 76.4894 55.3491 76.4104 55.1501 76.4104C54.9512 76.4104 54.7605 76.4894 54.6198 76.6301C54.4792 76.7707 54.4001 76.9615 54.4001 77.1604C54.4009 77.8516 54.6759 78.5142 55.1646 79.003C55.6533 79.4917 56.316 79.7666 57.0071 79.7674H57.2001V81.2054C57.2001 81.4043 57.2792 81.5951 57.4198 81.7357C57.5605 81.8764 57.7512 81.9554 57.9501 81.9554C58.1491 81.9554 58.3398 81.8764 58.4805 81.7357C58.6211 81.5951 58.7001 81.4043 58.7001 81.2054V79.7674H58.8911C59.5826 79.7674 60.2457 79.4928 60.7346 79.0038C61.2235 78.5149 61.4981 77.8518 61.4981 77.1604C61.4981 76.469 61.2235 75.8059 60.7346 75.317C60.2457 74.8281 59.5826 74.5534 58.8911 74.5534H58.8931Z" fill="#EB7729"/>
<path d="M58.078 65.4561C56.35 65.4553 54.6522 65.9092 53.155 66.7721C53.0697 66.8214 52.9948 66.887 52.9349 66.9652C52.8749 67.0435 52.8309 67.1327 52.8054 67.228C52.7799 67.3232 52.7734 67.4225 52.7863 67.5202C52.7992 67.618 52.8312 67.7122 52.8805 67.7976C52.9298 67.8829 52.9955 67.9577 53.0737 68.0177C53.1519 68.0777 53.2412 68.1217 53.3364 68.1472C53.4316 68.1727 53.531 68.1792 53.6287 68.1663C53.7264 68.1534 53.8207 68.1214 53.906 68.0721C55.7446 67.0091 57.9187 66.6855 59.9871 67.1672C62.0555 67.6488 63.8631 68.8995 65.0429 70.6653C66.2228 72.4311 66.6865 74.5797 66.3398 76.675C65.9932 78.7702 64.8623 80.655 63.1766 81.9468C61.4909 83.2385 59.3768 83.8404 57.2635 83.6303C55.1503 83.4201 53.1961 82.4136 51.7979 80.8152C50.3996 79.2167 49.6621 77.1461 49.7349 75.0236C49.8077 72.9011 50.6855 70.8859 52.19 69.3871C52.2618 69.318 52.3191 69.2354 52.3586 69.144C52.3981 69.0526 52.419 68.9542 52.4201 68.8547C52.4212 68.7551 52.4025 68.6563 52.365 68.5641C52.3275 68.4718 52.272 68.3879 52.2017 68.3174C52.1315 68.2468 52.0479 68.1909 51.9558 68.153C51.8638 68.1151 51.7651 68.0958 51.6655 68.0965C51.5659 68.0971 51.4674 68.1175 51.3759 68.1566C51.2843 68.1957 51.2014 68.2526 51.132 68.3241C49.5164 69.9317 48.5085 72.05 48.2802 74.3177C48.052 76.5855 48.6174 78.8622 49.8801 80.7596C51.1429 82.657 53.0247 84.0576 55.2047 84.7226C57.3847 85.3876 59.7279 85.2758 61.8347 84.4062C63.9415 83.5366 65.6813 81.9631 66.7576 79.9541C67.8339 77.945 68.18 75.6248 67.7367 73.3892C67.2935 71.1535 66.0885 69.1408 64.3271 67.6943C62.5658 66.2478 60.3572 65.4571 58.078 65.4571V65.4561Z" fill="#1A1A1A"/>
<path d="M58.893 78.2678H57.01C56.8644 78.2681 56.7202 78.2396 56.5856 78.1841C56.451 78.1286 56.3287 78.0471 56.2256 77.9443C56.1225 77.8415 56.0407 77.7194 55.9848 77.585C55.929 77.4505 55.9001 77.3064 55.9 77.1608C55.9 76.9619 55.821 76.7711 55.6803 76.6305C55.5397 76.4898 55.3489 76.4108 55.15 76.4108C54.9511 76.4108 54.7603 76.4898 54.6197 76.6305C54.479 76.7711 54.4 76.9619 54.4 77.1608C54.4008 77.852 54.6757 78.5146 55.1644 79.0034C55.6532 79.4921 56.3158 79.767 57.007 79.7678H57.2V81.2058C57.2 81.4047 57.279 81.5955 57.4197 81.7361C57.5603 81.8768 57.7511 81.9558 57.95 81.9558C58.1489 81.9558 58.3397 81.8768 58.4803 81.7361C58.621 81.5955 58.7 81.4047 58.7 81.2058V79.7678H58.891C59.5824 79.7678 60.2455 79.4931 60.7344 79.0042C61.2233 78.5153 61.498 77.8522 61.498 77.1608C61.498 76.4694 61.2233 75.8063 60.7344 75.3174C60.2455 74.8285 59.5824 74.5538 58.891 74.5538H57.01C56.722 74.5451 56.4488 74.4247 56.2481 74.2179C56.0475 74.0112 55.9353 73.7344 55.9353 73.4463C55.9353 73.1582 56.0475 72.8814 56.2481 72.6747C56.4488 72.4679 56.722 72.3475 57.01 72.3388H58.893C59.1865 72.3391 59.4679 72.4558 59.6755 72.6633C59.883 72.8709 59.9997 73.1523 60 73.4458C60 73.6447 60.079 73.8355 60.2197 73.9761C60.3603 74.1168 60.5511 74.1958 60.75 74.1958C60.9489 74.1958 61.1397 74.1168 61.2803 73.9761C61.421 73.8355 61.5 73.6447 61.5 73.4458C61.4992 72.7546 61.2243 72.092 60.7355 71.6033C60.2468 71.1145 59.5842 70.8396 58.893 70.8388H58.7V69.3998C58.7 69.2009 58.621 69.0101 58.4803 68.8695C58.3397 68.7288 58.1489 68.6498 57.95 68.6498C57.7511 68.6498 57.5603 68.7288 57.4197 68.8695C57.279 69.0101 57.2 69.2009 57.2 69.3998V70.8388H57.01C56.3273 70.8522 55.6771 71.1328 55.199 71.6203C54.7209 72.1079 54.4531 72.7635 54.4531 73.4463C54.4531 74.1291 54.7209 74.7847 55.199 75.2723C55.6771 75.7598 56.3273 76.0404 57.01 76.0538H58.893C59.1866 76.0538 59.4682 76.1704 59.6758 76.378C59.8834 76.5856 60 76.8672 60 77.1608C60 77.4544 59.8834 77.736 59.6758 77.9436C59.4682 78.1512 59.1866 78.2678 58.893 78.2678ZM75.917 54.6368C75.7275 54.5904 75.5274 54.6195 75.3592 54.7182C75.1909 54.8168 75.0676 54.9771 75.0156 55.1651C74.9636 55.3531 74.9868 55.554 75.0804 55.7251C75.174 55.8963 75.3306 56.0242 75.517 56.0818C77.546 56.6458 78.003 57.2818 78.003 57.4538C78.003 58.0798 75.068 59.5478 69.378 59.5478C63.688 59.5478 60.752 58.0798 60.752 57.4538C60.752 56.8278 63.686 55.3598 69.378 55.3598C70.7241 55.3549 72.0688 55.4495 73.401 55.6428C73.595 55.6659 73.7904 55.6125 73.9456 55.4939C74.1009 55.3753 74.2038 55.2008 74.2325 55.0076C74.2613 54.8144 74.2136 54.6175 74.0996 54.4589C73.9856 54.3002 73.8143 54.1922 73.622 54.1578C72.2165 53.9544 70.7981 53.8541 69.378 53.8578C64.501 53.8578 59.252 54.9828 59.252 57.4518V63.2868C59.252 65.7558 64.501 66.8808 69.378 66.8808C72.656 66.8808 76.096 66.3698 78.003 65.2858V66.2038C78.003 66.8298 75.068 68.2978 69.378 68.2978C68.725 68.2978 68.089 68.2778 67.478 68.2378C67.2795 68.2262 67.0844 68.2931 66.9347 68.4241C66.7851 68.555 66.6929 68.7395 66.678 68.9378C66.6711 69.0364 66.6837 69.1353 66.7152 69.229C66.7467 69.3226 66.7964 69.4091 66.8615 69.4835C66.9265 69.5579 67.0057 69.6186 67.0943 69.6623C67.183 69.7059 67.2794 69.7316 67.378 69.7378C68.023 69.7798 68.692 69.8018 69.378 69.8018C72.656 69.8018 76.096 69.2908 78.003 68.2018V69.1198C78.003 69.7458 75.068 71.2198 69.378 71.2198H69.131C69.089 71.2198 69.065 71.2198 68.931 71.2198C68.7343 71.2211 68.5454 71.2968 68.4022 71.4317C68.259 71.5665 68.1721 71.7505 68.159 71.9468C68.1533 72.1458 68.2268 72.3388 68.3633 72.4837C68.4997 72.6286 68.6881 72.7135 68.887 72.7198C68.987 72.7198 69.05 72.7198 69.092 72.7198H69.192H69.386C72.664 72.7198 76.104 72.2078 78.011 71.1198V72.0378C78.011 72.6638 75.076 74.1318 69.386 74.1318C69.1871 74.1318 68.9963 74.2108 68.8557 74.3515C68.715 74.4921 68.636 74.6829 68.636 74.8818C68.636 75.0807 68.715 75.2715 68.8557 75.4121C68.9963 75.5528 69.1871 75.6318 69.386 75.6318C72.664 75.6318 76.104 75.1198 78.011 74.0368V75.0278C78.011 75.6538 75.076 77.1218 69.386 77.1218H69.117C68.9214 77.1303 68.7358 77.2107 68.5959 77.3477C68.456 77.4846 68.3716 77.6684 68.359 77.8638C68.3571 78.0626 68.4342 78.2541 68.5733 78.3962C68.7124 78.5383 68.9022 78.6194 69.101 78.6218H69.386C74.251 78.6248 79.5 77.4998 79.5 75.0308V57.4538C79.5 56.6238 78.878 55.4618 75.917 54.6368ZM69.375 61.0478C72.653 61.0478 76.093 60.5368 78 59.4528V60.3708C78 60.9968 75.065 62.4708 69.375 62.4708C63.685 62.4708 60.749 61.0018 60.749 60.3708V59.4528C62.656 60.5368 66.1 61.0478 69.375 61.0478ZM69.375 65.3828C63.683 65.3828 60.749 63.9148 60.749 63.2888V62.3708C62.656 63.4548 66.095 63.9708 69.375 63.9708C72.655 63.9708 76.093 63.4598 78 62.3708V63.2888C78 63.9148 75.065 65.3828 69.375 65.3828ZM47.3 79.2798C47.036 79.2898 46.77 79.2958 46.5 79.2958C38.55 79.2958 33 74.7348 33 68.2048C33 62.8798 36.6 55.0048 41.969 51.7698C42.042 51.7248 42.103 51.6698 42.169 51.6198H48.3C48.4989 51.6198 48.6897 51.5408 48.8303 51.4001C48.971 51.2595 49.05 51.0687 49.05 50.8698C49.05 50.6709 48.971 50.4801 48.8303 50.3395C48.6897 50.1988 48.4989 50.1198 48.3 50.1198H43.115C43.2173 49.5561 43.1007 48.9745 42.789 48.4938C40.254 44.5668 39.761 42.7998 39.853 42.3418C39.8627 42.3475 39.8739 42.3499 39.885 42.3488C41.0112 42.3566 42.1305 42.5271 43.208 42.8548C44.2505 43.1717 45.3325 43.34 46.422 43.3548C47.6537 43.3246 48.8771 43.1439 50.065 42.8168C51.0064 42.5576 51.973 42.4007 52.948 42.3488C52.921 42.9138 52.361 44.5828 50.424 47.8888H44.7C44.5011 47.8888 44.3103 47.9678 44.1697 48.1085C44.029 48.2491 43.95 48.4399 43.95 48.6388C43.95 48.8377 44.029 49.0285 44.1697 49.1691C44.3103 49.3098 44.5011 49.3888 44.7 49.3888H49.762C49.725 49.6683 49.7413 49.9523 49.81 50.2258C49.8904 50.5365 50.032 50.828 50.2265 51.0831C50.4211 51.3383 50.6647 51.5521 50.943 51.7118C53.6428 53.4701 55.8321 55.9081 57.291 58.7808C57.3366 58.8699 57.3996 58.9489 57.4763 59.0133C57.5529 59.0776 57.6417 59.126 57.7373 59.1555C57.8329 59.185 57.9335 59.1951 58.0331 59.1851C58.1326 59.1752 58.2292 59.1454 58.3171 59.0976C58.405 59.0497 58.4825 58.9848 58.5449 58.9065C58.6073 58.8283 58.6534 58.7383 58.6805 58.642C58.7076 58.5457 58.7151 58.4449 58.7027 58.3456C58.6902 58.2463 58.658 58.1505 58.608 58.0638C57.0202 54.9536 54.6402 52.3173 51.708 50.4208C51.6005 50.361 51.506 50.2805 51.4299 50.1838C51.3539 50.0872 51.2978 49.9763 51.265 49.8578C51.2394 49.7583 51.2343 49.6546 51.2499 49.553C51.2656 49.4514 51.3017 49.354 51.356 49.2668C55.12 43.0048 54.512 41.9298 54.256 41.4668C54.142 41.2695 53.9763 41.1071 53.7769 40.997C53.5774 40.8869 53.3517 40.8332 53.124 40.8418C51.9742 40.8749 50.8327 41.0464 49.724 41.3528C48.6484 41.6529 47.5402 41.8208 46.424 41.8528C45.464 41.8357 44.5113 41.6832 43.594 41.3998C42.3908 41.0405 41.1427 40.8533 39.887 40.8438C39.6188 40.8264 39.3511 40.8853 39.1148 41.0136C38.8786 41.1419 38.6835 41.3343 38.552 41.5688C38.3 42.0318 37.63 43.2618 41.531 49.3038C41.5897 49.3908 41.6296 49.4891 41.6484 49.5924C41.6672 49.6956 41.6643 49.8017 41.64 49.9038C41.609 50.0256 41.5537 50.1398 41.4774 50.2397C41.4011 50.3395 41.3054 50.4229 41.196 50.4848C35.4 53.9818 31.5 62.4708 31.5 68.2048C31.5 75.4998 37.81 80.7998 46.5 80.7998C46.788 80.7998 47.074 80.7938 47.358 80.7818C47.4565 80.7779 47.5533 80.7547 47.6428 80.7134C47.7323 80.6722 47.8128 80.6137 47.8797 80.5413C47.9466 80.4689 47.9986 80.384 48.0327 80.2916C48.0668 80.1991 48.0824 80.1008 48.0785 80.0023C48.0746 79.9038 48.0514 79.807 48.0101 79.7175C47.9689 79.628 47.9104 79.5475 47.838 79.4806C47.7656 79.4137 47.6807 79.3617 47.5883 79.3276C47.4958 79.2935 47.3975 79.2779 47.299 79.2818L47.3 79.2798Z" fill="#1A1A1A"/>
</g>
<defs>
<clipPath id="clip0_1571_1816">
<rect width="48" height="48" fill="white" transform="translate(31.5 39)"/>
</clipPath>
</defs>
</svg>
