<svg width="32" height="32" viewBox="0 0 32 32" fill="none" xmlns="http://www.w3.org/2000/svg">
<path d="M19.4867 19.7534C19.4397 20.8518 19.1723 21.9294 18.7005 22.9224C18.2286 23.9154 17.5619 24.8033 16.74 25.5334C15.5605 26.568 14.0776 27.1925 12.5134 27.3134C12.24 27.3401 12.0267 27.3467 11.8934 27.3467H11.7334C11.32 27.3867 10.4467 27.3467 10.0134 27.3467C4.76669 27.3467 0.52002 24.3201 0.52002 19.4601C0.52002 15.7534 2.98669 10.5334 6.47335 8.24673C6.58002 8.1734 6.69335 8.10673 6.80002 8.04007C6.98814 7.93258 7.14099 7.77277 7.24002 7.58007C7.3067 7.45491 7.34541 7.31677 7.35347 7.17519C7.36153 7.03361 7.33874 6.89197 7.28669 6.76007C7.26688 6.69936 7.24003 6.64119 7.20669 6.58673C7.11335 6.4334 7.02002 6.26673 6.91335 6.0934C5.91335 4.36673 4.54669 1.7334 5.60669 1.7334C7.17335 1.7334 8.38669 2.40673 10.0667 2.40673C11.7467 2.40673 12.48 1.7334 14.42 1.7334C15.7267 1.7334 14.3 4.36673 13.2267 6.0934C13.1134 6.2734 13.0067 6.44673 12.9067 6.60007C12.8734 6.6534 12.8467 6.70673 12.82 6.76007C12.7654 6.89045 12.739 7.03089 12.7425 7.1722C12.7459 7.31351 12.7792 7.45249 12.84 7.58007C12.9363 7.78924 13.0946 7.96377 13.2934 8.08007C13.38 8.1334 13.4734 8.1934 13.56 8.24673C16.44 10.1401 18.5467 14.0601 19.2867 17.4401C19.3334 17.6667 19.3734 17.8867 19.4134 18.1067C19.4267 18.2001 19.44 18.3001 19.4534 18.3934C19.5015 18.8451 19.5126 19.2999 19.4867 19.7534Z" fill="#C1ECFB"/>
<path d="M31.5 12.3003V24.0203C31.5 25.067 28.7 25.9203 25.2467 25.9203C21.7933 25.9203 19 25.067 19 24.0203V12.3003C19 13.347 21.8 14.2003 25.2467 14.2003C28.6933 14.2003 31.5 13.347 31.5 12.3003Z" fill="#F6CC7C"/>
<path d="M25.2494 14.1987C28.7016 14.1987 31.5001 13.3499 31.5001 12.3027C31.5001 11.2556 28.7016 10.4067 25.2494 10.4067C21.7973 10.4067 18.9988 11.2556 18.9988 12.3027C18.9988 13.3499 21.7973 14.1987 25.2494 14.1987Z" fill="#FFB963"/>
<path d="M23.7867 24.0468V24.2002C23.788 25.4003 23.4333 26.5739 22.7675 27.5724C22.1017 28.571 21.1546 29.3496 20.0462 29.8098C18.9378 30.27 17.7178 30.3911 16.5405 30.1577C15.3633 29.9244 14.2817 29.3471 13.4326 28.499C12.5835 27.6508 12.005 26.5698 11.7704 25.3928C11.5358 24.2158 11.6555 22.9957 12.1145 21.8868C12.5735 20.7778 13.351 19.8299 14.3488 19.163C15.3466 18.4961 16.5198 18.1402 17.72 18.1402C18.1505 18.1391 18.5798 18.1861 19 18.2802C19.0133 18.2802 19.02 18.2802 19.0267 18.2868C19.9585 18.4888 20.8291 18.9092 21.5667 19.5135C21.7322 19.6492 21.8902 19.7939 22.04 19.9468C22.5451 20.4584 22.9539 21.0569 23.2467 21.7135C23.3045 21.8282 23.3557 21.9462 23.4 22.0668C23.5978 22.5915 23.7213 23.1413 23.7667 23.7002C23.7733 23.8135 23.78 23.9335 23.7867 24.0468Z" fill="#FCAC44"/>
<path d="M18.2619 23.7026H17.0066C16.8146 23.6968 16.6324 23.6165 16.4987 23.4787C16.3649 23.3408 16.2901 23.1563 16.2901 22.9643C16.2901 22.7722 16.3649 22.5877 16.4987 22.4499C16.6324 22.312 16.8146 22.2317 17.0066 22.2259H18.2619C18.4576 22.2261 18.6452 22.3039 18.7836 22.4423C18.9219 22.5806 18.9998 22.7683 18.9999 22.9639C18.9999 23.0965 19.0526 23.2237 19.1464 23.3175C19.2401 23.4113 19.3673 23.4639 19.4999 23.4639C19.6325 23.4639 19.7597 23.4113 19.8535 23.3175C19.9473 23.2237 19.9999 23.0965 19.9999 22.9639C19.9994 22.5032 19.8161 22.0614 19.4903 21.7356C19.1645 21.4097 18.7227 21.2265 18.2619 21.2259H18.1333V20.2666C18.1333 20.134 18.0806 20.0068 17.9868 19.913C17.8931 19.8193 17.7659 19.7666 17.6333 19.7666C17.5007 19.7666 17.3735 19.8193 17.2797 19.913C17.1859 20.0068 17.1333 20.134 17.1333 20.2666V21.2259H17.0066C16.5515 21.2348 16.118 21.4219 15.7992 21.7469C15.4805 22.072 15.302 22.509 15.302 22.9643C15.302 23.4195 15.4805 23.8566 15.7992 24.1816C16.118 24.5066 16.5515 24.6937 17.0066 24.7026H18.2619C18.4577 24.7026 18.6454 24.7804 18.7838 24.9188C18.9222 25.0572 18.9999 25.2449 18.9999 25.4406C18.9999 25.6363 18.9222 25.824 18.7838 25.9624C18.6454 26.1008 18.4577 26.1786 18.2619 26.1786H17.0066C16.9095 26.1788 16.8134 26.1598 16.7237 26.1228C16.6339 26.0858 16.5524 26.0315 16.4837 25.963C16.4149 25.8944 16.3604 25.813 16.3231 25.7234C16.2859 25.6338 16.2667 25.5377 16.2666 25.4406C16.2666 25.308 16.2139 25.1808 16.1202 25.087C16.0264 24.9933 15.8992 24.9406 15.7666 24.9406C15.634 24.9406 15.5068 24.9933 15.413 25.087C15.3193 25.1808 15.2666 25.308 15.2666 25.4406C15.2671 25.9014 15.4504 26.3431 15.7762 26.669C16.1021 26.9948 16.5438 27.1781 17.0046 27.1786H17.1333V28.1373C17.1333 28.2699 17.1859 28.3971 17.2797 28.4908C17.3735 28.5846 17.5007 28.6373 17.6333 28.6373C17.7659 28.6373 17.8931 28.5846 17.9868 28.4908C18.0806 28.3971 18.1333 28.2699 18.1333 28.1373V27.1786H18.2606C18.7215 27.1786 19.1636 26.9955 19.4896 26.6696C19.8155 26.3436 19.9986 25.9015 19.9986 25.4406C19.9986 24.9797 19.8155 24.5376 19.4896 24.2117C19.1636 23.8857 18.7215 23.7026 18.2606 23.7026H18.2619Z" fill="#EB7729"/>
<path d="M17.7187 17.6377C16.5667 17.6372 15.4348 17.9398 14.4367 18.515C14.3798 18.5479 14.3299 18.5917 14.2899 18.6438C14.2499 18.696 14.2206 18.7555 14.2036 18.819C14.1866 18.8824 14.1823 18.9487 14.1909 19.0138C14.1995 19.079 14.2208 19.1418 14.2537 19.1987C14.2865 19.2556 14.3303 19.3055 14.3825 19.3455C14.4346 19.3855 14.4941 19.4148 14.5576 19.4318C14.6211 19.4488 14.6873 19.4531 14.7525 19.4445C14.8176 19.4359 14.8804 19.4146 14.9373 19.3817C16.163 18.673 17.6125 18.4574 18.9914 18.7784C20.3703 19.0995 21.5754 19.9333 22.362 21.1105C23.1485 22.2877 23.4576 23.7201 23.2266 25.117C22.9955 26.5138 22.2415 27.7703 21.1177 28.6315C19.9939 29.4927 18.5846 29.894 17.1757 29.7538C15.7668 29.6137 14.4641 28.9428 13.5319 27.8771C12.5998 26.8115 12.108 25.431 12.1566 24.0161C12.2051 22.6011 12.7903 21.2576 13.7933 20.2584C13.8412 20.2123 13.8794 20.1573 13.9057 20.0963C13.9321 20.0354 13.946 19.9698 13.9467 19.9034C13.9475 19.8371 13.935 19.7712 13.91 19.7097C13.885 19.6482 13.848 19.5923 13.8012 19.5452C13.7543 19.4982 13.6986 19.4609 13.6372 19.4356C13.5758 19.4104 13.51 19.3976 13.4437 19.398C13.3773 19.3984 13.3116 19.412 13.2506 19.4381C13.1895 19.4641 13.1342 19.5021 13.088 19.5497C12.0109 20.6215 11.339 22.0337 11.1868 23.5455C11.0346 25.0573 11.4116 26.5751 12.2534 27.84C13.0952 29.105 14.3498 30.0387 15.8031 30.4821C17.2565 30.9254 18.8186 30.8508 20.2231 30.2711C21.6276 29.6914 22.7876 28.6424 23.5051 27.303C24.2226 25.9637 24.4533 24.4169 24.1578 22.9264C23.8623 21.436 23.059 20.0942 21.8848 19.1299C20.7105 18.1655 19.2381 17.6384 17.7187 17.6384V17.6377Z" fill="#1A1A1A"/>
<path d="M18.262 26.1789H17.0067C16.9096 26.179 16.8135 26.1601 16.7237 26.1231C16.634 26.0861 16.5524 26.0318 16.4837 25.9632C16.415 25.8947 16.3605 25.8133 16.3232 25.7236C16.286 25.634 16.2668 25.5379 16.2667 25.4409C16.2667 25.3083 16.214 25.1811 16.1202 25.0873C16.0265 24.9935 15.8993 24.9409 15.7667 24.9409C15.6341 24.9409 15.5069 24.9935 15.4131 25.0873C15.3193 25.1811 15.2667 25.3083 15.2667 25.4409C15.2672 25.9016 15.4505 26.3434 15.7763 26.6692C16.1021 26.9951 16.5439 27.1783 17.0047 27.1789H17.1333V28.1375C17.1333 28.2701 17.186 28.3973 17.2798 28.4911C17.3735 28.5849 17.5007 28.6375 17.6333 28.6375C17.7659 28.6375 17.8931 28.5849 17.9869 28.4911C18.0807 28.3973 18.1333 28.2701 18.1333 28.1375V27.1789H18.2607C18.7216 27.1789 19.1637 26.9958 19.4896 26.6698C19.8156 26.3439 19.9987 25.9018 19.9987 25.4409C19.9987 24.9799 19.8156 24.5378 19.4896 24.2119C19.1637 23.886 18.7216 23.7029 18.2607 23.7029H17.0067C16.8147 23.6971 16.6325 23.6168 16.4988 23.4789C16.365 23.3411 16.2902 23.1566 16.2902 22.9645C16.2902 22.7725 16.365 22.5879 16.4988 22.4501C16.6325 22.3123 16.8147 22.232 17.0067 22.2262H18.262C18.4577 22.2264 18.6453 22.3042 18.7836 22.4425C18.922 22.5809 18.9998 22.7685 19 22.9642C19 23.0968 19.0527 23.224 19.1464 23.3177C19.2402 23.4115 19.3674 23.4642 19.5 23.4642C19.6326 23.4642 19.7598 23.4115 19.8536 23.3177C19.9473 23.224 20 23.0968 20 22.9642C19.9995 22.5034 19.8162 22.0616 19.4904 21.7358C19.1645 21.41 18.7228 21.2267 18.262 21.2262H18.1333V20.2669C18.1333 20.1343 18.0807 20.0071 17.9869 19.9133C17.8931 19.8195 17.7659 19.7669 17.6333 19.7669C17.5007 19.7669 17.3735 19.8195 17.2798 19.9133C17.186 20.0071 17.1333 20.1343 17.1333 20.2669V21.2262H17.0067C16.5515 21.2351 16.118 21.4222 15.7993 21.7472C15.4806 22.0722 15.302 22.5093 15.302 22.9645C15.302 23.4198 15.4806 23.8568 15.7993 24.1819C16.118 24.5069 16.5515 24.6939 17.0067 24.7029H18.262C18.4577 24.7029 18.6454 24.7806 18.7838 24.919C18.9222 25.0574 19 25.2451 19 25.4409C19 25.6366 18.9222 25.8243 18.7838 25.9627C18.6454 26.1011 18.4577 26.1789 18.262 26.1789ZM29.6113 10.4249C29.485 10.3939 29.3516 10.4134 29.2394 10.4791C29.1273 10.5449 29.0451 10.6518 29.0104 10.7771C28.9757 10.9024 28.9912 11.0363 29.0536 11.1504C29.116 11.2645 29.2204 11.3498 29.3447 11.3882C30.6973 11.7642 31.002 12.1882 31.002 12.3029C31.002 12.7202 29.0453 13.6989 25.252 13.6989C21.4587 13.6989 19.5013 12.7202 19.5013 12.3029C19.5013 11.8855 21.4573 10.9069 25.252 10.9069C26.1494 10.9036 27.0459 10.9667 27.934 11.0955C28.0633 11.1109 28.1936 11.0753 28.2971 10.9962C28.4006 10.9172 28.4692 10.8009 28.4884 10.6721C28.5075 10.5432 28.4758 10.412 28.3998 10.3062C28.3238 10.2005 28.2095 10.1285 28.0813 10.1055C27.1444 9.96993 26.1987 9.90308 25.252 9.90553C22.0007 9.90553 18.5013 10.6555 18.5013 12.3015V16.1915C18.5013 17.8375 22.0007 18.5875 25.252 18.5875C27.4373 18.5875 29.7307 18.2469 31.002 17.5242V18.1362C31.002 18.5535 29.0453 19.5322 25.252 19.5322C24.8167 19.5322 24.3927 19.5189 23.9853 19.4922C23.853 19.4845 23.7229 19.5291 23.6232 19.6164C23.5234 19.7037 23.4619 19.8267 23.452 19.9589C23.4474 20.0246 23.4558 20.0905 23.4768 20.153C23.4978 20.2154 23.5309 20.2731 23.5743 20.3227C23.6177 20.3722 23.6705 20.4127 23.7296 20.4418C23.7887 20.4709 23.8529 20.488 23.9187 20.4922C24.3487 20.5202 24.7947 20.5349 25.252 20.5349C27.4373 20.5349 29.7307 20.1942 31.002 19.4682V20.0802C31.002 20.4975 29.0453 21.4802 25.252 21.4802H25.0873C25.0593 21.4802 25.0433 21.4802 24.954 21.4802C24.8229 21.4811 24.6969 21.5315 24.6015 21.6214C24.506 21.7113 24.4481 21.834 24.4393 21.9649C24.4356 22.0975 24.4845 22.2262 24.5755 22.3228C24.6665 22.4194 24.792 22.476 24.9247 22.4802C24.9913 22.4802 25.0333 22.4802 25.0613 22.4802H25.128H25.2573C27.4427 22.4802 29.736 22.1389 31.0073 21.4135V22.0255C31.0073 22.4429 29.0507 23.4215 25.2573 23.4215C25.1247 23.4215 24.9975 23.4742 24.9038 23.568C24.81 23.6617 24.7573 23.7889 24.7573 23.9215C24.7573 24.0541 24.81 24.1813 24.9038 24.2751C24.9975 24.3688 25.1247 24.4215 25.2573 24.4215C27.4427 24.4215 29.736 24.0802 31.0073 23.3582V24.0189C31.0073 24.4362 29.0507 25.4149 25.2573 25.4149H25.078C24.9476 25.4205 24.8239 25.4741 24.7306 25.5654C24.6373 25.6567 24.5811 25.7793 24.5727 25.9095C24.5714 26.0421 24.6228 26.1697 24.7155 26.2645C24.8083 26.3592 24.9348 26.4133 25.0673 26.4149H25.2573C28.5007 26.4169 32 25.6669 32 24.0209V12.3029C32 11.7495 31.5853 10.9749 29.6113 10.4249ZM25.25 14.6989C27.4353 14.6989 29.7287 14.3582 31 13.6355V14.2475C31 14.6649 29.0433 15.6475 25.25 15.6475C21.4567 15.6475 19.4993 14.6682 19.4993 14.2475V13.6355C20.7707 14.3582 23.0667 14.6989 25.25 14.6989ZM25.25 17.5889C21.4553 17.5889 19.4993 16.6102 19.4993 16.1929V15.5809C20.7707 16.3035 23.0633 16.6475 25.25 16.6475C27.4367 16.6475 29.7287 16.3069 31 15.5809V16.1929C31 16.6102 29.0433 17.5889 25.25 17.5889ZM10.5333 26.8535C10.3573 26.8602 10.18 26.8642 10 26.8642C4.7 26.8642 1 23.8235 1 19.4702C1 15.9202 3.4 10.6702 6.97933 8.51353C7.028 8.48353 7.06867 8.44686 7.11267 8.41353H11.2C11.3326 8.41353 11.4598 8.36085 11.5536 8.26708C11.6473 8.17331 11.7 8.04613 11.7 7.91353C11.7 7.78092 11.6473 7.65374 11.5536 7.55997C11.4598 7.4662 11.3326 7.41353 11.2 7.41353H7.74333C7.81155 7.0377 7.73382 6.65001 7.526 6.32953C5.836 3.71153 5.50733 2.53353 5.56867 2.22819C5.57511 2.23196 5.58257 2.2336 5.59 2.23286C6.34083 2.23809 7.08697 2.35171 7.80533 2.57019C8.50034 2.78144 9.22166 2.89365 9.948 2.90353C10.7691 2.88338 11.5848 2.76293 12.3767 2.54486C13.0043 2.37204 13.6486 2.26744 14.2987 2.23286C14.2807 2.60953 13.9073 3.72219 12.616 5.92619H8.8C8.66739 5.92619 8.54022 5.97887 8.44645 6.07264C8.35268 6.16641 8.3 6.29358 8.3 6.42619C8.3 6.5588 8.35268 6.68598 8.44645 6.77975C8.54022 6.87351 8.66739 6.92619 8.8 6.92619H12.1747C12.15 7.11255 12.1609 7.30188 12.2067 7.48419C12.2602 7.69131 12.3547 7.88563 12.4844 8.05575C12.6141 8.22587 12.7765 8.36836 12.962 8.47486C14.7618 9.64708 16.2214 11.2724 17.194 13.1875C17.2244 13.2469 17.2664 13.2996 17.3175 13.3425C17.3686 13.3854 17.4278 13.4176 17.4915 13.4373C17.5553 13.457 17.6223 13.4637 17.6887 13.4571C17.7551 13.4505 17.8195 13.4306 17.8781 13.3987C17.9367 13.3668 17.9883 13.3235 18.0299 13.2713C18.0715 13.2192 18.1023 13.1592 18.1203 13.095C18.1384 13.0308 18.1434 12.9636 18.1351 12.8974C18.1268 12.8312 18.1054 12.7673 18.072 12.7095C17.0135 10.6361 15.4268 8.87852 13.472 7.61419C13.4003 7.57435 13.3373 7.52065 13.2866 7.45621C13.2359 7.39177 13.1985 7.31789 13.1767 7.23886C13.1596 7.1725 13.1562 7.10336 13.1666 7.03564C13.177 6.96792 13.2011 6.90302 13.2373 6.84486C15.7467 2.67019 15.3413 1.95353 15.1707 1.64486C15.0946 1.51336 14.9842 1.40507 14.8512 1.33166C14.7183 1.25824 14.5678 1.22247 14.416 1.22819C13.6495 1.25024 12.8885 1.36462 12.1493 1.56886C11.4323 1.76894 10.6935 1.88088 9.94933 1.90219C9.30937 1.89082 8.67421 1.78915 8.06267 1.60019C7.2605 1.36065 6.42847 1.23586 5.59133 1.22953C5.4125 1.21794 5.23404 1.25718 5.07655 1.3427C4.91907 1.42823 4.78899 1.55655 4.70133 1.71286C4.53333 2.02153 4.08667 2.84153 6.68733 6.86953C6.72645 6.92755 6.7531 6.99306 6.76561 7.06191C6.77811 7.13076 6.77621 7.20145 6.76 7.26953C6.73932 7.35071 6.70244 7.42687 6.65157 7.49343C6.60071 7.56 6.5369 7.61559 6.464 7.65686C2.6 9.98819 0 15.6475 0 19.4702C0 24.3335 4.20667 27.8669 10 27.8669C10.192 27.8669 10.3827 27.8629 10.572 27.8549C10.6377 27.8523 10.7022 27.8368 10.7618 27.8093C10.8215 27.7818 10.8752 27.7428 10.9198 27.6945C10.9644 27.6463 10.9991 27.5897 11.0218 27.528C11.0445 27.4664 11.0549 27.4009 11.0523 27.3352C11.0498 27.2695 11.0343 27.205 11.0067 27.1453C10.9792 27.0857 10.9402 27.032 10.892 26.9874C10.8437 26.9428 10.7872 26.9081 10.7255 26.8854C10.6639 26.8627 10.5983 26.8523 10.5327 26.8549L10.5333 26.8535Z" fill="#1A1A1A"/>
</svg>
