<svg width="32" height="32" fill="none" xmlns="http://www.w3.org/2000/svg"><g clip-path="url(#a)"><path d="M1.344 2.531h7.062v29h-7.25V2.72a.187.187 0 0 1 .188-.188Zm29.5 29h-7.25v-29h7.062a.187.187 0 0 1 .188.188V31.53Z" fill="#E4EEF9"/><path d="M28.969 2.531v29h1.875V2.72a.187.187 0 0 0-.188-.188H28.97Zm-7.25 1.563H6.53V31.53h15.19V4.094Z" fill="#D5E0F2"/><path d="M8.594.469h14.812a.187.187 0 0 1 .188.187v30.875H8.406V.656A.187.187 0 0 1 8.594.47Z" fill="#E4EEF9"/><path d="M23.406.469h-1.875a.187.187 0 0 1 .188.187v30.875h1.875V.656a.187.187 0 0 0-.188-.187Z" fill="#D5E0F2"/><path d="M1.344 2.531h7.062v1.563h-7.25V2.719a.187.187 0 0 1 .188-.188Z" fill="#91C771"/><path d="M6.625 2.531h1.781v1.563H6.531V2.625a.096.096 0 0 1 .094-.094Z" fill="#77BE51"/><path d="M30.844 4.094h-7.25V2.53h7.062a.187.187 0 0 1 .188.188v1.375Z" fill="#91C771"/><path d="M28.969 2.531v1.563h1.875V2.719a.187.187 0 0 0-.188-.188H28.97Z" fill="#77BE51"/><path d="M8.594.469h14.812a.187.187 0 0 1 .188.187v1.375H8.406V.656A.187.187 0 0 1 8.594.47Z" fill="#91C771"/><path d="M23.406.469h-1.875a.187.187 0 0 1 .188.187v1.375h1.875V.656a.187.187 0 0 0-.188-.187Z" fill="#77BE51"/><path d="M14.563 3.906h-3.438a.187.187 0 0 0-.188.188V6.28c0 .104.084.188.188.188h3.438a.187.187 0 0 0 .187-.188V4.094a.187.187 0 0 0-.188-.188Zm6.312 0h-3.438a.187.187 0 0 0-.187.188V6.28c0 .104.084.188.188.188h3.437a.187.187 0 0 0 .188-.188V4.094a.187.187 0 0 0-.188-.188Z" fill="#52BBE9"/><path d="M20.875 3.906h-1.25a.188.188 0 0 1 .188.188V6.28a.188.188 0 0 1-.188.188h1.25a.188.188 0 0 0 .188-.188V4.094a.188.188 0 0 0-.188-.188Z" fill="#1CABE1"/><path d="M28.204 6.397h-1.97a.187.187 0 0 0-.187.188v1.456c0 .103.084.187.187.187h1.97a.188.188 0 0 0 .187-.187V6.585a.188.188 0 0 0-.187-.188Zm0 4.251h-1.97a.187.187 0 0 0-.187.187v1.456c0 .103.084.187.187.187h1.97a.188.188 0 0 0 .187-.187v-1.456a.188.188 0 0 0-.187-.188Zm0 4.25h-1.97a.187.187 0 0 0-.187.187v1.456c0 .103.084.187.187.187h1.97a.188.188 0 0 0 .187-.187v-1.456a.188.188 0 0 0-.187-.188Zm0 4.25h-1.97a.187.187 0 0 0-.187.187v1.456c0 .103.084.187.187.187h1.97a.188.188 0 0 0 .187-.187v-1.456a.188.188 0 0 0-.187-.188Zm0 4.25h-1.97a.187.187 0 0 0-.187.187v1.456c0 .103.084.187.187.187h1.97a.188.188 0 0 0 .187-.187v-1.456a.188.188 0 0 0-.187-.188Zm0 4.25h-1.97a.187.187 0 0 0-.187.187v1.456c0 .103.084.187.187.187h1.97a.188.188 0 0 0 .187-.187v-1.456a.188.188 0 0 0-.187-.188ZM5.766 6.397h-1.97a.187.187 0 0 0-.187.188v1.456c0 .103.084.187.188.187h1.97a.188.188 0 0 0 .187-.187V6.585a.188.188 0 0 0-.188-.188Zm0 4.251h-1.97a.187.187 0 0 0-.187.187v1.456c0 .103.084.187.188.187h1.97a.188.188 0 0 0 .187-.187v-1.456a.187.187 0 0 0-.188-.188Zm0 4.25h-1.97a.187.187 0 0 0-.187.187v1.456c0 .103.084.187.188.187h1.97a.188.188 0 0 0 .187-.187v-1.456a.187.187 0 0 0-.188-.188Zm0 4.25h-1.97a.187.187 0 0 0-.187.187v1.456c0 .103.084.187.188.187h1.97a.188.188 0 0 0 .187-.187v-1.456a.187.187 0 0 0-.188-.188Zm0 4.25h-1.97a.187.187 0 0 0-.187.187v1.456c0 .103.084.187.188.187h1.97a.188.188 0 0 0 .187-.187v-1.456a.187.187 0 0 0-.188-.188Zm0 4.25h-1.97a.187.187 0 0 0-.187.187v1.456c0 .103.084.187.188.187h1.97a.188.188 0 0 0 .187-.187v-1.456a.187.187 0 0 0-.188-.188Zm8.797-19.367h-3.438a.187.187 0 0 0-.188.188v2.187c0 .104.084.188.188.188h3.438a.188.188 0 0 0 .187-.188V8.47a.187.187 0 0 0-.188-.188Zm6.312 0h-3.438a.187.187 0 0 0-.187.188v2.187c0 .104.084.188.188.188h3.437a.188.188 0 0 0 .188-.188V8.47a.187.187 0 0 0-.188-.188Z" fill="#52BBE9"/><path d="M20.875 8.281h-1.25a.188.188 0 0 1 .188.188v2.187a.188.188 0 0 1-.188.188h1.25a.188.188 0 0 0 .188-.188V8.47a.188.188 0 0 0-.188-.188Z" fill="#1CABE1"/><path d="M14.563 12.531h-3.438a.188.188 0 0 0-.188.188v2.187c0 .104.084.188.188.188h3.438a.188.188 0 0 0 .187-.188V12.72a.188.188 0 0 0-.188-.188Zm6.312 0h-3.438a.188.188 0 0 0-.187.188v2.187c0 .104.084.188.188.188h3.437a.188.188 0 0 0 .188-.188V12.72a.188.188 0 0 0-.188-.188Z" fill="#52BBE9"/><path d="M20.875 12.531h-1.25a.188.188 0 0 1 .188.188v2.187a.188.188 0 0 1-.188.188h1.25a.188.188 0 0 0 .188-.188V12.72a.188.188 0 0 0-.188-.188Z" fill="#1CABE1"/><path d="M14.563 16.781h-3.438a.188.188 0 0 0-.188.188v2.187c0 .104.084.188.188.188h3.438a.188.188 0 0 0 .187-.188V16.97a.188.188 0 0 0-.188-.188Zm6.312 0h-3.438a.188.188 0 0 0-.187.188v2.187c0 .104.084.188.188.188h3.437a.188.188 0 0 0 .188-.188V16.97a.188.188 0 0 0-.188-.188Z" fill="#52BBE9"/><path d="M20.875 16.781h-1.25a.188.188 0 0 1 .188.188v2.187a.188.188 0 0 1-.188.188h1.25a.188.188 0 0 0 .188-.188V16.97a.188.188 0 0 0-.188-.188Z" fill="#1CABE1"/><path d="M14.563 21.031h-3.438a.188.188 0 0 0-.188.188v2.187c0 .104.084.188.188.188h3.438a.188.188 0 0 0 .187-.188V21.22a.188.188 0 0 0-.188-.188Zm6.312 0h-3.438a.188.188 0 0 0-.187.188v2.187c0 .104.084.188.188.188h3.437a.188.188 0 0 0 .188-.188V21.22a.188.188 0 0 0-.188-.188Z" fill="#52BBE9"/><path d="M20.875 21.031h-1.25a.188.188 0 0 1 .188.188v2.187a.188.188 0 0 1-.188.188h1.25a.188.188 0 0 0 .188-.188V21.22a.188.188 0 0 0-.188-.188Z" fill="#1CABE1"/><path d="M11.125 25.219h3.438a.187.187 0 0 1 .187.187v6.125h-3.813v-6.125a.187.187 0 0 1 .188-.187Z" fill="#F9B15E"/><path d="M14.563 25.219h-1.876a.187.187 0 0 1 .188.187v6.125h1.875v-6.125a.187.187 0 0 0-.188-.187Z" fill="#F9A242"/><path d="M17.438 25.219h3.437a.187.187 0 0 1 .188.187v6.125H17.25v-6.125a.187.187 0 0 1 .188-.187Z" fill="#F9B15E"/><path d="M20.875 25.219H19a.187.187 0 0 1 .188.187v6.125h1.875v-6.125a.187.187 0 0 0-.188-.187Z" fill="#F9A242"/><path d="M31.531 32H.47a.469.469 0 0 1 0-.938h31.06a.469.469 0 1 1 0 .938Z" fill="#787681"/></g><defs><clipPath id="a"><path fill="#fff" d="M0 0h32v32H0z"/></clipPath></defs></svg>