<svg width="32" height="32" fill="none" xmlns="http://www.w3.org/2000/svg"><g clip-path="url(#a)"><path d="M16 31.875c8.767 0 15.875-7.108 15.875-15.875C31.875 7.232 24.767.125 16 .125 7.232.125.125 7.232.125 16c0 8.767 7.107 15.875 15.875 15.875Z" fill="#FBCA61"/><path d="M23.475 17.85c1.684 0 3.05-1.355 3.05-3.025S25.16 11.8 23.475 11.8c-1.684 0-3.05 1.354-3.05 3.025 0 1.67 1.366 3.025 3.05 3.025Z" fill="#fff"/><path d="M23.475 18.375A3.574 3.574 0 0 1 19.9 14.8c0-1.95 1.6-3.55 3.575-3.55s3.575 1.6 3.575 3.575c0 1.95-1.6 3.55-3.575 3.55Zm0-6.075c-1.4 0-2.525 1.125-2.525 2.5s1.125 2.5 2.525 2.5S26 16.175 26 14.8c-.025-1.375-1.15-2.5-2.525-2.5Z" fill="#313C42"/><path d="M8.425 17.85c1.684 0 3.05-1.355 3.05-3.025S10.11 11.8 8.425 11.8c-1.684 0-3.05 1.354-3.05 3.025 0 1.67 1.366 3.025 3.05 3.025Z" fill="#fff"/><path d="M8.425 18.375a3.574 3.574 0 1 1 0-7.15c1.975 0 3.575 1.625 3.575 3.6 0 1.95-1.6 3.55-3.575 3.55Zm0-6.075c-1.4 0-2.525 1.125-2.525 2.5s1.125 2.5 2.525 2.5 2.525-1.125 2.525-2.5c-.025-1.375-1.15-2.5-2.525-2.5Z" fill="#313C42"/><path d="M15.95 19.075c1.684 0 3.05-1.354 3.05-3.025 0-1.67-1.366-3.025-3.05-3.025-1.684 0-3.05 1.354-3.05 3.025 0 1.67 1.366 3.025 3.05 3.025Z" fill="#E8E8E8"/><path d="M15.95 19.625a3.574 3.574 0 1 1 0-7.15 3.574 3.574 0 1 1 0 7.15Zm0-6.075c-1.4 0-2.525 1.125-2.525 2.5s1.125 2.5 2.525 2.5 2.525-1.125 2.525-2.5c-.025-1.375-1.15-2.5-2.525-2.5Z" fill="#313C42"/><path d="M17.55 20.9a4.925 4.925 0 0 1-3.25 0c-2.5.85-4.35 3.65-4.35 6.975 0 .95.65 1.725 1.425 1.725h9.15c.8 0 1.425-.775 1.425-1.725 0-3.325-1.85-6.125-4.4-6.975Z" fill="#fff"/><path d="M20.525 30.125h-9.15c-1.075 0-1.975-1-1.975-2.25 0-3.45 1.95-6.525 4.75-7.45.125-.05.225-.025.35 0a4.36 4.36 0 0 0 2.875 0c.1-.05.225-.05.35 0 2.8.95 4.75 4 4.75 7.45 0 1.225-.875 2.25-1.95 2.25Zm-6.2-8.65c-2.275.85-3.875 3.45-3.875 6.4 0 .65.425 1.2.9 1.2h9.15c.5 0 .9-.55.9-1.2 0-2.925-1.575-5.525-3.875-6.4a5.373 5.373 0 0 1-3.2 0Z" fill="#313C42"/><path d="M9.95 27.875c0-2.675 1.2-5 3-6.25-.75-1.05-1.75-1.825-2.9-2.2a4.925 4.925 0 0 1-3.25 0c-2.525.85-4.4 3.625-4.4 6.95 0 .95.65 1.725 1.425 1.725h6.1v-.225h.025Z" fill="#FFE8AE"/><path d="M9.95 28.625h-6.1c-1.075 0-1.975-1-1.975-2.25 0-3.45 1.95-6.525 4.75-7.45.125-.05.225-.025.35 0a4.36 4.36 0 0 0 2.875 0c.1-.05.225-.05.35 0 1.225.4 2.325 1.25 3.15 2.4.075.125.125.25.1.4a.486.486 0 0 1-.225.35c-1.7 1.2-2.775 3.425-2.775 5.8v.225a.493.493 0 0 1-.5.525Zm-3.15-8.65c-2.275.85-3.875 3.45-3.875 6.4 0 .65.425 1.2.9 1.2H9.4c.075-2.4 1.1-4.65 2.775-6.05-.625-.725-1.35-1.25-2.15-1.55-1.05.35-2.175.35-3.225 0Z" fill="#313C42"/><path d="M25.075 19.425a4.925 4.925 0 0 1-3.25 0c-1.15.375-2.15 1.15-2.9 2.2 1.8 1.25 3 3.575 3 6.25v.225h6.1c.8 0 1.425-.775 1.425-1.725.025-3.325-1.825-6.1-4.375-6.95Z" fill="#E8E8E8"/><path d="M28.05 28.625h-6.1c-.3 0-.525-.25-.525-.525v-.225c0-2.4-1.05-4.625-2.775-5.8a.486.486 0 0 1-.225-.35.469.469 0 0 1 .1-.4c.85-1.15 1.925-1.975 3.15-2.4.125-.05.225-.025.35 0a4.36 4.36 0 0 0 2.875 0c.1-.05.225-.05.35 0 2.8.95 4.75 4 4.75 7.45 0 1.25-.875 2.25-1.95 2.25Zm-5.575-1.05h5.575c.5 0 .9-.55.9-1.2 0-2.925-1.575-5.525-3.875-6.4a5.456 5.456 0 0 1-3.225 0c-.8.3-1.55.825-2.15 1.55 1.65 1.4 2.7 3.625 2.775 6.05Z" fill="#313C42"/><path d="M27.275 2.4H19.75a2.294 2.294 0 0 0-2.3 2.3v2.25c0 1.275 1.025 2.3 2.3 2.3l-.6 2.525 3.075-2.525h5.05c1.275 0 2.3-1.025 2.3-2.3V4.7c.025-1.25-1.025-2.3-2.3-2.3Z" fill="#FFE8AE"/><path d="M19.125 12.3c-.1 0-.2-.025-.275-.075a.522.522 0 0 1-.225-.575l.475-1.925a2.838 2.838 0 0 1-2.175-2.75v-2.25c0-1.55 1.275-2.825 2.85-2.825h7.55c1.575 0 2.85 1.275 2.85 2.825v2.25c0 1.55-1.275 2.825-2.85 2.825H22.4l-2.95 2.4c-.075.075-.2.1-.325.1Zm.625-9.35c-.975 0-1.775.8-1.775 1.775v2.25c0 .975.8 1.775 1.775 1.775.175 0 .325.075.425.2.1.125.125.3.1.45l-.25.975L21.9 8.85a.589.589 0 0 1 .325-.125h5.05c.975 0 1.775-.8 1.775-1.775V4.7c0-.975-.8-1.775-1.775-1.775H19.75v.025Z" fill="#313C42"/></g><defs><clipPath id="a"><path fill="#fff" d="M0 0h32v32H0z"/></clipPath></defs></svg>