<svg width="32" height="32" fill="none" xmlns="http://www.w3.org/2000/svg"><path d="M22.5 30.5a8 8 0 1 0 0-16 8 8 0 0 0 0 16Z" fill="#6562F1"/><path d="m21.61 25 .305-1.526 2.288-1.017-.406-.914-1.642.73.835-4.175-.98-.196-.974 4.868-1.74.773.407.914 1.093-.486-.286 1.43A.499.499 0 0 0 21 26h4.5v-1h-3.89Zm.89 4c-.4 0-.799-.037-1.192-.11l.182-.983c.376.07.759.1 1.141.091l.023 1A6.594 6.594 0 0 1 22.5 29Zm1.494-.173-.229-.973a5.463 5.463 0 0 0 1.079-.377l.427.904a6.464 6.464 0 0 1-1.277.446Zm-3.983-.32a6.51 6.51 0 0 1-1.188-.646l.567-.824a5.5 5.5 0 0 0 1.004.546l-.383.923Zm6.415-.826-.604-.797a5.55 5.55 0 0 0 .835-.782l.755.655c-.296.341-.626.65-.986.924Zm-8.63-.696a6.53 6.53 0 0 1-.827-1.07l.85-.526c.201.325.436.629.7.906l-.724.69Zm10.39-1.335-.873-.485c.185-.334.335-.687.447-1.052l.956.293c-.133.432-.31.849-.53 1.244Zm.788-2.57-.996-.09a5.599 5.599 0 0 0-.016-1.143l.993-.118a6.594 6.594 0 0 1 .02 1.35Zm-1.264-2.348a5.48 5.48 0 0 0-.479-1.038l.86-.511c.23.388.42.8.566 1.228l-.947.32Zm-9.975-.982-.865-.5a6.51 6.51 0 0 1 .794-1.094l.744.669a5.54 5.54 0 0 0-.673.925Zm8.813-.973a5.538 5.538 0 0 0-.857-.758l.58-.814c.368.263.707.562 1.013.894l-.736.678Zm-7.291-.72-.59-.807a6.507 6.507 0 0 1 1.167-.68l.41.912c-.348.157-.679.35-.987.575Zm5.439-.601a5.463 5.463 0 0 0-1.09-.345l.2-.98c.443.09.875.227 1.29.408l-.4.916Zm-3.366-.332-.211-.977A6.535 6.535 0 0 1 22.462 16l.005 1a5.54 5.54 0 0 0-1.137.124Z" fill="#9B99F5"/><path d="M9.5 30.5a8 8 0 1 0 0-16 8 8 0 0 0 0 16Z" fill="#FA8481"/><path d="M8.883 28.971a6.496 6.496 0 0 1-1.326-.267l.299-.954c.364.114.74.19 1.12.225l-.093.996Zm1.35-.012-.112-.994c.38-.042.754-.125 1.116-.245l.316.949a6.5 6.5 0 0 1-1.32.29Zm-3.917-.791a6.534 6.534 0 0 1-1.102-.781l.66-.752c.287.252.6.474.932.662l-.49.87Zm6.468-.058-.506-.862c.33-.194.638-.42.921-.678l.673.74a6.529 6.529 0 0 1-1.088.8Zm-8.488-1.715a6.51 6.51 0 0 1-.694-1.16l.907-.42c.161.346.358.675.587.98l-.8.6Zm10.476-.093-.81-.585c.223-.31.414-.642.57-.992l.914.405a6.504 6.504 0 0 1-.674 1.172ZM3.164 23.957c-.1-.44-.155-.89-.163-1.341l1-.018c.006.382.053.763.138 1.135l-.975.224Zm12.697-.114-.979-.205a5.542 5.542 0 0 0 .114-1.335l1-.035a6.492 6.492 0 0 1-.135 1.575ZM4.098 21.459l-.982-.188c.085-.444.217-.878.392-1.294l.922.388c-.149.352-.26.719-.332 1.094Zm10.74-.287a5.466 5.466 0 0 0-.39-1.074l.9-.438c.198.407.352.833.461 1.271l-.97.241Zm-9.856-1.808-.821-.571a6.54 6.54 0 0 1 .882-1.023l.686.727a5.538 5.538 0 0 0-.747.867Zm8.862-.237a5.543 5.543 0 0 0-.792-.825l.646-.763c.345.291.658.618.936.974l-.79.614Zm-7.206-1.324-.522-.853a6.44 6.44 0 0 1 1.221-.58l.333.942c-.36.128-.706.292-1.032.491Zm5.47-.146a5.473 5.473 0 0 0-1.058-.435l.282-.96c.433.128.852.3 1.25.515l-.475.88Zm-3.326-.61-.13-.991c.448-.058.9-.07 1.35-.036l-.076.997a5.611 5.611 0 0 0-1.144.03Zm3.642 5.189-2.5-4a.5.5 0 0 0-.848 0l-2.5 4a.5.5 0 0 0 0 .53l2.5 4a.5.5 0 0 0 .848 0l2.5-4a.5.5 0 0 0 0-.53ZM9.5 19.443l1.759 2.815-1.759.703-1.76-.703 1.76-2.815Zm0 6.114-1.265-2.025 1.08.432a.5.5 0 0 0 .37 0l1.08-.432L9.5 25.557Z" fill="#FCB0AE"/><path d="M22.24 14.505a8 8 0 1 0-5.98 2.99 7.984 7.984 0 0 1 5.98-2.99Z" fill="#F2C34E"/><path d="m10.93 7.364-.922-.388c-.175.416-.307.85-.392 1.294l.982.188c.072-.375.183-.742.332-1.094Zm1.299-1.868-.686-.727c-.329.31-.624.652-.882 1.023l.82.571c.219-.314.47-.604.748-.867Zm2.923-2.441.13.991a5.608 5.608 0 0 1 1.144-.03l.076-.997a6.62 6.62 0 0 0-1.35.036ZM21.34 8.17l.97-.24a6.475 6.475 0 0 0-.461-1.272l-.9.438c.168.343.299.703.39 1.074Zm-7.169-3.86-.333-.943c-.426.15-.835.345-1.22.58l.52.854a5.517 5.517 0 0 1 1.033-.49Zm6.174 1.815.79-.614a6.548 6.548 0 0 0-.936-.974l-.646.763c.292.247.557.524.792.825Zm-9.843 3.472-1 .018c.008.451.062.9.163 1.34l.975-.223a5.535 5.535 0 0 1-.138-1.135Zm7.33-6.336-.28.96c.366.107.72.253 1.056.434l.475-.88a6.474 6.474 0 0 0-1.25-.514Zm2.63 9.455.811.585c.265-.366.49-.759.674-1.172l-.915-.405c-.155.35-.346.682-.57.992Zm2.035-3.449-1 .035a5.557 5.557 0 0 1-.114 1.335l.979.205a6.553 6.553 0 0 0 .135-1.575Zm-12.394 2.968c.19.41.423.798.694 1.16l.8-.6a5.51 5.51 0 0 1-.587-.982l-.907.422Zm8.676 2.012.506.862c.39-.228.754-.496 1.088-.8l-.673-.74a5.527 5.527 0 0 1-.921.678Zm-2.157.717.112.994a6.5 6.5 0 0 0 1.32-.29l-.316-.949c-.362.12-.736.203-1.116.245Zm-4.907-.579c.34.298.708.56 1.102.782l.49-.872a5.523 5.523 0 0 1-.933-.661l-.66.752Zm2.343 1.318a6.51 6.51 0 0 0 1.326.267l.094-.996a5.49 5.49 0 0 1-1.121-.225l-.299.954ZM18.821 9.5A2 2 0 0 0 17.5 6H17V5h-1v1h-1V5h-1v1h-1v1h1v5h-1v1h1v1h1v-1h1v1h1v-1h.5a1.999 1.999 0 0 0 1.32-3.5ZM17.5 12H15v-2h2.5a1 1 0 0 1 0 2Zm0-3H15V7h2.5a1 1 0 0 1 0 2Z" fill="#FFE0A9"/></svg>