<svg width="95" height="57" viewBox="0 0 95 57" fill="none" xmlns="http://www.w3.org/2000/svg">
<g clip-path="url(#clip0_1571_1844)">
<path fill-rule="evenodd" clip-rule="evenodd" d="M88.3394 38.3107L88.3235 38.2436C88.0646 37.1212 87.6107 36.0681 86.9894 35.1295C87.1248 34.5624 87.1965 33.9775 87.1965 33.3808C87.1965 31.3456 86.3801 29.4389 84.8947 28.0103C83.4671 26.641 81.5914 25.8862 79.6162 25.8862H73.5432C73.3401 25.8862 73.135 25.8921 72.9279 25.9039C72.5615 25.1432 72.0617 24.4418 71.4425 23.8253C71.0204 23.4064 70.5584 23.0448 70.0646 22.7405C70.0825 22.45 70.0925 22.1576 70.0925 21.8652V12.6317C70.0925 10.632 69.306 8.75097 67.8783 7.33226C66.4527 5.9175 64.5551 5.13701 62.542 5.13701C60.6883 5.13701 58.9361 5.79697 57.5562 7.00623C56.1763 5.79697 54.4221 5.13701 52.5703 5.13701C51.8038 5.13701 51.0551 5.24964 50.3422 5.46897C49.6294 5.24964 48.8807 5.13701 48.1141 5.13701H48.0863C47.011 5.13701 45.9438 5.25359 44.9084 5.48082C44.7272 5.03031 44.5102 4.6213 44.2533 4.23599L44.2334 4.20833C43.9725 3.82303 43.6739 3.46736 43.2976 3.08996L43.2518 3.04451C42.9511 2.75208 42.6225 2.48533 42.2203 2.21265C41.8599 1.95776 41.1571 1.48749 40.1436 1.20888C39.3909 0.987582 38.6681 0.878906 37.9453 0.878906C37.129 0.878906 36.3166 1.01722 35.4564 1.29978C34.5385 1.60209 33.9053 2.04668 33.6146 2.25217C32.8739 2.77184 32.2506 3.38042 31.7608 4.06211L31.707 4.1372L31.6553 4.21228C31.3905 4.60549 31.1674 5.02439 30.9843 5.48082C29.9469 5.25359 28.8697 5.13701 27.7785 5.13701C26.6057 5.13701 25.4409 5.27533 24.3159 5.54603C23.9316 5.63297 23.5553 5.73572 23.1869 5.85625C22.8265 5.34449 22.4223 4.86039 21.9723 4.40197L21.9484 4.37629L21.8349 4.26366C20.2838 2.76393 18.4261 1.76214 16.3095 1.28792C15.1825 1.02117 14.0176 0.882858 12.8449 0.882858H7.83113C5.81608 0.882858 3.92051 1.66335 2.49086 3.08008C1.06519 4.49682 0.278687 6.37789 0.278687 8.37752V22.531C0.278687 23.6889 0.545501 24.8093 1.04727 25.8288C0.545501 26.8425 0.278687 27.9628 0.278687 29.1247V38.3582C0.278687 39.522 0.418067 40.6779 0.690855 41.7923C0.953687 42.9423 1.37382 44.0152 1.94926 45.0052C1.96121 45.0131 1.97515 45.0229 1.9871 45.0308C2.66807 46.1788 3.95037 47.9295 6.12073 49.1566C7.47471 49.9212 8.74706 50.2453 9.36432 50.3935C10.4853 50.6642 11.6362 50.8005 12.7871 50.8005H12.815C13.5517 50.8005 14.2725 50.6938 14.9595 50.4923C15.6484 50.6958 16.3692 50.8005 17.1059 50.8005C19.1588 50.8005 21.0783 49.9904 22.5159 48.5164C22.6811 48.3464 22.8385 48.1686 22.9858 47.9868C24.4015 49.1704 26.0422 49.9785 27.88 50.3915C29.0031 50.6642 30.1679 50.8005 31.3407 50.8005H34.9068C36.0358 50.8005 37.127 50.5535 38.1245 50.0872C39.1181 50.5555 40.2113 50.8005 41.3402 50.8005C43.198 50.8005 44.9462 50.1386 46.3261 48.9214C47.256 50.1821 49.0102 52.2153 51.8515 53.8197C55.4157 55.8352 58.7867 56.098 60.4374 56.1177H62.1637C64.0673 56.1177 66.7016 55.4993 68.8739 54.5449C71.321 53.468 72.8642 52.1363 73.8299 50.8005H78.5589C79.2876 50.8005 80.0761 50.7057 81.0418 50.5002L81.0896 50.4903C81.4281 50.4172 81.7985 50.3184 82.1887 50.1801C82.9852 49.9015 83.6363 49.5498 84.1401 49.2218C84.9445 48.7199 86.3642 47.6766 87.3837 45.8469C87.9093 44.9044 88.1821 44.0172 88.3315 43.3296L88.3374 43.2999C88.5226 42.4542 88.6162 41.6184 88.6162 40.8182C88.6162 40.0179 88.5226 39.1584 88.3374 38.3107H88.3394Z" fill="#ED1C24"/>
<path d="M7.83111 23.9676C7.44084 23.9676 7.10633 23.8253 6.82757 23.5388C6.5488 23.2523 6.40942 22.9164 6.40942 22.5291V8.3776C6.40942 7.99032 6.5488 7.65837 6.82757 7.38174C7.10633 7.10511 7.44084 6.9668 7.83111 6.9668H12.8448C13.5497 6.9668 14.2386 7.04979 14.9057 7.21576C15.9271 7.43707 16.8092 7.90733 17.5519 8.62657L17.5798 8.65423C18.3046 9.39125 18.7785 10.2666 19.0015 11.2802C19.1687 11.9441 19.2524 12.6258 19.2524 13.3253V17.6111C19.2524 18.3125 19.1687 18.9942 19.0015 19.6562C18.7785 20.6698 18.3046 21.5451 17.5798 22.2822L17.5519 22.3098C16.8092 23.0291 15.9271 23.4993 14.9057 23.7206C14.2366 23.8866 13.5497 23.9696 12.8448 23.9696H7.83111V23.9676ZM9.25279 9.8141V21.1203H12.8468C13.3108 21.1203 13.7667 21.065 14.2128 20.9543C14.7504 20.8437 15.1964 20.6224 15.5508 20.2904C15.8853 19.9407 16.1083 19.4981 16.2198 18.9626C16.3313 18.52 16.3871 18.0695 16.3871 17.6071V13.3214C16.3871 12.861 16.3313 12.4085 16.2198 11.9659C16.1083 11.4324 15.8853 10.9898 15.5508 10.6381C15.1984 10.3061 14.7524 10.0848 14.2128 9.97415C13.7667 9.8635 13.3108 9.80817 12.8468 9.80817H9.25279V9.8141Z" fill="white"/>
<path d="M32.5394 12.8834C33.2642 13.6204 33.7381 14.5056 33.9611 15.5371C34.1283 16.201 34.212 16.8728 34.212 17.5545V22.5298C34.212 22.9171 34.0726 23.253 33.7938 23.5395C33.5151 23.8241 33.1805 23.9683 32.7903 23.9683C32.1392 23.9683 31.6951 23.6739 31.4522 23.0831C30.9126 23.3775 30.385 23.5889 29.8653 23.7194C29.1962 23.8853 28.5093 23.9683 27.8044 23.9683C27.0996 23.9683 26.3827 23.8853 25.7157 23.7194C24.6942 23.498 23.8122 23.0278 23.0695 22.3085L23.0416 22.2809C22.3168 21.5439 21.8429 20.6685 21.6199 19.6549C21.4526 18.991 21.369 18.2994 21.369 17.5821C21.369 16.8649 21.4526 16.199 21.6199 15.5371C21.8429 14.5056 22.3168 13.6204 23.0416 12.8834H23.0695C23.8122 12.1642 24.6942 11.6939 25.7157 11.4726C26.3847 11.3066 27.0717 11.2236 27.7766 11.2236C28.4814 11.2236 29.1982 11.3066 29.8653 11.4726C30.8867 11.6939 31.7688 12.1642 32.5115 12.8834H32.5394ZM30.5064 20.2911C30.8409 19.9414 31.0639 19.4988 31.1754 18.9633C31.287 18.5207 31.3427 18.0603 31.3427 17.5802C31.3427 17.1 31.287 16.6673 31.1754 16.2247C31.046 15.6714 30.823 15.2209 30.5064 14.8692C30.154 14.5373 29.708 14.3159 29.1684 14.2053C28.7223 14.0946 28.2584 14.0393 27.7746 14.0393C27.2907 14.0393 26.8546 14.0946 26.4086 14.2053C25.869 14.3159 25.425 14.5373 25.0706 14.8692C24.7181 15.2387 24.4852 15.6892 24.3737 16.2247C24.2622 16.6673 24.2064 17.1198 24.2064 17.5802C24.2064 18.0406 24.2622 18.5207 24.3737 18.9633C24.4852 19.479 24.7161 19.9216 25.0706 20.2911C25.423 20.6231 25.869 20.8444 26.4086 20.955C26.8546 21.0657 27.3086 21.121 27.7746 21.121C28.2405 21.121 28.7223 21.0657 29.1684 20.955C29.706 20.8444 30.152 20.6231 30.5064 20.2911Z" fill="white"/>
<path d="M36.6351 8.93086C36.6172 8.89332 36.5973 8.84787 36.5793 8.79255C36.5614 8.73722 36.5515 8.69178 36.5515 8.65423C36.5336 8.59891 36.5236 8.50604 36.5236 8.3776C36.5236 8.24917 36.5336 8.1563 36.5515 8.10097L36.6351 7.85201C36.6729 7.74136 36.7088 7.65837 36.7466 7.60304C36.8402 7.47461 36.9796 7.34617 37.1647 7.21576C37.2942 7.12289 37.3698 7.07745 37.3878 7.07745C37.6108 7.00434 37.7959 6.9668 37.9453 6.9668C38.0946 6.9668 38.2798 7.00434 38.5028 7.07745C38.5207 7.07745 38.5964 7.12289 38.7258 7.21576C38.8373 7.28887 38.911 7.3442 38.9488 7.38174C39.0424 7.47461 39.1061 7.54772 39.144 7.60304C39.1818 7.65837 39.2176 7.74136 39.2555 7.85201L39.3391 8.10097C39.357 8.1563 39.367 8.24917 39.367 8.3776C39.367 8.50604 39.357 8.59891 39.3391 8.65423C39.3391 8.69178 39.3291 8.73722 39.3112 8.79255C39.2933 8.84787 39.2734 8.89332 39.2555 8.93086C39.2176 9.04151 39.1818 9.1245 39.144 9.17983C39.1061 9.23515 39.0424 9.30826 38.9488 9.40113C38.911 9.43867 38.8373 9.494 38.7258 9.56711C38.5964 9.65998 38.5207 9.70542 38.5028 9.70542C38.465 9.70542 38.4192 9.7153 38.3634 9.73309C38.3077 9.75087 38.2619 9.77063 38.224 9.78841C38.1683 9.80619 38.0747 9.81607 37.9453 9.81607C37.8159 9.81607 37.7223 9.80619 37.6665 9.78841C37.6287 9.77063 37.5829 9.75087 37.5271 9.73309C37.4714 9.7153 37.4256 9.70542 37.3878 9.70542C37.3698 9.70542 37.2942 9.65998 37.1647 9.56711C36.9796 9.43867 36.8402 9.31024 36.7466 9.17983C36.7088 9.1245 36.6729 9.04151 36.6351 8.93086ZM38.9468 23.5408C38.6681 23.8253 38.3336 23.9696 37.9433 23.9696C37.553 23.9696 37.2185 23.8273 36.9397 23.5408C36.661 23.2543 36.5216 22.9184 36.5216 22.5311V12.6337C36.5216 12.2465 36.661 11.9145 36.9397 11.6379C37.2185 11.3612 37.553 11.2229 37.9433 11.2229C38.3336 11.2229 38.6681 11.3612 38.9468 11.6379C39.2256 11.9145 39.365 12.2465 39.365 12.6337V22.5311C39.365 22.9184 39.2256 23.2543 38.9468 23.5408Z" fill="white"/>
<path d="M48.1121 11.2246C48.5024 11.2246 48.8369 11.3629 49.1157 11.6396C49.3944 11.9162 49.5338 12.2481 49.5338 12.6354C49.5338 13.0227 49.3944 13.3547 49.1157 13.6313C48.8369 13.9079 48.5024 14.0462 48.1121 14.0462H48.0842C47.6203 14.0462 47.1643 14.1015 46.7183 14.2122C46.1787 14.3229 45.7347 14.5442 45.3803 14.8761C45.0637 15.2258 44.8407 15.6783 44.7112 16.2316C44.5997 16.6742 44.544 17.1168 44.544 17.5594V22.5348C44.544 22.9221 44.4046 23.258 44.1258 23.5445C43.8471 23.829 43.5126 23.9732 43.1223 23.9732C42.732 23.9732 42.3935 23.831 42.1048 23.5445C41.8161 23.258 41.6727 22.9221 41.6727 22.5348V17.5594C41.6727 16.8777 41.7564 16.2039 41.9236 15.542C42.1466 14.5106 42.6205 13.6254 43.3453 12.8883H43.3732C44.1159 12.1691 44.998 11.6988 46.0194 11.4775C46.6884 11.3115 47.3754 11.2286 48.0803 11.2286H48.1081L48.1121 11.2246Z" fill="white"/>
<path d="M57.5542 23.9683H57.5263C56.8194 23.9683 56.1325 23.8853 55.4655 23.7194C54.444 23.498 53.5619 23.0278 52.8192 22.3085L52.7913 22.2809C52.0666 21.5439 51.5927 20.6685 51.3697 19.6549C51.2024 18.991 51.1188 18.3093 51.1188 17.6098V12.6344C51.1188 12.2472 51.2621 11.9152 51.5509 11.6386C51.8376 11.3619 52.1781 11.2236 52.5683 11.2236C52.9586 11.2236 53.2931 11.3619 53.5719 11.6386C53.8506 11.9152 53.99 12.2472 53.99 12.6344V17.6098C53.99 18.0702 54.0458 18.5227 54.1573 18.9653C54.2688 19.5008 54.4918 19.9414 54.8263 20.2931C55.1787 20.6251 55.6248 20.8464 56.1644 20.957C56.6104 21.0677 57.0743 21.123 57.5582 21.123C58.042 21.123 58.4781 21.0677 58.9241 20.957C59.4816 20.8286 59.9356 20.6073 60.29 20.2931C60.6245 19.9434 60.8475 19.5008 60.9591 18.9653C61.0706 18.5227 61.1263 18.0722 61.1263 17.6098V12.6344C61.1263 12.2472 61.2657 11.9152 61.5445 11.6386C61.8232 11.3619 62.1577 11.2236 62.548 11.2236C62.9383 11.2236 63.2728 11.3619 63.5515 11.6386C63.8303 11.9152 63.9697 12.2472 63.9697 12.6344V21.8679C63.9697 22.5496 63.886 23.2234 63.7188 23.8853C63.4958 24.9168 63.0219 25.802 62.2971 26.539C61.5544 27.2582 60.6624 27.7285 59.623 27.9498C58.954 28.1158 58.277 28.1988 57.59 28.1988H57.5621C57.1719 28.1988 56.8374 28.0604 56.5586 27.7838C56.2798 27.5072 56.1405 27.1752 56.1405 26.788C56.1405 26.4007 56.2798 26.0687 56.5586 25.7921C56.8374 25.5155 57.1719 25.3771 57.5621 25.3771H57.59C58.036 25.3771 58.4821 25.3218 58.9281 25.2112C59.4856 25.0827 59.9396 24.8614 60.294 24.5473C60.6285 24.1975 60.8515 23.7549 60.963 23.2194C60.4433 23.4585 59.9973 23.6245 59.625 23.7174C58.9559 23.8834 58.279 23.9663 57.592 23.9663H57.5641L57.5542 23.9683Z" fill="white"/>
<path d="M6.82761 28.1288C7.10637 27.8522 7.44089 27.7139 7.83115 27.7139C8.22142 27.7139 8.55593 27.8522 8.83469 28.1288C9.11346 28.4054 9.25284 28.7374 9.25284 29.1247V31.972H12.1221C12.5124 31.972 12.8469 32.1103 13.1256 32.3869C13.4044 32.6635 13.5438 32.9955 13.5438 33.3828C13.5438 33.7701 13.4044 34.102 13.1256 34.3786C12.8469 34.6553 12.5124 34.7936 12.1221 34.7936H9.25284V38.3601C9.25284 38.8205 9.30859 39.273 9.42009 39.7156C9.5316 40.2511 9.75461 40.6937 10.0891 41.0434C10.4416 41.3576 10.8975 41.5789 11.4551 41.7073C11.9011 41.818 12.3471 41.8733 12.7931 41.8733H12.821C13.2112 41.8733 13.5458 42.0116 13.8245 42.2883C14.1033 42.5649 14.2427 42.8968 14.2427 43.2841C14.2427 43.6714 14.1033 44.0073 13.8245 44.2938C13.5458 44.5803 13.2112 44.7226 12.821 44.7226H12.7931C12.1062 44.7226 11.4272 44.6396 10.7601 44.4736C9.72076 44.2523 8.82872 43.7821 8.08602 43.0628V43.0352C7.36124 42.2981 6.88735 41.4228 6.66434 40.4092C6.49708 39.7452 6.41345 39.0636 6.41345 38.3641V29.1306C6.41345 28.7433 6.55283 28.4114 6.83159 28.1347L6.82761 28.1288Z" fill="white"/>
<path d="M22.0938 31.9727C22.4841 31.9727 22.8186 32.111 23.0973 32.3876C23.3761 32.6642 23.5155 32.9962 23.5155 33.3835C23.5155 33.7707 23.3761 34.1027 23.0973 34.3793C22.8186 34.656 22.4841 34.7943 22.0938 34.7943H22.0659C21.602 34.7943 21.146 34.8496 20.7 34.9602C20.1604 35.0709 19.7164 35.2922 19.3619 35.6242C19.0454 35.9739 18.8223 36.4264 18.6929 36.9796C18.5814 37.4222 18.5257 37.8648 18.5257 38.3075V43.2828C18.5257 43.6701 18.3863 44.006 18.1075 44.2925C17.8288 44.579 17.4942 44.7213 17.104 44.7213C16.7137 44.7213 16.3752 44.579 16.0865 44.2925C15.7978 44.006 15.6544 43.6701 15.6544 43.2828V38.3075C15.6544 37.6258 15.738 36.952 15.9053 36.29C16.1283 35.2586 16.6022 34.3734 17.327 33.6364H17.3549C18.0976 32.9171 18.9796 32.4469 20.0011 32.2256C20.6701 32.0596 21.3571 31.9766 22.0619 31.9766H22.0898L22.0938 31.9727Z" fill="white"/>
<path d="M36.1055 33.6304C36.8303 34.3674 37.3042 35.2527 37.5272 36.2841C37.6945 36.948 37.7781 37.6198 37.7781 38.3015V38.3292C37.7781 38.7164 37.6387 39.0484 37.3599 39.325C37.0812 39.6017 36.7467 39.74 36.3564 39.74H27.9717C28.0832 40.2557 28.3062 40.6904 28.6407 41.0401C28.9931 41.3721 29.4391 41.5934 29.9787 41.704C30.4248 41.8147 30.8708 41.87 31.3168 41.87H34.9108C35.3011 41.87 35.6396 42.0083 35.9283 42.285C36.215 42.5616 36.3604 42.8935 36.3604 43.2808C36.3604 43.6681 36.217 44.004 35.9283 44.2905C35.6396 44.577 35.3011 44.7193 34.9108 44.7193H31.3447C30.6378 44.7193 29.9528 44.6363 29.2838 44.4703C28.2624 44.249 27.3803 43.7788 26.6376 43.0595L26.6097 43.0319C25.8849 42.2948 25.411 41.4195 25.188 40.4059C25.0208 39.742 24.9371 39.0504 24.9371 38.3331C24.9371 37.6159 25.0208 36.9519 25.188 36.288C25.411 35.2566 25.8849 34.3714 26.6097 33.6344H26.6376C27.3803 32.9151 28.2624 32.4449 29.2838 32.2236C29.9528 32.0576 30.6398 31.9746 31.3447 31.9746C32.0495 31.9746 32.7663 32.0576 33.4334 32.2236C34.4548 32.4449 35.3369 32.9151 36.0796 33.6344H36.1075L36.1055 33.6304ZM27.9717 36.9203H34.7416C34.6301 36.4046 34.4071 35.9719 34.0725 35.6202C33.7201 35.2882 33.2741 35.0669 32.7345 34.9563C32.2885 34.8456 31.8245 34.7903 31.3407 34.7903C30.8568 34.7903 30.4208 34.8456 29.9748 34.9563C29.4351 35.0669 28.9911 35.2882 28.6367 35.6202C28.3022 35.9699 28.0792 36.4046 27.9677 36.9203H27.9717Z" fill="white"/>
<path d="M51.0651 33.6305C51.7898 34.3675 52.2637 35.2527 52.4867 36.2841C52.654 36.948 52.7376 37.6199 52.7376 38.3015V43.2769C52.7376 43.6642 52.5982 44.0001 52.3195 44.2866C52.0407 44.5731 51.7062 44.7154 51.3159 44.7154C50.9257 44.7154 50.5912 44.5731 50.3124 44.2866C50.0336 44.0001 49.8943 43.6642 49.8943 43.2769V38.3015C49.8943 37.8589 49.8385 37.4163 49.727 36.9737C49.5976 36.4205 49.3746 35.97 49.058 35.6182C48.7055 35.3061 48.2496 35.0848 47.692 34.9543C47.246 34.8437 46.79 34.7884 46.3261 34.7884C45.8622 34.7884 45.3783 34.8437 44.9323 34.9543C44.3927 35.065 43.9487 35.2863 43.5942 35.6182C43.2777 35.968 43.0546 36.4205 42.9252 36.9737C42.8137 37.4163 42.758 37.8589 42.758 38.3015V43.2769C42.758 43.6642 42.6186 44.0001 42.3398 44.2866C42.0611 44.5731 41.7265 44.7154 41.3363 44.7154C40.946 44.7154 40.6075 44.5731 40.3188 44.2866C40.0301 44.0001 39.8867 43.6642 39.8867 43.2769V38.3015C39.8867 37.6199 39.9703 36.9461 40.1376 36.2841C40.3606 35.2527 40.8345 34.3675 41.5593 33.6305H41.5872C42.3299 32.9112 43.2119 32.441 44.2334 32.2197C44.9024 32.0537 45.5993 31.9707 46.3221 31.9707C47.0449 31.9707 47.7159 32.0537 48.383 32.2197C49.4223 32.441 50.3144 32.9112 51.0571 33.6305H51.0651Z" fill="white"/>
<path d="M56.3575 43.0292C55.6327 42.2922 55.1588 41.4169 54.9358 40.4032C54.7686 39.7393 54.6849 39.0477 54.6849 38.3305C54.6849 37.6132 54.7686 36.9493 54.9358 36.2854C55.1588 35.254 55.6327 34.3688 56.3575 33.6318H56.3854C57.1281 32.9125 58.0102 32.4422 59.0316 32.2209C59.7007 32.055 60.3876 31.972 61.0925 31.972C61.7973 31.972 62.5142 32.055 63.1812 32.2209C63.7387 32.3691 64.2305 32.5529 64.6566 32.7742V29.1247C64.6566 28.7374 64.8 28.4054 65.0887 28.1288C65.3754 27.8522 65.7159 27.7139 66.1062 27.7139C66.4965 27.7139 66.831 27.8522 67.1097 28.1288C67.3885 28.4054 67.5279 28.7374 67.5279 29.1247V38.3582C67.5279 39.0596 67.4442 39.7393 67.277 40.4032C67.054 41.4169 66.5801 42.2922 65.8553 43.0292L65.8274 43.0569C65.0847 43.7761 64.2027 44.2464 63.1812 44.4677C62.5122 44.6337 61.8252 44.7167 61.1203 44.7167C60.4155 44.7167 59.6987 44.6337 59.0316 44.4677C58.0102 44.2464 57.1281 43.7761 56.3854 43.0569L56.3575 43.0292ZM57.6956 36.975C57.5841 37.4176 57.5283 37.8701 57.5283 38.3305C57.5283 38.7909 57.5841 39.271 57.6956 39.7136C57.8071 40.2293 58.038 40.672 58.3925 41.0415C58.7449 41.3734 59.1909 41.5947 59.7305 41.7054C60.1765 41.816 60.6305 41.8713 61.0965 41.8713C61.5624 41.8713 62.0442 41.816 62.4903 41.7054C63.0279 41.5947 63.4739 41.3734 63.8283 41.0415C64.1628 40.6917 64.3858 40.2491 64.4973 39.7136C64.6088 39.271 64.6646 38.8106 64.6646 38.3305C64.6646 37.8503 64.6088 37.4176 64.4973 36.975C64.3679 36.4217 64.1449 35.9712 63.8283 35.6195C63.4759 35.2876 63.0299 35.0663 62.4903 34.9556C62.0442 34.845 61.5803 34.7896 61.0965 34.7896C60.6126 34.7896 60.1765 34.845 59.7305 34.9556C59.1909 35.0663 58.7469 35.2876 58.3925 35.6195C58.04 35.989 57.8071 36.4395 57.6956 36.975Z" fill="white"/>
<path d="M70.6759 38.6888C70.212 38.2462 69.9133 37.7028 69.7839 37.0587C69.6903 36.6359 69.6445 36.2387 69.6445 35.8692C69.6445 35.4819 69.6903 35.0768 69.7839 34.652C69.9133 34.0257 70.21 33.4823 70.6759 33.0219L70.7038 32.9942C71.1498 32.5516 71.6974 32.2572 72.3465 32.109C72.7726 32.0161 73.1729 31.9707 73.5452 31.9707H79.6182C80.0085 31.9707 80.347 32.109 80.6357 32.3856C80.9224 32.6623 81.0678 32.9942 81.0678 33.3815C81.0678 33.7688 80.9244 34.1007 80.6357 34.3774C80.347 34.654 80.0085 34.7923 79.6182 34.7923H73.5452C73.4337 34.7923 73.2664 34.8101 73.0434 34.8476C72.9498 34.8654 72.8383 34.9208 72.7089 35.0136C72.6532 35.0867 72.6074 35.1974 72.5695 35.3456C72.5138 35.6775 72.4859 35.8534 72.4859 35.8712C72.4859 35.9265 72.4899 35.9818 72.4998 36.0371C72.5098 36.0925 72.5237 36.1518 72.5417 36.217C72.5596 36.2822 72.5695 36.3316 72.5695 36.3691C72.5875 36.4975 72.6352 36.6082 72.7089 36.7011C72.8204 36.7742 72.9319 36.8295 73.0434 36.867C73.2664 36.9046 73.4337 36.9224 73.5452 36.9224H78.5589C78.9492 36.9224 79.3574 36.9678 79.7855 37.0607C80.3788 37.1891 80.9284 37.4855 81.4282 37.9459L81.4561 37.9735C81.9021 38.4162 82.1988 38.9595 82.3481 39.6037C82.4417 40.0285 82.4875 40.4336 82.4875 40.8208C82.4875 41.2081 82.4417 41.5855 82.3481 42.0104C82.1988 42.6743 81.9021 43.2275 81.4561 43.6681H81.4282C80.9822 44.1108 80.4246 44.4052 79.7576 44.5534C79.2379 44.664 78.8377 44.7193 78.5589 44.7193H72.4859C72.0956 44.7193 71.7611 44.5771 71.4824 44.2906C71.2036 44.0041 71.0642 43.6682 71.0642 43.2809C71.0642 42.8936 71.2036 42.5616 71.4824 42.285C71.7611 42.0084 72.0956 41.8701 72.4859 41.8701H78.5589C78.6704 41.8701 78.8377 41.8523 79.0607 41.8147C79.228 41.7772 79.3494 41.7317 79.4231 41.6764C79.4788 41.6033 79.5246 41.4828 79.5625 41.3168C79.6003 41.0955 79.6182 40.9295 79.6182 40.8189C79.6182 40.6904 79.6003 40.5146 79.5625 40.2933C79.5246 40.1451 79.4788 40.0364 79.4231 39.9613C79.3494 39.906 79.2379 39.8606 79.0886 39.823C78.7541 39.7677 78.5768 39.74 78.5589 39.74H73.5452C73.1729 39.74 72.7746 39.6946 72.3465 39.6017C71.7512 39.4733 71.2036 39.1789 70.7038 38.7165L70.6759 38.6888Z" fill="white"/>
<path fill-rule="evenodd" clip-rule="evenodd" d="M53.3748 46.1381C53.3748 48.527 58.5876 50.0326 60.4374 50.0326H62.1637C64.0135 50.0326 69.2263 48.527 69.2263 46.1381C69.2263 45.2627 68.5374 44.5811 67.6573 44.5811C67.3407 44.5811 66.8111 45.16 66.4367 45.3951C60.1407 49.3272 55.2883 44.5811 54.9438 44.5811C54.0617 44.5811 53.3748 45.2627 53.3748 46.1381Z" fill="#FDD023"/>
<path d="M87.7261 26.5963V26.3838H89.21V26.5963H88.5879V28.3623H88.3483V26.5963H87.7261ZM89.5798 26.3838H89.8658L90.5382 28.0261H90.5613L91.2337 26.3838H91.5197V28.3623H91.2956V26.8591H91.2762L90.658 28.3623H90.4415L89.8233 26.8591H89.8039V28.3623H89.5798V26.3838Z" fill="black"/>
</g>
<defs>
<clipPath id="clip0_1571_1844">
<rect width="94.078" height="55.2329" fill="white" transform="translate(0.278687 0.883789)"/>
</clipPath>
</defs>
</svg>
