<svg width="95" height="57" fill="none" xmlns="http://www.w3.org/2000/svg"><g clip-path="url(#a)"><path fill-rule="evenodd" clip-rule="evenodd" d="m88.34 38.31-.017-.066a9.51 9.51 0 0 0-1.334-3.114 7.519 7.519 0 0 0 .207-1.75c0-2.034-.816-3.941-2.301-5.37a7.594 7.594 0 0 0-5.279-2.124h-6.073c-.203 0-.408.006-.615.018a7.653 7.653 0 0 0-2.863-3.163c.017-.291.028-.583.028-.876v-9.233c0-2-.787-3.881-2.215-5.3a7.532 7.532 0 0 0-5.336-2.195 7.52 7.52 0 0 0-4.986 1.87 7.525 7.525 0 0 0-4.986-1.87c-.766 0-1.515.113-2.228.332a7.564 7.564 0 0 0-2.228-.332h-.028a14.86 14.86 0 0 0-3.178.344 6.792 6.792 0 0 0-.655-1.245l-.02-.028a7.583 7.583 0 0 0-.935-1.118l-.046-.045c-.3-.293-.63-.56-1.032-.832a6.544 6.544 0 0 0-2.076-1.004 7.72 7.72 0 0 0-2.199-.33c-.816 0-1.628.138-2.489.42a6.797 6.797 0 0 0-1.841.953 7.735 7.735 0 0 0-1.854 1.81l-.054.075-.052.075a6.763 6.763 0 0 0-.67 1.269 15 15 0 0 0-6.67.065c-.383.087-.76.19-1.128.31-.36-.512-.765-.996-1.215-1.454l-.024-.026-.113-.112a11.43 11.43 0 0 0-5.526-2.976 15.058 15.058 0 0 0-3.464-.405H7.83c-2.015 0-3.91.78-5.34 2.197A7.421 7.421 0 0 0 .279 8.378V22.53c0 1.158.267 2.278.768 3.298a7.407 7.407 0 0 0-.768 3.296v9.233c0 1.164.14 2.32.412 3.434a11.44 11.44 0 0 0 1.258 3.213l.038.026c.681 1.148 1.963 2.898 4.134 4.126 1.354.764 2.626 1.088 3.243 1.237 1.121.27 2.272.407 3.423.407h.028c.737 0 1.458-.107 2.145-.309.688.204 1.41.309 2.146.309 2.053 0 3.972-.81 5.41-2.285.165-.17.323-.347.47-.53a11.457 11.457 0 0 0 4.894 2.406c1.123.272 2.288.408 3.46.408h3.567c1.129 0 2.22-.246 3.218-.713a7.525 7.525 0 0 0 3.215.713 7.483 7.483 0 0 0 4.986-1.879 17.671 17.671 0 0 0 5.526 4.899c3.564 2.015 6.935 2.278 8.585 2.298h1.727c1.903 0 4.538-.619 6.71-1.573 2.447-1.077 3.99-2.409 4.956-3.745h4.729c.729 0 1.517-.094 2.483-.3l.048-.01a9.058 9.058 0 0 0 3.05-1.268c.805-.502 2.224-1.545 3.244-3.375a9.2 9.2 0 0 0 .948-2.517l.005-.03c.186-.846.28-1.682.28-2.482 0-.8-.094-1.66-.28-2.507h.002Z" fill="#ED1C24"/><path d="M7.831 23.968a1.35 1.35 0 0 1-1.003-.43 1.4 1.4 0 0 1-.419-1.009V8.378c0-.388.14-.72.419-.996a1.374 1.374 0 0 1 1.003-.415h5.014a8.5 8.5 0 0 1 2.06.249 5.361 5.361 0 0 1 2.647 1.41l.028.028a5.295 5.295 0 0 1 1.422 2.626c.167.664.25 1.346.25 2.045v4.286a8.32 8.32 0 0 1-.25 2.045 5.296 5.296 0 0 1-1.422 2.626l-.028.028a5.36 5.36 0 0 1-2.646 1.41 8.526 8.526 0 0 1-2.061.25H7.83v-.002ZM9.253 9.814V21.12h3.594c.464 0 .92-.055 1.366-.166.537-.11.983-.332 1.338-.664.334-.35.557-.792.669-1.327a5.52 5.52 0 0 0 .167-1.356v-4.286c0-.46-.056-.912-.167-1.355-.112-.534-.335-.976-.67-1.328-.352-.332-.798-.553-1.337-.664a5.656 5.656 0 0 0-1.366-.166H9.253v.006Zm23.287 3.069a5.305 5.305 0 0 1 1.421 2.654 8.24 8.24 0 0 1 .251 2.018v4.975a1.4 1.4 0 0 1-.418 1.01 1.357 1.357 0 0 1-1.004.428c-.65 0-1.095-.294-1.338-.885a6.752 6.752 0 0 1-1.587.636 8.748 8.748 0 0 1-4.15 0 5.361 5.361 0 0 1-2.645-1.41l-.028-.028a5.295 5.295 0 0 1-1.422-2.626 8.455 8.455 0 0 1-.251-2.073c0-.717.084-1.383.25-2.045a5.305 5.305 0 0 1 1.423-2.654h.027a5.361 5.361 0 0 1 2.647-1.41 8.743 8.743 0 0 1 4.15 0 5.361 5.361 0 0 1 2.645 1.41h.028Zm-2.034 7.408c.335-.35.558-.792.67-1.328.111-.442.167-.903.167-1.383s-.056-.913-.168-1.355c-.129-.554-.352-1.004-.669-1.356-.352-.332-.798-.553-1.338-.664a5.762 5.762 0 0 0-1.393-.166c-.484 0-.92.056-1.366.166-.54.11-.984.332-1.338.664-.353.37-.586.82-.697 1.356a5.531 5.531 0 0 0-.168 1.355c0 .46.056.94.168 1.383a2.7 2.7 0 0 0 .697 1.328c.352.332.798.553 1.338.664.446.11.9.166 1.366.166a5.87 5.87 0 0 0 1.393-.166c.538-.11.984-.332 1.338-.664ZM36.635 8.93a1.124 1.124 0 0 1-.056-.137.47.47 0 0 1-.028-.139.992.992 0 0 1-.027-.276c0-.129.01-.222.027-.277l.084-.249a1.08 1.08 0 0 1 .112-.249 1.78 1.78 0 0 1 .418-.387c.13-.093.205-.139.223-.139.223-.073.408-.11.557-.11.15 0 .335.037.558.11.018 0 .093.046.223.139.111.073.185.128.223.166.093.093.157.166.195.221.038.055.074.138.111.249l.084.249a.992.992 0 0 1 .028.277c0 .128-.01.22-.028.276a.47.47 0 0 1-.028.139 1.11 1.11 0 0 1-.056.138c-.037.11-.073.194-.111.249a1.67 1.67 0 0 1-.195.221 1.59 1.59 0 0 1-.223.166c-.13.093-.205.138-.223.138a.48.48 0 0 0-.14.028 1.135 1.135 0 0 0-.139.055c-.056.018-.15.028-.279.028-.13 0-.223-.01-.279-.028a1.123 1.123 0 0 0-.139-.055.478.478 0 0 0-.14-.028c-.017 0-.093-.045-.222-.138a1.701 1.701 0 0 1-.418-.387 1.08 1.08 0 0 1-.112-.25Zm2.312 14.61a1.357 1.357 0 0 1-1.004.43 1.35 1.35 0 0 1-1.003-.43 1.4 1.4 0 0 1-.418-1.009v-9.897c0-.388.139-.72.418-.996a1.374 1.374 0 0 1 1.003-.415c.39 0 .725.138 1.004.415.279.277.418.608.418.996v9.897a1.4 1.4 0 0 1-.418 1.01Zm9.165-12.315c.39 0 .725.138 1.004.415.278.276.418.608.418.995 0 .388-.14.72-.418.996a1.374 1.374 0 0 1-1.004.415h-.028c-.464 0-.92.056-1.366.166-.54.11-.983.332-1.338.664-.316.35-.54.802-.669 1.356a5.417 5.417 0 0 0-.167 1.327v4.976a1.4 1.4 0 0 1-.418 1.01 1.357 1.357 0 0 1-1.004.428c-.39 0-.728-.142-1.017-.428a1.375 1.375 0 0 1-.432-1.01v-4.976c0-.681.083-1.355.25-2.017a5.306 5.306 0 0 1 1.422-2.654h.028a5.361 5.361 0 0 1 2.646-1.41 8.526 8.526 0 0 1 2.061-.25h.028l.004-.003Zm9.442 12.743h-.028a8.506 8.506 0 0 1-2.06-.249 5.361 5.361 0 0 1-2.647-1.41l-.028-.028a5.296 5.296 0 0 1-1.421-2.626 8.337 8.337 0 0 1-.251-2.045v-4.976c0-.387.143-.719.432-.995a1.418 1.418 0 0 1 1.017-.415c.39 0 .725.138 1.004.415.279.276.418.608.418.995v4.976c0 .46.056.913.167 1.355.112.536.335.976.67 1.328.352.332.798.553 1.337.664.446.11.91.166 1.394.166.484 0 .92-.055 1.366-.166.558-.128 1.012-.35 1.366-.664.334-.35.557-.792.67-1.328a5.52 5.52 0 0 0 .166-1.355v-4.976c0-.387.14-.719.419-.995a1.373 1.373 0 0 1 1.003-.415c.39 0 .725.138 1.003.415.28.276.419.608.419.995v9.234a8.22 8.22 0 0 1-.251 2.017 5.305 5.305 0 0 1-1.422 2.654 5.373 5.373 0 0 1-2.674 1.41 8.407 8.407 0 0 1-2.033.25h-.028c-.39 0-.725-.139-1.003-.415a1.353 1.353 0 0 1-.418-.996c0-.387.139-.72.418-.996a1.374 1.374 0 0 1 1.003-.415h.028c.446 0 .892-.055 1.338-.166.558-.128 1.012-.35 1.366-.664.335-.35.558-.792.669-1.328-.52.24-.966.405-1.338.498a8.407 8.407 0 0 1-2.033.25h-.028l-.01.001ZM6.828 28.129a1.374 1.374 0 0 1 1.003-.415c.39 0 .725.138 1.004.415.278.276.418.608.418.996v2.847h2.87c.39 0 .724.138 1.003.415.278.276.418.608.418.996 0 .387-.14.719-.418.996a1.373 1.373 0 0 1-1.004.415h-2.87v3.566c0 .46.057.913.168 1.356.112.535.335.978.67 1.327.352.315.808.536 1.365.664.446.111.892.166 1.338.166h.028c.39 0 .725.139 1.004.415.278.277.418.609.418.996a1.4 1.4 0 0 1-.418 1.01 1.35 1.35 0 0 1-1.004.429h-.028a8.396 8.396 0 0 1-2.033-.25 5.372 5.372 0 0 1-2.674-1.41v-.028a5.296 5.296 0 0 1-1.422-2.626 8.34 8.34 0 0 1-.25-2.045v-9.233c0-.388.139-.72.418-.996l-.004-.006Zm15.266 3.844c.39 0 .725.138 1.003.415.28.276.418.608.418.995 0 .388-.139.72-.418.996a1.373 1.373 0 0 1-1.003.415h-.028c-.464 0-.92.056-1.366.166-.54.11-.984.332-1.338.664-.317.35-.54.802-.67 1.356a5.417 5.417 0 0 0-.166 1.328v4.975a1.4 1.4 0 0 1-.418 1.01 1.35 1.35 0 0 1-1.004.428c-.39 0-.729-.142-1.017-.428a1.375 1.375 0 0 1-.433-1.01v-4.976c0-.681.084-1.355.251-2.017a5.305 5.305 0 0 1 1.422-2.654h.028A5.36 5.36 0 0 1 20 32.226a8.525 8.525 0 0 1 2.06-.25h.029l.004-.003Zm14.011 1.657a5.306 5.306 0 0 1 1.422 2.654c.167.664.251 1.336.251 2.017v.028c0 .387-.14.72-.418.996a1.373 1.373 0 0 1-1.004.415h-8.384c.111.516.334.95.669 1.3.352.332.798.553 1.338.664.446.11.892.166 1.338.166h3.594c.39 0 .729.138 1.017.415.287.277.432.609.432.996s-.143.723-.432 1.01a1.396 1.396 0 0 1-1.017.428h-3.566a8.514 8.514 0 0 1-2.061-.249 5.36 5.36 0 0 1-2.646-1.41l-.028-.028a5.296 5.296 0 0 1-1.422-2.626 8.46 8.46 0 0 1-.25-2.073c0-.717.083-1.381.25-2.045a5.305 5.305 0 0 1 1.422-2.654h.028a5.36 5.36 0 0 1 2.646-1.41 8.743 8.743 0 0 1 4.15 0 5.36 5.36 0 0 1 2.646 1.41h.028l-.002-.004Zm-8.133 3.29h6.77a2.656 2.656 0 0 0-.67-1.3c-.352-.332-.798-.553-1.338-.664a5.762 5.762 0 0 0-1.393-.166c-.484 0-.92.056-1.366.166-.54.11-.984.332-1.338.664-.335.35-.558.785-.67 1.3h.005Zm23.093-3.29a5.306 5.306 0 0 1 1.422 2.654c.167.664.25 1.336.25 2.017v4.976a1.4 1.4 0 0 1-.418 1.01 1.35 1.35 0 0 1-1.003.428 1.35 1.35 0 0 1-1.004-.428 1.4 1.4 0 0 1-.418-1.01V38.3c0-.442-.055-.885-.167-1.327-.13-.553-.352-1.004-.669-1.356-.352-.312-.808-.533-1.366-.664a5.658 5.658 0 0 0-1.366-.166 5.92 5.92 0 0 0-1.394.166c-.54.111-.983.332-1.338.664-.316.35-.54.802-.669 1.356a5.417 5.417 0 0 0-.167 1.328v4.975a1.4 1.4 0 0 1-.418 1.01 1.35 1.35 0 0 1-1.004.428c-.39 0-.728-.142-1.017-.428a1.375 1.375 0 0 1-.432-1.01V38.3c0-.681.083-1.355.25-2.017a5.305 5.305 0 0 1 1.422-2.654h.028a5.36 5.36 0 0 1 2.646-1.41 8.646 8.646 0 0 1 2.09-.25c.722 0 1.393.084 2.06.25a5.372 5.372 0 0 1 2.674 1.41h.008Zm5.293 9.4a5.295 5.295 0 0 1-1.422-2.627 8.46 8.46 0 0 1-.251-2.072c0-.718.084-1.382.25-2.046a5.305 5.305 0 0 1 1.422-2.653h.028a5.36 5.36 0 0 1 2.647-1.411 8.748 8.748 0 0 1 4.15 0 7.23 7.23 0 0 1 1.475.553v-3.65c0-.387.143-.719.432-.995a1.419 1.419 0 0 1 1.017-.415c.39 0 .725.138 1.004.415.278.276.418.608.418.996v9.233a8.33 8.33 0 0 1-.251 2.045 5.295 5.295 0 0 1-1.422 2.626l-.028.028a5.361 5.361 0 0 1-2.646 1.41 8.743 8.743 0 0 1-4.15 0 5.361 5.361 0 0 1-2.646-1.41l-.027-.028Zm1.338-6.055a5.531 5.531 0 0 0-.168 1.355c0 .46.056.941.168 1.384a2.7 2.7 0 0 0 .697 1.328c.352.331.798.553 1.337.663a5.854 5.854 0 0 0 2.76 0c.538-.11.984-.332 1.338-.663.335-.35.558-.793.67-1.328a5.712 5.712 0 0 0-.001-2.739c-.13-.553-.352-1.004-.669-1.355-.352-.332-.798-.554-1.338-.664a5.767 5.767 0 0 0-1.394-.166c-.483 0-.92.055-1.365.166-.54.11-.984.332-1.339.663-.352.37-.585.82-.696 1.356Zm12.98 1.714a3.023 3.023 0 0 1-.892-1.63 5.518 5.518 0 0 1-.14-1.19c0-.387.046-.792.14-1.217a3.14 3.14 0 0 1 .892-1.63l.028-.028a3.33 3.33 0 0 1 1.643-.885 5.643 5.643 0 0 1 1.198-.138h6.073c.39 0 .729.138 1.018.415.286.276.432.608.432.995 0 .388-.144.72-.432.996a1.422 1.422 0 0 1-1.018.415h-6.073c-.111 0-.279.018-.502.056a.901.901 0 0 0-.334.166.943.943 0 0 0-.14.332c-.055.332-.083.507-.083.525 0 .055.004.11.014.166.01.056.024.115.042.18a.62.62 0 0 1 .028.152c.018.129.065.24.139.332.111.073.223.129.334.166.223.038.39.055.502.055h5.014c.39 0 .798.046 1.227.139.593.128 1.142.425 1.642.885l.028.028c.446.442.743.986.892 1.63.094.425.14.83.14 1.217 0 .387-.046.765-.14 1.19-.15.663-.446 1.216-.892 1.657h-.028c-.446.443-1.003.737-1.67.885-.52.111-.92.166-1.2.166h-6.072a1.35 1.35 0 0 1-1.004-.428 1.4 1.4 0 0 1-.418-1.01c0-.387.14-.72.418-.996a1.374 1.374 0 0 1 1.004-.415h6.073c.111 0 .279-.018.502-.055a.988.988 0 0 0 .362-.139.974.974 0 0 0 .14-.36 3.22 3.22 0 0 0 .055-.497c0-.129-.018-.304-.055-.526a.96.96 0 0 0-.14-.332.958.958 0 0 0-.334-.138 13.6 13.6 0 0 0-.53-.083h-5.014c-.372 0-.77-.045-1.198-.138-.596-.129-1.143-.423-1.643-.885l-.028-.028Z" fill="#fff"/><path fill-rule="evenodd" clip-rule="evenodd" d="M53.375 46.138c0 2.389 5.213 3.895 7.062 3.895h1.727c1.85 0 7.062-1.506 7.062-3.895 0-.875-.689-1.557-1.569-1.557-.316 0-.846.579-1.22.814-6.296 3.932-11.149-.814-11.493-.814-.882 0-1.57.682-1.57 1.557Z" fill="#FDD023"/><path d="M87.726 26.596v-.212h1.484v.212h-.622v1.766h-.24v-1.766h-.622Zm1.854-.212h.286l.672 1.642h.023l.673-1.642h.286v1.978h-.224V26.86h-.02l-.618 1.503h-.216l-.619-1.503h-.02v1.503h-.223v-1.978Z" fill="#000"/></g><defs><clipPath id="a"><path fill="#fff" transform="translate(.279 .884)" d="M0 0h94.078v55.233H0z"/></clipPath></defs></svg>