<svg width="132" height="45" viewBox="0 0 132 45" fill="none" xmlns="http://www.w3.org/2000/svg">
<g clip-path="url(#clip0_1803_308)">
<path d="M5.19836 44.2865H17.9666C27.1641 44.2865 34.3057 40.0741 37.8863 33.2925C38.7919 31.5882 39.4649 29.716 39.8908 27.7115C40.2432 26.0632 40.4243 24.3207 40.4243 22.502C40.4243 9.67898 31.381 0.714844 17.9666 0.714844H5.19836V0.722475C5.0099 0.717387 4.82145 0.714844 4.63055 0.714844H0.898211V0.969218H0.890869V4.85096C0.890869 10.437 2.27612 15.2956 4.7309 19.1112C5.56547 20.4059 6.52242 21.5837 7.5895 22.6266C6.52242 23.6695 5.56547 24.8447 4.7309 26.1395C2.27612 29.9551 0.890869 34.8137 0.890869 40.3997V44.2815H0.898211V44.2891H5.19836V44.2865ZM5.33052 40.2827C5.28646 40.2827 5.24241 40.2878 5.19836 40.2878C5.04172 40.2954 4.88508 40.298 4.726 40.3005C4.726 40.0894 4.73334 39.8833 4.74313 39.6747C4.96095 33.4197 7.29091 28.4467 11.0551 25.3128C12.4379 24.1579 14.0165 23.2524 15.759 22.6266C14.0189 21.9983 12.4403 21.0953 11.0551 19.9379C7.29091 16.804 4.95851 11.831 4.74313 5.57593C4.7309 5.28594 4.72355 4.99596 4.72355 4.70343C4.88264 4.70343 5.03927 4.70851 5.19836 4.71614C5.24241 4.71614 5.28646 4.71614 5.33052 4.72123C13.921 5.04174 20.0053 9.84687 22.0073 17.0609C22.4038 18.4905 22.6388 20.0167 22.7024 21.6193C22.7147 21.9144 22.7195 22.2069 22.7195 22.502C22.7195 22.881 22.7098 23.2575 22.6902 23.6288C22.6094 25.2339 22.3549 26.7627 21.9364 28.1923C19.8658 35.269 13.8231 39.9622 5.33052 40.2827ZM36.0507 22.6877C36.036 24.6184 35.7766 26.4371 35.2871 28.1262C33.2141 35.325 27.0368 40.0767 18.3558 40.2929C22.5458 37.3828 25.4289 33.0229 26.5571 27.7065C26.8826 26.1828 27.0613 24.5751 27.0858 22.9039C27.0907 22.7691 27.0907 22.6368 27.0907 22.4994C27.0907 22.446 27.0907 22.3926 27.0907 22.3417C27.0833 20.673 26.9193 19.0755 26.6134 17.5518C25.5219 12.1159 22.6119 7.66179 18.3558 4.70343C27.1102 4.92473 33.3145 9.75275 35.341 17.0482C35.8109 18.7423 36.0556 20.5687 36.0556 22.4969V22.6826L36.0507 22.6877Z" fill="#0E0E0E"/>
<path d="M46.2076 5.96582H53.1363C57.992 5.96582 61.3206 8.90384 61.3206 13.5792C61.3206 18.2546 57.992 21.1926 53.1363 21.1926H46.2076V5.96582ZM52.9675 17.7586C55.4589 17.7586 57.133 16.2145 57.133 13.5818C57.133 10.949 55.4589 9.40495 52.9675 9.40495H50.3511V17.7586H52.9675Z" fill="#0E0E0E"/>
<path d="M62.8698 5.90189C62.8698 4.66055 63.8316 3.7041 65.2976 3.7041C66.7636 3.7041 67.7255 4.59695 67.7255 5.83575C67.7255 7.14069 66.7636 8.09714 65.2976 8.09714C63.8316 8.09714 62.8698 7.14069 62.8698 5.89935V5.90189ZM63.3103 9.40462H67.2874V21.1949H63.3103V9.40462Z" fill="#0E0E0E"/>
<path d="M81.8129 9.4043L77.1237 21.1945H73.0218L68.3545 9.4043H72.4368L75.1584 16.6056L78.0268 9.4043H81.8154H81.8129Z" fill="#0E0E0E"/>
<path d="M82.3978 5.90189C82.3978 4.66055 83.3597 3.7041 84.8257 3.7041C86.2917 3.7041 87.2535 4.59695 87.2535 5.83575C87.2535 7.14069 86.2917 8.09714 84.8257 8.09714C83.3597 8.09714 82.3978 7.14069 82.3978 5.89935V5.90189ZM82.8384 9.40462H86.8154V21.1949H82.8384V9.40462Z" fill="#0E0E0E"/>
<path d="M101.466 14.451V21.1945H97.4887V15.1251C97.4887 13.4285 96.7765 12.7111 95.6262 12.7111C94.3486 12.7111 93.3648 13.5378 93.3648 15.4965V21.197H89.3877V9.4068H93.1763V10.6914C94.077 9.71205 95.3521 9.21094 96.7765 9.21094C99.4344 9.21094 101.466 10.7982 101.466 14.4536V14.451Z" fill="#0E0E0E"/>
<path d="M103.517 5.90189C103.517 4.66055 104.479 3.7041 105.945 3.7041C107.411 3.7041 108.372 4.59695 108.372 5.83575C108.372 7.14069 107.411 8.09714 105.945 8.09714C104.479 8.09714 103.517 7.14069 103.517 5.89935V5.90189ZM103.957 9.40462H107.934V21.1949H103.957V9.40462Z" fill="#0E0E0E"/>
<path d="M118.336 20.7163C117.646 21.1741 116.62 21.3904 115.573 21.3904C112.663 21.3904 110.967 19.9099 110.967 16.8879V12.9273H109.312V9.83923H110.967V6.77148H114.944V9.83923H117.541V12.9273H114.944V16.8421C114.944 17.7121 115.426 18.1903 116.138 18.1903C116.579 18.1903 117.017 18.0606 117.352 17.8215L118.336 20.7163Z" fill="#0E0E0E"/>
<path d="M131.606 9.4043L126.709 21.6753C125.514 24.7201 123.84 25.613 121.601 25.613C120.406 25.613 119.068 25.2009 118.314 24.5472L119.694 21.6524C120.154 22.0874 120.825 22.3494 121.452 22.3494C122.225 22.3494 122.665 22.0441 123.001 21.3497L118.145 9.40684H122.227L125.013 16.6082L127.817 9.40684H131.606V9.4043Z" fill="#0E0E0E"/>
<path d="M46.166 27.3145H50.9091C54.3258 27.3145 56.6655 29.4537 56.6655 32.7402C56.6655 36.0268 54.3233 38.166 50.9091 38.166H46.166V27.3145ZM50.7892 36.1031C52.8622 36.1031 54.2205 34.8159 54.2205 32.7402C54.2205 30.6646 52.8622 29.3774 50.7892 29.3774H48.5816V36.1056H50.7892V36.1031Z" fill="#0E0E0E"/>
<path d="M66.1395 34.6787H60.0699C60.2926 35.7165 61.1443 36.3525 62.368 36.3525C63.2173 36.3525 63.8291 36.0879 64.3822 35.5461L65.6206 36.9426C64.8742 37.8253 63.7557 38.2908 62.3093 38.2908C59.5339 38.2908 57.7301 36.4771 57.7301 33.997C57.7301 31.5168 59.5657 29.7031 62.0107 29.7031C64.4557 29.7031 66.186 31.3464 66.186 34.0275C66.186 34.2132 66.1566 34.4777 66.1419 34.6787H66.1395ZM60.038 33.2669H63.9906C63.8267 32.2138 63.0655 31.5295 62.0229 31.5295C60.9803 31.5295 60.202 32.196 60.038 33.2669Z" fill="#0E0E0E"/>
<path d="M67.7377 26.6631H70.0652V38.1659H67.7377V26.6631Z" fill="#0E0E0E"/>
<path d="M71.9424 27.315C71.9424 26.5544 72.5249 25.9668 73.3888 25.9668C74.2528 25.9668 74.8353 26.5239 74.8353 27.2692C74.8353 28.0756 74.2528 28.6657 73.3888 28.6657C72.5249 28.6657 71.9424 28.0756 71.9424 27.3175V27.315ZM72.2263 29.8256H74.5538V38.1666H72.2263V29.8256Z" fill="#0E0E0E"/>
<path d="M84.9945 29.8248V36.7692C84.9945 39.8701 83.3841 41.2971 80.4888 41.2971C78.9665 41.2971 77.4907 40.9105 76.5509 40.1499L77.476 38.4125C78.1613 38.9874 79.2798 39.3588 80.3101 39.3588C81.9499 39.3588 82.667 38.5829 82.667 37.0796V36.7235C82.0551 37.4204 81.1765 37.7613 80.1315 37.7613C77.9092 37.7613 76.1201 36.1638 76.1201 33.732C76.1201 31.3002 77.9092 29.7002 80.1315 29.7002C81.2499 29.7002 82.1751 30.0868 82.7869 30.8932V29.8223H84.9945V29.8248ZM82.6964 33.732C82.6964 32.5085 81.8153 31.6869 80.594 31.6869C79.3728 31.6869 78.477 32.5085 78.477 33.732C78.477 34.9556 79.3728 35.7772 80.594 35.7772C81.8153 35.7772 82.6964 34.9556 82.6964 33.732Z" fill="#0E0E0E"/>
<path d="M95.3619 33.3913V38.1659H93.0344V33.7627C93.0344 32.4145 92.4372 31.7938 91.4093 31.7938C90.2908 31.7938 89.4856 32.5061 89.4856 34.0425V38.1659H87.1581V26.6631H89.4856V30.6924C90.1121 30.0412 91.0079 29.7003 92.0358 29.7003C93.9301 29.7003 95.3619 30.8475 95.3619 33.3887V33.3913Z" fill="#0E0E0E"/>
<path d="M102.643 37.765C102.166 38.1212 101.466 38.2916 100.749 38.2916C98.8544 38.2916 97.7506 37.2843 97.7506 35.3002V31.8738H96.5122V30.0143H97.7506V27.9844H100.078V30.0143H102.078V31.8738H100.078V35.2696C100.078 35.9819 100.45 36.3711 101.077 36.3711C101.419 36.3711 101.762 36.2617 102.016 36.0607L102.643 37.765Z" fill="#0E0E0E"/>
<path d="M103.179 37.3928L103.955 35.6555C104.672 36.1362 105.759 36.4618 106.745 36.4618C107.819 36.4618 108.221 36.1668 108.221 35.7013C108.221 34.3378 103.372 35.7318 103.372 32.3995C103.372 30.8173 104.745 29.7031 107.088 29.7031C108.191 29.7031 109.415 29.9677 110.176 30.4306L109.4 32.1502C108.61 31.6847 107.819 31.5295 107.088 31.5295C106.043 31.5295 105.597 31.8704 105.597 32.3054C105.597 33.7324 110.446 32.3512 110.446 35.6377C110.446 37.1868 109.058 38.2882 106.657 38.2882C105.299 38.2882 103.928 37.9016 103.182 37.3903L103.179 37.3928Z" fill="#0E0E0E"/>
</g>
<defs>
<clipPath id="clip0_1803_308">
<rect width="130.715" height="43.5717" fill="white" transform="translate(0.890869 0.714844)"/>
</clipPath>
</defs>
</svg>
