<svg width="160" height="53" fill="none" xmlns="http://www.w3.org/2000/svg"><g clip-path="url(#a)" fill="#141213"><path d="M5.524 53h15.532c11.187 0 19.874-5.124 24.23-13.373 1.101-2.073 1.92-4.35 2.438-6.789.429-2.005.649-4.124.649-6.337C48.373 10.905 37.373 0 21.056 0H5.524v.01C5.295.002 5.066 0 4.834 0H.294v.31h-.01v4.72c0 6.795 1.686 12.705 4.672 17.346a24.608 24.608 0 0 0 3.477 4.276 24.589 24.589 0 0 0-3.477 4.273C1.97 35.568.285 41.477.285 48.272v4.722h.009v.01h5.23V53Zm.161-4.87c-.053 0-.107.006-.16.006-.191.01-.382.012-.575.015 0-.256.009-.507.02-.76.266-7.61 3.1-13.658 7.679-17.47a18.796 18.796 0 0 1 5.721-3.268 18.876 18.876 0 0 1-5.722-3.27C8.07 19.57 5.234 13.522 4.972 5.913a25.137 25.137 0 0 1-.024-1.061c.193 0 .384.006.577.015.054 0 .108 0 .161.006 10.45.39 17.85 6.235 20.286 15.01.482 1.739.768 3.596.845 5.545a26.083 26.083 0 0 1-.015 2.444 24.053 24.053 0 0 1-.917 5.551c-2.519 8.608-9.87 14.317-20.2 14.707Zm37.368-21.403c-.018 2.349-.334 4.561-.929 6.616-2.522 8.756-10.035 14.536-20.595 14.8 5.097-3.54 8.604-8.844 9.976-15.31.396-1.854.613-3.81.643-5.843.006-.164.006-.324.006-.491v-.192a30.23 30.23 0 0 0-.58-5.827c-1.328-6.612-4.868-12.03-10.045-15.628 10.649.269 18.196 6.142 20.66 15.016.572 2.06.87 4.282.87 6.627v.226l-.006.006Zm12.355-20.34h8.428c5.906 0 9.955 3.573 9.955 9.26 0 5.688-4.049 9.261-9.955 9.261h-8.428V6.387ZM63.63 20.73c3.03 0 5.067-1.878 5.067-5.08 0-3.203-2.036-5.081-5.067-5.081h-3.182V20.73h3.182ZM75.675 6.31c0-1.51 1.17-2.674 2.953-2.674 1.784 0 2.954 1.086 2.954 2.593 0 1.587-1.17 2.75-2.954 2.75-1.783 0-2.953-1.163-2.953-2.673v.003Zm.536 4.26h4.838v14.34H76.21V10.57Zm22.506 0-5.704 14.34h-4.99l-5.676-14.34h4.965l3.31 8.759 3.49-8.76h4.608-.003Zm.712-4.26c0-1.51 1.17-2.674 2.953-2.674s2.953 1.086 2.953 2.593c0 1.587-1.17 2.75-2.953 2.75s-2.953-1.163-2.953-2.673v.003Zm.536 4.26h4.837v14.34h-4.837V10.57Zm22.658 6.139v8.203h-4.838v-7.383c0-2.064-.866-2.937-2.265-2.937-1.554 0-2.751 1.006-2.751 3.389v6.934h-4.838V10.573h4.609v1.563c1.095-1.191 2.646-1.801 4.379-1.801 3.233 0 5.704 1.93 5.704 6.377v-.003Zm2.495-10.399c0-1.51 1.17-2.674 2.953-2.674s2.953 1.086 2.953 2.593c0 1.587-1.17 2.75-2.953 2.75s-2.953-1.163-2.953-2.673v.003Zm.535 4.26h4.838v14.34h-4.838V10.57Zm17.491 13.76c-.84.556-2.087.82-3.362.82-3.539 0-5.602-1.801-5.602-5.477v-4.818h-2.013V11.1h2.013V7.367h4.837V11.1h3.159v3.756h-3.159v4.762c0 1.058.587 1.64 1.453 1.64.536 0 1.069-.158 1.477-.449l1.197 3.521Z"/><path d="m159.285 10.57-5.957 14.926c-1.453 3.703-3.489 4.79-6.213 4.79-1.453 0-3.081-.502-3.998-1.297l1.679-3.521a3.216 3.216 0 0 0 2.137.848c.941 0 1.477-.372 1.885-1.216l-5.907-14.528h4.966l3.388 8.76 3.411-8.76h4.609v-.003ZM55.357 32.355h5.77c4.155 0 7.001 2.603 7.001 6.6 0 3.998-2.849 6.6-7.002 6.6h-5.77v-13.2Zm5.623 10.69c2.522 0 4.174-1.565 4.174-4.09 0-2.524-1.652-4.09-4.173-4.09h-2.686v8.184h2.685v-.003Zm18.672-1.732H72.27c.271 1.262 1.307 2.036 2.796 2.036 1.033 0 1.777-.322 2.45-.981l1.506 1.699c-.908 1.073-2.268 1.64-4.028 1.64-3.376 0-5.57-2.206-5.57-5.223s2.233-5.223 5.207-5.223c2.974 0 5.079 1.999 5.079 5.26 0 .226-.036.547-.054.792h-.003Zm-7.421-1.717h4.808c-.2-1.281-1.126-2.114-2.394-2.114-1.268 0-2.215.811-2.414 2.114Zm9.365-8.032h2.832v13.991h-2.832V31.564Zm5.114.792c0-.925.71-1.64 1.76-1.64 1.051 0 1.76.677 1.76 1.584 0 .98-.709 1.699-1.76 1.699-1.05 0-1.76-.718-1.76-1.64v-.003Zm.346 3.054h2.831v10.145h-2.83V35.41Zm15.531 0v8.447c0 3.771-1.958 5.507-5.48 5.507-1.852 0-3.647-.47-4.79-1.395l1.125-2.114c.834.7 2.194 1.151 3.447 1.151 1.995 0 2.867-.943 2.867-2.772v-.433c-.744.848-1.813 1.262-3.084 1.262-2.703 0-4.88-1.943-4.88-4.9 0-2.959 2.177-4.905 4.88-4.905 1.36 0 2.486.47 3.23 1.451v-1.303h2.685v.003Zm-2.795 4.752c0-1.488-1.072-2.488-2.557-2.488-1.486 0-2.575 1-2.575 2.488s1.09 2.488 2.575 2.488 2.557-1 2.557-2.488Zm15.406-.414v5.807h-2.831V40.2c0-1.64-.726-2.395-1.977-2.395-1.36 0-2.34.867-2.34 2.736v5.015h-2.831V31.564h2.831v4.9c.762-.791 1.852-1.206 3.102-1.206 2.305 0 4.046 1.395 4.046 4.486v.004Zm8.857 5.319c-.581.433-1.432.64-2.304.64-2.305 0-3.647-1.225-3.647-3.638V37.9h-1.507v-2.262h1.507v-2.47h2.831v2.47h2.432V37.9h-2.432v4.13c0 .867.452 1.34 1.214 1.34a1.87 1.87 0 0 0 1.144-.377l.762 2.073Zm.652-.453.943-2.113c.873.585 2.195.98 3.394.98 1.307 0 1.795-.358 1.795-.924 0-1.659-5.897.037-5.897-4.016 0-1.925 1.67-3.28 4.519-3.28 1.343 0 2.831.322 3.757.885l-.944 2.091a5.434 5.434 0 0 0-2.813-.755c-1.271 0-1.813.415-1.813.944 0 1.736 5.898.056 5.898 4.053 0 1.885-1.688 3.225-4.609 3.225-1.652 0-3.319-.47-4.227-1.093l-.003.003Z"/></g><defs><clipPath id="a"><path fill="#fff" transform="translate(.285)" d="M0 0h159v53H0z"/></clipPath></defs></svg>