<svg width="111" height="126" viewBox="0 0 111 126" fill="none" xmlns="http://www.w3.org/2000/svg">
<rect width="111" height="126" fill="white"/>
<g clip-path="url(#clip0_1571_1792)">
<path d="M75.5625 49.0646H43.0361C41.9205 43.7835 38.8316 43.4434 38.5736 43.4149H36.2205C35.8568 42.5089 34.9781 41.709 33.9502 41.709C32.5965 41.709 31.5 42.816 31.5 44.1821C31.5 45.5475 32.5969 46.6541 33.9502 46.6541C34.986 46.6541 35.8695 45.8314 36.2276 44.9149H38.4229C38.5103 44.9306 40.56 45.5531 41.3314 49.8799C42.3544 55.6136 44.9618 70.0219 44.9764 70.0204C44.9764 71.6141 45.933 74.5402 49.5499 74.5402H63.4414L62.8702 73.0642H49.5499C47.9992 73.0642 47.3257 71.9531 47.0287 71.151C49.4565 70.9905 56.1334 70.5476 62.0453 70.1257L62.0921 70.1141L59.3025 61.1089C59.1707 60.6836 59.166 60.2291 59.289 59.8012C59.412 59.3733 59.6573 58.9906 59.9948 58.7002C60.6795 58.113 61.7014 57.99 62.5028 58.3976L75.7822 65.1202C76.2512 65.3602 76.6228 65.7548 76.8341 66.2374L77.6786 66.0146C77.9914 65.3929 78.0566 64.9204 78.0615 64.8667L79.4655 53.5249C79.7711 51.0622 78.0229 49.0646 75.5625 49.0646ZM55.1145 57.3934C55.1319 57.3457 55.1586 57.3019 55.193 57.2645C55.2274 57.2271 55.2688 57.1969 55.3149 57.1755C55.361 57.1542 55.4108 57.1421 55.4616 57.1401C55.5123 57.138 55.563 57.146 55.6106 57.1635L58.1951 58.1115C58.3965 58.1846 58.5 58.4074 58.4258 58.608C58.39 58.7041 58.3178 58.7823 58.2247 58.8254C58.1317 58.8685 58.0253 58.8731 57.9289 58.8382L55.3444 57.8902C55.2966 57.8727 55.2528 57.846 55.2154 57.8115C55.1781 57.7771 55.1478 57.7356 55.1265 57.6894C55.1051 57.6433 55.0931 57.5934 55.091 57.5426C55.089 57.4918 55.097 57.4411 55.1145 57.3934ZM57.8775 61.7876L55.3849 62.961C55.2919 63.0044 55.1856 63.0093 55.0891 62.9746C54.9925 62.9399 54.9137 62.8684 54.8696 62.7757C54.826 62.6829 54.8211 62.5765 54.8558 62.48C54.8905 62.3835 54.9621 62.3047 55.0549 62.2609L57.5475 61.0875C57.5935 61.0658 57.6433 61.0534 57.694 61.051C57.7448 61.0486 57.7955 61.0562 57.8434 61.0733C57.8912 61.0905 57.9352 61.117 57.9728 61.1511C58.0104 61.1853 58.0409 61.2266 58.0626 61.2725C58.0842 61.3185 58.0966 61.3683 58.0991 61.4191C58.1015 61.4698 58.0939 61.5206 58.0767 61.5684C58.0595 61.6162 58.0331 61.6602 57.9989 61.6978C57.9647 61.7354 57.9235 61.7659 57.8775 61.7876ZM59.6734 63.417C59.874 63.4894 59.9786 63.7114 59.9062 63.912L58.9665 66.5209C58.9288 66.6138 58.8566 66.6886 58.7651 66.7295C58.6735 66.7704 58.5696 66.7743 58.4752 66.7403C58.3809 66.7063 58.3033 66.6371 58.2589 66.5472C58.2144 66.4572 58.2065 66.3536 58.2367 66.258L59.178 63.6499C59.213 63.5535 59.2848 63.4749 59.3776 63.4312C59.4705 63.3876 59.5768 63.3825 59.6734 63.417ZM60.5486 56.9805C60.4553 57.0233 60.3488 57.0276 60.2523 56.9922C60.1559 56.9569 60.0773 56.8849 60.0337 56.7919L58.8705 54.2779C58.8492 54.2318 58.8371 54.182 58.835 54.1312C58.8329 54.0805 58.8408 54.0299 58.8583 53.9822C58.8758 53.9345 58.9025 53.8908 58.9369 53.8534C58.9713 53.816 59.0127 53.7858 59.0587 53.7645C59.1048 53.7431 59.1546 53.7311 59.2054 53.729C59.2561 53.7269 59.3068 53.7348 59.3544 53.7523C59.4021 53.7698 59.4459 53.7965 59.4832 53.8309C59.5206 53.8653 59.5508 53.9067 59.5721 53.9527L60.7361 56.4671C60.7577 56.5131 60.7699 56.5629 60.7721 56.6136C60.7743 56.6644 60.7665 56.7151 60.7491 56.7628C60.7317 56.8105 60.705 56.8543 60.6706 56.8916C60.6362 56.929 60.5947 56.9592 60.5486 56.9805ZM64.6252 54.5051L63.6863 57.1129C63.669 57.1608 63.6424 57.2049 63.6081 57.2426C63.5738 57.2803 63.5323 57.3108 63.4862 57.3324C63.44 57.3541 63.39 57.3664 63.3391 57.3687C63.2882 57.371 63.2373 57.3632 63.1894 57.3457C63.093 57.3106 63.0145 57.2388 62.9709 57.146C62.9273 57.0532 62.9221 56.947 62.9565 56.8504L63.897 54.243C63.9142 54.1952 63.9405 54.1513 63.9747 54.1138C64.0088 54.0762 64.05 54.0458 64.0959 54.0242C64.1418 54.0025 64.1915 53.9902 64.2422 53.9877C64.2928 53.9853 64.3435 53.9929 64.3912 54.0101C64.5937 54.0825 64.6976 54.3041 64.6252 54.5051ZM68.2931 58.3286L65.8027 59.5024C65.7568 59.5241 65.707 59.5366 65.6563 59.5391C65.6055 59.5416 65.5547 59.5341 65.5069 59.517C65.459 59.4998 65.415 59.4735 65.3773 59.4393C65.3396 59.4052 65.3091 59.364 65.2873 59.318C65.2656 59.2721 65.2531 59.2223 65.2506 59.1716C65.2481 59.1208 65.2556 59.07 65.2727 59.0222C65.2898 58.9743 65.3162 58.9303 65.3503 58.8926C65.3845 58.8549 65.4257 58.8244 65.4716 58.8026L67.9639 57.6281C68.1566 57.5377 68.3873 57.6202 68.4788 57.8134C68.5703 58.0065 68.4874 58.2371 68.2931 58.3286Z" fill="#3B4652"/>
<path d="M71.9047 69.1168L75.0375 67.8857C75.1774 67.8301 75.2983 67.7353 75.3857 67.6126C75.473 67.4899 75.5231 67.3447 75.5298 67.1942C75.5373 67.0439 75.5011 66.8946 75.4255 66.7644C75.35 66.6341 75.2384 66.5286 75.1042 66.4603L61.8206 59.7358C61.6849 59.6668 61.5317 59.6396 61.3805 59.6579C61.2293 59.6761 61.087 59.7389 60.9716 59.8382C60.8558 59.9382 60.7716 60.0698 60.7295 60.2168C60.6873 60.3639 60.6889 60.5201 60.7342 60.6662L65.2365 75.196C65.2813 75.3425 65.3686 75.4725 65.4874 75.5693C65.6062 75.6662 65.751 75.7256 65.9036 75.7401C66.056 75.7534 66.209 75.7214 66.3433 75.6481C66.4777 75.5749 66.5874 75.4637 66.6588 75.3284L68.4731 71.875L72.3405 77.002C72.4123 77.0973 72.5051 77.1748 72.6118 77.2283C72.7185 77.2818 72.8361 77.31 72.9555 77.3106C73.1231 77.3106 73.2888 77.2551 73.4242 77.1509L75.7927 75.3295C75.8747 75.266 75.9433 75.187 75.9946 75.0969C76.0459 75.0068 76.0788 74.9074 76.0914 74.8045C76.1041 74.7016 76.0962 74.5973 76.0683 74.4974C76.0404 74.3976 75.993 74.3043 75.9288 74.2229L71.9047 69.1168ZM68.7026 77.7974C66.9243 77.7974 65.4776 79.2542 65.4776 81.0441C65.4776 82.834 66.9232 84.2908 68.7026 84.2908C70.4801 84.2908 71.9276 82.834 71.9276 81.0441C71.9276 79.2542 70.4801 77.7974 68.7026 77.7974ZM50.1378 77.7974C48.36 77.7974 46.9128 79.2542 46.9128 81.0441C46.9128 82.834 48.3596 84.2908 50.1378 84.2908C51.9161 84.2908 53.3628 82.834 53.3628 81.0441C53.3628 79.2542 51.9161 77.7974 50.1378 77.7974Z" fill="#2B79C2"/>
</g>
<defs>
<clipPath id="clip0_1571_1792">
<rect width="48" height="48" fill="white" transform="translate(31.5 39)"/>
</clipPath>
</defs>
</svg>
