<svg width="32" height="32" fill="none" xmlns="http://www.w3.org/2000/svg"><g clip-path="url(#a)"><path d="M29.375 6.71H7.691c-.744-3.52-2.803-3.748-2.975-3.767H3.147c-.242-.604-.828-1.137-1.513-1.137A1.64 1.64 0 0 0 0 3.455c0 .91.731 1.648 1.633 1.648.691 0 1.28-.549 1.519-1.16h1.463c.058.01 1.425.426 1.94 3.31a2858.16 2858.16 0 0 0 2.43 13.427c0 1.063.637 3.014 3.048 3.014h9.261l-.38-.984h-8.88c-1.035 0-1.484-.741-1.682-1.276 1.619-.107 6.07-.402 10.011-.683l.032-.008-1.86-6.004a1.523 1.523 0 0 1 .462-1.605 1.541 1.541 0 0 1 1.672-.202l8.852 4.482c.313.16.56.423.702.744l.563-.148a2.48 2.48 0 0 0 .255-.765l.936-7.562c.204-1.641-.962-2.973-2.602-2.973Zm-13.632 5.552a.257.257 0 0 1 .33-.153l1.724.632a.257.257 0 0 1 .02.476.26.26 0 0 1-.198.009l-1.723-.632a.26.26 0 0 1-.153-.332Zm1.842 2.93-1.662.782a.26.26 0 0 1-.343-.123.258.258 0 0 1 .123-.344l1.662-.782a.256.256 0 0 1 .343.123.259.259 0 0 1-.123.344Zm1.197 1.086a.258.258 0 0 1 .155.33l-.626 1.74a.259.259 0 0 1-.486-.176l.627-1.739a.259.259 0 0 1 .33-.155Zm.584-4.29a.26.26 0 0 1-.343-.127l-.776-1.676a.258.258 0 0 1 .468-.216l.776 1.676a.255.255 0 0 1-.044.283.258.258 0 0 1-.081.06Zm2.718-1.651-.627 1.738a.258.258 0 0 1-.476.023.26.26 0 0 1-.01-.198l.627-1.738a.256.256 0 0 1 .33-.155.257.257 0 0 1 .155.33Zm2.445 2.549-1.66.782a.258.258 0 1 1-.221-.466l1.661-.783a.258.258 0 1 1 .22.467Z" fill="#3B4652"/><path d="m26.936 20.078 2.089-.821a.522.522 0 0 0 .045-.95l-8.856-4.483a.513.513 0 0 0-.728.32.524.524 0 0 0 .003.3l3.002 9.687a.516.516 0 0 0 .948.088l1.21-2.303 2.578 3.418a.518.518 0 0 0 .41.206.513.513 0 0 0 .313-.106l1.579-1.215a.523.523 0 0 0 .09-.737l-2.683-3.404Zm-2.134 5.787a2.16 2.16 0 0 0-2.15 2.164 2.16 2.16 0 0 0 2.15 2.165 2.16 2.16 0 0 0 2.15-2.165 2.16 2.16 0 0 0-2.15-2.164Zm-12.377 0a2.16 2.16 0 0 0-2.15 2.164 2.16 2.16 0 0 0 2.15 2.165 2.16 2.16 0 0 0 2.15-2.165 2.16 2.16 0 0 0-2.15-2.164Z" fill="#2B79C2"/></g><defs><clipPath id="a"><path fill="#fff" d="M0 0h32v32H0z"/></clipPath></defs></svg>