<svg width="111" height="126" viewBox="0 0 111 126" fill="none" xmlns="http://www.w3.org/2000/svg">
<rect width="111" height="126" fill="white"/>
<path d="M68.5291 56.9208C68.5287 56.8186 68.5068 56.7176 68.4649 56.6244C68.4229 56.5312 68.3618 56.4479 68.2855 56.3798C68.2088 56.3121 68.1187 56.2613 68.0211 56.2307C67.9235 56.2001 67.8206 56.1903 67.719 56.2021L43.0911 59.1019C42.9148 59.1228 42.7523 59.2076 42.6343 59.3403C42.5164 59.473 42.4512 59.6444 42.4512 59.8219V66.3463C42.4512 69.2075 50.6534 69.9711 55.5 69.9711C60.3463 69.9711 68.5488 69.2075 68.5488 66.3463V66.3449L68.5291 56.9208Z" fill="#0B4870"/>
<path d="M68.529 59.0967H55.48V69.9706L55.4999 69.9707C60.2197 69.9707 68.1185 69.2457 68.529 66.5655V59.0967Z" fill="#0B4870"/>
<path d="M77.1078 52.9176L58.5562 46.5569C56.5852 45.8808 54.4146 45.8808 52.4436 46.5569L33.8926 52.9176C33 53.2233 32.4221 54.0307 32.4221 54.9749C32.4221 55.9185 32.9999 56.726 33.8926 57.0318L52.4438 63.3923C53.4276 63.7286 54.4603 63.8999 55.5 63.8993C56.5398 63.9 57.5724 63.7287 58.5562 63.3923L77.1081 57.0318C78.0009 56.726 78.5778 55.9187 78.5778 54.9749C78.5776 54.0307 78.0006 53.2233 77.1078 52.9176Z" fill="#0E538C"/>
<path d="M69.254 70.6955C69.1588 70.6955 69.0645 70.6767 68.9765 70.6403C68.8886 70.6039 68.8087 70.5505 68.7414 70.4832C68.6741 70.4158 68.6207 70.3359 68.5843 70.248C68.5479 70.16 68.5291 70.0657 68.5292 69.9705V60.4982C68.5292 60.3471 68.4819 60.1997 68.3941 60.0768C68.3063 59.9538 68.1823 59.8613 68.0393 59.8122L55.2452 55.4258C55.0633 55.3634 54.9137 55.2314 54.8291 55.0587C54.7445 54.886 54.7319 54.6869 54.7941 54.5049C54.9244 54.1262 55.3358 53.9235 55.7152 54.0545L68.5092 58.4411C68.9381 58.588 69.3103 58.8653 69.5738 59.2342C69.8373 59.603 69.979 60.045 69.979 60.4983V69.9707C69.979 70.0659 69.9602 70.1601 69.9238 70.2481C69.8874 70.336 69.834 70.416 69.7666 70.4833C69.6993 70.5506 69.6194 70.604 69.5314 70.6404C69.4434 70.6768 69.3492 70.6955 69.254 70.6955Z" fill="#2A94F4"/>
<path d="M69.979 75.7707H68.5291C68.4339 75.7707 68.3396 75.752 68.2517 75.7156C68.1637 75.6791 68.0838 75.6257 68.0164 75.5584C67.9491 75.4911 67.8957 75.4111 67.8593 75.3232C67.8229 75.2352 67.8042 75.1409 67.8042 75.0457V70.6961C67.8042 69.8953 68.4532 69.2461 69.2539 69.2461C70.0549 69.2461 70.7038 69.8953 70.7038 70.6961V75.0457C70.7038 75.1409 70.6851 75.2352 70.6487 75.3231C70.6122 75.4111 70.5589 75.491 70.4916 75.5584C70.4242 75.6257 70.3443 75.6791 70.2564 75.7155C70.1684 75.752 70.0742 75.7707 69.979 75.7707Z" fill="#FFBE55"/>
<path d="M68.5291 64.7423C68.5341 64.7392 68.5403 64.7363 68.5454 64.7332L68.5412 62.749C68.5403 62.7603 68.531 62.7731 68.5291 62.7843V64.7423Z" fill="#5C546A"/>
<path d="M55.5 56.1975C57.1015 56.1975 58.3997 55.5484 58.3997 54.7477C58.3997 53.947 57.1015 53.2979 55.5 53.2979C53.8986 53.2979 52.6003 53.947 52.6003 54.7477C52.6003 55.5484 53.8986 56.1975 55.5 56.1975Z" fill="#D3D3D3"/>
</svg>
