<svg width="32" height="32" fill="none" xmlns="http://www.w3.org/2000/svg"><path d="M24.686 11.947a.486.486 0 0 0-.54-.479L7.727 13.401a.483.483 0 0 0-.426.48v4.35c0 1.907 5.468 2.416 8.699 2.416 3.23 0 8.7-.509 8.7-2.416v-.001l-.014-6.283Z" fill="#0B4870"/><path d="M24.686 13.398h-8.7v7.25H16c3.147 0 8.413-.484 8.686-2.27v-4.98Z" fill="#0B4870"/><path d="m30.405 9.279-12.367-4.24a6.31 6.31 0 0 0-4.076 0L1.595 9.278c-.595.204-.98.742-.98 1.371 0 .63.385 1.168.98 1.371l12.367 4.24A6.283 6.283 0 0 0 16 16.6a6.28 6.28 0 0 0 2.038-.338l12.367-4.24c.596-.204.98-.743.98-1.372a1.43 1.43 0 0 0-.98-1.371Z" fill="#0E538C"/><path d="M25.17 21.13a.483.483 0 0 1-.484-.482v-6.315a.484.484 0 0 0-.326-.458l-8.53-2.924a.484.484 0 0 1 .313-.914l8.53 2.924a1.45 1.45 0 0 1 .98 1.372v6.315a.483.483 0 0 1-.484.483Z" fill="#2A94F4"/><path d="M25.653 24.514h-.967a.483.483 0 0 1-.483-.483v-2.9a.966.966 0 1 1 1.933 0v2.9a.483.483 0 0 1-.483.483Z" fill="#FFBE55"/><path d="m24.686 17.161.01-.006-.002-1.323c0 .008-.007.017-.008.024v1.305Z" fill="#5C546A"/><path d="M16 11.465c1.068 0 1.933-.433 1.933-.967s-.865-.966-1.933-.966-1.933.432-1.933.966.865.967 1.933.967Z" fill="#D3D3D3"/></svg>