<svg width="32" height="32" fill="none" xmlns="http://www.w3.org/2000/svg"><path d="M13.415 1.846h-.492v1.231h.492c.8 0 1.477.677 1.477 1.477v5.477c0 3.2-2.4 5.969-5.6 6.154a5.968 5.968 0 0 1-6.4-5.97V4.554c0-.8.677-1.477 1.477-1.477h.493v-1.23h-.554C2.83 1.846 1.6 3.076 1.6 4.553v5.477c0 3.754 2.77 7.077 6.585 7.446 4.307.43 7.938-3.015 7.938-7.2V4.554a2.692 2.692 0 0 0-2.708-2.708Z" fill="#E6E6E5"/><path d="M16.185 8.738c-.185-.184-.431-.307-.677-.307h-.185c-.43.061-.8.492-.8.984v.739a5.647 5.647 0 0 1-5.662 5.661h-.369C5.538 15.631 3.2 13.046 3.2 9.97v-.615a.972.972 0 0 0-.985-.985.972.972 0 0 0-.984.985v.8A7.564 7.564 0 0 0 8.8 17.723c.246 0 .492 0 .738-.062 3.816-.369 6.831-3.753 6.831-7.753v-.554c.062-.185 0-.431-.184-.616Z" fill="#98D0F1"/><path d="M12.185 3.692a1.23 1.23 0 1 0 0-2.461 1.23 1.23 0 0 0 0 2.462Zm-6.647 0a1.23 1.23 0 1 0 0-2.461 1.23 1.23 0 0 0 0 2.462Z" fill="#676767"/><path d="M25.97 5.292a4.658 4.658 0 0 0-4.432 3.2c-.615-1.846-2.4-3.2-4.43-3.2A4.675 4.675 0 0 0 12.43 9.97c0 5.292 9.17 10.83 9.17 10.83s9.17-5.415 9.17-10.83a4.781 4.781 0 0 0-4.8-4.678Z" fill="#EC7B72"/><path d="M25.6 12.185v9.846c0 4.8-3.877 8.677-8.677 8.677a8.667 8.667 0 0 1-8.677-8.677v-4.308h1.23v4.308a7.433 7.433 0 0 0 7.447 7.446 7.433 7.433 0 0 0 7.446-7.446v-9.846h1.23Z" fill="#525252"/><path d="M24.923 15.63a3.323 3.323 0 1 0 0-6.646 3.323 3.323 0 0 0 0 6.646Z" fill="#E6E6E5"/><path d="M24.923 13.908a1.6 1.6 0 1 0 0-3.2 1.6 1.6 0 0 0 0 3.2Z" fill="#CDCCCC"/></svg>