<svg width="940" height="470" fill="none" xmlns="http://www.w3.org/2000/svg"><path d="m801.335 361.765 4.489-8.639a1.615 1.615 0 0 0-.008-1.485 1.606 1.606 0 0 0-1.222-.844l-9.7-1.239a1.6 1.6 0 0 1-1.364-1.315 1.606 1.606 0 0 1 .838-1.699l8.695-4.282a1.598 1.598 0 0 0 .357-2.601l-7.193-6.667a1.574 1.574 0 0 1-.372-1.867 1.572 1.572 0 0 1 1.696-.865l9.587 1.709a1.576 1.576 0 0 0 1.409-.454 1.572 1.572 0 0 0 .404-1.424l-1.982-9.616a1.57 1.57 0 0 1 1.792-1.883c.339.057.65.224.885.475l6.845 7.108a1.565 1.565 0 0 0 2.092.162c.203-.156.365-.36.471-.594l4-8.892a1.585 1.585 0 0 1 1.667-.899 1.577 1.577 0 0 1 1.329 1.349l1.455 9.719a1.6 1.6 0 0 0 2.348 1.174l8.451-4.77a1.59 1.59 0 0 1 1.882.263 1.596 1.596 0 0 1 .296 1.878l-4.479 8.648a1.615 1.615 0 0 0 .008 1.485c.121.229.295.425.508.571.213.147.458.241.714.272l9.663 1.184c.342.038.662.186.913.422a1.588 1.588 0 0 1 .334 1.881 1.595 1.595 0 0 1-.712.711l-8.705 4.282a1.598 1.598 0 0 0-.775 1.958c.087.241.23.459.419.633l7.23 6.639a1.574 1.574 0 0 1 .372 1.867 1.572 1.572 0 0 1-1.696.865l-9.597-1.718a1.572 1.572 0 0 0-1.402.459 1.566 1.566 0 0 0-.401 1.419l1.972 9.615a1.563 1.563 0 0 1-.802 1.711 1.565 1.565 0 0 1-1.864-.302l-6.827-7.061a1.57 1.57 0 0 0-2.092-.162c-.203.156-.365.36-.471.594l-4.001 8.892a1.58 1.58 0 0 1-1.669.89 1.59 1.59 0 0 1-.89-.449 1.59 1.59 0 0 1-.445-.892l-1.446-9.709a1.582 1.582 0 0 0-.861-1.202 1.58 1.58 0 0 0-1.478.028l-8.451 4.761a1.59 1.59 0 0 1-1.879-.231 1.602 1.602 0 0 1-.337-1.863Z" fill="#fff"/><path d="M817.355 372.094a2.304 2.304 0 0 1-2.292-1.972l-1.446-9.709a.927.927 0 0 0-.492-.647.93.93 0 0 0-.404-.102.93.93 0 0 0-.409.082l-8.451 4.77a2.325 2.325 0 0 1-3.089-.835 2.229 2.229 0 0 1-.066-2.245l4.479-8.648a.865.865 0 0 0 0-.826.934.934 0 0 0-.685-.479l-9.672-1.183a2.264 2.264 0 0 1-1.991-1.878 2.233 2.233 0 0 1 1.24-2.432l8.695-4.282a.836.836 0 0 0 .47-.657.882.882 0 0 0-.282-.798l-7.193-6.667a2.287 2.287 0 0 1-.592-2.536 2.22 2.22 0 0 1 2.517-1.408l9.597 1.718a.865.865 0 0 0 .817-.3.944.944 0 0 0 .169-.742l-1.972-9.615a2.265 2.265 0 0 1 .45-1.878 2.339 2.339 0 0 1 1.679-.81 2.351 2.351 0 0 1 1.739.669l6.827 7.07a.939.939 0 0 0 .629.273.84.84 0 0 0 .779-.507l4-8.893a2.236 2.236 0 0 1 2.057-1.333 2.314 2.314 0 0 1 2.291 1.972l1.446 9.709a.867.867 0 0 0 .472.675.877.877 0 0 0 .824-.018l8.451-4.76a2.31 2.31 0 0 1 3.08.835 2.24 2.24 0 0 1 .075 2.245l-4.479 8.582a.887.887 0 0 0 0 .826.865.865 0 0 0 .685.479l9.663 1.183a2.266 2.266 0 0 1 2 1.878 2.233 2.233 0 0 1-1.24 2.432l-8.704 4.31a.9.9 0 0 0-.313.268.897.897 0 0 0-.157.38.95.95 0 0 0 .282.799l7.202 6.676a2.262 2.262 0 0 1 .582 2.535 2.22 2.22 0 0 1-2.507 1.409l-9.596-1.719a.835.835 0 0 0-.817.301.869.869 0 0 0-.179.732l1.982 9.625a2.235 2.235 0 0 1-.451 1.878 2.344 2.344 0 0 1-2.618.658 2.34 2.34 0 0 1-.8-.517l-6.827-7.062a.86.86 0 0 0-.771-.261.857.857 0 0 0-.647.496l-4 8.893a2.226 2.226 0 0 1-2.037 1.361Zm-4.62-13.869a2.333 2.333 0 0 1 2.282 1.972l1.474 9.709a.863.863 0 0 0 .892.77.818.818 0 0 0 .77-.507l4-8.892a2.235 2.235 0 0 1 2.066-1.334 2.304 2.304 0 0 1 1.643.705l6.827 7.061a.857.857 0 0 0 .488.262.858.858 0 0 0 .928-.49.871.871 0 0 0 .058-.551l-1.981-9.616a2.334 2.334 0 0 1 .469-1.878 2.264 2.264 0 0 1 2.15-.798l9.597 1.718a.834.834 0 0 0 .939-.535.881.881 0 0 0-.235-.986l-7.202-6.676a2.309 2.309 0 0 1-.725-2.016 2.291 2.291 0 0 1 1.251-1.74l8.704-4.282a.848.848 0 0 0 .47-.939.939.939 0 0 0-.78-.751l-9.671-1.193a2.301 2.301 0 0 1-1.764-1.212 2.313 2.313 0 0 1-.011-2.14l4.489-8.648a.859.859 0 0 0 0-.873.877.877 0 0 0-1.184-.329l-8.451 4.761a2.3 2.3 0 0 1-1.108.291 2.32 2.32 0 0 1-2.281-1.972l-1.446-9.709a.877.877 0 0 0-.94-.77.82.82 0 0 0-.769.507l-4.001 8.883a2.24 2.24 0 0 1-2.065 1.343 2.285 2.285 0 0 1-1.644-.705l-6.826-7.061a.891.891 0 0 0-.658-.294.887.887 0 0 0-.657.294.836.836 0 0 0-.159.732l1.972 9.616a2.266 2.266 0 0 1-.461 1.878 2.234 2.234 0 0 1-2.159.798l-9.597-1.718a.846.846 0 0 0-.939.544.882.882 0 0 0 .235.986l7.193 6.667a2.314 2.314 0 0 1 .723 2.038 2.275 2.275 0 0 1-1.249 1.709l-8.695 4.281a.847.847 0 0 0-.47.939.866.866 0 0 0 .77.742l9.672 1.183a2.315 2.315 0 0 1 2.023 2.283c.001.372-.087.739-.258 1.07L801.955 362a.844.844 0 0 0 0 .864.886.886 0 0 0 1.193.338l8.451-4.761a2.195 2.195 0 0 1 1.136-.216ZM87.207 30.495a2.3 2.3 0 1 1-4.6 0 2.3 2.3 0 0 1 4.6 0Zm29.776 0a2.299 2.299 0 0 1-2.75 2.257 2.302 2.302 0 0 1-.829-4.17 2.3 2.3 0 0 1 1.278-.387 2.291 2.291 0 0 1 2.301 2.3Zm29.785 0a2.306 2.306 0 0 1-2.758 2.275 2.307 2.307 0 0 1-1.818-1.817 2.308 2.308 0 0 1 2.275-2.758 2.3 2.3 0 0 1 2.301 2.3Zm29.776 0a2.307 2.307 0 0 1-2.74 2.258 2.302 2.302 0 1 1 2.74-2.258Zm29.775 0a2.299 2.299 0 0 1-3.927 1.627 2.3 2.3 0 1 1 3.927-1.627ZM102.644 46.693a2.3 2.3 0 1 1-4.601-.018 2.3 2.3 0 0 1 4.601.018Zm29.682 0a2.3 2.3 0 1 1-4.601-.018 2.3 2.3 0 0 1 4.601.018Zm29.682 0a2.3 2.3 0 1 1-4.6-.019 2.3 2.3 0 0 1 4.6.02Zm29.682 0a2.302 2.302 0 0 1-4.558.436 2.296 2.296 0 0 1 .98-2.359 2.299 2.299 0 0 1 3.405 1.04c.115.28.174.58.173.883ZM87.207 68.797a2.3 2.3 0 1 1-4.6 0 2.3 2.3 0 0 1 4.6 0Zm29.776 0a2.299 2.299 0 0 1-2.75 2.257 2.303 2.303 0 0 1-1.807-1.808 2.3 2.3 0 1 1 4.557-.449Zm29.785 0a2.306 2.306 0 0 1-2.758 2.275 2.307 2.307 0 0 1-1.818-1.817 2.308 2.308 0 0 1 2.275-2.758 2.3 2.3 0 0 1 2.301 2.3Zm29.776 0a2.304 2.304 0 0 1-2.757 2.227 2.303 2.303 0 0 1-1.675-3.123 2.303 2.303 0 0 1 3.758-.759 2.306 2.306 0 0 1 .674 1.655Zm29.775 0a2.299 2.299 0 0 1-3.927 1.627 2.3 2.3 0 1 1 3.927-1.627Zm-103.675 16.16a2.305 2.305 0 0 1-2.75 2.256 2.3 2.3 0 1 1 2.75-2.256Zm29.682 0a2.299 2.299 0 0 1-3.927 1.627 2.3 2.3 0 1 1 3.927-1.627Zm29.682 0a2.299 2.299 0 0 1-3.927 1.627 2.3 2.3 0 1 1 3.927-1.627Zm29.682 0a2.299 2.299 0 0 1-2.75 2.257 2.302 2.302 0 0 1-.829-4.17 2.3 2.3 0 0 1 3.579 1.913ZM87.207 107.033a2.3 2.3 0 1 1-4.599 0 2.3 2.3 0 0 1 4.6 0Zm29.776 0a2.298 2.298 0 0 1-1.42 2.126 2.303 2.303 0 0 1-3.137-1.677 2.299 2.299 0 0 1 2.256-2.749 2.303 2.303 0 0 1 2.301 2.3Zm29.785 0a2.308 2.308 0 1 1-4.442-.879 2.311 2.311 0 0 1 3.768-.748c.431.432.674 1.017.674 1.627Zm29.776 0a2.298 2.298 0 0 1-1.421 2.126 2.303 2.303 0 0 1-3.136-1.677 2.3 2.3 0 1 1 4.557-.449Zm29.775 0a2.298 2.298 0 0 1-1.42 2.126 2.303 2.303 0 0 1-3.006-3.006 2.296 2.296 0 0 1 2.126-1.42 2.3 2.3 0 0 1 2.3 2.3Zm-103.675 16.226a2.305 2.305 0 0 1-1.42 2.126 2.299 2.299 0 0 1-2.507-.499 2.303 2.303 0 0 1 .349-3.54 2.299 2.299 0 0 1 2.904.286 2.3 2.3 0 0 1 .674 1.627Zm29.682 0a2.298 2.298 0 0 1-2.749 2.256 2.303 2.303 0 0 1-.83-4.169 2.3 2.3 0 0 1 2.905.286 2.3 2.3 0 0 1 .674 1.627Zm29.682 0a2.298 2.298 0 0 1-1.42 2.126 2.302 2.302 0 0 1-2.159-4.039 2.302 2.302 0 0 1 3.579 1.913Zm29.682 0a2.298 2.298 0 0 1-1.421 2.126 2.299 2.299 0 0 1-2.507-.499 2.302 2.302 0 1 1 3.928-1.627ZM87.207 145.297a2.297 2.297 0 0 1-1.433 2.112 2.294 2.294 0 0 1-2.5-.51 2.304 2.304 0 0 1-.491-2.505 2.301 2.301 0 0 1 4.424.903Zm29.776 0a2.3 2.3 0 0 1-2.761 2.236 2.306 2.306 0 0 1-1.797-1.812 2.295 2.295 0 0 1 2.257-2.743 2.298 2.298 0 0 1 1.636.678 2.278 2.278 0 0 1 .665 1.641Zm29.785 0c.002.458-.132.906-.386 1.287a2.306 2.306 0 0 1-3.557.356 2.306 2.306 0 0 1-.499-2.522 2.311 2.311 0 0 1 3.768-.747 2.3 2.3 0 0 1 .674 1.626Zm29.776 0a2.309 2.309 0 0 1-1.427 2.11 2.307 2.307 0 0 1-2.497-.498 2.299 2.299 0 0 1 .326-3.531 2.31 2.31 0 0 1 2.162-.231 2.283 2.283 0 0 1 1.263 1.258c.116.283.175.586.173.892Zm29.775 0a2.304 2.304 0 0 1-1.42 2.126 2.299 2.299 0 0 1-3.137-1.677 2.294 2.294 0 0 1 .979-2.361 2.298 2.298 0 0 1 3.578 1.912Zm-103.675 16.198a2.305 2.305 0 0 1-1.42 2.126 2.301 2.301 0 1 1 1.42-2.126Zm29.682 0a2.298 2.298 0 0 1-1.42 2.126 2.295 2.295 0 0 1-3.137-1.677 2.299 2.299 0 0 1 2.256-2.749 2.3 2.3 0 0 1 2.301 2.3Zm29.682 0a2.298 2.298 0 0 1-1.42 2.126 2.296 2.296 0 0 1-3.137-1.677 2.299 2.299 0 0 1 2.256-2.749 2.302 2.302 0 0 1 2.301 2.3Zm29.682 0a2.298 2.298 0 0 1-1.421 2.126 2.303 2.303 0 0 1-3.136-1.677 2.3 2.3 0 1 1 4.557-.449ZM87.207 183.571a2.301 2.301 0 1 1-4.602-.018 2.301 2.301 0 0 1 4.602.018Zm29.776 0a2.302 2.302 0 0 1-4.558.436 2.296 2.296 0 0 1 .98-2.359 2.304 2.304 0 0 1 2.907.29 2.303 2.303 0 0 1 .671 1.633Zm29.785 0a2.311 2.311 0 0 1-4.577.445 2.31 2.31 0 0 1 3.159-2.579 2.294 2.294 0 0 1 1.245 1.251c.115.28.174.58.173.883Zm29.776 0a2.302 2.302 0 1 1-4.426-.892 2.31 2.31 0 0 1 2.125-1.418 2.307 2.307 0 0 1 1.63.677 2.303 2.303 0 0 1 .671 1.633Zm29.775 0a2.301 2.301 0 1 1-4.602-.017 2.301 2.301 0 0 1 4.602.017Zm-103.675 16.188c0 .455-.135.9-.387 1.279a2.306 2.306 0 0 1-2.362.978 2.301 2.301 0 1 1 2.749-2.257Zm29.682 0a2.304 2.304 0 0 1-1.42 2.126 2.3 2.3 0 1 1 1.42-2.126Zm29.682 0a2.304 2.304 0 0 1-2.75 2.257 2.296 2.296 0 0 1-1.807-1.808 2.299 2.299 0 0 1 3.883-2.075 2.3 2.3 0 0 1 .674 1.626Zm29.682 0a2.304 2.304 0 0 1-2.75 2.257 2.303 2.303 0 0 1-1.807-1.808 2.298 2.298 0 0 1 2.256-2.749 2.3 2.3 0 0 1 2.301 2.3Zm708.898 246.384H39.422v1.409h861.166v-1.409Z" fill="#231D24"/><path d="M153.848 57.116h632.304a27.746 27.746 0 0 1 27.738 27.738v289.738a27.755 27.755 0 0 1-8.127 19.62 27.75 27.75 0 0 1-19.62 8.127H153.848a27.74 27.74 0 0 1-27.738-27.738V84.854a27.737 27.737 0 0 1 27.738-27.738Z" fill="#231D24"/><path d="M786.152 403.081H153.848a28.48 28.48 0 0 1-28.461-28.489V84.854a28.483 28.483 0 0 1 28.442-28.442h632.323a28.482 28.482 0 0 1 28.461 28.442v289.738a28.482 28.482 0 0 1-28.461 28.489ZM153.848 57.821a27.066 27.066 0 0 0-27.034 27.033v289.738a27.063 27.063 0 0 0 27.034 27.043h632.304a27.063 27.063 0 0 0 27.034-27.043V84.854a27.062 27.062 0 0 0-27.034-27.034H153.848Z" fill="#231D24"/><path d="m141.491 253.498-4.874 12.113-12 5.118-12.113-4.864-5.127-12.01 4.873-12.113 12.01-5.118 12.113 4.864 5.118 12.01Z" fill="#FCF34C"/><path d="M124.617 271.433a.814.814 0 0 1-.263-.047l-12.113-4.873a.687.687 0 0 1-.385-.376l-5.127-12.009a.71.71 0 0 1 0-.536l4.874-12.113a.654.654 0 0 1 .375-.385l12.001-5.155a.73.73 0 0 1 .544 0l12.113 4.874a.71.71 0 0 1 .385.375l5.118 12.01c.07.172.07.364 0 .535l-4.874 12.113a.71.71 0 0 1-.375.385l-12.01 5.118a.66.66 0 0 1-.263.084Zm-11.578-6.122 11.569 4.695 11.465-4.958 4.695-11.568-4.892-11.475-11.569-4.695-11.474 4.892-4.695 11.569 4.901 11.54Z" fill="#231D24"/><path d="M319.075 381.484s-2.695-35.194-41.889-38.114c0 .038 6.948 40.086 41.889 38.114Z" fill="#fff"/><path d="M316.652 382.291c-33.043 0-40.086-38.376-40.152-38.761a.68.68 0 0 1 .169-.592.757.757 0 0 1 .573-.235c39.344 2.93 42.518 38.405 42.518 38.781a.702.702 0 0 1-.399.693.702.702 0 0 1-.267.068c-.808.028-1.634.046-2.442.046Zm-38.583-38.104c1.277 5.718 9.521 36.696 38.583 36.696h1.634c-.667-4.977-6.038-33.644-40.217-36.696Z" fill="#231D24"/><path d="m290.046 354.278-.946 1.044 29.497 26.699.945-1.044-29.496-26.699Z" fill="#231D24"/><path d="M323.403 381.484s2.695-35.194 41.889-38.114c0 .038-6.948 40.086-41.889 38.114Z" fill="#fff"/><path d="M325.826 382.291c-.808 0-1.634 0-2.46-.065a.68.68 0 0 1-.488-.235.705.705 0 0 1-.179-.526c0-.357 3.193-35.832 42.537-38.762a.754.754 0 0 1 .573.235.672.672 0 0 1 .169.592c-.066.394-7.109 38.761-40.152 38.761Zm-1.634-1.436h1.634c29.109 0 37.306-30.987 38.584-36.696-34.18 3.08-39.551 31.747-40.218 36.696Z" fill="#231D24"/><path d="m352.422 354.248-29.482 26.715.946 1.044 29.482-26.715-.946-1.044Z" fill="#231D24"/><path d="M321.347 333.501s6.639-24.555-19.278-35.964c0 0-4.92 28.875 19.278 35.964Z" fill="#fff"/><path d="M321.347 334.206h-.197c-24.518-7.184-19.832-36.471-19.776-36.762a.685.685 0 0 1 .357-.498.724.724 0 0 1 .62 0c26.17 11.522 19.719 36.546 19.719 36.799a.682.682 0 0 1-.338.423.614.614 0 0 1-.385.038Zm-18.705-35.682c-.554 4.864-1.972 27.606 18.188 34.048.864-4.029 3.794-23.795-18.188-34.011v-.037Z" fill="#231D24"/><path d="m308.355 307.949-1.24.669 13.609 25.232 1.24-.669-13.609-25.232Z" fill="#231D24"/><path d="M321.488 352.009s-2.216-25.353 25.353-32.011c-.038 0-.282 29.287-25.353 32.011Z" fill="#fff"/><path d="M321.488 352.713a.685.685 0 0 1-.442-.159.665.665 0 0 1-.253-.479c0-.263-1.953-26.02 25.841-32.762a.72.72 0 0 1 .601.131.75.75 0 0 1 .272.564c0 .3-.544 29.945-25.944 32.705h-.075Zm24.564-31.794c-23.137 6.113-23.963 26.207-23.888 30.301 20.977-2.798 23.569-25.428 23.888-30.301Z" fill="#231D24"/><path d="m338.787 329.146-17.846 22.436 1.103.877 17.846-22.436-1.103-.877Z" fill="#231D24"/><path d="M350.587 381.803h-54.631v5.822h54.631v-5.822Z" fill="#fff"/><path d="M350.587 388.329h-54.631a.704.704 0 0 1-.704-.704v-5.822a.706.706 0 0 1 .704-.704h54.631a.713.713 0 0 1 .704.704v5.822a.712.712 0 0 1-.704.704Zm-53.927-1.408h53.223v-4.413H296.66v4.413Z" fill="#231D24"/><path d="M333.901 446.848h-21.268l-13.428-59.251h48.133l-13.437 59.251Z" fill="#fff"/><path d="M333.901 447.552h-21.268a.712.712 0 0 1-.685-.554l-13.438-59.241a.739.739 0 0 1 .007-.314.737.737 0 0 1 .384-.476.717.717 0 0 1 .304-.074h48.133a.687.687 0 0 1 .545.272.683.683 0 0 1 .141.592l-13.437 59.241a.707.707 0 0 1-.686.554Zm-20.714-1.408h20.142l13.146-57.843h-46.434l13.146 57.843Z" fill="#231D24"/><path d="m299.205 387.597 1.371 4.253h39.382l-7.587 54.998h1.53l13.437-59.251h-48.133Z" fill="#231D24"/><path d="M333.901 447.552h-1.53a.702.702 0 0 1-.526-.244.68.68 0 0 1-.169-.563l7.512-54.19h-38.612a.701.701 0 0 1-.667-.488l-1.38-4.245a.74.74 0 0 1 .103-.638.734.734 0 0 1 .573-.291h48.133a.687.687 0 0 1 .545.272.683.683 0 0 1 .141.592l-13.437 59.241a.703.703 0 0 1-.686.554Zm-.723-1.408h.16l13.146-57.843h-46.312l.939 2.817h38.866a.71.71 0 0 1 .535.244.748.748 0 0 1 .169.554l-7.503 54.228Z" fill="#231D24"/><path d="M321.938 332.421h-1.408v49.157h1.408v-49.157Z" fill="#fff"/><path d="M300.604 429.505c-4.779 0-7.136-3.099-9.39-6.104-2.169-2.817-4.216-5.54-8.291-5.54s-6.123 2.685-8.292 5.54c-2.281 3.005-4.638 6.104-9.39 6.104-4.751 0-7.127-3.099-9.39-6.104-2.169-2.817-4.216-5.54-8.291-5.54s-6.122 2.685-8.291 5.54c-2.282 3.005-4.639 6.104-9.39 6.104-4.752 0-7.137-3.099-9.39-6.104-2.169-2.817-4.216-5.54-8.292-5.54-4.075 0-6.122 2.685-8.291 5.54-2.282 3.005-4.639 6.104-9.39 6.104s-7.136-3.099-9.39-6.104c-2.16-2.817-4.207-5.54-8.282-5.54s-6.122 2.685-8.291 5.54c-2.282 3.005-4.639 6.104-9.39 6.104-4.752 0-7.137-3.099-9.39-6.104-2.17-2.817-4.217-5.54-8.292-5.54v-1.409c4.77 0 7.127 3.099 9.39 6.095 2.169 2.817 4.216 5.549 8.292 5.549 4.075 0 6.122-2.695 8.291-5.549 2.272-2.996 4.629-6.095 9.39-6.095 4.761 0 7.127 3.099 9.39 6.095 2.169 2.817 4.216 5.549 8.291 5.549 4.076 0 6.123-2.695 8.292-5.549 2.272-2.996 4.629-6.095 9.39-6.095 4.76 0 7.127 3.099 9.39 6.095 2.169 2.817 4.216 5.549 8.291 5.549s6.122-2.695 8.291-5.549c2.273-2.996 4.63-6.095 9.39-6.095 4.761 0 7.127 3.099 9.39 6.095 2.17 2.817 4.217 5.549 8.292 5.549s6.131-2.695 8.291-5.549c2.282-2.996 4.639-6.095 9.39-6.095 4.752 0 7.137 3.099 9.39 6.095 2.169 2.817 4.216 5.549 8.301 5.549s6.122-2.695 8.291-5.549c2.282-2.996 4.639-6.095 9.39-6.095v1.409c-4.075 0-6.122 2.685-8.291 5.54-2.282 3.005-4.639 6.104-9.409 6.104Z" fill="#231D24"/><path d="M207.534 157.373c12.587-5.118 18.64-19.471 13.522-32.057-5.118-12.586-19.471-18.64-32.057-13.521-12.586 5.118-18.64 19.47-13.522 32.057 5.119 12.586 19.471 18.64 32.057 13.521Z" fill="#FB8500"/><path d="M198.263 159.88a25.307 25.307 0 1 1 25.306-25.306 25.351 25.351 0 0 1-25.306 25.306Zm0-49.194a23.9 23.9 0 0 0-23.438 28.563 23.9 23.9 0 0 0 18.781 18.774 23.899 23.899 0 0 0 28.554-23.449 23.917 23.917 0 0 0-23.897-23.86v-.028Z" fill="#231D24"/><path d="m210.291 136.02-3.23.601a8.327 8.327 0 0 0-6.648 6.573l-.798 3.906a1.214 1.214 0 0 1-1.93.671 1.217 1.217 0 0 1-.427-.671l-.939-4.178a8.344 8.344 0 0 0-6.573-6.273l-3.474-.657a1.2 1.2 0 0 1-.744-1.888c.16-.219.389-.378.65-.45l3.577-.996a8.318 8.318 0 0 0 5.738-5.577l1.558-5.024a1.2 1.2 0 0 1 1.18-.838 1.205 1.205 0 0 1 1.13.904l1.099 4.47a8.345 8.345 0 0 0 6.028 6.084l3.916 1.005a1.2 1.2 0 0 1-.113 2.338Z" fill="#231D24"/><path d="M198.432 148.715a1.875 1.875 0 0 1-1.878-1.464l-.986-4.179a7.624 7.624 0 0 0-6.01-5.737l-3.474-.658a1.875 1.875 0 0 1-1.666-1.79 1.88 1.88 0 0 1 1.516-1.919l3.577-.995a7.614 7.614 0 0 0 5.249-5.108l1.559-5.024a1.876 1.876 0 0 1 1.877-1.433 1.874 1.874 0 0 1 1.794 1.537l1.099 4.469a7.633 7.633 0 0 0 5.521 5.578l3.916.995a1.881 1.881 0 0 1 1.216 3.253 1.881 1.881 0 0 1-1.348.503l-3.23.601a7.6 7.6 0 0 0-6.084 5.972l-.799 3.906a1.875 1.875 0 0 1-1.849 1.493Zm-.273-26.817a.49.49 0 0 0-.479.356l-1.549 5.033a8.995 8.995 0 0 1-6.225 6.038l-3.578.996a.484.484 0 0 0-.366.507.47.47 0 0 0 .403.46l3.475.657a9.049 9.049 0 0 1 7.117 6.808l.986 4.178a.497.497 0 0 0 .939 0l.799-3.906a9.009 9.009 0 0 1 7.211-7.08l3.23-.601a.496.496 0 0 0 .241-.757.496.496 0 0 0-.241-.182l-3.906-1.005a9 9 0 0 1-6.573-6.573l-1.014-4.507a.48.48 0 0 0-.47-.422Z" fill="#fff"/><g filter="url(#a)"><path d="M140.11 139.222h-1.408V84.666a15.72 15.72 0 0 1 15.7-15.7h58.312v1.409h-58.312a14.309 14.309 0 0 0-14.292 14.291v54.556Zm661.188 0h-1.409V84.666a14.31 14.31 0 0 0-14.291-14.291h-66.406v-1.409h66.406a15.718 15.718 0 0 1 15.7 15.7v54.556Zm-15.7 250.234h-58.312v-1.399h58.312a14.31 14.31 0 0 0 14.291-14.292v-54.602h1.409v54.593a15.72 15.72 0 0 1-15.7 15.7Zm-564.79 0h-66.406a15.72 15.72 0 0 1-15.7-15.7v-54.593h1.408v54.593a14.312 14.312 0 0 0 14.292 14.301h66.406v1.399Zm159.564-189.894a11.916 11.916 0 0 1 11.897-11.897h5.428v-6.573h-5.428a18.489 18.489 0 0 0-18.47 18.47v4.367h6.573v-4.367Z" fill="#fff"/></g><path d="M381.077 204.633h-7.982v-5.071a19.193 19.193 0 0 1 19.175-19.174h6.132v7.981h-6.132a11.204 11.204 0 0 0-11.193 11.193v5.071Zm-6.573-1.409h5.164v-3.662a12.61 12.61 0 0 1 12.602-12.601h4.695v-5.165h-4.695a17.789 17.789 0 0 0-17.766 17.766v3.662Z" fill="#231D24"/><path d="M547.731 181.092h-7.7v6.573h7.7a11.917 11.917 0 0 1 11.897 11.897v4.367h6.573v-4.367a18.49 18.49 0 0 0-18.47-18.47Z" fill="#fff"/><path d="M566.905 204.633h-7.982v-5.071a11.202 11.202 0 0 0-11.193-11.193h-8.404v-7.981h8.404a19.197 19.197 0 0 1 19.175 19.174v5.071Zm-6.573-1.409h5.164v-3.662a17.785 17.785 0 0 0-17.766-17.766h-6.995v5.165h6.995a12.61 12.61 0 0 1 12.602 12.601v3.662Z" fill="#231D24"/><path d="M559.628 258.869a11.916 11.916 0 0 1-11.898 11.897h-5.427v6.573h5.427a18.5 18.5 0 0 0 18.471-18.47v-4.376h-6.573v4.376Z" fill="#fff"/><g filter="url(#b)"><path d="M792.368 327.134a132.82 132.82 0 0 0-129.623 5.184 132.816 132.816 0 0 0-63.37 113.196l265.597 1.277a132.784 132.784 0 0 0-72.604-119.657Z" fill="#FCF34C"/></g><mask id="c" style="mask-type:luminance" maskUnits="userSpaceOnUse" x="126" y="57" width="688" height="343"><path d="M153.848 57.116h632.304a27.746 27.746 0 0 1 27.738 27.738v286.583a27.746 27.746 0 0 1-27.747 27.747H153.848a27.74 27.74 0 0 1-27.738-27.738V84.854a27.751 27.751 0 0 1 27.738-27.738Z" fill="#fff"/></mask><g mask="url(#c)"><path d="M430.111 253.724c0 27.803-15.287 115.6-9.052 171.283h-46.734s5.944-57.279 5.944-89.337c0-25.991-13.193-68.922 2.385-103.938 20.123-45.241 47.457-10.291 47.457 21.992Z" fill="#FB8500"/><path d="M421.848 425.711h-48.312l.085-.779c.056-.573 5.944-57.599 5.944-89.262 0-7.38-1.089-16.31-2.244-25.756-2.902-23.738-6.517-53.279 4.695-78.473 8.084-18.188 16.695-22.01 22.479-22.01 14.827 0 26.292 23.813 26.292 44.293 0 9.221-1.709 25.296-3.681 43.907-4.028 38.011-9.54 90.069-5.38 127.291l.122.789Zm-46.743-1.408h45.128c-4.019-37.326 1.455-89.008 5.465-126.765 1.972-18.583 3.671-34.621 3.671-43.767 0-22.039-12.103-42.884-24.911-42.884-7.7 0-15.024 7.324-21.194 21.174-11.052 24.837-7.465 54.162-4.582 77.73 1.155 9.494 2.254 18.461 2.254 25.926.037 29.663-5.127 81.609-5.831 88.586Z" fill="#231D24"/><path d="M457.558 249.676c4.836 19.992 10.076 87.881 10.076 87.881s35.156 19.588 68.678 64.491c0 0 .272 23.869-22.865 26.367a25.796 25.796 0 0 1-19.381-6.028l-63.504-71.308s-28.893-47.034-25.071-96.36c3.821-49.326 44.461-36.415 52.067-5.043Z" fill="#FB8500"/><path d="M510.715 429.27a26.38 26.38 0 0 1-17.137-6.367l-63.598-71.364v-.047c-.291-.479-28.959-47.804-25.165-96.829 1.624-20.978 10.46-33.495 23.625-33.495s25.907 12.207 29.822 28.386c4.62 19.053 9.644 82.163 10.066 87.619 3.672 2.14 37.072 22.291 68.547 64.49l.132.188v.225c0 .244 0 24.536-23.475 27.081-.936.089-1.877.127-2.817.113Zm-79.599-78.604 63.476 71.251a24.871 24.871 0 0 0 18.78 5.803c21.062-2.281 22.17-23.052 22.226-25.447-32.987-44.133-67.964-63.908-68.312-64.096l-.328-.188v-.375c-.057-.676-5.287-68.059-10.057-87.768-3.709-15.316-16.207-27.307-28.461-27.307-12.254 0-20.658 12.038-22.217 32.199-3.737 47.87 23.794 94.106 24.893 95.928Z" fill="#231D24"/><path d="m531.392 414.602-75.017-71.364a3.75 3.75 0 0 1-1.127-2.187l-11.427-79.102 7.427-1.07 11.268 77.815 74.068 70.425-5.192 5.483ZM423.914 145.034c1.014-6.789 7.512-11.981 4.854-23.522-1.878-8.451-9.577-16.028-18.254-16.723-10.282-.827-20.094 7.596-18.714 16.817 1.277 8.526-7.155 5.24-9.888 20.931-2.009 11.587 2.244 13.005 2.629 20.301.827 15.296-16.639 15.08-17.296 28.836 5.69 5.118 44.471 8.179 58.725 1.146 0 0-7.869-10.733-1.803-21.963 8.348-15.437-1.267-19.034-.253-25.823Z" fill="#231D24"/><path d="M399.453 197.637c-13.09 0-28.893-2.037-32.677-5.436l-.254-.226v-.338c.329-6.864 4.695-10.413 8.846-13.841 4.554-3.756 8.864-7.268 8.451-14.92a20.513 20.513 0 0 0-1.493-6.386c-1.193-3.267-2.414-6.657-1.127-14.085 1.502-8.657 4.77-11.756 7.155-14.019 2.038-1.934 3.268-3.108 2.732-6.686a13.823 13.823 0 0 1 3.512-11.08 19.244 19.244 0 0 1 15.963-6.573c8.695.704 16.808 8.123 18.884 17.268 1.784 7.85-.517 12.865-2.545 17.287a24.647 24.647 0 0 0-2.301 6.498c-.309 2.113.517 3.925 1.484 6.029 1.944 4.253 4.366 9.54-1.305 20.029-5.784 10.714 1.681 21.099 1.756 21.202l.488.676-.751.376c-7.371 3.681-19.963 4.225-26.818 4.225Zm-31.485-6.282c3.568 2.705 17.456 4.874 31.485 4.874 11.099 0 20.095-1.315 25.484-3.7-1.633-2.638-6.695-12.207-1.389-22.001 5.305-9.793 3.174-14.601 1.258-18.78-1.005-2.216-1.963-4.31-1.587-6.826a25.537 25.537 0 0 1 2.404-6.874c2.038-4.432 4.131-9.005 2.46-16.395-1.878-8.451-9.653-15.531-17.625-16.169a17.84 17.84 0 0 0-14.77 6.056 12.39 12.39 0 0 0-3.193 9.944c.648 4.31-1.117 5.991-3.155 7.926-2.366 2.244-5.305 5.042-6.733 13.239-1.23 7.052-.065 10.254 1.061 13.353a21.718 21.718 0 0 1 1.578 6.789c.451 8.367-4.338 12.292-8.968 16.085-4.056 3.334-7.887 6.47-8.31 12.479Zm119.873 38.452c1.362 4.545-.066 17.287 2.291 17.456 1.578.123 2.648-6.723 3.061-5.793 3.043 6.92 6.151 14.151 7.709 13.052.874-.62-3.99-10.564-2.619-10.911 5.343-1.343 1.878-3.521 4.338-6.367 4.038-4.629-2.977-8.347-8.226-14.301-5.249-5.953-14.47-33.034-27.982-46.011-10.676-10.244-21.757 4.583-21.757 4.583l8.827 8.451c7.69 16.864 30.846 28.282 34.358 39.841Z" fill="#fff"/><path d="M500.518 255.329c-1.803 0-3.663-3.756-7.419-12.207 0 .075-.046.151-.065.226-.845 2.723-1.55 4.648-2.892 4.648-2-.151-2.169-3.559-2.31-9.578-.066-3.23-.151-6.573-.695-8.395-1.606-5.361-7.888-10.948-14.536-16.902-7.334-6.526-15.634-13.916-19.719-22.714l-8.733-8.385a.718.718 0 0 1-.075-.939c.263-.348 6.423-8.451 14.217-8.451a12.263 12.263 0 0 1 8.592 3.756c8.695 8.347 15.7 22.62 20.827 33.043 2.873 5.85 5.352 10.911 7.192 12.996 1.324 1.502 2.752 2.817 4.123 4.15 3.887 3.662 7.559 7.127 4.103 11.08a3.693 3.693 0 0 0-.883 2.658c-.056 1.709-.347 2.995-3.53 3.859a29.954 29.954 0 0 0 1.549 5.099c1.418 3.934 1.831 5.202 1.024 5.775-.219.176-.49.275-.77.281Zm-7.456-14.648a.792.792 0 0 1 .732.507l.357.808c1.878 4.31 4.695 10.657 6.066 11.765a38.51 38.51 0 0 0-1.296-3.962c-1.361-3.756-1.878-5.54-1.465-6.376a.95.95 0 0 1 .62-.498c2.676-.667 2.704-1.361 2.742-2.61a4.971 4.971 0 0 1 1.23-3.531c2.451-2.817.31-5.061-4.009-9.136-1.4-1.324-2.817-2.686-4.207-4.235-1.972-2.235-4.366-7.127-7.409-13.315-5.07-10.329-12.019-24.471-20.536-32.649a10.912 10.912 0 0 0-7.615-3.409c-6.047 0-11.268 5.709-12.695 7.428l8.357 8.037a.704.704 0 0 1 .15.216c3.953 8.583 12.207 15.907 19.447 22.367 7.089 6.31 13.221 11.766 14.949 17.513.601 2.009.676 5.446.751 8.761.065 2.91.178 7.784.939 8.206.45-.225 1.23-2.713 1.521-3.652.507-1.625.695-2.235 1.371-2.235Z" fill="#231D24"/><path d="M352.315 144.781c-11.418-4.338-59.091-15.738-63.852-25.672-4.76-9.935-8.357-5.362-8.939-9.39-.582-4.029-2.892-2.057-3.033-.085-.141 1.972.873 4.695 1.474 5.174a34.73 34.73 0 0 0-5.868-1.662s-1.146-6.46-3.109-5.268c-1.962 1.193-2.084 2.338-1.07 5.184 1.014 2.845-.535 2.817.667 4.225 0 0-1.446 2.648-.705 4.751a8.62 8.62 0 0 1-.338 2.996c-1.821 4.498 11.456 8.047 16.32 10.019 15.813 6.394 32.011 18.461 61.974 30.592 7.972 3.231 37.325 7.193 37.325 7.193l7.954-23.475-38.8-4.582Z" fill="#fff"/><path d="M383.143 173.552h-.094c-1.202-.16-29.532-4.01-37.495-7.231-17.399-7.042-30.423-14.207-40.893-19.963-7.766-4.272-14.479-7.962-21.09-10.639-.873-.347-2-.751-3.305-1.211-5.315-1.878-11.926-4.207-13.343-7.352a2.896 2.896 0 0 1-.057-2.367 7.72 7.72 0 0 0 .291-2.601 7.215 7.215 0 0 1 .573-4.798 2.027 2.027 0 0 1-.272-1.765 3.635 3.635 0 0 0-.235-2.31c-1.023-2.883-1.08-4.517 1.371-6.019.253-.159.546-.244.845-.244 1.878 0 2.817 3.512 3.23 5.484 1.273.259 2.528.601 3.756 1.023a10.251 10.251 0 0 1-.676-3.963c.103-1.37 1.089-2.91 2.357-2.91.751 0 1.728.516 2.085 2.948.169 1.183.516 1.296 1.549 1.615 1.718.535 4.329 1.343 7.324 7.512 3.465 7.23 32.236 15.766 49.476 20.93 5.953 1.775 11.108 3.315 13.991 4.395l38.696 4.573a.684.684 0 0 1 .507.319.713.713 0 0 1 .076.601l-7.954 23.475a.71.71 0 0 1-.713.498Zm-113.704-65.101a.24.24 0 0 0-.113 0c-1.493.939-1.765 1.568-.779 4.347.412.969.514 2.042.291 3.071-.094.432-.113.516.254.939a.716.716 0 0 1 .084.789s-1.286 2.404-.657 4.178a.502.502 0 0 1 0 .197 9.033 9.033 0 0 1-.385 3.296 1.519 1.519 0 0 0 0 1.259c1.174 2.601 8 5.014 12.526 6.573 1.324.469 2.46.873 3.362 1.23 6.695 2.713 13.437 6.413 21.24 10.704 11.052 6.113 23.503 12.968 40.79 19.973 7.193 2.901 32.433 6.488 36.621 7.061l7.512-22.113-37.917-4.479h-.169c-2.817-1.071-7.981-2.611-13.972-4.395-19.644-5.859-46.556-13.878-50.284-21.597-2.732-5.634-4.986-6.366-6.479-6.826-1.145-.357-2.234-.695-2.526-2.752-.206-1.436-.6-1.746-.685-1.746-.282 0-.883.732-.939 1.605a8.343 8.343 0 0 0 1.211 4.583.704.704 0 0 1 .151.892.677.677 0 0 1-.836.31 35.36 35.36 0 0 0-5.7-1.615.716.716 0 0 1-.62-.583c-.488-2.751-1.493-4.901-1.981-4.901Z" fill="#231D24"/><path d="m442.976 181.984 4.497 4.883c16.442-.404 22.133-16.724 22.133-16.724l-17.55-16.986c-6.414-6.207-12.32-2.902-21.062-4.695-16.695-3.503-17.24-2.573-41.776-2.658-15.212-.047-21.991-1.418-32.518-2.272l-1.436 30.048 25.747 2.695c-.526 10.827-14.62 86.81-14.62 86.81 67.204 10.189 102.745 3.259 102.745 3.259-24.489-35.682-26.16-84.36-26.16-84.36Z" fill="#fff"/><path d="M434.458 269.33a459.412 459.412 0 0 1-68.162-5.568.722.722 0 0 1-.469-.291.677.677 0 0 1-.113-.536c.132-.741 13.569-73.242 14.555-86.05l-25.072-2.629a.704.704 0 0 1-.629-.732l1.437-30.048a.745.745 0 0 1 .244-.498.704.704 0 0 1 .526-.169c3.061.254 5.85.545 8.545.836a202.23 202.23 0 0 0 23.926 1.418h12.413c12.968-.075 16.104-.113 29.504 2.695 2.682.505 5.412.723 8.141.648 4.77 0 8.892.047 13.268 4.281l17.55 16.978a.722.722 0 0 1 .178.741c-.056.169-6.047 16.78-22.78 17.193a.709.709 0 0 1-.535-.225l-3.165-3.437c.639 9.39 4.583 50.941 25.926 82.013a.7.7 0 0 1-.441 1.089c-.15 0-12.17 2.291-34.847 2.291Zm-67.241-6.855a455.804 455.804 0 0 0 67.232 5.446c18.78 0 30.104-1.568 33.485-2.112-23.748-35.335-25.654-83.318-25.672-83.797a.697.697 0 0 1 .11-.407.697.697 0 0 1 .744-.31c.14.031.268.105.366.21l4.282 4.648c14.085-.535 19.991-13.343 21.006-15.822l-17.212-16.667c-3.972-3.841-7.644-3.85-12.301-3.878a39.983 39.983 0 0 1-8.451-.676c-13.287-2.817-16.395-2.742-29.213-2.667-3.371 0-7.389.047-12.422 0a206.22 206.22 0 0 1-24.058-1.446 360.009 360.009 0 0 0-7.784-.77l-1.38 28.668 25.09 2.629a.706.706 0 0 1 .629.732c-.451 10.348-12.93 78.003-14.451 86.219Z" fill="#231D24"/><path d="M408.205 127.691s-7.644-8.62-11.099-7.512c-3.456 1.108-6.001 2.413-6.16 6.733a12.13 12.13 0 0 0 1.671 7.615s-2.817 5.728 4.263 9.587a8.036 8.036 0 0 0 9.39-.939l1.334 6.423a3.756 3.756 0 0 0 4.648 2.892 5.228 5.228 0 0 0 3.756-6.357l-2.817-11.268s2.685-.836 1.587-5.23c-1.099-4.395-3.935-3.559-6.573-1.944Z" fill="#fff"/><path d="M411.303 153.251a4.5 4.5 0 0 1-4.394-3.578l-1.118-5.343a8.693 8.693 0 0 1-9.249.357c-6.516-3.549-5.23-8.714-4.695-10.141a12.793 12.793 0 0 1-1.577-7.785c.169-4.911 3.38-6.3 6.648-7.305.273-.085.559-.126.845-.122 3.484 0 8.996 5.709 10.601 7.512a7.086 7.086 0 0 1 3.39-1.108c1.831 0 3.071 1.258 3.7 3.756.939 3.606-.564 5.164-1.456 5.756l2.723 10.695a5.945 5.945 0 0 1-4.291 7.221c-.37.076-.749.104-1.127.085Zm-4.591-11.419 1.577 7.559a3.087 3.087 0 0 0 3.775 2.357 4.534 4.534 0 0 0 3.268-5.512l-3.024-11.869.639-.197c.075 0 2.028-.751 1.117-4.394-.601-2.404-1.615-2.677-2.329-2.677a6.58 6.58 0 0 0-3.164 1.202l-.507.301-.385-.441c-1.831-2.066-7.184-7.419-9.935-7.419a1.504 1.504 0 0 0-.432.057c-3.568 1.098-5.53 2.394-5.634 6.094a11.68 11.68 0 0 0 1.559 7.211l.216.329-.178.357c-.104.206-2.414 5.183 3.972 8.657a7.374 7.374 0 0 0 8.591-.882l.874-.733Z" fill="#231D24"/><path d="M403.256 114.216c-20.996-7.652-22.874 20.433-22.874 20.433s8.93-5.23 14.573-12.723c.836 1.408 4.517 4.413 7.061 5.634a65.364 65.364 0 0 0 11.653 3.943c-4.704-5.587.789-13.202-10.413-17.287Z" fill="#231D24"/><path d="m379.593 135.926.094-1.324c0-.225 1.671-22.414 16.808-22.414 2.393.045 4.76.506 6.996 1.362 7.361 2.685 7.915 6.883 8.451 10.939.309 2.357.61 4.592 2.263 6.573l1.333 1.587-2.047-.46a65.238 65.238 0 0 1-11.803-3.991 25.833 25.833 0 0 1-6.77-5.099 57.552 57.552 0 0 1-14.208 12.207l-1.117.62Zm16.902-22.329c-11.709 0-14.62 14.949-15.249 19.719 2.61-1.7 8.873-6.104 13.146-11.775l.629-.836.535.939c.742 1.249 4.291 4.169 6.77 5.343a59.978 59.978 0 0 0 9.728 3.446 15.814 15.814 0 0 1-1.502-5.69c-.507-3.803-.986-7.4-7.512-9.794a19.277 19.277 0 0 0-6.545-1.352Z" fill="#fff"/><path d="M391.18 113.305a22.152 22.152 0 0 1 24.292 9.015s-.939-14.207-13.906-14.977c-8.141-.526-10.386 5.962-10.386 5.962Z" fill="#fff"/><path d="M415.472 122.977a.698.698 0 0 1-.573-.291c-5.634-7.822-12.751-9.465-17.766-9.465a20.49 20.49 0 0 0-5.737.761.733.733 0 0 1-.723-.179.7.7 0 0 1-.159-.723c0-.065 2.507-7.014 11.089-6.488 13.456.798 14.555 15.493 14.564 15.634a.696.696 0 0 1-.46.714.722.722 0 0 1-.235.037Zm-18.339-11.164a22.249 22.249 0 0 1 17.212 7.906c-.939-3.991-3.85-11.193-12.826-11.719-5.278-.3-7.916 2.517-9.015 4.254a24.056 24.056 0 0 1 4.629-.441Zm8.949 30.574a14.17 14.17 0 0 0 3.127-4.292l-.939 12.066-2.188-7.774Z" fill="#231D24"/><path d="M577.046 255.949s17.775 23.475 17.775 53.364c0 29.888-9.944 73.702-13.399 93.355-3.7 21.024-14.865 91.543-14.865 91.543H555.13l-.827-194.035 22.743-44.227Z" fill="#fff"/><path d="M566.557 494.915H555.13a.704.704 0 0 1-.705-.704l-.854-194.035c0-.111.026-.22.075-.319l22.78-44.199a.674.674 0 0 1 .563-.376.684.684 0 0 1 .62.273c.179.244 17.916 23.972 17.916 53.795 0 24.038-6.441 57.232-10.704 79.195-1.089 5.569-2.019 10.386-2.705 14.282-3.652 20.781-14.751 90.83-14.864 91.534a.701.701 0 0 1-.695.554Zm-10.723-1.408h10.122c1.089-6.883 11.268-71.195 14.771-90.952.685-3.925 1.624-8.742 2.704-14.32 4.254-21.906 10.686-55.016 10.686-78.923 0-26.057-13.766-47.4-16.968-52.02l-22.142 43.053.827 193.162Z" fill="#231D24"/><path d="M524.274 255.949s-17.775 23.475-17.775 53.364c0 29.888 9.944 73.702 13.399 93.355 3.7 21.024 15.569 91.543 15.569 91.543h10.019l1.512-194.035-22.724-44.227Z" fill="#fff"/><path d="M545.486 494.915h-10.019a.711.711 0 0 1-.695-.582c-.113-.704-11.907-70.763-15.569-91.543-.685-3.897-1.615-8.714-2.695-14.282-4.272-21.963-10.714-55.157-10.714-79.195 0-29.823 17.738-53.523 17.917-53.796a.69.69 0 0 1 .619-.272.702.702 0 0 1 .573.376l22.743 44.236a.556.556 0 0 1 .075.329l-1.531 194.035a.703.703 0 0 1-.704.694Zm-9.39-1.408h8.714l1.53-193.162-22.141-43.053c-3.202 4.62-16.968 25.963-16.968 52.021 0 23.907 6.432 57.016 10.686 78.923 1.08 5.577 2.019 10.394 2.704 14.319 3.446 19.766 14.292 84.097 15.447 90.952h.028Z" fill="#231D24"/><path d="M496.846 70.205c2.507 2.451 2.817.291 5.399.554 2.338.235 1.136 3.578 3.822 2.348 2.685-1.23 3.944 0 2.686 1.775-.864 1.183-11.719 6.281-15.86 7.859-1.503.573 4.695.76 3.437 2.657-2.226 3.325-10.639-.544-12.339.188-7.991 3.428 6.686 38.668 7.512 50.058l41.138 39.382a11.342 11.342 0 0 1 .781 9.118 11.325 11.325 0 0 1-6.209 6.723c-5.54 2.432-10.207-1.296-14.704-5.343-14.696-13.202-35.391-36.443-36.941-40.03-8.62-20.066-4.394-59.1-4.394-59.1-3.052-7.221 11.033-7.87 17.906-13.54 3.907-3.212 7.212-3.118 7.766-2.649Z" fill="#fff"/><path d="M523.664 192.313c-4.272 0-7.944-2.986-11.625-6.301-14.526-13.052-35.513-36.555-37.109-40.283-8.395-19.512-4.817-56.02-4.47-59.27a4.699 4.699 0 0 1-.112-3.605c1.108-2.658 4.798-4.123 9.07-5.822 3.315-1.324 6.742-2.686 9.212-4.695 3.474-2.817 6.301-3.07 7.089-3.07a2.423 2.423 0 0 1 1.625.469c.939.873 1.352.939 1.615.939a2.75 2.75 0 0 0 .864-.225 5.033 5.033 0 0 1 2.488-.404 2.725 2.725 0 0 1 2.273 1.944c.272.62.347.675.488.675a1.87 1.87 0 0 0 .704-.206c1.822-.845 3.437-.63 3.981.432a2.335 2.335 0 0 1-.432 2.394c-.939 1.324-10.329 5.634-14.798 7.512 1.136.32 2.272.723 2.601 1.597a1.426 1.426 0 0 1-.207 1.342c-.76 1.137-2.094 1.69-4.056 1.69a26.43 26.43 0 0 1-5.334-.788 17.631 17.631 0 0 0-2.929-.488.79.79 0 0 0-.329 0c-4.695 2.009-.066 18.282 3.643 31.362 2.01 7.052 3.897 13.719 4.244 17.728l40.941 39.185a1.2 1.2 0 0 1 .131.178 12.034 12.034 0 0 1 .827 9.658 12.022 12.022 0 0 1-6.564 7.132 9.473 9.473 0 0 1-3.831.92ZM495.719 70.675c-.666 0-3.089.197-6.188 2.751-2.648 2.179-6.338 3.644-9.596 4.94-3.803 1.52-7.409 2.948-8.282 5.06a3.319 3.319 0 0 0 .169 2.686c.047.11.067.229.056.347-.047.395-4.103 39.091 4.338 58.744 1.409 3.277 21.485 26.058 36.762 39.795 3.474 3.127 6.911 5.935 10.686 5.935a7.898 7.898 0 0 0 3.268-.723 10.62 10.62 0 0 0 5.117-14.724l-41.053-39.307a.643.643 0 0 1-.216-.46c-.272-3.821-2.188-10.573-4.216-17.709-4.263-15.024-8.667-30.546-2.817-33.044.761-.328 2.226 0 4.104.376 1.652.416 3.341.667 5.042.751 1.465 0 2.404-.347 2.883-1.06a.583.583 0 0 0 .056-.104c-.16-.31-1.624-.704-2.178-.845-1.024-.282-1.644-.442-1.672-1.099 0-.225.056-.638.686-.873 4.563-1.765 14.751-6.686 15.521-7.681.31-.441.385-.78.31-.94-.075-.159-.3-.196-.61-.196-.531.022-1.05.16-1.521.403a3.205 3.205 0 0 1-1.296.339c-1.099 0-1.512-.94-1.775-1.512-.263-.573-.498-1.052-1.127-1.108a3.607 3.607 0 0 0-1.878.31 3.115 3.115 0 0 1-3.934-1.052 2.424 2.424 0 0 0-.639 0Z" fill="#231D24"/><path d="M535.955 141.194a56.034 56.034 0 0 0 3.831-20.283c0-13.146-16.103-21.597-31.231-9.314-11.784 9.596-1.371 24.658 9.043 22.47 10.413-2.188 18.357 7.127 18.357 7.127Z" fill="#231D24"/><path d="m536.152 142.499-.732-.854c-.066-.066-6.263-7.212-14.62-7.212-1.029.003-2.054.11-3.061.319-.725.158-1.465.237-2.207.235-5.164 0-10.273-3.84-12.151-9.136-1.878-5.296-.197-10.79 4.695-14.799 4.893-4.01 10.329-6.141 15.588-6.141 9.39 0 16.789 7.033 16.789 15.963a56.438 56.438 0 0 1-3.887 20.564l-.414 1.061Zm-15.352-9.474c7.315 0 12.911 4.864 14.902 6.873a56.762 56.762 0 0 0 3.38-18.987c0-8.319-6.573-14.592-15.381-14.592-4.939 0-10.019 2.019-14.704 5.822-4.432 3.615-6.001 8.451-4.292 13.24 1.709 4.789 6.245 8.198 10.827 8.198a9.408 9.408 0 0 0 1.878-.198 16.089 16.089 0 0 1 3.39-.356Zm134.709 87.89c6.207-1.211 20.348-10.808 22.019-8.122 1.118 1.784-6.291 7.286-4.939 7.192 10.048-.685 20.499-1.521 20.17 1.005-.188 1.418-14.93 1.878-14.489 3.681 1.728 7.127-2.995 4.366-4.817 9.061-2.958 7.634-11.69 1.662-21.963-.826-10.273-2.488-45.898 20.761-61.702 1.465-5.192-6.348-24.808-60.519-24.808-60.519a19.424 19.424 0 0 1 15.387-.294 19.42 19.42 0 0 1 10.764 10.999l14.395 37.297c19.465-2.582 34.198 2.169 49.983-.939Z" fill="#fff"/><path d="M608.033 242.822c-8.226 0-14.357-2.61-18.78-7.982-5.211-6.366-24.123-58.509-24.921-60.725a.705.705 0 0 1 .366-.882 20.083 20.083 0 0 1 15.934-.321 20.086 20.086 0 0 1 11.156 11.382l14.198 36.809a97.334 97.334 0 0 1 12.47-.751c4.563 0 8.902.253 13.09.497 3.99.235 7.765.46 11.559.46a62.59 62.59 0 0 0 12.272-1.07c2.526-.488 6.573-2.479 10.386-4.394 4.357-2.17 8.451-4.207 10.639-4.207a1.87 1.87 0 0 1 1.727.798c.939 1.437-1.004 3.531-3.587 6.113l-.657.667c4.385-.31 8.892-.62 12.357-.62 4 0 6.047.394 6.846 1.305a1.483 1.483 0 0 1 .366 1.202c-.141 1.07-1.587 1.39-7.24 2.178-2.423.329-6.385.883-7.211 1.437.995 4.273-.292 5.381-2.207 6.47a5.136 5.136 0 0 0-2.686 2.817 5.912 5.912 0 0 1-5.972 4.206c-2.619 0-5.737-1.07-9.39-2.309-2.385-.817-4.864-1.662-7.465-2.292a7.12 7.12 0 0 0-1.634-.169c-3.418 0-8.629 1.662-14.657 3.587-8.451 2.714-18.076 5.785-27.025 5.785l.066.009ZM565.9 174.275c2.197 6.038 19.719 53.87 24.414 59.692 4.113 5.024 9.897 7.465 17.672 7.465 8.723 0 18.226-3.033 26.602-5.718 6.141-1.963 11.446-3.653 15.08-3.653a8.26 8.26 0 0 1 1.963.207c2.666.648 5.174 1.502 7.596 2.328 3.493 1.202 6.508 2.235 8.893 2.235a4.523 4.523 0 0 0 4.695-3.305 6.437 6.437 0 0 1 3.305-3.531c1.493-.854 2.394-1.361 1.484-5.117a1.04 1.04 0 0 1 .169-.845c.647-.939 3.136-1.409 8.263-2.123a37.16 37.16 0 0 0 5.972-1.098c-.301-.263-1.418-.78-5.747-.78-3.455 0-8.01.32-12.423.63l-1.183.075a.79.79 0 0 1-.855-.489c-.262-.629.245-1.145 1.766-2.666 3.108-3.118 3.559-4.094 3.39-4.367-.057-.094-.254-.141-.536-.141-1.878 0-5.99 2.066-10.009 4.057-4.019 1.991-8.029 3.991-10.743 4.526a64.675 64.675 0 0 1-12.545 1.089c-3.831 0-7.624-.225-11.643-.46-4.169-.244-8.451-.498-13.005-.498a96.136 96.136 0 0 0-12.836.808.706.706 0 0 1-.752-.441l-14.413-37.344a18.69 18.69 0 0 0-24.602-10.555l.028.019Zm-20.63-7.878c-13.7 0-19.831-14.433-17.503-24.142 1.69-7.089 10.498-13.24 17.719-13.503 8.545-.319 18.217 8.564 16.959 16.348-1.174 7.193-11.315 21.297-17.175 21.297Z" fill="#231D24"/><path d="M545.27 167.101a17.26 17.26 0 0 1-13.982-6.78 22.234 22.234 0 0 1-4.206-18.226c1.878-7.728 11.268-13.784 18.376-14.085 4.873-.178 10.46 2.564 14.151 6.893 2.817 3.305 4.065 6.948 3.53 10.272-1.173 7.268-11.446 21.926-17.869 21.926Zm.657-37.654h-.413c-7.239.263-15.531 6.573-17.061 12.968a21.028 21.028 0 0 0 3.943 17.024 15.883 15.883 0 0 0 12.874 6.244c5.277 0 15.315-13.578 16.48-20.705.46-2.817-.714-6.197-3.221-9.136-3.305-3.878-8.254-6.395-12.602-6.395Z" fill="#fff"/><path d="m523.382 163.795 22.17 7.878v-11.361s-2.657-.151-2.648-4.423c.009-4.273 2.817-4.104 5.559-3.249 0 0 5.033-9.644 8.451-9.465 3.418.178 6.047.845 7.174 4.77.87 2.366.943 4.951.206 7.362 0 0 3.888 4.61-1.718 9.756a7.599 7.599 0 0 1-8.817 1.258l.188 5.155c6.723-.103 16.291 0 22.404.282l-4.169 63.852h-49.129l.329-3.503v-68.312Z" fill="#fff"/><path d="M572.82 236.324h-50.537l.404-4.272v-69.261l22.17 7.888v-9.822c-.939-.348-2.657-1.465-2.648-4.968 0-3.671 1.972-4.441 3.625-4.441.773.015 1.54.136 2.281.357 1.183-2.151 5.343-9.334 8.705-9.334h.141c3.23.169 6.507.723 7.812 5.277.881 2.382.989 4.981.31 7.428.808 1.22 3.136 5.634-2.028 10.394a8.166 8.166 0 0 1-5.634 2.31 8.872 8.872 0 0 1-2.911-.488l.122 3.371h5.155c6.254 0 12.461.131 16.602.329h.713l-4.282 65.232Zm-48.987-1.409h47.663l4.076-62.481c-4.094-.187-9.926-.3-15.813-.3h-6.517l-.253-6.996 1.051.498a6.92 6.92 0 0 0 8.029-1.146c5.024-4.61 1.793-8.62 1.653-8.789l-.245-.3.122-.376a10.756 10.756 0 0 0-.197-6.864c-.939-3.408-3.061-4.15-6.573-4.338-2.235 0-5.953 5.578-7.793 9.09l-.263.516-.564-.169a8.436 8.436 0 0 0-2.432-.46c-1.089 0-2.206.366-2.216 3.033 0 3.502 1.878 3.756 2 3.756l.639.056v13.005l-22.17-7.887v67.326l-.197 2.826Z" fill="#231D24"/><path d="M535.673 133.344a5.271 5.271 0 0 0 6.489-2.723c.657-1.766-1.437-2.592-1.54-4.132-.225-3.361-2.207-2.901-4.169-1.878-1.963 1.024-7.738 6.601-.78 8.733Z" fill="#fff"/><path d="M537.411 134.311a6.636 6.636 0 0 1-1.944-.291c-2.366-.723-3.643-1.925-3.803-3.55-.263-2.817 3.033-5.699 4.451-6.46a5.992 5.992 0 0 1 2.667-.845c1.061 0 2.366.563 2.544 3.277.104.495.344.951.695 1.315a3.032 3.032 0 0 1 .798 3.108 5.78 5.78 0 0 1-5.408 3.446Zm1.371-9.737a4.679 4.679 0 0 0-2 .685c-1.165.61-3.897 3.155-3.756 5.08.093 1.005 1.042 1.793 2.817 2.329a5.089 5.089 0 0 0 1.53.234 4.412 4.412 0 0 0 4.094-2.525c.226-.63 0-1.033-.601-1.766a3.845 3.845 0 0 1-.939-2.075c-.141-1.962-.845-1.962-1.145-1.962Z" fill="#231D24"/><path d="m578.811 253.123.451-82.003c-2.686-.197-5.446-.338-8.122-.488l-4.996 32.583h-34.555l-5.005-38.349-8.085-4 3.146 92.257-6.573 16.517a214.286 214.286 0 0 0-13.062 109.966h59.336l4.986-32.94c4.582-21.466 30.987-24.414 30.987-24.414.047-38.349-18.508-69.129-18.508-69.129Z" fill="#FB8500"/><path d="M561.956 380.282H501.4l-.084-.61a215.16 215.16 0 0 1 13.146-110.295l6.573-16.386-3.202-93.271 9.474 4.695.057.376 4.92 37.729h33.335l4.995-32.611 2.131.112c2.207.122 4.451.244 6.649.413l.657.047-.46 82.454c1.493 2.563 18.554 32.705 18.554 69.336v.638l-.629.066c-.263 0-26.001 3.108-30.414 23.813l-5.146 33.494Zm-59.335-1.408h58.124l4.892-32.349c4.245-19.869 26.931-24.245 30.987-24.874-.197-37.447-18.273-67.862-18.451-68.171l-.103-.169v-.198l.45-81.336c-1.981-.141-3.99-.244-5.972-.357h-.845l-4.986 32.499h-35.748l-5.033-38.583-6.685-3.315 3.127 91.224-6.649 16.648a213.803 213.803 0 0 0-13.108 108.981Zm64.434-224.891s-5.014-4.282-6.235-9.39c-1.221-5.108-.263-6.235-.263-6.235 12.095 1.747 6.498 15.625 6.498 15.625Z" fill="#231D24"/><path d="m567.337 155.185-.742-.629c-.207-.188-5.202-4.489-6.46-9.719-1.259-5.23-.32-6.573-.113-6.855l.244-.3.394.056c3.371.47 5.775 1.878 7.128 4.254 2.817 4.911-.001 11.991-.085 12.291l-.366.902Zm-6.329-15.963c-.141.61-.263 2.131.498 5.296.863 3.606 3.821 6.854 5.239 8.254.629-2.029 1.737-6.752-.178-10.066-1.052-1.878-2.93-3.052-5.559-3.484Zm68.115 80.435-.761 2.817h-67.044a2.204 2.204 0 0 1-1.769-.876 2.193 2.193 0 0 1-.353-1.941h69.927Z" fill="#fff"/><path d="M628.362 223.149h-67.044a2.816 2.816 0 0 1-2.31-1.145 2.915 2.915 0 0 1-.498-2.535.717.717 0 0 1 .685-.517h69.928a.691.691 0 0 1 .563.282.711.711 0 0 1 .122.61l-.77 2.817a.702.702 0 0 1-.676.488Zm-68.547-2.817c.021.287.125.562.301.789a1.48 1.48 0 0 0 1.192.592h66.5l.385-1.381h-68.378Z" fill="#231D24"/><path d="M617.423 222.455h77.157a5.867 5.867 0 0 0 5.634-4.31l13.146-47.767a2.571 2.571 0 0 0-2.488-3.268h-77.101a5.862 5.862 0 0 0-5.634 4.301l-13.146 47.776a2.582 2.582 0 0 0 2.432 3.268Z" fill="#fff"/><path d="M694.599 223.159h-77.176a3.275 3.275 0 0 1-2.618-1.293 3.275 3.275 0 0 1-.556-2.867l13.146-47.776a6.574 6.574 0 0 1 6.329-4.817h77.158a3.289 3.289 0 0 1 3.231 2.661c.097.498.077 1.01-.058 1.499l-13.146 47.767a6.57 6.57 0 0 1-6.31 4.826Zm-60.828-55.344a5.168 5.168 0 0 0-4.977 3.756l-13.146 47.776a1.884 1.884 0 0 0 .31 1.634 1.878 1.878 0 0 0 1.502.742h77.158a5.183 5.183 0 0 0 4.977-3.756l13.146-47.777a1.884 1.884 0 0 0-.979-2.181 1.867 1.867 0 0 0-.834-.194h-77.157Z" fill="#231D24"/><path d="M661.631 214.727c-4.441 0-7.277-3.596-6.347-8.038h16.066a10.42 10.42 0 0 1-9.719 8.038Zm-14.959-28.842-.452 1.334 10.398 3.52.451-1.334-10.397-3.52Zm41.296.13-10.413 3.474.446 1.336 10.413-3.474-.446-1.336Z" fill="#231D24"/><path d="M555.073 171.261a1.072 1.072 0 0 0 0-2.141 1.07 1.07 0 1 0 0 2.141Z" fill="#fff"/><path d="M555.074 171.955a1.776 1.776 0 0 1-1.252-3.033 1.776 1.776 0 0 1 2.891 1.946 1.757 1.757 0 0 1-.961.956 1.753 1.753 0 0 1-.678.131Zm0-2.131a.367.367 0 0 0-.36.438.364.364 0 0 0 .5.266.359.359 0 0 0 .164-.134.383.383 0 0 0 .037-.346.356.356 0 0 0-.341-.224Z" fill="#231D24"/><path d="M553.759 173.392a1.07 1.07 0 1 0 0-2.14 1.07 1.07 0 0 0 0 2.14Z" fill="#fff"/><path d="M553.759 174.096a1.775 1.775 0 1 1 0-3.55 1.775 1.775 0 0 1 0 3.55Zm0-2.131a.372.372 0 0 0-.296.082.378.378 0 0 0-.129.279.372.372 0 0 0 .129.279.36.36 0 0 0 .296.083.378.378 0 0 0 .157-.009.365.365 0 0 0 0-.705.348.348 0 0 0-.157-.009Z" fill="#231D24"/><path d="M549.683 172.801a1.067 1.067 0 0 0 .661.989 1.075 1.075 0 0 0 1.167-.232 1.075 1.075 0 0 0-.162-1.647 1.068 1.068 0 0 0-1.352.133 1.07 1.07 0 0 0-.314.757Z" fill="#fff"/><path d="M550.754 174.575a1.775 1.775 0 1 1 0-3.55 1.775 1.775 0 0 1 0 3.55Zm0-2.141a.365.365 0 0 0-.259.625.366.366 0 1 0 .259-.625Z" fill="#231D24"/><path d="M546.632 172.369a1.071 1.071 0 1 0 2.14-.002 1.071 1.071 0 0 0-2.14.002Z" fill="#fff"/><path d="M547.702 174.134a1.771 1.771 0 0 1-1.739-2.124 1.774 1.774 0 0 1 3.514.359 1.772 1.772 0 0 1-1.775 1.765Zm0-2.131a.363.363 0 0 0-.424.361.367.367 0 0 0 .424.362.378.378 0 0 0 .296-.083.353.353 0 0 0 .095-.125.357.357 0 0 0 0-.307.356.356 0 0 0-.234-.2.361.361 0 0 0-.157-.008Z" fill="#231D24"/><path d="M545.12 172.209a1.07 1.07 0 1 0 0-2.14 1.07 1.07 0 0 0 0 2.14Z" fill="#fff"/><path d="M545.12 172.904a1.773 1.773 0 0 1-1.252-3.033 1.781 1.781 0 0 1 1.938-.379 1.777 1.777 0 0 1-.008 3.28 1.769 1.769 0 0 1-.678.132Zm0-2.132a.364.364 0 0 0-.359.438.364.364 0 0 0 .663.132.36.36 0 0 0 .062-.203.36.36 0 0 0-.104-.262.353.353 0 0 0-.262-.105Z" fill="#231D24"/><path d="M543.308 168.556c-.002.213.059.42.175.598a1.075 1.075 0 0 0 1.098.463 1.075 1.075 0 0 0 .846-.839 1.07 1.07 0 1 0-2.119-.222Z" fill="#fff"/><path d="M544.378 170.331a1.775 1.775 0 1 1 0-3.55 1.775 1.775 0 0 1 0 3.55Zm0-2.131a.362.362 0 0 0-.424.361.37.37 0 0 0 .128.279.374.374 0 0 0 .296.083.378.378 0 0 0 .296-.083.365.365 0 0 0 0-.558.361.361 0 0 0-.296-.082Z" fill="#231D24"/><path d="M669.8 177.073a17.784 17.784 0 0 0-13.352 2.642 17.803 17.803 0 0 0-4.91 4.902 17.793 17.793 0 0 0-2.659 6.41l-13.296 66.509a17.846 17.846 0 0 0 2.66 13.343 17.845 17.845 0 0 0 11.294 7.587 17.838 17.838 0 0 0 20.921-13.953l13.296-66.5a17.795 17.795 0 0 0-2.637-13.362 17.787 17.787 0 0 0-11.317-7.578Z" fill="#fff"/><path d="M653.039 279.499a18.484 18.484 0 0 1-14.31-6.765 18.485 18.485 0 0 1-3.831-15.358l13.287-66.509a18.523 18.523 0 0 1 18.113-14.864 19.04 19.04 0 0 1 3.643.357 18.504 18.504 0 0 1 14.498 21.756l-13.286 66.491a18.531 18.531 0 0 1-18.114 14.892Zm13.259-102.069a17.118 17.118 0 0 0-16.733 13.728l-13.287 66.5a17.102 17.102 0 0 0 3.555 14.175 17.108 17.108 0 0 0 13.206 6.258 17.13 17.13 0 0 0 16.733-13.738l13.287-66.5a17.094 17.094 0 0 0-13.399-20.132 17.634 17.634 0 0 0-3.362-.291Z" fill="#231D24"/><path d="M674.796 356.215c-.207 45.072 4.235 90.069 7.512 134.991l17.55-.385c1.436-45.072 2.817-90.144.779-135.141l-25.841.535Z" fill="#fff"/><path d="M682.336 491.91a.695.695 0 0 1-.704-.648c-.648-8.779-1.352-17.709-2.028-26.348-2.817-35.607-5.681-72.416-5.512-108.699a.716.716 0 0 1 .695-.704l25.869-.535a.713.713 0 0 1 .704.676c2.094 45.391.629 91.083-.779 135.216a.713.713 0 0 1-.695.685l-17.55.385v-.028Zm-6.836-135c-.131 36.001 2.733 72.538 5.512 107.891.657 8.451 1.343 17.118 1.972 25.691l16.217-.356c1.399-43.692 2.816-88.858.798-133.733l-24.499.507Z" fill="#231D24"/><path d="m691.05 395.372 11.043-42.49 25.353 4.958-11.982 47.363-.122.582a11.585 11.585 0 0 1-5.305 7.634l-68.82 49.899-8.347-14.433 58.18-53.513Z" fill="#fff"/><path d="M641.255 464.022h-.15a.66.66 0 0 1-.461-.338l-8.347-14.432a.687.687 0 0 1 .131-.864l57.993-53.373 10.986-42.255a.727.727 0 0 1 .817-.516l25.4 4.958a.692.692 0 0 1 .46.319.695.695 0 0 1 .085.544l-11.991 47.364-.104.544a12.358 12.358 0 0 1-5.634 8.104l-68.781 49.87a.734.734 0 0 1-.404.075Zm-7.456-15.024 7.672 13.268 68.19-49.438a10.987 10.987 0 0 0 5.033-7.202l.113-.582 11.812-46.678-24.01-4.695-10.873 41.898a.708.708 0 0 1-.207.338l-57.73 53.091Z" fill="#231D24"/><path d="m694.721 381.409 7.372-28.527 25.39 4.958-10.507 41.372-22.255-17.803Z" fill="#231D24"/><path d="M716.957 399.917a.679.679 0 0 1-.441-.151l-22.255-17.841a.715.715 0 0 1-.244-.732l7.371-28.527a.727.727 0 0 1 .817-.516l25.4 4.958a.686.686 0 0 1 .46.319.695.695 0 0 1 .085.544l-10.517 41.382a.714.714 0 0 1-.451.498l-.225.066Zm-21.466-18.78 21.053 16.836 10.056-39.598-24.01-4.695-7.099 27.457Z" fill="#231D24"/><path d="M641.743 376.714h81.233v-87.055h-81.233v87.055Z" fill="#4D5EFF"/><path d="M723.68 377.418h-82.632v-88.463h82.632v88.463Zm-81.233-1.408h79.816v-85.609h-79.816v85.609Z" fill="#231D24"/><path d="m676.956 325.876.76 50.35h7.738l-2.132-44.547-6.366-5.803Z" fill="#231D24"/><path d="m736.789 399.062-61.308-27.269 12.067-64.716 83.88-3.812-34.639 95.797Z" fill="#4D5EFF"/><path d="M736.789 399.767a.77.77 0 0 1-.292-.057l-61.307-27.278a.695.695 0 0 1-.404-.779l7.926-40.377-7.569-6.958.939-1.033 7.85 7.221a.713.713 0 0 1 .216.657l-7.887 40.246 60.096 26.742 34.395-95.092 1.324.479-34.649 95.778a.705.705 0 0 1-.385.404.709.709 0 0 1-.253.047ZM667.5 183.928l-.836-1.136a37.555 37.555 0 0 1 22.217-7.221h28.282a37.716 37.716 0 0 1 20.18 5.85l-.752 1.183a36.372 36.372 0 0 0-19.428-5.634h-28.282a36.13 36.13 0 0 0-21.381 6.958Z" fill="#231D24"/><path d="m629.63 274.438 26.93-73.824c5.371-14.733 18.001-24.358 32.311-24.358h28.283c14.31 0 26.94 9.625 32.311 24.358l26.94 73.824a39.954 39.954 0 0 1-10.461 42.799 36.47 36.47 0 0 1-24.414 9.663h-76.998a36.465 36.465 0 0 1-24.414-9.672 39.966 39.966 0 0 1-11.671-19.82 39.963 39.963 0 0 1 1.183-22.97Z" fill="#fff"/><path d="M741.54 327.632h-76.998a37.046 37.046 0 0 1-24.883-9.85 40.57 40.57 0 0 1-10.639-43.56l26.902-73.834a43.06 43.06 0 0 1 2.686-5.915l1.239.685a40.391 40.391 0 0 0-2.601 5.719l-26.921 73.824a39.152 39.152 0 0 0 10.263 42.039 35.684 35.684 0 0 0 23.935 9.484h76.998a35.687 35.687 0 0 0 23.926-9.475 39.136 39.136 0 0 0 10.273-42.039l-16.837-46.161 1.324-.488 16.846 46.161a40.58 40.58 0 0 1 1.244 23.39 40.584 40.584 0 0 1-11.892 20.18 37.082 37.082 0 0 1-24.865 9.84Z" fill="#231D24"/><path d="M673.378 183.627c0 10.968 13.033 19.86 29.109 19.86s29.109-8.892 29.109-19.86c0-10.967-13.043-19.85-29.109-19.85-16.066 0-29.109 8.892-29.109 19.85Z" fill="#fff"/><path d="m729.558 192.276-1.164-.78a14.025 14.025 0 0 0 2.517-7.869c0-10.554-12.752-19.146-28.415-19.146-15.662 0-28.414 8.592-28.414 19.146.026 2.817.903 5.56 2.517 7.869l-1.165.78a15.325 15.325 0 0 1-2.76-8.649c0-11.333 13.381-20.554 29.822-20.554 16.442 0 29.823 9.221 29.823 20.554a15.326 15.326 0 0 1-2.761 8.649Z" fill="#231D24"/><path d="M683.904 154.34c.939-2.347-.188-6.085.122-8.808.498-4.573 6.141-6.958 14.16-6.958 8.648 0 15.578 9.559 15.578 16.461 0 5.634-4.329 4.639-4.695 6.517-1.371 7.605-2.385 22.169 3.756 22.169h-21.709c7.164-1.793 5.108-13.211 4.76-13.146-7.925 1.784-15.352-7.972-11.972-16.235Z" fill="#fff"/><path d="M712.891 184.425h-21.775a.71.71 0 0 1-.705-.619.722.722 0 0 1 .536-.77 5.46 5.46 0 0 0 3.756-3.108c1.474-3.024 1.061-7.155.77-8.545-4 .629-8.151-1.446-10.743-5.296a12.864 12.864 0 0 1-1.436-12.01c.507-1.239.347-3.061.178-4.817a20.14 20.14 0 0 1-.103-3.803c.526-4.751 6.085-7.587 14.864-7.587 9.447 0 16.283 10.254 16.283 17.165 0 4.075-2.151 5.117-3.569 5.812-.676.329-1.061.526-1.117.836-1.371 7.578-1.653 17.165.939 20.292a2.69 2.69 0 0 0 2.15 1.042.704.704 0 1 1 0 1.408h-.028Zm-18.78-1.408h15.719l-.122-.141c-4.104-4.92-1.568-19.766-1.258-21.447.178-1.023 1.051-1.446 1.878-1.878 1.295-.629 2.817-1.342 2.817-4.544 0-6.198-6.386-15.757-14.874-15.757-7.991 0-13.024 2.366-13.465 6.329a19.004 19.004 0 0 0 .112 3.521c.169 1.935.357 3.925-.281 5.475a11.46 11.46 0 0 0 1.305 10.695c2.394 3.577 6.272 5.409 9.869 4.601a.42.42 0 0 1 .15 0c.629 0 .873.516 1.099 2.31.093 1.465.638 7.784-2.996 10.836h.047Z" fill="#231D24"/><path d="M682.42 127.071a12.061 12.061 0 0 0 5.231 5.832s-4.883-6.517-1.634-10.423c3.249-3.907 10.094 2.281 11.071 7.324l25.728 23.775a13.263 13.263 0 0 1-12.085 8.761c-2.188-.225-6.244-1.728-6.244-3.549v-.723a4.063 4.063 0 0 0 3.512 1.258c5.042-.413 5.033-8.169 0-8.582a4.1 4.1 0 0 0-3.503 1.258v-1.136a2.009 2.009 0 0 0-2.009-2.01h-16.902a18.78 18.78 0 0 1-18.78-18.78 7.748 7.748 0 0 1 7.747-7.747h.723a7.875 7.875 0 0 1 7.145 4.742Z" fill="#231D24"/><path d="M710.713 163.045h-.047c-2.028-.207-6.883-1.728-6.883-4.245v-2.554l1.23 1.362a3.321 3.321 0 0 0 2.93 1.023 3.593 3.593 0 0 0 2.753-1.83 3.596 3.596 0 0 0 .105-3.304 3.602 3.602 0 0 0-4.329-1.892 3.62 3.62 0 0 0-1.459.876l-1.202 1.352v-2.967a1.305 1.305 0 0 0-1.305-1.305h-16.902a19.52 19.52 0 0 1-19.503-19.494 8.452 8.452 0 0 1 8.451-8.451h.723a8.596 8.596 0 0 1 7.784 5.164 12.221 12.221 0 0 0 2.216 3.4c-1.07-2.395-1.878-5.634.207-8.151a3.968 3.968 0 0 1 3.117-1.484c3.85 0 8.236 4.911 9.137 8.902l25.888 23.917-.131.422c0 .094-2.911 8.892-12.733 9.259h-.047Zm-4.827-3.249a11.01 11.01 0 0 0 4.874 1.878 12.397 12.397 0 0 0 11.268-7.86l-25.55-23.606v-.226c-.723-3.756-4.883-7.99-7.803-7.99a2.521 2.521 0 0 0-2.038.939c-2.817 3.436 1.606 9.483 1.653 9.549l1.878 2.564-2.817-1.522a12.682 12.682 0 0 1-5.54-6.159 7.186 7.186 0 0 0-6.498-4.339h-.723a7.055 7.055 0 0 0-7.043 7.043 18.115 18.115 0 0 0 18.095 18.085h16.902a2.715 2.715 0 0 1 2.695 2.432 5.125 5.125 0 0 1 2.873-.545 5.036 5.036 0 0 1 4.419 4.996 5.032 5.032 0 0 1-4.419 4.995 5.417 5.417 0 0 1-2.226-.234Z" fill="#fff"/><path d="M698.064 130.151c.253-.319.507-.638.789-.939a16.434 16.434 0 0 1 11.516-5.789 16.434 16.434 0 0 1 12.153 4.295 16.44 16.44 0 0 1 .538 23.711c-.282.3-.573.582-.873.854l-24.123-22.132Z" fill="#FB8500"/><path d="m722.215 153.251-.507-.423-24.602-22.592.404-.517c.282-.356.535-.676.817-.939a17.141 17.141 0 0 1 8.573-5.059 17.141 17.141 0 0 1 17.893 6.538 17.15 17.15 0 0 1 3.291 9.395 16.998 16.998 0 0 1-4.507 12.32c-.282.31-.582.591-.883.873l-.479.404Zm-23.193-23.165 23.156 21.268.366-.376a15.733 15.733 0 0 0-1.179-21.975 15.742 15.742 0 0 0-11.138-4.14 15.743 15.743 0 0 0-10.858 4.828 4.646 4.646 0 0 0-.347.395Z" fill="#231D24"/><path d="m718.694 150.03-.507-.441-17.569-16.132.432-.517c.282-.347.545-.657.817-.939 3.916-4.254 9.052-6.798 13.757-6.798a9.993 9.993 0 0 1 6.929 2.526c5.005 4.601 3.879 14.009-2.507 20.967-.291.31-.582.601-.882.939l-.47.395Zm-16.132-16.705 16.085 14.78.357-.376c5.869-6.394 7.033-14.911 2.592-18.986a8.63 8.63 0 0 0-5.972-2.151c-4.32 0-9.071 2.376-12.714 6.348l-.348.385Z" fill="#231D24"/><path d="m712.835 144.677-6.366-5.85.46-.516c.3-.338.554-.629.826-.939 4.629-5.033 10.611-10.122 13.559-10.122a1.77 1.77 0 0 1 1.24.441c2.535 2.319-4.385 11.193-8.395 15.559l-.779.826-.545.601Zm-4.394-5.943 4.328 3.962c.113-.122.235-.244.348-.375 6.892-7.512 9.221-12.902 8.451-13.578a.444.444 0 0 0-.282-.066c-1.765 0-6.751 3.39-12.526 9.672l-.319.385Z" fill="#231D24"/><path d="m704.152 127.906-.953 1.037 21.389 19.647.953-1.037-21.389-19.647Z" fill="#231D24"/><path d="M690.205 171.411s6.573 13.803 19.484 13.803h-24.724l5.24-13.803Z" fill="#fff"/><path d="M700.421 183.355c-7.155-3.7-10.789-11.136-10.939-11.446l1.267-.611c0 .075 3.587 7.325 10.329 10.808l-.657 1.249Z" fill="#231D24"/><path d="M713.952 168.65s-7.944 16.583-23.39 16.583h29.672l-6.282-16.583Z" fill="#fff"/><path d="M690.562 185.919v-1.409c14.808 0 22.677-15.963 22.752-16.169l1.267.61c-.075.169-8.319 16.968-24.019 16.968Zm19.043 4.328h-1.409v50.978h1.409v-50.978Zm-26.734 0h-1.408v50.978h1.408v-50.978Z" fill="#231D24"/><path d="m651.077 500.934-29.4-51.541v-.141a3.988 3.988 0 0 1 1.126-2.986c2.047-2.329 6.367-3.512 12.846-3.512h.873l.197.347c1.193 2.085 1.531 4.789 1.878 7.409.545 4.376 1.071 8.507 5.184 9.803.401.123.819.186 1.239.188a9.028 9.028 0 0 0 4.028-1.38 7.85 7.85 0 0 1 3.437-1.221 3.367 3.367 0 0 1 2.874 1.812l.328.507-.46.404c-4.479 3.897-4 10.432 1.446 19.973 5.784 10.15-4.817 19.662-4.92 19.719l-.676.619Zm-28.02-51.973 28.367 49.767c2.094-2.141 8.451-9.625 4.01-17.381-5.569-9.747-6.113-16.902-1.625-21.297a1.69 1.69 0 0 0-1.343-.695 7.063 7.063 0 0 0-2.817 1.061 10.181 10.181 0 0 1-4.695 1.54 5.578 5.578 0 0 1-1.662-.253c-4.976-1.568-5.577-6.348-6.159-10.968a20.918 20.918 0 0 0-1.503-6.573c-7.512 0-10.573 1.653-11.784 3.033a2.894 2.894 0 0 0-.789 1.766Zm15.071-186.317s-18.949-3.887-26.245-4.366c-7.296-.479-3.155-4.864 3.887-3.888 3.659.568 7.36.81 11.062.723l11.296 7.531Z" fill="#fff"/><path d="M638.128 263.348h-.141c-.188 0-18.986-3.887-26.151-4.366-3.963-.263-4.517-1.624-4.488-2.423.056-1.68 2.873-3.004 6.413-3.004.703 0 1.406.047 2.103.141 3.201.468 6.429.719 9.663.751h1.258a.785.785 0 0 1 .432.122l11.268 7.512a.702.702 0 0 1 .253.854.694.694 0 0 1-.61.413Zm-24.367-8.394c-3.211 0-4.986 1.164-5.005 1.643 0 .131.535.798 3.174.939 5.418.357 17.005 2.535 22.846 3.69l-8.151-5.436h-1.098a73.295 73.295 0 0 1-9.85-.761 13.332 13.332 0 0 0-1.916-.075Z" fill="#231D24"/><path d="M683.895 267.95s-20.752 2.047-36.048-2.263c-14.593-4.122-31.222-14.17-31.222-18.179h28.376c2.921 0 5.287 2.817 5.287 6.216 0 0 10.573 6.207 30.874-5.634l2.733 19.86Z" fill="#fff"/><path d="M672.138 269.142c-6.676 0-16.348-.479-24.479-2.817-14.536-4.103-31.739-14.32-31.739-18.855a.705.705 0 0 1 .705-.704h28.376c3.174 0 5.784 2.864 5.982 6.479a18.454 18.454 0 0 0 7.512 1.361c6.573 0 14.282-2.469 22.301-7.146a.728.728 0 0 1 .667 0 .708.708 0 0 1 .385.536l2.741 19.869a.699.699 0 0 1-.14.526.734.734 0 0 1-.489.272c-.047-.009-5.042.479-11.822.479Zm-54.621-20.93c1.831 3.756 16.282 12.779 30.527 16.798 7.972 2.254 17.503 2.723 24.094 2.723 5.212 0 9.39-.291 10.958-.422l-2.488-18.076c-8.01 4.526-15.446 6.817-22.104 6.817-5.568 0-8.451-1.652-8.573-1.727a.695.695 0 0 1-.347-.601c0-3.043-2.057-5.512-4.583-5.512h-27.484Z" fill="#231D24"/><path d="m649.856 244.719.77 2.817h67.045a2.201 2.201 0 0 0 1.764-.879 2.203 2.203 0 0 0 .358-1.938h-69.937Z" fill="#fff"/><path d="M717.671 248.212h-67.045a.708.708 0 0 1-.676-.517l-.77-2.817a.705.705 0 0 1 .676-.892h69.918a.69.69 0 0 1 .676.517 2.898 2.898 0 0 1-1.52 3.385 2.889 2.889 0 0 1-1.297.295l.038.029Zm-66.51-1.409h66.51a1.507 1.507 0 0 0 1.192-.591c.175-.228.28-.503.301-.789h-68.378l.375 1.38Z" fill="#231D24"/><path d="M661.556 247.517h-77.167a5.861 5.861 0 0 1-5.634-4.31l-13.146-47.776a2.582 2.582 0 0 1 2.497-3.268h77.111a5.867 5.867 0 0 1 5.634 4.31l13.146 47.767a2.586 2.586 0 0 1-1.308 2.993c-.351.18-.739.277-1.133.284Z" fill="#fff"/><path d="M661.556 248.221h-77.167a6.576 6.576 0 0 1-6.338-4.826l-13.146-47.777a3.284 3.284 0 0 1 3.174-4.159h77.138a6.569 6.569 0 0 1 6.329 4.826l13.146 47.767a3.282 3.282 0 0 1-3.174 4.169h.038Zm-93.487-55.354a1.87 1.87 0 0 0-1.848 1.523c-.054.283-.041.575.036.853l13.146 47.776a5.162 5.162 0 0 0 4.977 3.756h77.176a1.868 1.868 0 0 0 1.493-.742 1.879 1.879 0 0 0 .319-1.643l-13.146-47.767a5.18 5.18 0 0 0-4.976-3.756h-77.177Z" fill="#231D24"/><path d="M617.357 239.789c4.433 0 7.278-3.606 6.348-8.038h-16.076a10.465 10.465 0 0 0 9.728 8.038Zm17.648-28.721-10.413 3.474.446 1.336 10.413-3.474-.446-1.336Zm-41.466.046-.452 1.334 10.398 3.519.451-1.334-10.397-3.519Z" fill="#231D24"/><path d="M662.185 251.47c17.625-4.347 46.011-9.568 46.011-9.568s4.254-17.888 9.259-35.194a20.653 20.653 0 0 1 23.618-14.622 20.653 20.653 0 0 1 9.143 4.18 20.658 20.658 0 0 1 5.634 25.353c-12.967 26.227-21.991 45.42-25.841 49.063-6.056 5.709-65.88 6.113-65.88 6.113l-1.944-25.325Z" fill="#fff"/><path d="M664.128 277.471a.694.694 0 0 1-.694-.648l-1.953-25.353a.69.69 0 0 1 .535-.732c16.235-4 41.898-8.808 45.607-9.494.685-2.882 4.639-19.165 9.146-34.743a21.37 21.37 0 0 1 5.216-8.987 21.372 21.372 0 0 1 19.208-6.123 21.383 21.383 0 0 1 9.455 4.312 21.509 21.509 0 0 1 5.841 26.292c-2.16 4.376-4.226 8.554-6.16 12.498-9.963 20.245-16.545 33.607-19.832 36.706-6.188 5.831-63.908 6.3-66.359 6.31l-.01-.038Zm-1.201-25.466 1.878 24.058c17.033-.141 60.002-1.456 64.744-5.926 3.108-2.92 9.991-16.902 19.531-36.301a7552.52 7552.52 0 0 1 6.169-12.508 20.094 20.094 0 0 0-5.456-24.508 19.965 19.965 0 0 0-18.519-3.421 19.955 19.955 0 0 0-13.125 13.506c-4.939 17.09-9.202 34.978-9.249 35.156a.712.712 0 0 1-.554.536c-.3.047-28.01 5.145-45.419 9.408Z" fill="#231D24"/></g><path d="M547.73 278.044h-6.131v-7.982h6.131a11.212 11.212 0 0 0 11.193-11.193v-5.089h7.982v5.08a19.194 19.194 0 0 1-19.175 19.184Zm-4.695-1.409h4.695a17.783 17.783 0 0 0 17.766-17.766v-3.671h-5.164v3.671a12.612 12.612 0 0 1-12.602 12.602h-4.695v5.164Z" fill="#231D24"/><path d="M380.372 258.869v-4.376h-6.573v4.376a18.501 18.501 0 0 0 18.47 18.47h7.7v-6.573h-7.7a11.917 11.917 0 0 1-11.897-11.897Z" fill="#fff"/><path d="M400.674 278.044h-8.404a19.193 19.193 0 0 1-19.175-19.175v-5.089h7.982v5.08a11.212 11.212 0 0 0 11.193 11.193h8.404v7.991Zm-26.17-22.846v3.671a17.785 17.785 0 0 0 17.766 17.766h6.995v-5.164h-6.995a12.614 12.614 0 0 1-12.602-12.602v-3.671h-5.164Z" fill="#231D24"/><path d="M473.286 217.234h-6.573v9.202h-9.202v6.573h9.202v9.212h6.573v-9.212h9.203v-6.573h-9.203v-9.202Z" fill="#fff"/><path d="M473.991 242.925h-7.982v-9.211h-9.155v-7.982h9.202v-9.202h7.982v9.202h9.202v7.982h-9.202l-.047 9.211Zm-6.573-1.408h5.164v-9.212h9.202v-5.164h-9.202v-9.202h-5.164v9.202h-9.202v5.164h9.202v9.212Z" fill="#231D24"/><path d="M336.089 28.42c-4.216.854-3.108-1.587-5.925-3.033-2.563-1.324-3.568 2.92-5.502-.141-1.935-3.061-4.095-2.592-3.944 0 .094 1.794 7.859 14.292 11.071 18.677 1.164 1.596-5.353-2.357-5.315.432.075 4.91 11.315 6.573 12.573 8.45 5.925 8.874-44.49 25.936-52.922 37.129l-61.429 33.963a13.908 13.908 0 0 0-6.873 8.834 13.883 13.883 0 0 0-.226 5.714 13.918 13.918 0 0 0 20.799 9.65c20.151-11.859 53.523-34.743 57.542-37.447 22.273-14.883 55.748-48.48 55.748-48.48 7.981-5.325-6.085-15.41-9.39-25.851-1.878-5.916-5.334-8.094-6.207-7.897Z" fill="#fff"/><path d="M231.316 150.734a14.608 14.608 0 0 1-13.405-20.494 14.613 14.613 0 0 1 6.447-6.981l61.288-33.889c3.822-4.92 14.864-10.63 26.546-16.676 12.469-6.451 25.353-13.146 26.554-17.757a2.105 2.105 0 0 0-.291-1.756c-.309-.47-2.122-1.155-3.756-1.765-3.962-1.502-8.901-3.371-8.958-7.052a1.646 1.646 0 0 1 .451-1.24 1.947 1.947 0 0 1 1.427-.497c.964.06 1.913.262 2.817.6-3.296-4.77-10.329-15.915-10.413-17.943a2.938 2.938 0 0 1 .657-2.273 1.813 1.813 0 0 1 1.343-.582c1.099 0 2.282.873 3.239 2.394.198.31.564.817.855.817.344-.075.665-.23.939-.45a3.918 3.918 0 0 1 2.131-.808c.463.002.918.118 1.324.338a6.034 6.034 0 0 1 2.245 2.028c.544.733.817 1.108 1.878 1.108.461-.01.92-.066 1.371-.169h.244c1.436 0 4.901 2.47 6.789 8.451 1.202 3.756 3.821 7.512 6.357 11.052 3.239 4.573 6.038 8.527 5.408 11.935a5.622 5.622 0 0 1-2.582 3.625c-1.465 1.465-34.151 34.029-55.833 48.527l-2.92 1.897c-9.174 6.226-37.109 25.165-54.716 35.532a14.727 14.727 0 0 1-7.436 2.028Zm96.332-106.68c-.339 0-.423.075-.423.075a.407.407 0 0 0-.047.235c0 2.723 4.695 4.48 8.047 5.756 2.451.94 3.869 1.493 4.404 2.3a3.491 3.491 0 0 1 .479 2.893c-1.352 5.24-13.944 11.747-27.231 18.648-11.155 5.756-22.658 11.738-26.198 16.433a.695.695 0 0 1-.216.188l-61.429 33.963a13.204 13.204 0 0 0 6.282 24.818 13.293 13.293 0 0 0 6.723-1.878c17.568-10.329 45.476-29.259 54.64-35.485l2.817-1.934c21.963-14.677 55.345-48.058 55.673-48.396a.923.923 0 0 1 .113-.085 4.284 4.284 0 0 0 2.038-2.751c.516-2.817-2.254-6.733-5.174-10.864-2.601-3.672-5.287-7.512-6.573-11.447-1.747-5.493-4.817-7.427-5.446-7.427a8.227 8.227 0 0 1-1.615.188 3.285 3.285 0 0 1-2.977-1.681 4.78 4.78 0 0 0-1.756-1.615c-.761-.385-1.371 0-2.056.404a3.13 3.13 0 0 1-1.681.676 2.627 2.627 0 0 1-1.981-1.465c-.808-1.287-1.606-1.747-2.047-1.747a.404.404 0 0 0-.32.141c-.244.36-.344.8-.281 1.23.093 1.427 7.343 13.381 10.948 18.301.126.143.21.317.244.504.033.188.013.38-.056.557a.836.836 0 0 1-.789.451 5.925 5.925 0 0 1-1.549-.385 9.847 9.847 0 0 0-2.563-.6Zm-63.665 203.679s-1.277 30.508-13.521 32.987c-12.245 2.479 13.521-32.987 13.521-32.987Z" fill="#231D24"/><path d="M279.252 99.934c-.376-2.32 1.436-5.465 1.737-7.99.497-4.245-4.104-7.578-11.353-9.26-7.822-1.802-11.427 4.067-12.432 5.381-.939 1.165-1.765 5.84-1.559 10.902a7.86 7.86 0 0 0-1.587 5.127c.798 9.7-6.826 12.864-9.775 12.207a25.63 25.63 0 0 0 5.137 7.906c3.483 3.569 20.554 1.597 20.554 1.597-8.329-3.634-4.498-13.597-4.206-13.456 6.788 3.23 14.817-4.235 13.484-12.414Z" fill="#fff"/><path d="M260.293 127.015c-6.113 0-9.831-.77-11.38-2.348a26.496 26.496 0 0 1-5.287-8.15.732.732 0 0 1 .131-.714.697.697 0 0 1 .686-.225c1.324.31 4.113-.282 6.338-2.695 1.38-1.493 2.939-4.225 2.573-8.742a8.455 8.455 0 0 1 1.577-5.39c-.159-4.695.601-9.672 1.709-11.127.066-.085.151-.188.235-.32 1.136-1.549 4.141-5.633 9.888-5.633 1.021.006 2.038.126 3.033.356 7.963 1.879 12.413 5.635 11.888 10.029a18.087 18.087 0 0 1-.892 3.418c-.507 1.559-1.043 3.164-.846 4.376a12.394 12.394 0 0 1-2.873 10.028 10.58 10.58 0 0 1-7.897 3.953 8.394 8.394 0 0 1-3.108-.591 12.007 12.007 0 0 0-.357 6.967 7.653 7.653 0 0 0 4.545 4.949c.142.063.259.17.335.306a.72.72 0 0 1 .088.445.707.707 0 0 1-.62.601c-.066-.028-4.761.507-9.766.507Zm-14.892-9.953a25.16 25.16 0 0 0 4.516 6.629c.704.723 2.986 1.878 10.376 1.878 2.817 0 5.559-.179 7.39-.329-4.423-3.174-3.925-8.451-3.446-10.742.61-2.939 1.249-2.939 1.521-2.939.111.002.22.027.319.075 3.249 1.559 7.24.413 9.926-2.751a11.01 11.01 0 0 0 2.554-8.883c-.254-1.55.328-3.324.892-5.033.379-1.023.659-2.08.835-3.155.432-3.644-3.615-6.817-10.807-8.451-.89-.21-1.8-.321-2.714-.329-5.033 0-7.634 3.568-8.752 5.099l-.225.385c-.723.939-1.615 5.38-1.408 10.442a.722.722 0 0 1-.123.432 7.192 7.192 0 0 0-1.474 4.695c.413 5.023-1.361 8.103-2.939 9.812a9.74 9.74 0 0 1-6.441 3.165Z" fill="#231D24"/><path d="m206.526 282.823 20.395 66.143s-2.873 11.86-.122 29.231c3.521 22.414 14.32 60.021 14.32 60.021l14.15 1.531-8.62-163.856-40.123 6.93Z" fill="#fff"/><path d="M255.26 440.453h-.075l-14.151-1.54a.698.698 0 0 1-.6-.507c-.113-.376-10.855-37.898-14.339-60.096-2.545-16.16-.254-27.701.094-29.316L205.85 283.03a.686.686 0 0 1 .075-.573.705.705 0 0 1 .479-.329l40.114-6.93a.73.73 0 0 1 .751.375.682.682 0 0 1 .076.283l8.62 163.846a.696.696 0 0 1-.216.554.709.709 0 0 1-.489.197Zm-13.606-2.892 12.865 1.399-8.536-162.231-38.555 6.648 20.169 65.383a.723.723 0 0 1 0 .375c0 .113-2.817 11.888-.122 28.959 3.277 20.78 12.949 55.119 14.179 59.467Z" fill="#231D24"/><path d="m253.626 408.649.939 18.189h-16.62a835.971 835.971 0 0 1-4.695-18.189h20.376Z" fill="#231D24"/><path d="m124.166 368.469-22.536 18.555-6.995-14.207s11.531-14.864 17.737-23.24l11.794 18.892Z" fill="#fff"/><path d="M101.63 387.729h-.15a.68.68 0 0 1-.488-.376l-6.987-14.198a.702.702 0 0 1 .076-.751c.112-.141 11.596-14.949 17.719-23.231a.674.674 0 0 1 .601-.281.696.696 0 0 1 .563.328l11.803 18.893a.71.71 0 0 1-.15.939l-22.536 18.554a.683.683 0 0 1-.451.123Zm-6.169-14.827 6.451 13.014 21.334-17.578-10.93-17.493c-5.709 7.643-15.1 19.85-16.855 22.057Z" fill="#231D24"/><path d="M97.574 369.427c3.145-4.066 9.831-13.146 14.798-19.85l11.794 18.892-14.742 11.822-11.85-10.864Z" fill="#231D24"/><path d="M97.574 369.427c1.361-2.591 10.902-20.658 14.62-26.029 0 0 14.329-20.93 28.893-25.578l19.165-67.486 51.72 14.714-43.804 70.801c-.733 1.277-31.241 29.353-42.828 40.001l-27.766-6.423Z" fill="#fff"/><path d="M125.387 376.554h-.159l-27.766-6.422a.666.666 0 0 1-.48-.385.745.745 0 0 1 0-.629c1.109-2.094 10.902-20.658 14.668-26.095.591-.855 14.404-20.855 28.902-25.738l19.062-67.12a.722.722 0 0 1 .599-.509.704.704 0 0 1 .274.021l51.711 14.714a.718.718 0 0 1 .469.422.749.749 0 0 1-.056.63l-43.842 70.772c-.695 1.221-23.747 22.536-42.95 40.152a.689.689 0 0 1-.432.187Zm-26.714-7.605 26.508 6.131c25.428-23.362 41.682-38.499 42.443-39.607l43.306-70.002-50.142-14.264-18.978 66.81a.7.7 0 0 1-.171.296.7.7 0 0 1-.289.183c-14.169 4.507-28.386 25.09-28.526 25.297-3.475 4.976-11.992 20.986-14.198 25.156h.047Z" fill="#231D24"/><path d="M108.203 384.808s-2.479 2.488-3.437 2.545c-.957.056 0-11.372-4.037-15.428-7.015-7.024-15.344-1.775-17.466 7.409-2.554 11.033 13.71 40.377 13.71 40.377s5.249-4.188 2.976-10.536c-2.272-6.348 3.202-16.367 6.573-17.973 3.371-1.605 1.681-6.394 1.681-6.394Z" fill="#fff"/><path d="M96.973 420.443h-.132a.688.688 0 0 1-.478-.357c-.677-1.202-16.367-29.728-13.785-40.903 1.521-6.573 6.141-11.202 11.268-11.202a10.542 10.542 0 0 1 7.418 3.456c2.873 2.873 3.352 8.808 3.672 12.733.065.854.14 1.784.225 2.319a16.327 16.327 0 0 0 2.582-2.169.691.691 0 0 1 .657-.188.688.688 0 0 1 .508.46c.629 1.878.995 5.803-2.085 7.277-2.817 1.381-8.385 10.912-6.169 17.109 2.413 6.742-3.146 11.268-3.202 11.324a.728.728 0 0 1-.48.141Zm-3.165-51.063c-4.432 0-8.45 4.16-9.86 10.113-2.234 9.653 10.659 34.358 13.213 39.11a8.749 8.749 0 0 0 2.131-9.165c-2.366-6.573 3.23-17.08 6.883-18.846 1.831-.882 1.822-3.061 1.615-4.422-.939.854-2.188 1.878-2.976 1.878-1.005 0-1.09-1.033-1.315-3.756-.282-3.493-.751-9.39-3.258-11.851a9.19 9.19 0 0 0-6.433-3.061Z" fill="#231D24"/><path d="M99.311 383.766c1.812-11.202-6.31-11.616-10.038-11.174-6.216.732-8.45 9.39-6.413 15.371 2.037 5.982-5.831 9.193-2.291 20.536 3.54 11.343 21.183 18.564 17.165 4.489-4.02-14.076-.226-18.02 1.577-29.222Z" fill="#231D24"/><path d="M272.81 445.674c-.601.451-1.183.836-1.737 1.174h-34.677a4.698 4.698 0 0 0 0-3.005c-1.296-4.62.864-7.211 2.159-9.183 1.878-2.921 9.09 5.436 14.968-.104 1.014-.939 7.212-6.648 7.212-6.648.46 2.526-2.057 5.531-1.259 7.315.798 1.784 8.836 1.052 12.827 1.07 3.991.019 9.991 2.32.507 9.381Z" fill="#fff"/><path d="M271.026 447.552h-34.63a.703.703 0 0 1-.344-.092.705.705 0 0 1-.257-.246.69.69 0 0 1 0-.676 3.759 3.759 0 0 0-.075-2.507c-1.268-4.536.573-7.268 1.878-9.259l.338-.507a2.074 2.074 0 0 1 1.878-.939c1.216.131 2.399.477 3.493 1.024a14.875 14.875 0 0 0 5.465 1.455 6.012 6.012 0 0 0 4.272-1.756c1.014-.939 7.212-6.657 7.212-6.657a.728.728 0 0 1 .695-.15.687.687 0 0 1 .469.544 8.38 8.38 0 0 1-.76 4.263c-.432 1.155-.827 2.254-.536 2.892.057.132.601.789 5.475.789 1.211 0 2.469 0 3.643-.075s2.019-.056 2.817-.056h.216c2.404 0 5.446.788 6.141 2.911.695 2.122-1.089 4.695-5.24 7.746-.591.442-1.201.845-1.793 1.202a.689.689 0 0 1-.357.094Zm-33.71-1.408h33.513c.498-.31 1.005-.658 1.512-1.033 4.695-3.503 5.005-5.371 4.742-6.17-.413-1.258-2.733-1.925-4.817-1.943h-.207c-.807 0-1.775 0-2.817.056-1.183 0-2.46.075-3.681.075-4.338 0-6.235-.46-6.761-1.624-.525-1.165 0-2.517.498-3.944.254-.649.464-1.314.629-1.991a916.31 916.31 0 0 0-5.962 5.493 7.427 7.427 0 0 1-5.231 2.141 16.275 16.275 0 0 1-6-1.558 9.74 9.74 0 0 0-2.958-.939.695.695 0 0 0-.676.319l-.347.516c-1.249 1.878-2.817 4.179-1.719 8.085.259.812.355 1.667.282 2.517Z" fill="#231D24"/><path d="m187.858 248.569 48.631 178.475 26.245-7.361-14.31-175.509-60.566 4.395Z" fill="#fff"/><path d="m245.051 270.503-1.402.137 13.919 141.954 1.402-.138-13.919-141.953Z" fill="#231D24"/><path d="M236.489 427.749a.705.705 0 0 1-.676-.517l-38.348-140.991-9.822-5.634.704-1.22 10.066 5.803a.668.668 0 0 1 .329.422l38.245 140.578 25.006-7.005-14.273-174.936 1.408-.112 14.292 175.489a.693.693 0 0 1-.507.733l-26.292 7.362-.132.028Z" fill="#231D24"/><path d="M286.369 158.377c4.883-21.108-15.399-34.292-15.399-34.292l-29.053-8.667s-16.902 4.207-26.827 16.611c-9.926 12.404-45.927 90.257-58.218 117.112a8.578 8.578 0 0 0 .001 7.161 8.563 8.563 0 0 0 5.435 4.661l47.317 13.578c47.053 10.874 53.851-27.184 53.851-27.184s22.405-86.857 22.893-88.98Z" fill="#4D5EFF"/><path d="M225.447 277.199a71.783 71.783 0 0 1-15.963-1.972l-47.344-13.578a9.294 9.294 0 0 1-5.897-12.799c14.301-31.221 48.612-105.168 58.33-117.253 9.982-12.46 27.034-16.827 27.231-16.902h.188l29.41 8.808c.216.132 20.658 13.7 15.718 35.044-.488 2.112-22 85.449-22.911 88.998-.103.235-5.728 29.654-38.762 29.654Zm16.461-161.048c-1.878.497-17.128 4.93-26.292 16.32-9.86 12.385-46.979 92.641-58.115 116.961a7.865 7.865 0 0 0 .001 6.577 7.882 7.882 0 0 0 4.994 4.278l47.317 13.578a69.908 69.908 0 0 0 15.634 1.925c31.832 0 37.119-27.39 37.325-28.555.244-.939 22.433-86.923 22.912-89.017 4.563-19.719-13.644-32.555-15.024-33.494l-28.752-8.573Zm44.593-32.734s-2.498-11.014-12.123-13.24c-9.625-2.225-14.432 3.756-14.432 3.756-6.77-4.047-4.968 3.512-8.968 3.888-7.099.676-6.366 9.39-6.479 13.146-.112 3.756 4.864 11.493 3.644 17.155-1.221 5.663 12.554 8.583 14.939 2.677 1.183-2.911 4.357-5.212 7.409-6.818l2.141-9.277a1.799 1.799 0 0 1 2.161-1.332 1.801 1.801 0 0 1 1.351 2.149l-1.531 6.573c.676-.254 1.268-.46 1.718-.601 2.564-.808 1.634-11.08 4.827-8.451 3.418 2.704 15.202-4.686 5.343-9.625Z" fill="#231D24"/><path d="M256.753 114.695c-3.437 0-6.808-1.324-8.394-3.286a4.049 4.049 0 0 1-.939-3.493c.685-3.212-.77-7.259-2.048-10.836-.892-2.48-1.662-4.61-1.615-6.188v-1.25c0-4.159.076-11.896 7.099-12.563 1.118-.113 1.634-.939 2.357-2.282.723-1.343 1.493-2.817 3.418-2.817a6.725 6.725 0 0 1 3.127 1.005 14.61 14.61 0 0 1 10.385-4.019c1.461.01 2.916.183 4.338.517 9.175 2.131 12.114 11.521 12.63 13.446 4.038 2.141 4.141 4.62 3.831 5.934-.723 3.052-4.77 5.418-7.775 5.418a3.867 3.867 0 0 1-2.46-.76c-.3-.244-.451-.263-.479-.263-.469 0-.939 2.526-1.183 3.596-.498 2.47-.939 4.799-2.498 5.287-.441.141-1.023.338-1.681.582l-1.23.47 1.822-7.888a1.124 1.124 0 0 0-.178-.873.943.943 0 0 0-.611-.442 1.126 1.126 0 0 0-1.352.817l-2.216 9.588-.282.15c-2.591 1.361-5.925 3.596-7.08 6.46-.948 2.348-3.493 3.69-6.986 3.69Zm-.066-41.316c-1.032 0-1.502.79-2.178 2.057-.676 1.267-1.512 2.817-3.465 3.023-5.315.507-5.794 5.794-5.822 11.174v1.278c0 1.314.723 3.427 1.531 5.633 1.343 3.757 2.873 8.01 2.103 11.616a2.62 2.62 0 0 0 .62 2.31c1.305 1.624 4.31 2.761 7.296 2.761 1.362 0 4.695-.282 5.681-2.817.986-2.536 3.531-4.921 7.437-7.034l2.075-8.948a2.555 2.555 0 0 1 2.977-1.878 2.371 2.371 0 0 1 1.54 1.052 2.586 2.586 0 0 1 .366 1.962l-1.221 5.399.526-.169c.742-.235 1.221-2.629 1.53-4.216.517-2.535.939-4.695 2.573-4.695.51.025.995.228 1.371.573a2.423 2.423 0 0 0 1.568.45c2.423 0 5.85-2 6.404-4.338.489-2.065-1.568-3.577-3.38-4.488l-.3-.15-.076-.329c0-.103-2.526-10.601-11.596-12.705a18.327 18.327 0 0 0-4.019-.478 13.15 13.15 0 0 0-9.709 3.943l-.385.47-.517-.31a6.277 6.277 0 0 0-2.93-1.127v-.019Zm37.016 114.84c9.897-7.972 34.142-21.907 35.682-33.287 1.54-11.381 6.573-7.991 5.812-12.151-.76-4.16 2.197-2.977 2.977-1.071.779 1.907.648 4.911.216 5.587a35.882 35.882 0 0 1 5.258-3.53s-.939-6.761 1.371-6.216c2.31.544 2.817 1.634 2.742 4.779-.075 3.146 1.437 2.629.704 4.395 0 0 2.282 2.159 2.226 4.469a9.066 9.066 0 0 0 1.305 2.817c3.249 3.86-8.733 11.663-12.902 15.175-13.568 11.437-21.005 29.202-47.767 46.856-7.127 4.695-23.137-29.025-23.137-29.025l20.761-15.869 4.752 17.071Z" fill="#fff"/><path d="M289.806 217.234c-7.859 0-20.817-26.818-22.273-29.879a.694.694 0 0 1 .207-.854l20.789-15.879a.697.697 0 0 1 .648-.103.643.643 0 0 1 .451.469l4.469 16.02c2.263-1.756 5.127-3.756 8.151-5.916 10.676-7.512 25.297-17.841 26.423-26.292.939-7.099 3.259-8.733 4.789-9.822.939-.657 1.24-.883 1.024-2.113-.254-1.465-.132-2.469.385-3.08a1.546 1.546 0 0 1 1.211-.563 3.393 3.393 0 0 1 2.723 2.178c.482 1.338.69 2.759.611 4.179a31.05 31.05 0 0 1 3.455-2.263c-.16-1.409-.404-4.695.686-5.972a1.572 1.572 0 0 1 1.605-.517c2.892.686 3.362 2.32 3.287 5.484a3.88 3.88 0 0 0 .516 2.376 2.05 2.05 0 0 1 .291 1.822 7.505 7.505 0 0 1 2.122 4.563 8.149 8.149 0 0 0 1.137 2.488 2.927 2.927 0 0 1 .694 2.339c-.385 3.558-6.159 7.99-10.798 11.559a117.356 117.356 0 0 0-2.883 2.263c-4.948 4.178-8.995 9.108-13.681 14.808-8.038 9.793-17.156 20.892-34.151 32.104a3.374 3.374 0 0 1-1.888.601Zm-20.752-29.963c4.057 8.451 14.977 28.555 20.752 28.555.394.002.779-.112 1.108-.329 16.818-11.09 25.86-22.104 33.804-31.823 4.536-5.521 8.817-10.733 13.869-15.024.77-.648 1.766-1.418 2.921-2.31 3.962-3.042 9.944-7.634 10.263-10.601a1.612 1.612 0 0 0-.376-1.277 9.522 9.522 0 0 1-1.446-3.118.722.722 0 0 1 0-.197c.047-1.972-1.981-3.925-2.009-3.944a.715.715 0 0 1-.16-.779c.225-.554.178-.638-.056-1.033a5.211 5.211 0 0 1-.705-3.117c.076-3.09-.403-3.644-2.197-4.076-.084 0-.112-.065-.225.066-.62.704-.535 3.559-.282 5.371a.725.725 0 0 1-.413.742 35.725 35.725 0 0 0-5.118 3.437.702.702 0 0 1-1.131-.467.701.701 0 0 1 .108-.472 8.804 8.804 0 0 0-.282-4.949 2.086 2.086 0 0 0-1.418-1.305.14.14 0 0 0-.131.056c-.056.066-.329.479-.075 1.935.366 2.112-.582 2.817-1.597 3.502-1.333.939-3.342 2.376-4.206 8.864-1.212 8.996-15.513 19.1-27.015 27.231-3.381 2.385-6.573 4.695-8.911 6.573a.7.7 0 0 1-.949-.066.705.705 0 0 1-.169-.3l-4.469-16.038-19.485 14.893Z" fill="#231D24"/><path d="M283.58 138.405c6.836 12.376 11.034 43.372 11.034 43.372l-31.57 18.142s-15.549-29.504-14.855-52.584c.385-12.808 25.823-26.245 35.391-8.93Z" fill="#4D5EFF"/><path d="m262.763 200.896-.338-.648a168.138 168.138 0 0 1-10.442-25.701l1.343-.413a169.593 169.593 0 0 0 10.01 24.809l30.508-17.541c-.554-3.925-4.639-31.363-10.883-42.659a14.68 14.68 0 0 0-7.343-6.798l.526-1.305a16.081 16.081 0 0 1 8.056 7.427c6.817 12.348 10.94 42.34 11.109 43.617l.065.469-32.611 18.743ZM127.669 366.347l-.939-1.014 36.086-34.696 26.095-41.363 1.192.752-26.217 41.438a.762.762 0 0 1-.103.131l-36.114 34.752Zm692.512-155.864-8.686 8.676-8.676-8.676-8.057 8.047 8.686 8.686-8.686 8.676 8.057 8.057 8.676-8.686 8.686 8.686 8.047-8.057-8.676-8.676 8.676-8.686-8.047-8.047Z" fill="#231D24"/><path d="M820.181 244.653a.7.7 0 0 1-.497-.207l-8.188-8.178-8.151 8.178a.704.704 0 0 1-.995 0l-8.057-8.056a.704.704 0 0 1 0-.996l8.188-8.178-8.216-8.179a.709.709 0 0 1-.207-.498.728.728 0 0 1 .207-.497l8.057-8.047a.703.703 0 0 1 .995 0l8.179 8.178 8.188-8.178a.703.703 0 0 1 .995 0l8.047 8.047a.705.705 0 0 1 0 .995l-8.178 8.188 8.178 8.179a.704.704 0 0 1 0 .995l-8.047 8.057a.703.703 0 0 1-.498.197Zm-24.414-8.761 7.062 7.061 8.178-8.188a.704.704 0 0 1 .996 0l8.188 8.188 7.052-7.061-8.179-8.179a.703.703 0 0 1 0-.995l8.179-8.188-7.062-7.005-8.188 8.179a.723.723 0 0 1-.995 0l-8.179-8.179-7.061 7.052 8.188 8.188a.704.704 0 0 1 0 .995l-8.179 8.132Z" fill="#231D24"/><path d="m823.383 205.009-8.686 8.685-8.676-8.685-8.057 8.056 8.686 8.677-8.686 8.685 8.057 8.048 8.676-8.677 8.686 8.677 8.047-8.048-8.676-8.685 8.676-8.677-8.047-8.056Z" fill="#fff"/><g filter="url(#d)"><path d="M806.021 239.178a.704.704 0 0 1-.498-.206l-8.056-8.047a.704.704 0 0 1 0-.996l8.188-8.188-8.188-8.179a.703.703 0 0 1 0-.995l8.056-8.056a.7.7 0 0 1 .996 0l8.178 8.188 8.188-8.188a.707.707 0 0 1 .996 0l8.047 8.056a.704.704 0 0 1 0 .995l-8.179 8.179 8.179 8.188a.704.704 0 0 1 0 .996l-8.047 8.047a.699.699 0 0 1-.996 0l-8.188-8.179-8.178 8.179a.704.704 0 0 1-.498.206Zm8.676-10.084c.187 0 .366.074.498.206l8.188 8.179 7.052-7.052-8.179-8.188a.704.704 0 0 1 0-.995l8.179-8.179-7.052-7.061-8.188 8.188a.704.704 0 0 1-.995 0l-8.179-8.188-7.061 7.061 8.188 8.179a.703.703 0 0 1 0 .995l-8.188 8.188 7.061 7.052 8.179-8.179a.703.703 0 0 1 .497-.206Z" fill="#231D24"/></g><path d="m638.673 42.364-22.348 53.974 27.841-2.16-5.493-51.814Z" fill="#4D5EFF"/><path d="M616.325 97.042a.704.704 0 0 1-.658-.939l22.348-53.983a.715.715 0 0 1 .761-.423.697.697 0 0 1 .592.62l5.493 51.833a.716.716 0 0 1-.639.78l-27.85 2.159-.047-.047ZM638.26 45.19l-20.837 50.36 25.973-2.019-5.136-48.34Z" fill="#231D24"/><path d="m638.663 42.364-22.348 53.974-18.16-21.212 40.508-32.762Z" fill="#4D5EFF"/><path d="M616.315 97.042a.686.686 0 0 1-.535-.244l-18.16-21.212a.72.72 0 0 1-.169-.526.695.695 0 0 1 .263-.479l40.508-32.762a.695.695 0 0 1 .864 0 .707.707 0 0 1 .235.836L616.963 96.63a.687.687 0 0 1-.535.422l-.113-.009ZM599.16 75.22l16.902 19.794 20.892-50.359L599.16 75.22Z" fill="#231D24"/><path d="M396.758 64.816v.225a13.445 13.445 0 0 1 13.334 13.343h.179a13.444 13.444 0 0 1 13.38-13.343v-.178a13.425 13.425 0 0 1-13.343-13.343h-.178a13.43 13.43 0 0 1-13.372 13.296Z" fill="#fff"/><path d="M410.308 79.041h-.179a.714.714 0 0 1-.704-.704 12.782 12.782 0 0 0-12.667-12.639.695.695 0 0 1-.695-.704v-.178a.713.713 0 0 1 .2-.501.696.696 0 0 1 .495-.213 12.77 12.77 0 0 0 12.639-12.639.71.71 0 0 1 .704-.704h.178a.714.714 0 0 1 .705.704 12.772 12.772 0 0 0 12.667 12.639.712.712 0 0 1 .704.704v.235a.704.704 0 0 1-.704.704 12.781 12.781 0 0 0-12.639 12.64.711.711 0 0 1-.704.656Zm-9.503-14.084a14.282 14.282 0 0 1 9.39 9.39 14.247 14.247 0 0 1 9.39-9.39 14.258 14.258 0 0 1-9.39-9.39 14.305 14.305 0 0 1-9.39 9.342v.047Z" fill="#231D24"/><path d="M412.589 84.91v.103a7.288 7.288 0 0 1 7.231 7.23h.103a7.287 7.287 0 0 1 7.23-7.23v-.103a7.278 7.278 0 0 1-7.23-7.24h-.103a7.28 7.28 0 0 1-7.231 7.24Z" fill="#fff"/><path d="M419.923 92.948h-.103a.706.706 0 0 1-.704-.695 6.576 6.576 0 0 0-6.573-6.573.705.705 0 0 1-.695-.704v-.103a.705.705 0 0 1 .695-.704 6.574 6.574 0 0 0 6.573-6.573.71.71 0 0 1 .704-.705h.103a.716.716 0 0 1 .705.705 6.571 6.571 0 0 0 6.573 6.573.702.702 0 0 1 .694.704v.103a.7.7 0 0 1-.694.704 6.57 6.57 0 0 0-6.573 6.573.706.706 0 0 1-.705.695Zm-4.235-7.99a8.086 8.086 0 0 1 4.179 4.187 8.143 8.143 0 0 1 4.188-4.188 8.102 8.102 0 0 1-4.188-4.169 8.054 8.054 0 0 1-4.179 4.17Z" fill="#231D24"/><defs><filter id="a" x="134.702" y="64.966" width="670.596" height="328.49" filterUnits="userSpaceOnUse" color-interpolation-filters="sRGB"><feFlood flood-opacity="0" result="BackgroundImageFix"/><feBlend in="SourceGraphic" in2="BackgroundImageFix" result="shape"/><feGaussianBlur stdDeviation="2" result="effect1_foregroundBlur_1558_2602"/></filter><filter id="b" x="583.375" y="296.717" width="297.602" height="166.074" filterUnits="userSpaceOnUse" color-interpolation-filters="sRGB"><feFlood flood-opacity="0" result="BackgroundImageFix"/><feBlend in="SourceGraphic" in2="BackgroundImageFix" result="shape"/><feGaussianBlur stdDeviation="8" result="effect1_foregroundBlur_1558_2602"/></filter><filter id="d" x="793.261" y="200.304" width="42.873" height="42.878" filterUnits="userSpaceOnUse" color-interpolation-filters="sRGB"><feFlood flood-opacity="0" result="BackgroundImageFix"/><feBlend in="SourceGraphic" in2="BackgroundImageFix" result="shape"/><feGaussianBlur stdDeviation="2" result="effect1_foregroundBlur_1558_2602"/></filter></defs></svg>