<svg width="88" height="69" viewBox="0 0 88 69" fill="none" xmlns="http://www.w3.org/2000/svg">
<mask id="path-1-inside-1_1882_155" fill="white">
<path d="M31.5227 8.69824H47.26V35.1369H31.5227V8.69824Z"/>
</mask>
<path d="M31.5227 35.1369H25.2278V41.4318H31.5227V35.1369ZM47.26 28.842H31.5227V41.4318H47.26V28.842ZM37.8176 35.1369V8.69824H25.2278V35.1369H37.8176Z" fill="#1DD38F" mask="url(#path-1-inside-1_1882_155)"/>
<mask id="path-3-inside-2_1882_155" fill="white">
<path d="M57.4885 26.4805H41.7512V0.0418339H57.4885V26.4805Z"/>
</mask>
<path d="M57.4885 0.0418339H63.7834V-6.25308H57.4885V0.0418339ZM41.7512 6.33675H57.4885V-6.25308H41.7512V6.33675ZM51.1936 0.0418339V26.4805H63.7834V0.0418339H51.1936Z" fill="#1DD38F" mask="url(#path-3-inside-2_1882_155)"/>
<path d="M5.61121 54.3085H10.2306V56.959H2.02678V40.9048H5.61121V54.3085ZM18.7144 56.959L18.1591 54.0561H14.4989L13.9436 56.959H10.3844L14.0193 40.9048H18.6134L22.3493 56.959H18.7144ZM15.0038 51.4309H17.629L16.3164 44.6407L15.0038 51.4309ZM30.3108 40.9048H33.6175V56.959H30.3865L26.8778 47.3416V56.959H23.5963V40.9048H26.8525L30.3108 50.4969V40.9048ZM36.0491 40.9048H42.7383C44.8755 40.9048 45.9441 41.8303 45.9441 43.6814V54.1571C45.9441 56.025 44.8755 56.959 42.7383 56.959H36.0491V40.9048ZM42.3345 53.8542V44.0096C42.3345 43.5889 42.1073 43.3785 41.6529 43.3785H39.6588V54.4852H41.6529C42.1073 54.4852 42.3345 54.2749 42.3345 53.8542ZM62.0829 40.9048H65.6674L62.5625 56.959H58.2461L56.4539 46.4581L54.6616 56.959H50.3452L47.2404 40.9048H50.9762L52.4908 52.8949L54.6112 40.9048H58.2713L60.3917 52.8949L62.0829 40.9048ZM70.6654 54.3085H75.8148V56.959H67.0557V40.9048H75.6129V43.5552H70.6654V47.4678H74.8809V50.1183H70.6654V54.3085ZM83.9474 56.959H80.3378V51.759L76.299 40.9048H79.9844L82.13 48.4523L84.1241 40.9048H87.8095L83.9474 51.7843V56.959Z" fill="#222222"/>
</svg>
