<svg width="32" height="32" fill="none" xmlns="http://www.w3.org/2000/svg"><path d="M14 .146a.5.5 0 0 0-.5.5v2.8a11 11 0 0 0-3.3 1.362L8.221 2.831a.5.5 0 0 0-.706 0l-2.83 2.83a.5.5 0 0 0 0 .707l1.98 1.98A11 11 0 0 0 5.3 11.646H2.5a.5.5 0 0 0-.499.5v4c0 .277.223.499.5.499h2.8a11 11 0 0 0 1.363 3.301l-1.977 1.977a.498.498 0 0 0 0 .707l2.83 2.83a.497.497 0 0 0 .706 0l1.98-1.98a11 11 0 0 0 3.297 1.366v2.8a.5.5 0 0 0 .5.5h4a.5.5 0 0 0 .5-.5v-2.8a11.029 11.029 0 0 0 3.3-1.362l1.978 1.976a.497.497 0 0 0 .706 0l2.83-2.83a.5.5 0 0 0 0-.707l-1.98-1.98a11.002 11.002 0 0 0 1.367-3.297h2.8a.5.5 0 0 0 .499-.5v-4a.499.499 0 0 0-.5-.5h-2.8a11 11 0 0 0-1.363-3.301l1.977-1.976a.5.5 0 0 0 0-.708l-2.83-2.83a.5.5 0 0 0-.706 0l-1.98 1.98A11 11 0 0 0 18.5 3.446v-2.8a.499.499 0 0 0-.5-.498l-4-.002Z" fill="#60C5B8"/><path d="M16 5.015a8.522 8.522 0 0 0-8.522 8.522c.002.243.014.487.037.73.367 5.514 4.795 6.804 4.795 10.34h.97a1.196 1.196 0 0 0-.932 1.16v4.87c0 .675.543 1.218 1.217 1.218h4.87c.674 0 1.217-.543 1.217-1.218v-4.87a1.197 1.197 0 0 0-.932-1.16h.97c0-3.51 4.364-4.808 4.79-10.22A8.522 8.522 0 0 0 16 5.014Z" fill="#FCD062"/><path d="M12.348 24.607v6.03c0 .675.543 1.218 1.217 1.218h4.87c.674 0 1.217-.543 1.217-1.218v-6.03h-7.304Z" fill="#576D7E"/><path d="M11.749 25.16h8.502m-8.502 2.434h8.502m-8.502 2.435h8.502" stroke="#2B4255" stroke-linecap="round" stroke-linejoin="round"/></svg>