<svg width="1188" height="831" fill="none" xmlns="http://www.w3.org/2000/svg"><path d="M860.117 107.657a5.18 5.18 0 1 1-7.324-7.327 5.18 5.18 0 0 1 7.324 7.327Z" fill="#D67747"/><path d="M858.865 106.42a3.342 3.342 0 1 1 0-4.779 3.384 3.384 0 0 1 0 4.779Z" fill="#fff"/><path d="m885.754 122.634-2.379-2.394 8.51-8.457 2.379 2.394-8.51 8.457Zm-9.58-9.617-2.379-2.394 8.51-8.457 2.379 2.394-8.51 8.457Z" fill="#FED11B"/><path d="m870.352 820.939-.133.092s.142-.084.133-.092Zm1.425-68.614 2.14-8.619 8.66 2.149-2.139 8.62-8.661-2.15Zm-14.583-3.627 2.138-8.62 8.661 2.148-2.138 8.62-8.661-2.148Zm-14.578-3.612 2.14-8.619 8.66 2.149-2.14 8.62-8.66-2.15Zm-14.576-3.615 2.14-8.619 8.66 2.149-2.14 8.62-8.66-2.15Zm-14.584-3.624 2.14-8.62 8.652 2.148-2.14 8.62-8.652-2.148Zm-14.585-3.615 2.14-8.619 8.66 2.149-2.14 8.62-8.66-2.15Zm62.33 30.799 2.138-8.62 15.562 3.859-2.138 8.62-15.562-3.859Zm-9.395 12.409 2.138-8.62 21.489 5.33-2.138 8.62-21.489-5.33Zm-9.507 13.096 2.138-8.62 27.409 6.798-2.138 8.62-27.409-6.798Zm7.49 20.516 2.894-11.669 15.562 3.859-2.894 11.67-15.562-3.86Zm-21.482-5.332 2.894-11.669 15.562 3.859-2.895 11.669-15.561-3.859Zm-21.484-5.324 2.895-11.67 15.561 3.86-2.894 11.669-15.562-3.859Zm35.688-40.038 2.138-8.62 12.739 3.16-2.138 8.62-12.739-3.16Zm-9.307 12.547 2.138-8.62 12.74 3.16-2.138 8.62-12.74-3.16Zm-9.428 12.661 2.138-8.62 12.74 3.16-2.138 8.62-12.74-3.16Zm-18.725-4.737 2.138-8.62 12.739 3.16-2.138 8.62-12.739-3.16Zm9.426-12.654 2.138-8.62 12.739 3.16-2.138 8.62-12.739-3.16Zm9.434-12.355 2.138-8.62 12.74 3.16-2.138 8.62-12.74-3.16Zm-18.661-4.62 2.138-8.62 12.74 3.16-2.139 8.62-12.739-3.16Z" fill="#fff"/><path d="M989.91 263.637 834.376 107.123l26.603-26.437 155.531 156.515-26.6 26.436Z" fill="#ED995A"/><path d="m1000.55 238.143-2.383-2.395 8.513-8.457 2.38 2.395-8.51 8.457Zm-9.602-9.602-2.379-2.394 8.51-8.457 2.379 2.394-8.51 8.457Zm-9.55-9.64-2.379-2.394 8.51-8.457 2.38 2.394-8.511 8.457Zm-9.574-9.614-2.379-2.395 8.51-8.456 2.379 2.394-8.51 8.457Zm-9.55-9.641-2.379-2.394 8.51-8.457 2.38 2.395-8.511 8.456Zm-9.581-9.609-2.379-2.394 8.51-8.457 2.38 2.394-8.511 8.457Zm-9.542-9.64-2.379-2.394 8.51-8.457 2.38 2.395-8.511 8.456Zm-9.589-9.628-2.38-2.395 8.51-8.457 2.38 2.395-8.51 8.457Zm-9.55-9.632-2.38-2.395 8.511-8.456 2.379 2.394-8.51 8.457Zm-9.581-9.616-2.38-2.394 8.511-8.457 2.379 2.394-8.51 8.457Zm-9.552-9.632-2.379-2.394 8.51-8.457 2.379 2.394-8.51 8.457Zm-9.574-9.625-2.38-2.394 8.511-8.457 2.379 2.394-8.51 8.457Z" fill="#FED11B"/><path d="M989.909 263.633 834.375 107.119l2.477-2.462 155.534 156.515-2.477 2.461Z" fill="#D67747"/><path d="m1167.25 285.992 20.08 5.706-.99-22.023-6.66-1.897-12.43 18.214Z" fill="#F9F4E1"/><path d="m1179.68 267.779 6.66 1.896-.49-10.928-6.17 9.032Zm-64.06 201.77 3.48-12.215 19.05 5.417-3.47 12.215a2.718 2.718 0 0 1-3.35 1.864l-13.82-3.93a2.724 2.724 0 0 1-.95-.476c-.28-.22-.52-.494-.69-.806a2.587 2.587 0 0 1-.33-1.01c-.04-.355-.01-.715.08-1.059Z" fill="#FED11B"/><path d="m1118.59 457.197 1.25-4.404 20.08 5.707-1.25 4.404-20.08-5.707Z" fill="#F7F3E4"/><path d="m1119.81 452.771 1.26-4.403 20.07 5.707-1.25 4.404-20.08-5.708Z" fill="#FCF4D4"/><path d="m1115.94 448.857 1.24-4.395 20.03 5.635-1.23 4.395-20.04-5.635Z" fill="#F7F3E4"/><path d="m1122.32 443.975 1.25-4.404 20.08 5.707-1.25 4.404-20.08-5.707Z" fill="#FCF4D4"/><path d="m1123.57 439.569 1.26-4.404 20.07 5.707-1.25 4.404-20.08-5.707Z" fill="#F7F3E4"/><path d="m1177.3 288.849-42.42 149.177-10.03-2.857 42.41-149.177 4.18-3.25a2.58 2.58 0 0 1 2.3-.452 2.573 2.573 0 0 1 1.73 1.597l1.83 4.962Z" fill="#FCEBA6"/><path d="m1187.33 291.699-42.41 149.184-10.03-2.857 42.42-149.176 4.18-3.259a2.593 2.593 0 0 1 4.03 1.145l1.81 4.963Z" fill="#FFE063"/><path d="M1178.22 599.693c-20.63-25.8-50.02-63.363-80.2-78.377l-15.45 18.865c41.77 33.779 82.42 61.684 88.33 64.717 3.06 1.671 2.18 4.545 1.9 5.748-2.28 10.026-7.93 24.288-3.77 25.658 3.72 1.228 7.66-3.342 12.54-11.697 2.55-4.336 5.01-9.883 5.61-12.799.72-3.752-4.82-6.835-8.96-12.115Zm-122.19 45.693c-1.1-7.636-6.89-77.7-18.83-105.865l-26.56 7.754c15.16 50.806 33.51 92.187 37.46 101.478.92 2.674.84 5.013.29 6.174-4.37 9.333-13.87 23.394-10.09 25.608 3.34 1.988 9.13-2.958 15.69-10.026 3.42-3.693 7.05-8.58 8.22-11.312 1.49-3.568-3.24-7.762-6.18-13.811Zm-58.055-322.708c-12.257-3.826-34.339-17.62-39.21-24.471-4.871-6.851-2.389-52.928-.685-56.755a50.097 50.097 0 0 1 3.442-6.45l-2.565-2.573c.477-3.183.226-17.98-2.949-16.535-3.175 1.446-9.85 7.52-10.176 16.334-.217 5.89 2.423 11.254 1.763 14.931-4.579 25.507-10.36 55.484-1.295 63.914 12.056 11.229 42.819 34.799 50.129 35.417 7.481.643 6.581.969 8.921-6.684 2.34-7.653-1.39-15.265-7.375-17.128Zm31.565-1.027c5.85 10.101 40.94 54.883 46.86 64.149 13.85 4.068 52.56 6.374 52.56 6.374s14.58 8.263 20.79 4.504c6.21-3.76 5.53-6.258 5.28-7.428-.59-2.774-15.33-2.757-15.39-5.848.54-2.156 1.09-4.061 1.32-4.88-4.11 2.841-6.08.619-9.65 2.089-6.02 2.507-39.33-4.244-45.28-7.001-8.86-11.58-22.08-37.823-27.22-48.55-5.14-10.728-29.27-3.409-29.27-3.409Z" fill="#F2D5CC"/><path d="M1017.72 418.359c-2.25-11.998-32.278-88.971-19.746-95.68 12.536-6.709 46.786-14.555 58.016-1.496 11.23 13.059 5.68 28.758 6.36 42.217.68 13.46-2.26 33.42 1.42 46.679-5.54 1.044-46.05 8.28-46.05 8.28Z" fill="url(#a)"/><path d="M1016.27 262.882c12.6-2.373 30.91 8.815 31.25 37.263.33 28.448 15.2 52.168 32.83 49.294-7.52 21.188-17.65 35.45-38.44 31.84-12.53-2.18-26.32-14.98-33.71-37.262-5.76-17.362-8.597-29.535-11.345-49.294-3.058-21.748 8.635-29.811 19.415-31.841Z" fill="url(#b)"/><path d="M1017.72 418.359c-4.45 13.134-35.429 62.294-18.828 140.771 48.728 7.319 91.698-1.303 124.288-34.706-4.07-26.034-23.17-85.796-59.4-114.345-11.31 2.047-46.06 8.28-46.06 8.28Z" fill="url(#c)"/><g filter="url(#d)"><path d="M1155.2 104.248c.96-.092 1.85-.54 2.5-1.258.65-.718 1-1.652 1-2.618 0-2.29-.13-4.596-.39-6.918a89.064 89.064 0 0 0-1.01-6.851 3.887 3.887 0 0 0-1.49-2.352 3.893 3.893 0 0 0-2.69-.748l-5.94.602a3.876 3.876 0 0 1-2.52-.622c-.75-.49-1.3-1.22-1.57-2.069a61.958 61.958 0 0 0-2.16-5.698 3.9 3.9 0 0 1-.2-2.586c.23-.86.75-1.614 1.47-2.134l4.85-3.5a3.873 3.873 0 0 0 1.54-2.35c.2-.947.04-1.936-.44-2.773a77.27 77.27 0 0 0-8.11-11.212 3.875 3.875 0 0 0-5.19-.576l-4.85 3.5a3.893 3.893 0 0 1-4.88-.284 62.414 62.414 0 0 0-4.73-3.851 3.898 3.898 0 0 1-1.47-2.142c-.23-.86-.15-1.773.21-2.587l2.45-5.456c.39-.88.45-1.876.15-2.795a3.845 3.845 0 0 0-1.76-2.176 76.825 76.825 0 0 0-12.61-5.681 3.906 3.906 0 0 0-2.81.116 3.92 3.92 0 0 0-1.99 1.972l-2.45 5.465c-.37.81-1 1.47-1.8 1.869-.8.4-1.7.515-2.57.328-1.98-.418-3.98-.74-6.02-.97a3.877 3.877 0 0 1-2.34-1.12 3.882 3.882 0 0 1-1.12-2.347l-.6-5.948a3.89 3.89 0 0 0-3.89-3.493c-2.29 0-4.59.128-6.91.385-2.32.234-4.61.576-6.85 1.01a3.86 3.86 0 0 0-2.36 1.493c-.57.772-.83 1.73-.74 2.685l.61 5.94a3.918 3.918 0 0 1-2.69 4.094 63.14 63.14 0 0 0-5.71 2.156c-.81.36-1.73.43-2.59.198a3.897 3.897 0 0 1-2.13-1.468l-3.5-4.854a3.896 3.896 0 0 0-5.12-1.086 76.938 76.938 0 0 0-11.21 8.104 3.867 3.867 0 0 0-1.3 2.48c-.11.96.15 1.927.72 2.708l3.5 4.855a3.896 3.896 0 0 1-.29 4.887 62.958 62.958 0 0 0-3.85 4.72 3.875 3.875 0 0 1-2.14 1.467c-.86.23-1.77.157-2.59-.205l-5.45-2.456a3.894 3.894 0 0 0-2.8-.154 3.91 3.91 0 0 0-2.17 1.766 75.887 75.887 0 0 0-5.69 12.633c-.31.916-.27 1.915.11 2.802a3.886 3.886 0 0 0 1.98 1.994l5.45 2.448a3.907 3.907 0 0 1 1.88 1.799c.4.797.51 1.708.32 2.579a62.468 62.468 0 0 0-.97 6.015 3.93 3.93 0 0 1-1.12 2.343 3.893 3.893 0 0 1-2.35 1.116l-5.94.602a3.88 3.88 0 0 0-2.5 1.263 3.854 3.854 0 0 0-1 2.622c0 2.289.15 4.595.39 6.909.25 2.314.58 4.612 1.01 6.851.19.943.72 1.782 1.5 2.355.77.572 1.73.838 2.68.745l5.95-.602c.89-.086 1.78.134 2.52.624a3.91 3.91 0 0 1 1.57 2.066 60.803 60.803 0 0 0 2.16 5.699c.36.815.43 1.729.2 2.59a3.894 3.894 0 0 1-1.48 2.138l-4.84 3.526a3.864 3.864 0 0 0-1.09 5.113 76.042 76.042 0 0 0 8.1 11.213 3.886 3.886 0 0 0 2.48 1.293c.96.108 1.92-.145 2.7-.709l4.86-3.5a3.88 3.88 0 0 1 2.49-.723 3.91 3.91 0 0 1 2.4 1.007 66.578 66.578 0 0 0 4.72 3.851c.72.524 1.24 1.28 1.47 2.141.23.861.15 1.775-.21 2.588l-2.45 5.456c-.4.879-.45 1.876-.16 2.794.3.919.93 1.692 1.77 2.169a75.626 75.626 0 0 0 12.61 5.681c.92.312 1.92.27 2.8-.116a3.9 3.9 0 0 0 2-1.973l2.45-5.455a3.889 3.889 0 0 1 4.37-2.198c1.98.418 3.98.741 6.02.97.88.091 1.71.485 2.34 1.115.63.63 1.03 1.457 1.12 2.343l.61 5.949c.09.961.54 1.852 1.26 2.499a3.89 3.89 0 0 0 2.61 1.002c2.29 0 4.6-.151 6.92-.393 2.32-.242 4.6-.576 6.85-1.011a3.92 3.92 0 0 0 2.36-1.491c.57-.772.83-1.73.74-2.686l-.61-5.949c-.09-.887.13-1.777.63-2.521a3.871 3.871 0 0 1 2.07-1.564 63.16 63.16 0 0 0 5.7-2.164 3.879 3.879 0 0 1 4.72 1.278l3.5 4.846c.56.784 1.4 1.331 2.35 1.531a3.87 3.87 0 0 0 2.76-.445 75.598 75.598 0 0 0 11.22-8.104 3.879 3.879 0 0 0 1.3-2.483 3.9 3.9 0 0 0-.72-2.706l-3.5-4.846a3.895 3.895 0 0 1-.72-2.494c.05-.889.4-1.734 1-2.393a61.481 61.481 0 0 0 3.85-4.729 3.935 3.935 0 0 1 2.15-1.462c.86-.23 1.77-.159 2.58.2l5.46 2.457a3.895 3.895 0 0 0 5.01-1.613 76.72 76.72 0 0 0 5.68-12.616c.31-.915.27-1.914-.12-2.8a3.848 3.848 0 0 0-1.97-1.987l-5.46-2.456a3.892 3.892 0 0 1-1.87-1.796 3.886 3.886 0 0 1-.33-2.574c.42-1.983.74-3.988.97-6.015.1-.888.49-1.716 1.12-2.347a3.905 3.905 0 0 1 2.35-1.121l5.91-.635Zm-69.68 26.343a29.576 29.576 0 0 1-16.86-3.3 29.522 29.522 0 0 1-12.19-12.113 29.52 29.52 0 0 1-3.4-16.841 29.546 29.546 0 0 1 6.53-15.894 29.6 29.6 0 0 1 14.25-9.587 29.621 29.621 0 0 1 17.19-.05 29.63 29.63 0 0 1 14.31 9.505 29.639 29.639 0 0 1 6.62 15.855 29.6 29.6 0 0 1-6.51 21.69 29.605 29.605 0 0 1-19.94 10.735Z" fill="#ECE4C5"/><path d="M1078.58 62.357a38.97 38.97 0 0 0-20.88 8.729 38.994 38.994 0 0 0-12.52 18.858 39.04 39.04 0 0 0 .07 22.634 39.02 39.02 0 0 0 12.63 18.783 38.982 38.982 0 0 0 43.12 4.126 39.027 39.027 0 0 0 15.97-16.047 39.089 39.089 0 0 0 4.36-22.21 39.057 39.057 0 0 0-14.15-26.289 39.019 39.019 0 0 0-28.6-8.584Zm6.94 68.234a29.577 29.577 0 0 1-16.86-3.301 29.635 29.635 0 0 1-12.19-12.111 29.61 29.61 0 0 1 3.12-32.733 29.588 29.588 0 0 1 14.26-9.589 29.592 29.592 0 0 1 17.18-.053 29.53 29.53 0 0 1 14.31 9.501 29.565 29.565 0 0 1 5.53 27.347 29.414 29.414 0 0 1-5.41 10.201 29.653 29.653 0 0 1-8.9 7.353 29.635 29.635 0 0 1-11.04 3.385Z" fill="#FCF4D4"/><path d="M1111.74 58.497a4.325 4.325 0 0 1 6.68-.024c.55.658.88 1.464.97 2.314.09.85-.08 1.707-.48 2.462a4.32 4.32 0 0 1-7.62.024c-.27-.5-.44-1.047-.5-1.611a4.324 4.324 0 0 1 .95-3.165Zm-71.87 13.443a4.346 4.346 0 0 1-1.41-2.08 4.288 4.288 0 0 1 0-2.509c.24-.819.72-1.546 1.38-2.09a4.322 4.322 0 0 1 4.78-.486 4.38 4.38 0 0 1 1.78 1.768c.4.752.57 1.608.49 2.458a4.306 4.306 0 0 1-.95 2.32 4.336 4.336 0 0 1-2.91 1.563 4.303 4.303 0 0 1-3.16-.944Zm13.44 71.877a4.327 4.327 0 0 1-6.68.024 4.384 4.384 0 0 1-.97-2.314c-.08-.85.08-1.707.48-2.462a4.324 4.324 0 0 1 8.12 1.587 4.36 4.36 0 0 1-.95 3.165Zm71.88-13.443a4.323 4.323 0 0 1 1.41 4.589 4.351 4.351 0 0 1-1.39 2.09 4.318 4.318 0 0 1-4.78.486 4.38 4.38 0 0 1-1.78-1.768 4.37 4.37 0 0 1-.49-2.459 4.309 4.309 0 0 1 3.86-3.886 4.332 4.332 0 0 1 3.17.948Z" fill="#fff"/></g><g filter="url(#e)"><path d="M941.654 623.922a30.376 30.376 0 0 0 1.195-3.977c.643-4.177 8.355-5.848 11.471-6.182l-.936-9.191c-3.125.318-10.995.243-12.482-3.751a28.87 28.87 0 0 0-1.963-3.651c-2.507-3.434 1.754-10.026 3.743-12.482l-7.144-5.849c-1.98 2.432-7.603 7.946-11.471 6.166a30.64 30.64 0 0 0-3.969-1.178c-4.177-.66-5.848-8.355-6.182-11.479l-9.191.935c.318 3.125.243 10.995-3.743 12.483a28.94 28.94 0 0 0-3.651 1.963c-3.434 2.507-10.026-1.755-12.482-3.735l-5.848 7.144c2.431 1.98 7.945 7.603 6.174 11.471a30.623 30.623 0 0 0-1.195 3.977c-.643 4.177-8.355 5.848-11.471 6.183l.936 9.19c3.124-.317 10.995-.234 12.482 3.751a28.802 28.802 0 0 0 1.963 3.651c2.507 3.434-1.754 10.026-3.743 12.483l7.144 5.848c1.98-2.431 7.603-7.945 11.479-6.174 1.296.489 2.625.886 3.977 1.186 4.178.652 5.849 8.355 6.183 11.48l9.19-.936c-.317-3.125-.242-10.995 3.751-12.482a28.762 28.762 0 0 0 3.652-1.964c3.433-2.506 10.025 1.763 12.482 3.743l5.848-7.143c-2.456-1.988-7.97-7.636-6.199-11.48Zm-26.819 3.15a13.853 13.853 0 1 1 11.87-9.799 13.844 13.844 0 0 1-11.87 9.799Z" fill="#FED11B"/></g><path d="m864.229 248.779-133.612 29a11.408 11.408 0 0 0-8.722 13.56l16.1 74.175a11.4 11.4 0 0 0 13.559 8.722l18.381-3.985c.911 7.11.251 17.403-2.79 24.304 9.666-5.957 21.196-15.114 22.742-28.632l95.245-20.686a11.405 11.405 0 0 0 8.802-9.112 11.404 11.404 0 0 0-.079-4.448l-16.1-74.175a11.408 11.408 0 0 0-13.526-8.723Z" fill="#ECE4C5"/><path d="M759.215 319.521a2.398 2.398 0 0 1-.509-4.746l95.312-20.695a2.41 2.41 0 0 1 2.729 1.866 2.403 2.403 0 0 1-1.71 2.83l-95.312 20.695c-.168.033-.339.05-.51.05Zm22.918 23.736a2.405 2.405 0 0 1-.502-4.754l61.367-13.326a2.401 2.401 0 0 1 2.599.92 2.393 2.393 0 0 1 .029 2.757 2.417 2.417 0 0 1-1.609 1.018l-61.366 13.327a2.26 2.26 0 0 1-.518.058Zm-19.944-10.026a2.408 2.408 0 0 1-1.938-3.807c.344-.48.852-.817 1.429-.947l95.312-20.703a2.42 2.42 0 0 1 1.887.259 2.418 2.418 0 0 1 1.107 1.549 2.41 2.41 0 0 1-1.065 2.544 2.398 2.398 0 0 1-.909.343l-95.305 20.704a2.248 2.248 0 0 1-.518.058Zm44.457-43.253a3.335 3.335 0 0 0-.954-1.681 3.342 3.342 0 1 0 .954 1.681Zm-13.435 2.924a3.341 3.341 0 1 0-6.518 1.474 3.341 3.341 0 0 0 6.518-1.474Zm20.336-4.42a3.341 3.341 0 1 1 6.544-1.351 3.341 3.341 0 0 1-6.544 1.351Z" fill="#fff"/><path d="m661.196 57.427 121.597 76.865a11.988 11.988 0 0 1 3.727 16.543l-42.66 67.541a12 12 0 0 1-16.585 3.685l-16.709-10.553c-3.468 6.684-6.526 17.111-6.008 25.065-7.402-9.366-15.506-22.558-12.156-36.503l-86.69-54.849a12.004 12.004 0 0 1-3.76-16.551l42.668-67.508a11.997 11.997 0 0 1 12.202-5.427c1.555.27 3.042.846 4.374 1.692Z" fill="#FED11B"/><path d="M740.35 165.248a2.42 2.42 0 0 1-1.287-.368l-86.748-54.825a2.402 2.402 0 0 1-.748-3.313 2.398 2.398 0 0 1 3.312-.747l86.758 54.824a2.4 2.4 0 0 1 .159 3.952 2.405 2.405 0 0 1-1.446.477Zm-31.214 15.197a2.423 2.423 0 0 1-1.287-.376l-55.86-35.299a2.425 2.425 0 0 1 2.598-4.094l55.861 35.299a2.405 2.405 0 0 1 .155 3.953 2.402 2.402 0 0 1-1.442.484l-.025.033Zm23.327-2.715a2.423 2.423 0 0 1-1.287-.376l-86.748-54.825a2.404 2.404 0 0 1 .8-4.305c.6-.15 1.235-.062 1.773.245l86.749 54.791a2.404 2.404 0 0 1 1.019 2.7 2.407 2.407 0 0 1-2.306 1.736v.034Zm1.345-42.903c-.452 0-.895-.127-1.278-.367l-49.353-31.189a2.405 2.405 0 0 1-.747-3.313 2.4 2.4 0 0 1 3.312-.748l49.353 31.189a2.4 2.4 0 0 1 1.027 2.7 2.4 2.4 0 0 1-2.314 1.728Z" fill="#fff"/><path d="m504.727 98.166-20.579 48.082 48.074 20.587a52.288 52.288 0 0 0 .475-40.03 52.298 52.298 0 0 0-27.97-28.639Z" fill="#FED11B"/><path d="M514.644 164.905a35.73 35.73 0 0 1-33.48 16.964 35.733 35.733 0 1 1 12.175-70.143l2.665-6.241a42.466 42.466 0 0 0-36.88 75.089 42.463 42.463 0 0 0 44.917 3.215 42.468 42.468 0 0 0 16.869-16.252l-6.266-2.632Z" fill="#ED995A"/><path d="M488.406 297.112c4.357-26.873-13.896-52.191-40.769-56.548-26.873-4.357-52.191 13.896-56.548 40.769-4.357 26.873 13.895 52.191 40.769 56.548 26.873 4.357 52.19-13.896 56.548-40.769Z" fill="#F7F3E4"/><path d="M449.508 302.618a1.605 1.605 0 0 1-1.587-1.395l-4.512-34.556a1.61 1.61 0 0 1 1.369-1.902 1.604 1.604 0 0 1 1.806 1.493l4.512 34.555a1.607 1.607 0 0 1-1.379 1.797l-.209.008Zm11.53-5.99a1.605 1.605 0 0 1-1.587-1.387l-4.545-34.564a1.591 1.591 0 0 1 .271-1.248 1.61 1.61 0 0 1 1.747-.604 1.601 1.601 0 0 1 1.156 1.442l4.512 34.556a1.604 1.604 0 0 1-1.378 1.796l-.176.009Z" fill="#FFE063"/><path d="M439.381 296.753a1.605 1.605 0 0 1-.735-3.024l29.058-15.097a1.608 1.608 0 0 1 1.773.196 1.612 1.612 0 0 1 .497 1.713 1.6 1.6 0 0 1-.791.94l-29.066 15.089a1.55 1.55 0 0 1-.736.183Zm-1.788-13.718a1.604 1.604 0 0 1-.743-3.025l29.066-15.089a1.608 1.608 0 0 1 2.078.724 1.604 1.604 0 0 1-.599 2.117l-29.066 15.097c-.229.114-.48.174-.736.176Z" fill="#FFE063"/><path d="M424.703 318.526a21.342 21.342 0 0 1-6.399-.994 21.131 21.131 0 0 1-4.616-38.154 21.132 21.132 0 0 1 15.477-2.635 1.603 1.603 0 0 1 1.058 2.529 1.598 1.598 0 0 1-1.752.596 17.927 17.927 0 0 0-18.062 6.613 17.928 17.928 0 0 0-1.68 19.162 17.931 17.931 0 0 0 32.442-1.337 1.606 1.606 0 0 1 2.926.039c.164.38.176.809.032 1.198a21.168 21.168 0 0 1-19.467 12.983h.041Z" fill="#FFE063"/><path d="M582.067 436.614c-2.381.744-4.628 2.641-6.4 4.178-1.395 1.195-3.659.977-5.38.986-2.081-2.682-3.969-5.063-4.829-5.991-1.813-1.955-3.994-3.342-2.072 1.362-1.671-1.671-3.092-2.999-3.827-3.601-2.089-1.729-4.461-2.782-1.671 1.897-2.256-1.421-4.177-2.59-5.121-3.066-2.632-1.354-5.414-1.83-.084 3.408-2.297-.777-4.177-1.387-5.08-1.604-3.191-.76-6.333-.459 3.083 4.696 8.689 4.745 12.892 9.031 14.956 12.056.342.075 10.644-2.131 10.644-2.131-.493-1.571 1.403-5.247 5.43-8.914 3.752-3.451 2.256-3.877.351-3.276Z" fill="#F2D5CC"/><path d="M605.879 490.094c-6.968-1.521-29.626-41.307-29.626-41.307a74.045 74.045 0 0 0-10.645 2.131c.577 10.945 23.829 60.08 33.955 62.444 11.371 2.665 28.632-1.537 39.702-4.954-1.17-6.099-4.587-20.253-6.366-27.53-10.569 5.69-21.456 10.435-27.02 9.216Z" fill="#ED995A"/><path d="M655.74 467.669c-5.013 2.908-13.811 8.355-22.843 13.21 1.78 7.277 5.197 21.43 6.367 27.529 6.35-1.955 10.669-3.651 10.669-3.651l5.807-37.088Z" fill="#FED11B"/><path d="M789.594 503.988s-35.985 25.859-42.694 23.394c-3.342-1.228-4.62-4.47-8.204-13.209-4.136 4.428-16 11.429-19.877 15.874 10.185 14.396 16.368 19.785 21.999 21.681 9.859 3.342 51.374-31.748 56.922-41.231a66.5 66.5 0 0 0-8.146-6.509Z" fill="#ED995A"/><path d="m727.559 489.96-.151-.225a2.312 2.312 0 0 0-.133-.301c-6.174-9.567-17.103-18.498-24.94-20.679-7.836-2.18-20.051-3.776-20.051-3.776-4.512-1.445-18.958-3.409-26.577 2.69-8.531 6.818-13.936 66.43-26.126 91.904 9.14 3.25 59.654 26.335 59.654 26.335 4.177-8.856 15.674-36.829 27.178-59.487.535.777 1.855 2.941 2.373 3.676 3.877-4.453 15.741-11.455 19.877-15.874-2.624-6.492-7.344-17.729-11.104-24.263Z" fill="url(#f)"/><path d="M797.741 510.538a131.413 131.413 0 0 0 15.314-10.21c3.042-2.397 6.509-8.154 8.088-10.61-1.454-7.386-11.655-1.888-14.755 2.406-4.904 2.907-6.216 5.013-7.987 3.852-3.117-2.098.936-9.909-.919-12.199-2.507 1.203-3.267 7.729-6.091 11.104-2.824 3.375-.835 6.859-1.796 9.107l8.146 6.55Z" fill="#F2D5CC"/><path d="M686.336 456.792c-1.395 2.949-4.002 8.187-4.002 8.187 1.796 3.56 11.02 6.609 20.052 3.777.877-5.849 3.843-17.629 3.843-17.629l-19.893 5.665Z" fill="#EDD1CA"/><path d="M679.986 423.765c-1.52 6.065-6.55 24.154-3.342 30.963 2.657 5.598 8.723 6.868 18.774 4.102 10.051-2.765 11.496-20.645 13.092-25.741 2.556-8.054-26.352-18.114-28.524-9.324Z" fill="#F3DAD2"/><path d="M679.067 416.646c-2.164-3.233-7.519-15.966-.251-10.402-1.27-3.818 4.888-12.131 10.185-.15 5.297 11.981 14.203 9.616 14.203 9.616-2.339-2.172-3.342-11.764 4.813-1.671 8.154 10.093 10.861 14.621 6.007 21.547-4.854 6.927-6.876 25.5-10.444 27.329-1.671.836-2.824-2.74-.76-9.9 1.955-6.776-3.977-4.178-1.821-9.717a2.167 2.167 0 0 0 1.261 1.537c1.212.46 2.674-.451 3.275-2.03.602-1.579.101-3.242-1.111-3.701a2.024 2.024 0 0 0-1.587.117c2.214-4.838 3.918-9.049 1.503-11.271-2.982-2.74-22.023-1.186-26.735-6.684-4.712-5.497-1.93-6.96 1.462-4.62ZM496.295 744.099a6.8 6.8 0 0 1-.401.476c-5.23 5.222-32.584.978-33.862 7.52-1.404 7.043 8.89 8.965 20.503 9.24 16.133.393 21.246 2.181 23.293-2.373.986-2.205 3.1-5.773 4.37-7.92a22.928 22.928 0 0 1-13.903-6.943Zm76.573 43.462a28.684 28.684 0 0 1-2.222 3.534c-3.961 5.13-5.607 7.795-3.576 11.772 3.007 5.849 13.593 29.886 21.722 26.736 11.254-4.42-6.358-27.27-2.682-36.594-3.099.568-7.761.108-13.242-5.448Z" fill="#FED11B"/><path d="M643.157 714.305c5.807-11.613 35.517-73.681 46.111-128.406-11.396-5.18-59.654-26.335-59.654-26.335-13.368 16.894-63.765 64.584-80.015 87.226-15.874 22.123-47.004 89.397-53.304 97.309a22.925 22.925 0 0 0 13.902 6.934c15.532-26.267 50.263-48.884 62.336-80.374 22.208-16.885 52.544-38.365 60.991-48.232-8.998 26.418-17.604 70.949-19.158 76.915-15.272 17.428-32.024 71.016-41.473 88.219 5.48 5.556 10.142 6.016 13.242 5.406.113-.29.25-.569.409-.836 5.206-8.714 50.807-66.212 56.613-77.826Z" fill="url(#g)"/><path d="M561.43 667.276c-3.701 5.23 3.484 7.185-14.37 32.066-8.722 12.148-30.687 29.108-39.661 51.199.92.233 1.855.398 2.799.493 15.532-26.268 50.263-48.885 62.336-80.374 22.207-16.886 52.544-38.366 60.991-48.233-20.887 11.755-37.23 21.99-49.645 31.565-12.415 9.574-18.748 8.029-22.45 13.284Z" fill="#FED11B"/><path d="M597.573 397.772a6.424 6.424 0 0 0-1.821-6.332 6.415 6.415 0 0 0 4.595-4.713 6.227 6.227 0 0 0-2.164-6.582 6.239 6.239 0 0 0-2.172-1.096l-54.307-13.635a6.243 6.243 0 0 0-7.452 4.721 6.454 6.454 0 0 0 1.829 6.333 6.553 6.553 0 0 0-4.592 4.712 6.551 6.551 0 0 0 1.818 6.324 6.432 6.432 0 0 0-4.595 4.713 6.242 6.242 0 0 0 4.336 7.686l54.307 13.627a6.243 6.243 0 0 0 7.453-4.721 6.44 6.44 0 0 0-1.83-6.324 6.44 6.44 0 0 0 4.595-4.713Z" fill="#D8C36F"/><path d="m560.177 406.72-27.145-6.817s1.98 11.296 3.125 12.532c1.145 1.237 2.005 1.429 4.278 1.997l16.751 4.177 16.76 4.178c2.264.568 3.133.785 4.712.267 1.579-.518 8.664-9.549 8.664-9.549l-27.145-6.785Z" fill="#FED11B"/><path d="M590.004 391.598a1.52 1.52 0 0 1-.392-.042l-48.158-12.098a1.603 1.603 0 0 1 .785-3.108l48.15 12.098a1.595 1.595 0 0 1-.385 3.15Zm-2.773 11.045c-.133 0-.265-.017-.393-.05l-48.149-12.106a1.616 1.616 0 0 1-1.048-.713 1.611 1.611 0 0 1-.203-1.251 1.59 1.59 0 0 1 .768-1.008 1.593 1.593 0 0 1 1.26-.136l48.149 12.089a1.609 1.609 0 0 1 .671 2.751 1.606 1.606 0 0 1-1.055.407v.017Z" fill="#FFE063"/><path d="M654.655 310.714a68.222 68.222 0 0 0-14.745-61.458 68.228 68.228 0 0 0-111.358 12.234 68.228 68.228 0 0 0-1.05 63.194c.083.167.509.835.618 1.061 11.204 19.333 14.788 34.94 13.602 39.669l27.145 6.817 27.145 6.818c1.186-4.721 11.747-16.71 30.696-28.407.217-.133.835-.568.936-.643a67.879 67.879 0 0 0 27.011-39.285Z" fill="#F3B378"/><path d="M545.006 366.258c.618-9.416-4.178-23.294-12.917-38.934l-1.295-2.507a64.444 64.444 0 0 1 6.92-69.476 64.434 64.434 0 0 1 66.131-22.395 64.44 64.44 0 0 1 20.992 115.482l-2.331 1.613c-15.106 9.616-26.051 20.31-29.744 28.181l-47.756-11.964Z" fill="#ED995A"/><path d="M635.372 251.604a69.01 69.01 0 0 1 7.168 51.382c-4.094 16.292-15.682 30.078-29.484 39.627l-2.507 1.738c-16.233 10.36-27.988 21.857-31.99 30.312l14.203 3.559c3.726-7.87 14.671-18.565 29.777-28.206l2.331-1.613a64.422 64.422 0 0 0 27.355-46.001 64.417 64.417 0 0 0-16.853-50.798Z" fill="#D67747"/><path d="M545.857 249.732c-3.985 4.11-5.28 9.324-2.891 11.638 2.39 2.314 7.52.836 11.538-3.258 4.019-4.094 5.281-9.324 2.899-11.639-2.381-2.314-7.561-.86-11.546 3.259Z" fill="#fff"/><path d="m564.354 366.876-3.108-.777 10.026-39.744c2.164-8.639-.117-18.523-6.793-29.376a1.603 1.603 0 0 1 .579-2.122 1.602 1.602 0 0 1 2.153.451c7.144 11.622 9.55 22.324 7.161 31.832l-10.018 39.736Zm14.137 3.559-3.108-.785 9.975-39.744c2.39-9.508 9.575-17.813 21.355-24.639a1.608 1.608 0 0 1 2.279 1.793 1.604 1.604 0 0 1-.666.972c-11.004 6.417-17.687 14.045-19.86 22.684l-9.975 39.719Z" fill="#F7C479"/><path d="M605.953 303.679a.832.832 0 0 1-.752-.535.833.833 0 0 1 .485-1.019c9.19-3.25 11.872-4.77 12.666-5.405-1.788-.385-7.653.217-9.708.426l-1.137.117a.787.787 0 0 1-.848-1.022.832.832 0 0 1 .289-.424c10.961-7.962 12.908-10.544 13.234-11.279h-.176c-2.64 0-13.618 4.963-15.999 7.361a.842.842 0 0 1-.99-.057.838.838 0 0 1-.239-.962c7.929-11.371 8.999-14.479 9.057-15.315-.835.175-3.876 1.671-14.93 12.048a.834.834 0 0 1-1.266-.4.839.839 0 0 1-.021-.503c5.356-12.457 6.066-16.083 6.049-17.127-2.088 1.312-8.839 10.987-11.772 16.593a.833.833 0 0 1-1.342-.052.837.837 0 0 1-.145-.491c2.891-13.109 3.125-17.17 2.999-18.431-1.854 2.114-6.408 12.774-9.123 20.051a.832.832 0 0 1-.836.518.832.832 0 0 1-.685-.751c-.885-16-1.988-19.927-2.506-20.888-1.562 2.39-3.459 17.646-3.25 20.771a.839.839 0 0 1-1.06.748.837.837 0 0 1-.411-.264c-7.636-12.114-10.301-14.855-11.179-15.448-.183 3.066 6.183 18.915 7.52 21.305a.835.835 0 0 1-.301 1.086.833.833 0 0 1-1.094-.301c-.117-.209-10.076-21.848-7.027-23.669.953-.56 2.231-1.329 12.04 14.003.401-5.757 1.888-18.381 4.06-19.81a1.226 1.226 0 0 1 1.253-.083c.719.359 2.164 1.086 3.342 18.723 3.551-9.19 7.762-18.489 9.867-17.871.978.284 2.164.635-.977 15.874 3.384-5.506 9.257-14.278 11.479-13.217.903.434 2.24 1.069-3.926 15.933 12.382-11.363 13.635-10.294 14.403-9.625.97.835 1.212 2.673-6.466 14.036 4.712-2.69 12.206-5.949 14.395-5.23a1.293 1.293 0 0 1 .944 1.044c.126.785.385 2.373-11.579 11.271 7.335-.694 9.624-.451 9.933.911.276 1.211-.593 2.598-13.977 7.335a.726.726 0 0 1-.293.025Z" fill="#fff"/><g filter="url(#h)"><path d="M807.239 721.683a1.606 1.606 0 0 1-1.562-1.988l10.635-42.852a11.058 11.058 0 0 0-8.11-13.256 11.062 11.062 0 0 0-13.362 7.933 14.267 14.267 0 0 1-17.286 10.411 14.587 14.587 0 0 1-8.864-5.974c-2.064-3.158-2.599-7.068-1.546-11.304 3.459-13.936 9.917-26.736 15.624-38.09 12.29-24.405 21.162-42.034-1.671-57.465a1.607 1.607 0 0 1-.435-2.223 1.621 1.621 0 0 1 2.231-.434c25.19 17.011 14.796 37.655 2.757 61.567-5.623 11.171-11.998 23.828-15.373 37.413-.836 3.342-.443 6.392 1.12 8.781a11.394 11.394 0 0 0 6.959 4.621 11.055 11.055 0 0 0 13.368-8.071 14.275 14.275 0 0 1 17.347-10.678 14.245 14.245 0 0 1 5.093 2.409 14.256 14.256 0 0 1 5.612 9.514 14.259 14.259 0 0 1-.355 5.623l-10.628 42.885a1.6 1.6 0 0 1-1.554 1.178Z" fill="#FED11B"/></g><g filter="url(#i)"><path d="M689.467 771.171a7.031 7.031 0 0 0 5.138 8.489l169.98 42.167a7.022 7.022 0 0 0 8.505-5.105l17.069-68.786a7.043 7.043 0 0 0-5.138-8.488l-169.98-42.167a7.042 7.042 0 0 0-8.514 5.105l-17.06 68.785Z" fill="#F7F3E4"/><path d="m784.283 730.604 2.138-8.621 8.661 2.149-2.138 8.62-8.661-2.148Zm-14.583-3.61 2.14-8.62 8.652 2.148-2.14 8.619-8.652-2.147Zm-14.583-3.626 2.138-8.62 8.661 2.148-2.138 8.62-8.661-2.148Zm-14.578-3.62 2.14-8.62 8.652 2.148-2.14 8.62-8.652-2.148Zm-14.619-3.674 2.138-8.62 8.661 2.148-2.138 8.62-8.661-2.148Zm-14.542-3.555 2.138-8.621 8.661 2.149-2.138 8.62-8.661-2.148Zm21.362 69.486 2.895-11.669 15.561 3.86-2.894 11.669-15.562-3.86Zm-36.446-9.08 2.896-11.677 30.523 7.57-2.896 11.677-30.523-7.57Zm57.868 14.373 2.896-11.677 46.709 11.585-2.896 11.677-46.709-11.585Zm32.231-11.099 2.138-8.62 12.739 3.16-2.138 8.62-12.739-3.16Zm-18.594-4.52 2.138-8.62 12.739 3.16-2.138 8.62-12.739-3.16Zm-18.726-4.746 2.138-8.62 12.74 3.16-2.138 8.62-12.74-3.16Zm-18.659-4.629 2.138-8.62 12.74 3.16-2.138 8.62-12.74-3.16Zm-29.635-7.305 2.138-8.62 23.744 5.889-2.138 8.62-23.744-5.889Zm95.111 8.659 2.139-8.619 12.739 3.162-2.139 8.619-12.739-3.162Zm-18.663-4.633 2.138-8.62 12.739 3.16-2.138 8.62-12.739-3.16Zm-18.737-4.745 2.138-8.62 12.74 3.16-2.138 8.62-12.74-3.16Zm-18.659-4.631 2.138-8.62 12.74 3.16-2.138 8.62-12.74-3.16Zm-35.553-8.768 2.138-8.62 29.664 7.358-2.138 8.62-29.664-7.358Zm82.246 5.582 2.138-8.62 12.74 3.16-2.138 8.62-12.74-3.16Zm-18.586-4.512 2.139-8.62 12.739 3.159-2.138 8.62-12.74-3.159Zm-18.653-4.625 2.14-8.62 12.739 3.162-2.14 8.62-12.739-3.162Zm-18.722-4.733 2.139-8.62 12.739 3.16-2.138 8.62-12.74-3.16Zm-22.831-5.621 2.138-8.62 16.932 4.199-2.138 8.62-16.932-4.199Z" fill="#fff"/></g><path d="m399.647 486.593 76.731-30.253 53.814 136.469-102.515 40.421-43.646-110.686 15.616-35.951Z" fill="#F7F3E4"/><path d="m409.806 512.376-25.775 10.168 15.616-35.951 10.159 25.783Z" fill="#F7F7FC"/><path d="m384.031 522.544 22.784-3.417-1.128-5.122-21.656 8.539Z" fill="#ECE4C5"/><path d="m418.471 580.572 47.704-18.82 1.177 2.985-47.704 18.82-1.177-2.985Zm54.493-21.479 8.122-3.204 1.177 2.984-8.122 3.204-1.177-2.984Zm11.711-4.616 5.969-2.355 1.177 2.985-5.969 2.354-1.177-2.984Zm9.17-3.612 7.127-2.812 1.177 2.985-7.127 2.811-1.177-2.984Zm-70.54 41.978 82.499-32.547 1.177 2.984-82.499 32.548-1.177-2.985Zm15.852 7.914 71.486-28.203 1.178 2.985-71.486 28.202-1.178-2.984Zm26.27-72.198-3.956 1.56-1.56-3.956 3.956-1.56 1.56 3.956Zm-10.994 4.348-3.957 1.56-1.56-3.956 3.957-1.56 1.56 3.956Zm-10.995 4.331-3.957 1.56-1.56-3.956 3.957-1.56 1.56 3.956Z" fill="#FED11B"/><path d="M439.341 558.42a8.16 8.16 0 0 1-7.595-5.155l-2.397-6.09a4.93 4.93 0 0 0-2.631-2.723 4.927 4.927 0 0 0-3.786-.059l-1.17-2.983a4.955 4.955 0 0 0 2.782-6.417l-2.397-6.09a8.15 8.15 0 0 1 4.586-10.586l4.061-1.596 1.178 2.983-4.061 1.596a4.927 4.927 0 0 0-3.129 4.517c-.01.65.108 1.295.347 1.899l2.398 6.091a8.156 8.156 0 0 1-.668 7.294c.389.102.769.236 1.136.401a8.087 8.087 0 0 1 4.336 4.478l2.398 6.091a4.95 4.95 0 0 0 2.631 2.723 4.94 4.94 0 0 0 3.786.059l4.06-1.596 1.17 2.983-4.061 1.596a8.127 8.127 0 0 1-2.974.584Zm31.389-11.772-1.169-2.982 4.06-1.596a4.958 4.958 0 0 0 2.782-6.417l-2.398-6.082a8.088 8.088 0 0 1 .117-6.241c.157-.367.342-.722.552-1.061a7.037 7.037 0 0 1-1.128-.401 8.062 8.062 0 0 1-4.336-4.478l-2.406-6.091a4.93 4.93 0 0 0-2.628-2.719 4.928 4.928 0 0 0-3.781-.063l-4.06 1.595-1.178-2.982 4.06-1.596a8.161 8.161 0 0 1 10.569 4.587l2.406 6.09c.236.605.59 1.158 1.04 1.626.451.467.989.841 1.585 1.1a4.931 4.931 0 0 0 3.784.057l1.178 2.982a4.945 4.945 0 0 0-2.783 6.417l2.398 6.091a8.162 8.162 0 0 1-4.603 10.569l-4.061 1.595Zm337.178-68.619c-.141 0-.281-.017-.418-.05a1.606 1.606 0 0 1-1.136-1.955l10.678-40.22a1.602 1.602 0 0 1 1.967-1.132 1.593 1.593 0 0 1 .974.749 1.603 1.603 0 0 1 .158 1.218l-10.677 40.212a1.605 1.605 0 0 1-1.546 1.178Zm-6.133-5.389a1.665 1.665 0 0 1-.626-.125l-19.308-8.138a1.597 1.597 0 0 1-.943-1.151 1.598 1.598 0 0 1 .408-1.43l14.496-15.123a1.604 1.604 0 1 1 2.314 2.214l-12.883 13.452 17.161 7.227a1.6 1.6 0 0 1 .396 2.718 1.604 1.604 0 0 1-1.015.365v-.009Zm28.474-5.898a1.672 1.672 0 0 1-1.111-.443 1.6 1.6 0 0 1-.042-2.264l12.883-13.452-17.161-7.227a1.603 1.603 0 0 1-.861-.869 1.585 1.585 0 0 1 .005-1.223 1.6 1.6 0 0 1 2.093-.857l19.316 8.129a1.616 1.616 0 0 1 .919 1.919c-.071.25-.203.477-.384.663l-14.496 15.131a1.616 1.616 0 0 1-1.161.493Z" fill="#FED11B"/><g filter="url(#j)"><path d="M151.389 49.532a42.881 42.881 0 0 0-.401-2.832l8.74-3.342-1.354-4.854-9.19 1.67a34.864 34.864 0 0 0-2.465-5.154l7.06-6.141-2.933-4.094-8.096 4.704a34.663 34.663 0 0 0-4.077-3.994l4.545-8.188-4.177-2.849-5.999 7.185a36.034 36.034 0 0 0-5.197-2.372l1.462-9.19-4.871-1.254-3.174 8.79a35.773 35.773 0 0 0-5.707-.427L113.776 8l-5.013.493v9.357c-1.873.362-3.714.87-5.506 1.521l-4.813-8.012-4.536 2.172 3.216 8.78a35.35 35.35 0 0 0-4.645 3.343l-7.269-5.89-3.525 3.592 6.032 7.152a36.407 36.407 0 0 0-3.225 4.712l-8.815-3.158-2.08 4.587 8.113 4.654a35.084 35.084 0 0 0-1.42 5.53l-9.358.168-.393 5.013 9.232 1.637c0 .944.059 1.897.15 2.857.092.961.234 1.897.402 2.825l-8.74 3.341 1.354 4.846 9.19-1.67a34.893 34.893 0 0 0 2.465 5.163l-7.043 6.165 2.924 4.094 8.096-4.703a36.165 36.165 0 0 0 4.077 4.002l-4.537 8.187 4.178 2.841 5.99-7.185a35.28 35.28 0 0 0 5.205 2.373l-1.462 9.232 4.871 1.253 3.175-8.79a35.75 35.75 0 0 0 5.698.435l1.788 9.19 5.013-.492v-9.35a35.58 35.58 0 0 0 5.514-1.528l4.813 8.012 4.536-2.172-3.216-8.773a36.937 36.937 0 0 0 4.637-3.342l7.277 5.848 3.526-3.6-6.033-7.152a35.494 35.494 0 0 0 3.217-4.713l8.856 3.05 2.08-4.578-8.112-4.662a35.036 35.036 0 0 0 1.42-5.531l9.358-.168.384-5.012-9.19-1.605c-.109-.902-.151-1.846-.243-2.807ZM117.31 67.796a14.871 14.871 0 1 1-2.868-29.604 14.871 14.871 0 0 1 2.868 29.604Z" fill="#FFE063"/></g><g filter="url(#k)"><path d="M262.684 144.853a3.568 3.568 0 0 0 3.559-3.225c.195-2.1.293-4.222.293-6.367a69.07 69.07 0 0 0-.293-6.374 3.566 3.566 0 0 0-3.559-3.225h-5.506a3.591 3.591 0 0 1-3.492-2.849 58.423 58.423 0 0 0-1.446-5.414 3.592 3.592 0 0 1 1.605-4.178l4.77-2.757a3.573 3.573 0 0 0 1.471-4.578 70.255 70.255 0 0 0-6.375-11.02 3.578 3.578 0 0 0-4.704-1.02l-4.762 2.757a3.585 3.585 0 0 1-4.445-.718 63.495 63.495 0 0 0-3.969-3.969 3.589 3.589 0 0 1-.718-4.444l2.757-4.763a3.573 3.573 0 0 0-1.019-4.704 70.32 70.32 0 0 0-11.02-6.374 3.578 3.578 0 0 0-4.579 1.47l-2.757 4.77a3.594 3.594 0 0 1-4.177 1.605 64.507 64.507 0 0 0-5.414-1.445 3.592 3.592 0 0 1-2.849-3.492v-5.507a3.57 3.57 0 0 0-3.225-3.559 73.144 73.144 0 0 0-6.367-.292c-2.147 0-4.277.1-6.375.292a3.569 3.569 0 0 0-3.225 3.56v5.505a3.592 3.592 0 0 1-2.849 3.493 54.33 54.33 0 0 0-5.422 1.445 3.585 3.585 0 0 1-4.177-1.604l-2.757-4.77a3.577 3.577 0 0 0-4.579-1.471 70.274 70.274 0 0 0-11.02 6.374 3.572 3.572 0 0 0-1.019 4.704l2.757 4.763a3.585 3.585 0 0 1-.719 4.445 61.357 61.357 0 0 0-3.968 3.968 3.588 3.588 0 0 1-4.445.718l-4.762-2.757a3.577 3.577 0 0 0-4.704 1.02 70.255 70.255 0 0 0-6.375 11.02 3.574 3.574 0 0 0 1.47 4.578l4.771 2.757a3.588 3.588 0 0 1 1.604 4.178 64.174 64.174 0 0 0-1.445 5.414 3.595 3.595 0 0 1-3.493 2.849h-5.505a3.576 3.576 0 0 0-3.568 3.225 73.11 73.11 0 0 0-.284 6.374c0 2.148.1 4.27.284 6.367a3.575 3.575 0 0 0 3.568 3.225h5.505a3.588 3.588 0 0 1 3.493 2.849 56.786 56.786 0 0 0 1.445 5.414 3.592 3.592 0 0 1-1.604 4.177l-4.771 2.757a3.578 3.578 0 0 0-1.47 4.579 70.251 70.251 0 0 0 6.375 11.02 3.577 3.577 0 0 0 4.704 1.019l4.762-2.757a3.589 3.589 0 0 1 4.445.719 60.376 60.376 0 0 0 3.968 3.968 3.588 3.588 0 0 1 .719 4.445l-2.757 4.762a3.574 3.574 0 0 0 1.019 4.704 70.251 70.251 0 0 0 11.02 6.375 3.574 3.574 0 0 0 4.579-1.47l2.757-4.771a3.579 3.579 0 0 1 4.177-1.604 64.97 64.97 0 0 0 5.422 1.445 3.592 3.592 0 0 1 2.849 3.492v5.506a3.564 3.564 0 0 0 3.192 3.526c2.097.192 4.228.293 6.375.293 2.147 0 4.261-.101 6.366-.293a3.561 3.561 0 0 0 3.225-3.559v-5.506a3.591 3.591 0 0 1 2.849-3.492 53.7 53.7 0 0 0 5.414-1.446 3.592 3.592 0 0 1 4.178 1.604l2.757 4.771a3.573 3.573 0 0 0 4.578 1.471 70.287 70.287 0 0 0 11.045-6.375 3.58 3.58 0 0 0 1.02-4.704l-2.757-4.762a3.58 3.58 0 0 1 .718-4.445 61.404 61.404 0 0 0 3.969-3.969 3.586 3.586 0 0 1 4.444-.718l4.763 2.757a3.573 3.573 0 0 0 4.704-1.019 70.37 70.37 0 0 0 6.374-11.02 3.577 3.577 0 0 0-1.47-4.579l-4.771-2.757a3.598 3.598 0 0 1-1.604-4.178 58.804 58.804 0 0 0 1.446-5.413 3.587 3.587 0 0 1 3.492-2.85l5.514.034ZM196.43 162.49a27.237 27.237 0 1 1 27.228-27.229 27.238 27.238 0 0 1-27.228 27.196v.033Z" fill="#FFE063"/><path d="M196.43 104.942a30.28 30.28 0 0 0-27.987 18.69 30.29 30.29 0 0 0 6.56 33.009 30.28 30.28 0 0 0 33.007 6.569 30.285 30.285 0 0 0 9.83-49.394 30.283 30.283 0 0 0-21.41-8.874Zm0 51.8a21.499 21.499 0 0 1-19.875-13.272 21.507 21.507 0 0 1 15.673-29.326 21.507 21.507 0 0 1 25.699 21.101 21.495 21.495 0 0 1-21.497 21.481v.016Z" fill="#FFE063"/><path d="M196.43 82.434a52.793 52.793 0 0 0-37.342 90.123 52.798 52.798 0 0 0 57.536 11.448 52.799 52.799 0 0 0 32.593-48.777 52.796 52.796 0 0 0-52.787-52.794Zm0 80.023a27.242 27.242 0 0 1-26.722-32.549 27.24 27.24 0 0 1 21.402-21.402 27.23 27.23 0 0 1 27.962 11.587 27.234 27.234 0 0 1-3.391 34.386 27.234 27.234 0 0 1-19.251 7.978Z" fill="#FED11B"/></g><g filter="url(#l)"><path d="M315.699 713.287c.678-9.897-6.796-18.47-16.693-19.149-9.898-.678-18.471 6.796-19.149 16.693-.678 9.898 6.795 18.471 16.693 19.149 9.897.679 18.471-6.795 19.149-16.693Z" fill="#ED995A"/><path d="M301.459 722.66a1.582 1.582 0 0 1-1.478-.994l-7.328-17.871a1.595 1.595 0 0 1 .874-2.084 1.6 1.6 0 0 1 2.084.873l7.336 17.887a1.607 1.607 0 0 1-.878 2.089 1.547 1.547 0 0 1-.61.1Z" fill="#fff"/><path d="M288.852 717.381a1.605 1.605 0 0 1-.61-3.083l17.897-7.328a1.611 1.611 0 0 1 2.168.845 1.594 1.594 0 0 1-.023 1.266 1.586 1.586 0 0 1-.934.855l-17.871 7.328a1.584 1.584 0 0 1-.627.117Z" fill="#fff"/></g><path d="M46.942 304.376c21.665-1.945 37.65-21.085 35.706-42.749-1.945-21.665-21.084-37.651-42.749-35.706-21.665 1.945-37.65 21.084-35.705 42.749 1.944 21.665 21.084 37.651 42.748 35.706Z" fill="#F3B378"/><path d="M41.715 283.628h-.159a1.617 1.617 0 0 1-1.437-1.763l3.517-34.172a1.599 1.599 0 0 1 3.183.326l-3.509 34.18a1.616 1.616 0 0 1-1.595 1.429Zm-5.69-3.61a1.51 1.51 0 0 1-.384-.05l-16.802-4.177a1.583 1.583 0 0 1-1.111-.986 1.564 1.564 0 0 1 .184-1.479l9.867-14.203a1.6 1.6 0 0 1 2.623 1.83l-8.539 12.298 14.538 3.576a1.601 1.601 0 0 1 1.196 1.744 1.603 1.603 0 0 1-1.572 1.414v.033Zm22.458-8.488a1.6 1.6 0 0 1-1.594-1.696 1.6 1.6 0 0 1 .282-.811l8.539-12.298-14.538-3.576a1.6 1.6 0 0 1-1.231-1.313 1.602 1.602 0 0 1 1.992-1.803l16.801 4.135a1.67 1.67 0 0 1 1.12.995 1.603 1.603 0 0 1-.184 1.478l-9.867 14.204a1.629 1.629 0 0 1-1.32.685Z" fill="#fff"/><path d="M285.301 471.713a10.023 10.023 0 0 0-7.126-12.323L55.642 400.02a10.012 10.012 0 0 0-10.61 3.629 10.014 10.014 0 0 0-1.713 3.548l-2.75 10.285 242.017 64.566 2.715-10.335Z" fill="#FED11B"/><path d="M40.57 417.44 1.853 562.598a9.24 9.24 0 0 0 6.542 11.312l224.153 59.788a9.187 9.187 0 0 0 7.024-.913 9.186 9.186 0 0 0 4.289-5.637l38.725-145.141L40.57 417.44Z" fill="#F9F4E1"/><path d="M50.67 409.996a4.85 4.85 0 0 1 4.045-3.554 4.838 4.838 0 0 1 4.831 2.376 4.843 4.843 0 0 1-.345 5.372 4.845 4.845 0 0 1-8.53-4.194Zm16.326 4.361a4.841 4.841 0 0 1 4.036-3.548 4.836 4.836 0 0 1 4.823 2.37 4.835 4.835 0 0 1-2.62 7.003 4.835 4.835 0 0 1-4.501-.733 4.84 4.84 0 0 1-1.738-5.092Zm16.326 4.353a4.84 4.84 0 0 1 4.039-3.546 4.834 4.834 0 0 1 4.474 7.737 4.833 4.833 0 0 1-5.088 1.732 4.846 4.846 0 0 1-2.94-2.252 4.834 4.834 0 0 1-.485-3.671Z" fill="#fff"/><path d="m60.87 438.05.824-3.092 8.855 2.362-.824 3.092-8.856-2.362Zm-2.792 10.42.825-3.092 8.847 2.361-.825 3.092-8.847-2.361ZM55.3 458.932l.825-3.092 8.847 2.361-.825 3.092-8.847-2.361Zm-2.792 10.444.825-3.092 8.856 2.363-.825 3.092-8.856-2.363Zm-2.784 10.453.825-3.092 8.855 2.363-.825 3.091-8.855-2.362Zm-.881 8.885.828-3.091 8.854 2.372-.829 3.091-8.853-2.372Zm-4.688 11.995.825-3.091 8.847 2.36-.825 3.092-8.847-2.361Zm-2.793 10.439.824-3.092 8.848 2.359-.824 3.092-8.848-2.359Zm-2.792 10.464.825-3.091 8.855 2.362-.825 3.092-8.855-2.363Zm-2.775 10.438.825-3.092 8.856 2.361-.825 3.092-8.856-2.361Zm-2.793 10.46.824-3.092 8.856 2.363-.825 3.092-8.855-2.363Zm-2.786 10.427.825-3.092 8.847 2.36-.825 3.092-8.847-2.36Zm-2.791 10.444.825-3.092 8.848 2.361-.825 3.092-8.848-2.361ZM81.69 443.622l.825-3.092 82.404 21.987-.825 3.092-82.404-21.987Zm89.004 21.242.828-3.091 20.442 5.478-.828 3.091-20.442-5.478Zm8.951 27.253.824-3.092 28.068 7.489-.824 3.092-28.068-7.489ZM78.913 454.068l.825-3.091 147.694 39.408-.825 3.092-147.694-39.409ZM232.438 495l.824-3.092 13.191 3.519-.825 3.092-13.19-3.519Zm-22.72 16.338.825-3.091 16.541 4.413-.825 3.092-16.541-4.414Zm-50.73 20.041.825-3.091 9.138 2.438-.825 3.092-9.138-2.439Zm-81.147-68.813.829-3.091 98.916 26.505-.828 3.091-98.917-26.505Zm-2.756 10.337.828-3.091 131.544 35.248-.828 3.091-131.544-35.248ZM70.549 485.4l.825-3.091 66.307 17.692-.825 3.092L70.549 485.4Zm71.96 19.216.825-3.092 28.722 7.664-.825 3.092-28.722-7.664Zm-72.907-10.862.828-3.091 143.738 38.515-.828 3.09-143.738-38.514Zm-2.726 10.571.828-3.091 89.926 24.096-.828 3.091-89.926-24.096Zm-4.689 12.419.825-3.092 101.269 27.021-.825 3.092-101.27-27.021Zm105.008 28.011.825-3.091 24.12 6.436-.825 3.091-24.12-6.436ZM59.396 527.197l.825-3.092 56.289 15.02-.825 3.091-56.289-15.019Zm-2.791 10.441.825-3.092L107.85 548l-.825 3.091-50.421-13.453Zm-2.774 10.44.825-3.092 102.771 27.422-.825 3.092-102.77-27.422Zm107.17 28.62.825-3.092 12.158 3.244-.825 3.092-12.158-3.244ZM51.042 558.534l.825-3.092 133.237 35.551-.825 3.092-133.237-35.551Zm-2.794 10.44.826-3.092 52.915 14.119-.825 3.092-52.916-14.119Zm127.932-55.453.824-3.092 12.368 3.298-.825 3.092-12.367-3.298Zm135.456 43.596c-.075-16.71-12.34-55.284-3.342-79.697 2.506-30.011-64.851-72.504-64.851-72.504 22.876 5.949 89.941 23.536 93.325 35.492 3.383 11.955-9.692 100.033-13.544 116.475l-11.588.234Z" fill="#FED11B"/><path d="M322.263 567.435c-.042-3.208.058-4.888.961-10.552l-11.589.234c-.167 5.138.226 7.026.101 9.7-.059 1.428-.343 3.267-.426 4.779 2.322 1.813 11.479 5.339 12.148 2.189-1.237-2.072-1.162-3.15-1.195-6.35Z" fill="#F2D5CC"/><path d="M312.413 580.978c-1.454-.618-3.935.226-4.887 1.838l-2.641-1.119a15.732 15.732 0 0 1 3.008-10.536c2.365-3.191 2.916-1.946 3.451-.635 1.378 2.599 9.717 6.784 11.613 4.178 2.072 1.27 22.099 17.47 21.205 19.584-1.446 3.408-4.119 2.272-5.941 1.495-21.564-9.107-18.146-9.224-25.808-14.805Z" fill="#FED11B"/><path d="M322.155 570.117c.635-3.568-7.729-9.976-9.65-4.086a8.423 8.423 0 0 1-2.022 3.418c1.387 2.598 18.456 16.977 23.469 14.128-1.746-2.173-13.251-10.026-11.797-13.46Zm-58.267.886c0-3.626 4.369-9.191 6.684-14.471l-11.279-2.657c-2.448 5.965-3.752 8.998-5.406 13.911-.46 1.353-1.153 3.074-1.613 4.52 1.805 2.331 11.772 5.999 13.209 3.116-1.487-.827-1.904-3.007-1.595-4.419Z" fill="#F2D5CC"/><path d="M326.407 443.173c-10.861-17.546-67.85-34.706-90.016-40.655l-41.774-9.842c-2.682 11.421-29.008 49.235 20.052 60.782 0 0 52.636 9.917 68.51 11.471-11.446 18.464-22.207 71.242-27.78 94.928l13.251 3.117c49.92-90.476 61.993-112.959 57.757-119.801ZM256.009 583.36c-1.529-.359-3.835.894-4.504 2.64l-2.79-.66a15.67 15.67 0 0 1 1.195-10.861c1.796-3.534 2.548-2.406 3.292-1.203 1.796 2.331 10.719 5.013 12.156 2.18 2.256.903 24.714 13.502 24.187 15.732-.835 3.61-3.676 2.933-5.606 2.507-22.792-5.422-19.442-6.116-27.93-10.335Z" fill="#FED11B"/><path d="M263.787 571.011c0-3.618-9.299-8.53-10.193-2.406a8.4 8.4 0 0 1-1.42 3.709c1.796 2.331 21.037 13.635 25.507 10.026-2.088-1.88-14.746-7.686-13.894-11.329Z" fill="#F2D5CC"/><path d="m250.545 407.757 62.754 19.675a2.255 2.255 0 0 0 1.735-.156 2.275 2.275 0 0 0 1.114-1.339l.835-2.682-67.081-21.071-.836 2.682a2.299 2.299 0 0 0 .135 1.754 2.297 2.297 0 0 0 1.344 1.137Zm71.852 16.851 40.655-51.666a2.283 2.283 0 0 0-.384-3.2l-2.172-1.755-43.446 55.268 2.214 1.738a2.261 2.261 0 0 0 3.133-.385Z" fill="#ECE4C5"/><path d="m309.171 419.812 4.044 1.27-.285.894-4.043-1.27.284-.894Zm-2.837.086-4.042-1.267.282-.901 4.042 1.267-.282.901Zm-6.702-2.058-4.042-1.268.282-.9 4.042 1.267-.282.901Zm-10.346-4.26 4.044 1.261-.284.902-4.035-1.261.275-.902Zm-2.891.099-4.041-1.271.283-.9 4.041 1.27-.283.901Zm-10.36-4.26 4.044 1.27-.284.902-4.044-1.27.284-.902Z" fill="#FFE063"/><path d="M290.448 261.128c10.644 21.773 5.405 69.763-25.224 64.048-24.037-4.478-2.272-22.165 2.607-27.52 4.879-5.356 22.617-36.528 22.617-36.528Z" fill="#D67747"/><path d="M245.448 300.998c-10.627 2.163-18.171 5.138-22.675 14.738-5.598 13.184-28.164 76.94-28.164 76.94 9.449 2.231 48.057 11.571 48.057 11.571.66-7.227 3.426-19.416 9.984-27.646 7.202-9.032 13.577-13.535 19.066-23.703.552-13.643-7.294-31.69-7.319-44.197-7.076-6.776-18.949-7.703-18.949-7.703Z" fill="url(#m)"/><path d="M277.498 402.844c3.701 1.153 15.715-.326 19.425.835 3.709 1.162 8.956 16.15 6.283 15.323-1.605-.501-3.693-4.077-5.389-6.96.075 2.507-.126 5.239-.986 5.013-.861-.225-1.671-3.341-2.248-5.923-1.161 2.331-2.732 4.846-3.383 4.177-.452-.459-.092-2.506.417-4.637-2.147 1.579-4.854 3.133-7.344 2.356l-9.19-2.865 2.415-7.319Z" fill="#F2D5CC"/><path d="M240.895 311.458c-3.033-3.492-12.106-8.422-18.122 4.278-5.781 12.223-5.138 65.561-3.033 73.573 1.254 4.745 55.327 20.795 55.327 20.795 1.027-3.342 2.431-7.26 2.431-7.26-14.546-6.517-41.674-21.982-42.034-24.998-.459-3.893 6.751-35.993 7.854-43.27.894-5.915 4.269-15.406-2.423-23.118Z" fill="url(#n)"/><path d="M245.448 300.998a30.355 30.355 0 0 0 6.492-19.125s-.886-13.234 5.013-22.558c7.578-11.847 28.407-3.191 32.124 2.908 4.47 8.43 1.722 15.331-1.829 24.546 0 0-1.37 9.759-1.621 10.319-.368.835-2.69-.702-3.016-.393-.326.309-2.406 5.456-5.013 6.6-2.607 1.145-7.469-3.392-8.932-2.113-1.086.952-4.001 4.712-4.269 7.519-5.405-.292-14.504-2.749-18.949-7.703Z" fill="#F2D5CC"/><path d="M275.325 249.933c-14.788-3.342-25.9 3.124-30.796 19.709-3.033 10.318-13.234 14.663-21.455 13.242-8.221-1.42-16.367-16.15-33.42-4.11-9.625 6.809-12.708 15.18-6.842 20.335 2.807 2.507-7.378 9.291-4.362 14.58 7.077 12.432 18.966-1.755 28.9-1.872 9.508-.108 27.145 10.369 45.567-9.976a28.612 28.612 0 0 0 7.578-14.479c.836-4.937 5.439-7.778 11.179-5.514 6.383 2.507 13.243 1.228 19.517-14.654 1.237-6.291-4.52-14.68-15.866-17.261Z" fill="#ED995A"/><path d="M271.7 281.873c6.09 2.398 12.599 1.312 18.639-12.532-2.506 3.091-7.962 12.24-15.548 9.29-6.818-2.648-15.348-4.712-18.849 4.378-3.5 9.091-20.051 22.843-41.131 17.437-21.079-5.406-28.156 22.558-36.895 11.371.026.681.215 1.346.551 1.938 7.077 12.433 18.966-1.754 28.9-1.871 9.508-.109 27.145 10.368 45.568-9.976a28.622 28.622 0 0 0 7.577-14.479c.828-5.013 5.448-7.853 11.188-5.556Z" fill="url(#o)"/><defs><linearGradient id="a" x1="1001.29" y1="370.437" x2="1066.91" y2="358.074" gradientUnits="userSpaceOnUse"><stop stop-color="#ED995A"/><stop offset=".12" stop-color="#E99357"/><stop offset=".65" stop-color="#DB7F4B"/><stop offset="1" stop-color="#D67747"/></linearGradient><linearGradient id="b" x1="996.337" y1="322.219" x2="1080.35" y2="322.219" gradientUnits="userSpaceOnUse"><stop stop-color="#BFAA54"/><stop offset=".27" stop-color="#AB9748"/><stop offset=".73" stop-color="#A08C3B"/><stop offset="1" stop-color="#8A7626"/></linearGradient><linearGradient id="c" x1="994.047" y1="485.816" x2="1123.18" y2="485.816" gradientUnits="userSpaceOnUse"><stop stop-color="#ED995A"/><stop offset=".61" stop-color="#DD814D"/><stop offset="1" stop-color="#D67747"/></linearGradient><linearGradient id="f" x1="629.614" y1="524.691" x2="738.696" y2="524.691" gradientUnits="userSpaceOnUse"><stop stop-color="#F0DA81"/><stop offset="1" stop-color="#D3BE69"/></linearGradient><linearGradient id="g" x1="544.812" y1="772.13" x2="654.278" y2="575.656" gradientUnits="userSpaceOnUse"><stop stop-color="#C4AE58"/><stop offset="1" stop-color="#8B7A35"/></linearGradient><linearGradient id="m" x1="256.548" y1="395.423" x2="209.455" y2="319.172" gradientUnits="userSpaceOnUse"><stop stop-color="#CBC3A4"/><stop offset="1" stop-color="#F1E8C5"/></linearGradient><linearGradient id="n" x1="268.916" y1="413.671" x2="210.733" y2="319.466" gradientUnits="userSpaceOnUse"><stop stop-color="#F3EDD4"/><stop offset="1" stop-color="#F9F5E5"/></linearGradient><linearGradient id="o" x1="250.439" y1="309.554" x2="219.142" y2="274.701" gradientUnits="userSpaceOnUse"><stop stop-color="#ED995A"/><stop offset="1" stop-color="#D67747"/></linearGradient><filter id="d" x="994.371" y="12.985" width="176.326" height="176.352" filterUnits="userSpaceOnUse" color-interpolation-filters="sRGB"><feFlood flood-opacity="0" result="BackgroundImageFix"/><feBlend in="SourceGraphic" in2="BackgroundImageFix" result="shape"/><feGaussianBlur stdDeviation="6" result="effect1_foregroundBlur_1537_2072"/></filter><filter id="e" x="860.509" y="560.348" width="105.812" height="105.836" filterUnits="userSpaceOnUse" color-interpolation-filters="sRGB"><feFlood flood-opacity="0" result="BackgroundImageFix"/><feBlend in="SourceGraphic" in2="BackgroundImageFix" result="shape"/><feGaussianBlur stdDeviation="6" result="effect1_foregroundBlur_1537_2072"/></filter><filter id="h" x="758.618" y="558.172" width="69.289" height="171.511" filterUnits="userSpaceOnUse" color-interpolation-filters="sRGB"><feFlood flood-opacity="0" result="BackgroundImageFix"/><feBlend in="SourceGraphic" in2="BackgroundImageFix" result="shape"/><feGaussianBlur stdDeviation="4" result="effect1_foregroundBlur_1537_2072"/></filter><filter id="i" x="681.268" y="689.076" width="217.089" height="140.958" filterUnits="userSpaceOnUse" color-interpolation-filters="sRGB"><feFlood flood-opacity="0" result="BackgroundImageFix"/><feBlend in="SourceGraphic" in2="BackgroundImageFix" result="shape"/><feGaussianBlur stdDeviation="4" result="effect1_foregroundBlur_1537_2072"/></filter><filter id="j" x="62.539" y="0" width="106.283" height="106.107" filterUnits="userSpaceOnUse" color-interpolation-filters="sRGB"><feFlood flood-opacity="0" result="BackgroundImageFix"/><feBlend in="SourceGraphic" in2="BackgroundImageFix" result="shape"/><feGaussianBlur stdDeviation="4" result="effect1_foregroundBlur_1537_2072"/></filter><filter id="k" x="117.374" y="56.181" width="158.162" height="158.12" filterUnits="userSpaceOnUse" color-interpolation-filters="sRGB"><feFlood flood-opacity="0" result="BackgroundImageFix"/><feBlend in="SourceGraphic" in2="BackgroundImageFix" result="shape"/><feGaussianBlur stdDeviation="4.5" result="effect1_foregroundBlur_1537_2072"/></filter><filter id="l" x="271.814" y="686.096" width="51.927" height="51.928" filterUnits="userSpaceOnUse" color-interpolation-filters="sRGB"><feFlood flood-opacity="0" result="BackgroundImageFix"/><feBlend in="SourceGraphic" in2="BackgroundImageFix" result="shape"/><feGaussianBlur stdDeviation="4" result="effect1_foregroundBlur_1537_2072"/></filter></defs></svg>