<svg width="1188" height="831" viewBox="0 0 1188 831" fill="none" xmlns="http://www.w3.org/2000/svg">
<path d="M860.117 107.657C859.393 108.381 858.47 108.874 857.465 109.074C856.46 109.274 855.419 109.171 854.473 108.779C853.526 108.387 852.717 107.723 852.148 106.871C851.579 106.019 851.275 105.018 851.275 103.994C851.275 102.969 851.579 101.968 852.148 101.116C852.717 100.264 853.526 99.6001 854.473 99.208C855.419 98.8159 856.46 98.7132 857.465 98.9128C858.47 99.1125 859.393 99.6057 860.117 100.33C860.599 100.811 860.981 101.382 861.241 102.011C861.501 102.639 861.635 103.313 861.635 103.994C861.635 104.674 861.501 105.348 861.241 105.976C860.981 106.605 860.599 107.176 860.117 107.657Z" fill="#D67747"/>
<path d="M858.865 106.42C858.395 106.88 857.799 107.191 857.153 107.314C856.507 107.437 855.839 107.366 855.232 107.111C854.626 106.856 854.109 106.428 853.745 105.88C853.381 105.332 853.187 104.689 853.187 104.031C853.187 103.373 853.381 102.73 853.745 102.182C854.109 101.634 854.626 101.206 855.232 100.951C855.839 100.695 856.507 100.625 857.153 100.748C857.799 100.871 858.395 101.182 858.865 101.641C859.498 102.276 859.853 103.135 859.853 104.031C859.853 104.927 859.498 105.786 858.865 106.42Z" fill="white"/>
<path d="M885.754 122.634L883.375 120.24L891.885 111.783L894.264 114.177L885.754 122.634Z" fill="#FED11B"/>
<path d="M876.174 113.017L873.795 110.623L882.305 102.166L884.684 104.56L876.174 113.017Z" fill="#FED11B"/>
<path d="M870.352 820.939L870.219 821.031C870.219 821.031 870.361 820.947 870.352 820.939Z" fill="white"/>
<path d="M871.777 752.325L873.917 743.706L882.577 745.855L880.438 754.475L871.777 752.325Z" fill="white"/>
<path d="M857.194 748.698L859.332 740.078L867.993 742.226L865.855 750.846L857.194 748.698Z" fill="white"/>
<path d="M842.616 745.086L844.756 736.467L853.416 738.616L851.276 747.236L842.616 745.086Z" fill="white"/>
<path d="M828.04 741.471L830.18 732.852L838.84 735.001L836.7 743.621L828.04 741.471Z" fill="white"/>
<path d="M813.456 737.847L815.596 729.227L824.248 731.375L822.108 739.995L813.456 737.847Z" fill="white"/>
<path d="M798.871 734.232L801.011 725.613L809.671 727.762L807.531 736.382L798.871 734.232Z" fill="white"/>
<path d="M861.201 765.031L863.339 756.411L878.901 760.27L876.763 768.89L861.201 765.031Z" fill="white"/>
<path d="M851.806 777.44L853.944 768.82L875.433 774.15L873.295 782.77L851.806 777.44Z" fill="white"/>
<path d="M842.299 790.536L844.437 781.916L871.846 788.714L869.708 797.334L842.299 790.536Z" fill="white"/>
<path d="M849.789 811.052L852.683 799.383L868.245 803.242L865.351 814.912L849.789 811.052Z" fill="white"/>
<path d="M828.307 805.72L831.201 794.051L846.763 797.91L843.868 809.579L828.307 805.72Z" fill="white"/>
<path d="M806.823 800.396L809.718 788.726L825.279 792.586L822.385 804.255L806.823 800.396Z" fill="white"/>
<path d="M842.511 760.358L844.649 751.738L857.388 754.898L855.25 763.518L842.511 760.358Z" fill="white"/>
<path d="M833.204 772.905L835.342 764.285L848.082 767.445L845.944 776.065L833.204 772.905Z" fill="white"/>
<path d="M823.776 785.566L825.914 776.946L838.654 780.106L836.516 788.726L823.776 785.566Z" fill="white"/>
<path d="M805.051 780.829L807.189 772.209L819.928 775.369L817.79 783.989L805.051 780.829Z" fill="white"/>
<path d="M814.477 768.175L816.615 759.555L829.354 762.715L827.216 771.335L814.477 768.175Z" fill="white"/>
<path d="M823.911 755.82L826.049 747.2L838.789 750.36L836.651 758.98L823.911 755.82Z" fill="white"/>
<path d="M805.25 751.2L807.388 742.58L820.128 745.74L817.989 754.36L805.25 751.2Z" fill="white"/>
<path d="M989.91 263.637L834.376 107.123L860.979 80.6861L1016.51 237.201L989.91 263.637Z" fill="#ED995A"/>
<path d="M1000.55 238.143L998.167 235.748L1006.68 227.291L1009.06 229.686L1000.55 238.143Z" fill="#FED11B"/>
<path d="M990.948 228.541L988.569 226.147L997.079 217.69L999.458 220.084L990.948 228.541Z" fill="#FED11B"/>
<path d="M981.398 218.901L979.019 216.507L987.529 208.05L989.909 210.444L981.398 218.901Z" fill="#FED11B"/>
<path d="M971.824 209.287L969.445 206.892L977.955 198.436L980.334 200.83L971.824 209.287Z" fill="#FED11B"/>
<path d="M962.274 199.646L959.895 197.252L968.405 188.795L970.785 191.19L962.274 199.646Z" fill="#FED11B"/>
<path d="M952.693 190.037L950.314 187.643L958.824 179.186L961.204 181.58L952.693 190.037Z" fill="#FED11B"/>
<path d="M943.151 180.397L940.772 178.003L949.282 169.546L951.662 171.941L943.151 180.397Z" fill="#FED11B"/>
<path d="M933.562 170.769L931.182 168.374L939.692 159.917L942.072 162.312L933.562 170.769Z" fill="#FED11B"/>
<path d="M924.012 161.137L921.632 158.742L930.143 150.286L932.522 152.68L924.012 161.137Z" fill="#FED11B"/>
<path d="M914.431 151.521L912.051 149.127L920.562 140.67L922.941 143.064L914.431 151.521Z" fill="#FED11B"/>
<path d="M904.879 141.889L902.5 139.495L911.01 131.038L913.389 133.432L904.879 141.889Z" fill="#FED11B"/>
<path d="M895.305 132.264L892.925 129.87L901.436 121.413L903.815 123.807L895.305 132.264Z" fill="#FED11B"/>
<path d="M989.909 263.633L834.375 107.119L836.852 104.657L992.386 261.172L989.909 263.633Z" fill="#D67747"/>
<path d="M1167.25 285.992L1187.33 291.698L1186.34 269.675L1179.68 267.778L1167.25 285.992Z" fill="#F9F4E1"/>
<path d="M1179.68 267.779L1186.34 269.675L1185.85 258.747L1179.68 267.779Z" fill="#FED11B"/>
<path d="M1115.62 469.549L1119.1 457.334L1138.15 462.751L1134.68 474.966C1134.48 475.657 1134.02 476.241 1133.39 476.591C1132.76 476.94 1132.02 477.026 1131.33 476.83L1117.51 472.9C1117.17 472.806 1116.84 472.644 1116.56 472.424C1116.28 472.204 1116.04 471.93 1115.87 471.618C1115.69 471.307 1115.58 470.964 1115.54 470.608C1115.5 470.253 1115.53 469.893 1115.62 469.549Z" fill="#FED11B"/>
<path d="M1118.59 457.197L1119.84 452.793L1139.92 458.5L1138.67 462.904L1118.59 457.197Z" fill="#F7F3E4"/>
<path d="M1119.81 452.771L1121.07 448.368L1141.14 454.075L1139.89 458.479L1119.81 452.771Z" fill="#FCF4D4"/>
<path d="M1115.94 448.857L1117.18 444.462L1137.21 450.097L1135.98 454.492L1115.94 448.857Z" fill="#F7F3E4"/>
<path d="M1122.32 443.975L1123.57 439.571L1143.65 445.278L1142.4 449.682L1122.32 443.975Z" fill="#FCF4D4"/>
<path d="M1123.57 439.569L1124.83 435.165L1144.9 440.872L1143.65 445.276L1123.57 439.569Z" fill="#F7F3E4"/>
<path d="M1177.3 288.849L1134.88 438.026L1124.85 435.169L1167.26 285.992L1171.44 282.742C1171.76 282.49 1172.14 282.318 1172.54 282.24C1172.94 282.161 1173.35 282.179 1173.74 282.29C1174.14 282.402 1174.5 282.604 1174.8 282.882C1175.1 283.159 1175.32 283.504 1175.47 283.887L1177.3 288.849Z" fill="#FCEBA6"/>
<path d="M1187.33 291.699L1144.92 440.883L1134.89 438.026L1177.31 288.85L1181.49 285.591C1181.81 285.34 1182.19 285.167 1182.59 285.089C1182.99 285.01 1183.4 285.028 1183.79 285.139C1184.19 285.251 1184.55 285.454 1184.85 285.731C1185.15 286.008 1185.38 286.353 1185.52 286.736L1187.33 291.699Z" fill="#FFE063"/>
<path d="M1178.22 599.693C1157.59 573.893 1128.2 536.33 1098.02 521.316L1082.57 540.181C1124.34 573.96 1164.99 601.865 1170.9 604.898C1173.96 606.569 1173.08 609.443 1172.8 610.646C1170.52 620.672 1164.87 634.934 1169.03 636.304C1172.75 637.532 1176.69 632.962 1181.57 624.607C1184.12 620.271 1186.58 614.724 1187.18 611.808C1187.9 608.056 1182.36 604.973 1178.22 599.693ZM1056.03 645.386C1054.93 637.75 1049.14 567.686 1037.2 539.521L1010.64 547.275C1025.8 598.081 1044.15 639.462 1048.1 648.753C1049.02 651.427 1048.94 653.766 1048.39 654.927C1044.02 664.26 1034.52 678.321 1038.3 680.535C1041.64 682.523 1047.43 677.577 1053.99 670.509C1057.41 666.816 1061.04 661.929 1062.21 659.197C1063.7 655.629 1058.97 651.435 1056.03 645.386ZM997.975 322.678C985.718 318.852 963.636 305.058 958.765 298.207C953.894 291.356 956.376 245.279 958.08 241.452C959.069 239.221 960.219 237.065 961.522 235.002L958.957 232.429C959.434 229.246 959.183 214.449 956.008 215.894C952.833 217.34 946.158 223.414 945.832 232.228C945.615 238.118 948.255 243.482 947.595 247.159C943.016 272.666 937.235 302.643 946.3 311.073C958.356 322.302 989.119 345.872 996.429 346.49C1003.91 347.133 1003.01 347.459 1005.35 339.806C1007.69 332.153 1003.96 324.541 997.975 322.678ZM1029.54 321.651C1035.39 331.752 1070.48 376.534 1076.4 385.8C1090.25 389.868 1128.96 392.174 1128.96 392.174C1128.96 392.174 1143.54 400.437 1149.75 396.678C1155.96 392.918 1155.28 390.42 1155.03 389.25C1154.44 386.476 1139.7 386.493 1139.64 383.402C1140.18 381.246 1140.73 379.341 1140.96 378.522C1136.85 381.363 1134.88 379.141 1131.31 380.611C1125.29 383.118 1091.98 376.367 1086.03 373.61C1077.17 362.03 1063.95 335.787 1058.81 325.06C1053.67 314.332 1029.54 321.651 1029.54 321.651Z" fill="#F2D5CC"/>
<path d="M1017.72 418.359C1015.47 406.361 985.442 329.388 997.974 322.679C1010.51 315.97 1044.76 308.124 1055.99 321.183C1067.22 334.242 1061.67 349.941 1062.35 363.4C1063.03 376.86 1060.09 396.82 1063.77 410.079C1058.23 411.123 1017.72 418.359 1017.72 418.359Z" fill="url(#paint0_linear_1537_2072)"/>
<path d="M1016.27 262.882C1028.87 260.509 1047.18 271.697 1047.52 300.145C1047.85 328.593 1062.72 352.313 1080.35 349.439C1072.83 370.627 1062.7 384.889 1041.91 381.279C1029.38 379.099 1015.59 366.299 1008.2 344.017C1002.44 326.655 999.603 314.482 996.855 294.723C993.797 272.975 1005.49 264.912 1016.27 262.882Z" fill="url(#paint1_linear_1537_2072)"/>
<path d="M1017.72 418.359C1013.27 431.493 982.291 480.653 998.892 559.13C1047.62 566.449 1090.59 557.827 1123.18 524.424C1119.11 498.39 1100.01 438.628 1063.78 410.079C1052.47 412.126 1017.72 418.359 1017.72 418.359Z" fill="url(#paint2_linear_1537_2072)"/>
<g filter="url(#filter0_f_1537_2072)">
<path d="M1155.2 104.248C1156.16 104.156 1157.05 103.708 1157.7 102.99C1158.35 102.272 1158.7 101.338 1158.7 100.372C1158.7 98.0823 1158.57 95.7764 1158.31 93.4537C1158.06 91.1311 1157.72 88.8474 1157.3 86.6027C1157.11 85.661 1156.58 84.823 1155.81 84.2506C1155.04 83.6781 1154.08 83.4118 1153.12 83.5031L1147.18 84.1046C1146.29 84.1923 1145.4 83.973 1144.66 83.4832C1143.91 82.9935 1143.36 82.2631 1143.09 81.4143C1142.46 79.4704 1141.74 77.5711 1140.93 75.7163C1140.57 74.9035 1140.5 73.99 1140.73 73.13C1140.96 72.27 1141.48 71.5162 1142.2 70.9958L1147.05 67.4951C1147.84 66.9304 1148.39 66.0928 1148.59 65.1458C1148.79 64.1989 1148.63 63.2104 1148.15 62.3735C1145.79 58.4007 1143.07 54.6481 1140.04 51.1613C1139.4 50.4363 1138.52 49.9755 1137.56 49.8688C1136.6 49.7622 1135.63 50.0175 1134.85 50.5848L1130 54.0855C1129.28 54.6024 1128.4 54.8561 1127.51 54.8045C1126.62 54.7528 1125.78 54.3988 1125.12 53.8014C1123.6 52.4396 1122.03 51.1529 1120.39 49.9498C1119.67 49.4248 1119.15 48.669 1118.92 47.8084C1118.69 46.9478 1118.77 46.0346 1119.13 45.2209L1121.58 39.7652C1121.97 38.8854 1122.03 37.8889 1121.73 36.9698C1121.44 36.0507 1120.81 35.2751 1119.97 34.794C1115.95 32.5246 1111.72 30.6231 1107.36 29.1127C1106.44 28.8013 1105.44 28.8428 1104.55 29.2291C1103.67 29.6154 1102.96 30.3187 1102.56 31.2014L1100.11 36.6655C1099.74 37.4757 1099.11 38.1351 1098.31 38.5347C1097.51 38.9343 1096.61 39.0501 1095.74 38.8629C1093.76 38.4451 1091.76 38.1221 1089.72 37.8937C1088.83 37.7991 1088.01 37.4031 1087.38 36.7721C1086.75 36.141 1086.35 35.313 1086.26 34.4264L1085.66 28.4778C1085.56 27.5169 1085.11 26.6268 1084.39 25.9811C1083.67 25.3354 1082.74 24.9805 1081.77 24.9854C1079.48 24.9854 1077.18 25.1135 1074.86 25.3697C1072.54 25.6037 1070.25 25.9462 1068.01 26.3807C1067.06 26.5689 1066.22 27.1008 1065.65 27.873C1065.08 28.6451 1064.82 29.6023 1064.91 30.5581L1065.52 36.4984C1065.6 37.3855 1065.38 38.2754 1064.89 39.0202C1064.4 39.765 1063.67 40.3198 1062.83 40.5923C1060.89 41.2185 1058.99 41.9378 1057.12 42.7479C1056.31 43.1072 1055.39 43.1772 1054.53 42.9461C1053.68 42.7151 1052.92 42.197 1052.4 41.478L1048.9 36.6238C1048.33 35.8391 1047.5 35.293 1046.55 35.0921C1045.61 34.8913 1044.62 35.0501 1043.78 35.5376C1039.81 37.8945 1036.06 40.607 1032.57 43.6419C1031.84 44.2774 1031.38 45.1623 1031.27 46.1225C1031.16 47.0827 1031.42 48.0487 1031.99 48.8303L1035.49 53.6845C1036.01 54.4087 1036.26 55.289 1036.21 56.1785C1036.16 57.068 1035.8 57.9129 1035.2 58.5721C1033.84 60.0811 1032.56 61.6565 1031.35 63.2926C1030.83 64.012 1030.07 64.5297 1029.21 64.7593C1028.35 64.9889 1027.44 64.9165 1026.62 64.5542L1021.17 62.0978C1020.29 61.7007 1019.29 61.6459 1018.37 61.9441C1017.46 62.2423 1016.68 62.8721 1016.2 63.7103C1013.92 67.7384 1012.02 71.9669 1010.51 76.3429C1010.2 77.2588 1010.24 78.258 1010.62 79.145C1011.01 80.0319 1011.71 80.7428 1012.6 81.1386L1018.05 83.5866C1018.86 83.9532 1019.53 84.5884 1019.93 85.3856C1020.33 86.1829 1020.44 87.0935 1020.25 87.9646C1019.83 89.9363 1019.51 91.9415 1019.28 93.9801C1019.18 94.8664 1018.79 95.6935 1018.16 96.323C1017.53 96.9526 1016.7 97.3465 1015.81 97.439L1009.87 98.0406C1008.91 98.1344 1008.02 98.585 1007.37 99.3039C1006.72 100.023 1006.36 100.958 1006.37 101.926C1006.37 104.215 1006.52 106.521 1006.76 108.835C1007.01 111.149 1007.34 113.447 1007.77 115.686C1007.96 116.629 1008.49 117.468 1009.27 118.041C1010.04 118.613 1011 118.879 1011.95 118.786L1017.9 118.184C1018.79 118.098 1019.68 118.318 1020.42 118.808C1021.16 119.297 1021.72 120.027 1021.99 120.874C1022.62 122.821 1023.34 124.726 1024.15 126.573C1024.51 127.388 1024.58 128.302 1024.35 129.163C1024.12 130.024 1023.59 130.779 1022.87 131.301L1018.03 134.827C1017.24 135.39 1016.69 136.227 1016.49 137.173C1016.29 138.119 1016.45 139.106 1016.94 139.94C1019.29 143.917 1022.01 147.67 1025.04 151.153C1025.68 151.877 1026.56 152.338 1027.52 152.446C1028.48 152.554 1029.44 152.301 1030.22 151.737L1035.08 148.237C1035.8 147.718 1036.68 147.463 1037.57 147.514C1038.46 147.566 1039.31 147.921 1039.97 148.521C1041.48 149.874 1043.06 151.161 1044.69 152.372C1045.41 152.896 1045.93 153.652 1046.16 154.513C1046.39 155.374 1046.31 156.288 1045.95 157.101L1043.5 162.557C1043.1 163.436 1043.05 164.433 1043.34 165.351C1043.64 166.27 1044.27 167.043 1045.11 167.52C1049.13 169.794 1053.35 171.696 1057.72 173.201C1058.64 173.513 1059.64 173.471 1060.52 173.085C1061.41 172.699 1062.12 171.995 1062.52 171.112L1064.97 165.657C1065.34 164.845 1065.97 164.184 1066.77 163.784C1067.56 163.384 1068.47 163.269 1069.34 163.459C1071.32 163.877 1073.32 164.2 1075.36 164.429C1076.24 164.52 1077.07 164.914 1077.7 165.544C1078.33 166.174 1078.73 167.001 1078.82 167.887L1079.43 173.836C1079.52 174.797 1079.97 175.688 1080.69 176.335C1081.41 176.982 1082.34 177.34 1083.3 177.337C1085.59 177.337 1087.9 177.186 1090.22 176.944C1092.54 176.702 1094.82 176.368 1097.07 175.933C1098.01 175.745 1098.85 175.213 1099.43 174.442C1100 173.67 1100.26 172.712 1100.17 171.756L1099.56 165.807C1099.47 164.92 1099.69 164.03 1100.19 163.286C1100.68 162.542 1101.41 161.99 1102.26 161.722C1104.21 161.087 1106.11 160.365 1107.96 159.558C1108.77 159.196 1109.69 159.126 1110.55 159.359C1111.41 159.591 1112.16 160.113 1112.68 160.836L1116.18 165.682C1116.74 166.466 1117.58 167.013 1118.53 167.213C1119.47 167.414 1120.46 167.255 1121.29 166.768C1125.27 164.414 1129.03 161.701 1132.51 158.664C1133.24 158.026 1133.7 157.141 1133.81 156.181C1133.91 155.221 1133.66 154.257 1133.09 153.475L1129.59 148.629C1129.07 147.905 1128.82 147.025 1128.87 146.135C1128.92 145.246 1129.27 144.401 1129.87 143.742C1131.23 142.227 1132.52 140.651 1133.72 139.013C1134.25 138.296 1135.01 137.78 1135.87 137.551C1136.73 137.321 1137.64 137.392 1138.45 137.751L1143.91 140.208C1144.8 140.615 1145.8 140.676 1146.73 140.377C1147.66 140.079 1148.44 139.443 1148.92 138.595C1151.19 134.569 1153.09 130.347 1154.6 125.979C1154.91 125.064 1154.87 124.065 1154.48 123.179C1154.1 122.293 1153.39 121.585 1152.51 121.192L1147.05 118.736C1146.24 118.369 1145.58 117.735 1145.18 116.94C1144.78 116.145 1144.66 115.236 1144.85 114.366C1145.27 112.383 1145.59 110.378 1145.82 108.351C1145.92 107.463 1146.31 106.635 1146.94 106.004C1147.57 105.373 1148.4 104.978 1149.29 104.883L1155.2 104.248ZM1085.52 130.591C1079.69 131.183 1073.83 130.034 1068.66 127.291C1063.48 124.547 1059.24 120.332 1056.47 115.178C1053.69 110.024 1052.51 104.163 1053.07 98.3366C1053.62 92.5098 1055.9 86.979 1059.6 82.4434C1063.3 77.9079 1068.26 74.5715 1073.85 72.8561C1079.45 71.1407 1085.43 71.1233 1091.04 72.8063C1096.64 74.4892 1101.62 77.7969 1105.35 82.3109C1109.07 86.8249 1111.38 92.3425 1111.97 98.1659C1112.76 105.973 1110.42 113.775 1105.46 119.856C1100.5 125.937 1093.32 129.798 1085.52 130.591Z" fill="#ECE4C5"/>
<path d="M1078.58 62.3567C1070.91 63.1375 1063.64 66.1752 1057.7 71.0857C1051.75 75.9961 1047.4 82.5589 1045.18 89.9444C1042.97 97.3299 1042.99 105.206 1045.25 112.578C1047.51 119.95 1051.91 126.487 1057.88 131.361C1063.86 136.235 1071.14 139.229 1078.82 139.964C1086.49 140.698 1094.21 139.14 1101 135.487C1107.79 131.834 1113.35 126.25 1116.97 119.44C1120.58 112.631 1122.1 104.902 1121.33 97.23C1120.28 86.9375 1115.19 77.4813 1107.18 70.9414C1099.16 64.4014 1088.88 61.3134 1078.58 62.3567ZM1085.52 130.591C1079.69 131.182 1073.83 130.034 1068.66 127.29C1063.49 124.547 1059.25 120.332 1056.47 115.179C1053.7 110.026 1052.51 104.165 1053.07 98.3389C1053.62 92.5125 1055.9 86.9818 1059.59 82.4461C1063.29 77.9104 1068.25 74.5735 1073.85 72.8573C1079.45 71.1411 1085.42 71.1227 1091.03 72.8043C1096.64 74.486 1101.62 77.7923 1105.34 82.3051C1109.07 86.8179 1111.38 92.3346 1111.97 98.1574C1112.36 102.024 1111.99 105.93 1110.87 109.652C1109.76 113.375 1107.92 116.841 1105.46 119.853C1103 122.865 1099.98 125.363 1096.56 127.206C1093.14 129.048 1089.38 130.198 1085.52 130.591Z" fill="#FCF4D4"/>
<path d="M1111.74 58.4967C1112.28 57.8341 1113.01 57.3465 1113.82 57.0954C1114.64 56.8444 1115.51 56.8412 1116.33 57.0864C1117.15 57.3315 1117.88 57.814 1118.42 58.4727C1118.97 59.1314 1119.3 59.9367 1119.39 60.7868C1119.48 61.637 1119.31 62.4937 1118.91 63.2485C1118.51 64.0034 1117.89 64.6225 1117.14 65.0276C1116.39 65.4327 1115.53 65.6055 1114.68 65.5241C1113.83 65.4428 1113.02 65.111 1112.36 64.5707C1111.92 64.213 1111.56 63.7719 1111.29 63.2728C1111.02 62.7736 1110.85 62.2263 1110.79 61.662C1110.73 61.0978 1110.79 60.5277 1110.95 59.9846C1111.11 59.4414 1111.38 58.9358 1111.74 58.4967ZM1039.87 71.9397C1039.2 71.4002 1038.72 70.6762 1038.46 69.8594C1038.21 69.0426 1038.21 68.1697 1038.46 67.3511C1038.7 66.5325 1039.18 65.805 1039.84 65.2607C1040.5 64.7163 1041.31 64.3796 1042.16 64.2931C1043.01 64.2066 1043.86 64.3741 1044.62 64.7746C1045.37 65.175 1045.99 65.7904 1046.4 66.5428C1046.8 67.2952 1046.97 68.1508 1046.89 69.0014C1046.81 69.8521 1046.48 70.6595 1045.94 71.3215C1045.21 72.2065 1044.17 72.7683 1043.03 72.8842C1041.89 73.0001 1040.75 72.6605 1039.87 71.9397ZM1053.31 143.817C1052.77 144.479 1052.04 144.967 1051.23 145.218C1050.41 145.469 1049.54 145.472 1048.72 145.227C1047.9 144.982 1047.17 144.5 1046.63 143.841C1046.09 143.182 1045.75 142.377 1045.66 141.527C1045.58 140.677 1045.74 139.82 1046.14 139.065C1046.54 138.31 1047.16 137.691 1047.91 137.286C1048.66 136.881 1049.52 136.708 1050.37 136.789C1051.22 136.871 1052.03 137.203 1052.69 137.743C1053.58 138.467 1054.14 139.513 1054.26 140.652C1054.37 141.791 1054.03 142.929 1053.31 143.817ZM1125.19 130.374C1125.85 130.913 1126.34 131.637 1126.59 132.454C1126.84 133.271 1126.84 134.144 1126.6 134.963C1126.35 135.781 1125.87 136.509 1125.21 137.053C1124.55 137.597 1123.75 137.934 1122.9 138.021C1122.05 138.107 1121.19 137.939 1120.43 137.539C1119.68 137.139 1119.06 136.523 1118.65 135.771C1118.25 135.018 1118.08 134.163 1118.16 133.312C1118.24 132.462 1118.57 131.654 1119.11 130.992C1119.84 130.105 1120.88 129.542 1122.02 129.426C1123.16 129.31 1124.3 129.651 1125.19 130.374Z" fill="white"/>
</g>
<g filter="url(#filter1_f_1537_2072)">
<path d="M941.654 623.922C942.142 622.626 942.542 621.297 942.849 619.945C943.492 615.768 951.204 614.097 954.32 613.763L953.384 604.572C950.259 604.89 942.389 604.815 940.902 600.821C940.336 599.559 939.68 598.338 938.939 597.17C936.432 593.736 940.693 587.144 942.682 584.688L935.538 578.839C933.558 581.271 927.935 586.785 924.067 585.005C922.772 584.523 921.446 584.13 920.098 583.827C915.921 583.167 914.25 575.472 913.916 572.348L904.725 573.283C905.043 576.408 904.968 584.278 900.982 585.766C899.72 586.332 898.5 586.988 897.331 587.729C893.897 590.236 887.305 585.974 884.849 583.994L879.001 591.138C881.432 593.118 886.946 598.741 885.175 602.609C884.687 603.906 884.288 605.235 883.98 606.586C883.337 610.763 875.625 612.434 872.509 612.769L873.445 621.959C876.569 621.642 884.44 621.725 885.927 625.71C886.493 626.973 887.149 628.193 887.89 629.361C890.397 632.795 886.136 639.387 884.147 641.844L891.291 647.692C893.271 645.261 898.894 639.747 902.77 641.518C904.066 642.007 905.395 642.404 906.747 642.704C910.925 643.356 912.596 651.059 912.93 654.184L922.12 653.248C921.803 650.123 921.878 642.253 925.871 640.766C927.134 640.2 928.354 639.544 929.523 638.802C932.956 636.296 939.548 640.565 942.005 642.545L947.853 635.402C945.397 633.414 939.883 627.766 941.654 623.922ZM914.835 627.072C912.109 627.349 909.362 626.811 906.942 625.527C904.522 624.243 902.537 622.27 901.238 619.858C899.939 617.445 899.385 614.702 899.645 611.975C899.906 609.247 900.969 606.658 902.701 604.535C904.432 602.412 906.755 600.85 909.374 600.047C911.993 599.244 914.792 599.235 917.416 600.023C920.04 600.81 922.372 602.358 924.117 604.471C925.861 606.583 926.94 609.166 927.217 611.891C927.402 613.701 927.228 615.53 926.705 617.273C926.183 619.016 925.322 620.638 924.172 622.048C923.022 623.458 921.606 624.628 920.004 625.49C918.401 626.352 916.645 626.889 914.835 627.072Z" fill="#FED11B"/>
</g>
<path d="M864.229 248.779L730.617 277.779C727.663 278.422 725.084 280.211 723.449 282.753C721.813 285.296 721.254 288.384 721.895 291.339L737.995 365.514C738.637 368.468 740.426 371.047 742.969 372.682C745.512 374.318 748.6 374.877 751.554 374.236L769.935 370.251C770.846 377.361 770.186 387.654 767.145 394.555C776.811 388.598 788.341 379.441 789.887 365.923L885.132 345.237C886.596 344.919 887.982 344.317 889.213 343.464C890.443 342.611 891.494 341.523 892.304 340.264C893.114 339.005 893.668 337.598 893.934 336.125C894.2 334.651 894.173 333.14 893.855 331.677L877.755 257.502C877.112 254.555 875.328 251.982 872.793 250.347C870.258 248.713 867.178 248.149 864.229 248.779Z" fill="#ECE4C5"/>
<path d="M759.215 319.521C758.62 319.526 758.043 319.31 757.599 318.914C757.154 318.518 756.872 317.971 756.809 317.379C756.745 316.787 756.904 316.192 757.255 315.711C757.605 315.23 758.122 314.896 758.706 314.775L854.018 294.08C854.625 293.984 855.246 294.123 855.754 294.47C856.261 294.817 856.617 295.345 856.747 295.946C856.878 296.547 856.773 297.175 856.455 297.701C856.137 298.227 855.63 298.612 855.037 298.776L759.725 319.471C759.557 319.504 759.386 319.521 759.215 319.521ZM782.133 343.257C781.543 343.251 780.975 343.028 780.539 342.631C780.102 342.234 779.827 341.69 779.765 341.103C779.703 340.516 779.859 339.927 780.203 339.448C780.547 338.968 781.056 338.632 781.631 338.503L842.998 325.177C843.314 325.09 843.644 325.068 843.968 325.112C844.292 325.157 844.604 325.267 844.884 325.437C845.164 325.606 845.407 325.831 845.597 326.097C845.788 326.363 845.922 326.666 845.991 326.986C846.061 327.306 846.064 327.636 846.001 327.958C845.939 328.279 845.811 328.584 845.626 328.854C845.441 329.124 845.203 329.354 844.927 329.529C844.65 329.704 844.341 329.821 844.017 329.872L782.651 343.199C782.481 343.238 782.307 343.258 782.133 343.257ZM762.189 333.231C761.599 333.227 761.03 333.005 760.592 332.609C760.154 332.213 759.877 331.669 759.814 331.081C759.751 330.494 759.907 329.904 760.251 329.424C760.595 328.944 761.103 328.607 761.68 328.477L856.992 307.774C857.308 307.686 857.638 307.664 857.962 307.709C858.287 307.754 858.598 307.864 858.879 308.033C859.159 308.203 859.401 308.427 859.592 308.694C859.782 308.96 859.916 309.262 859.986 309.582C860.055 309.902 860.059 310.233 859.996 310.554C859.933 310.876 859.805 311.181 859.621 311.451C859.436 311.721 859.198 311.951 858.921 312.126C858.645 312.301 858.335 312.418 858.012 312.469L762.707 333.173C762.538 333.212 762.364 333.232 762.189 333.231ZM806.646 289.978C806.501 289.336 806.169 288.751 805.692 288.297C805.216 287.842 804.616 287.539 803.967 287.425C803.319 287.31 802.651 287.39 802.048 287.653C801.445 287.917 800.933 288.353 800.576 288.907C800.22 289.46 800.035 290.107 800.045 290.765C800.055 291.423 800.258 292.064 800.631 292.607C801.004 293.15 801.528 293.57 802.139 293.816C802.75 294.062 803.42 294.122 804.064 293.988C804.499 293.898 804.912 293.722 805.278 293.471C805.644 293.22 805.956 292.898 806.196 292.525C806.437 292.151 806.6 291.734 806.678 291.296C806.755 290.859 806.744 290.411 806.646 289.978ZM793.211 292.902C793.066 292.26 792.734 291.675 792.258 291.221C791.781 290.767 791.181 290.463 790.533 290.349C789.884 290.234 789.216 290.314 788.613 290.578C788.01 290.841 787.498 291.277 787.142 291.831C786.785 292.385 786.6 293.031 786.61 293.689C786.62 294.348 786.824 294.988 787.196 295.531C787.569 296.074 788.094 296.495 788.704 296.74C789.315 296.986 789.985 297.046 790.63 296.912C791.064 296.822 791.477 296.647 791.843 296.395C792.209 296.144 792.521 295.822 792.762 295.449C793.002 295.076 793.166 294.658 793.243 294.221C793.32 293.783 793.309 293.335 793.211 292.902ZM813.547 288.482C813.414 287.838 813.474 287.169 813.72 286.558C813.965 285.948 814.386 285.424 814.928 285.051C815.471 284.679 816.111 284.475 816.769 284.465C817.426 284.455 818.073 284.639 818.626 284.995C819.18 285.35 819.616 285.861 819.88 286.464C820.145 287.066 820.225 287.733 820.112 288.382C819.999 289.03 819.697 289.63 819.244 290.107C818.791 290.584 818.207 290.917 817.566 291.064C817.132 291.163 816.683 291.175 816.245 291.098C815.806 291.022 815.388 290.859 815.014 290.618C814.639 290.378 814.317 290.065 814.065 289.698C813.813 289.331 813.637 288.918 813.547 288.482Z" fill="white"/>
<path d="M661.196 57.4274L782.793 134.292C784.124 135.134 785.277 136.229 786.184 137.516C787.092 138.803 787.737 140.256 788.083 141.792C788.429 143.328 788.469 144.917 788.201 146.469C787.933 148.021 787.362 149.504 786.52 150.835L743.86 218.376C743.014 219.708 741.914 220.861 740.622 221.768C739.33 222.674 737.873 223.317 736.332 223.659C734.791 224.001 733.198 224.036 731.644 223.762C730.09 223.488 728.606 222.91 727.275 222.061L710.566 211.508C707.098 218.192 704.04 228.619 704.558 236.573C697.156 227.207 689.052 214.015 692.402 200.07L605.712 145.221C603.019 143.524 601.111 140.827 600.406 137.723C599.701 134.62 600.257 131.363 601.952 128.67L644.62 61.162C645.461 59.8258 646.558 58.6688 647.847 57.7574C649.136 56.8461 650.592 56.1983 652.133 55.8513C653.673 55.5043 655.266 55.4649 656.822 55.7354C658.377 56.0058 659.864 56.5808 661.196 57.4274Z" fill="#FED11B"/>
<path d="M740.35 165.248C739.895 165.249 739.449 165.121 739.063 164.88L652.315 110.055C652.048 109.887 651.817 109.667 651.635 109.41C651.453 109.152 651.324 108.861 651.255 108.554C651.185 108.246 651.177 107.928 651.23 107.617C651.284 107.306 651.398 107.009 651.567 106.742C651.735 106.476 651.954 106.245 652.212 106.063C652.47 105.881 652.761 105.752 653.068 105.682C653.376 105.613 653.694 105.605 654.005 105.658C654.316 105.712 654.613 105.826 654.879 105.995L741.637 160.819C742.078 161.097 742.417 161.51 742.602 161.997C742.787 162.484 742.809 163.018 742.663 163.519C742.518 164.019 742.214 164.459 741.796 164.771C741.379 165.082 740.871 165.25 740.35 165.248ZM709.136 180.445C708.68 180.443 708.234 180.313 707.849 180.069L651.989 144.77C651.446 144.425 651.062 143.879 650.922 143.252C650.782 142.624 650.896 141.966 651.241 141.424C651.585 140.881 652.132 140.497 652.759 140.357C653.387 140.216 654.044 140.331 654.587 140.676L710.448 175.975C710.887 176.255 711.224 176.669 711.407 177.156C711.591 177.643 711.612 178.176 711.467 178.676C711.322 179.176 711.019 179.615 710.603 179.928C710.188 180.241 709.682 180.411 709.161 180.412L709.136 180.445ZM732.463 177.73C732.007 177.728 731.561 177.598 731.176 177.354L644.428 122.529C643.921 122.174 643.57 121.637 643.449 121.03C643.328 120.423 643.445 119.793 643.776 119.271C644.107 118.748 644.627 118.373 645.228 118.224C645.828 118.074 646.463 118.162 647.001 118.469L733.75 173.26C734.189 173.539 734.525 173.953 734.709 174.44C734.893 174.927 734.914 175.461 734.769 175.96C734.624 176.46 734.321 176.9 733.905 177.213C733.489 177.526 732.983 177.695 732.463 177.696V177.73ZM733.808 134.827C733.356 134.827 732.913 134.7 732.53 134.46L683.177 103.271C682.639 102.931 682.258 102.391 682.117 101.769C681.977 101.148 682.09 100.497 682.43 99.9583C682.77 99.4198 683.31 99.0385 683.931 98.8983C684.552 98.7581 685.204 98.8704 685.742 99.2105L735.095 130.399C735.536 130.677 735.875 131.09 736.06 131.577C736.245 132.064 736.267 132.598 736.122 133.099C735.976 133.599 735.672 134.038 735.254 134.35C734.837 134.662 734.329 134.83 733.808 134.827Z" fill="white"/>
<path d="M504.727 98.166L484.148 146.248L532.222 166.835C534.926 160.521 536.36 153.736 536.441 146.867C536.523 139.999 535.251 133.182 532.697 126.805C530.144 120.429 526.36 114.618 521.56 109.704C516.761 104.79 511.041 100.869 504.727 98.166Z" fill="#FED11B"/>
<path d="M514.644 164.905C511.186 170.559 506.223 175.141 500.311 178.136C494.398 181.132 487.769 182.424 481.164 181.869C474.559 181.313 468.239 178.932 462.91 174.99C457.581 171.049 453.454 165.703 450.989 159.55C448.524 153.397 447.819 146.68 448.952 140.15C450.086 133.619 453.013 127.533 457.408 122.57C461.802 117.608 467.49 113.966 473.835 112.051C480.18 110.136 486.934 110.023 493.339 111.726L496.004 105.485C488.358 103.263 480.241 103.235 472.58 105.405C464.919 107.575 458.022 111.855 452.677 117.757C447.332 123.659 443.753 130.944 442.35 138.782C440.947 146.62 441.776 154.695 444.742 162.085C447.708 169.474 452.691 175.881 459.124 180.574C465.557 185.267 473.179 188.057 481.121 188.625C489.064 189.194 497.006 187.518 504.041 183.789C511.077 180.06 516.922 174.428 520.91 167.537L514.644 164.905Z" fill="#ED995A"/>
<path d="M488.406 297.112C492.763 270.239 474.51 244.921 447.637 240.564C420.764 236.207 395.446 254.46 391.089 281.333C386.732 308.206 404.984 333.524 431.858 337.881C458.731 342.238 484.048 323.985 488.406 297.112Z" fill="#F7F3E4"/>
<path d="M449.508 302.618C449.12 302.617 448.744 302.476 448.452 302.219C448.16 301.962 447.972 301.608 447.921 301.223L443.409 266.667C443.367 266.452 443.369 266.23 443.416 266.015C443.462 265.8 443.553 265.598 443.681 265.419C443.809 265.241 443.973 265.091 444.162 264.978C444.35 264.866 444.56 264.793 444.778 264.765C444.996 264.737 445.217 264.754 445.428 264.815C445.639 264.876 445.835 264.98 446.005 265.12C446.174 265.26 446.313 265.433 446.413 265.629C446.512 265.824 446.571 266.038 446.584 266.258L451.096 300.813C451.15 301.234 451.036 301.66 450.778 301.996C450.519 302.333 450.138 302.554 449.717 302.61L449.508 302.618ZM461.038 296.628C460.651 296.627 460.276 296.487 459.985 296.232C459.693 295.977 459.503 295.625 459.451 295.241L454.906 260.677C454.863 260.461 454.865 260.239 454.912 260.025C454.959 259.81 455.049 259.607 455.177 259.429C455.306 259.251 455.469 259.101 455.658 258.988C455.847 258.876 456.056 258.803 456.274 258.775C456.492 258.747 456.713 258.764 456.924 258.825C457.135 258.886 457.332 258.989 457.501 259.129C457.67 259.269 457.809 259.442 457.909 259.638C458.009 259.834 458.067 260.048 458.08 260.267L462.592 294.823C462.647 295.244 462.532 295.669 462.274 296.006C462.015 296.343 461.634 296.563 461.214 296.619L461.038 296.628Z" fill="#FFE063"/>
<path d="M439.381 296.753C439.024 296.751 438.677 296.629 438.396 296.407C438.116 296.185 437.917 295.876 437.833 295.528C437.748 295.181 437.782 294.815 437.93 294.489C438.077 294.163 438.329 293.895 438.646 293.729L467.704 278.632C467.891 278.535 468.096 278.475 468.306 278.457C468.516 278.439 468.727 278.462 468.928 278.526C469.129 278.59 469.316 278.692 469.477 278.828C469.638 278.964 469.771 279.13 469.868 279.317C469.965 279.504 470.025 279.708 470.043 279.918C470.061 280.128 470.038 280.34 469.974 280.541C469.91 280.742 469.808 280.928 469.672 281.089C469.536 281.251 469.37 281.384 469.183 281.481L440.117 296.57C439.89 296.691 439.638 296.754 439.381 296.753ZM437.593 283.035C437.235 283.034 436.887 282.914 436.605 282.692C436.323 282.471 436.123 282.162 436.038 281.814C435.952 281.465 435.985 281.099 436.133 280.772C436.28 280.445 436.532 280.177 436.85 280.01L465.916 264.921C466.29 264.754 466.713 264.737 467.099 264.871C467.485 265.006 467.805 265.283 467.994 265.645C468.182 266.008 468.226 266.429 468.114 266.822C468.003 267.216 467.746 267.552 467.395 267.762L438.329 282.859C438.1 282.973 437.849 283.033 437.593 283.035Z" fill="#FFE063"/>
<path d="M424.703 318.526C422.532 318.522 420.374 318.187 418.304 317.532C413.132 315.884 408.793 312.309 406.186 307.549C403.579 302.789 402.904 297.207 404.3 291.963C405.697 286.718 409.058 282.212 413.688 279.378C418.317 276.545 423.859 275.601 429.165 276.743C429.382 276.776 429.591 276.853 429.777 276.97C429.963 277.087 430.124 277.241 430.248 277.422C430.373 277.603 430.458 277.808 430.5 278.024C430.542 278.24 430.539 278.462 430.491 278.677C430.444 278.892 430.352 279.094 430.223 279.272C430.094 279.45 429.93 279.6 429.74 279.711C429.551 279.823 429.34 279.894 429.122 279.921C428.904 279.948 428.682 279.93 428.471 279.868C425.144 279.141 421.677 279.376 418.478 280.548C415.28 281.719 412.481 283.777 410.409 286.481C408.338 289.186 407.08 292.424 406.782 295.818C406.484 299.211 407.16 302.619 408.729 305.643C410.301 308.666 412.701 311.178 415.649 312.886C418.597 314.594 421.971 315.426 425.375 315.286C428.779 315.146 432.073 314.038 434.87 312.094C437.668 310.149 439.853 307.448 441.171 304.306C441.346 303.93 441.659 303.637 442.046 303.488C442.432 303.338 442.861 303.344 443.244 303.503C443.626 303.663 443.932 303.965 444.097 304.345C444.261 304.725 444.273 305.154 444.129 305.543C442.52 309.381 439.815 312.66 436.353 314.969C432.89 317.279 428.824 318.516 424.662 318.526H424.703Z" fill="#FFE063"/>
<path d="M582.067 436.614C579.686 437.358 577.439 439.255 575.667 440.792C574.272 441.987 572.008 441.769 570.287 441.778C568.206 439.096 566.318 436.715 565.458 435.787C563.645 433.832 561.464 432.445 563.386 437.149C561.715 435.478 560.294 434.15 559.559 433.548C557.47 431.819 555.098 430.766 557.888 435.445C555.632 434.024 553.711 432.855 552.767 432.379C550.135 431.025 547.353 430.549 552.683 435.787C550.386 435.01 548.506 434.4 547.603 434.183C544.412 433.423 541.27 433.724 550.686 438.879C559.375 443.624 563.578 447.91 565.642 450.935C565.984 451.01 576.286 448.804 576.286 448.804C575.793 447.233 577.689 443.557 581.716 439.89C585.468 436.439 583.972 436.013 582.067 436.614Z" fill="#F2D5CC"/>
<path d="M605.879 490.094C598.911 488.573 576.253 448.787 576.253 448.787C572.657 449.236 569.1 449.948 565.608 450.918C566.185 461.863 589.437 510.998 599.563 513.362C610.934 516.027 628.195 511.825 639.265 508.408C638.095 502.309 634.678 488.155 632.899 480.878C622.33 486.568 611.443 491.313 605.879 490.094Z" fill="#ED995A"/>
<path d="M655.74 467.669C650.727 470.577 641.929 476.024 632.897 480.879C634.677 488.156 638.094 502.309 639.264 508.408C645.614 506.453 649.933 504.757 649.933 504.757L655.74 467.669Z" fill="#FED11B"/>
<path d="M789.594 503.988C789.594 503.988 753.609 529.847 746.9 527.382C743.558 526.154 742.28 522.912 738.696 514.173C734.56 518.601 722.696 525.602 718.819 530.047C729.004 544.443 735.187 549.832 740.818 551.728C750.677 555.07 792.192 519.98 797.74 510.497C795.199 508.117 792.475 505.941 789.594 503.988Z" fill="#ED995A"/>
<path d="M727.559 489.96L727.408 489.735C727.371 489.631 727.326 489.531 727.275 489.434C721.101 479.867 710.172 470.936 702.335 468.755C694.499 466.575 682.284 464.979 682.284 464.979C677.772 463.534 663.326 461.57 655.707 467.669C647.176 474.487 641.771 534.099 629.581 559.573C638.721 562.823 689.235 585.908 689.235 585.908C693.412 577.052 704.909 549.079 716.413 526.421C716.948 527.198 718.268 529.362 718.786 530.097C722.663 525.644 734.527 518.642 738.663 514.223C736.039 507.731 731.319 496.494 727.559 489.96Z" fill="url(#paint3_linear_1537_2072)"/>
<path d="M797.741 510.538C803.078 507.497 808.195 504.085 813.055 500.328C816.097 497.931 819.564 492.174 821.143 489.718C819.689 482.332 809.488 487.83 806.388 492.124C801.484 495.031 800.172 497.137 798.401 495.976C795.284 493.878 799.337 486.067 797.482 483.777C794.975 484.98 794.215 491.506 791.391 494.881C788.567 498.256 790.556 501.74 789.595 503.988L797.741 510.538Z" fill="#F2D5CC"/>
<path d="M686.336 456.792C684.941 459.741 682.334 464.979 682.334 464.979C684.13 468.539 693.354 471.588 702.386 468.756C703.263 462.907 706.229 451.127 706.229 451.127L686.336 456.792Z" fill="#EDD1CA"/>
<path d="M679.986 423.765C678.466 429.83 673.436 447.919 676.644 454.728C679.301 460.326 685.367 461.596 695.418 458.83C705.469 456.065 706.914 438.185 708.51 433.089C711.066 425.035 682.158 414.975 679.986 423.765Z" fill="#F3DAD2"/>
<path d="M679.067 416.646C676.903 413.413 671.548 400.68 678.816 406.244C677.546 402.426 683.704 394.113 689.001 406.094C694.298 418.075 703.204 415.71 703.204 415.71C700.865 413.538 699.862 403.946 708.017 414.039C716.171 424.132 718.878 428.66 714.024 435.586C709.17 442.513 707.148 461.086 703.58 462.915C701.909 463.751 700.756 460.175 702.82 453.015C704.775 446.239 698.843 448.837 700.999 443.298C701.071 443.636 701.223 443.953 701.442 444.22C701.662 444.488 701.942 444.699 702.26 444.835C703.472 445.295 704.934 444.384 705.535 442.805C706.137 441.226 705.636 439.563 704.424 439.104C704.165 439.015 703.891 438.98 703.618 439C703.346 439.02 703.08 439.095 702.837 439.221C705.051 434.383 706.755 430.172 704.34 427.95C701.358 425.21 682.317 426.764 677.605 421.266C672.893 415.769 675.675 414.306 679.067 416.646ZM496.295 744.099C496.153 744.283 496.011 744.45 495.894 744.575C490.664 749.797 463.31 745.553 462.032 752.095C460.628 759.138 470.922 761.06 482.535 761.335C498.668 761.728 503.781 763.516 505.828 758.962C506.814 756.757 508.928 753.189 510.198 751.042C504.897 750.417 499.98 747.961 496.295 744.099ZM572.868 787.561C572.214 788.792 571.471 789.973 570.646 791.095C566.685 796.225 565.039 798.89 567.07 802.867C570.077 808.716 580.663 832.753 588.792 829.603C600.046 825.183 582.434 802.333 586.11 793.009C583.011 793.577 578.349 793.117 572.868 787.561Z" fill="#FED11B"/>
<path d="M643.157 714.305C648.964 702.692 678.674 640.624 689.268 585.899C677.872 580.719 629.614 559.564 629.614 559.564C616.246 576.458 565.849 624.148 549.599 646.79C533.725 668.913 502.595 736.187 496.295 744.099C499.981 747.958 504.897 750.41 510.197 751.033C525.729 724.766 560.46 702.149 572.533 670.659C594.741 653.774 625.077 632.294 633.524 622.427C624.526 648.845 615.92 693.376 614.366 699.342C599.094 716.77 582.342 770.358 572.893 787.561C578.373 793.117 583.035 793.577 586.135 792.967C586.248 792.677 586.385 792.398 586.544 792.131C591.75 783.417 637.351 725.919 643.157 714.305Z" fill="url(#paint4_linear_1537_2072)"/>
<path d="M561.43 667.276C557.729 672.506 564.914 674.461 547.06 699.342C538.338 711.49 516.373 728.45 507.399 750.541C508.319 750.774 509.254 750.939 510.198 751.034C525.73 724.766 560.461 702.149 572.534 670.66C594.741 653.774 625.078 632.294 633.525 622.427C612.638 634.182 596.295 644.417 583.88 653.992C571.465 663.566 565.132 662.021 561.43 667.276Z" fill="#FED11B"/>
<path d="M597.573 397.772C597.869 396.651 597.856 395.47 597.535 394.355C597.214 393.24 596.598 392.233 595.752 391.44C596.872 391.143 597.892 390.548 598.701 389.718C599.51 388.889 600.079 387.855 600.347 386.727C600.567 385.938 600.629 385.114 600.53 384.301C600.431 383.488 600.173 382.703 599.77 381.99C599.367 381.277 598.828 380.65 598.183 380.145C597.538 379.641 596.8 379.268 596.011 379.049L541.704 365.414C540.09 365.053 538.398 365.347 537.001 366.232C535.603 367.117 534.615 368.521 534.252 370.135C533.96 371.257 533.976 372.438 534.298 373.552C534.62 374.666 535.236 375.673 536.081 376.468C534.968 376.778 533.957 377.378 533.15 378.205C532.344 379.033 531.77 380.059 531.489 381.18C531.207 382.301 531.227 383.477 531.546 384.587C531.866 385.698 532.473 386.704 533.307 387.504C532.188 387.803 531.17 388.399 530.362 389.228C529.553 390.058 528.983 391.09 528.712 392.217C528.268 393.811 528.476 395.516 529.289 396.958C530.102 398.399 531.454 399.459 533.048 399.903L587.355 413.53C588.969 413.891 590.661 413.597 592.058 412.712C593.456 411.827 594.445 410.423 594.808 408.809C595.1 407.688 595.084 406.509 594.762 405.396C594.44 404.282 593.824 403.277 592.978 402.485C594.097 402.186 595.115 401.59 595.924 400.761C596.733 399.931 597.303 398.899 597.573 397.772Z" fill="#D8C36F"/>
<path d="M560.177 406.72L533.032 399.903C533.032 399.903 535.012 411.199 536.157 412.435C537.302 413.672 538.162 413.864 540.435 414.432L557.186 418.609L573.946 422.787C576.21 423.355 577.079 423.572 578.658 423.054C580.237 422.536 587.322 413.505 587.322 413.505L560.177 406.72Z" fill="#FED11B"/>
<path d="M590.004 391.598C589.872 391.601 589.74 391.587 589.612 391.556L541.454 379.458C541.057 379.341 540.72 379.074 540.515 378.714C540.31 378.354 540.252 377.929 540.354 377.527C540.455 377.125 540.708 376.779 541.06 376.559C541.411 376.34 541.834 376.265 542.239 376.35L590.389 388.448C590.772 388.538 591.109 388.765 591.334 389.088C591.56 389.41 591.658 389.805 591.611 390.196C591.563 390.586 591.373 390.946 591.076 391.204C590.78 391.463 590.398 391.603 590.004 391.598ZM587.231 402.643C587.098 402.643 586.966 402.626 586.838 402.593L538.689 390.487C538.475 390.445 538.272 390.361 538.091 390.238C537.911 390.116 537.758 389.958 537.641 389.774C537.524 389.59 537.445 389.384 537.41 389.169C537.375 388.954 537.385 388.734 537.438 388.523C537.49 388.312 537.586 388.113 537.718 387.94C537.85 387.766 538.016 387.622 538.206 387.515C538.395 387.408 538.605 387.34 538.822 387.317C539.038 387.294 539.257 387.315 539.466 387.379L587.615 399.468C587.992 399.565 588.322 399.796 588.542 400.117C588.761 400.439 588.857 400.829 588.81 401.216C588.763 401.603 588.576 401.959 588.286 402.219C587.995 402.478 587.62 402.623 587.231 402.626V402.643Z" fill="#FFE063"/>
<path d="M654.655 310.714C657.336 300.041 657.396 288.877 654.828 278.175C652.261 267.473 647.142 257.551 639.91 249.256C632.678 240.961 623.546 234.538 613.294 230.536C603.042 226.534 591.974 225.072 581.034 226.274C570.095 227.476 559.608 231.306 550.469 237.438C541.331 243.57 533.811 251.822 528.552 261.49C523.293 271.158 520.451 281.954 520.268 292.958C520.085 303.962 522.567 314.847 527.502 324.684C527.585 324.851 528.011 325.519 528.12 325.745C539.324 345.078 542.908 360.685 541.722 365.414L568.867 372.231L596.012 379.049C597.198 374.328 607.759 362.339 626.708 350.642C626.925 350.509 627.543 350.074 627.644 349.999C641.101 340.601 650.697 326.645 654.655 310.714Z" fill="#F3B378"/>
<path d="M545.006 366.258C545.624 356.842 540.828 342.964 532.089 327.324L530.794 324.817C525.151 313.796 522.802 301.382 524.029 289.061C525.256 276.739 530.007 265.032 537.714 255.341C545.42 245.649 555.756 238.382 567.484 234.411C579.212 230.439 591.836 229.93 603.845 232.946C615.855 235.961 626.741 242.372 635.203 251.413C643.664 260.453 649.341 271.74 651.556 283.922C653.77 296.105 652.428 308.668 647.689 320.107C642.951 331.547 635.017 341.38 624.837 348.428L622.506 350.041C607.4 359.657 596.455 370.351 592.762 378.222L545.006 366.258Z" fill="#ED995A"/>
<path d="M635.372 251.604C644.353 267.147 646.925 285.578 642.54 302.986C638.446 319.278 626.858 333.064 613.056 342.613L610.549 344.351C594.316 354.711 582.561 366.208 578.559 374.663L592.762 378.222C596.488 370.352 607.433 359.657 622.539 350.016L624.87 348.403C632.46 343.144 638.831 336.315 643.551 328.378C648.271 320.441 651.229 311.582 652.225 302.402C653.221 293.221 652.232 283.934 649.324 275.169C646.416 266.405 641.658 258.368 635.372 251.604Z" fill="#D67747"/>
<path d="M545.857 249.732C541.872 253.842 540.577 259.056 542.966 261.37C545.356 263.684 550.486 262.206 554.504 258.112C558.523 254.018 559.785 248.788 557.403 246.473C555.022 244.159 549.842 245.613 545.857 249.732Z" fill="white"/>
<path d="M564.354 366.876L561.246 366.099L571.272 326.355C573.436 317.716 571.155 307.832 564.479 296.979C564.287 296.618 564.24 296.197 564.348 295.803C564.456 295.409 564.71 295.07 565.058 294.857C565.407 294.643 565.824 294.571 566.225 294.655C566.625 294.739 566.978 294.973 567.211 295.308C574.355 306.93 576.761 317.632 574.372 327.14L564.354 366.876ZM578.491 370.435L575.383 369.65L585.358 329.906C587.748 320.398 594.933 312.093 606.713 305.267C607.078 305.086 607.498 305.05 607.888 305.166C608.278 305.283 608.609 305.544 608.814 305.895C609.019 306.247 609.082 306.663 608.992 307.06C608.901 307.457 608.663 307.805 608.326 308.032C597.322 314.449 590.639 322.077 588.466 330.716L578.491 370.435Z" fill="#F7C479"/>
<path d="M605.953 303.679C605.789 303.674 605.631 303.62 605.497 303.525C605.363 303.43 605.26 303.298 605.201 303.144C605.14 302.945 605.156 302.729 605.246 302.541C605.335 302.352 605.492 302.204 605.686 302.125C614.876 298.875 617.558 297.355 618.352 296.72C616.564 296.335 610.699 296.937 608.644 297.146L607.507 297.263C607.331 297.285 607.152 297.246 607.001 297.154C606.849 297.061 606.733 296.92 606.672 296.753C606.614 296.588 606.61 296.409 606.659 296.241C606.708 296.073 606.809 295.925 606.948 295.817C617.909 287.855 619.856 285.273 620.182 284.538H620.006C617.366 284.538 606.388 289.501 604.007 291.899C603.857 291.996 603.681 292.043 603.502 292.033C603.324 292.023 603.154 291.956 603.017 291.842C602.88 291.728 602.783 291.573 602.74 291.4C602.697 291.227 602.71 291.044 602.778 290.88C610.707 279.509 611.777 276.401 611.835 275.565C611 275.74 607.959 277.236 596.905 287.613C596.764 287.712 596.597 287.765 596.425 287.765C596.253 287.765 596.086 287.712 595.945 287.613C595.804 287.515 595.698 287.375 595.639 287.213C595.581 287.052 595.573 286.876 595.618 286.71C600.974 274.253 601.684 270.627 601.667 269.583C599.579 270.895 592.828 280.57 589.895 286.176C589.786 286.312 589.637 286.411 589.468 286.458C589.3 286.505 589.121 286.498 588.957 286.438C588.792 286.378 588.651 286.268 588.553 286.124C588.454 285.979 588.404 285.807 588.408 285.633C591.299 272.524 591.533 268.463 591.407 267.202C589.553 269.316 584.999 279.976 582.284 287.253C582.217 287.417 582.101 287.555 581.95 287.648C581.8 287.741 581.625 287.785 581.448 287.771C581.267 287.739 581.102 287.648 580.978 287.512C580.854 287.376 580.779 287.203 580.763 287.02C579.878 271.02 578.775 267.093 578.257 266.132C576.695 268.522 574.798 283.778 575.007 286.903C574.996 287.068 574.935 287.227 574.833 287.359C574.731 287.49 574.593 287.588 574.435 287.64C574.277 287.692 574.107 287.696 573.947 287.651C573.787 287.606 573.644 287.514 573.536 287.387C565.9 275.273 563.235 272.532 562.357 271.939C562.174 275.005 568.54 290.854 569.877 293.244C569.971 293.43 569.993 293.644 569.937 293.845C569.882 294.046 569.753 294.219 569.576 294.33C569.389 294.427 569.173 294.45 568.97 294.394C568.767 294.338 568.593 294.208 568.482 294.029C568.365 293.82 558.406 272.181 561.455 270.36C562.408 269.8 563.686 269.031 573.495 284.363C573.896 278.606 575.383 265.982 577.555 264.553C577.737 264.428 577.95 264.354 578.17 264.339C578.391 264.324 578.611 264.37 578.808 264.47C579.527 264.829 580.972 265.556 582.15 283.193C585.701 274.003 589.912 264.704 592.017 265.322C592.995 265.606 594.181 265.957 591.04 281.196C594.424 275.69 600.297 266.918 602.519 267.979C603.422 268.413 604.759 269.048 598.593 283.912C610.975 272.549 612.228 273.618 612.996 274.287C613.966 275.122 614.208 276.96 606.53 288.323C611.242 285.633 618.736 282.374 620.925 283.093C621.167 283.157 621.384 283.29 621.552 283.475C621.719 283.661 621.83 283.891 621.869 284.137C621.995 284.922 622.254 286.51 610.29 295.408C617.625 294.714 619.914 294.957 620.223 296.319C620.499 297.53 619.63 298.917 606.246 303.654C606.151 303.682 606.051 303.691 605.953 303.679Z" fill="white"/>
<g filter="url(#filter2_f_1537_2072)">
<path d="M807.239 721.683C807.107 721.683 806.975 721.666 806.846 721.633C806.435 721.53 806.08 721.269 805.861 720.906C805.642 720.542 805.576 720.107 805.677 719.695L816.312 676.843C816.975 674.011 816.495 671.032 814.977 668.551C813.459 666.07 811.025 664.287 808.202 663.587C805.379 662.887 802.394 663.328 799.894 664.812C797.393 666.297 795.577 668.707 794.84 671.52C793.928 675.193 791.595 678.353 788.353 680.305C785.111 682.257 781.227 682.842 777.554 681.931C773.95 681.133 770.782 678.998 768.69 675.957C766.626 672.799 766.091 668.889 767.144 664.653C770.603 650.717 777.061 637.917 782.768 626.563C795.058 602.158 803.93 584.529 781.097 569.098C780.745 568.86 780.502 568.493 780.42 568.076C780.339 567.66 780.426 567.228 780.662 566.875C780.903 566.525 781.271 566.283 781.689 566.202C782.106 566.121 782.538 566.206 782.893 566.441C808.083 583.452 797.689 604.096 785.65 628.008C780.027 639.179 773.652 651.836 770.277 665.421C769.441 668.763 769.834 671.813 771.397 674.202C773.048 676.568 775.535 678.219 778.356 678.823C781.199 679.522 784.203 679.065 786.709 677.552C789.215 676.039 791.019 673.593 791.724 670.752C792.146 668.903 792.932 667.156 794.036 665.614C795.141 664.072 796.542 662.766 798.157 661.772C799.772 660.778 801.569 660.116 803.443 659.824C805.317 659.533 807.231 659.617 809.071 660.074C810.912 660.53 812.644 661.349 814.164 662.483C815.685 663.616 816.965 665.041 817.928 666.675C818.892 668.308 819.52 670.118 819.776 671.997C820.033 673.876 819.912 675.788 819.421 677.62L808.793 720.505C808.699 720.845 808.497 721.145 808.216 721.357C807.935 721.57 807.591 721.685 807.239 721.683Z" fill="#FED11B"/>
</g>
<g filter="url(#filter3_f_1537_2072)">
<path d="M689.467 771.171C689.027 772.978 689.321 774.885 690.284 776.476C691.247 778.067 692.801 779.211 694.605 779.66L864.585 821.827C866.39 822.275 868.298 821.989 869.892 821.032C871.487 820.075 872.637 818.525 873.09 816.722L890.159 747.936C890.596 746.13 890.301 744.224 889.339 742.634C888.376 741.044 886.824 739.898 885.021 739.448L715.041 697.281C713.235 696.835 711.327 697.122 709.732 698.078C708.137 699.035 706.985 700.583 706.527 702.386L689.467 771.171Z" fill="#F7F3E4"/>
<path d="M784.283 730.604L786.421 721.983L795.082 724.132L792.944 732.752L784.283 730.604Z" fill="white"/>
<path d="M769.7 726.994L771.84 718.374L780.492 720.522L778.352 729.141L769.7 726.994Z" fill="white"/>
<path d="M755.117 723.368L757.255 714.748L765.916 716.896L763.778 725.516L755.117 723.368Z" fill="white"/>
<path d="M740.539 719.748L742.679 711.128L751.331 713.276L749.191 721.896L740.539 719.748Z" fill="white"/>
<path d="M725.92 716.074L728.058 707.454L736.719 709.602L734.581 718.222L725.92 716.074Z" fill="white"/>
<path d="M711.378 712.519L713.516 703.898L722.177 706.047L720.039 714.667L711.378 712.519Z" fill="white"/>
<path d="M732.74 782.005L735.635 770.336L751.196 774.196L748.302 785.865L732.74 782.005Z" fill="white"/>
<path d="M696.294 772.925L699.19 761.248L729.713 768.818L726.817 780.495L696.294 772.925Z" fill="white"/>
<path d="M754.162 787.298L757.058 775.621L803.767 787.206L800.871 798.883L754.162 787.298Z" fill="white"/>
<path d="M786.393 776.199L788.531 767.579L801.27 770.739L799.132 779.359L786.393 776.199Z" fill="white"/>
<path d="M767.799 771.679L769.937 763.059L782.676 766.219L780.538 774.839L767.799 771.679Z" fill="white"/>
<path d="M749.073 766.933L751.211 758.313L763.951 761.473L761.813 770.093L749.073 766.933Z" fill="white"/>
<path d="M730.414 762.304L732.552 753.684L745.292 756.844L743.154 765.464L730.414 762.304Z" fill="white"/>
<path d="M700.779 754.999L702.917 746.379L726.661 752.268L724.523 760.888L700.779 754.999Z" fill="white"/>
<path d="M795.89 763.658L798.029 755.039L810.768 758.201L808.629 766.82L795.89 763.658Z" fill="white"/>
<path d="M777.227 759.025L779.365 750.405L792.104 753.565L789.966 762.185L777.227 759.025Z" fill="white"/>
<path d="M758.49 754.28L760.628 745.66L773.368 748.82L771.23 757.44L758.49 754.28Z" fill="white"/>
<path d="M739.831 749.649L741.969 741.029L754.709 744.189L752.571 752.809L739.831 749.649Z" fill="white"/>
<path d="M704.278 740.881L706.416 732.261L736.08 739.619L733.942 748.239L704.278 740.881Z" fill="white"/>
<path d="M786.524 746.463L788.662 737.843L801.402 741.003L799.264 749.623L786.524 746.463Z" fill="white"/>
<path d="M767.938 741.951L770.077 733.331L782.816 736.49L780.678 745.11L767.938 741.951Z" fill="white"/>
<path d="M749.285 737.326L751.425 728.706L764.164 731.868L762.024 740.488L749.285 737.326Z" fill="white"/>
<path d="M730.563 732.593L732.702 723.973L745.441 727.133L743.303 735.753L730.563 732.593Z" fill="white"/>
<path d="M707.732 726.972L709.87 718.352L726.802 722.551L724.664 731.171L707.732 726.972Z" fill="white"/>
</g>
<path d="M399.647 486.593L476.378 456.34L530.192 592.809L427.677 633.23L384.031 522.544L399.647 486.593Z" fill="#F7F3E4"/>
<path d="M409.806 512.376L384.031 522.544L399.647 486.593L409.806 512.376Z" fill="#F7F7FC"/>
<path d="M384.031 522.544L406.815 519.127L405.687 514.005L384.031 522.544Z" fill="#ECE4C5"/>
<path d="M418.471 580.572L466.175 561.752L467.352 564.737L419.648 583.557L418.471 580.572Z" fill="#FED11B"/>
<path d="M472.964 559.093L481.086 555.889L482.263 558.873L474.141 562.077L472.964 559.093Z" fill="#FED11B"/>
<path d="M484.675 554.477L490.644 552.122L491.821 555.107L485.852 557.461L484.675 554.477Z" fill="#FED11B"/>
<path d="M493.845 550.865L500.972 548.053L502.149 551.038L495.022 553.849L493.845 550.865Z" fill="#FED11B"/>
<path d="M423.305 592.843L505.804 560.296L506.981 563.28L424.482 595.828L423.305 592.843Z" fill="#FED11B"/>
<path d="M439.157 600.757L510.643 572.554L511.821 575.539L440.335 603.741L439.157 600.757Z" fill="#FED11B"/>
<path d="M465.427 528.559L461.471 530.119L459.911 526.163L463.867 524.603L465.427 528.559Z" fill="#FED11B"/>
<path d="M454.433 532.907L450.476 534.467L448.916 530.511L452.873 528.951L454.433 532.907Z" fill="#FED11B"/>
<path d="M443.438 537.238L439.481 538.798L437.921 534.842L441.878 533.282L443.438 537.238Z" fill="#FED11B"/>
<path d="M439.341 558.42C437.704 558.422 436.105 557.931 434.75 557.012C433.396 556.092 432.35 554.787 431.746 553.265L429.349 547.175C429.111 546.57 428.756 546.018 428.304 545.551C427.853 545.084 427.314 544.71 426.718 544.452C426.122 544.193 425.48 544.055 424.831 544.045C424.181 544.035 423.536 544.153 422.932 544.393L421.762 541.41C422.981 540.926 423.957 539.979 424.479 538.776C425 537.574 425.024 536.213 424.544 534.993L422.147 528.903C421.752 527.906 421.558 526.842 421.575 525.771C421.592 524.7 421.82 523.642 422.246 522.659C422.672 521.676 423.288 520.787 424.058 520.042C424.828 519.297 425.737 518.71 426.733 518.317L430.794 516.721L431.972 519.704L427.911 521.3C427.307 521.537 426.755 521.892 426.288 522.344C425.821 522.795 425.447 523.334 425.189 523.93C424.93 524.527 424.792 525.168 424.782 525.817C424.772 526.467 424.89 527.112 425.129 527.716L427.527 533.807C427.992 534.991 428.173 536.267 428.057 537.533C427.941 538.799 427.531 540.021 426.859 541.101C427.248 541.203 427.628 541.337 427.995 541.502C428.978 541.924 429.868 542.538 430.612 543.306C431.356 544.075 431.941 544.984 432.331 545.98L434.729 552.071C434.967 552.675 435.322 553.227 435.773 553.694C436.225 554.162 436.764 554.535 437.36 554.794C437.956 555.052 438.597 555.19 439.247 555.2C439.896 555.211 440.542 555.093 441.146 554.853L445.206 553.257L446.376 556.24L442.315 557.836C441.369 558.215 440.36 558.414 439.341 558.42ZM470.73 546.648L469.561 543.666L473.621 542.07C474.839 541.586 475.816 540.639 476.338 539.436C476.859 538.234 476.883 536.873 476.403 535.653L474.005 529.571C473.61 528.575 473.417 527.51 473.437 526.439C473.458 525.367 473.69 524.311 474.122 523.33C474.279 522.963 474.464 522.608 474.674 522.269C474.287 522.168 473.91 522.033 473.546 521.868C472.562 521.446 471.672 520.834 470.928 520.065C470.183 519.296 469.599 518.386 469.21 517.39L466.804 511.299C466.566 510.695 466.211 510.144 465.76 509.678C465.309 509.211 464.771 508.838 464.176 508.58C463.581 508.321 462.941 508.183 462.292 508.172C461.643 508.161 460.999 508.278 460.395 508.517L456.335 510.112L455.157 507.13L459.217 505.534C461.227 504.745 463.468 504.785 465.449 505.645C467.43 506.504 468.989 508.114 469.786 510.121L472.192 516.211C472.428 516.816 472.782 517.369 473.232 517.837C473.683 518.304 474.221 518.678 474.817 518.937C475.413 519.196 476.054 519.334 476.703 519.343C477.353 519.353 477.997 519.234 478.601 518.994L479.779 521.976C478.559 522.458 477.581 523.405 477.059 524.609C476.537 525.812 476.515 527.173 476.996 528.393L479.394 534.484C480.182 536.496 480.14 538.738 479.277 540.72C478.414 542.701 476.801 544.259 474.791 545.053L470.73 546.648Z" fill="#FED11B"/>
<path d="M807.908 478.029C807.767 478.029 807.627 478.012 807.49 477.979C807.081 477.869 806.732 477.602 806.519 477.236C806.306 476.87 806.247 476.434 806.354 476.024L817.032 435.804C817.142 435.393 817.412 435.042 817.781 434.83C817.964 434.725 818.165 434.657 818.374 434.63C818.583 434.602 818.796 434.617 818.999 434.672C819.203 434.726 819.393 434.821 819.56 434.949C819.727 435.078 819.867 435.238 819.973 435.421C820.078 435.604 820.146 435.805 820.173 436.014C820.2 436.223 820.186 436.436 820.131 436.639L809.454 476.851C809.36 477.19 809.159 477.488 808.879 477.701C808.6 477.914 808.259 478.029 807.908 478.029ZM801.775 472.64C801.561 472.639 801.348 472.597 801.149 472.515L781.841 464.377C781.602 464.276 781.392 464.118 781.228 463.918C781.063 463.717 780.95 463.48 780.898 463.226C780.845 462.973 780.855 462.71 780.926 462.461C780.997 462.212 781.127 461.983 781.306 461.796L795.802 446.673C795.943 446.507 796.117 446.371 796.313 446.274C796.509 446.178 796.723 446.122 796.941 446.111C797.159 446.1 797.378 446.133 797.583 446.209C797.787 446.285 797.975 446.403 798.132 446.554C798.29 446.705 798.416 446.886 798.501 447.088C798.586 447.289 798.629 447.505 798.628 447.724C798.626 447.943 798.58 448.158 798.492 448.359C798.404 448.559 798.276 448.739 798.116 448.887L785.233 462.339L802.394 469.566C802.735 469.709 803.016 469.966 803.189 470.293C803.363 470.62 803.418 470.997 803.345 471.36C803.272 471.723 803.076 472.049 802.79 472.284C802.504 472.519 802.146 472.648 801.775 472.649V472.64ZM830.249 466.742C829.837 466.736 829.441 466.579 829.138 466.299C828.986 466.153 828.864 465.979 828.779 465.786C828.695 465.594 828.65 465.386 828.646 465.176C828.642 464.965 828.68 464.756 828.757 464.56C828.834 464.364 828.949 464.186 829.096 464.035L841.979 450.583L824.818 443.356C824.625 443.275 824.449 443.157 824.301 443.008C824.153 442.859 824.036 442.682 823.957 442.487C823.877 442.293 823.837 442.085 823.838 441.875C823.838 441.665 823.881 441.457 823.962 441.264C824.043 441.07 824.162 440.894 824.311 440.746C824.46 440.598 824.637 440.481 824.831 440.402C825.025 440.322 825.233 440.282 825.443 440.283C825.653 440.284 825.861 440.326 826.055 440.407L845.371 448.536C845.61 448.639 845.82 448.797 845.985 448.997C846.149 449.198 846.262 449.435 846.315 449.689C846.37 449.943 846.362 450.206 846.29 450.455C846.219 450.705 846.087 450.932 845.906 451.118L831.41 466.249C831.26 466.405 831.079 466.529 830.88 466.614C830.68 466.698 830.466 466.742 830.249 466.742Z" fill="#FED11B"/>
<g filter="url(#filter4_f_1537_2072)">
<path d="M151.389 49.5322C151.287 48.5839 151.153 47.6393 150.988 46.6999L159.728 43.3579L158.374 38.5037L149.184 40.1747C148.505 38.3917 147.68 36.6676 146.719 35.0197L153.779 28.8789L150.846 24.785L142.75 29.4888C141.503 28.048 140.14 26.7122 138.673 25.4951L143.218 17.3073L139.041 14.4583L133.042 21.6435C131.375 20.7164 129.638 19.923 127.845 19.2708L129.307 10.0804L124.436 8.82714L121.262 17.6165C119.374 17.3223 117.466 17.1798 115.555 17.1904L113.776 8L108.763 8.49294V17.8504C106.89 18.2123 105.049 18.7207 103.257 19.371L98.4444 11.3587L93.9077 13.5309L97.1243 22.3119C95.4881 23.2985 93.9346 24.4162 92.479 25.6539L85.2102 19.7637L81.6845 23.3563L87.7167 30.5081C86.52 31.9919 85.4417 33.5675 84.4917 35.2202L75.6773 32.0621L73.597 36.6489L81.7096 41.3026C81.0866 43.1046 80.6116 44.9544 80.2892 46.8335L70.9317 47.0006L70.5391 52.0136L79.7712 53.6511C79.7712 54.5952 79.8297 55.5477 79.9216 56.5085C80.0135 57.4693 80.1555 58.4051 80.3226 59.3325L71.5834 62.6744L72.9369 67.5202L82.1273 65.8493C82.8061 67.6349 83.6305 69.3619 84.592 71.0126L77.5488 77.1785L80.473 81.2724L88.5689 76.5686C89.8203 78.008 91.1836 79.3462 92.6461 80.5706L88.1094 88.7584L92.2868 91.599L98.2773 84.4138C99.9452 85.3444 101.686 86.1379 103.482 86.7866L102.02 96.0188L106.891 97.272L110.066 88.4827C111.951 88.7793 113.856 88.9246 115.764 88.9171L117.552 98.1075L122.565 97.6146V88.2654C124.441 87.9047 126.285 87.3933 128.079 86.7365L132.892 94.7488L137.428 92.5766L134.212 83.8039C135.841 82.8116 137.392 81.6943 138.849 80.462L146.126 86.3104L149.652 82.7094L143.619 75.5576C144.816 74.0757 145.892 72.4999 146.836 70.8455L155.692 73.895L157.772 69.3165L149.66 64.6545C150.283 62.8525 150.758 61.0028 151.08 59.1236L160.438 58.9565L160.822 53.9436L151.632 52.3394C151.523 51.4371 151.481 50.493 151.389 49.5322ZM117.31 67.796C114.382 68.0796 111.437 67.4888 108.845 66.0983C106.253 64.7079 104.132 62.5802 102.749 59.9843C101.367 57.3884 100.785 54.4408 101.078 51.5143C101.37 48.5878 102.524 45.8137 104.393 43.5428C106.262 41.2719 108.762 39.6062 111.578 38.7563C114.394 37.9064 117.398 37.9105 120.212 38.7679C123.025 39.6254 125.521 41.2978 127.384 43.5737C129.247 45.8496 130.393 48.6267 130.678 51.5541C130.867 53.4983 130.671 55.4608 130.101 57.3294C129.532 59.1979 128.6 60.936 127.358 62.4443C126.117 63.9526 124.591 65.2015 122.866 66.1198C121.142 67.038 119.254 67.6076 117.31 67.796Z" fill="#FFE063"/>
</g>
<g filter="url(#filter5_f_1537_2072)">
<path d="M262.684 144.853C263.572 144.855 264.429 144.526 265.088 143.929C265.746 143.333 266.158 142.512 266.243 141.628C266.438 139.528 266.536 137.406 266.536 135.261C266.536 133.117 266.438 130.992 266.243 128.887C266.158 128.003 265.746 127.182 265.088 126.586C264.429 125.989 263.572 125.66 262.684 125.662H257.178C256.358 125.657 255.565 125.371 254.93 124.853C254.294 124.335 253.856 123.615 253.686 122.813C253.291 120.986 252.808 119.179 252.24 117.399C251.996 116.624 252.021 115.789 252.313 115.03C252.604 114.271 253.144 113.633 253.845 113.221L258.615 110.464C259.386 110.02 259.963 109.306 260.235 108.459C260.507 107.613 260.454 106.695 260.086 105.886C258.299 102.027 256.165 98.3386 253.711 94.8656C253.194 94.1408 252.426 93.6346 251.556 93.4461C250.686 93.2576 249.777 93.4003 249.007 93.8463L244.245 96.6034C243.533 97.0097 242.704 97.1599 241.896 97.0292C241.087 96.8984 240.347 96.4946 239.8 95.8849C238.538 94.5063 237.21 93.1779 235.831 91.9163C235.222 91.3691 234.818 90.6296 234.687 89.8208C234.556 89.0121 234.707 88.183 235.113 87.4715L237.87 82.7092C238.316 81.939 238.459 81.0301 238.27 80.1602C238.082 79.2903 237.576 78.522 236.851 78.0054C233.378 75.5515 229.689 73.4178 225.831 71.6306C225.021 71.2627 224.104 71.2095 223.257 71.4813C222.411 71.7532 221.696 72.3307 221.252 73.1011L218.495 77.8717C218.083 78.5722 217.445 79.1123 216.687 79.4036C215.928 79.695 215.093 79.7205 214.318 79.4759C212.546 78.9189 210.742 78.4371 208.904 78.0305C208.102 77.8608 207.382 77.4219 206.863 76.7866C206.345 76.1514 206.06 75.358 206.055 74.5381V69.0323C206.057 68.144 205.727 67.2869 205.131 66.6287C204.534 65.9704 203.714 65.5584 202.83 65.4731C200.724 65.2837 198.602 65.1862 196.463 65.1807C194.316 65.1807 192.186 65.2809 190.088 65.4731C189.204 65.5584 188.384 65.9704 187.787 66.6287C187.191 67.2869 186.861 68.144 186.863 69.0323V74.5381C186.858 75.358 186.573 76.1514 186.055 76.7866C185.536 77.4219 184.817 77.8608 184.014 78.0305C182.176 78.4204 180.369 78.9022 178.592 79.4759C177.817 79.722 176.981 79.6973 176.222 79.4058C175.463 79.1143 174.826 78.5733 174.415 77.8717L171.658 73.1011C171.214 72.3307 170.499 71.7532 169.652 71.4813C168.806 71.2095 167.888 71.2627 167.079 71.6306C163.22 73.4178 159.532 75.5515 156.059 78.0054C155.334 78.522 154.828 79.2903 154.64 80.1602C154.451 81.0301 154.594 81.939 155.04 82.7092L157.797 87.4715C158.203 88.183 158.353 89.0121 158.223 89.8208C158.092 90.6296 157.688 91.3691 157.078 91.9163C155.696 93.1779 154.371 94.5022 153.11 95.8849C152.562 96.4946 151.823 96.8984 151.014 97.0292C150.205 97.1599 149.376 97.0097 148.665 96.6034L143.903 93.8463C143.132 93.4003 142.223 93.2576 141.354 93.4461C140.484 93.6346 139.715 94.1408 139.199 94.8656C136.745 98.3386 134.611 102.027 132.824 105.886C132.456 106.695 132.403 107.613 132.675 108.459C132.947 109.306 133.524 110.02 134.294 110.464L139.065 113.221C139.766 113.633 140.306 114.271 140.597 115.03C140.888 115.789 140.914 116.624 140.669 117.399C140.112 119.17 139.63 120.975 139.224 122.813C139.054 123.615 138.615 124.335 137.98 124.853C137.345 125.371 136.551 125.657 135.731 125.662H130.226C129.336 125.66 128.478 125.989 127.819 126.585C127.159 127.181 126.745 128.002 126.658 128.887C126.474 130.992 126.374 133.114 126.374 135.261C126.374 137.409 126.474 139.531 126.658 141.628C126.745 142.513 127.159 143.333 127.819 143.93C128.478 144.526 129.336 144.855 130.226 144.853H135.731C136.551 144.858 137.345 145.143 137.98 145.662C138.615 146.18 139.054 146.9 139.224 147.702C139.619 149.54 140.101 151.345 140.669 153.116C140.914 153.891 140.888 154.726 140.597 155.485C140.306 156.244 139.766 156.881 139.065 157.293L134.294 160.05C133.524 160.494 132.947 161.209 132.675 162.056C132.403 162.902 132.456 163.82 132.824 164.629C134.611 168.488 136.745 172.176 139.199 175.649C139.715 176.374 140.484 176.88 141.354 177.069C142.223 177.257 143.132 177.114 143.903 176.668L148.665 173.911C149.376 173.505 150.205 173.355 151.014 173.485C151.823 173.616 152.562 174.02 153.11 174.63C154.374 176.017 155.697 177.34 157.078 178.598C157.688 179.146 158.092 179.885 158.223 180.694C158.353 181.503 158.203 182.332 157.797 183.043L155.04 187.805C154.594 188.576 154.451 189.485 154.64 190.354C154.828 191.224 155.334 191.993 156.059 192.509C159.532 194.963 163.22 197.097 167.079 198.884C167.888 199.252 168.806 199.305 169.652 199.033C170.499 198.761 171.214 198.184 171.658 197.414L174.415 192.643C174.826 191.941 175.463 191.4 176.222 191.109C176.981 190.817 177.817 190.793 178.592 191.039C180.369 191.596 182.176 192.078 184.014 192.484C184.817 192.654 185.536 193.093 186.055 193.728C186.573 194.363 186.858 195.157 186.863 195.976V201.482C186.867 202.36 187.195 203.206 187.784 203.857C188.373 204.507 189.182 204.917 190.055 205.008C192.152 205.2 194.283 205.301 196.43 205.301C198.577 205.301 200.691 205.2 202.796 205.008C203.681 204.925 204.503 204.513 205.1 203.855C205.696 203.196 206.025 202.338 206.021 201.449V195.943C206.026 195.123 206.312 194.33 206.83 193.695C207.348 193.059 208.068 192.62 208.87 192.451C210.708 192.061 212.513 191.579 214.284 191.005C215.059 190.761 215.894 190.786 216.653 191.078C217.412 191.369 218.049 191.909 218.462 192.609L221.219 197.38C221.663 198.151 222.377 198.728 223.224 199C224.07 199.272 224.988 199.219 225.797 198.851C229.665 197.065 233.361 194.931 236.842 192.476C237.567 191.959 238.073 191.191 238.262 190.321C238.45 189.451 238.308 188.542 237.862 187.772L235.105 183.01C234.698 182.298 234.548 181.469 234.679 180.66C234.81 179.852 235.213 179.112 235.823 178.565C237.206 177.303 238.53 175.979 239.792 174.596C240.339 173.987 241.078 173.583 241.887 173.452C242.696 173.321 243.525 173.472 244.236 173.878L248.999 176.635C249.769 177.081 250.678 177.224 251.548 177.035C252.418 176.847 253.186 176.34 253.703 175.616C256.156 172.143 258.29 168.454 260.077 164.596C260.445 163.786 260.499 162.869 260.227 162.022C259.955 161.176 259.377 160.461 258.607 160.017L253.836 157.26C253.136 156.848 252.596 156.21 252.304 155.451C252.013 154.693 251.988 153.858 252.232 153.082C252.8 151.302 253.282 149.495 253.678 147.669C253.847 146.866 254.286 146.146 254.921 145.628C255.557 145.11 256.35 144.825 257.17 144.819L262.684 144.853ZM196.43 162.49C191.042 162.492 185.775 160.896 181.295 157.903C176.814 154.911 173.322 150.657 171.259 145.68C169.197 140.703 168.657 135.226 169.707 129.942C170.758 124.657 173.352 119.803 177.162 115.994C180.972 112.184 185.826 109.59 191.11 108.539C196.394 107.488 201.871 108.029 206.848 110.091C211.826 112.154 216.079 115.646 219.072 120.126C222.064 124.607 223.66 129.874 223.658 135.261C223.647 142.476 220.774 149.392 215.669 154.491C210.564 159.59 203.645 162.454 196.43 162.457V162.49Z" fill="#FFE063"/>
<path d="M196.43 104.942C190.44 104.94 184.583 106.715 179.602 110.042C174.62 113.369 170.737 118.098 168.443 123.632C166.149 129.166 165.549 135.256 166.716 141.132C167.884 147.007 170.768 152.405 175.003 156.641C179.238 160.878 184.635 163.763 190.51 164.932C196.385 166.102 202.475 165.502 208.01 163.21C213.545 160.918 218.275 157.036 221.603 152.056C224.932 147.075 226.708 141.219 226.708 135.228C226.708 127.197 223.518 119.495 217.84 113.816C212.162 108.136 204.461 104.944 196.43 104.942ZM196.43 156.742C192.176 156.744 188.017 155.484 184.479 153.121C180.941 150.759 178.184 147.4 176.555 143.47C174.926 139.54 174.5 135.216 175.329 131.043C176.159 126.871 178.207 123.038 181.215 120.03C184.223 117.022 188.056 114.974 192.228 114.144C196.401 113.315 200.725 113.741 204.655 115.37C208.585 116.999 211.944 119.756 214.306 123.294C216.669 126.832 217.929 130.991 217.927 135.245C217.923 140.944 215.656 146.407 211.625 150.435C207.594 154.463 202.129 156.726 196.43 156.726V156.742Z" fill="#FFE063"/>
<path d="M196.43 82.4336C185.988 82.4319 175.78 85.5269 167.097 91.327C158.414 97.1272 151.646 105.372 147.649 115.019C143.651 124.666 142.605 135.281 144.641 145.523C146.677 155.764 151.705 165.172 159.088 172.557C166.471 179.941 175.878 184.97 186.119 187.008C196.361 189.045 206.976 188 216.624 184.005C226.271 180.009 234.517 173.242 240.319 164.56C246.12 155.878 249.217 145.67 249.217 135.228C249.217 121.228 243.655 107.8 233.756 97.8997C223.857 87.9991 210.431 82.4358 196.43 82.4336ZM196.43 162.457C191.043 162.458 185.776 160.862 181.295 157.87C176.815 154.878 173.323 150.624 171.26 145.647C169.197 140.67 168.657 135.192 169.708 129.908C170.759 124.624 173.353 119.77 177.163 115.96C180.972 112.151 185.826 109.556 191.11 108.506C196.395 107.455 201.872 107.995 206.849 110.058C211.826 112.12 216.08 115.613 219.072 120.093C222.064 124.573 223.661 129.84 223.659 135.228C223.657 142.449 220.787 149.373 215.681 154.479C210.576 159.585 203.651 162.455 196.43 162.457Z" fill="#FED11B"/>
</g>
<g filter="url(#filter6_f_1537_2072)">
<path d="M315.699 713.287C316.377 703.39 308.903 694.817 299.006 694.138C289.108 693.46 280.535 700.934 279.857 710.831C279.179 720.729 286.652 729.302 296.55 729.98C306.447 730.659 315.021 723.185 315.699 713.287Z" fill="#ED995A"/>
<path d="M301.459 722.66C301.142 722.662 300.831 722.568 300.567 722.39C300.304 722.213 300.099 721.961 299.981 721.666L292.653 703.795C292.493 703.403 292.495 702.963 292.658 702.572C292.822 702.181 293.134 701.871 293.527 701.711C293.919 701.55 294.359 701.552 294.75 701.715C295.141 701.879 295.45 702.191 295.611 702.584L302.947 720.471C303.107 720.865 303.104 721.306 302.94 721.697C302.775 722.089 302.462 722.399 302.069 722.56C301.875 722.634 301.667 722.668 301.459 722.66Z" fill="white"/>
<path d="M288.852 717.381C288.483 717.378 288.126 717.248 287.841 717.012C287.557 716.777 287.362 716.45 287.29 716.088C287.219 715.725 287.274 715.349 287.448 715.023C287.621 714.697 287.902 714.441 288.242 714.298L306.139 706.97C306.336 706.878 306.549 706.826 306.767 706.818C306.985 706.811 307.201 706.848 307.404 706.927C307.607 707.006 307.792 707.125 307.947 707.278C308.102 707.431 308.225 707.613 308.307 707.815C308.39 708.017 308.43 708.233 308.426 708.451C308.422 708.668 308.374 708.883 308.284 709.081C308.195 709.28 308.066 709.458 307.905 709.605C307.745 709.752 307.556 709.865 307.35 709.936L289.479 717.264C289.28 717.345 289.067 717.385 288.852 717.381Z" fill="white"/>
</g>
<path d="M46.9424 304.376C68.6069 302.431 84.5929 283.291 82.6479 261.627C80.703 239.962 61.5637 223.976 39.8991 225.921C18.2345 227.866 2.24857 247.005 4.19351 268.67C6.13846 290.335 25.2778 306.321 46.9424 304.376Z" fill="#F3B378"/>
<path d="M41.7147 283.628H41.556C41.1321 283.583 40.743 283.373 40.4737 283.043C40.2044 282.712 40.0769 282.289 40.1189 281.865L43.6363 247.693C43.6795 247.271 43.8887 246.884 44.2177 246.616C44.5467 246.348 44.9687 246.221 45.3909 246.265C45.813 246.308 46.2006 246.517 46.4686 246.846C46.7365 247.175 46.8628 247.597 46.8195 248.019L43.3105 282.199C43.2655 282.591 43.0782 282.953 42.7841 283.217C42.49 283.48 42.1095 283.626 41.7147 283.628ZM36.025 280.018C35.8953 280.018 35.7661 280.001 35.6407 279.968L18.839 275.791C18.5874 275.73 18.3547 275.608 18.161 275.436C17.9673 275.264 17.8186 275.047 17.7278 274.805C17.6329 274.563 17.5999 274.3 17.632 274.042C17.6641 273.784 17.7602 273.538 17.9116 273.326L27.7787 259.123C27.8989 258.951 28.0518 258.804 28.2287 258.691C28.4056 258.577 28.6031 258.5 28.8099 258.463C29.0166 258.426 29.2286 258.431 29.4337 258.476C29.6388 258.521 29.8331 258.606 30.0053 258.726C30.1776 258.846 30.3245 258.999 30.4377 259.176C30.5508 259.353 30.628 259.55 30.6649 259.757C30.7018 259.964 30.6975 260.176 30.6524 260.381C30.6074 260.586 30.5223 260.78 30.4022 260.953L21.8635 273.251L36.401 276.827C36.7778 276.923 37.1068 277.153 37.3267 277.474C37.5466 277.795 37.6425 278.184 37.5966 278.571C37.5506 278.957 37.3659 279.313 37.0768 279.573C36.7877 279.834 36.4139 279.98 36.025 279.985V280.018ZM58.483 271.53C58.1914 271.53 57.9054 271.45 57.6559 271.3C57.4064 271.149 57.203 270.932 57.0678 270.674C56.9326 270.416 56.8708 270.125 56.889 269.834C56.9073 269.543 57.0049 269.263 57.1713 269.023L65.71 256.725L51.1724 253.149C50.9646 253.102 50.7682 253.015 50.5946 252.891C50.4211 252.767 50.2739 252.61 50.1617 252.429C50.0494 252.248 49.9743 252.047 49.9409 251.836C49.9074 251.626 49.9161 251.411 49.9666 251.204C50.0171 250.997 50.1083 250.802 50.235 250.631C50.3616 250.46 50.5211 250.315 50.7041 250.206C50.8871 250.097 51.09 250.026 51.301 249.996C51.5119 249.966 51.7267 249.979 51.9327 250.033L68.7344 254.168C68.9855 254.236 69.2174 254.361 69.4118 254.533C69.6062 254.706 69.7576 254.921 69.854 255.163C69.9453 255.406 69.9762 255.667 69.9442 255.925C69.9122 256.182 69.8182 256.428 69.6702 256.641L59.8031 270.845C59.6537 271.056 59.4559 271.228 59.2262 271.348C58.9966 271.467 58.7417 271.529 58.483 271.53Z" fill="white"/>
<path d="M285.301 471.713C285.648 470.436 285.739 469.103 285.568 467.79C285.396 466.478 284.967 465.213 284.305 464.067C283.642 462.921 282.759 461.918 281.707 461.115C280.655 460.313 279.455 459.726 278.175 459.39L55.642 400.02C54.3615 399.674 53.0251 399.585 51.7101 399.76C50.3952 399.934 49.1279 400.367 47.9817 401.035C46.8355 401.702 45.8331 402.591 45.0327 403.649C44.2322 404.706 43.6496 405.912 43.3186 407.197L40.5698 417.482L282.586 482.048L285.301 471.713Z" fill="#FED11B"/>
<path d="M40.5698 417.44L1.85322 562.598C1.22062 564.965 1.55447 567.487 2.7813 569.609C4.00814 571.73 6.02747 573.278 8.3951 573.91L232.548 633.698C233.721 634.018 234.946 634.102 236.152 633.945C237.358 633.789 238.52 633.394 239.572 632.785C240.625 632.176 241.545 631.364 242.282 630.396C243.018 629.428 243.555 628.324 243.861 627.148L282.586 482.007L40.5698 417.44Z" fill="#F9F4E1"/>
<path d="M50.6707 409.996C50.9179 409.07 51.434 408.238 52.1539 407.605C52.8738 406.973 53.7651 406.568 54.7151 406.442C55.6651 406.315 56.6312 406.474 57.4912 406.897C58.3511 407.32 59.0664 407.988 59.5465 408.818C60.0266 409.647 60.2501 410.6 60.1885 411.556C60.127 412.513 59.7832 413.429 59.2007 414.19C58.6183 414.951 57.8232 415.523 56.9161 415.832C56.009 416.141 55.0306 416.174 54.1046 415.928C53.4896 415.764 52.9129 415.48 52.4074 415.093C51.902 414.706 51.4777 414.224 51.1588 413.673C50.8399 413.122 50.6327 412.514 50.549 411.883C50.4652 411.252 50.5066 410.611 50.6707 409.996ZM66.9962 414.357C67.2429 413.433 67.7579 412.603 68.4763 411.971C69.1947 411.34 70.0841 410.935 71.0322 410.809C71.9802 410.683 72.9444 410.841 73.8028 411.263C74.6613 411.684 75.3755 412.351 75.8551 413.179C76.3348 414.006 76.5584 414.957 76.4977 415.912C76.437 416.866 76.0948 417.781 75.5142 418.541C74.9336 419.301 74.1408 419.872 73.2358 420.182C72.3309 420.491 71.3545 420.526 70.4301 420.28C69.8154 420.117 69.2388 419.835 68.7335 419.449C68.2281 419.063 67.8038 418.581 67.4848 418.031C67.1659 417.481 66.9586 416.873 66.8747 416.242C66.7909 415.612 66.8322 414.971 66.9962 414.357ZM83.3216 418.71C83.5688 417.786 84.0845 416.955 84.8034 416.324C85.5223 415.693 86.4123 415.289 87.3607 415.164C88.3091 415.038 89.2734 415.197 90.1317 415.62C90.99 416.042 91.7037 416.71 92.1826 417.538C92.6615 418.366 92.8841 419.318 92.8223 420.272C92.7604 421.227 92.4169 422.142 91.8351 422.901C91.2533 423.661 90.4594 424.231 89.5538 424.539C88.6482 424.847 87.6715 424.88 86.7472 424.633C86.1332 424.469 85.5576 424.186 85.0531 423.8C84.5487 423.413 84.1253 422.931 83.8072 422.381C83.4891 421.831 83.2825 421.224 83.1992 420.594C83.1158 419.964 83.1575 419.324 83.3216 418.71Z" fill="white"/>
<path d="M60.8691 438.05L61.6936 434.958L70.5495 437.32L69.7251 440.412L60.8691 438.05Z" fill="#FED11B"/>
<path d="M58.0776 448.47L58.9026 445.378L67.75 447.739L66.9251 450.831L58.0776 448.47Z" fill="#FED11B"/>
<path d="M55.2998 458.932L56.1248 455.84L64.9722 458.201L64.1472 461.293L55.2998 458.932Z" fill="#FED11B"/>
<path d="M52.5083 469.376L53.3333 466.284L62.1887 468.647L61.3638 471.739L52.5083 469.376Z" fill="#FED11B"/>
<path d="M49.7236 479.829L50.5486 476.737L59.4041 479.1L58.5791 482.191L49.7236 479.829Z" fill="#FED11B"/>
<path d="M48.8433 488.714L49.6715 485.623L58.5245 487.995L57.6963 491.086L48.8433 488.714Z" fill="#FED11B"/>
<path d="M44.1548 500.709L44.9797 497.618L53.8271 499.978L53.0022 503.07L44.1548 500.709Z" fill="#FED11B"/>
<path d="M41.3618 511.148L42.1862 508.056L51.034 510.415L50.2096 513.507L41.3618 511.148Z" fill="#FED11B"/>
<path d="M38.5698 521.612L39.3948 518.521L48.2503 520.883L47.4253 523.975L38.5698 521.612Z" fill="#FED11B"/>
<path d="M35.7954 532.05L36.6198 528.958L45.4757 531.319L44.6513 534.411L35.7954 532.05Z" fill="#FED11B"/>
<path d="M33.0015 542.51L33.8264 539.418L42.6819 541.781L41.8569 544.873L33.0015 542.51Z" fill="#FED11B"/>
<path d="M30.2158 552.937L31.0408 549.845L39.8882 552.205L39.0632 555.297L30.2158 552.937Z" fill="#FED11B"/>
<path d="M27.4253 563.381L28.2503 560.289L37.0976 562.65L36.2727 565.742L27.4253 563.381Z" fill="#FED11B"/>
<path d="M81.6904 443.622L82.5154 440.53L164.919 462.517L164.094 465.609L81.6904 443.622Z" fill="#FED11B"/>
<path d="M170.694 464.864L171.522 461.773L191.964 467.251L191.136 470.342L170.694 464.864Z" fill="#FED11B"/>
<path d="M179.645 492.117L180.469 489.025L208.537 496.514L207.713 499.606L179.645 492.117Z" fill="#FED11B"/>
<path d="M78.9131 454.068L79.7381 450.977L227.432 490.385L226.607 493.477L78.9131 454.068Z" fill="#FED11B"/>
<path d="M232.438 495L233.262 491.908L246.453 495.427L245.628 498.519L232.438 495Z" fill="#FED11B"/>
<path d="M209.718 511.338L210.543 508.247L227.084 512.66L226.259 515.752L209.718 511.338Z" fill="#FED11B"/>
<path d="M158.988 531.379L159.813 528.288L168.951 530.726L168.126 533.818L158.988 531.379Z" fill="#FED11B"/>
<path d="M77.8413 462.566L78.6695 459.475L177.586 485.98L176.758 489.071L77.8413 462.566Z" fill="#FED11B"/>
<path d="M75.0845 472.903L75.9127 469.812L207.457 505.06L206.629 508.151L75.0845 472.903Z" fill="#FED11B"/>
<path d="M70.5488 485.4L71.3738 482.309L137.681 500.001L136.856 503.093L70.5488 485.4Z" fill="#FED11B"/>
<path d="M142.509 504.616L143.334 501.524L172.056 509.188L171.231 512.28L142.509 504.616Z" fill="#FED11B"/>
<path d="M69.6016 493.754L70.4298 490.663L214.168 529.178L213.34 532.268L69.6016 493.754Z" fill="#FED11B"/>
<path d="M66.8755 504.325L67.7037 501.234L157.63 525.33L156.802 528.421L66.8755 504.325Z" fill="#FED11B"/>
<path d="M62.1865 516.744L63.0115 513.652L164.281 540.673L163.456 543.765L62.1865 516.744Z" fill="#FED11B"/>
<path d="M167.195 544.755L168.02 541.664L192.14 548.1L191.315 551.191L167.195 544.755Z" fill="#FED11B"/>
<path d="M59.396 527.197L60.221 524.105L116.51 539.125L115.685 542.216L59.396 527.197Z" fill="#FED11B"/>
<path d="M56.605 537.638L57.4299 534.546L107.851 548L107.026 551.091L56.605 537.638Z" fill="#FED11B"/>
<path d="M53.8311 548.078L54.656 544.986L157.427 572.408L156.602 575.5L53.8311 548.078Z" fill="#FED11B"/>
<path d="M161.001 576.698L161.826 573.606L173.984 576.85L173.159 579.942L161.001 576.698Z" fill="#FED11B"/>
<path d="M51.0425 558.534L51.8674 555.442L185.104 590.993L184.279 594.085L51.0425 558.534Z" fill="#FED11B"/>
<path d="M48.2485 568.974L49.0735 565.882L101.989 580.001L101.164 583.093L48.2485 568.974Z" fill="#FED11B"/>
<path d="M176.18 513.521L177.004 510.429L189.372 513.727L188.547 516.819L176.18 513.521Z" fill="#FED11B"/>
<path d="M311.636 557.117C311.561 540.407 299.296 501.833 308.294 477.42C310.8 447.409 243.443 404.916 243.443 404.916C266.319 410.865 333.384 428.452 336.768 440.408C340.151 452.363 327.076 540.441 323.224 556.883L311.636 557.117Z" fill="#FED11B"/>
<path d="M322.263 567.435C322.221 564.227 322.321 562.547 323.224 556.883L311.635 557.117C311.468 562.255 311.861 564.143 311.736 566.817C311.677 568.245 311.393 570.084 311.31 571.596C313.632 573.409 322.789 576.935 323.458 573.785C322.221 571.713 322.296 570.635 322.263 567.435Z" fill="#F2D5CC"/>
<path d="M312.413 580.978C310.959 580.36 308.478 581.204 307.526 582.816L304.885 581.697C304.593 577.938 305.66 574.199 307.893 571.161C310.258 567.97 310.809 569.215 311.344 570.526C312.722 573.125 321.061 577.31 322.957 574.704C325.029 575.974 345.056 592.174 344.162 594.288C342.716 597.696 340.043 596.56 338.221 595.783C316.657 586.676 320.075 586.559 312.413 580.978Z" fill="#FED11B"/>
<path d="M322.155 570.117C322.79 566.549 314.426 560.141 312.505 566.031C312.113 567.315 311.42 568.487 310.483 569.449C311.87 572.047 328.939 586.426 333.952 583.577C332.206 581.404 320.701 573.551 322.155 570.117ZM263.888 571.003C263.888 567.377 268.257 561.812 270.572 556.532L259.293 553.875C256.845 559.84 255.541 562.873 253.887 567.786C253.427 569.139 252.734 570.86 252.274 572.306C254.079 574.637 264.046 578.305 265.483 575.422C263.996 574.595 263.579 572.415 263.888 571.003Z" fill="#F2D5CC"/>
<path d="M326.407 443.173C315.546 425.627 258.557 408.467 236.391 402.518L194.617 392.676C191.935 404.097 165.609 441.911 214.669 453.458C214.669 453.458 267.305 463.375 283.179 464.929C271.733 483.393 260.972 536.171 255.399 559.857L268.65 562.974C318.57 472.498 330.643 450.015 326.407 443.173Z" fill="#FED11B"/>
<path d="M256.009 583.36C254.48 583.001 252.174 584.254 251.505 586L248.715 585.34C247.797 581.693 248.222 577.839 249.91 574.479C251.706 570.945 252.458 572.073 253.202 573.276C254.998 575.607 263.921 578.289 265.358 575.456C267.614 576.359 290.072 588.958 289.545 591.188C288.71 594.798 285.869 594.121 283.939 593.695C261.147 588.273 264.497 587.579 256.009 583.36Z" fill="#FED11B"/>
<path d="M263.787 571.011C263.787 567.393 254.488 562.481 253.594 568.605C253.424 569.937 252.937 571.209 252.174 572.314C253.97 574.645 273.211 585.949 277.681 582.34C275.593 580.46 262.935 574.654 263.787 571.011Z" fill="#F2D5CC"/>
<path d="M250.545 407.757L313.299 427.432C313.584 427.522 313.884 427.554 314.182 427.527C314.479 427.5 314.769 427.415 315.034 427.276C315.298 427.137 315.533 426.947 315.724 426.717C315.915 426.487 316.059 426.222 316.148 425.937L316.983 423.255L249.902 402.184L249.066 404.866C248.972 405.153 248.935 405.455 248.958 405.757C248.981 406.058 249.064 406.351 249.201 406.62C249.339 406.889 249.529 407.128 249.759 407.323C249.99 407.518 250.257 407.666 250.545 407.757ZM322.397 424.608L363.052 372.942C363.425 372.466 363.594 371.862 363.522 371.262C363.45 370.662 363.143 370.115 362.668 369.742L360.496 367.987L317.05 423.255L319.264 424.993C319.734 425.349 320.324 425.508 320.909 425.437C321.494 425.365 322.028 425.068 322.397 424.608Z" fill="#ECE4C5"/>
<path d="M309.171 419.812L313.215 421.082L312.93 421.976L308.887 420.706L309.171 419.812Z" fill="#FFE063"/>
<path d="M306.334 419.898L302.292 418.631L302.574 417.73L306.616 418.997L306.334 419.898Z" fill="#FFE063"/>
<path d="M299.632 417.84L295.59 416.572L295.872 415.672L299.914 416.939L299.632 417.84Z" fill="#FFE063"/>
<path d="M289.286 413.58L293.33 414.841L293.046 415.743L289.011 414.482L289.286 413.58Z" fill="#FFE063"/>
<path d="M286.395 413.679L282.354 412.408L282.637 411.508L286.678 412.778L286.395 413.679Z" fill="#FFE063"/>
<path d="M276.035 409.419L280.079 410.689L279.795 411.591L275.751 410.321L276.035 409.419Z" fill="#FFE063"/>
<path d="M290.448 261.128C301.092 282.901 295.853 330.891 265.224 325.176C241.187 320.698 262.952 303.011 267.831 297.656C272.71 292.3 290.448 261.128 290.448 261.128Z" fill="#D67747"/>
<path d="M245.448 300.998C234.821 303.161 227.277 306.136 222.773 315.736C217.175 328.92 194.609 392.676 194.609 392.676C204.058 394.907 242.666 404.247 242.666 404.247C243.326 397.02 246.092 384.831 252.65 376.601C259.852 367.569 266.227 363.066 271.716 352.898C272.268 339.255 264.422 321.208 264.397 308.701C257.321 301.925 245.448 300.998 245.448 300.998Z" fill="url(#paint5_linear_1537_2072)"/>
<path d="M277.498 402.844C281.199 403.997 293.213 402.518 296.923 403.679C300.632 404.841 305.879 419.829 303.206 419.002C301.601 418.501 299.513 414.925 297.817 412.042C297.892 414.549 297.691 417.281 296.831 417.055C295.97 416.83 295.16 413.714 294.583 411.132C293.422 413.463 291.851 415.978 291.2 415.309C290.748 414.85 291.108 412.803 291.617 410.672C289.47 412.251 286.763 413.805 284.273 413.028L275.083 410.163L277.498 402.844Z" fill="#F2D5CC"/>
<path d="M240.895 311.458C237.862 307.966 228.789 303.036 222.773 315.736C216.992 327.959 217.635 381.297 219.74 389.309C220.994 394.054 275.067 410.104 275.067 410.104C276.094 406.762 277.498 402.844 277.498 402.844C262.952 396.327 235.824 380.862 235.464 377.846C235.005 373.953 242.215 341.853 243.318 334.576C244.212 328.661 247.587 319.17 240.895 311.458Z" fill="url(#paint6_linear_1537_2072)"/>
<path d="M245.448 300.998C249.732 295.551 252.022 288.802 251.94 281.873C251.94 281.873 251.054 268.639 256.953 259.315C264.531 247.468 285.36 256.124 289.077 262.223C293.547 270.653 290.799 277.554 287.248 286.769C287.248 286.769 285.878 296.528 285.627 297.088C285.259 297.923 282.937 296.386 282.611 296.695C282.285 297.004 280.205 302.151 277.598 303.295C274.991 304.44 270.129 299.903 268.666 301.182C267.58 302.134 264.665 305.894 264.397 308.701C258.992 308.409 249.893 305.952 245.448 300.998Z" fill="#F2D5CC"/>
<path d="M275.325 249.933C260.537 246.591 249.425 253.057 244.529 269.642C241.496 279.96 231.295 284.305 223.074 282.884C214.853 281.464 206.707 266.734 189.654 278.774C180.029 285.583 176.946 293.954 182.812 299.109C185.619 301.616 175.434 308.4 178.45 313.689C185.527 326.121 197.416 311.934 207.35 311.817C216.858 311.709 234.495 322.186 252.917 301.841C256.797 297.854 259.43 292.823 260.495 287.362C261.331 282.425 265.934 279.584 271.674 281.848C278.057 284.355 284.917 283.076 291.191 267.194C292.428 260.903 286.671 252.514 275.325 249.933Z" fill="#ED995A"/>
<path d="M271.7 281.873C277.79 284.271 284.299 283.185 290.339 269.341C287.833 272.432 282.377 281.581 274.791 278.631C267.973 275.983 259.443 273.919 255.942 283.009C252.442 292.1 235.891 305.852 214.811 300.446C193.732 295.04 186.655 323.004 177.916 311.817C177.942 312.498 178.131 313.163 178.467 313.755C185.544 326.188 197.433 312.001 207.367 311.884C216.875 311.775 234.512 322.252 252.935 301.908C256.814 297.921 259.447 292.889 260.512 287.429C261.34 282.416 265.96 279.576 271.7 281.873Z" fill="url(#paint7_linear_1537_2072)"/>
<defs>
<filter id="filter0_f_1537_2072" x="994.371" y="12.9854" width="176.326" height="176.352" filterUnits="userSpaceOnUse" color-interpolation-filters="sRGB">
<feFlood flood-opacity="0" result="BackgroundImageFix"/>
<feBlend mode="normal" in="SourceGraphic" in2="BackgroundImageFix" result="shape"/>
<feGaussianBlur stdDeviation="6" result="effect1_foregroundBlur_1537_2072"/>
</filter>
<filter id="filter1_f_1537_2072" x="860.509" y="560.348" width="105.812" height="105.836" filterUnits="userSpaceOnUse" color-interpolation-filters="sRGB">
<feFlood flood-opacity="0" result="BackgroundImageFix"/>
<feBlend mode="normal" in="SourceGraphic" in2="BackgroundImageFix" result="shape"/>
<feGaussianBlur stdDeviation="6" result="effect1_foregroundBlur_1537_2072"/>
</filter>
<filter id="filter2_f_1537_2072" x="758.618" y="558.172" width="69.2891" height="171.511" filterUnits="userSpaceOnUse" color-interpolation-filters="sRGB">
<feFlood flood-opacity="0" result="BackgroundImageFix"/>
<feBlend mode="normal" in="SourceGraphic" in2="BackgroundImageFix" result="shape"/>
<feGaussianBlur stdDeviation="4" result="effect1_foregroundBlur_1537_2072"/>
</filter>
<filter id="filter3_f_1537_2072" x="681.268" y="689.076" width="217.089" height="140.958" filterUnits="userSpaceOnUse" color-interpolation-filters="sRGB">
<feFlood flood-opacity="0" result="BackgroundImageFix"/>
<feBlend mode="normal" in="SourceGraphic" in2="BackgroundImageFix" result="shape"/>
<feGaussianBlur stdDeviation="4" result="effect1_foregroundBlur_1537_2072"/>
</filter>
<filter id="filter4_f_1537_2072" x="62.5391" y="0" width="106.283" height="106.107" filterUnits="userSpaceOnUse" color-interpolation-filters="sRGB">
<feFlood flood-opacity="0" result="BackgroundImageFix"/>
<feBlend mode="normal" in="SourceGraphic" in2="BackgroundImageFix" result="shape"/>
<feGaussianBlur stdDeviation="4" result="effect1_foregroundBlur_1537_2072"/>
</filter>
<filter id="filter5_f_1537_2072" x="117.374" y="56.1807" width="158.162" height="158.12" filterUnits="userSpaceOnUse" color-interpolation-filters="sRGB">
<feFlood flood-opacity="0" result="BackgroundImageFix"/>
<feBlend mode="normal" in="SourceGraphic" in2="BackgroundImageFix" result="shape"/>
<feGaussianBlur stdDeviation="4.5" result="effect1_foregroundBlur_1537_2072"/>
</filter>
<filter id="filter6_f_1537_2072" x="271.814" y="686.096" width="51.9268" height="51.9277" filterUnits="userSpaceOnUse" color-interpolation-filters="sRGB">
<feFlood flood-opacity="0" result="BackgroundImageFix"/>
<feBlend mode="normal" in="SourceGraphic" in2="BackgroundImageFix" result="shape"/>
<feGaussianBlur stdDeviation="4" result="effect1_foregroundBlur_1537_2072"/>
</filter>
<linearGradient id="paint0_linear_1537_2072" x1="1001.29" y1="370.437" x2="1066.91" y2="358.074" gradientUnits="userSpaceOnUse">
<stop stop-color="#ED995A"/>
<stop offset="0.12" stop-color="#E99357"/>
<stop offset="0.65" stop-color="#DB7F4B"/>
<stop offset="1" stop-color="#D67747"/>
</linearGradient>
<linearGradient id="paint1_linear_1537_2072" x1="996.337" y1="322.219" x2="1080.35" y2="322.219" gradientUnits="userSpaceOnUse">
<stop stop-color="#BFAA54"/>
<stop offset="0.27" stop-color="#AB9748"/>
<stop offset="0.73" stop-color="#A08C3B"/>
<stop offset="1" stop-color="#8A7626"/>
</linearGradient>
<linearGradient id="paint2_linear_1537_2072" x1="994.047" y1="485.816" x2="1123.18" y2="485.816" gradientUnits="userSpaceOnUse">
<stop stop-color="#ED995A"/>
<stop offset="0.61" stop-color="#DD814D"/>
<stop offset="1" stop-color="#D67747"/>
</linearGradient>
<linearGradient id="paint3_linear_1537_2072" x1="629.614" y1="524.691" x2="738.696" y2="524.691" gradientUnits="userSpaceOnUse">
<stop stop-color="#F0DA81"/>
<stop offset="1" stop-color="#D3BE69"/>
</linearGradient>
<linearGradient id="paint4_linear_1537_2072" x1="544.812" y1="772.13" x2="654.278" y2="575.656" gradientUnits="userSpaceOnUse">
<stop stop-color="#C4AE58"/>
<stop offset="1" stop-color="#8B7A35"/>
</linearGradient>
<linearGradient id="paint5_linear_1537_2072" x1="256.548" y1="395.423" x2="209.455" y2="319.172" gradientUnits="userSpaceOnUse">
<stop stop-color="#CBC3A4"/>
<stop offset="1" stop-color="#F1E8C5"/>
</linearGradient>
<linearGradient id="paint6_linear_1537_2072" x1="268.916" y1="413.671" x2="210.733" y2="319.466" gradientUnits="userSpaceOnUse">
<stop stop-color="#F3EDD4"/>
<stop offset="1" stop-color="#F9F5E5"/>
</linearGradient>
<linearGradient id="paint7_linear_1537_2072" x1="250.439" y1="309.554" x2="219.142" y2="274.701" gradientUnits="userSpaceOnUse">
<stop stop-color="#ED995A"/>
<stop offset="1" stop-color="#D67747"/>
</linearGradient>
</defs>
</svg>
