<svg width="32" height="32" fill="none" xmlns="http://www.w3.org/2000/svg"><g clip-path="url(#a)"><path d="M16 32c8.837 0 16-7.163 16-16S24.837 0 16 0 0 7.163 0 16s7.163 16 16 16Z" fill="#F37C5A"/><path d="m16.8 16.075 6.525-6.525c-.3-.225-.575-.525-.825-.825l-6.525 6.525-6.7-6.7c-.25.3-.525.575-.85.775l6.725 6.725-6.475 6.5c.3.225.575.525.8.825l6.5-6.5 6.55 6.55c.25-.3.525-.575.825-.8l-6.55-6.55Z" fill="#474F59"/><path d="M16 29.65h-.525v-.25h1v.25H16Zm1-.025-.025-.25c.325-.025.65-.05.975-.1l.025.25c-.3.025-.65.075-.975.1Zm-2.025 0c-.325-.025-.675-.05-1-.1l.025-.25c.325.05.65.075.975.1v.25Zm3.525-.2-.05-.25c.325-.05.65-.125.975-.225l.075.25c-.35.1-.675.15-1 .225Zm-5.025 0a6.86 6.86 0 0 1-.975-.225l.075-.25.975.225-.075.25Zm6.5-.35-.075-.25c.325-.1.625-.2.925-.325l.1.225c-.325.125-.625.25-.95.35Zm-7.95-.025c-.325-.1-.65-.2-.95-.325l.1-.225c.3.125.625.225.925.325l-.075.225Zm9.375-.5-.1-.225c.3-.125.6-.275.9-.425l.125.225c-.325.15-.625.3-.925.425Zm-10.8 0a9.927 9.927 0 0 1-.9-.425l.125-.225c.3.15.6.3.9.425l-.125.225Zm12.15-.675-.125-.225c.275-.15.575-.35.85-.525l.15.2c-.3.2-.6.375-.875.55Zm-13.5 0c-.3-.175-.575-.35-.85-.525l.15-.2c.275.175.55.35.85.525l-.15.2Zm14.775-.825-.15-.2c.275-.2.525-.4.775-.6l.15.2c-.25.2-.5.4-.775.6Zm-16.05 0c-.275-.2-.525-.4-.8-.625l.15-.2c.25.225.525.425.775.6l-.125.225ZM25.2 26.1l-.175-.175c.25-.225.475-.45.7-.7l.175.175c-.225.225-.45.475-.7.7Zm-18.4-.025c-.25-.225-.5-.475-.725-.7l.175-.175c.225.25.475.475.7.7l-.15.175Zm19.45-1.05-.2-.175c.225-.25.425-.5.625-.775l.2.15c-.175.275-.4.525-.625.8ZM5.75 25c-.225-.25-.425-.525-.625-.775l.2-.15c.2.275.4.525.625.775l-.2.15Zm21.425-1.175-.2-.15c.2-.275.375-.55.55-.825l.225.125c-.175.3-.375.575-.575.85Zm-22.375 0a9.89 9.89 0 0 1-.55-.85l.225-.125c.175.275.35.55.55.825l-.225.15Zm23.175-1.275-.225-.125c.15-.275.3-.575.45-.875l.225.1c-.125.3-.275.6-.45.9ZM4 22.525l-.45-.9.225-.1c.125.3.275.6.45.875L4 22.525Zm24.625-1.35-.225-.1c.125-.3.25-.625.35-.925l.25.075c-.125.325-.25.65-.375.95Zm-25.275 0c-.125-.3-.25-.625-.35-.95l.25-.075c.1.325.225.625.35.925l-.25.1Zm25.775-1.425-.25-.075c.1-.325.175-.65.225-.95l.25.05a6.86 6.86 0 0 1-.225.975Zm-26.25-.025c-.1-.325-.175-.65-.25-.975l.25-.05c.075.325.15.65.225.95l-.225.075Zm26.6-1.45-.25-.05c.05-.325.1-.65.125-.975l.25.025c-.05.325-.075.675-.125 1Zm-26.95-.025c-.05-.325-.1-.675-.125-1l.25-.025c.025.325.075.65.125.975l-.25.05Zm27.1-1.475-.25-.025c.025-.25.025-.5.025-.75v-.225h.25v.25c0 .225 0 .5-.025.75Zm-27.25-.025c-.025-.25-.025-.5-.025-.75v-.25h.25V16c0 .25 0 .5.025.75h-.25Zm27-1.475c-.025-.325-.05-.675-.1-.975l.25-.025c.05.325.075.675.1 1h-.25Zm-26.75-.025-.25-.025c.025-.325.05-.675.1-1l.25.025c-.05.35-.1.675-.1 1Zm26.6-1.45c-.05-.325-.125-.65-.2-.975l.25-.05c.075.325.15.65.2 1l-.25.025Zm-26.45-.025-.25-.05c.05-.325.125-.675.2-1l.25.05c-.075.35-.15.675-.2 1ZM28.9 12.35c-.1-.325-.2-.625-.3-.95l.225-.075c.125.325.225.65.3.95l-.225.075Zm-25.8-.025-.25-.075c.1-.325.2-.65.3-.95l.225.075c-.075.325-.175.625-.275.95Zm25.325-1.375c-.125-.3-.25-.6-.4-.9l.225-.1c.15.3.3.6.425.925l-.25.075ZM3.6 10.925l-.225-.1c.125-.3.275-.625.425-.925l.225.1c-.175.325-.3.625-.425.925ZM27.775 9.6c-.15-.3-.325-.575-.5-.85l.2-.125c.175.275.35.575.525.875l-.225.1Zm-23.55-.025L4 9.475a8.1 8.1 0 0 1 .525-.875l.2.125c-.175.275-.325.575-.5.85ZM27 8.325c-.2-.275-.4-.525-.6-.8l.2-.15c.2.25.425.525.6.8l-.2.15Zm-22 0-.2-.15c.2-.275.4-.55.6-.8l.2.15c-.2.275-.4.525-.6.8Zm21.075-1.15a19.2 19.2 0 0 0-.675-.725l.175-.175c.25.225.475.475.7.725l-.2.175ZM5.925 7.15 5.75 7c.225-.25.45-.5.7-.725l.175.175c-.25.225-.475.45-.7.7ZM25.05 6.1c-.25-.225-.5-.425-.75-.65l.15-.2c.275.2.525.425.775.65l-.175.2Zm-18.075 0L6.8 5.925c.25-.225.5-.45.775-.65l.15.2c-.25.175-.525.4-.75.625ZM23.9 5.175c-.275-.2-.55-.375-.825-.55l.125-.2c.275.175.575.375.825.575l-.125.175ZM8.125 5.15l-.15-.2c.275-.2.55-.375.825-.575l.125.2c-.25.2-.55.4-.8.575Zm14.525-.8a5.784 5.784 0 0 0-.875-.45l.1-.225c.3.15.6.3.9.475l-.125.2Zm-13.275 0-.125-.225c.3-.175.6-.325.9-.475l.1.225c-.3.15-.6.325-.875.475Zm11.95-.65c-.3-.125-.6-.25-.925-.35l.075-.225c.325.1.625.225.95.375l-.1.2ZM10.7 3.7l-.1-.225c.3-.125.625-.25.95-.375l.075.225c-.3.1-.625.225-.925.375Zm9.225-.525c-.325-.1-.625-.175-.95-.25l.05-.25c.325.075.65.15.975.25l-.075.25Zm-7.825 0-.075-.25c.325-.1.65-.175.975-.25l.05.25c-.325.075-.65.15-.95.25Zm6.375-.35-.975-.15.025-.25c.325.025.675.075 1 .15l-.05.25Zm-4.925 0-.05-.25c.325-.05.675-.1 1-.15l.025.25c-.325.05-.675.1-.975.15Zm3.45-.2c-.325-.025-.65-.025-1-.025v-.25c.325 0 .675.025 1 .05v.225Zm-2 0-.025-.25c.325-.025.675-.025 1-.025v.25c-.3 0-.65 0-.975.025Z" fill="#fff"/><path d="M25.4 11.825a5.225 5.225 0 1 0 0-10.45 5.225 5.225 0 0 0 0 10.45Z" fill="#F3F3F3"/><path d="M27.85 9.875V9.2l-.5-.125a1.472 1.472 0 0 1-1.05-1.35h-1.8c0 .625-.425 1.175-1.05 1.35l-.5.125v.675h4.9Z" fill="#F6BB53"/><path d="M27.475 6.625c-.125.35-.325.625-.575.575-.25-.05-.375-.375-.3-.75.075-.375.325-.525.575-.575.3-.05.45.275.3.75Zm-3.95 0c.125.35.325.625.575.575.25-.05.375-.375.3-.75-.075-.375-.325-.525-.575-.575-.3-.05-.45.275-.3.75Z" fill="#FDDA7F"/><path d="M27 5.675c.025.125.025.25.025.4C27.025 7.3 26.3 8.3 25.4 8.3s-1.625-1-1.625-2.225S24.5 3.85 25.4 3.85c.3 0 .6.125.825.325.525.025.9.45.925.975a.659.659 0 0 1-.15.525Z" fill="#FDDA7F"/><path d="M25.4 11.825c1.4 0 2.675-.55 3.6-1.45-.15-.75-.675-1.35-1.4-1.55L26.525 8.5c-.15.525-1.175.875-1.175.875s-.975-.4-1.125-.875l-1.075.325a2.052 2.052 0 0 0-1.4 1.55c1 .9 2.25 1.45 3.65 1.45Z" fill="#7DCEDC"/><path d="M26.95 6.775c-.05-.525-.05-1.025-.025-1.55V4.9c-.275.15-1 .025-2.025-.25a.618.618 0 0 0-.8.6c.025.225.025.425.025.65 0 .3-.025.6-.05.9 0 0-1.025-2.125-.275-2.625-.325-1 .95-1.375 2.225-1.15.775.1 1.375.475 1.175 1.15.775.475-.25 2.6-.25 2.6Z" fill="#474F59"/><path d="M25.4 30.625a5.225 5.225 0 1 0 0-10.45 5.225 5.225 0 0 0 0 10.45Z" fill="#F3F3F3"/><path d="M27.85 28.7V28l-.5-.125a1.472 1.472 0 0 1-1.05-1.35h-1.8c0 .625-.425 1.175-1.05 1.35l-.5.125v.675h4.9v.025Z" fill="#F6BB53"/><path d="M27.475 25.45c-.125.35-.325.625-.575.575-.25-.05-.375-.375-.3-.75.075-.375.325-.525.575-.575.3-.05.45.275.3.75Zm-3.95 0c.125.35.325.625.575.575.25-.05.375-.375.3-.75-.075-.375-.325-.525-.575-.575-.3-.05-.45.275-.3.75Z" fill="#FDDA7F"/><path d="M27 24.5c.025.125.025.25.025.4 0 1.225-.725 2.225-1.625 2.225s-1.625-1-1.625-2.225.725-2.225 1.625-2.225c.3 0 .6.125.825.325.525.025.9.45.925.975a.686.686 0 0 1-.15.525Z" fill="#FDDA7F"/><path d="M26.95 25.6c-.05-.525-.05-1.025-.025-1.55-.625-.15-.6-.85-.6-.85s-1.025-.175-1.6.15c-.55.325-.75.95-.75 1.275l-.075.975c-.275-.725-.35-2.275-.35-2.275-.2-1.475 3.725-2.225 3.275-.475 1.45 0 .125 2.75.125 2.75Zm-1.55 5.05c1.4 0 2.675-.55 3.6-1.45-.15-.75-.675-1.35-1.4-1.55l-1.075-.325c-.15.525-.65.9-1.225.85-.525-.025-.925-.4-1.075-.85l-1.075.325a2.052 2.052 0 0 0-1.4 1.55c1 .875 2.25 1.45 3.65 1.45Z" fill="#474F59"/><path d="M16 21.8a5.8 5.8 0 1 0 0-11.6 5.8 5.8 0 0 0 0 11.6Z" fill="#fff"/><path d="M18.7 19.65v-.75l-.55-.15a1.553 1.553 0 0 1-1.15-1.5h-2c0 .7-.475 1.3-1.15 1.5l-.55.15v.75h5.4Z" fill="#F6BB53"/><path d="M18.275 16.05c-.125.4-.375.675-.625.625-.275-.05-.4-.425-.325-.825.075-.4.375-.6.625-.625.35-.075.5.275.325.825Zm-4.375 0c.125.4.375.675.625.625.275-.05.4-.425.325-.825-.075-.4-.375-.6-.625-.625-.325-.075-.5.275-.325.825Z" fill="#FDDA7F"/><path d="M17.775 15c.025.15.025.275.025.425 0 1.35-.8 2.45-1.8 2.45s-1.8-1.1-1.8-2.45.8-2.45 1.8-2.45c.35 0 .65.125.925.35.575.025 1 .5 1.025 1.075a.854.854 0 0 1-.175.6Z" fill="#FDDA7F"/><path d="M17.7 16.2c.075-.95-.35-2.225-.275-2.325-.1.05-.95.475-2.3.375-.325 0-.6.225-.625.55-.05.525-.175 1.4-.175 1.4-.25-.65-.35-2.05-.4-2.5 0-.125 0-.25.025-.375.5-1.775 4.075-1.6 4-.375.95.025-.25 3.25-.25 3.25Z" fill="#474F59"/><path d="M16 21.8c1.55 0 2.975-.6 4-1.6a2.229 2.229 0 0 0-1.55-1.725l-1.175-.35c-.175.575-.725 1-1.35.95a1.315 1.315 0 0 1-1.175-.95l-1.175.35c-.8.25-1.4.9-1.55 1.725 1 1 2.425 1.6 3.975 1.6Z" fill="#7DCEDC"/><path d="M6.6 11.825a5.225 5.225 0 1 0 0-10.45 5.225 5.225 0 0 0 0 10.45Z" fill="#F3F3F3"/><path d="M9.025 9.875V9.2l-.5-.125a1.472 1.472 0 0 1-1.05-1.35h-1.8c0 .625-.425 1.175-1.05 1.35l-.5.125v.675h4.9Z" fill="#F6BB53"/><path d="M8.65 6.625c-.125.35-.325.625-.575.575-.25-.05-.375-.375-.3-.75.075-.375.325-.525.575-.575.3-.05.45.275.3.75Zm-3.95 0c.125.35.325.625.575.575.25-.05.375-.375.3-.75C5.5 6.075 5.25 5.925 5 5.875c-.3-.05-.45.275-.3.75Z" fill="#FDDA7F"/><path d="M8.175 5.675c.025.125.025.25.025.4C8.2 7.3 7.475 8.3 6.575 8.3S4.95 7.3 4.95 6.075 5.675 3.85 6.575 3.85c.3 0 .6.125.825.325.525.025.9.45.925.975a.659.659 0 0 1-.15.525Z" fill="#FDDA7F"/><path d="M8.125 6.775c-.05-.525-.05-1.025-.025-1.55-.6-.15-.6-.85-.6-.85s-1.025-.175-1.6.15c-.55.325-.75.95-.75 1.275l-.075.975C4.8 6.05 4.725 4.5 4.725 4.5 4.525 3.025 8.45 2.275 8 4.025c1.45 0 .125 2.75.125 2.75ZM6.6 11.825c1.4 0 2.675-.55 3.6-1.45-.15-.75-.675-1.35-1.4-1.55L7.725 8.5c-.15.525-.65.9-1.225.85-.525-.025-.925-.4-1.075-.85l-1.075.325a2.052 2.052 0 0 0-1.4 1.55c.975.9 2.25 1.45 3.65 1.45Z" fill="#474F59"/><path d="M6.6 30.625a5.225 5.225 0 1 0 0-10.45 5.225 5.225 0 0 0 0 10.45Z" fill="#F3F3F3"/><path d="M9.025 28.7V28l-.5-.125a1.472 1.472 0 0 1-1.05-1.35h-1.8c0 .625-.425 1.175-1.05 1.35l-.5.125v.675h4.9v.025Z" fill="#F6BB53"/><path d="M8.65 25.45c-.125.35-.325.625-.575.575-.25-.05-.375-.375-.3-.75.075-.375.325-.525.575-.575.3-.05.45.275.3.75Zm-3.95 0c.125.35.325.625.575.575.25-.05.375-.375.3-.75C5.5 24.9 5.225 24.75 5 24.7c-.3-.05-.45.275-.3.75Z" fill="#FDDA7F"/><path d="M8.175 24.5c.025.125.025.25.025.4 0 1.225-.725 2.225-1.625 2.225s-1.625-1-1.625-2.225.725-2.225 1.625-2.225c.3 0 .6.125.825.325.525.025.9.45.925.975a.686.686 0 0 1-.15.525Z" fill="#FDDA7F"/><path d="M8.125 25.6c-.05-.525-.025-1.9-.025-1.9-.975.25-1.875-.6-2.525-.05-.2.175-.3.45-.275.725v.325c0 .3-.025.6-.05.9 0 0-.6-1.25-.55-2.075.025-.25 0-1.025.625-1.475.925-.65 2.925-.6 3.05.9.775.525-.25 2.65-.25 2.65Z" fill="#474F59"/><path d="m7.025 30.2 1.1-2.225c-.975.025-1.9 0-2.75-.075l.9 2.275h.75v.025Z" fill="#F3F3F3"/><path d="M7.05 27.975c-.3 0-.6 0-.9-.025L6.1 28l.275.275-.15 1.85.2.5h.4l.15-.325-.15-2 .275-.275-.05-.05Z" fill="#F37C5A"/><path d="m7.75 27.35-1.15.625.5.5.95-.825-.3-.3Z" fill="#fff"/><path d="m9.95 29.425-.325-1.2a.438.438 0 0 0-.325-.3l-.775-.2-.75-.125-1.025 3.025a5.203 5.203 0 0 0 3.2-1.2Z" fill="#25313B"/><path d="m7.6 27.05-.9 3.575h.175L8.5 28.15l-.45-.175.45-.25-.9-.675Z" fill="#474F59"/><path d="m5.425 27.35 1.175.625-.525.5-.95-.825.3-.3Z" fill="#fff"/><path d="m3.575 28.225-.325 1.2a5.147 5.147 0 0 0 3.2 1.2L5.425 27.6l-.75.125-.775.2a.373.373 0 0 0-.325.3Z" fill="#25313B"/><path d="m5.575 27.05-.9.675.45.25-.45.175L6.3 30.625h.175l-.9-3.575Z" fill="#474F59"/></g><defs><clipPath id="a"><path fill="#fff" d="M0 0h32v32H0z"/></clipPath></defs></svg>