<svg width="32" height="32" viewBox="0 0 32 32" fill="none" xmlns="http://www.w3.org/2000/svg">
<g clip-path="url(#clip0_1556_2505)">
<path d="M16 32C24.8366 32 32 24.8366 32 16C32 7.16344 24.8366 0 16 0C7.16344 0 0 7.16344 0 16C0 24.8366 7.16344 32 16 32Z" fill="#F37C5A"/>
<path d="M16.8 16.0748L23.325 9.5498C23.025 9.3248 22.75 9.0248 22.5 8.7248L15.975 15.2498L9.27505 8.5498C9.02505 8.8498 8.75005 9.1248 8.42505 9.3248L15.15 16.0498L8.67505 22.5498C8.97505 22.7748 9.25005 23.0748 9.47505 23.3748L15.975 16.8748L22.525 23.4248C22.775 23.1248 23.05 22.8498 23.35 22.6248L16.8 16.0748Z" fill="#474F59"/>
<path d="M16.0001 29.6501H15.4751V29.4001H16.4751V29.6501H16.0001ZM17.0001 29.6251L16.9751 29.3751C17.3001 29.3501 17.6251 29.3251 17.9501 29.2751L17.9751 29.5251C17.6751 29.5501 17.3251 29.6001 17.0001 29.6251ZM14.9751 29.6251C14.6501 29.6001 14.3001 29.5751 13.9751 29.5251L14.0001 29.2751C14.3251 29.3251 14.6501 29.3501 14.9751 29.3751V29.6251ZM18.5001 29.4251L18.4501 29.1751C18.7751 29.1251 19.1001 29.0501 19.4251 28.9501L19.5001 29.2001C19.1501 29.3001 18.8251 29.3501 18.5001 29.4251ZM13.4751 29.4251C13.1501 29.3751 12.8251 29.3001 12.5001 29.2001L12.5751 28.9501L13.5501 29.1751L13.4751 29.4251ZM19.9751 29.0751L19.9001 28.8251C20.2251 28.7251 20.5251 28.6251 20.8251 28.5001L20.9251 28.7251C20.6001 28.8501 20.3001 28.9751 19.9751 29.0751ZM12.0251 29.0501C11.7001 28.9501 11.3751 28.8501 11.0751 28.7251L11.1751 28.5001C11.4751 28.6251 11.8001 28.7251 12.1001 28.8251L12.0251 29.0501ZM21.4001 28.5501L21.3001 28.3251C21.6001 28.2001 21.9001 28.0501 22.2001 27.9001L22.3251 28.1251C22.0001 28.2751 21.7001 28.4251 21.4001 28.5501ZM10.6001 28.5501C10.3001 28.4251 9.9751 28.2751 9.7001 28.1251L9.8251 27.9001C10.1251 28.0501 10.4251 28.2001 10.7251 28.3251L10.6001 28.5501ZM22.7501 27.8751L22.6251 27.6501C22.9001 27.5001 23.2001 27.3001 23.4751 27.1251L23.6251 27.3251C23.3251 27.5251 23.0251 27.7001 22.7501 27.8751ZM9.2501 27.8751C8.9501 27.7001 8.6751 27.5251 8.4001 27.3501L8.5501 27.1501C8.8251 27.3251 9.1001 27.5001 9.4001 27.6751L9.2501 27.8751ZM24.0251 27.0501L23.8751 26.8501C24.1501 26.6501 24.4001 26.4501 24.6501 26.2501L24.8001 26.4501C24.5501 26.6501 24.3001 26.8501 24.0251 27.0501ZM7.9751 27.0501C7.7001 26.8501 7.4501 26.6501 7.1751 26.4251L7.3251 26.2251C7.5751 26.4501 7.8501 26.6501 8.1001 26.8251L7.9751 27.0501ZM25.2001 26.1001L25.0251 25.9251C25.2751 25.7001 25.5001 25.4751 25.7251 25.2251L25.9001 25.4001C25.6751 25.6251 25.4501 25.8751 25.2001 26.1001ZM6.8001 26.0751C6.5501 25.8501 6.3001 25.6001 6.0751 25.3751L6.2501 25.2001C6.4751 25.4501 6.7251 25.6751 6.9501 25.9001L6.8001 26.0751ZM26.2501 25.0251L26.0501 24.8501C26.2751 24.6001 26.4751 24.3501 26.6751 24.0751L26.8751 24.2251C26.7001 24.5001 26.4751 24.7501 26.2501 25.0251ZM5.7501 25.0001C5.5251 24.7501 5.3251 24.4751 5.1251 24.2251L5.3251 24.0751C5.5251 24.3501 5.7251 24.6001 5.9501 24.8501L5.7501 25.0001ZM27.1751 23.8251L26.9751 23.6751C27.1751 23.4001 27.3501 23.1251 27.5251 22.8501L27.7501 22.9751C27.5751 23.2751 27.3751 23.5501 27.1751 23.8251ZM4.8001 23.8251C4.6001 23.5501 4.4251 23.2751 4.2501 22.9751L4.4751 22.8501C4.6501 23.1251 4.8251 23.4001 5.0251 23.6751L4.8001 23.8251ZM27.9751 22.5501L27.7501 22.4251C27.9001 22.1501 28.0501 21.8501 28.2001 21.5501L28.4251 21.6501C28.3001 21.9501 28.1501 22.2501 27.9751 22.5501ZM4.0001 22.5251L3.5501 21.6251L3.7751 21.5251C3.9001 21.8251 4.0501 22.1251 4.2251 22.4001L4.0001 22.5251ZM28.6251 21.1751L28.4001 21.0751C28.5251 20.7751 28.6501 20.4501 28.7501 20.1501L29.0001 20.2251C28.8751 20.5501 28.7501 20.8751 28.6251 21.1751ZM3.3501 21.1751C3.2251 20.8751 3.1001 20.5501 3.0001 20.2251L3.2501 20.1501C3.3501 20.4751 3.4751 20.7751 3.6001 21.0751L3.3501 21.1751ZM29.1251 19.7501L28.8751 19.6751C28.9751 19.3501 29.0501 19.0251 29.1001 18.7251L29.3501 18.7751C29.3001 19.1001 29.2251 19.4251 29.1251 19.7501ZM2.8751 19.7251C2.7751 19.4001 2.7001 19.0751 2.6251 18.7501L2.8751 18.7001C2.9501 19.0251 3.0251 19.3501 3.1001 19.6501L2.8751 19.7251ZM29.4751 18.2751L29.2251 18.2251C29.2751 17.9001 29.3251 17.5751 29.3501 17.2501L29.6001 17.2751C29.5501 17.6001 29.5251 17.9501 29.4751 18.2751ZM2.5251 18.2501C2.4751 17.9251 2.4251 17.5751 2.4001 17.2501L2.6501 17.2251C2.6751 17.5501 2.7251 17.8751 2.7751 18.2001L2.5251 18.2501ZM29.6251 16.7751L29.3751 16.7501C29.4001 16.5001 29.4001 16.2501 29.4001 16.0001V15.7751H29.6501V16.0251C29.6501 16.2501 29.6501 16.5251 29.6251 16.7751ZM2.3751 16.7501C2.3501 16.5001 2.3501 16.2501 2.3501 16.0001V15.7501H2.6001V16.0001C2.6001 16.2501 2.6001 16.5001 2.6251 16.7501H2.3751ZM29.3751 15.2751C29.3501 14.9501 29.3251 14.6001 29.2751 14.3001L29.5251 14.2751C29.5751 14.6001 29.6001 14.9501 29.6251 15.2751H29.3751ZM2.6251 15.2501L2.3751 15.2251C2.4001 14.9001 2.4251 14.5501 2.4751 14.2251L2.7251 14.2501C2.6751 14.6001 2.6251 14.9251 2.6251 15.2501ZM29.2251 13.8001C29.1751 13.4751 29.1001 13.1501 29.0251 12.8251L29.2751 12.7751C29.3501 13.1001 29.4251 13.4251 29.4751 13.7751L29.2251 13.8001ZM2.7751 13.7751L2.5251 13.7251C2.5751 13.4001 2.6501 13.0501 2.7251 12.7251L2.9751 12.7751C2.9001 13.1251 2.8251 13.4501 2.7751 13.7751ZM28.9001 12.3501C28.8001 12.0251 28.7001 11.7251 28.6001 11.4001L28.8251 11.3251C28.9501 11.6501 29.0501 11.9751 29.1251 12.2751L28.9001 12.3501ZM3.1001 12.3251L2.8501 12.2501C2.9501 11.9251 3.0501 11.6001 3.1501 11.3001L3.3751 11.3751C3.3001 11.7001 3.2001 12.0001 3.1001 12.3251ZM28.4251 10.9501C28.3001 10.6501 28.1751 10.3501 28.0251 10.0501L28.2501 9.9501C28.4001 10.2501 28.5501 10.5501 28.6751 10.8751L28.4251 10.9501ZM3.6001 10.9251L3.3751 10.8251C3.5001 10.5251 3.6501 10.2001 3.8001 9.9001L4.0251 10.0001C3.8501 10.3251 3.7251 10.6251 3.6001 10.9251ZM27.7751 9.6001C27.6251 9.3001 27.4501 9.0251 27.2751 8.7501L27.4751 8.6251C27.6501 8.9001 27.8251 9.2001 28.0001 9.5001L27.7751 9.6001ZM4.2251 9.5751L4.0001 9.4751C4.1501 9.1751 4.3251 8.9001 4.5251 8.6001L4.7251 8.7251C4.5501 9.0001 4.4001 9.3001 4.2251 9.5751ZM27.0001 8.3251C26.8001 8.0501 26.6001 7.8001 26.4001 7.5251L26.6001 7.3751C26.8001 7.6251 27.0251 7.9001 27.2001 8.1751L27.0001 8.3251ZM5.0001 8.3251L4.8001 8.1751C5.0001 7.9001 5.2001 7.6251 5.4001 7.3751L5.6001 7.5251C5.4001 7.8001 5.2001 8.0501 5.0001 8.3251ZM26.0751 7.1751C25.8501 6.9251 25.6251 6.6751 25.4001 6.4501L25.5751 6.2751C25.8251 6.5001 26.0501 6.7501 26.2751 7.0001L26.0751 7.1751ZM5.9251 7.1501L5.7501 7.0001C5.9751 6.7501 6.2001 6.5001 6.4501 6.2751L6.6251 6.4501C6.3751 6.6751 6.1501 6.9001 5.9251 7.1501ZM25.0501 6.1001C24.8001 5.8751 24.5501 5.6751 24.3001 5.4501L24.4501 5.2501C24.7251 5.4501 24.9751 5.6751 25.2251 5.9001L25.0501 6.1001ZM6.9751 6.1001L6.8001 5.9251C7.0501 5.7001 7.3001 5.4751 7.5751 5.2751L7.7251 5.4751C7.4751 5.6501 7.2001 5.8751 6.9751 6.1001ZM23.9001 5.1751C23.6251 4.9751 23.3501 4.8001 23.0751 4.6251L23.2001 4.4251C23.4751 4.6001 23.7751 4.8001 24.0251 5.0001L23.9001 5.1751ZM8.1251 5.1501L7.9751 4.9501C8.2501 4.7501 8.5251 4.5751 8.8001 4.3751L8.9251 4.5751C8.6751 4.7751 8.3751 4.9751 8.1251 5.1501ZM22.6501 4.3501C22.3751 4.1751 22.0751 4.0251 21.7751 3.9001L21.8751 3.6751C22.1751 3.8251 22.4751 3.9751 22.7751 4.1501L22.6501 4.3501ZM9.3751 4.3501L9.2501 4.1251C9.5501 3.9501 9.8501 3.8001 10.1501 3.6501L10.2501 3.8751C9.9501 4.0251 9.6501 4.2001 9.3751 4.3501ZM21.3251 3.7001C21.0251 3.5751 20.7251 3.4501 20.4001 3.3501L20.4751 3.1251C20.8001 3.2251 21.1001 3.3501 21.4251 3.5001L21.3251 3.7001ZM10.7001 3.7001L10.6001 3.4751C10.9001 3.3501 11.2251 3.2251 11.5501 3.1001L11.6251 3.3251C11.3251 3.4251 11.0001 3.5501 10.7001 3.7001ZM19.9251 3.1751C19.6001 3.0751 19.3001 3.0001 18.9751 2.9251L19.0251 2.6751C19.3501 2.7501 19.6751 2.8251 20.0001 2.9251L19.9251 3.1751ZM12.1001 3.1751L12.0251 2.9251C12.3501 2.8251 12.6751 2.7501 13.0001 2.6751L13.0501 2.9251C12.7251 3.0001 12.4001 3.0751 12.1001 3.1751ZM18.4751 2.8251L17.5001 2.6751L17.5251 2.4251C17.8501 2.4501 18.2001 2.5001 18.5251 2.5751L18.4751 2.8251ZM13.5501 2.8251L13.5001 2.5751C13.8251 2.5251 14.1751 2.4751 14.5001 2.4251L14.5251 2.6751C14.2001 2.7251 13.8501 2.7751 13.5501 2.8251ZM17.0001 2.6251C16.6751 2.6001 16.3501 2.6001 16.0001 2.6001V2.3501C16.3251 2.3501 16.6751 2.3751 17.0001 2.4001V2.6251ZM15.0001 2.6251L14.9751 2.3751C15.3001 2.3501 15.6501 2.3501 15.9751 2.3501V2.6001C15.6751 2.6001 15.3251 2.6001 15.0001 2.6251Z" fill="white"/>
<path d="M25.4 11.825C28.2857 11.825 30.625 9.48569 30.625 6.6C30.625 3.71431 28.2857 1.375 25.4 1.375C22.5144 1.375 20.175 3.71431 20.175 6.6C20.175 9.48569 22.5144 11.825 25.4 11.825Z" fill="#F3F3F3"/>
<path d="M27.85 9.8751V9.2001L27.35 9.0751C26.75 8.9001 26.3249 8.3501 26.2999 7.7251H24.5C24.5 8.3501 24.075 8.9001 23.45 9.0751L22.95 9.2001V9.8751H27.85Z" fill="#F6BB53"/>
<path d="M27.4749 6.62519C27.3499 6.97519 27.1499 7.25019 26.8999 7.20019C26.6499 7.15019 26.5249 6.82519 26.5999 6.45019C26.6749 6.07519 26.9249 5.92519 27.1749 5.87519C27.4749 5.82519 27.6249 6.15019 27.4749 6.62519ZM23.5249 6.62519C23.6499 6.97519 23.8499 7.25019 24.0999 7.20019C24.3499 7.15019 24.4749 6.82519 24.3999 6.45019C24.3249 6.07519 24.0749 5.92519 23.8249 5.87519C23.5249 5.82519 23.3749 6.15019 23.5249 6.62519Z" fill="#FDDA7F"/>
<path d="M26.9999 5.6751C27.0249 5.8001 27.0249 5.9251 27.0249 6.0751C27.0249 7.3001 26.2999 8.3001 25.3999 8.3001C24.4999 8.3001 23.7749 7.3001 23.7749 6.0751C23.7749 4.8501 24.4999 3.8501 25.3999 3.8501C25.6999 3.8501 25.9999 3.9751 26.2249 4.1751C26.7499 4.2001 27.1249 4.6251 27.1499 5.1501C27.1749 5.3501 27.1249 5.5251 26.9999 5.6751Z" fill="#FDDA7F"/>
<path d="M25.4 11.825C26.8 11.825 28.075 11.275 29 10.375C28.85 9.625 28.325 9.025 27.6 8.825L26.525 8.5C26.375 9.025 25.35 9.375 25.35 9.375C25.35 9.375 24.375 8.975 24.225 8.5L23.15 8.825C22.425 9.05 21.9 9.65 21.75 10.375C22.75 11.275 24 11.825 25.4 11.825Z" fill="#7DCEDC"/>
<path d="M26.9501 6.77503C26.9001 6.25003 26.9001 5.75003 26.9251 5.22503V4.90003C26.6501 5.05003 25.9251 4.92503 24.9001 4.65003C24.5001 4.52503 24.1001 4.82503 24.1001 5.25003C24.1251 5.47503 24.1251 5.67503 24.1251 5.90003C24.1251 6.20003 24.1001 6.50003 24.0751 6.80003C24.0751 6.80003 23.0501 4.67503 23.8001 4.17503C23.4751 3.17503 24.7501 2.80003 26.0251 3.02503C26.8001 3.12503 27.4001 3.50003 27.2001 4.17503C27.9751 4.65003 26.9501 6.77503 26.9501 6.77503Z" fill="#474F59"/>
<path d="M25.4 30.6248C28.2857 30.6248 30.625 28.2855 30.625 25.3998C30.625 22.5141 28.2857 20.1748 25.4 20.1748C22.5144 20.1748 20.175 22.5141 20.175 25.3998C20.175 28.2855 22.5144 30.6248 25.4 30.6248Z" fill="#F3F3F3"/>
<path d="M27.85 28.6999V27.9999L27.35 27.8749C26.75 27.6999 26.3249 27.1499 26.2999 26.5249H24.5C24.5 27.1499 24.075 27.6999 23.45 27.8749L22.95 27.9999V28.6749H27.85V28.6999Z" fill="#F6BB53"/>
<path d="M27.4749 25.4499C27.3499 25.7999 27.1499 26.0749 26.8999 26.0249C26.6499 25.9749 26.5249 25.6499 26.5999 25.2749C26.6749 24.8999 26.9249 24.7499 27.1749 24.6999C27.4749 24.6499 27.6249 24.9749 27.4749 25.4499ZM23.5249 25.4499C23.6499 25.7999 23.8499 26.0749 24.0999 26.0249C24.3499 25.9749 24.4749 25.6499 24.3999 25.2749C24.3249 24.8999 24.0749 24.7499 23.8249 24.6999C23.5249 24.6499 23.3749 24.9749 23.5249 25.4499Z" fill="#FDDA7F"/>
<path d="M26.9999 24.4998C27.0249 24.6248 27.0249 24.7498 27.0249 24.8998C27.0249 26.1248 26.2999 27.1248 25.3999 27.1248C24.4999 27.1248 23.7749 26.1248 23.7749 24.8998C23.7749 23.6748 24.4999 22.6748 25.3999 22.6748C25.6999 22.6748 25.9999 22.7998 26.2249 22.9998C26.7499 23.0248 27.1249 23.4498 27.1499 23.9748C27.1749 24.1498 27.1249 24.3498 26.9999 24.4998Z" fill="#FDDA7F"/>
<path d="M26.95 25.6C26.9 25.075 26.9 24.575 26.925 24.05C26.3 23.9 26.325 23.2 26.325 23.2C26.325 23.2 25.3 23.025 24.725 23.35C24.175 23.675 23.975 24.3 23.975 24.625L23.9 25.6C23.625 24.875 23.55 23.325 23.55 23.325C23.35 21.85 27.275 21.1 26.825 22.85C28.275 22.85 26.95 25.6 26.95 25.6ZM25.4 30.65C26.8 30.65 28.075 30.1 29 29.2C28.85 28.45 28.325 27.85 27.6 27.65L26.525 27.325C26.375 27.85 25.875 28.225 25.3 28.175C24.775 28.15 24.375 27.775 24.225 27.325L23.15 27.65C22.425 27.875 21.9 28.475 21.75 29.2C22.75 30.075 24 30.65 25.4 30.65Z" fill="#474F59"/>
<path d="M16 21.8002C19.2032 21.8002 21.8 19.2034 21.8 16.0002C21.8 12.7969 19.2032 10.2002 16 10.2002C12.7967 10.2002 10.2 12.7969 10.2 16.0002C10.2 19.2034 12.7967 21.8002 16 21.8002Z" fill="white"/>
<path d="M18.7 19.65V18.9L18.15 18.75C17.475 18.575 17 17.95 17 17.25H15C15 17.95 14.525 18.55 13.85 18.75L13.3 18.9V19.65H18.7Z" fill="#F6BB53"/>
<path d="M18.275 16.0499C18.15 16.4499 17.9 16.7249 17.65 16.6749C17.375 16.6249 17.25 16.2499 17.325 15.8499C17.4 15.4499 17.7 15.2499 17.95 15.2249C18.3 15.1499 18.45 15.4999 18.275 16.0499ZM13.9 16.0499C14.025 16.4499 14.275 16.7249 14.525 16.6749C14.8 16.6249 14.925 16.2499 14.85 15.8499C14.775 15.4499 14.475 15.2499 14.225 15.2249C13.9 15.1499 13.725 15.4999 13.9 16.0499Z" fill="#FDDA7F"/>
<path d="M17.775 15.0001C17.8 15.1501 17.8 15.2751 17.8 15.4251C17.8 16.7751 17 17.8751 16 17.8751C15 17.8751 14.2 16.7751 14.2 15.4251C14.2 14.0751 15 12.9751 16 12.9751C16.35 12.9751 16.65 13.1001 16.925 13.3251C17.5 13.3501 17.925 13.8251 17.95 14.4001C17.975 14.6251 17.9 14.8251 17.775 15.0001Z" fill="#FDDA7F"/>
<path d="M17.7 16.2C17.775 15.25 17.35 13.975 17.425 13.875C17.325 13.925 16.475 14.35 15.125 14.25C14.8 14.25 14.525 14.475 14.5 14.8C14.45 15.325 14.325 16.2 14.325 16.2C14.075 15.55 13.975 14.15 13.925 13.7C13.925 13.575 13.925 13.45 13.95 13.325C14.45 11.55 18.025 11.725 17.95 12.95C18.9 12.975 17.7 16.2 17.7 16.2Z" fill="#474F59"/>
<path d="M15.9999 21.8C17.5499 21.8 18.9749 21.2 19.9999 20.2C19.8499 19.375 19.2499 18.725 18.4499 18.475L17.2749 18.125C17.0999 18.7 16.5499 19.125 15.9249 19.075C15.3499 19.025 14.8999 18.65 14.7499 18.125L13.5749 18.475C12.7749 18.725 12.1749 19.375 12.0249 20.2C13.0249 21.2 14.4499 21.8 15.9999 21.8Z" fill="#7DCEDC"/>
<path d="M6.6 11.825C9.48569 11.825 11.825 9.48569 11.825 6.6C11.825 3.71431 9.48569 1.375 6.6 1.375C3.71431 1.375 1.375 3.71431 1.375 6.6C1.375 9.48569 3.71431 11.825 6.6 11.825Z" fill="#F3F3F3"/>
<path d="M9.025 9.8751V9.2001L8.525 9.0751C7.925 8.9001 7.5 8.3501 7.475 7.7251H5.675C5.675 8.3501 5.25 8.9001 4.625 9.0751L4.125 9.2001V9.8751H9.025Z" fill="#F6BB53"/>
<path d="M8.64996 6.62519C8.52496 6.97519 8.32496 7.25019 8.07496 7.20019C7.82496 7.15019 7.69996 6.82519 7.77496 6.45019C7.84996 6.07519 8.09996 5.92519 8.34996 5.87519C8.64996 5.82519 8.79996 6.15019 8.64996 6.62519ZM4.69996 6.62519C4.82496 6.97519 5.02496 7.25019 5.27496 7.20019C5.52496 7.15019 5.64996 6.82519 5.57496 6.45019C5.49996 6.07519 5.24996 5.92519 4.99996 5.87519C4.69996 5.82519 4.54996 6.15019 4.69996 6.62519Z" fill="#FDDA7F"/>
<path d="M8.17495 5.6751C8.19995 5.8001 8.19995 5.9251 8.19995 6.0751C8.19995 7.3001 7.47495 8.3001 6.57495 8.3001C5.67495 8.3001 4.94995 7.3001 4.94995 6.0751C4.94995 4.8501 5.67495 3.8501 6.57495 3.8501C6.87495 3.8501 7.17495 3.9751 7.39995 4.1751C7.92495 4.2001 8.29995 4.6251 8.32495 5.1501C8.34995 5.3501 8.29995 5.5251 8.17495 5.6751Z" fill="#FDDA7F"/>
<path d="M8.12495 6.77483C8.07495 6.24983 8.07495 5.74983 8.09995 5.22483C7.49995 5.07483 7.49995 4.37483 7.49995 4.37483C7.49995 4.37483 6.47495 4.19983 5.89995 4.52483C5.34995 4.84983 5.14995 5.47483 5.14995 5.79983L5.07495 6.77483C4.79995 6.04983 4.72495 4.49983 4.72495 4.49983C4.52495 3.02483 8.44995 2.27483 7.99995 4.02483C9.44995 4.02483 8.12495 6.77483 8.12495 6.77483ZM6.59995 11.8248C7.99995 11.8248 9.27495 11.2748 10.2 10.3748C10.05 9.62483 9.52495 9.02483 8.79995 8.82483L7.72495 8.49983C7.57495 9.02483 7.07495 9.39983 6.49995 9.34983C5.97495 9.32483 5.57495 8.94983 5.42495 8.49983L4.34995 8.82483C3.62495 9.04983 3.09995 9.64983 2.94995 10.3748C3.92495 11.2748 5.19995 11.8248 6.59995 11.8248Z" fill="#474F59"/>
<path d="M6.6 30.6248C9.48569 30.6248 11.825 28.2855 11.825 25.3998C11.825 22.5141 9.48569 20.1748 6.6 20.1748C3.71431 20.1748 1.375 22.5141 1.375 25.3998C1.375 28.2855 3.71431 30.6248 6.6 30.6248Z" fill="#F3F3F3"/>
<path d="M9.025 28.6999V27.9999L8.525 27.8749C7.925 27.6999 7.5 27.1499 7.475 26.5249H5.675C5.675 27.1499 5.25 27.6999 4.625 27.8749L4.125 27.9999V28.6749H9.025V28.6999Z" fill="#F6BB53"/>
<path d="M8.64996 25.4499C8.52496 25.7999 8.32496 26.0749 8.07496 26.0249C7.82496 25.9749 7.69996 25.6499 7.77496 25.2749C7.84996 24.8999 8.09996 24.7499 8.34996 24.6999C8.64996 24.6499 8.79996 24.9749 8.64996 25.4499ZM4.69996 25.4499C4.82496 25.7999 5.02496 26.0749 5.27496 26.0249C5.52496 25.9749 5.64996 25.6499 5.57496 25.2749C5.49996 24.8999 5.22496 24.7499 4.99996 24.6999C4.69996 24.6499 4.54996 24.9749 4.69996 25.4499Z" fill="#FDDA7F"/>
<path d="M8.17495 24.4998C8.19995 24.6248 8.19995 24.7498 8.19995 24.8998C8.19995 26.1248 7.47495 27.1248 6.57495 27.1248C5.67495 27.1248 4.94995 26.1248 4.94995 24.8998C4.94995 23.6748 5.67495 22.6748 6.57495 22.6748C6.87495 22.6748 7.17495 22.7998 7.39995 22.9998C7.92495 23.0248 8.29995 23.4498 8.32495 23.9748C8.34995 24.1498 8.29995 24.3498 8.17495 24.4998Z" fill="#FDDA7F"/>
<path d="M8.12498 25.6C8.07498 25.075 8.09998 23.7 8.09998 23.7C7.12498 23.95 6.22498 23.1 5.57498 23.65C5.37498 23.825 5.27498 24.1 5.29998 24.375V24.7C5.29998 25 5.27498 25.3 5.24998 25.6C5.24998 25.6 4.64998 24.35 4.69998 23.525C4.72498 23.275 4.69998 22.5 5.32498 22.05C6.24998 21.4 8.24998 21.45 8.37498 22.95C9.14998 23.475 8.12498 25.6 8.12498 25.6Z" fill="#474F59"/>
<path d="M7.025 30.1999L8.125 27.9749C7.15 27.9999 6.225 27.9749 5.375 27.8999L6.275 30.1749H7.025V30.1999Z" fill="#F3F3F3"/>
<path d="M7.0501 27.9752C6.7501 27.9752 6.4501 27.9752 6.1501 27.9502L6.1001 28.0002L6.3751 28.2752L6.2251 30.1252L6.4251 30.6252H6.8251L6.9751 30.3002L6.8251 28.3002L7.1001 28.0252L7.0501 27.9752Z" fill="#F37C5A"/>
<path d="M7.7501 27.3501L6.6001 27.9751L7.1001 28.4751L8.0501 27.6501L7.7501 27.3501Z" fill="white"/>
<path d="M9.95 29.4251L9.625 28.2251C9.575 28.0751 9.45 27.9501 9.3 27.9251L8.525 27.7251L7.775 27.6001L6.75 30.6251C7.95 30.6001 9.075 30.1501 9.95 29.4251Z" fill="#25313B"/>
<path d="M7.59995 27.0498L6.69995 30.6248H6.87495L8.49995 28.1498L8.04995 27.9748L8.49995 27.7248L7.59995 27.0498Z" fill="#474F59"/>
<path d="M5.425 27.3501L6.6 27.9751L6.075 28.4751L5.125 27.6501L5.425 27.3501Z" fill="white"/>
<path d="M3.575 28.2251L3.25 29.4251C4.125 30.1501 5.225 30.6001 6.45 30.6251L5.425 27.6001L4.675 27.7251L3.9 27.9251C3.725 27.9501 3.6 28.0751 3.575 28.2251Z" fill="#25313B"/>
<path d="M5.57505 27.0498L4.67505 27.7248L5.12505 27.9748L4.67505 28.1498L6.30005 30.6248H6.47505L5.57505 27.0498Z" fill="#474F59"/>
</g>
<defs>
<clipPath id="clip0_1556_2505">
<rect width="32" height="32" fill="white"/>
</clipPath>
</defs>
</svg>
