<svg width="57" height="57" fill="none" xmlns="http://www.w3.org/2000/svg"><path fill="#00BFBF" d="M.643.5h56v56h-56z"/><path d="M39.542 11.649c.125-.12.218-.215.318-.301.041-.036.098-.054.202-.108v23.206c-.198.009-.382.025-.566.026-2.8.001-5.599.01-8.398-.013-.265-.002-.557-.155-.787-.311-1.205-.817-1.68-1.953-1.42-3.392.029-.163.019-.332.03-.543h1.693v-3.086c0-1.891.009-3.783-.005-5.674-.004-.586.187-1.044.607-1.462 2.775-2.762 5.534-5.54 8.326-8.342Z" fill="#FEFEFD"/><path d="M26.907 22.233v7.944h1.698c0 .853.01 1.643-.01 2.431-.003.128-.127.266-.222.375-1.292 1.49-1.293 1.489-3.25 1.489h-7.648V11.205c.248.222.462.394.654.587 2.55 2.558 5.07 5.149 7.665 7.66.814.788 1.293 1.59 1.113 2.781Z" fill="#FEFFFE"/><path d="M8.906 45.163c-.76-1.973-1.51-3.906-2.294-5.924.46 0 .852-.035 1.233.018.145.02.325.22.382.375.366 1.008.702 2.027 1.093 3.176.327-.815.633-1.501.865-2.212.063-.191-.092-.459-.163-.687-.06-.195-.143-.384-.252-.67.304 0 .54.021.772-.006.355-.042.534.09.663.433.358.952.76 1.889 1.204 2.982l1.054-3.39h1.357l-2.429 6.537-1.492-3.691-1.729 3.67a23.798 23.798 0 0 1-.264-.611Z" fill="#FCFDFA"/><path d="M21.175 44.026v1.444H19.92v-2.465h-2.76v2.47h-1.276V39.2c.29 0 .568.014.844-.004.326-.02.432.12.425.434-.016.677-.005 1.354-.005 2.069h2.733v-2.465h1.294v4.793Z" fill="#FAFCF7"/><path d="M42.001 39.206c2.47.284 3.798 2.515 2.783 4.6-.511 1.05-1.404 1.572-2.525 1.664-.823.068-1.656.014-2.524.014V39.2c.75 0 1.483 0 2.266.005Zm.062 1.198H41.03v3.825c1.576.164 2.508-.34 2.71-1.44.226-1.223-.337-2.07-1.677-2.385Z" fill="#FCFDF9"/><path d="M33.14 43.597c-.279-.066-.527-.1-.83-.143v2.014h-1.242v-6.193c.914 0 1.823-.077 2.711.024.746.086 1.34.555 1.528 1.336.202.842.116 1.653-.53 2.317-.09.093-.194.17-.32.279l1.431 2.271c-.49 0-.88.023-1.265-.012-.136-.013-.296-.142-.381-.263-.37-.523-.716-1.063-1.101-1.63Zm.766-1.666c.27-.386.278-.799.005-1.161-.415-.55-1.013-.33-1.587-.331v1.948c.552-.14 1.04-.264 1.582-.456Z" fill="#FDFEFB"/><path d="M49.322 41.736h.879v1.21h-2.628v1.303h3.102v1.22H46.31v-6.228h4.249v1.153H47.58v1.342h1.742Z" fill="#FBFDF8"/><path d="M28.643 39.372c1.061.512 1.467 1.27 1.262 2.416-.304 1.696-1.624 1.76-3.008 1.742v1.931h-1.255v-6.324c.986.074 1.972.149 3 .235Zm-.117 2.5c.225-.402.24-.821-.072-1.161-.43-.471-1-.287-1.55-.262v1.797c.567-.012 1.13.2 1.622-.373Z" fill="#FDFEFB"/><path d="M22.762 42.21v-2.974h1.224v6.224h-1.224v-3.25Z" fill="#FEFEFD"/><path d="M36.856 43.572v-4.336h1.21v6.237h-1.21v-1.9Z" fill="#FBFDF8"/></svg>