<svg width="57" height="57" viewBox="0 0 57 57" fill="none" xmlns="http://www.w3.org/2000/svg">
<rect width="56" height="56" transform="translate(0.177734 0.5)" fill="#00BFBF"/>
<path d="M39.0769 11.649C39.2012 11.529 39.294 11.4343 39.394 11.348C39.4354 11.3122 39.4924 11.2944 39.5964 11.2402C39.5964 18.9841 39.5964 26.6957 39.5964 34.4455C39.3988 34.455 39.2147 34.4714 39.0306 34.4715C36.2311 34.4733 33.4315 34.4814 30.6322 34.4591C30.3676 34.457 30.0757 34.3036 29.8457 34.1478C28.64 33.3313 28.1653 32.1953 28.4247 30.7557C28.454 30.5934 28.4441 30.4239 28.4545 30.2132C29.0031 30.2132 29.5261 30.2132 30.1485 30.2132C30.1485 29.1545 30.1485 28.1409 30.1485 27.1274C30.1485 25.2358 30.157 23.3442 30.1434 21.4527C30.1391 20.8672 30.3307 20.4093 30.7506 19.9913C33.5254 17.229 36.2843 14.4507 39.0769 11.649Z" fill="#FEFEFD"/>
<path d="M26.4415 22.2333C26.4415 24.8966 26.4415 27.5038 26.4415 30.1766C27.0316 30.1766 27.5499 30.1766 28.1395 30.1766C28.1395 31.03 28.1497 31.8195 28.1293 32.6082C28.126 32.7356 28.0027 32.8735 27.9078 32.9829C26.6152 34.4728 26.6141 34.4718 24.6565 34.4718C22.1234 34.4718 19.5903 34.4718 17.0093 34.4718C17.0093 26.7259 17.0093 19.0085 17.0093 11.2051C17.2579 11.4269 17.4712 11.5988 17.6635 11.7916C20.2144 14.3496 22.7329 16.9407 25.3281 19.4528C26.142 20.2405 26.6213 21.0424 26.4415 22.2333Z" fill="#FEFFFE"/>
<path d="M8.44078 45.1626C7.6796 43.1898 6.9298 41.2574 6.14673 39.2393C6.60559 39.2393 6.99878 39.2043 7.3798 39.2571C7.52484 39.2772 7.70483 39.4761 7.76154 39.6324C8.12713 40.6403 8.46298 41.659 8.8543 42.8084C9.18094 41.9931 9.48749 41.3068 9.71967 40.5962C9.78222 40.4048 9.62731 40.137 9.55674 39.909C9.49629 39.7138 9.4137 39.5254 9.30449 39.2382C9.60806 39.2382 9.84498 39.2602 10.0761 39.2331C10.4314 39.1913 10.6108 39.3224 10.7398 39.6658C11.0975 40.6183 11.4986 41.5545 11.9438 42.6475C12.3215 41.4331 12.6581 40.351 12.9979 39.2585C13.4378 39.2585 13.8502 39.2585 14.3543 39.2585C13.5501 41.4229 12.7611 43.5464 11.9257 45.7949C11.4142 44.5292 10.9481 43.376 10.4339 42.1037C9.84074 43.3626 9.29309 44.5249 8.70438 45.7743C8.59896 45.5355 8.52556 45.3692 8.44078 45.1626Z" fill="#FCFDFA"/>
<path d="M20.7098 44.0264C20.7098 44.5337 20.7098 44.9846 20.7098 45.4703C20.2834 45.4703 19.8955 45.4703 19.454 45.4703C19.454 44.6666 19.454 43.8609 19.454 43.0048C18.5268 43.0048 17.6508 43.0048 16.6944 43.0048C16.6944 43.824 16.6944 44.6448 16.6944 45.4751C16.2256 45.4751 15.8366 45.4751 15.4182 45.4751C15.4182 43.3907 15.4182 41.3365 15.4182 39.199C15.7078 39.199 15.9863 39.213 16.2628 39.1954C16.5881 39.1746 16.6941 39.3157 16.687 39.6295C16.6718 40.3062 16.6824 40.9834 16.6824 41.6975C17.6088 41.6975 18.4691 41.6975 19.4159 41.6975C19.4159 40.8826 19.4159 40.0643 19.4159 39.2332C19.8905 39.2332 20.2787 39.2332 20.7098 39.2332C20.7098 40.8353 20.7098 42.4026 20.7098 44.0264Z" fill="#FAFCF7"/>
<path d="M41.5356 39.2061C44.0051 39.4902 45.3337 41.7213 44.3184 43.8067C43.8073 44.8564 42.9144 45.3783 41.7938 45.4702C40.9706 45.5377 40.1375 45.4835 39.269 45.4835C39.269 43.3998 39.269 41.3348 39.269 39.2012C40.0197 39.2012 40.7522 39.2012 41.5356 39.2061ZM41.5971 40.4037C41.2598 40.4037 40.9224 40.4037 40.5646 40.4037C40.5646 41.7002 40.5646 42.9671 40.5646 44.2286C42.1406 44.3934 43.0719 43.8884 43.2748 42.7896C43.5008 41.5659 42.9371 40.7192 41.5971 40.4037Z" fill="#FCFDF9"/>
<path d="M32.6752 43.5973C32.3957 43.5307 32.1473 43.4963 31.8444 43.4542C31.8444 44.1647 31.8444 44.7993 31.8444 45.4681C31.4109 45.4681 31.0258 45.4681 30.6021 45.4681C30.6021 43.3973 30.6021 41.332 30.6021 39.2755C31.5163 39.2755 32.4253 39.1978 33.3137 39.2994C34.0599 39.3848 34.6541 39.8541 34.8411 40.6346C35.043 41.4773 34.9576 42.2882 34.3121 42.9523C34.2223 43.0448 34.1174 43.1226 33.9921 43.2308C34.4534 43.9634 34.9099 44.6882 35.4225 45.5023C34.932 45.5023 34.542 45.5253 34.1574 45.4899C34.0214 45.4773 33.8614 45.3483 33.7761 45.2274C33.4066 44.7038 33.0607 44.1636 32.6752 43.5973ZM33.4399 41.9309C33.7099 41.545 33.7181 41.132 33.4454 40.77C33.0303 40.2192 32.432 40.4408 31.8589 40.4389C31.8589 41.0544 31.8589 41.6304 31.8589 42.3867C32.4104 42.2467 32.8977 42.123 33.4399 41.9309Z" fill="#FDFEFB"/>
<path d="M48.857 41.7364C49.1745 41.7364 49.4364 41.7364 49.7351 41.7364C49.7351 42.1442 49.7351 42.5131 49.7351 42.9452C48.8736 42.9452 48.0101 42.9452 47.1077 42.9452C47.1077 43.3946 47.1077 43.7824 47.1077 44.2495C48.1221 44.2495 49.1485 44.2495 50.2089 44.2495C50.2089 44.6954 50.2089 45.064 50.2089 45.4692C48.763 45.4692 47.3193 45.4692 45.8442 45.4692C45.8442 43.3924 45.8442 41.3383 45.8442 39.2412C47.2589 39.2412 48.6662 39.2412 50.0932 39.2412C50.0932 39.6234 50.0932 39.9783 50.0932 40.3939C49.1075 40.3939 48.1345 40.3939 47.1145 40.3939C47.1145 40.8547 47.1145 41.2559 47.1145 41.7364C47.6804 41.7364 48.2408 41.7364 48.857 41.7364Z" fill="#FBFDF8"/>
<path d="M28.1772 39.3716C29.239 39.8839 29.6441 40.6427 29.439 41.7878C29.1352 43.4844 27.8152 43.5479 26.4315 43.53C26.4315 44.1882 26.4315 44.8037 26.4315 45.4614C25.9919 45.4614 25.6054 45.4614 25.1763 45.4614C25.1763 43.4126 25.1763 41.345 25.1763 39.1367C26.1626 39.2112 27.1483 39.2857 28.1772 39.3716ZM28.0601 41.8729C28.2857 41.4697 28.2998 41.051 27.9886 40.7108C27.5577 40.2399 26.9892 40.4237 26.438 40.4491C26.438 41.0629 26.438 41.6364 26.438 42.2461C27.0058 42.2338 27.5682 42.4468 28.0601 41.8729Z" fill="#FDFEFB"/>
<path d="M22.2969 42.2105C22.2969 41.1931 22.2969 40.2325 22.2969 39.2363C22.721 39.2363 23.1074 39.2363 23.5204 39.2363C23.5204 41.3139 23.5204 43.365 23.5204 45.4597C23.1404 45.4597 22.7567 45.4597 22.2969 45.4597C22.2969 44.4037 22.2969 43.3355 22.2969 42.2105Z" fill="#FEFEFD"/>
<path d="M36.3906 43.5725C36.3906 42.1017 36.3906 40.6877 36.3906 39.2363C36.8156 39.2363 37.1854 39.2363 37.6001 39.2363C37.6001 41.3105 37.6001 43.3762 37.6001 45.4732C37.2211 45.4732 36.8497 45.4732 36.3906 45.4732C36.3906 44.8624 36.3906 44.2458 36.3906 43.5725Z" fill="#FBFDF8"/>
</svg>
