<svg width="147" height="55" viewBox="0 0 147 55" fill="none" xmlns="http://www.w3.org/2000/svg">
<path d="M46.1105 7.91131C42.333 4.13377 37.5201 1.56123 32.2805 0.519007C27.0409 -0.523215 21.6099 0.011692 16.6743 2.05609C11.7387 4.10048 7.52016 7.56254 4.55216 12.0045C1.58416 16.4464 -8.06658e-07 21.6687 0 27.0109C8.06658e-07 32.3532 1.58416 37.5755 4.55216 42.0174C7.52016 46.4593 11.7387 49.9214 16.6743 51.9658C21.6099 54.0102 27.0409 54.5451 32.2805 53.5028C37.5201 52.4606 42.333 49.8881 46.1105 46.1105L40.0902 40.0902C37.5034 42.6771 34.2076 44.4387 30.6195 45.1525C27.0314 45.8662 23.3123 45.4999 19.9324 44.0999C16.5526 42.6999 13.6637 40.3291 11.6313 37.2873C9.5988 34.2455 8.51398 30.6693 8.51398 27.0109C8.51397 23.3526 9.5988 19.7764 11.6313 16.7346C13.6637 13.6928 16.5526 11.322 19.9324 9.92197C23.3123 8.52198 27.0314 8.15568 30.6195 8.86939C34.2076 9.5831 37.5034 11.3448 40.0902 13.9316L46.1105 7.91131Z" fill="#737373"/>
<path d="M19.526 29.7603H32.072C34.4891 29.7603 36.4485 31.7197 36.4485 34.1368V34.1368C36.4485 36.5539 34.4891 38.5133 32.072 38.5133H19.526V29.7603Z" fill="#FF7900"/>
<path d="M19.526 14.9699H32.072C34.4891 14.9699 36.4485 16.9293 36.4485 19.3464V19.3464C36.4485 21.7635 34.4891 23.7229 32.072 23.7229H19.526V14.9699Z" fill="#FF7900"/>
<path d="M59.3767 24.8519H55.2052C55.1757 24.5068 55.0968 24.1937 54.9686 23.9126C54.8453 23.6316 54.6727 23.3899 54.4508 23.1878C54.2339 22.9807 53.9701 22.8229 53.6594 22.7144C53.3488 22.601 52.9962 22.5443 52.6018 22.5443C51.9115 22.5443 51.3272 22.712 50.8489 23.0473C50.3755 23.3825 50.0156 23.8633 49.769 24.4895C49.5274 25.1157 49.4066 25.8677 49.4066 26.7454C49.4066 27.6723 49.5299 28.4489 49.7764 29.0752C50.0279 29.6964 50.3903 30.1649 50.8637 30.4804C51.337 30.7911 51.9065 30.9464 52.5722 30.9464C52.9519 30.9464 53.2921 30.8996 53.5929 30.8059C53.8936 30.7073 54.155 30.5667 54.3769 30.3843C54.5988 30.2018 54.7787 29.9824 54.9168 29.726C55.0598 29.4647 55.1559 29.1713 55.2052 28.8459L59.3767 28.8755C59.3274 29.5165 59.1474 30.1698 58.8368 30.8355C58.5261 31.4962 58.0848 32.1076 57.5129 32.6697C56.9458 33.2269 56.2432 33.6756 55.4049 34.0158C54.5667 34.356 53.5929 34.5262 52.4834 34.5262C51.093 34.5262 49.8455 34.2278 48.741 33.6312C47.6414 33.0346 46.7711 32.1569 46.1301 30.9982C45.494 29.8394 45.176 28.4218 45.176 26.7454C45.176 25.059 45.5014 23.6389 46.1523 22.4851C46.8032 21.3264 47.6808 20.4512 48.7853 19.8595C49.8898 19.2629 51.1225 18.9646 52.4834 18.9646C53.44 18.9646 54.3202 19.0952 55.1239 19.3565C55.9276 19.6179 56.6327 20 57.2392 20.503C57.8457 21.001 58.3338 21.6149 58.7036 22.3446C59.0735 23.0744 59.2978 23.9101 59.3767 24.8519ZM65.6466 34.3191H61.2089L66.2087 19.1716H71.8298L76.8297 34.3191H72.3919L69.0784 23.3431H68.9601L65.6466 34.3191ZM64.8182 28.3429H73.1611V31.4198H64.8182V28.3429ZM79.2258 19.1716H84.344L87.8646 27.7512H88.0421L91.5627 19.1716H96.6808V34.3191H92.6573V25.562H92.539L89.1663 34.2007H86.7403L83.3677 25.5028H83.2493V34.3191H79.2258V19.1716ZM99.567 34.3191V19.1716H106.135C107.289 19.1716 108.258 19.327 109.042 19.6376C109.83 19.9482 110.425 20.3871 110.824 20.9541C111.228 21.5212 111.43 22.1893 111.43 22.9585C111.43 23.5157 111.307 24.0236 111.061 24.4821C110.819 24.9407 110.479 25.3253 110.04 25.6359C109.601 25.9416 109.088 26.1537 108.502 26.272V26.4199C109.152 26.4446 109.744 26.6098 110.277 26.9155C110.809 27.2162 111.233 27.6329 111.549 28.1654C111.864 28.693 112.022 29.3143 112.022 30.0293C112.022 30.8576 111.805 31.5948 111.371 32.2407C110.942 32.8867 110.331 33.3945 109.537 33.7643C108.743 34.1342 107.796 34.3191 106.697 34.3191H99.567ZM103.679 31.0351H105.602C106.293 31.0351 106.81 30.9069 107.155 30.6505C107.501 30.3892 107.673 30.0046 107.673 29.4967C107.673 29.1417 107.592 28.8409 107.429 28.5944C107.266 28.3479 107.035 28.1605 106.734 28.0323C106.438 27.9041 106.081 27.84 105.661 27.84H103.679V31.0351ZM103.679 25.2957H105.366C105.726 25.2957 106.044 25.239 106.32 25.1256C106.596 25.0122 106.81 24.8495 106.963 24.6374C107.121 24.4205 107.2 24.1567 107.2 23.846C107.2 23.3776 107.032 23.0201 106.697 22.7736C106.362 22.5221 105.938 22.3964 105.425 22.3964H103.679V25.2957ZM118.351 34.3191H113.914L118.913 19.1716H124.534L129.534 34.3191H125.097L121.783 23.3431H121.665L118.351 34.3191ZM117.523 28.3429H125.866V31.4198H117.523V28.3429ZM129.763 19.1716H134.349L137.307 25.3253H137.426L140.384 19.1716H144.97L139.408 29.5559V34.3191H135.325V29.5559L129.763 19.1716Z" fill="#F27405"/>
</svg>
