<svg width="178" height="44" viewBox="0 0 178 44" fill="none" xmlns="http://www.w3.org/2000/svg">
<g filter="url(#filter0_i_1315_5410)">
<path d="M70.1567 21.5113V16.0488L60.0352 24.0818L70.1567 32.4361V28.4196L65.9796 25.0458L70.1567 21.5113Z" fill="url(#paint0_linear_1315_5410)"/>
</g>
<g filter="url(#filter1_i_1315_5410)">
<path d="M71.4136 26.9712V32.4336L81.5352 24.4006L71.4136 16.0463V20.0628L75.5907 23.4366L71.4136 26.9712Z" fill="url(#paint1_linear_1315_5410)"/>
</g>
<g filter="url(#filter2_d_1315_5410)">
<path d="M84.478 32.5117V16.0186H88.1534V20.5588L87.721 19.2307C88.2152 18.1188 88.9873 17.2746 90.0375 16.698C91.1082 16.1215 92.4363 15.8332 94.0218 15.8332V19.5087C93.857 19.4675 93.7026 19.4469 93.5585 19.4469C93.4143 19.4263 93.2702 19.416 93.1261 19.416C91.6641 19.416 90.5008 19.8484 89.6359 20.7132C88.7711 21.5575 88.3387 22.8238 88.3387 24.5122V32.5117H84.478Z" fill="#121212"/>
</g>
<g filter="url(#filter3_d_1315_5410)">
<path d="M6.67407 19.8793H17.4224V23.1841H6.67407V19.8793ZM6.98293 29.1451H19.1829V32.5117H2.96774V10.8915H18.7505V14.258H6.98293V29.1451ZM30.7046 32.7279C28.975 32.7279 27.4307 32.3676 26.0717 31.6469C24.7333 30.9056 23.6832 29.8967 22.9214 28.6201C22.1595 27.3434 21.7786 25.8918 21.7786 24.2651C21.7786 22.6179 22.1595 21.1662 22.9214 19.9102C23.6832 18.6336 24.7333 17.6349 26.0717 16.9143C27.4307 16.1936 28.975 15.8332 30.7046 15.8332C32.3107 15.8332 33.7212 16.1627 34.936 16.8216C36.1715 17.4599 37.1084 18.4071 37.7467 19.6631L34.7816 21.3927C34.2874 20.6103 33.68 20.0337 32.9593 19.6631C32.2592 19.2925 31.4974 19.1072 30.6738 19.1072C29.7266 19.1072 28.8721 19.3131 28.1102 19.7249C27.3484 20.1367 26.7512 20.7338 26.3188 21.5163C25.8864 22.2781 25.6702 23.1944 25.6702 24.2651C25.6702 25.3359 25.8864 26.2624 26.3188 27.0449C26.7512 27.8067 27.3484 28.3936 28.1102 28.8054C28.8721 29.2172 29.7266 29.4231 30.6738 29.4231C31.4974 29.4231 32.2592 29.2378 32.9593 28.8672C33.68 28.4965 34.2874 27.92 34.7816 27.1375L37.7467 28.8672C37.1084 30.1026 36.1715 31.0601 34.936 31.7396C33.7212 32.3985 32.3107 32.7279 30.7046 32.7279ZM50.2917 15.8332C51.6095 15.8332 52.7832 16.0906 53.8127 16.6054C54.8629 17.1202 55.6865 17.9129 56.2836 18.9836C56.8808 20.0337 57.1793 21.3927 57.1793 23.0606V32.5117H53.3186V23.5548C53.3186 22.0928 52.9685 21.0015 52.2684 20.2808C51.5889 19.5602 50.6315 19.1998 49.396 19.1998C48.49 19.1998 47.687 19.3851 46.9869 19.7558C46.2868 20.1264 45.7412 20.6824 45.35 21.4236C44.9793 22.1443 44.794 23.0606 44.794 24.1725V32.5117H40.9332V9.59425H44.794V20.4661L43.9601 19.1072C44.5366 18.057 45.3705 17.254 46.4619 16.698C47.5738 16.1215 48.8504 15.8332 50.2917 15.8332Z" fill="#121212"/>
</g>
<g filter="url(#filter4_d_1315_5410)">
<path d="M108.506 32.5117V14.2889H101.34V10.8915H119.687V14.2889H112.521V32.5117H108.506ZM128.393 32.7279C126.56 32.7279 124.954 32.3676 123.574 31.6469C122.215 30.9056 121.155 29.8967 120.393 28.6201C119.652 27.3434 119.281 25.8918 119.281 24.2651C119.281 22.6179 119.642 21.1662 120.362 19.9102C121.104 18.6336 122.113 17.6349 123.389 16.9143C124.686 16.1936 126.159 15.8332 127.806 15.8332C129.412 15.8332 130.843 16.1833 132.099 16.8834C133.355 17.5834 134.343 18.5718 135.064 19.8484C135.785 21.1251 136.145 22.6282 136.145 24.3578C136.145 24.5225 136.135 24.7078 136.114 24.9137C136.114 25.1197 136.104 25.3153 136.083 25.5006H122.339V22.937H134.045L132.531 23.7401C132.552 22.7929 132.356 21.959 131.945 21.2383C131.533 20.5176 130.967 19.9514 130.246 19.5396C129.546 19.1278 128.732 18.9218 127.806 18.9218C126.859 18.9218 126.025 19.1278 125.304 19.5396C124.604 19.9514 124.048 20.5279 123.636 21.2692C123.245 21.9899 123.049 22.8444 123.049 23.8327V24.4505C123.049 25.4388 123.276 26.3139 123.729 27.0758C124.182 27.8376 124.82 28.4245 125.644 28.8363C126.467 29.2481 127.415 29.454 128.485 29.454C129.412 29.454 130.246 29.3099 130.987 29.0216C131.728 28.7333 132.387 28.2803 132.964 27.6626L135.033 30.0408C134.292 30.9056 133.355 31.5748 132.223 32.0484C131.111 32.5014 129.834 32.7279 128.393 32.7279ZM147.421 32.7279C145.691 32.7279 144.147 32.3676 142.788 31.6469C141.449 30.9056 140.399 29.8967 139.637 28.6201C138.876 27.3434 138.495 25.8918 138.495 24.2651C138.495 22.6179 138.876 21.1662 139.637 19.9102C140.399 18.6336 141.449 17.6349 142.788 16.9143C144.147 16.1936 145.691 15.8332 147.421 15.8332C149.027 15.8332 150.437 16.1627 151.652 16.8216C152.888 17.4599 153.824 18.4071 154.463 19.6631L151.498 21.3927C151.003 20.6103 150.396 20.0337 149.675 19.6631C148.975 19.2925 148.213 19.1072 147.39 19.1072C146.443 19.1072 145.588 19.3131 144.826 19.7249C144.064 20.1367 143.467 20.7338 143.035 21.5163C142.602 22.2781 142.386 23.1944 142.386 24.2651C142.386 25.3359 142.602 26.2624 143.035 27.0449C143.467 27.8067 144.064 28.3936 144.826 28.8054C145.588 29.2172 146.443 29.4231 147.39 29.4231C148.213 29.4231 148.975 29.2378 149.675 28.8672C150.396 28.4965 151.003 27.92 151.498 27.1375L154.463 28.8672C153.824 30.1026 152.888 31.0601 151.652 31.7396C150.437 32.3985 149.027 32.7279 147.421 32.7279ZM167.008 15.8332C168.326 15.8332 169.499 16.0906 170.529 16.6054C171.579 17.1202 172.403 17.9129 173 18.9836C173.597 20.0337 173.895 21.3927 173.895 23.0606V32.5117H170.035V23.5548C170.035 22.0928 169.685 21.0015 168.984 20.2808C168.305 19.5602 167.348 19.1998 166.112 19.1998C165.206 19.1998 164.403 19.3851 163.703 19.7558C163.003 20.1264 162.457 20.6824 162.066 21.4236C161.695 22.1443 161.51 23.0606 161.51 24.1725V32.5117H157.649V9.59425H161.51V20.4661L160.676 19.1072C161.253 18.057 162.087 17.254 163.178 16.698C164.29 16.1215 165.566 15.8332 167.008 15.8332Z" fill="#121212"/>
</g>
<defs>
<filter id="filter0_i_1315_5410" x="60.0352" y="16.0488" width="10.1211" height="17.672" filterUnits="userSpaceOnUse" color-interpolation-filters="sRGB">
<feFlood flood-opacity="0" result="BackgroundImageFix"/>
<feBlend mode="normal" in="SourceGraphic" in2="BackgroundImageFix" result="shape"/>
<feColorMatrix in="SourceAlpha" type="matrix" values="0 0 0 0 0 0 0 0 0 0 0 0 0 0 0 0 0 0 127 0" result="hardAlpha"/>
<feOffset dy="1.28528"/>
<feGaussianBlur stdDeviation="0.642639"/>
<feComposite in2="hardAlpha" operator="arithmetic" k2="-1" k3="1"/>
<feColorMatrix type="matrix" values="0 0 0 0 0 0 0 0 0 0 0 0 0 0 0 0 0 0 0.1 0"/>
<feBlend mode="difference" in2="shape" result="effect1_innerShadow_1315_5410"/>
</filter>
<filter id="filter1_i_1315_5410" x="71.4141" y="16.0469" width="10.1211" height="17.672" filterUnits="userSpaceOnUse" color-interpolation-filters="sRGB">
<feFlood flood-opacity="0" result="BackgroundImageFix"/>
<feBlend mode="normal" in="SourceGraphic" in2="BackgroundImageFix" result="shape"/>
<feColorMatrix in="SourceAlpha" type="matrix" values="0 0 0 0 0 0 0 0 0 0 0 0 0 0 0 0 0 0 127 0" result="hardAlpha"/>
<feOffset dy="1.28528"/>
<feGaussianBlur stdDeviation="0.642639"/>
<feComposite in2="hardAlpha" operator="arithmetic" k2="-1" k3="1"/>
<feColorMatrix type="matrix" values="0 0 0 0 0 0 0 0 0 0 0 0 0 0 0 0 0 0 0.1 0"/>
<feBlend mode="difference" in2="shape" result="effect1_innerShadow_1315_5410"/>
</filter>
<filter id="filter2_d_1315_5410" x="82.6658" y="15.2298" width="13.1683" height="20.3031" filterUnits="userSpaceOnUse" color-interpolation-filters="sRGB">
<feFlood flood-opacity="0" result="BackgroundImageFix"/>
<feColorMatrix in="SourceAlpha" type="matrix" values="0 0 0 0 0 0 0 0 0 0 0 0 0 0 0 0 0 0 127 0" result="hardAlpha"/>
<feOffset dy="1.20845"/>
<feGaussianBlur stdDeviation="0.906337"/>
<feComposite in2="hardAlpha" operator="out"/>
<feColorMatrix type="matrix" values="0 0 0 0 0.160784 0 0 0 0 0.219608 0 0 0 0 0.564706 0 0 0 0.12 0"/>
<feBlend mode="normal" in2="BackgroundImageFix" result="effect1_dropShadow_1315_5410"/>
<feBlend mode="normal" in="SourceGraphic" in2="effect1_dropShadow_1315_5410" result="shape"/>
</filter>
<filter id="filter3_d_1315_5410" x="1.15412" y="8.98953" width="57.8382" height="26.7601" filterUnits="userSpaceOnUse" color-interpolation-filters="sRGB">
<feFlood flood-opacity="0" result="BackgroundImageFix"/>
<feColorMatrix in="SourceAlpha" type="matrix" values="0 0 0 0 0 0 0 0 0 0 0 0 0 0 0 0 0 0 127 0" result="hardAlpha"/>
<feOffset dy="1.20845"/>
<feGaussianBlur stdDeviation="0.906337"/>
<feComposite in2="hardAlpha" operator="out"/>
<feColorMatrix type="matrix" values="0 0 0 0 0.160784 0 0 0 0 0.219608 0 0 0 0 0.564706 0 0 0 0.12 0"/>
<feBlend mode="normal" in2="BackgroundImageFix" result="effect1_dropShadow_1315_5410"/>
<feBlend mode="normal" in="SourceGraphic" in2="effect1_dropShadow_1315_5410" result="shape"/>
</filter>
<filter id="filter4_d_1315_5410" x="99.5272" y="8.98953" width="76.18" height="26.7601" filterUnits="userSpaceOnUse" color-interpolation-filters="sRGB">
<feFlood flood-opacity="0" result="BackgroundImageFix"/>
<feColorMatrix in="SourceAlpha" type="matrix" values="0 0 0 0 0 0 0 0 0 0 0 0 0 0 0 0 0 0 127 0" result="hardAlpha"/>
<feOffset dy="1.20845"/>
<feGaussianBlur stdDeviation="0.906337"/>
<feComposite in2="hardAlpha" operator="out"/>
<feColorMatrix type="matrix" values="0 0 0 0 0.160784 0 0 0 0 0.219608 0 0 0 0 0.564706 0 0 0 0.12 0"/>
<feBlend mode="normal" in2="BackgroundImageFix" result="effect1_dropShadow_1315_5410"/>
<feBlend mode="normal" in="SourceGraphic" in2="effect1_dropShadow_1315_5410" result="shape"/>
</filter>
<linearGradient id="paint0_linear_1315_5410" x1="60.0352" y1="24.2425" x2="70.1567" y2="24.2425" gradientUnits="userSpaceOnUse">
<stop stop-color="#F83600"/>
<stop offset="1" stop-color="#F9D423"/>
</linearGradient>
<linearGradient id="paint1_linear_1315_5410" x1="81.5352" y1="24.2399" x2="71.4136" y2="24.2399" gradientUnits="userSpaceOnUse">
<stop stop-color="#F83600"/>
<stop offset="1" stop-color="#F9D423"/>
</linearGradient>
</defs>
</svg>
