<svg width="271" height="57" viewBox="0 0 271 57" fill="none" xmlns="http://www.w3.org/2000/svg">
<g filter="url(#filter0_d_1335_558)">
<path d="M166.115 45H172.234V17.2273H183.155V12.0493H155.194V17.2273H166.115V45ZM208.239 32.5729C208.239 24.7118 202.873 19.5809 195.529 19.5809C188.045 19.5809 182.537 24.9471 182.537 32.4317C182.537 39.9162 187.998 45.3295 196.424 45.3295C200.754 45.3295 204.285 43.9173 206.544 41.2342L203.39 37.6096C201.602 39.4455 199.389 40.3398 196.565 40.3398C192.187 40.3398 189.127 37.9862 188.421 34.3146H208.145C208.192 33.7497 208.239 33.0436 208.239 32.5729ZM195.529 24.2881C199.389 24.2881 202.167 26.783 202.637 30.4075H188.374C188.939 26.7359 191.716 24.2881 195.529 24.2881ZM225.424 45.3295C230.319 45.3295 234.226 43.2112 236.156 39.4455L231.637 36.8094C230.131 39.2101 227.871 40.2928 225.377 40.2928C221.046 40.2928 217.751 37.3272 217.751 32.4317C217.751 27.5832 221.046 24.5706 225.377 24.5706C227.871 24.5706 230.131 25.6532 231.637 28.0539L236.156 25.4179C234.226 21.605 230.319 19.5809 225.424 19.5809C217.468 19.5809 211.82 24.9001 211.82 32.4317C211.82 39.9632 217.468 45.3295 225.424 45.3295ZM255.276 19.5809C251.792 19.5809 248.827 20.7106 246.897 22.7818V10.0722H241.013V45H246.897V32.2904C246.897 27.2537 249.721 24.7118 253.911 24.7118C257.676 24.7118 259.889 26.8771 259.889 31.349V45H265.773V30.5958C265.773 23.0172 261.301 19.5809 255.276 19.5809Z" fill="white"/>
</g>
<g filter="url(#filter1_i_1335_558)">
<path d="M106.824 28.954V20.6289L91.3984 32.8717L106.824 45.6042V39.4828L100.458 34.3409L106.824 28.954Z" fill="url(#paint0_linear_1335_558)"/>
</g>
<g filter="url(#filter2_i_1335_558)">
<path d="M108.738 37.2769V45.6021L124.164 33.3592L108.738 20.6267V26.7481L115.104 31.8901L108.738 37.2769Z" fill="url(#paint1_linear_1335_558)"/>
</g>
<g filter="url(#filter3_d_1335_558)">
<path d="M134.255 23.535V19.8633H128.653V45H134.537V32.8082C134.537 27.6773 137.361 25.0413 141.833 25.0413C142.257 25.0413 142.68 25.0884 143.198 25.1825V19.5809C139.009 19.5809 135.949 20.8989 134.255 23.535Z" fill="white"/>
</g>
<g filter="url(#filter4_d_1335_558)">
<path d="M10.5442 39.8691V30.7841H26.4547V25.7474H10.5442V17.1802H28.4788V12.0493H4.42481V45H29.1378V39.8691H10.5442ZM46.6977 45.3295C51.5932 45.3295 55.5002 43.2112 57.4302 39.4455L52.9113 36.8094C51.4049 39.2101 49.1455 40.2928 46.6506 40.2928C42.32 40.2928 39.0249 37.3272 39.0249 32.4317C39.0249 27.5832 42.32 24.5706 46.6506 24.5706C49.1455 24.5706 51.4049 25.6532 52.9113 28.0539L57.4302 25.4179C55.5002 21.605 51.5932 19.5809 46.6977 19.5809C38.7425 19.5809 33.0938 24.9001 33.0938 32.4317C33.0938 39.9632 38.7425 45.3295 46.6977 45.3295ZM76.5497 19.5809C73.0664 19.5809 70.1008 20.7106 68.1708 22.7818V10.0722H62.2868V45H68.1708V32.2904C68.1708 27.2537 70.9952 24.7118 75.1846 24.7118C78.9504 24.7118 81.1628 26.8771 81.1628 31.349V45H87.0469V30.5958C87.0469 23.0172 82.575 19.5809 76.5497 19.5809Z" fill="white"/>
</g>
<defs>
<filter id="filter0_d_1335_558" x="152.431" y="9.15139" width="116.105" height="40.7826" filterUnits="userSpaceOnUse" color-interpolation-filters="sRGB">
<feFlood flood-opacity="0" result="BackgroundImageFix"/>
<feColorMatrix in="SourceAlpha" type="matrix" values="0 0 0 0 0 0 0 0 0 0 0 0 0 0 0 0 0 0 127 0" result="hardAlpha"/>
<feOffset dy="1.84176"/>
<feGaussianBlur stdDeviation="1.38132"/>
<feComposite in2="hardAlpha" operator="out"/>
<feColorMatrix type="matrix" values="0 0 0 0 0.160784 0 0 0 0 0.219608 0 0 0 0 0.564706 0 0 0 0.12 0"/>
<feBlend mode="normal" in2="BackgroundImageFix" result="effect1_dropShadow_1335_558"/>
<feBlend mode="normal" in="SourceGraphic" in2="effect1_dropShadow_1335_558" result="shape"/>
</filter>
<filter id="filter1_i_1335_558" x="91.3984" y="20.6289" width="15.4258" height="26.9339" filterUnits="userSpaceOnUse" color-interpolation-filters="sRGB">
<feFlood flood-opacity="0" result="BackgroundImageFix"/>
<feBlend mode="normal" in="SourceGraphic" in2="BackgroundImageFix" result="shape"/>
<feColorMatrix in="SourceAlpha" type="matrix" values="0 0 0 0 0 0 0 0 0 0 0 0 0 0 0 0 0 0 127 0" result="hardAlpha"/>
<feOffset dy="1.95885"/>
<feGaussianBlur stdDeviation="0.979425"/>
<feComposite in2="hardAlpha" operator="arithmetic" k2="-1" k3="1"/>
<feColorMatrix type="matrix" values="0 0 0 0 0 0 0 0 0 0 0 0 0 0 0 0 0 0 0.1 0"/>
<feBlend mode="difference" in2="shape" result="effect1_innerShadow_1335_558"/>
</filter>
<filter id="filter2_i_1335_558" x="108.738" y="20.627" width="15.4258" height="26.9339" filterUnits="userSpaceOnUse" color-interpolation-filters="sRGB">
<feFlood flood-opacity="0" result="BackgroundImageFix"/>
<feBlend mode="normal" in="SourceGraphic" in2="BackgroundImageFix" result="shape"/>
<feColorMatrix in="SourceAlpha" type="matrix" values="0 0 0 0 0 0 0 0 0 0 0 0 0 0 0 0 0 0 127 0" result="hardAlpha"/>
<feOffset dy="1.95885"/>
<feGaussianBlur stdDeviation="0.979425"/>
<feComposite in2="hardAlpha" operator="arithmetic" k2="-1" k3="1"/>
<feColorMatrix type="matrix" values="0 0 0 0 0 0 0 0 0 0 0 0 0 0 0 0 0 0 0.1 0"/>
<feBlend mode="difference" in2="shape" result="effect1_innerShadow_1335_558"/>
</filter>
<filter id="filter3_d_1335_558" x="125.89" y="18.6602" width="20.0721" height="30.9442" filterUnits="userSpaceOnUse" color-interpolation-filters="sRGB">
<feFlood flood-opacity="0" result="BackgroundImageFix"/>
<feColorMatrix in="SourceAlpha" type="matrix" values="0 0 0 0 0 0 0 0 0 0 0 0 0 0 0 0 0 0 127 0" result="hardAlpha"/>
<feOffset dy="1.84176"/>
<feGaussianBlur stdDeviation="1.38132"/>
<feComposite in2="hardAlpha" operator="out"/>
<feColorMatrix type="matrix" values="0 0 0 0 0.160784 0 0 0 0 0.219608 0 0 0 0 0.564706 0 0 0 0.12 0"/>
<feBlend mode="normal" in2="BackgroundImageFix" result="effect1_dropShadow_1335_558"/>
<feBlend mode="normal" in="SourceGraphic" in2="effect1_dropShadow_1335_558" result="shape"/>
</filter>
<filter id="filter4_d_1335_558" x="1.66315" y="9.15139" width="88.1464" height="40.7826" filterUnits="userSpaceOnUse" color-interpolation-filters="sRGB">
<feFlood flood-opacity="0" result="BackgroundImageFix"/>
<feColorMatrix in="SourceAlpha" type="matrix" values="0 0 0 0 0 0 0 0 0 0 0 0 0 0 0 0 0 0 127 0" result="hardAlpha"/>
<feOffset dy="1.84176"/>
<feGaussianBlur stdDeviation="1.38132"/>
<feComposite in2="hardAlpha" operator="out"/>
<feColorMatrix type="matrix" values="0 0 0 0 0.160784 0 0 0 0 0.219608 0 0 0 0 0.564706 0 0 0 0.12 0"/>
<feBlend mode="normal" in2="BackgroundImageFix" result="effect1_dropShadow_1335_558"/>
<feBlend mode="normal" in="SourceGraphic" in2="effect1_dropShadow_1335_558" result="shape"/>
</filter>
<linearGradient id="paint0_linear_1335_558" x1="91.3984" y1="33.1166" x2="106.824" y2="33.1166" gradientUnits="userSpaceOnUse">
<stop stop-color="#F83600"/>
<stop offset="1" stop-color="#F9D423"/>
</linearGradient>
<linearGradient id="paint1_linear_1335_558" x1="124.164" y1="33.1144" x2="108.738" y2="33.1144" gradientUnits="userSpaceOnUse">
<stop stop-color="#F83600"/>
<stop offset="1" stop-color="#F9D423"/>
</linearGradient>
</defs>
</svg>
