<svg width="70" height="70" viewBox="0 0 70 70" fill="none" xmlns="http://www.w3.org/2000/svg">
<circle cx="35" cy="35" r="34.5625" fill="white" stroke="#DEE2E6" stroke-width="0.875"/>
<g clip-path="url(#clip0_1901_409)">
<path d="M35 35.3504C35 32.0978 37.6368 29.4609 40.8894 29.4609C44.142 29.4609 46.7789 32.0978 46.7789 35.3504C46.7789 38.603 44.142 41.2398 40.8894 41.2398C37.6368 41.2398 35 38.603 35 35.3504Z" fill="#1ABCFE"/>
<path d="M23.2227 47.1277C23.2227 43.8751 25.8594 41.2383 29.1121 41.2383H35.0015V47.1277C35.0015 50.3804 32.3647 53.0171 29.1121 53.0171C25.8594 53.0171 23.2227 50.3804 23.2227 47.1277Z" fill="#0ACF83"/>
<path d="M35 17.6816V29.4605H40.8894C44.1421 29.4605 46.7789 26.8237 46.7789 23.5711C46.7789 20.3184 44.1421 17.6816 40.8894 17.6816H35Z" fill="#FF7262"/>
<path d="M23.2227 23.5711C23.2227 26.8237 25.8594 29.4605 29.1121 29.4605H35.0015V17.6816H29.1121C25.8594 17.6816 23.2227 20.3184 23.2227 23.5711Z" fill="#F24E1E"/>
<path d="M23.2227 35.3504C23.2227 38.603 25.8594 41.2398 29.1121 41.2398H35.0015V29.4609H29.1121C25.8594 29.4609 23.2227 32.0978 23.2227 35.3504Z" fill="#A259FF"/>
</g>
<defs>
<clipPath id="clip0_1901_409">
<rect width="23.8" height="35.7" fill="white" transform="translate(23.0996 17.5)"/>
</clipPath>
</defs>
</svg>
