<svg width="64" height="64" viewBox="0 0 64 64" fill="none" xmlns="http://www.w3.org/2000/svg">
<circle cx="32" cy="32" r="32" fill="#3A3A3A"/>
<path d="M42.12 21.8791H32.92V20.0391C32.92 19.7951 32.8231 19.5611 32.6506 19.3886C32.478 19.2161 32.244 19.1191 32 19.1191C31.756 19.1191 31.522 19.2161 31.3495 19.3886C31.177 19.5611 31.08 19.7951 31.08 20.0391V21.8791H21.88C21.392 21.8791 20.924 22.073 20.579 22.4181C20.2339 22.7631 20.04 23.2311 20.04 23.7191V37.5191C20.04 38.0071 20.2339 38.4752 20.579 38.8202C20.924 39.1653 21.392 39.3591 21.88 39.3591H26.411L23.927 42.4641C23.819 42.5991 23.7511 42.7618 23.7313 42.9335C23.7114 43.1053 23.7404 43.2791 23.8148 43.4352C23.8892 43.5912 24.0061 43.7232 24.1521 43.8158C24.298 43.9085 24.4672 43.9582 24.64 43.9591C24.7774 43.9601 24.9131 43.9294 25.0367 43.8696C25.1603 43.8098 25.2685 43.7224 25.353 43.6141L28.757 39.3591H35.243L38.647 43.6141C38.7315 43.7224 38.8398 43.8098 38.9634 43.8696C39.087 43.9294 39.2227 43.9601 39.36 43.9591C39.5329 43.9582 39.702 43.9085 39.848 43.8158C39.994 43.7232 40.1108 43.5912 40.1853 43.4352C40.2597 43.2791 40.2886 43.1053 40.2688 42.9335C40.2489 42.7618 40.1811 42.5991 40.073 42.4641L37.589 39.3591H42.12C42.608 39.3591 43.076 39.1653 43.4211 38.8202C43.7662 38.4752 43.96 38.0071 43.96 37.5191V23.7191C43.96 23.2311 43.7662 22.7631 43.4211 22.4181C43.076 22.073 42.608 21.8791 42.12 21.8791V21.8791Z" fill="white"/>
</svg>
