<svg width="1328" height="85" viewBox="0 0 1328 85" fill="none" xmlns="http://www.w3.org/2000/svg">
<g opacity="0.8">
<g clip-path="url(#clip0_500_2365)">
<path d="M300.588 42.5828C300.121 43.0374 299.763 43.586 299.541 44.1896C299.318 44.7932 299.235 45.4369 299.299 46.0749L299.277 46.0534C299.342 46.8043 299.238 47.56 298.97 48.2677C298.703 48.9755 298.279 49.6182 297.728 50.1511C297.178 50.684 296.514 51.0942 295.782 51.353C295.051 51.6118 294.27 51.713 293.494 51.6497L293.516 51.6711C292.588 51.5875 291.656 51.7829 290.847 52.2308C290.037 52.6787 289.391 53.3573 288.994 54.1739C288.598 54.9905 288.472 55.9056 288.633 56.7941C288.794 57.6827 289.234 58.5016 289.894 59.1393C290.553 59.7768 291.4 60.2021 292.318 60.357C293.237 60.512 294.182 60.3889 295.025 60.0049C295.869 59.6209 296.569 58.9943 297.032 58.2109C297.494 57.4273 297.695 56.525 297.608 55.6269L297.631 55.6483C297.566 54.8974 297.67 54.1417 297.938 53.4339C298.205 52.7262 298.629 52.0834 299.18 51.5506C299.73 51.0177 300.394 50.6076 301.126 50.3488C301.857 50.0899 302.638 49.9887 303.414 50.0521L303.391 50.0306C304.149 50.0966 304.912 49.9763 305.609 49.6808C306.307 49.3854 306.916 48.9244 307.38 48.3405C307.844 47.7567 308.149 47.0689 308.265 46.3408C308.382 45.6128 308.306 44.868 308.046 44.1757C307.786 43.4833 307.349 42.8657 306.777 42.3802C306.204 41.8946 305.514 41.5568 304.771 41.3979C304.027 41.239 303.255 41.2643 302.524 41.4715C301.793 41.6786 301.129 42.0609 300.592 42.5828H300.588Z" fill="white"/>
<path d="M291.5 48.8602L291.477 48.8388C292.136 48.9031 292.802 48.8247 293.427 48.6094C294.051 48.3942 294.618 48.0472 295.087 47.5938C295.556 47.1404 295.915 46.5918 296.138 45.9878C296.361 45.3837 296.442 44.7392 296.376 44.1009L296.4 44.1223C296.334 43.3715 296.439 42.6157 296.706 41.908C296.974 41.2003 297.397 40.5575 297.948 40.0247C298.499 39.4918 299.163 39.0816 299.894 38.8228C300.626 38.5639 301.407 38.4627 302.183 38.5261L302.159 38.5047C303.087 38.589 304.02 38.3942 304.83 37.9468C305.639 37.4994 306.287 36.8212 306.683 36.0047C307.08 35.1882 307.207 34.2731 307.047 33.3843C306.886 32.4955 306.446 31.6762 305.787 31.0382C305.128 30.4002 304.281 29.9746 303.363 29.8193C302.444 29.6641 301.499 29.7868 300.655 30.1707C299.811 30.5546 299.11 31.181 298.648 31.9646C298.186 32.7481 297.984 33.6506 298.071 34.5489L298.049 34.5262C298.115 35.2772 298.011 36.033 297.743 36.7408C297.476 37.4487 297.052 38.0915 296.501 38.6244C295.951 39.1574 295.286 39.5675 294.555 39.8263C293.823 40.085 293.042 40.1861 292.266 40.1224L292.288 40.1451C291.629 40.0808 290.963 40.1591 290.338 40.3745C289.714 40.5897 289.147 40.9367 288.678 41.3901C288.209 41.8435 287.85 42.3921 287.627 42.9961C287.404 43.6003 287.323 44.2447 287.389 44.883L287.367 44.8615C287.432 45.6124 287.327 46.368 287.06 47.0757C286.792 47.7833 286.368 48.426 285.818 48.9588C285.267 49.4917 284.603 49.9018 283.872 50.1607C283.14 50.4196 282.36 50.521 281.584 50.4578L281.606 50.4792C280.678 50.3949 279.745 50.5897 278.935 51.0371C278.126 51.4845 277.478 52.1627 277.082 52.9792C276.685 53.7958 276.558 54.7108 276.718 55.5996C276.879 56.4884 277.319 57.3077 277.978 57.9457C278.637 58.5837 279.484 59.0093 280.402 59.1646C281.321 59.3198 282.266 59.1972 283.11 58.8133C283.954 58.4294 284.655 57.8029 285.117 57.0194C285.579 56.2359 285.781 55.3334 285.694 54.435L285.717 54.4565C285.651 53.7056 285.756 52.9498 286.024 52.2422C286.291 51.5344 286.715 50.8917 287.266 50.3588C287.816 49.8259 288.48 49.4157 289.212 49.1569C289.943 48.8981 290.724 48.7969 291.5 48.8602Z" fill="white"/>
<path d="M283.243 46.4676C283.709 46.0131 284.067 45.4645 284.29 44.8608C284.512 44.2571 284.594 43.6135 284.53 42.9755L284.553 42.997C284.488 42.2459 284.593 41.49 284.86 40.782C285.128 40.0741 285.552 39.4313 286.103 38.8983C286.654 38.3654 287.318 37.9553 288.05 37.6966C288.782 37.438 289.563 37.337 290.339 37.4008L290.315 37.3793C291.243 37.4634 292.176 37.2685 292.985 36.8212C293.794 36.3738 294.441 35.6958 294.838 34.8795C295.234 34.0632 295.361 33.1485 295.2 32.26C295.04 31.3716 294.6 30.5526 293.941 29.9148C293.282 29.2771 292.436 28.8516 291.518 28.6963C290.6 28.541 289.654 28.6636 288.811 29.0473C287.967 29.431 287.267 30.0571 286.804 30.8403C286.342 31.6234 286.141 32.5255 286.228 33.4235L286.205 33.4021C286.271 34.153 286.166 34.9087 285.899 35.6164C285.631 36.3242 285.208 36.9669 284.657 37.4998C284.106 38.0327 283.442 38.4428 282.711 38.7017C281.979 38.9605 281.198 39.0618 280.423 38.9983L280.445 39.0198C279.686 38.954 278.923 39.0745 278.226 39.3701C277.529 39.6656 276.92 40.1267 276.456 40.7107C275.992 41.2946 275.687 41.9824 275.571 42.7104C275.455 43.4385 275.53 44.1832 275.791 44.8754C276.051 45.5676 276.488 46.1851 277.06 46.6706C277.633 47.1562 278.323 47.4939 279.066 47.6527C279.809 47.8115 280.582 47.7861 281.313 47.5789C282.043 47.3718 282.708 46.9895 283.245 46.4676H283.243Z" fill="white"/>
<path d="M321.405 34.5762H325.064V51.8073H321.405V34.5762Z" fill="white"/>
<path d="M327.137 45.9075C327.132 44.6692 327.507 43.4574 328.214 42.4254C328.921 41.3934 329.929 40.5876 331.109 40.1104C332.29 39.633 333.591 39.5056 334.846 39.7442C336.102 39.9827 337.256 40.5764 338.163 41.4503C339.069 42.3241 339.688 43.4387 339.939 44.6529C340.191 45.867 340.064 47.1261 339.576 48.2706C339.087 49.4151 338.259 50.3936 337.195 51.082C336.132 51.7705 334.881 52.138 333.601 52.138C332.752 52.1474 331.909 51.9929 331.122 51.6834C330.335 51.3739 329.62 50.9157 329.018 50.3356C328.416 49.7555 327.94 49.0652 327.617 48.3048C327.294 47.5445 327.131 46.7296 327.137 45.9075ZM336.406 45.9075C336.391 45.3738 336.214 44.8563 335.896 44.4195C335.579 43.9829 335.135 43.6466 334.621 43.4525C334.107 43.2584 333.545 43.2153 333.006 43.3285C332.467 43.4418 331.974 43.7063 331.589 44.089C331.204 44.4718 330.945 44.9558 330.843 45.4805C330.741 46.0053 330.801 46.5475 331.016 47.0394C331.23 47.5313 331.59 47.951 332.05 48.2461C332.51 48.5411 333.049 48.6986 333.601 48.6985C333.979 48.7083 334.355 48.6422 334.705 48.5043C335.055 48.3666 335.372 48.16 335.636 47.8978C335.899 47.6355 336.104 47.3234 336.236 46.9808C336.369 46.6383 336.427 46.2728 336.406 45.9075Z" fill="white"/>
<path d="M354.649 40.0054V51.2123C354.649 55.1776 351.453 56.8539 348.209 56.8539C347.067 56.9366 345.924 56.7133 344.904 56.2086C343.884 55.7038 343.028 54.9371 342.429 53.9925L345.551 52.2459C345.803 52.7383 346.204 53.1446 346.701 53.4102C347.198 53.6759 347.767 53.7883 348.331 53.7326C348.692 53.781 349.06 53.7502 349.407 53.6426C349.754 53.535 350.072 53.3531 350.336 53.1107C350.601 52.8683 350.806 52.5713 350.936 52.2419C351.066 51.9125 351.118 51.5589 351.087 51.2075V50.1286C350.659 50.6359 350.114 51.039 349.495 51.3054C348.877 51.5719 348.202 51.6943 347.526 51.6629C345.917 51.6139 344.39 50.9607 343.27 49.8417C342.149 48.7228 341.523 47.2259 341.523 45.6679C341.523 44.1099 342.149 42.6129 343.27 41.4939C344.39 40.3751 345.917 39.7219 347.526 39.6728C348.202 39.6414 348.877 39.7639 349.495 40.0303C350.114 40.2968 350.659 40.6999 351.087 41.2072V40.003L354.649 40.0054ZM351.089 45.6697C351.113 45.099 350.961 44.5343 350.651 44.0482C350.341 43.5621 349.888 43.1769 349.35 42.942C348.812 42.7073 348.214 42.6337 347.632 42.7307C347.05 42.8278 346.512 43.091 346.086 43.4866C345.661 43.8823 345.367 44.3921 345.243 44.9505C345.12 45.509 345.171 46.0905 345.392 46.6203C345.613 47.1499 345.992 47.6036 346.482 47.9229C346.971 48.2422 347.548 48.4124 348.138 48.4118C348.522 48.4377 348.908 48.3854 349.271 48.2584C349.633 48.1313 349.964 47.9322 350.242 47.6739C350.52 47.4155 350.739 47.1037 350.884 46.7585C351.03 46.4134 351.1 46.0425 351.089 45.6697Z" fill="white"/>
<path d="M356.721 45.9075C356.716 44.6692 357.091 43.4574 357.798 42.4254C358.505 41.3934 359.513 40.5876 360.693 40.1104C361.874 39.633 363.175 39.5056 364.43 39.7442C365.686 39.9827 366.84 40.5764 367.747 41.4503C368.654 42.3241 369.272 43.4387 369.523 44.6529C369.775 45.867 369.648 47.1261 369.16 48.2706C368.671 49.4151 367.843 50.3936 366.779 51.082C365.716 51.7705 364.465 52.138 363.185 52.138C362.336 52.1474 361.493 51.9929 360.706 51.6834C359.919 51.3739 359.204 50.9157 358.602 50.3356C358 49.7555 357.524 49.0652 357.201 48.3048C356.878 47.5445 356.715 46.7296 356.721 45.9075ZM365.99 45.9075C365.975 45.3738 365.798 44.8563 365.48 44.4195C365.163 43.9829 364.719 43.6466 364.205 43.4525C363.691 43.2584 363.129 43.2153 362.59 43.3285C362.051 43.4418 361.558 43.7063 361.173 44.089C360.789 44.4718 360.529 44.9558 360.427 45.4805C360.325 46.0053 360.385 46.5475 360.6 47.0394C360.814 47.5313 361.174 47.951 361.634 48.2461C362.094 48.5411 362.633 48.6986 363.185 48.6985C363.563 48.7083 363.939 48.6422 364.289 48.5043C364.639 48.3666 364.956 48.16 365.22 47.8978C365.483 47.6355 365.688 47.3234 365.82 46.9808C365.953 46.6383 366.011 46.2728 365.99 45.9075Z" fill="white"/>
<path d="M371.356 36.8423C371.356 36.4221 371.485 36.0114 371.726 35.662C371.967 35.3126 372.31 35.0403 372.712 34.8795C373.113 34.7187 373.554 34.6766 373.98 34.7586C374.406 34.8406 374.797 35.0429 375.104 35.34C375.411 35.6372 375.62 36.0157 375.704 36.4278C375.789 36.8399 375.746 37.2671 375.579 37.6553C375.414 38.0436 375.132 38.3753 374.771 38.6087C374.41 38.8422 373.986 38.9669 373.551 38.9669C372.971 38.9612 372.416 38.7356 372.006 38.3384C371.595 37.9412 371.362 37.404 371.356 36.8423ZM371.726 40.0053H375.386V51.8082H371.721L371.726 40.0053Z" fill="white"/>
<path d="M391.184 45.9072C391.226 46.6873 391.109 47.4677 390.839 48.2036C390.569 48.9396 390.15 49.6166 389.608 50.1956C389.066 50.7746 388.411 51.2443 387.682 51.5775C386.952 51.9109 386.161 52.1012 385.354 52.1377C384.677 52.1735 383.999 52.0629 383.37 51.8138C382.742 51.5646 382.178 51.1834 381.722 50.6975V56.5287H378.062V40.0058H381.722V41.1145C382.179 40.629 382.742 40.248 383.371 39.9992C383.999 39.7502 384.677 39.6398 385.354 39.6755C386.161 39.7118 386.952 39.9022 387.682 40.2354C388.412 40.5688 389.067 41.0385 389.609 41.6177C390.151 42.1969 390.57 42.8741 390.84 43.6102C391.11 44.3464 391.227 45.127 391.184 45.9072ZM387.525 45.9072C387.512 45.3549 387.329 44.8188 387.001 44.3662C386.674 43.9136 386.215 43.5646 385.684 43.3628C385.152 43.1609 384.571 43.1153 384.013 43.2316C383.455 43.3479 382.945 43.6209 382.545 44.0165C382.147 44.4121 381.878 44.9127 381.771 45.4557C381.666 45.9986 381.727 46.5598 381.949 47.0689C382.171 47.578 382.543 48.0126 383.019 48.3181C383.495 48.6236 384.053 48.7865 384.624 48.7864C385.016 48.8033 385.407 48.7398 385.772 48.6001C386.137 48.4604 386.467 48.2477 386.741 47.9758C387.016 47.7039 387.227 47.3791 387.362 47.0226C387.497 46.6661 387.553 46.2861 387.525 45.9072Z" fill="white"/>
<path d="M402.475 48.2666C402.475 50.9812 400.037 52.1377 397.403 52.1377C396.339 52.231 395.27 52.0132 394.335 51.5124C393.4 51.0117 392.642 50.2511 392.159 49.3288L395.328 47.5823C395.457 48.0085 395.732 48.3793 396.109 48.6328C396.486 48.8862 396.94 49.0069 397.398 48.9747C398.276 48.9747 398.715 48.7149 398.715 48.2439C398.715 46.9444 392.714 47.63 392.714 43.5466C392.714 40.9726 394.959 39.6754 397.496 39.6754C398.449 39.6463 399.393 39.8652 400.23 40.3093C401.066 40.7535 401.764 41.4065 402.251 42.2006L399.129 43.8291C398.992 43.5199 398.764 43.2567 398.474 43.072C398.183 42.8874 397.843 42.7895 397.496 42.7907C396.861 42.7907 396.47 43.0291 396.47 43.4512C396.475 44.7972 402.475 43.8995 402.475 48.2666Z" fill="white"/>
<path d="M415.843 40.0059V51.8088H412.183V50.6988C411.762 51.1886 411.226 51.5745 410.62 51.8249C410.014 52.0752 409.355 52.1829 408.697 52.139C406.233 52.139 404.139 50.4401 404.139 47.2509V40.0059H407.798V46.7324C407.768 47.0135 407.8 47.2976 407.895 47.5651C407.989 47.8326 408.142 48.077 408.345 48.2812C408.547 48.4855 408.792 48.6447 409.064 48.7478C409.336 48.8509 409.628 48.8955 409.919 48.8783C411.261 48.8783 412.187 48.1237 412.187 46.4475V40.0094L415.843 40.0059Z" fill="white"/>
<path d="M436.823 44.5617V51.808H433.164V44.8681C433.164 43.6878 432.578 42.9332 431.408 42.9332C430.189 42.9332 429.505 43.7593 429.505 45.1519V51.808H425.847V44.8681C425.847 43.6878 425.262 42.9332 424.09 42.9332C422.87 42.9332 422.188 43.7593 422.188 45.1519V51.808H418.529V40.0051H422.188V41.09C422.568 40.6086 423.066 40.227 423.637 39.9797C424.208 39.7326 424.833 39.6277 425.457 39.6748C426.083 39.6452 426.706 39.7731 427.266 40.0459C427.826 40.3188 428.303 40.7274 428.652 41.2319C429.057 40.7041 429.593 40.2844 430.212 40.0121C430.831 39.7398 431.51 39.6238 432.188 39.6748C434.988 39.676 436.823 41.611 436.823 44.5617Z" fill="white"/>
<path d="M439.919 39.933C441.418 39.933 442.634 38.7566 442.634 37.3054C442.634 35.8542 441.418 34.6777 439.919 34.6777C438.419 34.6777 437.203 35.8542 437.203 37.3054C437.203 38.7566 438.419 39.933 439.919 39.933Z" fill="white"/>
</g>
<g clip-path="url(#clip1_500_2365)">
<path d="M538.335 36.3057H541.574V51.4675H538.335V36.3057Z" fill="white"/>
<path d="M543.388 46.2742C543.388 45.1833 543.722 44.1171 544.346 43.2105C544.97 42.304 545.858 41.5979 546.895 41.1819C547.933 40.7659 549.075 40.6587 550.175 40.8738C551.276 41.089 552.286 41.6167 553.077 42.3903C553.869 43.1638 554.406 44.1483 554.621 45.2189C554.836 46.2896 554.719 47.3981 554.285 48.4042C553.851 49.4102 553.12 50.2683 552.183 50.8698C551.247 51.4713 550.147 51.7891 549.025 51.7829C548.28 51.7885 547.542 51.6496 546.853 51.3744C546.165 51.0992 545.54 50.6931 545.015 50.1801C544.49 49.667 544.075 49.0572 543.796 48.3865C543.517 47.7158 543.378 46.9976 543.388 46.2742ZM551.508 46.2742C551.496 45.8039 551.34 45.3477 551.062 44.9627C550.784 44.5776 550.395 44.2808 549.945 44.1093C549.494 43.9379 549.001 43.8995 548.528 43.9987C548.054 44.098 547.622 44.3307 547.284 44.6676C546.946 45.0046 546.718 45.4309 546.628 45.8931C546.538 46.3553 546.591 46.8331 546.779 47.2666C546.967 47.7001 547.282 48.07 547.686 48.3302C548.089 48.5905 548.562 48.7293 549.046 48.7295C549.376 48.7357 549.703 48.6758 550.008 48.5536C550.313 48.4312 550.588 48.2492 550.817 48.0188C551.046 47.7884 551.224 47.5145 551.339 47.2143C551.454 46.9141 551.505 46.5941 551.487 46.2742H551.508Z" fill="white"/>
<path d="M567.478 41.0807V50.9543C567.478 54.4378 564.671 55.9173 561.831 55.9173C560.829 55.9972 559.824 55.8038 558.93 55.359C558.035 54.914 557.286 54.2353 556.767 53.3991L559.498 51.8672C559.72 52.3009 560.072 52.6587 560.508 52.8931C560.944 53.1274 561.443 53.227 561.939 53.1788C562.255 53.2165 562.575 53.1861 562.877 53.0895C563.18 52.9929 563.456 52.8327 563.687 52.6201C563.918 52.4076 564.098 52.148 564.214 51.86C564.33 51.572 564.379 51.2628 564.358 50.9543V49.9994C563.981 50.4436 563.502 50.7962 562.961 51.0294C562.419 51.2625 561.829 51.3697 561.237 51.3425C559.805 51.3425 558.432 50.7898 557.419 49.8059C556.407 48.822 555.838 47.4876 555.838 46.0962C555.838 44.7048 556.407 43.3704 557.419 42.3865C558.432 41.4026 559.805 40.8498 561.237 40.8498C561.829 40.8227 562.419 40.9299 562.961 41.163C563.502 41.3961 563.981 41.7488 564.358 42.1929V41.1437L567.478 41.0807ZM564.358 46.0647C564.379 45.5627 564.246 45.066 563.974 44.6382C563.703 44.2106 563.306 43.8715 562.835 43.6647C562.364 43.4579 561.839 43.3928 561.33 43.4778C560.82 43.5629 560.348 43.794 559.975 44.1416C559.602 44.4893 559.344 44.9375 559.235 45.4286C559.126 45.9198 559.171 46.4314 559.363 46.8977C559.556 47.364 559.887 47.7636 560.316 48.0452C560.744 48.3268 561.249 48.4776 561.766 48.4781C562.103 48.5016 562.442 48.4562 562.76 48.3447C563.079 48.2332 563.369 48.0581 563.613 47.8307C563.858 47.6032 564.05 47.3286 564.178 47.0244C564.306 46.7202 564.368 46.3933 564.358 46.0647Z" fill="white"/>
<path d="M569.303 46.2743C569.303 45.1843 569.636 44.1189 570.259 43.2128C570.883 42.3066 571.769 41.6005 572.805 41.184C573.842 40.7673 574.982 40.6588 576.082 40.8723C577.182 41.0857 578.192 41.6114 578.984 42.3828C579.777 43.1543 580.316 44.1367 580.533 45.206C580.751 46.2753 580.637 47.3832 580.206 48.3896C579.776 49.396 579.047 50.2556 578.114 50.8596C577.18 51.4637 576.083 51.785 574.961 51.7829C574.215 51.7899 573.475 51.6521 572.785 51.3777C572.094 51.1032 571.467 50.6976 570.94 50.1845C570.413 49.6714 569.997 49.0613 569.716 48.3898C569.435 47.7184 569.294 46.9991 569.303 46.2743ZM577.423 46.2743C577.411 45.8035 577.255 45.3469 576.976 44.9617C576.698 44.5765 576.308 44.2796 575.857 44.1085C575.405 43.9374 574.912 43.8995 574.439 43.9996C573.965 44.0998 573.532 44.3335 573.195 44.6715C572.858 45.0094 572.63 45.4367 572.542 45.8996C572.453 46.3625 572.507 46.8407 572.697 47.274C572.886 47.7072 573.204 48.0765 573.608 48.3354C574.013 48.5943 574.487 48.7315 574.972 48.7296C575.302 48.7358 575.629 48.6759 575.934 48.5536C576.239 48.4313 576.514 48.2493 576.743 48.0188C576.972 47.7884 577.15 47.5145 577.265 47.2144C577.38 46.9142 577.43 46.5942 577.412 46.2743H577.423Z" fill="white"/>
<path d="M582.121 38.2993C582.121 37.9299 582.233 37.5689 582.445 37.2617C582.656 36.9546 582.956 36.7151 583.307 36.5738C583.658 36.4325 584.045 36.3955 584.418 36.4675C584.79 36.5396 585.133 36.7175 585.402 36.9787C585.671 37.2399 585.854 37.5727 585.928 37.935C586.002 38.2972 585.964 38.6728 585.818 39.014C585.673 39.3554 585.427 39.6471 585.111 39.8523C584.794 40.0575 584.423 40.167 584.043 40.167C583.535 40.1616 583.049 39.9631 582.69 39.6139C582.331 39.2649 582.126 38.793 582.121 38.2993ZM582.434 41.0799H585.673V51.4676H582.434V41.0799Z" fill="white"/>
<path d="M599.539 46.2738C599.575 46.9647 599.471 47.6557 599.231 48.307C598.992 48.9584 598.621 49.5574 598.142 50.0693C597.664 50.5813 597.086 50.9963 596.441 51.2903C595.797 51.5843 595.099 51.7515 594.388 51.7825C593.785 51.8215 593.18 51.7276 592.619 51.5078C592.058 51.2879 591.555 50.9479 591.149 50.5129V55.6438H587.909V41.08H591.149V42.0558C591.556 41.6221 592.059 41.2836 592.62 41.0655C593.181 40.8475 593.786 40.7556 594.388 40.7966C595.096 40.8276 595.791 40.9939 596.434 41.286C597.076 41.578 597.652 41.9901 598.13 42.4987C598.609 43.0073 598.98 43.6025 599.221 44.2502C599.463 44.898 599.57 45.5856 599.539 46.2738ZM596.299 46.2738C596.286 45.7865 596.126 45.3136 595.838 44.9146C595.55 44.5155 595.147 44.208 594.68 44.0305C594.212 43.853 593.701 43.8135 593.211 43.9169C592.721 44.0203 592.273 44.262 591.924 44.6117C591.574 44.9615 591.338 45.4036 591.246 45.8828C591.155 46.3621 591.21 46.857 591.406 47.3057C591.603 47.7543 591.931 48.1366 592.35 48.4048C592.769 48.673 593.26 48.8149 593.762 48.813C594.106 48.8272 594.448 48.7706 594.768 48.6471C595.088 48.5235 595.376 48.3356 595.616 48.0958C595.856 47.8561 596.041 47.5698 596.158 47.2558C596.275 46.9419 596.324 46.6072 596.299 46.2738Z" fill="white"/>
<path d="M609.396 48.3513C609.396 50.7436 607.237 51.7614 604.948 51.7614C604.014 51.843 603.077 51.6507 602.256 51.2093C601.437 50.7678 600.771 50.0976 600.348 49.2851L603.134 47.7532C603.244 48.1276 603.483 48.4538 603.812 48.6772C604.14 48.9008 604.537 49.0079 604.937 48.9808C605.703 48.9808 606.092 48.75 606.092 48.3302C606.092 47.1866 600.834 47.7952 600.834 44.1962C600.834 41.9298 602.799 40.7965 605.024 40.7965C605.869 40.7598 606.709 40.9461 607.455 41.336C608.199 41.7258 608.822 42.3044 609.256 43.0105L606.47 44.4375C606.348 44.1668 606.146 43.9366 605.891 43.7745C605.636 43.6125 605.338 43.5257 605.035 43.5247C604.473 43.5247 604.138 43.7345 604.138 44.1017C604.138 45.2979 609.396 44.5109 609.396 48.3513Z" fill="white"/>
<path d="M621.134 41.0801V51.4679H617.895V50.492C617.526 50.9239 617.059 51.2658 616.53 51.49C616.002 51.7142 615.426 51.8144 614.849 51.7826C612.69 51.7826 610.843 50.2822 610.843 47.4807V41.0801H614.083V47.0084C614.057 47.2563 614.088 47.5066 614.171 47.742C614.255 47.9774 614.391 48.1923 614.568 48.3718C614.746 48.5514 614.962 48.6914 615.2 48.7821C615.439 48.8728 615.695 48.912 615.951 48.8971C617.117 48.8971 617.937 48.2256 617.937 46.7986V41.0801H621.134Z" fill="white"/>
<path d="M639.49 45.0883V51.4679H636.251V45.3612C636.251 44.3119 635.743 43.6614 634.717 43.6614C633.691 43.6614 633.044 44.3853 633.044 45.613V51.4679H629.804V45.3612C629.804 44.3119 629.297 43.6614 628.271 43.6614C627.245 43.6614 626.597 44.3853 626.597 45.613V51.4679H623.357V41.0801H626.597V42.035C626.932 41.6131 627.37 41.2791 627.872 41.0629C628.374 40.8468 628.922 40.7553 629.47 40.7968C630.017 40.7691 630.563 40.8802 631.053 41.1193C631.543 41.3585 631.962 41.7174 632.266 42.1609C632.621 41.6976 633.093 41.3295 633.635 41.0909C634.177 40.8524 634.772 40.7512 635.365 40.7968C637.892 40.7968 639.49 42.4967 639.49 45.0883Z" fill="white"/>
<path d="M519.038 33.5775V29.1182H504.568V59.7568H519.038V55.2974C516.074 55.2974 513.231 54.1532 511.135 52.1166C509.039 50.08 507.862 47.3177 507.862 44.4375C507.862 41.5572 509.039 38.795 511.135 36.7584C513.231 34.7217 516.074 33.5775 519.038 33.5775Z" fill="white"/>
<path d="M519.039 33.5781V55.2979C522.003 55.2979 524.846 54.1538 526.942 52.1171C529.038 50.0805 530.215 47.3183 530.215 44.438C530.215 41.5578 529.038 38.7955 526.942 36.7589C524.846 34.7223 522.003 33.5781 519.039 33.5781Z" fill="white"/>
<path d="M642.212 41.0172C643.524 41.0172 644.588 39.9836 644.588 38.7088C644.588 37.4339 643.524 36.4004 642.212 36.4004C640.9 36.4004 639.836 37.4339 639.836 38.7088C639.836 39.9836 640.9 41.0172 642.212 41.0172Z" fill="white"/>
</g>
<path d="M778.264 37.8468H781.773V51.5049H778.264V37.8468ZM783.165 46.3479C783.165 42.97 785.318 40.9545 788.64 40.9545C791.962 40.9545 794.114 42.97 794.114 46.3479C794.114 49.7259 792.009 51.7527 788.64 51.7527C785.271 51.7527 783.165 49.7822 783.165 46.3479ZM790.593 46.3479C790.593 44.4901 789.833 43.3979 788.64 43.3979C787.446 43.3979 786.698 44.5239 786.698 46.3479C786.698 48.172 787.435 49.2755 788.64 49.2755C789.845 49.2755 790.593 48.2396 790.593 46.3592V46.3479ZM795.436 52.1693H798.805C798.966 52.5121 799.237 52.796 799.578 52.9786C799.92 53.1612 800.313 53.2328 800.7 53.1826C802.034 53.1826 802.736 52.4846 802.736 51.4712V49.5795H802.666C802.386 50.1593 801.932 50.6451 801.363 50.9743C800.794 51.3034 800.135 51.4608 799.472 51.4262C796.91 51.4262 795.214 49.5457 795.214 46.3142C795.214 43.0826 796.828 41.0446 799.519 41.0446C800.203 41.0188 800.878 41.1948 801.455 41.5489C802.032 41.9032 802.483 42.4186 802.747 43.0263V41.1459H806.257V51.3923C806.257 53.8583 803.999 55.3896 800.665 55.3896C797.565 55.3896 795.635 54.0496 795.436 52.1806V52.1693ZM802.747 46.3367C802.747 44.6928 801.964 43.6568 800.724 43.6568C799.484 43.6568 798.723 44.6815 798.723 46.3367C798.723 47.9919 799.472 48.9264 800.724 48.9264C801.975 48.9264 802.747 48.0144 802.747 46.3479V46.3367ZM807.579 46.3367C807.579 42.9587 809.731 40.9432 813.053 40.9432C816.375 40.9432 818.54 42.9587 818.54 46.3367C818.54 49.7146 816.434 51.7414 813.053 51.7414C809.673 51.7414 807.579 49.7822 807.579 46.3479V46.3367ZM815.007 46.3367C815.007 44.4788 814.246 43.3866 813.053 43.3866C811.86 43.3866 811.17 44.5239 811.17 46.3592C811.17 48.1945 811.907 49.2868 813.1 49.2868C814.293 49.2868 815.007 48.2396 815.007 46.3592V46.3367ZM819.873 38.6912C819.864 38.3503 819.96 38.0143 820.15 37.7259C820.339 37.4376 820.613 37.2098 820.937 37.0716C821.261 36.9333 821.621 36.8908 821.97 36.9494C822.319 37.0081 822.642 37.1651 822.899 37.4008C823.155 37.6364 823.333 37.94 823.41 38.2731C823.486 38.6061 823.459 38.9536 823.33 39.2716C823.202 39.5895 822.978 39.8635 822.687 40.0589C822.397 40.2543 822.052 40.3622 821.698 40.369C821.463 40.3845 821.227 40.3531 821.006 40.2768C820.784 40.2005 820.581 40.0808 820.41 39.9254C820.238 39.7699 820.102 39.5821 820.01 39.3736C819.918 39.165 819.871 38.9404 819.873 38.7138V38.6912ZM819.873 41.1684H823.383V51.5049H819.873V41.1684ZM836.122 46.3367C836.122 49.7146 834.566 51.64 831.899 51.64C831.215 51.6824 830.534 51.5214 829.948 51.1791C829.362 50.8368 828.9 50.3295 828.623 49.7259H828.553V54.8153H825.044V41.1459H828.553V42.9925H828.623C828.887 42.379 829.341 41.8585 829.923 41.5019C830.504 41.1454 831.187 40.9699 831.875 40.9995C834.566 41.0446 836.168 42.9813 836.168 46.3592L836.122 46.3367ZM832.613 46.3367C832.613 44.6928 831.828 43.6456 830.6 43.6456C829.372 43.6456 828.588 44.704 828.576 46.3367C828.565 47.9694 829.372 49.0166 830.6 49.0166C831.828 49.0166 832.613 47.9919 832.613 46.3592V46.3367ZM842.146 40.932C845.058 40.932 846.826 42.2607 846.907 44.3888H843.713C843.713 43.6568 843.082 43.1952 842.111 43.1952C841.14 43.1952 840.707 43.5555 840.707 44.0848C840.707 44.6139 841.094 44.7828 841.877 44.9405L844.123 45.3796C846.264 45.8187 847.176 46.652 847.176 48.2171C847.176 50.3565 845.152 51.7302 842.169 51.7302C839.186 51.7302 837.233 50.3565 837.081 48.2509H840.461C840.567 49.0166 841.199 49.4669 842.228 49.4669C843.257 49.4669 843.725 49.1404 843.725 48.6C843.725 48.0594 843.398 47.9469 842.556 47.7779L840.532 47.3614C838.438 46.9448 837.338 45.8751 837.338 44.2987C837.362 42.2719 839.245 40.9545 842.146 40.9545V40.932ZM858.886 51.4824H855.505V49.557H855.435C855.249 50.2034 854.839 50.7693 854.273 51.1605C853.707 51.5517 853.019 51.7448 852.323 51.7076C851.79 51.7368 851.257 51.6555 850.759 51.4692C850.261 51.2828 849.81 50.9959 849.438 50.6276C849.066 50.2593 848.78 49.8184 848.599 49.3345C848.418 48.8507 848.348 48.3352 848.393 47.823V41.1459H851.902V47.0461C851.902 48.2734 852.558 48.9264 853.645 48.9264C853.901 48.927 854.152 48.875 854.385 48.7739C854.618 48.6729 854.825 48.5253 854.993 48.3408C855.162 48.1563 855.287 47.9393 855.361 47.7044C855.436 47.4695 855.457 47.2219 855.424 46.9785V41.1459H858.933L858.886 51.4824ZM860.582 41.1459H863.975V43.1389H864.045C864.231 42.501 864.632 41.9406 865.184 41.5453C865.736 41.15 866.409 40.9423 867.098 40.9545C867.798 40.9006 868.493 41.1023 869.046 41.5195C869.599 41.9368 869.968 42.5391 870.081 43.2064H870.151C870.363 42.532 870.803 41.9446 871.4 41.5368C871.997 41.1291 872.718 40.9242 873.45 40.9545C873.927 40.9391 874.402 41.0205 874.845 41.1934C875.287 41.3663 875.686 41.6269 876.017 41.9582C876.348 42.2896 876.604 42.6842 876.766 43.1165C876.928 43.5488 876.994 44.0091 876.959 44.4676V51.5049H873.45V45.3683C873.45 44.2424 872.923 43.7244 871.941 43.7244C871.722 43.7226 871.504 43.7661 871.304 43.8519C871.104 43.9377 870.925 44.0638 870.78 44.2217C870.635 44.3797 870.527 44.5658 870.462 44.7675C870.398 44.9691 870.379 45.1817 870.408 45.3909V51.5049H867.075V45.3233C867.075 44.2874 866.548 43.7244 865.589 43.7244C865.367 43.7245 865.148 43.7698 864.946 43.8573C864.744 43.9448 864.564 44.0727 864.416 44.2322C864.269 44.3919 864.159 44.5796 864.092 44.7832C864.027 44.9868 864.007 45.2016 864.033 45.4134V51.5049H860.523L860.582 41.1459Z" fill="white"/>
<path d="M768.449 38.4662C767.854 37.156 767.066 35.935 766.109 34.8406C764.696 33.1746 762.931 31.8155 760.933 30.8531C758.934 29.8906 756.746 29.3465 754.513 29.2565C752.28 29.1665 750.053 29.5327 747.978 30.3311C745.902 31.1294 744.026 32.3417 742.473 33.8882C740.919 35.4347 739.724 37.2803 738.965 39.3037C738.206 41.327 737.9 43.4821 738.069 45.6271C738.238 47.7721 738.876 49.8585 739.943 51.7488C741.01 53.6392 742.48 55.2907 744.258 56.5946C745.398 57.4479 746.658 58.1417 748.001 58.6551C749.883 59.3976 751.898 59.78 753.932 59.7811C758.131 59.7722 762.155 58.1612 765.121 55.3012C768.088 52.4413 769.756 48.5657 769.759 44.524C769.762 42.4393 769.316 40.3766 768.449 38.4662ZM753.92 32.3522C755.747 32.352 757.551 32.7363 759.208 33.4782C758.804 33.6461 758.379 33.7635 757.944 33.8272C756.513 34.0266 755.187 34.6662 754.165 35.6504C753.142 36.6346 752.478 37.9107 752.271 39.2883C752.18 40.0608 751.815 40.7795 751.237 41.3231C750.66 41.8667 749.905 42.2019 749.101 42.2721C747.669 42.4715 746.344 43.111 745.321 44.0952C744.299 45.0795 743.634 46.3556 743.427 47.7331C743.357 48.4677 743.031 49.158 742.503 49.6923C741.591 47.8382 741.182 45.7921 741.312 43.7446C741.443 41.6971 742.11 39.7147 743.25 37.9818C744.391 36.249 745.969 34.8221 747.836 33.8338C749.704 32.8456 751.801 32.3281 753.932 32.3297L753.92 32.3522ZM744.246 52.406C744.386 52.2821 744.527 52.1694 744.667 52.0343C745.708 51.0631 746.376 49.7811 746.562 48.3974C746.638 47.6197 746.998 46.8932 747.58 46.3481C748.139 45.7876 748.892 45.4432 749.697 45.3798C751.128 45.1804 752.454 44.5408 753.477 43.5566C754.499 42.5725 755.164 41.2963 755.371 39.9188C755.421 39.1053 755.784 38.3389 756.388 37.7682C756.962 37.2185 757.722 36.8866 758.529 36.8336C759.844 36.6595 761.07 36.0969 762.038 35.2235C763.141 36.1041 764.075 37.1634 764.799 38.3537C764.755 38.4115 764.704 38.4644 764.647 38.5113C764.089 39.0768 763.337 39.4287 762.53 39.5022C761.097 39.6981 759.769 40.3366 758.746 41.3214C757.723 42.3062 757.06 43.5843 756.856 44.9632C756.774 45.7383 756.416 46.4622 755.842 47.0122C755.269 47.5622 754.515 47.9044 753.71 47.9808C752.274 48.1787 750.944 48.817 749.915 49.8008C748.887 50.7846 748.215 52.0615 748.001 53.4418C747.938 53.9921 747.742 54.5206 747.428 54.9845C746.228 54.2985 745.153 53.4274 744.246 52.406ZM753.92 56.7522C752.733 56.7534 751.552 56.5942 750.411 56.2793C750.801 55.579 751.055 54.8157 751.159 54.0273C751.241 53.2539 751.598 52.5314 752.169 51.9816C752.74 51.4319 753.491 51.0886 754.294 51.0097C755.728 50.8126 757.056 50.174 758.081 49.1896C759.106 48.2052 759.772 46.9278 759.98 45.5487C760.062 44.7753 760.418 44.0527 760.989 43.503C761.561 42.9533 762.311 42.61 763.115 42.531C764.193 42.396 765.221 42.0095 766.109 41.4051C766.603 43.2043 766.661 45.0884 766.28 46.9126C765.899 48.737 765.09 50.4531 763.913 51.9294C762.736 53.4056 761.223 54.6029 759.491 55.4291C757.759 56.2553 755.853 56.6887 753.92 56.6959V56.7522Z" fill="white"/>
<g clip-path="url(#clip2_500_2365)">
<path d="M1017.1 53.9924C1016.29 54.0342 1015.5 53.8151 1014.84 53.3707C1014.57 53.1754 1014.35 52.9189 1014.2 52.6233C1014.05 52.3276 1013.98 52.0019 1013.99 51.6741V39.6682C1013.98 39.6173 1013.99 39.5657 1014.01 39.5173C1014.02 39.4689 1014.05 39.4249 1014.09 39.3887C1014.13 39.3525 1014.17 39.325 1014.22 39.3083C1014.27 39.2917 1014.33 39.2863 1014.38 39.2926H1016.65C1016.91 39.2926 1017.03 39.4221 1017.03 39.6682V50.7416C1017.03 51.2338 1017.26 51.4798 1017.73 51.4798C1017.93 51.4878 1018.13 51.4659 1018.33 51.4151C1018.6 51.4151 1018.75 51.4928 1018.76 51.7259L1018.96 53.3448C1018.97 53.392 1018.97 53.4407 1018.96 53.4875C1018.95 53.5344 1018.93 53.5782 1018.9 53.6163C1018.86 53.6543 1018.83 53.6857 1018.78 53.7081C1018.74 53.7305 1018.69 53.7436 1018.64 53.7464C1018.14 53.9038 1017.62 53.9868 1017.1 53.9924Z" fill="white"/>
<path d="M1029.87 52.6072C1028.73 53.5105 1027.29 54.0046 1025.81 54.0046C1024.33 54.0046 1022.9 53.5105 1021.76 52.6072C1020.76 51.6371 1020.19 50.3268 1020.19 48.9613C1020.19 47.5959 1020.76 46.2856 1021.76 45.3155C1022.9 44.4169 1024.34 43.9258 1025.81 43.9258C1027.29 43.9258 1028.72 44.4169 1029.87 45.3155C1030.85 46.2946 1031.39 47.5985 1031.39 48.9549C1031.39 50.3113 1030.85 51.6152 1029.87 52.5943V52.6072ZM1023.89 50.8975C1024.42 51.3572 1025.11 51.6118 1025.83 51.6118C1026.54 51.6118 1027.23 51.3572 1027.76 50.8975C1028.24 50.3697 1028.5 49.6934 1028.5 48.9938C1028.5 48.294 1028.24 47.6179 1027.76 47.0899C1027.23 46.6303 1026.54 46.3757 1025.83 46.3757C1025.11 46.3757 1024.42 46.6303 1023.89 47.0899C1023.42 47.6179 1023.15 48.294 1023.15 48.9938C1023.15 49.6934 1023.42 50.3697 1023.89 50.8975Z" fill="white"/>
<path d="M1043.89 44.2522C1044.15 44.2522 1044.27 44.3818 1044.27 44.6279V53.9139C1044.29 54.5407 1044.17 55.1646 1043.91 55.7404C1043.65 56.3162 1043.26 56.8292 1042.77 57.2425C1041.68 58.1355 1040.27 58.5982 1038.84 58.5376C1037.54 58.5813 1036.27 58.2422 1035.18 57.5663C1034.71 57.2738 1034.32 56.893 1034.01 56.4474C1033.71 56.0019 1033.5 55.501 1033.41 54.976C1033.41 54.7169 1033.41 54.6004 1033.77 54.6004H1036.04C1036.14 54.6036 1036.23 54.6333 1036.31 54.6862C1036.39 54.739 1036.45 54.8127 1036.49 54.8983C1036.64 55.2917 1036.93 55.6191 1037.31 55.8178C1037.78 56.049 1038.3 56.1647 1038.83 56.1546C1039.14 56.1713 1039.46 56.1271 1039.76 56.0248C1040.06 55.9225 1040.33 55.7642 1040.57 55.5588C1040.78 55.344 1040.95 55.0899 1041.06 54.8116C1041.17 54.5334 1041.22 54.2368 1041.2 53.9399V53.124C1040.39 53.697 1039.4 53.9932 1038.39 53.9658C1037.69 53.9904 1036.98 53.878 1036.32 53.6354C1035.66 53.3929 1035.06 53.0251 1034.56 52.554C1033.58 51.5881 1033.04 50.2971 1033.04 48.9536C1033.04 47.61 1033.58 46.3191 1034.56 45.3531C1035.07 44.8863 1035.67 44.522 1036.33 44.2818C1036.99 44.0416 1037.69 43.9303 1038.39 43.9544C1039.43 43.9281 1040.45 44.2435 1041.27 44.848V44.6408C1041.27 44.5912 1041.27 44.5408 1041.29 44.4935C1041.3 44.4461 1041.33 44.4028 1041.37 44.3669C1041.4 44.3309 1041.45 44.3031 1041.5 44.2856C1041.55 44.2679 1041.6 44.261 1041.65 44.2652L1043.89 44.2522ZM1038.65 51.6604C1039 51.6707 1039.34 51.6077 1039.66 51.4756C1039.98 51.3436 1040.27 51.1458 1040.5 50.8963C1040.95 50.3403 1041.19 49.6569 1041.19 48.9536C1041.19 48.2504 1040.95 47.567 1040.5 47.0109C1040.27 46.7647 1039.99 46.5699 1039.67 46.4402C1039.35 46.3104 1039.01 46.2488 1038.66 46.2597C1038.31 46.2491 1037.96 46.312 1037.64 46.4439C1037.31 46.5758 1037.02 46.7737 1036.79 47.0238C1036.29 47.5557 1036.03 48.2526 1036.06 48.9665C1036.03 49.6734 1036.29 50.363 1036.77 50.8963C1037.01 51.1457 1037.3 51.3432 1037.62 51.4751C1037.95 51.6069 1038.3 51.6702 1038.65 51.6604Z" fill="white"/>
<path d="M1055.93 52.6064C1054.79 53.505 1053.36 53.9961 1051.88 53.9961C1050.4 53.9961 1048.97 53.505 1047.82 52.6064C1046.84 51.6251 1046.3 50.3191 1046.3 48.9606C1046.3 47.602 1046.84 46.2959 1047.82 45.3147C1048.97 44.4184 1050.4 43.9287 1051.88 43.9287C1053.36 43.9287 1054.79 44.4184 1055.93 45.3147C1056.91 46.2937 1057.46 47.5977 1057.46 48.9541C1057.46 50.3104 1056.91 51.6144 1055.93 52.5934V52.6064ZM1049.95 50.8968C1050.2 51.1329 1050.51 51.3175 1050.84 51.4398C1051.18 51.5621 1051.53 51.6197 1051.89 51.6091C1052.25 51.6179 1052.6 51.5596 1052.93 51.4374C1053.26 51.315 1053.57 51.1314 1053.82 50.8968C1054.3 50.3653 1054.55 49.6905 1054.55 48.9929C1054.55 48.2954 1054.3 47.6206 1053.82 47.0891C1053.57 46.8544 1053.26 46.6708 1052.93 46.5485C1052.6 46.4263 1052.25 46.3679 1051.89 46.3767C1051.53 46.3662 1051.18 46.4238 1050.84 46.546C1050.51 46.6683 1050.2 46.8529 1049.95 47.0891C1049.47 47.6206 1049.22 48.2954 1049.22 48.9929C1049.22 49.6905 1049.47 50.3653 1049.95 50.8968Z" fill="white"/>
<path d="M1062.34 42.0513C1061.98 42.351 1061.52 42.5161 1061.05 42.5161C1060.57 42.5161 1060.11 42.351 1059.76 42.0513C1059.59 41.9048 1059.46 41.7281 1059.38 41.5322C1059.29 41.3362 1059.24 41.125 1059.24 40.9116C1059.24 40.6981 1059.29 40.4869 1059.38 40.291C1059.46 40.095 1059.59 39.9184 1059.76 39.7719C1060.12 39.4796 1060.57 39.3193 1061.05 39.3193C1061.52 39.3193 1061.98 39.4796 1062.34 39.7719C1062.5 39.9184 1062.63 40.095 1062.72 40.291C1062.8 40.4869 1062.85 40.6981 1062.85 40.9116C1062.85 41.125 1062.8 41.3362 1062.72 41.5322C1062.63 41.7281 1062.5 41.9048 1062.34 42.0513ZM1062.62 53.9925C1061.82 54.0303 1061.02 53.8116 1060.36 53.3707C1060.09 53.1725 1059.88 52.9151 1059.73 52.62C1059.58 52.3249 1059.51 52.0005 1059.53 51.6741V44.6287C1059.52 44.5778 1059.53 44.5261 1059.54 44.4777C1059.56 44.4293 1059.59 44.3853 1059.63 44.3491C1059.66 44.3129 1059.71 44.2854 1059.76 44.2687C1059.81 44.2521 1059.87 44.2467 1059.92 44.253H1062.19C1062.44 44.253 1062.57 44.3826 1062.57 44.6287V50.7417C1062.57 51.2338 1062.8 51.4799 1063.26 51.4799C1063.46 51.487 1063.67 51.4651 1063.86 51.4151C1064.13 51.4151 1064.28 51.4929 1064.3 51.7259L1064.5 53.3449C1064.51 53.3921 1064.51 53.4407 1064.5 53.4876C1064.48 53.5344 1064.46 53.5783 1064.43 53.6163C1064.4 53.6544 1064.36 53.6857 1064.32 53.7081C1064.27 53.7306 1064.22 53.7436 1064.17 53.7464C1063.67 53.9047 1063.15 53.9877 1062.62 53.9925Z" fill="white"/>
<path d="M1072.85 43.9419C1073.56 43.9151 1074.27 44.0251 1074.93 44.2653C1075.59 44.5056 1076.2 44.8714 1076.71 45.3407C1077.67 46.3237 1078.2 47.6172 1078.2 48.9607C1078.2 50.304 1077.67 51.5977 1076.71 52.5806C1076.2 53.0541 1075.6 53.4233 1074.93 53.666C1074.27 53.9086 1073.56 54.0197 1072.85 53.9922C1071.84 54.0138 1070.85 53.7182 1070.03 53.1504V57.8258C1070.03 58.0719 1069.89 58.1885 1069.63 58.1885H1067.36C1067.31 58.1977 1067.26 58.1948 1067.21 58.1799C1067.16 58.1649 1067.11 58.1385 1067.08 58.1028C1067.04 58.067 1067.01 58.0232 1067 57.9749C1066.98 57.9267 1066.98 57.8755 1066.99 57.8258V47.2057C1067 47.1019 1066.99 46.9959 1066.96 46.8962C1066.92 46.7965 1066.87 46.7059 1066.79 46.6317C1066.71 46.5575 1066.62 46.5016 1066.51 46.4686C1066.41 46.4356 1066.3 46.4264 1066.19 46.4415H1065.74C1065.45 46.4415 1065.3 46.338 1065.3 46.1307V44.6025C1065.29 44.5079 1065.32 44.4139 1065.37 44.3362C1065.43 44.2583 1065.51 44.2015 1065.61 44.1751C1066.08 44.0122 1066.57 43.9333 1067.07 43.9419C1067.56 43.8999 1068.06 44.0007 1068.5 44.2314C1068.93 44.4622 1069.29 44.8123 1069.51 45.2371C1069.95 44.8151 1070.47 44.4826 1071.04 44.26C1071.62 44.0372 1072.23 43.929 1072.85 43.9419ZM1070.74 50.8969C1070.98 51.1382 1071.27 51.3303 1071.59 51.4615C1071.91 51.5927 1072.26 51.6603 1072.61 51.6603C1072.96 51.6603 1073.3 51.5927 1073.62 51.4615C1073.94 51.3303 1074.23 51.1382 1074.47 50.8969C1074.98 50.3543 1075.25 49.6434 1075.21 48.9154C1075.25 48.1866 1074.98 47.4741 1074.47 46.9337C1074.23 46.6924 1073.94 46.5003 1073.62 46.3691C1073.3 46.2379 1072.96 46.1703 1072.61 46.1703C1072.26 46.1703 1071.91 46.2379 1071.59 46.3691C1071.27 46.5003 1070.98 46.6924 1070.74 46.9337C1070.25 47.4836 1069.99 48.1917 1070.03 48.9154C1070 49.6383 1070.25 50.345 1070.74 50.8969Z" fill="white"/>
<path d="M1084.58 53.9916C1083.36 54.0394 1082.16 53.7613 1081.1 53.1886C1080.68 52.9439 1080.32 52.6106 1080.05 52.2137C1079.78 51.8169 1079.6 51.3667 1079.54 50.8963C1079.54 50.6372 1079.63 50.5077 1079.93 50.5077H1081.92C1082.01 50.5112 1082.1 50.5397 1082.18 50.59C1082.26 50.6403 1082.32 50.7104 1082.36 50.7926C1082.64 51.492 1083.39 51.8417 1084.58 51.8417C1084.99 51.8599 1085.4 51.7798 1085.78 51.6085C1085.91 51.5526 1086.02 51.464 1086.1 51.3522C1086.18 51.2404 1086.23 51.1097 1086.24 50.974C1086.24 50.6372 1086.02 50.4041 1085.59 50.2486C1085.08 50.085 1084.55 49.9764 1084.01 49.9249C1083.37 49.8558 1082.74 49.7476 1082.12 49.6011C1081.51 49.4697 1080.96 49.1674 1080.54 48.7334C1080.29 48.4383 1080.1 48.0971 1080 47.7309C1079.89 47.3647 1079.86 46.9814 1079.92 46.6049C1079.97 46.2283 1080.11 45.8665 1080.31 45.5419C1080.52 45.2174 1080.79 44.9371 1081.12 44.7184C1082.09 44.1237 1083.23 43.8341 1084.39 43.8895C1085.51 43.8534 1086.61 44.1181 1087.58 44.6537C1087.97 44.8653 1088.3 45.1577 1088.56 45.5094C1088.82 45.8612 1088.99 46.2635 1089.06 46.687C1089.06 46.946 1088.94 47.0756 1088.7 47.0756H1086.7C1086.61 47.0803 1086.53 47.0607 1086.46 47.0191C1086.39 46.9775 1086.33 46.9159 1086.29 46.8425C1086.16 46.5357 1085.91 46.2899 1085.59 46.156C1085.23 45.9764 1084.83 45.8873 1084.43 45.897C1084.03 45.8764 1083.64 45.9521 1083.28 46.1172C1083.15 46.1638 1083.05 46.2453 1082.97 46.3515C1082.89 46.4578 1082.85 46.5836 1082.85 46.7129C1082.86 46.8901 1082.92 47.0599 1083.04 47.1974C1083.16 47.3349 1083.32 47.4329 1083.5 47.4771C1084.02 47.6645 1084.55 47.7949 1085.1 47.8657C1085.74 47.9454 1086.36 48.0578 1086.98 48.2024C1087.59 48.3337 1088.14 48.6359 1088.56 49.0701C1088.79 49.3093 1088.97 49.5892 1089.08 49.8937C1089.19 50.1983 1089.24 50.5215 1089.23 50.8445C1089.24 51.2921 1089.13 51.7351 1088.91 52.13C1088.69 52.5251 1088.36 52.8585 1087.97 53.098C1086.96 53.7192 1085.78 54.0309 1084.58 53.9916Z" fill="white"/>
<path d="M1103.51 53.3449C1103.52 53.3908 1103.51 53.4379 1103.5 53.4831C1103.49 53.5283 1103.47 53.5708 1103.44 53.6083C1103.41 53.6457 1103.38 53.6771 1103.33 53.7009C1103.29 53.7245 1103.25 53.74 1103.2 53.7463C1102.7 53.9007 1102.19 53.9836 1101.67 53.9924C1101.16 54.0434 1100.64 53.9665 1100.16 53.769C1099.69 53.5716 1099.28 53.2605 1098.97 52.8657C1098.01 53.6522 1096.78 54.0558 1095.52 53.9924C1094.94 54.0182 1094.36 53.9266 1093.81 53.7237C1093.27 53.5206 1092.77 53.2108 1092.36 52.8139C1091.95 52.3979 1091.63 51.9071 1091.43 51.3708C1091.22 50.8344 1091.13 50.2636 1091.16 49.6925V44.6286C1091.16 44.3825 1091.28 44.2529 1091.54 44.2529H1093.81C1094.06 44.2529 1094.18 44.3825 1094.18 44.6286V49.304C1094.16 49.8865 1094.37 50.4562 1094.77 50.8971C1094.96 51.099 1095.21 51.2578 1095.47 51.3628C1095.74 51.4678 1096.03 51.5165 1096.32 51.5058C1096.62 51.5182 1096.91 51.4742 1097.19 51.3764C1097.47 51.2786 1097.72 51.1289 1097.94 50.9359C1098.15 50.7325 1098.31 50.4908 1098.41 50.2257C1098.52 49.9606 1098.56 49.6778 1098.55 49.3947V44.6286C1098.55 44.3825 1098.67 44.2529 1098.93 44.2529H1101.22C1101.48 44.2529 1101.6 44.3825 1101.6 44.6286V50.7287C1101.6 51.2338 1101.83 51.4799 1102.28 51.4799C1102.49 51.4876 1102.7 51.4658 1102.9 51.415C1102.95 51.4013 1103 51.3989 1103.06 51.4079C1103.11 51.4169 1103.16 51.437 1103.2 51.467C1103.24 51.4969 1103.28 51.5357 1103.3 51.5806C1103.33 51.6254 1103.34 51.6751 1103.35 51.726L1103.51 53.3449Z" fill="white"/>
<path d="M1124.98 53.3452C1124.99 53.3915 1124.99 53.4399 1124.98 53.4868C1124.97 53.5336 1124.95 53.5778 1124.92 53.6162C1124.89 53.6546 1124.85 53.6862 1124.81 53.7087C1124.77 53.7313 1124.72 53.7442 1124.67 53.7467C1124.17 53.9032 1123.64 53.9862 1123.11 53.9927C1122.31 54.0324 1121.52 53.8137 1120.86 53.3711C1120.57 53.1814 1120.34 52.9274 1120.18 52.6314C1120.03 52.3355 1119.95 52.0068 1119.95 51.6744V48.6308C1119.98 48.0501 1119.78 47.4807 1119.38 47.0378C1119.19 46.8354 1118.96 46.6758 1118.7 46.5705C1118.44 46.4653 1118.16 46.417 1117.87 46.4291C1117.62 46.4198 1117.36 46.4664 1117.13 46.5651C1116.89 46.6638 1116.69 46.8122 1116.52 46.999C1116.16 47.433 1115.98 47.9753 1116.01 48.5273V53.3063C1116.01 53.5524 1115.88 53.6819 1115.63 53.6819H1113.34C1113.29 53.6882 1113.24 53.6828 1113.19 53.6662C1113.14 53.6496 1113.09 53.622 1113.05 53.5859C1113.02 53.5496 1112.99 53.5056 1112.97 53.4571C1112.95 53.4087 1112.95 53.3571 1112.95 53.3063V48.6308C1112.98 48.0565 1112.79 47.491 1112.43 47.0378C1112.26 46.8475 1112.05 46.6942 1111.82 46.589C1111.59 46.4838 1111.33 46.4292 1111.07 46.4291C1110.8 46.4185 1110.52 46.4637 1110.27 46.5619C1110.01 46.6601 1109.78 46.8091 1109.59 46.999C1109.2 47.4192 1109 47.9679 1109.03 48.5273V53.3063C1109.04 53.3571 1109.04 53.4087 1109.02 53.4571C1109 53.5056 1108.97 53.5496 1108.93 53.5859C1108.9 53.622 1108.85 53.6496 1108.8 53.6662C1108.75 53.6828 1108.7 53.6882 1108.64 53.6819H1106.44C1106.18 53.6819 1106.06 53.5524 1106.06 53.3063V47.2062C1106.08 47.1024 1106.07 46.9964 1106.03 46.8966C1106 46.797 1105.94 46.7064 1105.86 46.6322C1105.79 46.558 1105.69 46.5021 1105.59 46.4691C1105.48 46.436 1105.37 46.4269 1105.26 46.4421H1104.82C1104.52 46.4421 1104.37 46.3385 1104.37 46.1312V44.603C1104.37 44.5084 1104.39 44.4144 1104.45 44.3366C1104.51 44.2589 1104.59 44.202 1104.68 44.1756C1105.15 44.0127 1105.64 43.9337 1106.14 43.9424C1106.62 43.9035 1107.1 43.9946 1107.52 44.2055C1107.95 44.4163 1108.31 44.7382 1108.55 45.134C1109 44.7198 1109.54 44.4003 1110.13 44.1953C1110.72 43.9903 1111.35 43.9042 1111.98 43.9424C1112.59 43.914 1113.2 44.0234 1113.75 44.262C1114.31 44.5005 1114.8 44.8613 1115.18 45.3153C1115.63 44.8495 1116.18 44.4847 1116.79 44.2472C1117.4 44.0098 1118.06 43.9057 1118.72 43.9424C1119.31 43.916 1119.9 44.0071 1120.45 44.21C1121 44.4128 1121.5 44.723 1121.92 45.121C1122.34 45.5361 1122.65 46.0268 1122.86 46.5633C1123.07 47.0999 1123.16 47.6711 1123.13 48.2423V50.7419C1123.13 51.2341 1123.36 51.4802 1123.79 51.4802C1124 51.4896 1124.21 51.4677 1124.41 51.4154C1124.69 51.4154 1124.84 51.519 1124.86 51.7263L1124.98 53.3452Z" fill="white"/>
<path d="M966.536 42.5697C967.533 38.7293 969.842 35.3188 973.095 32.8815C976.348 30.4442 980.358 29.1201 984.487 29.1201C988.616 29.1201 992.626 30.4442 995.879 32.8815C999.132 35.3188 1001.44 38.7293 1002.44 42.5697H1000.82C998.081 42.5311 995.402 43.3147 993.155 44.8104C993.025 44.9004 992.89 44.9825 992.75 45.0564H992.561C992.42 44.9825 992.285 44.9004 992.155 44.8104C989.888 43.3493 987.219 42.569 984.487 42.569C981.756 42.569 979.086 43.3493 976.819 44.8104C976.689 44.9004 976.554 44.9825 976.414 45.0564H976.225C976.084 44.9825 975.949 44.9004 975.819 44.8104C973.572 43.3147 970.893 42.5311 968.158 42.5697H966.536ZM997.898 50.6903C998.73 50.069 999.762 49.7439 1000.82 49.7708H1002.99V45.6133H1000.82C998.959 45.5918 997.144 46.146 995.641 47.1934C994.796 47.7909 993.773 48.1132 992.723 48.1132C991.672 48.1132 990.65 47.7909 989.804 47.1934C988.264 46.1656 986.432 45.6146 984.555 45.6146C982.678 45.6146 980.846 46.1656 979.305 47.1934C978.46 47.7909 977.437 48.1132 976.387 48.1132C975.336 48.1132 974.314 47.7909 973.468 47.1934C971.947 46.1326 970.106 45.5777 968.225 45.6133H965.982V49.7708H968.158C969.212 49.7439 970.244 50.069 971.076 50.6903C972.614 51.7188 974.444 52.2703 976.319 52.2703C978.194 52.2703 980.024 51.7188 981.562 50.6903C982.395 50.0708 983.426 49.7461 984.48 49.7708C985.535 49.7418 986.568 50.067 987.399 50.6903C988.939 51.7181 990.771 52.2691 992.648 52.2691C994.525 52.2691 996.357 51.7181 997.898 50.6903ZM997.898 58.1244C998.73 57.5031 999.762 57.178 1000.82 57.2049H1002.99V53.0475H1000.82C998.959 53.0259 997.144 53.5801 995.641 54.6275C994.796 55.225 993.773 55.5473 992.723 55.5473C991.672 55.5473 990.65 55.225 989.804 54.6275C988.264 53.5996 986.432 53.0487 984.555 53.0487C982.678 53.0487 980.846 53.5996 979.305 54.6275C978.46 55.225 977.437 55.5473 976.387 55.5473C975.336 55.5473 974.314 55.225 973.468 54.6275C971.947 53.5667 970.106 53.0118 968.225 53.0475H965.982V57.2049H968.158C969.212 57.178 970.244 57.5031 971.076 58.1244C972.614 59.153 974.444 59.7044 976.319 59.7044C978.194 59.7044 980.024 59.153 981.562 58.1244C982.395 57.505 983.426 57.1802 984.48 57.2049C985.535 57.1759 986.568 57.5011 987.399 58.1244C988.939 59.1522 990.771 59.7033 992.648 59.7033C994.525 59.7033 996.357 59.1522 997.898 58.1244Z" fill="white"/>
</g>
<g clip-path="url(#clip3_500_2365)">
<path d="M1227.09 38.3996H1230.65V52.2669H1227.09V38.3996ZM1232.07 47.0507C1232.07 43.6158 1234.29 41.557 1237.61 41.557C1240.93 41.557 1243.15 43.6158 1243.15 47.0507C1243.15 50.4855 1241.01 52.5656 1237.61 52.5656C1234.21 52.5656 1232.07 50.5602 1232.07 47.0507ZM1239.63 47.0507C1239.63 45.1626 1238.86 44.0532 1237.64 44.0532C1236.42 44.0532 1235.67 45.1199 1235.67 47.0507C1235.67 48.9814 1236.42 50.0375 1237.64 50.0375C1238.86 50.0375 1239.65 48.9815 1239.65 47.0613L1239.63 47.0507ZM1244.57 52.9816H1248C1248.16 53.3377 1248.43 53.6346 1248.78 53.8272C1249.13 54.0199 1249.53 54.0975 1249.93 54.0483C1251.3 54.0483 1252.01 53.3443 1252.01 52.2989V50.3788H1252.02C1251.72 50.9767 1251.25 51.475 1250.65 51.8082C1250.06 52.1415 1249.38 52.2939 1248.69 52.2455C1246.09 52.2455 1244.36 50.3362 1244.36 47.0507C1244.36 43.7651 1246.01 41.717 1248.79 41.717C1249.49 41.6808 1250.19 41.8553 1250.79 42.2164C1251.38 42.5775 1251.85 43.1074 1252.12 43.7331H1252.02V41.8024H1255.54V52.1922C1255.54 54.699 1253.24 56.2671 1249.84 56.2671C1246.76 56.2564 1244.79 54.9017 1244.59 52.9923L1244.57 52.9816ZM1252.02 47.0507C1252.02 45.3759 1251.22 44.3198 1249.96 44.3198C1248.69 44.3198 1247.92 45.3866 1247.92 47.0507C1247.92 48.7148 1248.68 49.6961 1249.96 49.6961C1251.23 49.6961 1252.02 48.7894 1252.02 47.0507ZM1256.95 47.0507C1256.95 43.6158 1259.16 41.557 1262.49 41.557C1265.81 41.557 1268.03 43.6158 1268.03 47.0507C1268.03 50.4855 1265.88 52.5656 1262.49 52.5656C1259.1 52.5656 1256.97 50.5602 1256.97 47.0507H1256.95ZM1264.51 47.0507C1264.51 45.1626 1263.73 44.0532 1262.52 44.0532C1261.31 44.0532 1260.55 45.1199 1260.55 47.0507C1260.55 48.9814 1261.3 50.0375 1262.52 50.0375C1263.74 50.0375 1264.53 48.9815 1264.53 47.0613L1264.51 47.0507ZM1269.47 39.2743C1269.46 38.9255 1269.55 38.5802 1269.74 38.2828C1269.93 37.9855 1270.21 37.7497 1270.54 37.6058C1270.87 37.4619 1271.24 37.4164 1271.59 37.4752C1271.95 37.534 1272.28 37.6945 1272.54 37.9359C1272.81 38.1773 1272.99 38.4887 1273.06 38.8299C1273.14 39.1711 1273.11 39.5266 1272.97 39.8507C1272.84 40.1747 1272.61 40.4524 1272.31 40.6482C1272.01 40.8439 1271.65 40.9487 1271.29 40.949C1271.06 40.9547 1270.83 40.916 1270.61 40.8352C1270.39 40.7543 1270.2 40.633 1270.03 40.4782C1269.86 40.3234 1269.73 40.1382 1269.64 39.9334C1269.55 39.7285 1269.5 39.5081 1269.49 39.285L1269.47 39.2743ZM1269.47 41.7917H1273.07V52.3095H1269.53L1269.47 41.7917ZM1286.03 47.0507C1286.03 50.4748 1284.43 52.4589 1281.72 52.4589C1281.02 52.5002 1280.33 52.3351 1279.74 51.986C1279.14 51.637 1278.67 51.1207 1278.39 50.5068H1278.33V55.6911H1274.77V41.8237H1278.3V43.7011H1278.37C1278.64 43.0753 1279.11 42.5448 1279.7 42.1821C1280.29 41.8194 1280.99 41.6422 1281.69 41.6744C1284.49 41.653 1286.09 43.6265 1286.09 47.0613L1286.03 47.0507ZM1282.4 47.0507C1282.4 45.3866 1281.59 44.3092 1280.34 44.3092C1279.09 44.3092 1278.3 45.3759 1278.29 47.0507C1278.28 48.7254 1279.09 49.7815 1280.34 49.7815C1281.59 49.7815 1282.47 48.7894 1282.47 47.0613L1282.4 47.0507ZM1292.1 41.5463C1295.08 41.5463 1296.93 42.9011 1296.95 45.0772H1293.71C1293.71 44.3198 1293.05 43.8505 1292.08 43.8505C1291.1 43.8505 1290.64 44.2132 1290.64 44.7572C1290.64 45.3012 1291.05 45.4719 1291.87 45.6319L1294.15 46.0799C1296.37 46.528 1297.25 47.3814 1297.25 48.9708C1297.25 51.1042 1295.2 52.5549 1292.16 52.5549C1289.11 52.5549 1287.12 51.1468 1286.98 49.0028H1290.43C1290.53 49.7815 1291.17 50.2402 1292.21 50.2402C1293.25 50.2402 1293.74 49.9202 1293.74 49.3548C1293.74 48.7894 1293.41 48.6934 1292.56 48.5228L1290.49 48.1067C1288.36 47.6694 1287.24 46.592 1287.24 44.9812C1287.3 42.8904 1289.16 41.557 1292.17 41.557L1292.1 41.5463ZM1309.17 52.2989H1305.72V50.3255H1305.65C1305.46 50.9837 1305.04 51.5591 1304.46 51.9565C1303.89 52.3541 1303.18 52.55 1302.47 52.5122C1301.94 52.5291 1301.41 52.4366 1300.91 52.2411C1300.41 52.0455 1299.97 51.7511 1299.6 51.3774C1299.23 51.0037 1298.94 50.5591 1298.77 50.0726C1298.59 49.5861 1298.52 49.0689 1298.56 48.5548V41.8024H1302.12V47.8187C1302.12 49.0561 1302.8 49.7282 1303.9 49.7282C1304.16 49.7262 1304.42 49.6707 1304.66 49.5652C1304.89 49.4597 1305.1 49.3068 1305.27 49.1167C1305.44 48.9266 1305.56 48.7038 1305.64 48.4633C1305.71 48.2228 1305.73 47.9703 1305.69 47.7227V41.8024H1309.23L1309.17 52.2989ZM1310.89 41.7917H1314.34V43.8185H1314.42C1314.61 43.1692 1315.02 42.5992 1315.58 42.1978C1316.15 41.7963 1316.83 41.586 1317.53 41.5997C1318.24 41.5409 1318.94 41.7367 1319.5 42.149C1320.06 42.5613 1320.44 43.1604 1320.57 43.8291H1320.73C1320.95 43.1569 1321.39 42.5738 1322 42.1706C1322.6 41.7674 1323.32 41.5667 1324.05 41.5997C1324.54 41.5819 1325.02 41.6631 1325.47 41.8382C1325.93 42.0132 1326.33 42.278 1326.67 42.6154C1327.01 42.9527 1327.27 43.3549 1327.43 43.7958C1327.6 44.2365 1327.67 44.7059 1327.63 45.1732V52.3095H1324.05V46.0479C1324.05 44.9812 1323.53 44.3838 1322.52 44.3838C1322.3 44.3803 1322.08 44.4234 1321.87 44.5101C1321.67 44.5968 1321.48 44.7251 1321.34 44.8862C1321.19 45.0473 1321.08 45.2374 1321.01 45.4434C1320.95 45.6495 1320.93 45.8666 1320.96 46.0799V52.3095H1317.57V46.0159C1317.57 44.9492 1317.02 44.3838 1316.05 44.3838C1315.82 44.3821 1315.6 44.4269 1315.39 44.5154C1315.19 44.6037 1315 44.7335 1314.85 44.8962C1314.7 45.0589 1314.59 45.2506 1314.52 45.4584C1314.46 45.6663 1314.44 45.8855 1314.47 46.1013V52.3095H1310.91L1310.89 41.7917Z" fill="white"/>
<path d="M1220.06 39.3063C1220.06 37.1832 1219.39 35.1096 1218.15 33.357C1216.9 31.6044 1215.13 30.2547 1213.08 29.4845C1211.02 28.7143 1208.77 28.5597 1206.63 29.0407C1204.48 29.5218 1202.53 30.6162 1201.04 32.1806H1187.21V60.278H1216.41V47.1467C1217.56 46.1599 1218.47 44.9517 1219.1 43.6007C1219.73 42.2497 1220.06 40.7865 1220.06 39.3063ZM1214.44 39.3063C1214.44 40.3236 1214.13 41.3188 1213.54 42.1658C1212.96 43.0127 1212.12 43.6733 1211.15 44.0641C1210.17 44.4549 1209.1 44.5583 1208.06 44.361C1207.02 44.1639 1206.07 43.6751 1205.32 42.9564C1204.58 42.2378 1204.07 41.3216 1203.86 40.324C1203.65 39.3263 1203.76 38.292 1204.16 37.3519C1204.56 36.4117 1205.25 35.6081 1206.13 35.0426C1207.01 34.4772 1208.04 34.1754 1209.1 34.1754C1210.51 34.1754 1211.87 34.7156 1212.87 35.6775C1213.87 36.6395 1214.44 37.9445 1214.44 39.3063ZM1210.79 54.8698H1192.83V37.5889H1198.3C1198.2 38.1558 1198.14 38.7303 1198.14 39.3063C1198.14 42.1034 1199.29 44.7852 1201.35 46.7631C1203.4 48.7409 1206.19 49.8533 1209.1 49.8562C1209.66 49.8532 1210.23 49.8069 1210.79 49.7175V54.8698Z" fill="white"/>
</g>
</g>
<path d="M1.368 18.7V13.798H10.526V41.5H5.054V18.7H1.368ZM15.7816 27.288C15.7816 22.9053 16.5669 19.4727 18.1376 16.99C19.7336 14.5073 22.3682 13.266 26.0416 13.266C29.7149 13.266 32.3369 14.5073 33.9076 16.99C35.5036 19.4727 36.3016 22.9053 36.3016 27.288C36.3016 31.696 35.5036 35.154 33.9076 37.662C32.3369 40.17 29.7149 41.424 26.0416 41.424C22.3682 41.424 19.7336 40.17 18.1376 37.662C16.5669 35.154 15.7816 31.696 15.7816 27.288ZM31.0576 27.288C31.0576 25.4133 30.9309 23.8427 30.6776 22.576C30.4496 21.284 29.9682 20.2327 29.2336 19.422C28.5242 18.6113 27.4602 18.206 26.0416 18.206C24.6229 18.206 23.5462 18.6113 22.8116 19.422C22.1022 20.2327 21.6209 21.284 21.3676 22.576C21.1396 23.8427 21.0256 25.4133 21.0256 27.288C21.0256 29.2133 21.1396 30.8347 21.3676 32.152C21.5956 33.444 22.0769 34.4953 22.8116 35.306C23.5462 36.0913 24.6229 36.484 26.0416 36.484C27.4602 36.484 28.5369 36.0913 29.2716 35.306C30.0062 34.4953 30.4876 33.444 30.7156 32.152C30.9436 30.8347 31.0576 29.2133 31.0576 27.288ZM40.348 27.288C40.348 22.9053 41.1333 19.4727 42.704 16.99C44.3 14.5073 46.9347 13.266 50.608 13.266C54.2813 13.266 56.9033 14.5073 58.474 16.99C60.07 19.4727 60.868 22.9053 60.868 27.288C60.868 31.696 60.07 35.154 58.474 37.662C56.9033 40.17 54.2813 41.424 50.608 41.424C46.9347 41.424 44.3 40.17 42.704 37.662C41.1333 35.154 40.348 31.696 40.348 27.288ZM55.624 27.288C55.624 25.4133 55.4973 23.8427 55.244 22.576C55.016 21.284 54.5347 20.2327 53.8 19.422C53.0907 18.6113 52.0267 18.206 50.608 18.206C49.1893 18.206 48.1127 18.6113 47.378 19.422C46.6687 20.2327 46.1873 21.284 45.934 22.576C45.706 23.8427 45.592 25.4133 45.592 27.288C45.592 29.2133 45.706 30.8347 45.934 32.152C46.162 33.444 46.6433 34.4953 47.378 35.306C48.1127 36.0913 49.1893 36.484 50.608 36.484C52.0267 36.484 53.1033 36.0913 53.838 35.306C54.5727 34.4953 55.054 33.444 55.282 32.152C55.51 30.8347 55.624 29.2133 55.624 27.288ZM67.8784 41.766C66.9157 41.766 66.1177 41.4747 65.4844 40.892C64.8764 40.284 64.5724 39.5367 64.5724 38.65C64.5724 37.7633 64.8764 37.0287 65.4844 36.446C66.1177 35.838 66.9157 35.534 67.8784 35.534C68.8157 35.534 69.5884 35.838 70.1964 36.446C70.8044 37.0287 71.1084 37.7633 71.1084 38.65C71.1084 39.5367 70.8044 40.284 70.1964 40.892C69.5884 41.4747 68.8157 41.766 67.8784 41.766ZM74.7855 27.288C74.7855 22.9053 75.5708 19.4727 77.1415 16.99C78.7375 14.5073 81.3722 13.266 85.0455 13.266C88.7188 13.266 91.3408 14.5073 92.9115 16.99C94.5075 19.4727 95.3055 22.9053 95.3055 27.288C95.3055 31.696 94.5075 35.154 92.9115 37.662C91.3408 40.17 88.7188 41.424 85.0455 41.424C81.3722 41.424 78.7375 40.17 77.1415 37.662C75.5708 35.154 74.7855 31.696 74.7855 27.288ZM90.0615 27.288C90.0615 25.4133 89.9348 23.8427 89.6815 22.576C89.4535 21.284 88.9722 20.2327 88.2375 19.422C87.5282 18.6113 86.4642 18.206 85.0455 18.206C83.6268 18.206 82.5502 18.6113 81.8155 19.422C81.1062 20.2327 80.6248 21.284 80.3715 22.576C80.1435 23.8427 80.0295 25.4133 80.0295 27.288C80.0295 29.2133 80.1435 30.8347 80.3715 32.152C80.5995 33.444 81.0808 34.4953 81.8155 35.306C82.5502 36.0913 83.6268 36.484 85.0455 36.484C86.4642 36.484 87.5408 36.0913 88.2755 35.306C89.0102 34.4953 89.4915 33.444 89.7195 32.152C89.9475 30.8347 90.0615 29.2133 90.0615 27.288ZM99.3519 27.288C99.3519 22.9053 100.137 19.4727 101.708 16.99C103.304 14.5073 105.939 13.266 109.612 13.266C113.285 13.266 115.907 14.5073 117.478 16.99C119.074 19.4727 119.872 22.9053 119.872 27.288C119.872 31.696 119.074 35.154 117.478 37.662C115.907 40.17 113.285 41.424 109.612 41.424C105.939 41.424 103.304 40.17 101.708 37.662C100.137 35.154 99.3519 31.696 99.3519 27.288ZM114.628 27.288C114.628 25.4133 114.501 23.8427 114.248 22.576C114.02 21.284 113.539 20.2327 112.804 19.422C112.095 18.6113 111.031 18.206 109.612 18.206C108.193 18.206 107.117 18.6113 106.382 19.422C105.673 20.2327 105.191 21.284 104.938 22.576C104.71 23.8427 104.596 25.4133 104.596 27.288C104.596 29.2133 104.71 30.8347 104.938 32.152C105.166 33.444 105.647 34.4953 106.382 35.306C107.117 36.0913 108.193 36.484 109.612 36.484C111.031 36.484 112.107 36.0913 112.842 35.306C113.577 34.4953 114.058 33.444 114.286 32.152C114.514 30.8347 114.628 29.2133 114.628 27.288ZM123.918 27.288C123.918 22.9053 124.704 19.4727 126.274 16.99C127.87 14.5073 130.505 13.266 134.178 13.266C137.852 13.266 140.474 14.5073 142.044 16.99C143.64 19.4727 144.438 22.9053 144.438 27.288C144.438 31.696 143.64 35.154 142.044 37.662C140.474 40.17 137.852 41.424 134.178 41.424C130.505 41.424 127.87 40.17 126.274 37.662C124.704 35.154 123.918 31.696 123.918 27.288ZM139.194 27.288C139.194 25.4133 139.068 23.8427 138.814 22.576C138.586 21.284 138.105 20.2327 137.37 19.422C136.661 18.6113 135.597 18.206 134.178 18.206C132.76 18.206 131.683 18.6113 130.948 19.422C130.239 20.2327 129.758 21.284 129.504 22.576C129.276 23.8427 129.162 25.4133 129.162 27.288C129.162 29.2133 129.276 30.8347 129.504 32.152C129.732 33.444 130.214 34.4953 130.948 35.306C131.683 36.0913 132.76 36.484 134.178 36.484C135.597 36.484 136.674 36.0913 137.408 35.306C138.143 34.4953 138.624 33.444 138.852 32.152C139.08 30.8347 139.194 29.2133 139.194 27.288ZM168.967 30.29H161.785V37.662H156.769V30.29H149.587V25.654H156.769V18.282H161.785V25.654H168.967V30.29Z" fill="white"/>
<path opacity="0.7" d="M7.536 65.348V66.532H2.688V70.292H6.624V71.476H2.688V76.5H1.232V65.348H7.536ZM10.0465 66.308C9.76917 66.308 9.5345 66.212 9.3425 66.02C9.1505 65.828 9.0545 65.5933 9.0545 65.316C9.0545 65.0387 9.1505 64.804 9.3425 64.612C9.5345 64.42 9.76917 64.324 10.0465 64.324C10.3132 64.324 10.5372 64.42 10.7185 64.612C10.9105 64.804 11.0065 65.0387 11.0065 65.316C11.0065 65.5933 10.9105 65.828 10.7185 66.02C10.5372 66.212 10.3132 66.308 10.0465 66.308ZM10.7505 67.732V76.5H9.2945V67.732H10.7505ZM17.504 67.572C18.5707 67.572 19.4347 67.8973 20.096 68.548C20.7573 69.188 21.088 70.116 21.088 71.332V76.5H19.648V71.54C19.648 70.6653 19.4293 69.9987 18.992 69.54C18.5547 69.0707 17.9573 68.836 17.2 68.836C16.432 68.836 15.8187 69.076 15.36 69.556C14.912 70.036 14.688 70.7347 14.688 71.652V76.5H13.232V67.732H14.688V68.98C14.976 68.532 15.3653 68.1853 15.856 67.94C16.3573 67.6947 16.9067 67.572 17.504 67.572ZM26.5704 76.644C25.8984 76.644 25.2957 76.532 24.7624 76.308C24.229 76.0733 23.8077 75.7533 23.4984 75.348C23.189 74.932 23.0184 74.4573 22.9864 73.924H24.4904C24.533 74.3613 24.7357 74.7187 25.0984 74.996C25.4717 75.2733 25.957 75.412 26.5544 75.412C27.109 75.412 27.5464 75.2893 27.8664 75.044C28.1864 74.7987 28.3464 74.4893 28.3464 74.116C28.3464 73.732 28.1757 73.4493 27.8344 73.268C27.493 73.076 26.965 72.8893 26.2504 72.708C25.5997 72.5373 25.0664 72.3667 24.6504 72.196C24.245 72.0147 23.893 71.7533 23.5944 71.412C23.3064 71.06 23.1624 70.6013 23.1624 70.036C23.1624 69.588 23.2957 69.1773 23.5624 68.804C23.829 68.4307 24.2077 68.1373 24.6984 67.924C25.189 67.7 25.749 67.588 26.3784 67.588C27.349 67.588 28.133 67.8333 28.7304 68.324C29.3277 68.8147 29.6477 69.4867 29.6904 70.34H28.2344C28.2024 69.8813 28.0157 69.5133 27.6744 69.236C27.3437 68.9587 26.8957 68.82 26.3304 68.82C25.8077 68.82 25.3917 68.932 25.0824 69.156C24.773 69.38 24.6184 69.6733 24.6184 70.036C24.6184 70.324 24.709 70.564 24.8904 70.756C25.0824 70.9373 25.317 71.0867 25.5944 71.204C25.8824 71.3107 26.277 71.4333 26.7784 71.572C27.4077 71.7427 27.9197 71.9133 28.3144 72.084C28.709 72.244 29.045 72.4893 29.3224 72.82C29.6104 73.1507 29.7597 73.5827 29.7704 74.116C29.7704 74.596 29.637 75.028 29.3704 75.412C29.1037 75.796 28.725 76.1 28.2344 76.324C27.7544 76.5373 27.1997 76.644 26.5704 76.644ZM43.5058 67.732L40.7698 76.5H39.2658L37.1538 69.54L35.0418 76.5H33.5378L30.7858 67.732H32.2738L34.2898 75.092L36.4658 67.732H37.9538L40.0818 75.108L42.0658 67.732H43.5058ZM52.9508 71.78C52.9508 72.0573 52.9348 72.3507 52.9028 72.66H45.8948C45.9481 73.524 46.2414 74.2013 46.7748 74.692C47.3188 75.172 47.9748 75.412 48.7428 75.412C49.3721 75.412 49.8948 75.268 50.3108 74.98C50.7374 74.6813 51.0361 74.2867 51.2068 73.796H52.7748C52.5401 74.6387 52.0708 75.3267 51.3668 75.86C50.6628 76.3827 49.7881 76.644 48.7428 76.644C47.9108 76.644 47.1641 76.4573 46.5028 76.084C45.8521 75.7107 45.3401 75.1827 44.9668 74.5C44.5934 73.8067 44.4068 73.0067 44.4068 72.1C44.4068 71.1933 44.5881 70.3987 44.9508 69.716C45.3134 69.0333 45.8201 68.5107 46.4708 68.148C47.1321 67.7747 47.8894 67.588 48.7428 67.588C49.5748 67.588 50.3108 67.7693 50.9508 68.132C51.5908 68.4947 52.0814 68.996 52.4228 69.636C52.7748 70.2653 52.9508 70.98 52.9508 71.78ZM51.4468 71.476C51.4468 70.9213 51.3241 70.4467 51.0788 70.052C50.8334 69.6467 50.4974 69.3427 50.0708 69.14C49.6548 68.9267 49.1908 68.82 48.6788 68.82C47.9428 68.82 47.3134 69.0547 46.7908 69.524C46.2788 69.9933 45.9854 70.644 45.9108 71.476H51.4468ZM62.8726 71.78C62.8726 72.0573 62.8566 72.3507 62.8246 72.66H55.8166C55.87 73.524 56.1633 74.2013 56.6966 74.692C57.2406 75.172 57.8966 75.412 58.6646 75.412C59.294 75.412 59.8166 75.268 60.2326 74.98C60.6593 74.6813 60.958 74.2867 61.1286 73.796H62.6966C62.462 74.6387 61.9926 75.3267 61.2886 75.86C60.5846 76.3827 59.71 76.644 58.6646 76.644C57.8326 76.644 57.086 76.4573 56.4246 76.084C55.774 75.7107 55.262 75.1827 54.8886 74.5C54.5153 73.8067 54.3286 73.0067 54.3286 72.1C54.3286 71.1933 54.51 70.3987 54.8726 69.716C55.2353 69.0333 55.742 68.5107 56.3926 68.148C57.054 67.7747 57.8113 67.588 58.6646 67.588C59.4966 67.588 60.2326 67.7693 60.8726 68.132C61.5126 68.4947 62.0033 68.996 62.3446 69.636C62.6966 70.2653 62.8726 70.98 62.8726 71.78ZM61.3686 71.476C61.3686 70.9213 61.246 70.4467 61.0006 70.052C60.7553 69.6467 60.4193 69.3427 59.9926 69.14C59.5766 68.9267 59.1126 68.82 58.6006 68.82C57.8646 68.82 57.2353 69.0547 56.7126 69.524C56.2006 69.9933 55.9073 70.644 55.8326 71.476H61.3686ZM66.5705 68.932V74.1C66.5705 74.5267 66.6612 74.8307 66.8425 75.012C67.0238 75.1827 67.3385 75.268 67.7865 75.268H68.8585V76.5H67.5465C66.7358 76.5 66.1278 76.3133 65.7225 75.94C65.3172 75.5667 65.1145 74.9533 65.1145 74.1V68.932H63.9785V67.732H65.1145V65.524H66.5705V67.732H68.8585V68.932H66.5705ZM76.3123 65.348V72.404C76.3123 73.396 76.5523 74.132 77.0323 74.612C77.5229 75.092 78.2003 75.332 79.0643 75.332C79.9176 75.332 80.5843 75.092 81.0643 74.612C81.5549 74.132 81.8003 73.396 81.8003 72.404V65.348H83.2563V72.388C83.2563 73.316 83.0696 74.1 82.6962 74.74C82.3229 75.3693 81.8163 75.8387 81.1763 76.148C80.5469 76.4573 79.8376 76.612 79.0483 76.612C78.2589 76.612 77.5443 76.4573 76.9043 76.148C76.2749 75.8387 75.7736 75.3693 75.4003 74.74C75.0376 74.1 74.8563 73.316 74.8563 72.388V65.348H76.3123ZM88.7891 76.644C88.1171 76.644 87.5145 76.532 86.9811 76.308C86.4478 76.0733 86.0265 75.7533 85.7171 75.348C85.4078 74.932 85.2371 74.4573 85.2051 73.924H86.7091C86.7518 74.3613 86.9545 74.7187 87.3171 74.996C87.6905 75.2733 88.1758 75.412 88.7731 75.412C89.3278 75.412 89.7651 75.2893 90.0851 75.044C90.4051 74.7987 90.5651 74.4893 90.5651 74.116C90.5651 73.732 90.3945 73.4493 90.0531 73.268C89.7118 73.076 89.1838 72.8893 88.4691 72.708C87.8185 72.5373 87.2851 72.3667 86.8691 72.196C86.4638 72.0147 86.1118 71.7533 85.8131 71.412C85.5251 71.06 85.3811 70.6013 85.3811 70.036C85.3811 69.588 85.5145 69.1773 85.7811 68.804C86.0478 68.4307 86.4265 68.1373 86.9171 67.924C87.4078 67.7 87.9678 67.588 88.5971 67.588C89.5678 67.588 90.3518 67.8333 90.9491 68.324C91.5465 68.8147 91.8665 69.4867 91.9091 70.34H90.4531C90.4211 69.8813 90.2345 69.5133 89.8931 69.236C89.5625 68.9587 89.1145 68.82 88.5491 68.82C88.0265 68.82 87.6105 68.932 87.3011 69.156C86.9918 69.38 86.8371 69.6733 86.8371 70.036C86.8371 70.324 86.9278 70.564 87.1091 70.756C87.3011 70.9373 87.5358 71.0867 87.8131 71.204C88.1011 71.3107 88.4958 71.4333 88.9971 71.572C89.6265 71.7427 90.1385 71.9133 90.5331 72.084C90.9278 72.244 91.2638 72.4893 91.5411 72.82C91.8291 73.1507 91.9785 73.5827 91.9891 74.116C91.9891 74.596 91.8558 75.028 91.5891 75.412C91.3225 75.796 90.9438 76.1 90.4531 76.324C89.9731 76.5373 89.4185 76.644 88.7891 76.644ZM102.045 71.78C102.045 72.0573 102.029 72.3507 101.997 72.66H94.9885C95.0418 73.524 95.3352 74.2013 95.8685 74.692C96.4125 75.172 97.0685 75.412 97.8365 75.412C98.4658 75.412 98.9885 75.268 99.4045 74.98C99.8312 74.6813 100.13 74.2867 100.301 73.796H101.869C101.634 74.6387 101.165 75.3267 100.461 75.86C99.7565 76.3827 98.8818 76.644 97.8365 76.644C97.0045 76.644 96.2578 76.4573 95.5965 76.084C94.9458 75.7107 94.4338 75.1827 94.0605 74.5C93.6872 73.8067 93.5005 73.0067 93.5005 72.1C93.5005 71.1933 93.6818 70.3987 94.0445 69.716C94.4072 69.0333 94.9138 68.5107 95.5645 68.148C96.2258 67.7747 96.9832 67.588 97.8365 67.588C98.6685 67.588 99.4045 67.7693 100.045 68.132C100.685 68.4947 101.175 68.996 101.517 69.636C101.869 70.2653 102.045 70.98 102.045 71.78ZM100.541 71.476C100.541 70.9213 100.418 70.4467 100.173 70.052C99.9272 69.6467 99.5912 69.3427 99.1645 69.14C98.7485 68.9267 98.2845 68.82 97.7725 68.82C97.0365 68.82 96.4072 69.0547 95.8845 69.524C95.3725 69.9933 95.0792 70.644 95.0045 71.476H100.541ZM105.422 69.156C105.678 68.6547 106.041 68.2653 106.51 67.988C106.99 67.7107 107.572 67.572 108.254 67.572V69.076H107.87C106.238 69.076 105.422 69.9613 105.422 71.732V76.5H103.966V67.732H105.422V69.156ZM113.039 76.644C112.367 76.644 111.764 76.532 111.231 76.308C110.698 76.0733 110.276 75.7533 109.967 75.348C109.658 74.932 109.487 74.4573 109.455 73.924H110.959C111.002 74.3613 111.204 74.7187 111.567 74.996C111.94 75.2733 112.426 75.412 113.023 75.412C113.578 75.412 114.015 75.2893 114.335 75.044C114.655 74.7987 114.815 74.4893 114.815 74.116C114.815 73.732 114.644 73.4493 114.303 73.268C113.962 73.076 113.434 72.8893 112.719 72.708C112.068 72.5373 111.535 72.3667 111.119 72.196C110.714 72.0147 110.362 71.7533 110.063 71.412C109.775 71.06 109.631 70.6013 109.631 70.036C109.631 69.588 109.764 69.1773 110.031 68.804C110.298 68.4307 110.676 68.1373 111.167 67.924C111.658 67.7 112.218 67.588 112.847 67.588C113.818 67.588 114.602 67.8333 115.199 68.324C115.796 68.8147 116.116 69.4867 116.159 70.34H114.703C114.671 69.8813 114.484 69.5133 114.143 69.236C113.812 68.9587 113.364 68.82 112.799 68.82C112.276 68.82 111.86 68.932 111.551 69.156C111.242 69.38 111.087 69.6733 111.087 70.036C111.087 70.324 111.178 70.564 111.359 70.756C111.551 70.9373 111.786 71.0867 112.063 71.204C112.351 71.3107 112.746 71.4333 113.247 71.572C113.876 71.7427 114.388 71.9133 114.783 72.084C115.178 72.244 115.514 72.4893 115.791 72.82C116.079 73.1507 116.228 73.5827 116.239 74.116C116.239 74.596 116.106 75.028 115.839 75.412C115.572 75.796 115.194 76.1 114.703 76.324C114.223 76.5373 113.668 76.644 113.039 76.644Z" fill="white"/>
<defs>
<clipPath id="clip0_500_2365">
<rect width="167.883" height="32" fill="white" transform="translate(274.938 28.5)"/>
</clipPath>
<clipPath id="clip1_500_2365">
<rect width="141.254" height="32" fill="white" transform="translate(504.13 28.5)"/>
</clipPath>
<clipPath id="clip2_500_2365">
<rect width="159.508" height="32" fill="white" transform="translate(965.626 28.5)"/>
</clipPath>
<clipPath id="clip3_500_2365">
<rect width="141.478" height="32" fill="white" transform="translate(1186.52 28.5)"/>
</clipPath>
</defs>
</svg>
