<?xml version="1.0" encoding="UTF-8"?><svg xmlns="http://www.w3.org/2000/svg" xmlns:xlink="http://www.w3.org/1999/xlink" viewBox="0 0 352.02 377.86"><defs><style>.cls-1{fill:url(#linear-gradient-2);}.cls-2{fill:#3596d8;}.cls-3{fill:#f77272;}.cls-4,.cls-5,.cls-6{fill:#fff;}.cls-7{fill:#dc433e;}.cls-5,.cls-8{opacity:.5;}.cls-5,.cls-8,.cls-9,.cls-10,.cls-11{mix-blend-mode:soft-light;}.cls-12{fill:#fe5c42;}.cls-13,.cls-6,.cls-14,.cls-15{font-family:Poppins-Regular, Poppins;}.cls-13,.cls-6,.cls-15{font-size:6.21px;}.cls-13,.cls-14,.cls-16{fill:#bfb0af;}.cls-17{isolation:isolate;}.cls-18{fill:#129d74;}.cls-19{fill:#3574e2;}.cls-20{fill:#4454e8;}.cls-21{fill:#108c63;}.cls-22{fill:#ffaf18;}.cls-23{fill:#69a7fe;}.cls-9{opacity:.3;}.cls-10{opacity:.6;}.cls-24{fill:#e05c5c;}.cls-11{opacity:.8;}.cls-25{opacity:.1;}.cls-26{fill:#e8bd34;}.cls-27{fill:#f2f6ff;}.cls-28{fill:#2e30a3;}.cls-29{fill:#2866bf;}.cls-30{fill:#4cd630;}.cls-31{fill:url(#linear-gradient-3);}.cls-32{fill:#ee6a65;}.cls-33{fill:url(#linear-gradient);}.cls-34{fill:#8ec0fd;}.cls-14{font-size:7.33px;}.cls-35{fill:#3c98e4;}.cls-36{fill:#f4b799;}.cls-37{fill:#f2f2f2;}.cls-15{fill:#dbcecc;}.cls-38{fill:#c7defe;}.cls-39{fill:#ededed;}</style><linearGradient id="linear-gradient" x1="143.8" y1="221.9" x2="143.8" y2="81.85" gradientUnits="userSpaceOnUse"><stop offset="0" stop-color="#ededed"/><stop offset=".04" stop-color="#f6f6f6"/><stop offset=".11" stop-color="#fdfdfd"/><stop offset=".29" stop-color="#fff"/></linearGradient><linearGradient id="linear-gradient-2" x1="246.24" y1="209.11" x2="358.3" y2="209.11" gradientTransform="translate(209.23 -301.53) rotate(44.58)" gradientUnits="userSpaceOnUse"><stop offset="0" stop-color="#389ad0"/><stop offset=".98" stop-color="#368cc7"/></linearGradient><linearGradient id="linear-gradient-3" x1="246.24" y1="205.39" x2="358.3" y2="205.39" gradientTransform="translate(206.47 -302.18) rotate(44.37)" gradientUnits="userSpaceOnUse"><stop offset="0" stop-color="#44bbfc"/><stop offset=".98" stop-color="#42abf3"/></linearGradient></defs><g class="cls-17"><g id="Layer_2"><g id="OBJECTS"><g><g><path class="cls-39" d="m225.12,290.68c0,.8-1.86,1.57-5.26,2.29-4.08.85-10.41,1.63-18.42,2.27-2.18.17-4.49.34-6.93.5-5.69.36-12.02.68-18.85.92-10.84.38-22.9.6-35.62.6-46.98,0-85.07-2.94-85.07-6.58,0-2.6,19.33-4.83,47.42-5.9,11.34-.43,24.14-.68,37.66-.68s25.29.23,36.29.63c2.83.1,5.57.21,8.2.34,5.13.25,9.9.53,14.23.85.4.03.8.06,1.19.09,8.5.65,15.23,1.44,19.58,2.32,3.61.74,5.59,1.52,5.59,2.36Z"/><g><g><path class="cls-38" d="m188.08,291.65h-94.64v-.13c0-2.73,1.97-5.03,4.67-5.53,1.53-.28,2.96-.69,4.28-1.21,13.55-5.22,16.86-21.47,17.67-28.66t0-.02h0c.23-2.14.25-3.47.25-3.47l17.19,1.07,24.28,1.53c.03.29.06.57.11.86.21,1.87.55,3.63.97,5.29v.02c2.54,9.88,8.34,15.88,13.74,19.46,2.35,1.57,4.62,2.67,6.52,3.44.51.2.99.46,1.43.76.87.57,1.61,1.3,2.18,2.16.86,1.27,1.35,2.81,1.35,4.43Z"/><path class="cls-8" d="m162.86,261.39v.02c-21.58,1.54-41.62-4.9-42.8-5.29-.04-.01-.06-.02-.06-.02h.06s17.44-2.39,17.44-2.39l24.28,1.52c.22,2.2.58,4.25,1.08,6.16Z"/><path class="cls-27" d="m281.53,75.44v166.92c0,7.59-6.15,13.74-13.74,13.74H13.74c-7.59,0-13.74-6.15-13.74-13.74V75.44c0-7.6,6.15-13.75,13.74-13.75h254.05c7.59,0,13.74,6.15,13.74,13.75Z"/><rect class="cls-34" x="11.7" y="74.05" width="258.12" height="155.39"/></g><path class="cls-9" d="m236.5,96.73v116.57c0,5.92-4.14,10.72-9.24,10.72H64.03c-5.1,0-9.24-4.8-9.24-10.72v-116.57c0-5.92,4.13-10.72,9.24-10.72h163.23c5.1,0,9.24,4.8,9.24,10.72Z"/><g><g><g><path class="cls-33" d="m234.65,92.72v118.3c0,6.01-4.14,10.88-9.24,10.88H62.19c-5.1,0-9.24-4.87-9.24-10.88v-118.3c0-6.01,4.13-10.88,9.24-10.88h163.23c5.1,0,9.24,4.87,9.24,10.88Z"/><path class="cls-23" d="m234.65,92.73v7.84H52.95v-7.84c0-6.01,4.13-10.88,9.24-10.88h163.23c5.1,0,9.24,4.87,9.24,10.88Z"/><g><g><path class="cls-8" d="m68.75,92.86c0,2.28-1.84,4.12-4.12,4.12s-4.12-1.85-4.12-4.12,1.84-4.12,4.12-4.12,4.12,1.85,4.12,4.12Z"/><path class="cls-12" d="m68.87,92.59c0,2.28-1.84,4.12-4.12,4.12s-4.12-1.84-4.12-4.12,1.85-4.12,4.12-4.12,4.12,1.85,4.12,4.12Z"/></g><g><path class="cls-8" d="m79.59,92.86c0,2.28-1.84,4.12-4.12,4.12s-4.12-1.85-4.12-4.12,1.84-4.12,4.12-4.12,4.12,1.85,4.12,4.12Z"/><path class="cls-26" d="m79.71,92.59c0,2.28-1.84,4.12-4.12,4.12s-4.12-1.84-4.12-4.12,1.84-4.12,4.12-4.12,4.12,1.85,4.12,4.12Z"/></g><g><path class="cls-8" d="m90.43,92.86c0,2.28-1.84,4.12-4.12,4.12s-4.12-1.85-4.12-4.12,1.85-4.12,4.12-4.12,4.12,1.85,4.12,4.12Z"/><path class="cls-30" d="m90.55,92.59c0,2.28-1.85,4.12-4.12,4.12s-4.12-1.84-4.12-4.12,1.84-4.12,4.12-4.12,4.12,1.85,4.12,4.12Z"/></g></g><rect class="cls-25" x="52.94" y="100.57" width="181.71" height="2.09"/></g><g><rect class="cls-8" x="61.98" y="190.97" width="23.38" height="23.38" rx="2.24" ry="2.24"/><rect class="cls-8" x="85.36" y="190.97" width="23.38" height="23.38" rx="2.24" ry="2.24"/><rect class="cls-8" x="108.73" y="190.97" width="23.38" height="23.38" rx="2.24" ry="2.24"/><rect class="cls-8" x="132.11" y="190.97" width="23.38" height="23.38" rx="2.24" ry="2.24"/><rect class="cls-8" x="155.49" y="190.97" width="23.38" height="23.38" rx="2.24" ry="2.24"/><rect class="cls-8" x="178.87" y="190.97" width="23.38" height="23.38" rx="2.24" ry="2.24"/><rect class="cls-8" x="202.25" y="190.97" width="23.38" height="23.38" rx="2.24" ry="2.24"/></g><g><g><g><rect class="cls-37" x="61.97" y="120.26" width="23.38" height="23.38" rx="2.24" ry="2.24"/><path class="cls-5" d="m83.11,120.26h-18.9c-1.24,0-2.24,1-2.24,2.24v.55c0-1.24,1-2.24,2.24-2.24h18.9c1.24,0,2.24,1,2.24,2.24v-.55c0-1.24-1-2.24-2.24-2.24Z"/><path class="cls-8" d="m83.11,143.03h-18.9c-1.24,0-2.24-1-2.24-2.24v.62c0,1.24,1,2.24,2.24,2.24h18.9c1.24,0,2.24-1,2.24-2.24v-.62c0,1.24-1,2.24-2.24,2.24Z"/></g><text class="cls-15" transform="translate(63.83 127.2)"><tspan x="0" y="0">31</tspan></text></g><g><g><rect class="cls-37" x="85.35" y="120.26" width="23.38" height="23.38" rx="2.24" ry="2.24"/><path class="cls-5" d="m106.49,120.26h-18.9c-1.24,0-2.24,1-2.24,2.24v.55c0-1.24,1-2.24,2.24-2.24h18.9c1.24,0,2.24,1,2.24,2.24v-.55c0-1.24-1-2.24-2.24-2.24Z"/><path class="cls-8" d="m106.49,143.03h-18.9c-1.24,0-2.24-1-2.24-2.24v.62c0,1.24,1,2.24,2.24,2.24h18.9c1.24,0,2.24-1,2.24-2.24v-.62c0,1.24-1,2.24-2.24,2.24Z"/></g><text class="cls-13" transform="translate(87.81 127.2)"><tspan x="0" y="0">1</tspan></text></g><g><g><rect class="cls-37" x="108.73" y="120.26" width="23.38" height="23.38" rx="2.24" ry="2.24"/><path class="cls-5" d="m129.87,120.26h-18.9c-1.24,0-2.24,1-2.24,2.24v.55c0-1.24,1-2.24,2.24-2.24h18.9c1.24,0,2.24,1,2.24,2.24v-.55c0-1.24-1-2.24-2.24-2.24Z"/><path class="cls-8" d="m129.87,143.03h-18.9c-1.24,0-2.24-1-2.24-2.24v.62c0,1.24,1,2.24,2.24,2.24h18.9c1.24,0,2.24-1,2.24-2.24v-.62c0,1.24-1,2.24-2.24,2.24Z"/></g><text class="cls-13" transform="translate(111.58 127.2)"><tspan x="0" y="0">2</tspan></text></g><g><g><rect class="cls-37" x="132.11" y="120.26" width="23.38" height="23.38" rx="2.24" ry="2.24"/><path class="cls-5" d="m153.25,120.26h-18.9c-1.24,0-2.24,1-2.24,2.24v.55c0-1.24,1-2.24,2.24-2.24h18.9c1.24,0,2.24,1,2.24,2.24v-.55c0-1.24-1-2.24-2.24-2.24Z"/><path class="cls-8" d="m153.25,143.03h-18.9c-1.24,0-2.24-1-2.24-2.24v.62c0,1.24,1,2.24,2.24,2.24h18.9c1.24,0,2.24-1,2.24-2.24v-.62c0,1.24-1,2.24-2.24,2.24Z"/></g><text class="cls-13" transform="translate(134.28 127.2)"><tspan x="0" y="0">3</tspan></text></g><g><g><rect class="cls-37" x="155.49" y="120.26" width="23.38" height="23.38" rx="2.24" ry="2.24"/><path class="cls-5" d="m176.63,120.26h-18.9c-1.24,0-2.24,1-2.24,2.24v.55c0-1.24,1-2.24,2.24-2.24h18.9c1.24,0,2.24,1,2.24,2.24v-.55c0-1.24-1-2.24-2.24-2.24Z"/><path class="cls-8" d="m176.63,143.03h-18.9c-1.24,0-2.24-1-2.24-2.24v.62c0,1.24,1,2.24,2.24,2.24h18.9c1.24,0,2.24-1,2.24-2.24v-.62c0,1.24-1,2.24-2.24,2.24Z"/></g><text class="cls-13" transform="translate(157.27 127.2)"><tspan x="0" y="0">4</tspan></text></g><g><g><rect class="cls-37" x="178.87" y="120.26" width="23.38" height="23.38" rx="2.24" ry="2.24"/><path class="cls-5" d="m200.01,120.26h-18.9c-1.24,0-2.24,1-2.24,2.24v.55c0-1.24,1-2.24,2.24-2.24h18.9c1.24,0,2.24,1,2.24,2.24v-.55c0-1.24-1-2.24-2.24-2.24Z"/><path class="cls-8" d="m200.01,143.03h-18.9c-1.24,0-2.24-1-2.24-2.24v.62c0,1.24,1,2.24,2.24,2.24h18.9c1.24,0,2.24-1,2.24-2.24v-.62c0,1.24-1,2.24-2.24,2.24Z"/></g><text class="cls-13" transform="translate(181.25 127.2)"><tspan x="0" y="0">5</tspan></text></g><g><g><rect class="cls-37" x="202.25" y="120.26" width="23.38" height="23.38" rx="2.24" ry="2.24"/><path class="cls-5" d="m223.39,120.26h-18.9c-1.24,0-2.24,1-2.24,2.24v.55c0-1.24,1-2.24,2.24-2.24h18.9c1.24,0,2.24,1,2.24,2.24v-.55c0-1.24-1-2.24-2.24-2.24Z"/><path class="cls-8" d="m223.39,143.03h-18.9c-1.24,0-2.24-1-2.24-2.24v.62c0,1.24,1,2.24,2.24,2.24h18.9c1.24,0,2.24-1,2.24-2.24v-.62c0,1.24-1,2.24-2.24,2.24Z"/></g><text class="cls-13" transform="translate(204.14 127.2)"><tspan x="0" y="0">6</tspan></text></g><g><g><rect class="cls-37" x="61.97" y="143.64" width="23.38" height="23.38" rx="2.24" ry="2.24"/><path class="cls-5" d="m83.11,143.64h-18.9c-1.24,0-2.24,1-2.24,2.24v.55c0-1.24,1-2.24,2.24-2.24h18.9c1.24,0,2.24,1,2.24,2.24v-.55c0-1.24-1-2.24-2.24-2.24Z"/><path class="cls-8" d="m83.11,166.41h-18.9c-1.24,0-2.24-1-2.24-2.24v.62c0,1.24,1,2.24,2.24,2.24h18.9c1.24,0,2.24-1,2.24-2.24v-.62c0,1.24-1,2.24-2.24,2.24Z"/></g><text class="cls-13" transform="translate(63.83 150.58)"><tspan x="0" y="0">7</tspan></text></g><g><g><rect class="cls-37" x="85.35" y="143.64" width="23.38" height="23.38" rx="2.24" ry="2.24"/><path class="cls-5" d="m106.49,143.64h-18.9c-1.24,0-2.24,1-2.24,2.24v.55c0-1.24,1-2.24,2.24-2.24h18.9c1.24,0,2.24,1,2.24,2.24v-.55c0-1.24-1-2.24-2.24-2.24Z"/><path class="cls-8" d="m106.49,166.41h-18.9c-1.24,0-2.24-1-2.24-2.24v.62c0,1.24,1,2.24,2.24,2.24h18.9c1.24,0,2.24-1,2.24-2.24v-.62c0,1.24-1,2.24-2.24,2.24Z"/></g><text class="cls-13" transform="translate(87.81 150.58)"><tspan x="0" y="0">8</tspan></text></g><g><g><rect class="cls-7" x="108.73" y="143.64" width="23.38" height="23.38" rx="2.24" ry="2.24"/><path class="cls-5" d="m129.87,143.64h-18.9c-1.24,0-2.24,1-2.24,2.24v.55c0-1.24,1-2.24,2.24-2.24h18.9c1.24,0,2.24,1,2.24,2.24v-.55c0-1.24-1-2.24-2.24-2.24Z"/><path class="cls-8" d="m129.87,166.41h-18.9c-1.24,0-2.24-1-2.24-2.24v.62c0,1.24,1,2.24,2.24,2.24h18.9c1.24,0,2.24-1,2.24-2.24v-.62c0,1.24-1,2.24-2.24,2.24Z"/></g><text class="cls-6" transform="translate(111.58 150.58)"><tspan x="0" y="0">9</tspan></text></g><g><g><rect class="cls-37" x="132.11" y="143.64" width="23.38" height="23.38" rx="2.24" ry="2.24"/><path class="cls-5" d="m153.25,143.64h-18.9c-1.24,0-2.24,1-2.24,2.24v.55c0-1.24,1-2.24,2.24-2.24h18.9c1.24,0,2.24,1,2.24,2.24v-.55c0-1.24-1-2.24-2.24-2.24Z"/><path class="cls-8" d="m153.25,166.41h-18.9c-1.24,0-2.24-1-2.24-2.24v.62c0,1.24,1,2.24,2.24,2.24h18.9c1.24,0,2.24-1,2.24-2.24v-.62c0,1.24-1,2.24-2.24,2.24Z"/></g><text class="cls-13" transform="translate(134.28 150.58)"><tspan x="0" y="0">10</tspan></text></g><g><g><rect class="cls-37" x="155.49" y="143.64" width="23.38" height="23.38" rx="2.24" ry="2.24"/><path class="cls-5" d="m176.63,143.64h-18.9c-1.24,0-2.24,1-2.24,2.24v.55c0-1.24,1-2.24,2.24-2.24h18.9c1.24,0,2.24,1,2.24,2.24v-.55c0-1.24-1-2.24-2.24-2.24Z"/><path class="cls-8" d="m176.63,166.41h-18.9c-1.24,0-2.24-1-2.24-2.24v.62c0,1.24,1,2.24,2.24,2.24h18.9c1.24,0,2.24-1,2.24-2.24v-.62c0,1.24-1,2.24-2.24,2.24Z"/></g><text class="cls-13" transform="translate(157.27 150.58)"><tspan x="0" y="0">11</tspan></text></g><g><g><rect class="cls-37" x="178.87" y="143.64" width="23.38" height="23.38" rx="2.24" ry="2.24"/><path class="cls-5" d="m200.01,143.64h-18.9c-1.24,0-2.24,1-2.24,2.24v.55c0-1.24,1-2.24,2.24-2.24h18.9c1.24,0,2.24,1,2.24,2.24v-.55c0-1.24-1-2.24-2.24-2.24Z"/><path class="cls-8" d="m200.01,166.41h-18.9c-1.24,0-2.24-1-2.24-2.24v.62c0,1.24,1,2.24,2.24,2.24h18.9c1.24,0,2.24-1,2.24-2.24v-.62c0,1.24-1,2.24-2.24,2.24Z"/></g><text class="cls-13" transform="translate(181.25 150.58)"><tspan x="0" y="0">12</tspan></text></g><g><g><rect class="cls-37" x="202.25" y="143.64" width="23.38" height="23.38" rx="2.24" ry="2.24"/><path class="cls-5" d="m223.39,143.64h-18.9c-1.24,0-2.24,1-2.24,2.24v.55c0-1.24,1-2.24,2.24-2.24h18.9c1.24,0,2.24,1,2.24,2.24v-.55c0-1.24-1-2.24-2.24-2.24Z"/><path class="cls-8" d="m223.39,166.41h-18.9c-1.24,0-2.24-1-2.24-2.24v.62c0,1.24,1,2.24,2.24,2.24h18.9c1.24,0,2.24-1,2.24-2.24v-.62c0,1.24-1,2.24-2.24,2.24Z"/></g><text class="cls-13" transform="translate(204.14 150.58)"><tspan x="0" y="0">13</tspan></text></g><g><g><rect class="cls-37" x="61.97" y="167.03" width="23.38" height="23.38" rx="2.24" ry="2.24"/><path class="cls-5" d="m83.11,167.03h-18.9c-1.24,0-2.24,1-2.24,2.24v.55c0-1.24,1-2.24,2.24-2.24h18.9c1.24,0,2.24,1,2.24,2.24v-.55c0-1.24-1-2.24-2.24-2.24Z"/><path class="cls-8" d="m83.11,189.8h-18.9c-1.24,0-2.24-1-2.24-2.24v.62c0,1.24,1,2.24,2.24,2.24h18.9c1.24,0,2.24-1,2.24-2.24v-.62c0,1.24-1,2.24-2.24,2.24Z"/></g><text class="cls-13" transform="translate(63.83 173.97)"><tspan x="0" y="0">14</tspan></text></g><g><g><rect class="cls-37" x="85.35" y="167.03" width="23.38" height="23.38" rx="2.24" ry="2.24"/><path class="cls-5" d="m106.49,167.03h-18.9c-1.24,0-2.24,1-2.24,2.24v.55c0-1.24,1-2.24,2.24-2.24h18.9c1.24,0,2.24,1,2.24,2.24v-.55c0-1.24-1-2.24-2.24-2.24Z"/><path class="cls-8" d="m106.49,189.8h-18.9c-1.24,0-2.24-1-2.24-2.24v.62c0,1.24,1,2.24,2.24,2.24h18.9c1.24,0,2.24-1,2.24-2.24v-.62c0,1.24-1,2.24-2.24,2.24Z"/></g><text class="cls-13" transform="translate(87.81 173.97)"><tspan x="0" y="0">15</tspan></text></g><g><g><rect class="cls-37" x="108.73" y="167.03" width="23.38" height="23.38" rx="2.24" ry="2.24"/><path class="cls-5" d="m129.87,167.03h-18.9c-1.24,0-2.24,1-2.24,2.24v.55c0-1.24,1-2.24,2.24-2.24h18.9c1.24,0,2.24,1,2.24,2.24v-.55c0-1.24-1-2.24-2.24-2.24Z"/><path class="cls-8" d="m129.87,189.8h-18.9c-1.24,0-2.24-1-2.24-2.24v.62c0,1.24,1,2.24,2.24,2.24h18.9c1.24,0,2.24-1,2.24-2.24v-.62c0,1.24-1,2.24-2.24,2.24Z"/></g><text class="cls-13" transform="translate(111.58 173.97)"><tspan x="0" y="0">16</tspan></text></g><g><g><rect class="cls-37" x="132.11" y="167.03" width="23.38" height="23.38" rx="2.24" ry="2.24"/><path class="cls-5" d="m153.25,167.03h-18.9c-1.24,0-2.24,1-2.24,2.24v.55c0-1.24,1-2.24,2.24-2.24h18.9c1.24,0,2.24,1,2.24,2.24v-.55c0-1.24-1-2.24-2.24-2.24Z"/><path class="cls-8" d="m153.25,189.8h-18.9c-1.24,0-2.24-1-2.24-2.24v.62c0,1.24,1,2.24,2.24,2.24h18.9c1.24,0,2.24-1,2.24-2.24v-.62c0,1.24-1,2.24-2.24,2.24Z"/></g><text class="cls-13" transform="translate(134.28 173.97)"><tspan x="0" y="0">17</tspan></text></g><g><g><rect class="cls-37" x="155.49" y="167.03" width="23.38" height="23.38" rx="2.24" ry="2.24"/><path class="cls-5" d="m176.63,167.03h-18.9c-1.24,0-2.24,1-2.24,2.24v.55c0-1.24,1-2.24,2.24-2.24h18.9c1.24,0,2.24,1,2.24,2.24v-.55c0-1.24-1-2.24-2.24-2.24Z"/><path class="cls-8" d="m176.63,189.8h-18.9c-1.24,0-2.24-1-2.24-2.24v.62c0,1.24,1,2.24,2.24,2.24h18.9c1.24,0,2.24-1,2.24-2.24v-.62c0,1.24-1,2.24-2.24,2.24Z"/></g><text class="cls-13" transform="translate(157.27 173.97)"><tspan x="0" y="0">18</tspan></text></g><g><g><rect class="cls-37" x="178.87" y="167.03" width="23.38" height="23.38" rx="2.24" ry="2.24"/><path class="cls-5" d="m200.01,167.03h-18.9c-1.24,0-2.24,1-2.24,2.24v.55c0-1.24,1-2.24,2.24-2.24h18.9c1.24,0,2.24,1,2.24,2.24v-.55c0-1.24-1-2.24-2.24-2.24Z"/><path class="cls-8" d="m200.01,189.8h-18.9c-1.24,0-2.24-1-2.24-2.24v.62c0,1.24,1,2.24,2.24,2.24h18.9c1.24,0,2.24-1,2.24-2.24v-.62c0,1.24-1,2.24-2.24,2.24Z"/></g><text class="cls-13" transform="translate(181.25 173.97)"><tspan x="0" y="0">19</tspan></text></g><g><g><rect class="cls-37" x="202.25" y="167.03" width="23.38" height="23.38" rx="2.24" ry="2.24"/><path class="cls-5" d="m223.39,167.03h-18.9c-1.24,0-2.24,1-2.24,2.24v.55c0-1.24,1-2.24,2.24-2.24h18.9c1.24,0,2.24,1,2.24,2.24v-.55c0-1.24-1-2.24-2.24-2.24Z"/><path class="cls-8" d="m223.39,189.8h-18.9c-1.24,0-2.24-1-2.24-2.24v.62c0,1.24,1,2.24,2.24,2.24h18.9c1.24,0,2.24-1,2.24-2.24v-.62c0,1.24-1,2.24-2.24,2.24Z"/></g><text class="cls-13" transform="translate(204.14 173.97)"><tspan x="0" y="0">20</tspan></text></g><g><g><rect class="cls-37" x="61.97" y="190.41" width="23.38" height="23.38" rx="2.24" ry="2.24"/><path class="cls-5" d="m83.11,190.41h-18.9c-1.24,0-2.24,1-2.24,2.24v.55c0-1.24,1-2.24,2.24-2.24h18.9c1.24,0,2.24,1,2.24,2.24v-.55c0-1.24-1-2.24-2.24-2.24Z"/><path class="cls-8" d="m83.11,213.18h-18.9c-1.24,0-2.24-1-2.24-2.24v.62c0,1.24,1,2.24,2.24,2.24h18.9c1.24,0,2.24-1,2.24-2.24v-.62c0,1.24-1,2.24-2.24,2.24Z"/></g><text class="cls-13" transform="translate(63.83 197.36)"><tspan x="0" y="0">21</tspan></text></g><g><g><rect class="cls-37" x="85.35" y="190.41" width="23.38" height="23.38" rx="2.24" ry="2.24"/><path class="cls-5" d="m106.49,190.41h-18.9c-1.24,0-2.24,1-2.24,2.24v.55c0-1.24,1-2.24,2.24-2.24h18.9c1.24,0,2.24,1,2.24,2.24v-.55c0-1.24-1-2.24-2.24-2.24Z"/><path class="cls-8" d="m106.49,213.18h-18.9c-1.24,0-2.24-1-2.24-2.24v.62c0,1.24,1,2.24,2.24,2.24h18.9c1.24,0,2.24-1,2.24-2.24v-.62c0,1.24-1,2.24-2.24,2.24Z"/></g><text class="cls-13" transform="translate(87.81 197.36)"><tspan x="0" y="0">22</tspan></text></g><g><g><rect class="cls-37" x="108.73" y="190.41" width="23.38" height="23.38" rx="2.24" ry="2.24"/><path class="cls-5" d="m129.87,190.41h-18.9c-1.24,0-2.24,1-2.24,2.24v.55c0-1.24,1-2.24,2.24-2.24h18.9c1.24,0,2.24,1,2.24,2.24v-.55c0-1.24-1-2.24-2.24-2.24Z"/><path class="cls-8" d="m129.87,213.18h-18.9c-1.24,0-2.24-1-2.24-2.24v.62c0,1.24,1,2.24,2.24,2.24h18.9c1.24,0,2.24-1,2.24-2.24v-.62c0,1.24-1,2.24-2.24,2.24Z"/></g><text class="cls-13" transform="translate(111.58 197.36)"><tspan x="0" y="0">23</tspan></text></g><g><g><rect class="cls-37" x="132.11" y="190.41" width="23.38" height="23.38" rx="2.24" ry="2.24"/><path class="cls-5" d="m153.25,190.41h-18.9c-1.24,0-2.24,1-2.24,2.24v.55c0-1.24,1-2.24,2.24-2.24h18.9c1.24,0,2.24,1,2.24,2.24v-.55c0-1.24-1-2.24-2.24-2.24Z"/><path class="cls-8" d="m153.25,213.18h-18.9c-1.24,0-2.24-1-2.24-2.24v.62c0,1.24,1,2.24,2.24,2.24h18.9c1.24,0,2.24-1,2.24-2.24v-.62c0,1.24-1,2.24-2.24,2.24Z"/></g><text class="cls-13" transform="translate(134.28 197.36)"><tspan x="0" y="0">24</tspan></text></g><g><g><rect class="cls-37" x="155.49" y="190.41" width="23.38" height="23.38" rx="2.24" ry="2.24"/><path class="cls-5" d="m176.63,190.41h-18.9c-1.24,0-2.24,1-2.24,2.24v.55c0-1.24,1-2.24,2.24-2.24h18.9c1.24,0,2.24,1,2.24,2.24v-.55c0-1.24-1-2.24-2.24-2.24Z"/><path class="cls-8" d="m176.63,213.18h-18.9c-1.24,0-2.24-1-2.24-2.24v.62c0,1.24,1,2.24,2.24,2.24h18.9c1.24,0,2.24-1,2.24-2.24v-.62c0,1.24-1,2.24-2.24,2.24Z"/></g><text class="cls-13" transform="translate(157.27 197.36)"><tspan x="0" y="0">25</tspan></text></g><g><g><rect class="cls-37" x="178.87" y="190.41" width="23.38" height="23.38" rx="2.24" ry="2.24"/><path class="cls-5" d="m200.01,190.41h-18.9c-1.24,0-2.24,1-2.24,2.24v.55c0-1.24,1-2.24,2.24-2.24h18.9c1.24,0,2.24,1,2.24,2.24v-.55c0-1.24-1-2.24-2.24-2.24Z"/><path class="cls-8" d="m200.01,213.18h-18.9c-1.24,0-2.24-1-2.24-2.24v.62c0,1.24,1,2.24,2.24,2.24h18.9c1.24,0,2.24-1,2.24-2.24v-.62c0,1.24-1,2.24-2.24,2.24Z"/></g><text class="cls-13" transform="translate(181.25 197.36)"><tspan x="0" y="0">26</tspan></text></g><g><g><rect class="cls-37" x="202.25" y="190.41" width="23.38" height="23.38" rx="2.24" ry="2.24"/><path class="cls-5" d="m223.39,190.41h-18.9c-1.24,0-2.24,1-2.24,2.24v.55c0-1.24,1-2.24,2.24-2.24h18.9c1.24,0,2.24,1,2.24,2.24v-.55c0-1.24-1-2.24-2.24-2.24Z"/><path class="cls-8" d="m223.39,213.18h-18.9c-1.24,0-2.24-1-2.24-2.24v.62c0,1.24,1,2.24,2.24,2.24h18.9c1.24,0,2.24-1,2.24-2.24v-.62c0,1.24-1,2.24-2.24,2.24Z"/></g><text class="cls-13" transform="translate(204.14 197.36)"><tspan x="0" y="0">27</tspan></text></g></g><g><g><path class="cls-37" d="m183.93,116.96h-80.26c-2.98,0-5.4-2.42-5.4-5.4h0c0-2.98,2.42-5.4,5.4-5.4h80.26c2.98,0,5.4,2.42,5.4,5.4h0c0,2.98-2.42,5.4-5.4,5.4Z"/><path class="cls-5" d="m183.93,106.17h-80.26c-2.98,0-5.4,2.42-5.4,5.4h0c0,.07,0,.13,0,.2.1-2.89,2.47-5.2,5.39-5.2h80.26c2.91,0,5.28,2.31,5.39,5.2,0-.07.01-.13.01-.2h0c0-2.98-2.42-5.4-5.4-5.4Z"/><path class="cls-8" d="m183.93,116.27h-80.26c-2.86,0-5.2-2.23-5.38-5.05,0,.11-.02.23-.02.34h0c0,2.98,2.42,5.4,5.4,5.4h80.26c2.98,0,5.4-2.42,5.4-5.4h0c0-.12-.01-.23-.02-.34-.18,2.82-2.51,5.05-5.38,5.05Z"/></g><text class="cls-14" transform="translate(129.39 114.25)"><tspan x="0" y="0">AUGUST</tspan></text><path class="cls-16" d="m182.62,114.54c-.08,0-.16-.03-.22-.1-.11-.12-.1-.31.02-.42l2.64-2.44-2.61-2.41c-.12-.11-.13-.3-.02-.42.11-.12.3-.13.42-.02l2.85,2.63c.06.06.09.13.09.22s-.03.16-.1.22l-2.88,2.65c-.06.05-.13.08-.2.08Z"/><path class="cls-16" d="m103.32,108.66c.08,0,.16.03.22.1.11.12.1.31-.02.42l-2.64,2.44,2.61,2.41c.12.11.13.3.02.42-.11.12-.3.13-.42.02l-2.85-2.63c-.06-.06-.09-.13-.09-.22s.03-.16.09-.22l2.88-2.65c.06-.05.13-.08.2-.08Z"/></g></g><path class="cls-3" d="m200.63,135.81h-65.67c-1.08,0-1.95-.87-1.95-1.95h0c0-1.08.87-1.95,1.95-1.95h65.67c1.08,0,1.95.87,1.95,1.95h0c0,1.08-.87,1.95-1.95,1.95Z"/><path class="cls-34" d="m176.79,207.99h-65.67c-1.08,0-1.95-.87-1.95-1.95h0c0-1.08.87-1.95,1.95-1.95h65.67c1.08,0,1.95.87,1.95,1.95h0c0,1.08-.87,1.95-1.95,1.95Z"/></g></g></g><g><path class="cls-11" d="m281.53,75.44v44.86c-3.88-.07-7.8-.54-11.7-1.45-1.37-.33-2.74-.69-4.1-1.12-12.33-3.85-22.38-11.58-29.23-21.42-.64-.92-1.26-1.87-1.84-2.83-1.26-2.05-2.39-4.2-3.36-6.4-.59-1.3-1.12-2.64-1.61-4-1.04-2.93-1.85-5.95-2.4-9.04-.71-4.03-1-8.17-.8-12.36h41.32c7.59,0,13.74,6.15,13.74,13.75Z"/><g><circle class="cls-1" cx="277.78" cy="59.59" r="56.03" transform="translate(3.48 133.55) rotate(-27.2)"/><circle class="cls-31" cx="278.89" cy="56.04" r="56.03" transform="translate(4.95 132.7) rotate(-27)"/><circle class="cls-35" cx="278.89" cy="56.04" r="49.49" transform="translate(100.48 277.61) rotate(-62.52)"/><path class="cls-9" d="m290.75,17.7c24.61,7.7,38.92,32.84,33.61,57.56.59-1.4,1.12-2.84,1.58-4.32,8.16-26.09-6.36-53.85-32.45-62.01-26.09-8.16-53.85,6.36-62.01,32.45-.46,1.48-.84,2.96-1.16,4.45,9.73-23.34,35.82-35.83,60.43-28.13Z"/><g><path class="cls-4" d="m289.21,23.43h0c-.62-.2-.97-.86-.78-1.48l2.89-9.25c.2-.62.86-.97,1.48-.78h0c.62.2.97.86.78,1.48l-2.89,9.25c-.2.62-.86.97-1.48.78Z"/><path class="cls-4" d="m271.52,22.64h0c-.64.14-1.27-.26-1.41-.9l-2.12-9.46c-.14-.64.26-1.27.9-1.41h0c.64-.14,1.27.26,1.41.9l2.12,9.46c.14.64-.26,1.27-.9,1.41Z"/><path class="cls-4" d="m255.81,30.8h0c-.48.44-1.23.41-1.67-.07l-6.56-7.13c-.44-.48-.41-1.23.07-1.67h0c.48-.44,1.23-.41,1.67.07l6.56,7.13c.44.48.41,1.23-.07,1.67Z"/><path class="cls-4" d="m246.28,45.73h0c-.2.62-.86.97-1.48.78l-9.25-2.89c-.62-.2-.97-.86-.78-1.48h0c.2-.62.86-.97,1.48-.78l9.25,2.89c.62.2.97.86.78,1.48Z"/><path class="cls-4" d="m245.49,63.41h0c.14.64-.26,1.27-.9,1.41l-9.46,2.12c-.64.14-1.27-.26-1.41-.9h0c-.14-.64.26-1.27.9-1.41l9.46-2.12c.64-.14,1.27.26,1.41.9Z"/><path class="cls-4" d="m253.65,79.13h0c.44.48.41,1.23-.07,1.67l-7.13,6.56c-.48.44-1.23.41-1.67-.07h0c-.44-.48-.41-1.23.07-1.67l7.13-6.56c.48-.44,1.23-.41,1.67.07Z"/><path class="cls-4" d="m268.58,88.66h0c.62.2.97.86.78,1.48l-2.89,9.25c-.2.62-.86.97-1.48.78h0c-.62-.2-.97-.86-.78-1.48l2.89-9.25c.2-.62.86-.97,1.48-.78Z"/><path class="cls-4" d="m286.26,89.45h0c.64-.14,1.27.26,1.41.9l2.12,9.46c.14.64-.26,1.27-.9,1.41h0c-.64.14-1.27-.26-1.41-.9l-2.12-9.46c-.14-.64.26-1.27.9-1.41Z"/><path class="cls-4" d="m301.98,81.29h0c.48-.44,1.23-.41,1.67.07l6.56,7.13c.44.48.41,1.23-.07,1.67h0c-.48.44-1.23.41-1.67-.07l-6.56-7.13c-.44-.48-.41-1.23.07-1.67Z"/><path class="cls-4" d="m311.51,66.36h0c.2-.62.86-.97,1.48-.78l9.25,2.89c.62.2.97.86.78,1.48h0c-.2.62-.86.97-1.48.78l-9.25-2.89c-.62-.2-.97-.86-.78-1.48Z"/><path class="cls-4" d="m312.3,48.68h0c-.14-.64.26-1.27.9-1.41l9.46-2.12c.64-.14,1.27.26,1.41.9h0c.14.64-.26,1.27-.9,1.41l-9.46,2.12c-.64.14-1.27-.26-1.41-.9Z"/><path class="cls-4" d="m304.14,32.96h0c-.44-.48-.41-1.23.07-1.67l7.13-6.56c.48-.44,1.23-.41,1.67.07h0c.44.48.41,1.23-.07,1.67l-7.13,6.56c-.48.44-1.23.41-1.67-.07Z"/></g><rect class="cls-9" x="258.07" y="50.51" width="21.94" height="3.26" rx=".85" ry=".85" transform="translate(27.85 -77.97) rotate(17.38)"/><rect class="cls-9" x="275.78" y="44.93" width="31" height="2.62" rx=".91" ry=".91" transform="translate(29.36 181.81) rotate(-36.39)"/><rect class="cls-4" x="275.72" y="44.37" width="31" height="2.62" rx=".91" ry=".91" transform="translate(29.68 181.66) rotate(-36.39)"/><rect class="cls-4" x="258.08" y="49.59" width="21.94" height="3.26" rx=".85" ry=".85" transform="translate(27.58 -78.02) rotate(17.38)"/><g><path class="cls-4" d="m284.41,52.8c.89,2.6-.5,5.43-3.1,6.32-2.6.89-5.43-.5-6.32-3.1-.89-2.6.5-5.43,3.1-6.32,2.6-.89,5.43.5,6.32,3.1Z"/><path class="cls-2" d="m281.98,53.63c.43,1.26-.24,2.63-1.5,3.06-1.26.43-2.63-.24-3.06-1.5-.43-1.26.24-2.63,1.5-3.06,1.26-.43,2.63.24,3.06,1.5Z"/></g></g></g><g><ellipse class="cls-39" cx="314.13" cy="315.78" rx="37.18" ry="7.7"/><g><g><path class="cls-21" d="m314.24,297.68l-.22-.26-3.57-4.05-.36-.41s14.52-30.45,16.16-74.64c1.63-44.19,30.18-26.43,25.18.4-3.52,18.88-11.79,52.67-37.19,78.95Z"/><path class="cls-9" d="m314.02,297.42l-3.57-4.05c28.21-41.82,27.33-89.3,27.27-91.55,2.42,47.73-15.08,81.86-23.7,95.6Z"/></g><g><path class="cls-21" d="m311.58,295.63l-.34-.02-5.39-.3-.54-.03s-11.49-31.72-41.81-63.91c-30.32-32.19,2.37-40.05,17.96-17.65,10.98,15.76,29.23,45.38,30.11,81.92Z"/><path class="cls-9" d="m311.24,295.61l-5.39-.3c-9.97-49.45-44.41-82.16-46.05-83.69,35.69,31.79,47.71,68.2,51.44,84Z"/></g><g><path class="cls-18" d="m312.5,307.25l-.38-.2-6.13-3.21-.62-.32s3.4-43.14-14.94-96.81c-18.35-53.67,24-45.52,30.34-11.09,4.46,24.23,10.08,68.5-8.26,111.64Z"/><path class="cls-9" d="m312.12,307.05l-6.13-3.21c14.57-63.04-8.3-119.5-9.41-122.17,24.83,56.05,19.56,104.96,15.54,125.38Z"/></g><polygon class="cls-22" points="334.12 286.76 330.04 319.14 295.41 319.14 291.95 291.69 291.35 286.93 291.32 286.76 334.12 286.76"/><path class="cls-9" d="m334.12,286.76l-4.09,32.38h-7.44c0-.11.01-.22.03-.33.25-2.17,1.99-3.79,3.26-5.56,3.23-4.46,3.72-10.31,3.69-15.82,0-.99-.04-2.04-.59-2.87-.6-.91-1.7-1.35-2.76-1.59-2.12-.46-4.32-.28-6.49-.15-2.74.16-5.49.25-8.23.25-4.88,0-9.77-.25-14.63-.75-1.04-.11-3.21-.19-4.94-.64-2.15-.55-3.61-1.65-1.4-4.06.24-.27.51-.5.8-.7.08-.06.17-.12.26-.17h42.52Z"/><rect class="cls-22" x="287.93" y="281.55" width="49.59" height="9.06"/></g></g><g><path class="cls-11" d="m225.64,201.19s0,0,0-.02c-1.51-3.94-3.98-6.59-6.13-8.3-.75-.67-1.68-1.32-2.81-1.9t-.02,0c-.37-.19-.77-.37-1.19-.55,0,0-.02,0-.03,0-.51-.21-1.05-.41-1.64-.58-.04,0-.07-.02-.11-.03-1.16-.35-2.48-.62-3.95-.8.08-3.75.34-7.75.98-11.21,1.34.26,2.7.48,4.05.28,1.57-.22,3.14-1.12,3.74-2.6.38-.95.32-2.02.56-3.02.47-1.99,1.99-3.41,3.5-4.87.19-.18.37-.36.57-.55.22-.22.43-.43.64-.66.34-.35.65-.72.94-1.1.34-.47.65-.97.9-1.49,1.17-2.4,1.32-5.28.34-7.75-.11-.26-.21-.5-.34-.72-1.63-3.09-4.8-3.25-6.78-5.69-1.41-1.73-1.92-3.65-2.87-5.42-.1-.18-.19-.36-.3-.55-.13-.21-.27-.41-.41-.61-.55-.77-1.24-1.49-2.21-2.16-3.13-2.14-6.99-3.02-10.8-3.08-.16,0-.32,0-.48,0-2.71,0-5.49.42-7.84,1.78-1.46.83-2.67,2.04-3.57,3.46-.12.2-.25.4-.36.61-.11.17-.19.35-.28.55-1.07,2.18-1.44,4.7-.9,7.08.34,1.52,1.06,2.93,2.03,4.15-1.1,3.22-2.05,7-2.32,10.99,0,.21-.03.41-.04.62,0,.18-.02.36-.02.55-.02.59-.02,1.19,0,1.78.19,8.41,3.12,13.12,7.7,14.31l-.11,5.73-16.3-.07h-1.77l-20.79-.09-1.7-1.6h0s-15.7-14.89-15.7-14.89l-.53.27c-.72-1.35-1.18-2.33-1.07-2.44.99-1.01.9-1.83.74-3.01-.03-.16-.05-.34-.08-.52v-.03c-.03-.19-.05-.39-.05-.62-.05-1.36.23-3.28.78-4.73.03-.07.06-.14.09-.21.04-.09.07-.17.11-.25h0c.04-.09.07-.16.11-.24.62-1.49.1-1.58-.65-1.45-.69.11-1.42.92-1.93,2.05-.35.79-.49,1.98-.85,2.22-.1.06-.28.19-.49.38-.35-.2-.68-1.32-1.18-2.16-.59-.99-1.85-3.38-2.66-4.97-.05-.1-.1-.19-.14-.29-1.15-2.24-2.31-4.28-3.21-3.81-1.15.61.3,3,1.33,5.15,1.02,2.12,1.7,3.06,1.45,3.02-.04,0-.07,0-.1,0-.48-.71-.93-1.09-1.65-.62-.49.32-.6.66-.5,1.07-.07.04-.12.07-.18.11-.28-.16-.59-.17-.98.08-.59.39-.62.82-.38,1.37-.03.05-.07.1-.1.15-.26-.16-.55-.17-.9.06-.29.18-.41.37-.45.57,0,.03-.02.06-.04.09-.21.54.05,1.44.5,2.42.1.2.19.41.31.62.1.18.19.36.29.55.76,1.34,1.66,2.6,2.04,3.04,1.36,1.56,1.99,2.08,2.71,2.28.11.04.22.06.34.08.28.05.98,1.12,1.82,2.62l-.67.34s3.19,7.3,6.96,13.86c.12.2.24.41.36.61h0c.11.19.21.37.33.56h0c2.22,3.77,4.58,7.1,6.57,8.44,1.27.86,4.09,2.07,7.67,3.42h0c1.07.41,2.22.83,3.42,1.26,3.6,1.28,7.65,2.63,11.56,3.9,2.95.95,5.83,1.85,8.38,2.64h0c.66.21,1.3.4,1.92.59-.05.62-.11,1.26-.15,1.91h0c-.02.21-.04.4-.05.6-.02.18-.04.36-.05.55-.2,2.42-.39,4.99-.59,7.63-.06.7-.11,1.41-.16,2.12-.12,1.79-.26,3.61-.39,5.42-.76,10.48-1.45,20.88-1.82,26.66h40.92c-.29-2.77-.6-6.45-.76-10.21.63-.94,1.23-1.82,1.75-2.62,3.08-4.61,3.69-7.64,4.64-13.83.24-1.58.51-3.36.84-5.42.11-.68.23-1.38.35-2.12.31-1.83.67-3.86,1.12-6.13,1.2-6.14.59-10.92-.81-14.58Z"/><g><ellipse class="cls-39" cx="186.5" cy="366.98" rx="52.5" ry="10.88"/><g><path class="cls-24" d="m211.7,190.27s15.27,5.45,11.35,25.49c-3.33,17.03-2.2,20.38-6.95,27.51-4.75,7.13-14.71,21.44-14.71,21.44l-4.91-6.93,14.19-27.58c.16-.31.2-.65.13-.99-.94-4.27-7.15-33.87.9-38.94Z"/><g><path class="cls-20" d="m182.39,369.89c-.72,1.53-1.87,2.6-3.6,2.72-3.95.26-22.35-2.86-23.07-7.53-.06-.39-.09-.75-.09-1.09-.05-3.72,3.17-4.51,6.68-3.94,3.83.62,9.58.04,9.58.04l11.39,2.64c.24,2.46.04,5.2-.89,7.17Z"/><path class="cls-9" d="m182.39,369.89c-.72,1.53-1.87,2.6-3.6,2.72-3.95.26-22.35-2.86-23.07-7.53-.06-.39-.09-.75-.09-1.09,1.2.45,2.33,1.4,3.34,1.97,3.92,2.23,8.35,3.45,12.82,3.92,2.47.25,4.96.28,7.44.11,1.03-.07,2.12-.15,3.16-.1Z"/></g><g><path class="cls-20" d="m217.94,368.53c-.72,1.53-1.87,2.6-3.6,2.72-3.95.26-22.35-2.86-23.06-7.53-.06-.39-.09-.75-.09-1.09-.05-3.72,3.17-4.51,6.68-3.94,3.83.62,9.58.04,9.58.04l11.39,2.63c.24,2.46.04,5.2-.89,7.17Z"/><path class="cls-9" d="m217.94,368.53c-.72,1.53-1.87,2.6-3.6,2.72-3.95.26-22.35-2.86-23.06-7.53-.06-.39-.09-.75-.09-1.09,1.2.45,2.33,1.4,3.34,1.97,3.92,2.23,8.35,3.45,12.82,3.92,2.47.25,4.96.28,7.44.11,1.03-.07,2.12-.15,3.16-.1Z"/></g><path class="cls-29" d="m219.58,361.48l-13.55-2.54c2.06-9.73-2.52-36.54-4.87-46.43-1-4.25-2.92-15.8-4.78-27.61-1.13-7.17-2.24-14.43-3.11-20.2-.32-2.11-.61-4.02-.85-5.66-.56-3.71-.9-6.01-.9-6.01l23.02,5.78s.12,2.84.34,7.27c.65,13.35,2.16,41.05,3.92,48.26,2.33,9.6.78,47.14.78,47.14Z"/><path class="cls-19" d="m207.82,259.15s-.38,3.08-1.4,7.17c-1.53,6.16-4.48,14.63-9.73,18.35-.1.08-.21.15-.31.24-7.05,5.76-8.53,33.12-8.53,33.12,0,0-1.19,38.23-4.5,45.35l-12.44-3.26s1.22-48.52,1.06-54.08c-.14-4.67,1.37-31.32,2.72-42.6.25-2.15.51-3.73.74-4.51l16.98.12,15.4.11Z"/><path class="cls-9" d="m214.88,266.08c-1.21.11-2.41.14-3.62.18-1.61.05-3.23.11-4.84.06-1.53-.04-3.06-.17-4.57-.47-1.23-.25-2.43-.6-3.66-.83-1.62-.29-3.27-.33-4.92-.32-.27,0-.53,0-.81.01-2.68.03-5.36.1-8.05.02-2.84-.09-6.83-.04-9.72-1.29.25-2.15.51-3.73.74-4.51l16.98.12c-.56-3.71-.9-6.01-.9-6.01l23.02,5.78s.12,2.84.34,7.27Z"/><g><path class="cls-36" d="m192.86,179.23l-.38,18.96,14.22,3.77s-1.66-20.6,2.1-29.45l-15.94,6.72Z"/><path class="cls-10" d="m192.77,183.41s9.07-2.25,11.74-6.66c0,0-2.98,8.4-11.76,8.07l.03-1.41Z"/><path class="cls-36" d="m191.92,145.64s-7.14,11.35-6.86,23.72c.27,12.37,6.49,16.74,15.14,13.7,8.65-3.04,12-18.59,10.25-26.47s-9.07-13.62-18.52-10.96Z"/><path class="cls-28" d="m209.65,140.87c-3.28-2.22-7.32-3.1-11.28-3.09-2.71,0-5.49.43-7.84,1.78-3.95,2.28-6.12,7.26-5.12,11.7,1.01,4.44,5.12,8,9.66,8.35,1.08.08,2.17,0,3.22.28,2.59.69,4.16,3.41,4.58,6.05.42,2.64-.01,5.34.04,8.02.01.63.06,1.28.35,1.83.62,1.18,2.08,1.57,3.39,1.84,1.56.32,3.15.65,4.73.42,1.57-.23,3.15-1.12,3.74-2.6.38-.95.32-2.02.55-3.01.7-3,3.8-4.71,5.64-7.18,1.95-2.6,2.43-6.23,1.24-9.25-1.5-3.79-4.99-3.79-7.12-6.41-2.36-2.89-2.18-6.29-5.79-8.74Z"/><path class="cls-36" d="m206.73,165.51c-.3,1.79-2,3-3.79,2.7-1.79-.3-3-2-2.7-3.79.3-1.79,2-3,3.79-2.7,1.79.3,3,2,2.7,3.79Z"/></g><path class="cls-36" d="m122.87,163.99s.03-.06.04-.09c.03-.2.16-.38.44-.57.36-.23.65-.23.91-.06.03-.05.06-.1.09-.15-.24-.54-.21-.98.39-1.37.38-.25.69-.24.97-.08.06-.04.12-.08.18-.11-.1-.41.01-.76.5-1.08.71-.46,1.17-.08,1.65.63.03,0,.06,0,.09,0,.26.03-.43-.9-1.45-3.02-1.04-2.15-2.48-4.55-1.33-5.15.9-.48,2.06,1.57,3.21,3.81.81,1.57,2.18,4.22,2.81,5.26.5.83.82,1.95,1.19,2.16.21-.19.38-.32.48-.39.37-.24.51-1.43.86-2.22.5-1.13,1.23-1.94,1.93-2.05.75-.13,1.27-.04.65,1.45-.03.07-.06.15-.1.23,0,0,0,0,0,0-.04.08-.07.17-.11.25-.03.07-.05.14-.08.21h0c-.64,1.7-.92,4.05-.73,5.38.2,1.46.46,2.38-.66,3.53-.37.38,5.52,10.25,6.44,11.65.92,1.41-4.88,3.91-5.52,2.7-.64-1.21-5.78-11.81-6.66-11.96s-1.48-.56-3.05-2.36c-.78-.89-3.69-5.18-3.13-6.62Z"/><path class="cls-32" d="m193.78,189.4l-39.99-.15-17.4-16.49-6.2,3.17s8.62,19.69,14.22,23.48c5.6,3.79,40.84,14.19,40.84,14.19l8.52-24.2Z"/><path class="cls-32" d="m215.22,231.84c-1.98,6.58-.42,22.02.19,27.23.12,1.09-.5,2.14-1.54,2.52-3.75,1.4-8.79,1.89-14.02,1.89-9.47,0-19.58-1.61-23.86-2.37-1.2-.22-2.05-1.29-1.98-2.51.64-9.9,3.35-51.44,4.65-59.98,1.47-9.71,15.11-9.23,15.11-9.23,7.4-1.17,12.8-.75,16.63.42,5.01,1.53,7.36,4.33,8.07,6.55.93,2.92-.85,27.49-3.26,35.47Z"/><path class="cls-9" d="m215.22,231.84c-1.98,6.58-.42,22.02.19,27.23.12,1.09-.5,2.14-1.54,2.52-3.75,1.4-8.79,1.89-14.02,1.89.59-1.19,1.67-2.07,2.58-3.05,3.93-4.27,4.56-10.5,5.47-16.23.7-4.41,1.68-8.78,2.93-13.07,1.04-3.56,2.27-7.08,2.9-10.74.85-4.95.58-10.01.32-15.01-.21-4.04-.47-8.2-1.82-12.04-.28-.8-1.3-2.27-1.81-3.51,5.01,1.53,7.36,4.33,8.07,6.55.93,2.92-.85,27.49-3.26,35.47Z"/></g></g></g></g></g></g></g></svg>