<svg width="528" height="528" viewBox="0 0 528 528" fill="none" xmlns="http://www.w3.org/2000/svg">
<rect width="528" height="528" rx="10" fill="#F5F5F5"/>
<g style="mix-blend-mode:luminosity" clip-path="url(#clip0_792_15430)">
<path d="M297.333 260.717V230.667C297.333 226.071 293.596 222.333 289 222.333H222.333C217.737 222.333 214 226.071 214 230.667V276.5C214 281.096 217.737 284.833 222.333 284.833H268.271C268.648 288.991 270.154 292.966 272.626 296.33C275.099 299.694 278.443 302.319 282.298 303.921C286.153 305.522 290.372 306.041 294.501 305.419C298.629 304.798 302.509 303.06 305.721 300.394C308.934 297.728 311.357 294.235 312.729 290.293C314.101 286.35 314.37 282.107 313.507 278.023C312.643 273.939 310.68 270.168 307.83 267.118C304.979 264.068 301.35 261.854 297.333 260.717Z" fill="#F47920"/>
<path d="M289 222.333H222.333C217.737 222.333 214 226.071 214 230.667V276.5C214 277.742 214.292 278.908 214.779 279.962L239 255.742L246.333 263.075L266.083 243.242L284.308 260.854C288.545 259.549 293.07 259.503 297.333 260.721V230.667C297.333 226.071 293.596 222.333 289 222.333ZM247.333 247.333C246.249 247.333 245.175 247.12 244.173 246.705C243.171 246.29 242.261 245.681 241.494 244.914C240.727 244.148 240.119 243.237 239.704 242.235C239.289 241.233 239.075 240.159 239.075 239.075C239.075 237.99 239.289 236.917 239.704 235.915C240.119 234.913 240.727 234.002 241.494 233.235C242.261 232.469 243.171 231.86 244.173 231.445C245.175 231.03 246.249 230.817 247.333 230.817C249.524 230.817 251.624 231.687 253.173 233.235C254.722 234.784 255.592 236.885 255.592 239.075C255.592 241.265 254.722 243.366 253.173 244.914C251.624 246.463 249.524 247.333 247.333 247.333Z" fill="white"/>
<path opacity="0.2" d="M247.334 247.333C251.894 247.333 255.592 243.636 255.592 239.075C255.592 234.514 251.894 230.817 247.334 230.817C242.773 230.817 239.075 234.514 239.075 239.075C239.075 243.636 242.773 247.333 247.334 247.333Z" fill="white"/>
<path opacity="0.1" d="M239 255.742L214.763 279.979C215.429 281.427 216.496 282.654 217.838 283.515C219.179 284.375 220.74 284.833 222.334 284.833H268.092L239 255.742Z" fill="white"/>
<path opacity="0.2" d="M291.084 259.833C285.006 259.833 279.177 262.248 274.879 266.545C270.581 270.843 268.167 276.672 268.167 282.75C268.167 288.828 270.581 294.657 274.879 298.954C279.177 303.252 285.006 305.667 291.084 305.667C297.162 305.667 302.99 303.252 307.288 298.954C311.586 294.657 314 288.828 314 282.75C314 276.672 311.586 270.843 307.288 266.545C302.99 262.248 297.162 259.833 291.084 259.833ZM301.5 284.833H293.167V293.167H289V284.833H280.667V280.667H289V272.333H293.167V280.667H301.5V284.833Z" fill="white"/>
<path opacity="0.8" d="M301.5 280.667H293.167V272.333H289V280.667H280.667V284.833H289V293.167H293.167V284.833H301.5V280.667Z" fill="white"/>
</g>
<defs>
<clipPath id="clip0_792_15430">
<rect width="100" height="100" fill="white" transform="translate(214 214)"/>
</clipPath>
</defs>
</svg>
