<svg width="1134" height="528" viewBox="0 0 1134 528" fill="none" xmlns="http://www.w3.org/2000/svg">
<rect width="1134" height="528" rx="10" fill="#F5F5F5"/>
<g style="mix-blend-mode:luminosity" clip-path="url(#clip0_820_3164)">
<path d="M600.333 260.717V230.667C600.333 226.071 596.596 222.333 592 222.333H525.333C520.737 222.333 517 226.071 517 230.667V276.5C517 281.096 520.737 284.833 525.333 284.833H571.271C571.648 288.991 573.154 292.966 575.626 296.33C578.099 299.694 581.443 302.319 585.298 303.921C589.153 305.523 593.372 306.041 597.501 305.419C601.629 304.798 605.509 303.06 608.721 300.394C611.934 297.729 614.357 294.236 615.729 290.293C617.101 286.35 617.37 282.108 616.507 278.023C615.643 273.939 613.68 270.168 610.83 267.118C607.979 264.068 604.35 261.854 600.333 260.717Z" fill="#F47920"/>
<path d="M592 222.333H525.333C520.737 222.333 517 226.071 517 230.667V276.5C517 277.742 517.292 278.909 517.779 279.963L542 255.742L549.333 263.075L569.083 243.242L587.308 260.854C591.545 259.549 596.07 259.503 600.333 260.721V230.667C600.333 226.071 596.596 222.333 592 222.333ZM550.333 247.333C549.249 247.333 548.175 247.12 547.173 246.705C546.171 246.29 545.261 245.682 544.494 244.915C543.727 244.148 543.119 243.237 542.704 242.235C542.289 241.234 542.075 240.16 542.075 239.075C542.075 237.991 542.289 236.917 542.704 235.915C543.119 234.913 543.727 234.002 544.494 233.236C545.261 232.469 546.171 231.86 547.173 231.445C548.175 231.03 549.249 230.817 550.333 230.817C552.524 230.817 554.624 231.687 556.173 233.236C557.722 234.784 558.592 236.885 558.592 239.075C558.592 241.265 557.722 243.366 556.173 244.915C554.624 246.463 552.524 247.333 550.333 247.333Z" fill="white"/>
<path opacity="0.2" d="M550.334 247.334C554.894 247.334 558.592 243.636 558.592 239.075C558.592 234.514 554.894 230.817 550.334 230.817C545.773 230.817 542.075 234.514 542.075 239.075C542.075 243.636 545.773 247.334 550.334 247.334Z" fill="white"/>
<path opacity="0.1" d="M542 255.742L517.763 279.979C518.429 281.427 519.496 282.654 520.838 283.515C522.179 284.375 523.74 284.833 525.334 284.833H571.092L542 255.742Z" fill="white"/>
<path opacity="0.2" d="M594.084 259.833C588.006 259.833 582.177 262.248 577.879 266.546C573.581 270.843 571.167 276.672 571.167 282.75C571.167 288.828 573.581 294.657 577.879 298.955C582.177 303.252 588.006 305.667 594.084 305.667C600.162 305.667 605.99 303.252 610.288 298.955C614.586 294.657 617 288.828 617 282.75C617 276.672 614.586 270.843 610.288 266.546C605.99 262.248 600.162 259.833 594.084 259.833ZM604.5 284.833H596.167V293.167H592V284.833H583.667V280.667H592V272.333H596.167V280.667H604.5V284.833Z" fill="white"/>
<path opacity="0.8" d="M604.5 280.667H596.167V272.333H592V280.667H583.667V284.833H592V293.167H596.167V284.833H604.5V280.667Z" fill="white"/>
</g>
<defs>
<clipPath id="clip0_820_3164">
<rect width="100" height="100" fill="white" transform="translate(517 214)"/>
</clipPath>
</defs>
</svg>
