<svg width="189" height="40" viewBox="0 0 189 40" fill="none" xmlns="http://www.w3.org/2000/svg">
<path fill-rule="evenodd" clip-rule="evenodd" d="M19.439 21.6366C15.5432 21.667 12.6267 20.9531 10.6898 19.4945C10.8493 19.0314 11.1994 18.7065 11.7398 18.5195C10.0912 18.5631 9.32616 19.603 9.4449 21.6392C9.8257 20.8215 10.1406 20.3515 10.3898 20.2293C14.6825 22.8353 14.7707 26.6008 19.439 26.5251C24.1072 26.6008 24.1954 22.8353 28.4881 20.2293C28.7373 20.3515 29.0523 20.8215 29.4332 21.6392C29.5519 19.603 28.7869 18.5631 27.1383 18.5195C27.6786 18.7065 28.0286 19.0314 28.1882 19.4945C26.2512 20.9531 23.3347 21.667 19.439 21.6366ZM19.439 29.0617C8.87791 28.9609 2.70381 21.1345 8.27543 15.6844C8.45935 16.2196 8.86938 16.6646 9.50529 17.0195C7.52782 14.29 10.6311 11.4504 14.7694 13.4973C15.6158 13.916 16.0667 14.0451 17.7699 14.2146C18.2969 14.2146 18.8984 14.2022 19.439 14.1999C19.9796 14.2022 20.5811 14.2146 21.1082 14.2146C22.8113 14.0451 23.2622 13.916 24.1087 13.4973C28.247 11.4505 31.3501 14.29 29.3727 17.0195C30.0086 16.6647 30.4186 16.2197 30.6026 15.6844C36.1743 21.1345 30.0001 28.9609 19.439 29.0617ZM27.1855 17.3398C26.2163 17.8284 24.7121 17.0871 24.1381 15.9096C25.325 15.8323 26.5109 14.7338 27.3228 15.242C28.1426 15.7553 28.0779 16.8897 27.1855 17.3398ZM11.6924 17.3398C12.6617 17.8284 14.1659 17.0871 14.7397 15.9096C13.5529 15.8323 12.367 14.7338 11.5552 15.242C10.7355 15.7553 10.8001 16.8897 11.6924 17.3398Z" fill="#9FB1B4"/>
<path fill-rule="evenodd" clip-rule="evenodd" d="M19.4389 23.1593C18.0969 23.0915 16.8829 23.4347 15.7969 24.1893C16.7025 25.099 17.9167 25.6059 19.4389 25.7097C20.9611 25.6059 22.1753 25.099 23.0809 24.1893C21.995 23.4347 20.781 23.0915 19.4389 23.1593Z" fill="#ED8969"/>
<path fill-rule="evenodd" clip-rule="evenodd" d="M19.439 30.2156C22.158 30.1558 24.187 29.8367 25.5257 29.2588C25.086 31.4791 23.0569 32.5843 19.439 32.5749C15.8208 32.5843 13.7919 31.4791 13.3521 29.2588C14.691 29.8368 16.7198 30.1558 19.439 30.2156ZM5.83739 32.0339C6.83602 33.1627 8.04587 34.2326 9.46726 35.2438C9.4154 34.5018 9.24343 31.119 8.71727 29.2441C7.79985 29.6529 6.83989 30.5828 5.83739 32.0339ZM30.1606 29.2441C29.6345 31.1191 29.4625 34.502 29.4107 35.2438C30.8319 34.2325 32.042 33.1626 33.0405 32.0339C32.038 30.5828 31.078 29.6529 30.1606 29.2441Z" fill="#687340"/>
<path fill-rule="evenodd" clip-rule="evenodd" d="M29.1406 28.839C28.4276 32.0131 28.1476 34.3881 28.3007 35.9636C25.7629 37.4173 22.809 38.1571 19.439 38.1829C16.0689 38.1572 13.115 37.4175 10.5773 35.9638C10.7304 34.3881 10.4503 32.0133 9.7373 28.8391C10.0701 28.7095 10.7001 28.6444 11.6272 28.6442C13.2038 32.852 14.3838 33.7084 19.4389 34.0046C24.494 33.7084 25.674 32.852 27.2506 28.6442C28.1778 28.6443 28.8077 28.7094 29.1406 28.839ZM12.182 6.26534C12.476 5.77433 13.186 5.17436 14.3119 4.46542C12.5031 3.70223 11.0681 2.7624 10.0071 1.6456C9.02496 1.66403 9.17498 3.09395 10.457 5.93538C11.1157 5.97246 11.6907 6.08233 12.182 6.26534ZM26.6959 6.26534C27.1874 6.08233 27.7623 5.97246 28.4209 5.93538C29.7032 3.09384 29.8532 1.66391 28.8708 1.6456C27.8098 2.76252 26.3748 3.70234 24.566 4.46542C25.6919 5.17436 26.4019 5.77433 26.6959 6.26534Z" fill="white"/>
<path fill-rule="evenodd" clip-rule="evenodd" d="M19.4389 4.60443C14.381 4.76105 11.5045 7.26911 10.81 12.1296C13.2073 11.454 15.188 13.5715 19.4389 13.3679C23.6896 13.5714 25.6704 11.454 28.0676 12.1296C27.3732 7.26911 24.4965 4.76105 19.4389 4.60443ZM16.0815 11.8601C15.365 11.8601 14.7841 11.2792 14.7841 10.5628C14.7841 9.84621 15.365 9.26523 16.0815 9.26523C16.7981 9.26523 17.3788 9.84633 17.3788 10.5628C17.3788 11.2792 16.798 11.8601 16.0815 11.8601ZM22.7962 11.8601C22.0797 11.8601 21.4988 11.2792 21.4988 10.5628C21.4988 9.84621 22.0798 9.26523 22.7962 9.26523C23.5127 9.26523 24.0936 9.84633 24.0936 10.5628C24.0938 11.2792 23.5128 11.8601 22.7962 11.8601ZM8.73203 11.0652C2.78086 14.1229 -0.109018 7.99067 3.93225 7.87784C6.47045 8.19745 8.38775 7.32257 11.207 7.44279C10.0083 9.33825 7.7234 9.93572 4.35228 9.2352C3.39369 9.69562 4.93622 11.7155 8.73203 11.0652ZM16.7413 10.3676C16.7413 10.5747 16.5734 10.7426 16.3663 10.7426C16.1593 10.7426 15.9913 10.5747 15.9913 10.3676C15.9913 10.1606 16.1592 9.99271 16.3663 9.99271C16.5734 9.99271 16.7413 10.1606 16.7413 10.3676ZM30.1456 11.0652C33.9415 11.7155 35.4839 9.69562 34.5253 9.2352C31.1543 9.93572 28.8693 9.33814 27.6707 7.44279C30.4899 7.32245 32.4072 8.19745 34.9454 7.87784C38.9867 7.99067 36.0969 14.1229 30.1456 11.0652ZM22.8862 10.3676C22.8862 10.5747 22.7183 10.7426 22.5112 10.7426C22.3041 10.7426 22.1362 10.5747 22.1362 10.3676C22.1362 10.1606 22.3041 9.99271 22.5112 9.99271C22.7183 9.99271 22.8862 10.1606 22.8862 10.3676Z" fill="white"/>
<path fill-rule="evenodd" clip-rule="evenodd" d="M13.2129 6.35223C11.9363 9.37666 11.8663 11.4265 13.0029 12.5019C13.0029 12.5019 12.1528 12.4619 10.4529 12.3818C10.2175 10.6089 11.1375 8.59903 13.2129 6.35223ZM1.09351 10.0608C3.77411 12.7282 6.52387 13.0859 9.343 11.134C9.343 11.134 8.70766 10.5756 7.43696 9.45855C3.13922 9.05 3.46315 7.33061 1.09351 10.0608ZM25.8752 12.5019C25.8752 12.5019 26.7252 12.4619 28.4251 12.3818C28.6606 10.6088 27.7406 8.59891 25.6652 6.35211C26.9417 9.37666 27.0117 11.4265 25.8752 12.5019ZM31.441 9.45855C30.1704 10.5756 29.5351 11.134 29.5351 11.134C32.3542 13.0859 35.1041 12.7282 37.7846 10.0608C35.415 7.33061 35.7388 9.05 31.441 9.45855Z" fill="#E4DADA"/>
<path fill-rule="evenodd" clip-rule="evenodd" d="M19.439 14.7802C17.708 14.6998 16.4905 14.7954 14.8003 13.9438C11.9247 12.495 9.78326 13.0934 8.71275 14.3392C10.3003 12.4642 12.3352 12.0743 14.8176 13.1692C16.5818 13.845 18.1224 14.0592 19.439 13.8121C20.7558 14.0592 22.2962 13.845 24.0605 13.1692C26.5426 12.0744 28.5777 12.4643 30.1651 14.3392C29.0947 13.0934 26.9531 12.495 24.0776 13.9438C22.3875 14.7954 21.17 14.6998 19.439 14.7802Z" fill="#FFECD4"/>
<path fill-rule="evenodd" clip-rule="evenodd" d="M25.7443 28.926C25.9694 29.9249 25.1445 31.1847 23.2694 32.7058C24.0237 31.6997 24.4386 30.9097 24.5145 30.3359C22.2026 30.998 20.5107 31.2971 19.4389 31.2335C18.3669 31.2971 16.675 30.998 14.3633 30.3359C14.4391 30.9097 14.854 31.6997 15.6082 32.7058C13.7331 31.1846 12.9082 29.9249 13.1333 28.926L19.439 29.6237L25.7443 28.926ZM8.06382 35.0007C8.06382 35.0007 8.5538 35.3109 9.53367 35.9307C10.0082 35.2078 9.82382 33.3801 8.98044 30.4479C9.1506 32.7459 8.84521 34.2635 8.06382 35.0007ZM29.8974 30.4479C29.054 33.3802 28.8695 35.2079 29.3442 35.9307C30.324 35.3107 30.814 35.0007 30.814 35.0007C30.0328 34.2635 29.7272 32.7459 29.8974 30.4479Z" fill="#5D6738"/>
<path fill-rule="evenodd" clip-rule="evenodd" d="M12.4435 29.7211C11.297 29.7345 10.2221 29.8545 9.21858 30.0811C9.21858 30.0811 9.29353 29.6161 9.44367 28.6861C9.44367 28.6861 10.3236 28.5861 12.0834 28.3861C12.0834 28.3861 12.2034 28.831 12.4435 29.7211ZM10.1486 34.0258C10.2786 35.5758 10.3436 36.3508 10.3436 36.3508C13.8225 38.2821 16.8542 39.0457 19.4388 38.6422C22.0234 39.0457 25.0552 38.2821 28.534 36.3508C28.534 36.3508 28.599 35.5758 28.729 34.0258C26.3709 36.2788 23.2742 37.5255 19.4388 37.7661C15.6034 37.5255 12.5067 36.2787 10.1486 34.0258ZM13.0583 6.00745C10.7818 4.91385 9.59346 3.54671 9.49326 1.90625C8.85382 2.29114 9.26726 3.85312 10.7334 6.59242C12.0518 6.59856 12.8267 6.40349 13.0583 6.00745ZM26.7941 28.3861C26.7941 28.3861 26.6741 28.831 26.4341 29.7211C27.5806 29.7345 28.6555 29.8545 29.659 30.0811C29.659 30.0811 29.5839 29.6161 29.4339 28.6861C29.4339 28.6861 28.5541 28.5861 26.7941 28.3861ZM28.1441 6.59242C29.6103 3.85312 30.0236 2.29103 29.3844 1.90625C29.2843 3.54671 28.0959 4.91385 25.8193 6.00745C26.0508 6.40349 26.8257 6.59856 28.1441 6.59242Z" fill="#687340"/>
<path fill-rule="evenodd" clip-rule="evenodd" d="M19.4389 23.7762C18.1584 23.8092 16.9491 24.1684 15.8108 24.8537C15.5609 24.3737 15.4358 24.1337 15.4358 24.1337C16.6711 23.381 18.0054 23.0035 19.4387 23.0009C20.872 23.0035 22.2064 23.381 23.4416 24.1337C23.4416 24.1337 23.3167 24.3737 23.0667 24.8537C21.9286 24.1684 20.7192 23.8092 19.4389 23.7762Z" fill="#D2795C"/>
<path fill-rule="evenodd" clip-rule="evenodd" d="M11.0498 16.6398C10.3223 15.7469 10.9003 14.7703 11.7839 14.4821C13.2278 14.0109 13.59 15.4217 14.7396 15.9021C12.2798 16.3939 11.0498 16.6398 11.0498 16.6398ZM33.3488 20.0838C32.7848 25.7053 28.1476 28.8407 19.439 29.4914C10.7302 28.8407 6.09305 25.7053 5.52913 20.0838C6.16823 17.262 7.05824 15.5319 8.19904 14.8943C8.45541 15.6852 8.8908 16.3936 9.50522 17.0195C7.76683 17.49 8.07131 20.4764 9.74396 20.3089C9.99259 19.2385 10.5203 18.7061 11.3266 18.7114C11.1354 18.9876 11.1029 19.1801 11.2288 19.289C13.5259 20.5631 16.2626 21.0871 19.439 20.8609C22.6152 21.087 25.3519 20.563 27.6491 19.289C27.775 19.1802 27.7424 18.9876 27.5512 18.7114C28.3576 18.7061 28.8852 19.2385 29.1339 20.3089C30.8066 20.4764 31.1111 17.49 29.3726 17.0195C29.987 16.3936 30.4225 15.6852 30.6789 14.8943C31.8197 15.532 32.7096 17.262 33.3488 20.0838ZM27.2308 21.11L19.439 22.1326L11.647 21.11C14.8679 24.4809 15.4715 26.94 18.4071 27.3958C18.7222 27.4448 19.0641 27.4705 19.4391 27.4719C19.814 27.4705 20.1559 27.4448 20.4708 27.3958C23.4063 26.9399 24.01 24.4808 27.2308 21.11ZM27.0939 14.4821C25.6501 14.0109 25.2879 15.4217 24.1381 15.9021C26.598 16.394 27.828 16.6398 27.828 16.6398C28.5556 15.7467 27.9775 14.7702 27.0939 14.4821Z" fill="#80989C"/>
<path fill-rule="evenodd" clip-rule="evenodd" d="M16.0817 11.86C16.7983 11.86 17.379 11.2792 17.379 10.5627C17.379 9.84617 16.7983 9.26519 16.0817 9.26519C15.3652 9.26519 14.7843 9.84628 14.7843 10.5627C14.7842 11.2792 15.365 11.86 16.0817 11.86ZM16.3666 9.99266C16.5737 9.99266 16.7416 10.1605 16.7416 10.3675C16.7416 10.5747 16.5737 10.7425 16.3666 10.7425C16.1596 10.7425 15.9916 10.5747 15.9916 10.3675C15.9916 10.1605 16.1595 9.99266 16.3666 9.99266ZM22.7964 11.86C23.5129 11.86 24.0938 11.2792 24.0938 10.5627C24.0938 9.84617 23.5129 9.26519 22.7964 9.26519C22.0799 9.26519 21.499 9.84628 21.499 10.5627C21.499 11.2792 22.08 11.86 22.7964 11.86ZM22.5114 9.99266C22.7185 9.99266 22.8864 10.1605 22.8864 10.3675C22.8864 10.5747 22.7185 10.7425 22.5114 10.7425C22.3043 10.7425 22.1364 10.5747 22.1364 10.3675C22.1365 10.1605 22.3044 9.99266 22.5114 9.99266ZM34.8838 6.60847C33.0891 6.83436 31.4385 6.41693 29.6707 6.24485C30.5133 4.35075 31.8124 -2.18686 28.3205 0.74522C26.6614 2.13852 25.2823 2.90626 23.242 3.7874C21.8657 3.19323 20.625 3.1508 19.4392 3.12601C18.2532 3.1508 17.0126 3.19323 15.6362 3.7874C13.5959 2.90638 12.217 2.13852 10.5577 0.74522C7.06585 -2.18686 8.36497 4.35075 9.20755 6.24485C7.43959 6.41693 5.78924 6.83447 3.99443 6.60847C0.289383 6.7122 -0.349149 10.7645 2.93393 12.5466C5.97076 14.1952 7.26375 12.4729 9.5258 12.1626C8.64693 12.6656 7.99077 13.4539 7.73668 14.4392C3.28049 18.7983 4.68028 24.5202 9.73257 27.4553C6.92242 27.9595 5.53026 30.3252 4.02128 32.1303C8.45426 36.7441 12.4669 39.579 19.4393 39.4534C26.4116 39.579 30.4243 36.7441 34.8572 32.1303C33.3482 30.3252 31.9562 27.9595 29.1459 27.4553C34.1982 24.5202 35.5981 18.7983 31.1419 14.4392C30.8877 13.4539 30.2317 12.6656 29.3527 12.1626C31.6147 12.4727 32.9077 14.1952 35.9447 12.5466C39.2274 10.7645 38.5887 6.7122 34.8838 6.60847ZM5.83746 32.0339C6.83985 30.5829 7.7998 29.6529 8.71734 29.2441C9.24349 31.1191 9.41547 34.502 9.46733 35.2438C8.04605 34.2325 6.83609 33.1627 5.83746 32.0339ZM30.1607 29.2441C31.0781 29.6529 32.0381 30.5829 33.0406 32.0339C32.042 33.1627 30.832 34.2326 29.4108 35.2438C29.4625 34.5018 29.6345 31.119 30.1607 29.2441ZM28.8709 1.64558C29.8531 1.664 29.7031 3.09393 28.4209 5.93536C27.7624 5.97244 27.1874 6.08231 26.696 6.26532C26.4021 5.77431 25.6921 5.17433 24.5662 4.4654C26.3749 3.70232 27.8098 2.76238 28.8709 1.64558ZM19.4391 4.60439C24.4968 4.76101 27.3734 7.26907 28.0678 12.1296C25.6706 11.454 23.6898 13.5715 19.4391 13.3679C15.1882 13.5714 13.2075 11.454 10.8103 12.1296C11.5047 7.26907 14.3812 4.76101 19.4391 4.60439ZM10.0071 1.64558C11.0681 2.7625 12.5031 3.70232 14.3119 4.4654C13.1861 5.17422 12.4761 5.77431 12.1821 6.26532C11.6907 6.08231 11.1158 5.97244 10.4571 5.93536C9.17502 3.09393 9.025 1.664 10.0071 1.64558ZM8.73224 11.0651C2.78106 14.1229 -0.108816 7.99063 3.93245 7.8778C6.47065 8.19741 8.38795 7.32253 11.2072 7.44275C10.0085 9.33821 7.7236 9.93568 4.35249 9.23516C3.39389 9.69558 4.93642 11.7155 8.73224 11.0651ZM28.3007 35.9636C25.7628 37.4173 22.8089 38.157 19.4391 38.1828C16.0691 38.157 13.1152 37.4173 10.5773 35.9636C10.7304 34.388 10.4504 32.0131 9.73735 28.839C10.0701 28.7093 10.7001 28.6443 11.6272 28.6441C13.2039 32.8517 14.3838 33.7084 19.439 34.0045C24.4941 33.7084 25.674 32.8517 27.2507 28.6441C28.1776 28.6444 28.8076 28.7095 29.1404 28.839C28.4275 32.0131 28.1476 34.3881 28.3007 35.9636ZM13.3522 29.2588C14.691 29.8367 16.7199 30.1555 19.4391 30.2156C22.1581 30.1556 24.1871 29.8367 25.5258 29.2588C25.0861 31.4791 23.057 32.5842 19.4391 32.5748C15.821 32.5843 13.7919 31.4791 13.3522 29.2588ZM29.3728 17.0195C30.0087 16.6647 30.4188 16.2196 30.6028 15.6844C36.1743 21.1344 30.0002 28.9608 19.4392 29.0617C8.87805 28.9608 2.70395 21.1344 8.27557 15.6844C8.45949 16.2195 8.86952 16.6646 9.50543 17.0195C7.52797 14.29 10.6312 11.4503 14.7695 13.4973C15.616 13.916 16.0668 14.0451 17.7701 14.2145C18.297 14.2145 18.8986 14.202 19.4392 14.1999C19.9798 14.202 20.5812 14.2145 21.1083 14.2145C22.8114 14.0451 23.2623 13.916 24.1089 13.4973C28.2471 11.4503 31.3503 14.29 29.3728 17.0195ZM30.1458 11.0651C33.9417 11.7155 35.4841 9.69558 34.5255 9.23516C31.1545 9.93568 28.8695 9.3381 27.6709 7.44275C30.4901 7.32241 32.4074 8.19741 34.9456 7.8778C38.9869 7.99063 36.0971 14.1229 30.1458 11.0651ZM11.5552 15.2419C12.3671 14.7336 13.553 15.8323 14.7397 15.9096C14.1659 17.087 12.6617 17.8284 11.6924 17.3398C10.8001 16.8897 10.7355 15.7553 11.5552 15.2419ZM24.1382 15.9096C25.3252 15.8323 26.511 14.7338 27.3229 15.2419C28.1427 15.7553 28.0779 16.8897 27.1856 17.3396C26.2163 17.8284 24.7121 17.087 24.1382 15.9096ZM27.1383 18.5195C27.6787 18.7064 28.0286 19.0314 28.1882 19.4944C26.2512 20.9531 23.3347 21.6671 19.4391 21.6366C15.5433 21.667 12.6268 20.953 10.6898 19.4944C10.8494 19.0314 11.1995 18.7064 11.7398 18.5195C10.0912 18.563 9.32618 19.6029 9.44493 21.6392C9.82573 20.8214 10.1407 20.3515 10.3899 20.2293C14.6825 22.8353 14.7708 26.6007 19.4391 26.5251C24.1073 26.6007 24.1954 22.8353 28.4881 20.2293C28.7373 20.3515 29.0523 20.8214 29.4332 21.6392C29.552 19.6029 28.7869 18.563 27.1383 18.5195ZM19.4391 25.7097C17.9168 25.6059 16.7026 25.099 15.797 24.1893C16.883 23.4347 18.0969 23.0915 19.4391 23.1593C20.7811 23.0915 21.9951 23.4347 23.081 24.1893C22.1754 25.099 20.9612 25.6059 19.4391 25.7097Z" fill="#5A1019"/>
<path d="M46.8333 31.774C46.4178 31.774 46.0543 31.6286 45.7427 31.3378C45.4311 31.047 45.2754 30.6835 45.2754 30.2472V12.456C45.2754 11.8744 45.3481 11.459 45.4935 11.2097C45.6389 10.9397 45.9089 10.7631 46.3036 10.68C46.719 10.5762 47.3837 10.5242 48.2977 10.5242C52.1613 10.5242 55.0486 11.0955 56.9596 12.2379C58.8914 13.3804 59.8573 15.0317 59.8573 17.192C59.8573 18.9369 59.2445 20.3702 58.019 21.4918C56.7934 22.6135 55.3082 23.434 53.5634 23.9533C51.8185 24.4726 50.0841 24.7634 48.36 24.8257V30.2472C48.36 30.6835 48.2146 31.047 47.9238 31.3378C47.633 31.6286 47.2695 31.774 46.8333 31.774ZM48.36 21.7723C50.3956 21.6476 52.3067 21.2426 54.0931 20.5571C55.8795 19.8509 56.7727 18.7292 56.7727 17.192C56.7727 16.0496 56.0768 15.1668 54.6851 14.5436C53.3141 13.9204 51.3512 13.6089 48.7962 13.6089H48.36V21.7723ZM63.8684 31.774C63.4322 31.774 63.0687 31.6286 62.7779 31.3378C62.4871 31.047 62.3417 30.6835 62.3417 30.2472V12.3937C62.3417 11.8329 62.3936 11.4278 62.4975 11.1785C62.6221 10.9293 62.8506 10.7631 63.1829 10.68C63.5361 10.5762 64.0865 10.5242 64.8343 10.5242H66.1118C69.6015 10.5242 72.2915 11.1058 74.1817 12.2691C76.072 13.4323 77.0171 15.0629 77.0171 17.1609C77.0171 19.8197 75.48 21.8346 72.4057 23.2055C74.6075 24.9504 76.3316 27.0587 77.5779 29.5306C77.6818 29.7383 77.7337 29.9772 77.7337 30.2472C77.7337 30.6627 77.5883 31.0262 77.2975 31.3378C77.0275 31.6286 76.664 31.774 76.207 31.774C75.6254 31.774 75.1684 31.5039 74.836 30.9639C72.0941 26.6018 69.643 24.4207 67.4827 24.4207C66.8388 24.4207 66.1429 24.483 65.3951 24.6076V30.2472C65.3951 30.6835 65.2394 31.047 64.9278 31.3378C64.637 31.6286 64.2838 31.774 63.8684 31.774ZM65.3951 21.7411C67.6385 21.5957 69.6223 21.1387 71.3463 20.3702C73.0704 19.6016 73.9324 18.5318 73.9324 17.1609C73.9324 15.9769 73.2366 15.0733 71.8449 14.4501C70.4739 13.827 68.5317 13.5154 66.0183 13.5154H65.3951V21.7411ZM93.4064 31.8051C92.6587 31.8051 92.1705 31.452 91.942 30.7458L89.6986 24.2649L83.3424 25.667L81.3171 30.7769C81.1925 31.0677 81.0056 31.3066 80.7563 31.4936C80.5278 31.6805 80.237 31.774 79.8839 31.774C79.4684 31.774 79.1049 31.6286 78.7933 31.3378C78.4818 31.047 78.326 30.7042 78.326 30.3096C78.326 30.0395 78.3987 29.7279 78.5441 29.3748L79.7904 26.259C79.6658 26.2175 79.5723 26.1759 79.51 26.1344C78.9699 25.8643 78.6999 25.4074 78.6999 24.7634C78.6999 24.3895 78.8037 24.0676 79.0114 23.7975C79.2399 23.5275 79.5307 23.3509 79.8839 23.2678L81.0367 23.0186L85.6481 11.3032C85.7727 10.9916 85.9701 10.7527 86.2401 10.5865C86.5101 10.4204 86.8009 10.3373 87.1125 10.3373C87.4449 10.3373 87.7357 10.4204 87.9849 10.5865C88.2342 10.7527 88.4212 11.0124 88.5458 11.3655L94.7462 29.3437C94.767 29.3852 94.8086 29.5098 94.8709 29.7176C94.9332 29.9045 94.9643 30.1018 94.9643 30.3096C94.9643 30.7042 94.8189 31.0573 94.5281 31.3689C94.2373 31.6597 93.8634 31.8051 93.4064 31.8051ZM88.6704 21.3672L86.9879 16.3508L84.651 22.2396L88.6704 21.3672ZM102.31 31.9609C101.583 31.9609 100.846 31.8882 100.098 31.7428C99.3501 31.6182 98.8412 31.5143 98.5711 31.4312C98.2388 31.3274 97.9584 31.1301 97.7299 30.8392C97.5014 30.5484 97.3871 30.2369 97.3871 29.9045V12.2379C97.3871 11.8017 97.5325 11.4382 97.8233 11.1474C98.1349 10.8566 98.5088 10.7112 98.945 10.7112C101.043 10.7112 103.162 11.0227 105.301 11.6459C107.441 12.2691 109.289 13.4323 110.847 15.1356C112.426 16.8389 113.215 19.1965 113.215 22.2085C113.215 24.3895 112.738 26.2175 111.782 27.6923C110.827 29.1463 109.528 30.2265 107.887 30.9327C106.246 31.6182 104.387 31.9609 102.31 31.9609ZM102.31 28.8451C104.74 28.8451 106.641 28.2843 108.012 27.1626C109.404 26.0409 110.1 24.3895 110.1 22.2085C110.1 19.5081 109.217 17.5036 107.451 16.195C105.706 14.8863 103.39 14.1178 100.503 13.8893V28.6582C101.209 28.7828 101.812 28.8451 102.31 28.8451ZM118.171 31.774C117.735 31.774 117.371 31.6286 117.08 31.3378C116.79 31.0262 116.644 30.6627 116.644 30.2472V12.0821C116.644 11.6459 116.79 11.2824 117.08 10.9916C117.371 10.7008 117.735 10.5554 118.171 10.5554C118.607 10.5554 118.981 10.7008 119.293 10.9916C119.604 11.2824 119.76 11.6459 119.76 12.0821V20.1832L131.102 18.5941V12.0821C131.102 11.6459 131.247 11.2824 131.538 10.9916C131.849 10.7008 132.223 10.5554 132.659 10.5554C133.075 10.5554 133.438 10.7008 133.75 10.9916C134.062 11.2824 134.217 11.6459 134.217 12.0821V30.2472C134.217 30.6419 134.062 30.995 133.75 31.3066C133.438 31.6182 133.075 31.774 132.659 31.774C132.223 31.774 131.849 31.6286 131.538 31.3378C131.247 31.0262 131.102 30.6627 131.102 30.2472V21.6476L119.76 23.2367V30.2472C119.76 30.6627 119.604 31.0262 119.293 31.3378C118.981 31.6286 118.607 31.774 118.171 31.774ZM151.786 31.8051C151.039 31.8051 150.55 31.452 150.322 30.7458L148.079 24.2649L141.722 25.667L139.697 30.7769C139.572 31.0677 139.385 31.3066 139.136 31.4936C138.908 31.6805 138.617 31.774 138.264 31.774C137.848 31.774 137.485 31.6286 137.173 31.3378C136.862 31.047 136.706 30.7042 136.706 30.3096C136.706 30.0395 136.779 29.7279 136.924 29.3748L138.17 26.259C138.046 26.2175 137.952 26.1759 137.89 26.1344C137.35 25.8643 137.08 25.4074 137.08 24.7634C137.08 24.3895 137.184 24.0676 137.391 23.7975C137.62 23.5275 137.911 23.3509 138.264 23.2678L139.417 23.0186L144.028 11.3032C144.153 10.9916 144.35 10.7527 144.62 10.5865C144.89 10.4204 145.181 10.3373 145.492 10.3373C145.825 10.3373 146.116 10.4204 146.365 10.5865C146.614 10.7527 146.801 11.0124 146.926 11.3655L153.126 29.3437C153.147 29.3852 153.188 29.5098 153.251 29.7176C153.313 29.9045 153.344 30.1018 153.344 30.3096C153.344 30.7042 153.199 31.0573 152.908 31.3689C152.617 31.6597 152.243 31.8051 151.786 31.8051ZM147.05 21.3672L145.368 16.3508L143.031 22.2396L147.05 21.3672ZM157.294 31.774C156.858 31.774 156.494 31.6286 156.203 31.3378C155.912 31.047 155.767 30.6835 155.767 30.2472V12.3937C155.767 11.8329 155.819 11.4278 155.923 11.1785C156.047 10.9293 156.276 10.7631 156.608 10.68C156.961 10.5762 157.512 10.5242 158.26 10.5242H159.537C163.027 10.5242 165.717 11.1058 167.607 12.2691C169.497 13.4323 170.442 15.0629 170.442 17.1609C170.442 19.8197 168.905 21.8346 165.831 23.2055C168.033 24.9504 169.757 27.0587 171.003 29.5306C171.107 29.7383 171.159 29.9772 171.159 30.2472C171.159 30.6627 171.014 31.0262 170.723 31.3378C170.453 31.6286 170.089 31.774 169.632 31.774C169.051 31.774 168.594 31.5039 168.261 30.9639C165.519 26.6018 163.068 24.4207 160.908 24.4207C160.264 24.4207 159.568 24.483 158.82 24.6076V30.2472C158.82 30.6835 158.665 31.047 158.353 31.3378C158.062 31.6286 157.709 31.774 157.294 31.774ZM158.82 21.7411C161.064 21.5957 163.048 21.1387 164.772 20.3702C166.496 19.6016 167.358 18.5318 167.358 17.1609C167.358 15.9769 166.662 15.0733 165.27 14.4501C163.899 13.827 161.957 13.5154 159.444 13.5154H158.82V21.7411ZM186.832 31.8051C186.084 31.8051 185.596 31.452 185.367 30.7458L183.124 24.2649L176.768 25.667L174.742 30.7769C174.618 31.0677 174.431 31.3066 174.182 31.4936C173.953 31.6805 173.662 31.774 173.309 31.774C172.894 31.774 172.53 31.6286 172.219 31.3378C171.907 31.047 171.751 30.7042 171.751 30.3096C171.751 30.0395 171.824 29.7279 171.969 29.3748L173.216 26.259C173.091 26.2175 172.998 26.1759 172.935 26.1344C172.395 25.8643 172.125 25.4074 172.125 24.7634C172.125 24.3895 172.229 24.0676 172.437 23.7975C172.665 23.5275 172.956 23.3509 173.309 23.2678L174.462 23.0186L179.073 11.3032C179.198 10.9916 179.395 10.7527 179.665 10.5865C179.935 10.4204 180.226 10.3373 180.538 10.3373C180.87 10.3373 181.161 10.4204 181.41 10.5865C181.66 10.7527 181.847 11.0124 181.971 11.3655L188.172 29.3437C188.192 29.3852 188.234 29.5098 188.296 29.7176C188.359 29.9045 188.39 30.1018 188.39 30.3096C188.39 30.7042 188.244 31.0573 187.953 31.3689C187.663 31.6597 187.289 31.8051 186.832 31.8051ZM182.096 21.3672L180.413 16.3508L178.076 22.2396L182.096 21.3672Z" fill="black"/>
</svg>
