<?xml version="1.0" encoding="UTF-8"?><svg id="Layer_2" xmlns="http://www.w3.org/2000/svg" xmlns:xlink="http://www.w3.org/1999/xlink" viewBox="0 0 5000 4261.92"><defs><style>.cls-1,.cls-2{fill:#fff;}.cls-3{fill:#061f33;}.cls-4{fill:#9b87ff;}.cls-5{fill:#efb126;}.cls-6{fill:#dbcdfe;}.cls-7{fill:none;stroke:#0b2d4e;stroke-miterlimit:10;stroke-width:15px;}.cls-8{fill:#e5785c;}.cls-9{clip-path:url(#clippath);}.cls-10{fill:#73b8d4;}.cls-2{opacity:.2;}.cls-11{fill:#8070f2;}.cls-12{fill:#f8a17a;}.cls-13{fill:#ffc73c;}.cls-14{fill:#f5f5fe;}.cls-15{fill:#e1f4fd;}.cls-16{fill:#0b2d4e;}</style><clipPath id="clippath"><path class="cls-13" d="m3233.13,3159.25c32.32-136.85,49.07-276.85-24.17-370.07-33.08-42.1-92-71.41-140.23-92.26-94.06-40.66-190.23-95.31-290.92-113.03-106.16-18.68-224.23-30.2-330.03-3.48-67.2,16.97-130.07,48.38-190.16,82.26-52.14,29.4-116.11,54.71-141.43,109.43-61.34,132.58-115.78,270.88-160.94,409.78-37.78,116.22-79.25,238.03-19.72,355.81,19.29,38.17,47.31,70.83,69.37,107.29,24.58,40.62,33.75,78.77,36.97,125.63,7.35,106.9,4.49,214.12,4.19,321.18-.09,30.85.32,62.92,13.83,90.66,26.63,54.69,99.01,55.45,151.14,55.36,171.83-.3,343.67-.59,515.51-.89,71.5-.12,126.12,8.63,193.24,22.43,56.49,11.61,104.98-16.9,132.08-69.45,25.65-49.75,27.61-107.86,30.36-163.77,10.7-217.54,41.56-434.07,92.06-645.94,14.3-59.99,39.37-138.45,58.85-220.94Z"/></clipPath></defs><g id="Layer_2-2"><g><path class="cls-14" d="m609.96,1883.25c-108.03,153.61-191.39,362.59-133.54,555.48,57.67,192.31,242.08,310.89,322.67,493.55,45.55,103.24,46.77,216.76,48.49,327.58,2.26,145.06-26.08,299.12,71.96,421.72,57.99,72.52,145.51,115.37,233.99,143.51,177.72,56.53,363.91,83.07,521.76,189.84,259.34,175.41,577.82,236.73,886.88,217.79,156.74-9.61,312.17-39.12,462.29-84.93,174.43-53.24,329.47-147.47,505.1-197.96,304.38-87.49,720.59-88.69,898.72-396.66,119.93-207.34,161.47-463.61,68.18-689.52-44.36-107.42-129.02-189.45-177.25-294.91-66.63-145.7-84.59-311.83-40.08-466.62,1.85-6.36,3.78-12.7,5.79-19.02,46.51-144.71,140.13-269.14,178.84-416.45,79.93-304.13-96.7-625.69-328.88-821.17-96.48-81.23-204.28-148.84-321.69-187.38-323.83-106.3-683.65,16.73-1008.46-86.1-249.18-78.88-453.76-283.91-707.65-343.2-195.11-45.56-405.96,3.07-571.7,122.16-165.74,119.09-286.02,305.46-340.84,510.71-50.8,190.19-49.21,399.08-139.3,571.85-77.08,147.81-219.94,227.56-335.93,334.79-36.1,33.38-69.44,72.44-99.33,114.94Z"/><path class="cls-14" d="m4467.64,352.85c2.88-17.41-20.16-52.52-45.3-51.95-10,.22-19.78,2.82-29.76,2.33-26.6-1.3-40.39-22.01-50.64-39.16-10.25-17.15-30.67-36.7-56.59-32.35-37.33,6.26-56.14,55.51-98.56,18.54-27.77-24.21-29.86-58.05-61.3-81.52-21.59-16.11-56.69-25.65-85.63-16.75-37.77,11.62-51.82,49.06-92.03,55.58-44.55,7.22-76.57-26.67-90.79-51.11-17.25-29.65-23.66-61.71-38.44-91.89-13.68-27.93-41.19-65.36-90.48-64.54-41.68.69-60.04,27.07-80.5,48.02-26.61,27.24-81.9,125.06-143.91,113.26-24.18-4.6-36.25-23.8-58.07-32.4-35.08-13.82-79.78,5.18-100.92,29.08-21.13,23.9-29.51,52.75-53.39,75.37-6.18,5.85-13.68,11.37-23.38,14.03-33.36,9.13-64.41-18.95-100.12-21.04-24.65-1.44-47.52,10.14-61.68,24.27-14.17,14.13-21.89,30.81-32.73,46.3-3.02,4.31-6.44,8.68-11.9,11.6-15.67,8.4-37.71,1.32-56.9-1.98-47.42-8.16-101.29,13.61-114.66,46.33h1577.69Z"/><path class="cls-14" d="m955.72,1090.82c1.48-8.95-10.37-27-23.29-26.71-5.14.11-10.17,1.45-15.3,1.2-13.68-.67-20.76-11.31-26.03-20.13-5.27-8.82-15.77-18.87-29.09-16.63-19.19,3.22-28.86,28.54-50.67,9.53-14.28-12.44-15.35-29.84-31.52-41.91-11.1-8.28-29.14-13.19-44.02-8.61-19.42,5.97-26.64,25.22-47.31,28.57-22.9,3.71-39.36-13.71-46.67-26.28-8.87-15.24-12.16-31.73-19.76-47.24-7.03-14.36-21.18-33.6-46.51-33.18-21.43.35-30.87,13.92-41.38,24.68-13.68,14-42.1,64.29-73.98,58.23-12.43-2.36-18.64-12.24-29.85-16.66-18.03-7.11-41.01,2.66-51.88,14.95-10.86,12.29-15.17,27.12-27.45,38.74-3.18,3.01-7.03,5.85-12.02,7.21-17.15,4.69-33.11-9.74-51.47-10.81-12.67-.74-24.43,5.21-31.71,12.47-7.28,7.26-11.25,15.84-16.83,23.8-1.55,2.22-3.31,4.46-6.12,5.96-8.05,4.32-19.38.68-29.25-1.02-24.38-4.19-52.07,6.99-58.94,23.82h811.05Z"/><g><g><g><g><rect class="cls-6" x="4307.04" y="2402.64" width="364.65" height="1641.42" transform="translate(8978.73 6446.7) rotate(180)"/><rect class="cls-6" x="3756.77" y="2906.39" width="550.27" height="1137.67"/><rect class="cls-6" x="4449.73" y="3245.08" width="550.27" height="798.98"/><rect class="cls-6" x="4307.04" y="2322.41" width="296.13" height="80.23" transform="translate(8910.21 4725.05) rotate(180)"/><rect class="cls-6" x="4307.04" y="2242.17" width="242.29" height="80.23" transform="translate(8856.37 4564.58) rotate(180)"/><rect class="cls-6" x="4307.04" y="2161.94" width="190.89" height="80.23" transform="translate(8804.97 4404.12) rotate(180)"/></g><g><rect class="cls-6" x="2867.5" y="2402.64" width="364.65" height="1641.42" transform="translate(6099.66 6446.7) rotate(180)"/><rect class="cls-6" x="3865.01" y="1871.21" width="364.65" height="2172.84" transform="translate(8094.66 5915.27) rotate(180)"/><rect class="cls-6" x="2138.2" y="3408.88" width="729.31" height="635.17" transform="translate(5005.7 7452.94) rotate(180)"/><rect class="cls-6" x="3049.83" y="1614.9" width="732.6" height="2429.15" transform="translate(6832.26 5658.96) rotate(180)"/><rect class="cls-6" x="2867.5" y="2322.41" width="296.13" height="80.23" transform="translate(6031.14 4725.05) rotate(180)"/><rect class="cls-6" x="2867.5" y="2242.17" width="242.29" height="80.23" transform="translate(5977.3 4564.58) rotate(180)"/><rect class="cls-6" x="2867.5" y="2161.94" width="190.89" height="80.23" transform="translate(5925.9 4404.12) rotate(180)"/></g></g><g><g><rect class="cls-6" x="2168.84" y="2402.64" width="364.65" height="1641.42" transform="translate(4702.34 6446.7) rotate(180)"/><rect class="cls-6" x="2533.49" y="2680.11" width="364.65" height="1363.95"/><rect class="cls-6" x="1618.57" y="2034.54" width="550.27" height="2009.52"/><rect class="cls-6" x="2168.84" y="2322.41" width="296.13" height="80.23" transform="translate(4633.81 4725.05) rotate(180)"/><rect class="cls-6" x="2168.84" y="2242.17" width="242.29" height="80.23" transform="translate(4579.97 4564.58) rotate(180)"/><rect class="cls-6" x="2168.84" y="2161.94" width="190.89" height="80.23" transform="translate(4528.58 4404.12) rotate(180)"/></g><g><rect class="cls-6" x="729.31" y="2402.64" width="364.65" height="1641.42" transform="translate(1823.26 6446.7) rotate(180)"/><rect class="cls-6" x="364.65" y="2680.11" width="364.65" height="1363.95" transform="translate(1093.96 6724.17) rotate(180)"/><rect class="cls-6" x="1179.81" y="2452.49" width="364.65" height="1591.57" transform="translate(2724.27 6496.54) rotate(180)"/><rect class="cls-6" y="3251.71" width="364.65" height="792.35" transform="translate(364.65 7295.76) rotate(180)"/><rect class="cls-6" x="911.63" y="2845.59" width="732.6" height="1198.47" transform="translate(2555.86 6889.64) rotate(180)"/><rect class="cls-6" x="729.31" y="2322.41" width="296.13" height="80.23" transform="translate(1754.74 4725.05) rotate(180)"/><rect class="cls-6" x="335.28" y="3696.38" width="296.13" height="80.23" transform="translate(966.7 7473) rotate(180)"/><rect class="cls-6" x="729.31" y="2242.17" width="242.29" height="80.23" transform="translate(1700.9 4564.58) rotate(180)"/><rect class="cls-6" x="729.31" y="2161.94" width="190.89" height="80.23" transform="translate(1649.5 4404.12) rotate(180)"/></g><rect class="cls-6" x="2303.65" y="2833.89" width="479.4" height="80.23" transform="translate(5086.7 5748.01) rotate(180)"/><rect class="cls-6" x="2303.65" y="3121.39" width="479.4" height="80.23" transform="translate(5086.7 6323) rotate(180)"/><rect class="cls-6" x="2303.65" y="3408.88" width="479.4" height="80.23" transform="translate(5086.7 6898) rotate(180)"/><rect class="cls-6" x="466.24" y="3408.88" width="479.4" height="80.23" transform="translate(1411.88 6898) rotate(180)"/><rect class="cls-6" x="466.24" y="3696.38" width="479.4" height="80.23" transform="translate(1411.88 7473) rotate(180)"/></g></g><path class="cls-16" d="m3438.31,3330.63c-137.65,48.7-303.65,43.72-428.89-36.61-123.11-78.97-235.27-136-386.74-133.23-135.35,2.47-247.27,75.63-378.36,91.2-103.97,12.35-209.59-32.98-284.94-105.67-73.56-70.96-122.41-179.15-90.42-276.22,16.75-50.83,53.35-92.76,74.23-142.03,48.17-113.63-78.67-182.18-47.12-301.79,26.83-101.73,138.45-174.28,136.78-279.47-1.22-77-60.83-136.68-81.82-207.92-21.18-71.87-16.5-152.38,20.86-218.04,27.45-48.24,71.55-87.74,122.65-109.51,45.89-19.55,97.16-19.92,132.65-60.03,63.24-71.47,86.44-148.93,173.22-201.19,73.46-44.24,170.48-47.05,254.76-39.32,187.28,17.17,369.05,116.02,474.53,273.45,37.38,55.8,64.36,112.89,65.3,179.2,1.03,72.49,1,145.41,45.42,207.04,37.29,51.75,97.15,82.02,156.5,105.37,59.36,23.35,121.56,42.24,173.67,79.03,52.11,36.79,93.49,96.8,87.41,160.29-5.09,53.14-41.87,99.32-46.77,152.47-8.9,96.66,84.22,166.87,141.62,245.14,80.38,109.59,93.7,264.56,33.2,386.26-69.65,140.12-196.19,171.72-328.79,224.45-6.26,2.49-12.58,4.86-18.97,7.12Z"/><path class="cls-10" d="m2437.56,1523.43c45.52-26.59,98.42-38.78,150.98-40.88,52.75-2.02,105.61,4.77,156.82,17.51,102.71,25.86,196.25,86.99,261.49,171.07,32.25,42.28,57.2,90.38,72,141.7,14.87,51.47,17.91,105.29,17.3,157.94-.52,52.77-4.28,105.25-2.54,157.16,1.09,25.77,4.28,51.5,12.12,75.55,7.71,23.96,21.09,46.06,40.88,60.49,19.53,14.82,44.62,21.08,69.97,24.12,25.44,3.02,51.99,3.17,78.5,6.71,52.46,7.06,105.8,19.53,151.51,49.62,22.46,15.01,42.66,35.91,52.49,62.3,10.18,26.4,8.13,55.22,1.32,81.52-7.93,26.6-23.01,48.91-33.5,72.17-10.52,23.28-17.26,48.34-19.54,73.85-4.85,51.35,8.33,102.82,26.59,151.53,17.93,49.1,39.48,97.49,52.05,149.07,6.15,25.74,9.91,52.24,9.48,78.81-.32,26.56-5.16,53-13.81,77.97-17.26,50.03-49.79,94.38-91.88,125.83,41.34-32.43,72.53-77.29,88.39-127,16.61-49.77,14.41-103.77.69-153.83-13.14-50.49-35.04-98.31-53.8-147.53-19.05-48.9-33.58-101.84-29.21-155.83,2.05-26.83,8.79-53.31,19.57-78.02,10.96-24.6,25.59-46.57,32.52-70.66,6.1-24.29,7.72-50.15-1.32-73.13-8.67-23.05-26.65-41.78-47.64-55.68-42.6-27.91-94.61-40.18-145.64-46.73-25.6-3.34-51.74-3.35-78.49-6.37-26.41-3.07-54.41-9.54-77.19-26.67-22.87-16.83-37.7-42.14-45.87-67.96-8.35-26.01-11.48-52.95-12.5-79.57-1.54-53.14,2.48-105.61,3.21-157.87.83-52.15-1.97-104.46-16.14-154.26-14.28-49.67-37.85-96.6-68.68-138.26-62.48-82.81-153.46-144.04-254.18-170.96-50.29-13.77-102.56-21.72-154.86-20.93-52.14.88-104.95,11.71-151.09,37.23Z"/><path class="cls-3" d="m3100.11,2688.45c4.88,118.78-22.65,207.99-131.28,266.74-86.52,46.79-190.12,62.14-285.6,64.49-160.13,3.95-338.56-37.35-458.34-149.83-21.74-20.42-42.6-45.44-44.17-75.22-1.43-27.07,13.46-52.58,14.78-79.65,2.21-45.67-33.29-83.49-49.16-126.37-20.96-56.63-6.71-119.85,12.12-177.22,18.83-57.37,42.4-115.29,39.57-175.61-3.67-78.24-50.68-146.55-88.32-215.24-37.64-68.69-67.27-152.25-35.1-223.67,21.19-47.06,71.75-83.25,123.4-88.98,54.57-6.05,103.6,56.3,138.55,90.65,47.04,46.22,99.44,86.98,155.82,121.19,77.97,47.31,163.57,82.21,236.92,136.43,44.38,32.81,91.99,77.85,113.17,130.11,23.88,58.89-17.93,115.9,32.62,170.07,32.61,34.95,82.7,46.83,122.13,73.85,84.42,57.83,99.05,164.45,102.9,258.23Z"/><path class="cls-5" d="m2215.79,3353.09c112.43-173.26,182.4-385.91,84.7-581.53-9.9-19.83-21.81-41.46-42.84-48.45-45.23-15.04-106.58,1.13-145.91,24.21-136.42,80.04-219.9,230.66-296.54,364.67-79.62,139.23-148.77,284.16-228.79,423.16-32.41,56.3-65.14,113.36-82.52,175.95-15.23,54.83-16.89,117.61,3.88,171.26,89.82,231.94,336.8-52.17,411.98-138,107.28-122.48,207.45-254.68,296.04-391.27Z"/><g><path class="cls-13" d="m3233.13,3159.25c32.32-136.85,49.07-276.85-24.17-370.07-33.08-42.1-92-71.41-140.23-92.26-94.06-40.66-190.23-95.31-290.92-113.03-106.16-18.68-224.23-30.2-330.03-3.48-67.2,16.97-130.07,48.38-190.16,82.26-52.14,29.4-116.11,54.71-141.43,109.43-61.34,132.58-115.78,270.88-160.94,409.78-37.78,116.22-79.25,238.03-19.72,355.81,19.29,38.17,47.31,70.83,69.37,107.29,24.58,40.62,33.75,78.77,36.97,125.63,7.35,106.9,4.49,214.12,4.19,321.18-.09,30.85.32,62.92,13.83,90.66,26.63,54.69,99.01,55.45,151.14,55.36,171.83-.3,343.67-.59,515.51-.89,71.5-.12,126.12,8.63,193.24,22.43,56.49,11.61,104.98-16.9,132.08-69.45,25.65-49.75,27.61-107.86,30.36-163.77,10.7-217.54,41.56-434.07,92.06-645.94,14.3-59.99,39.37-138.45,58.85-220.94Z"/><g class="cls-9"><path class="cls-5" d="m2835.14,2761.17c40.45-68.04,49.64-153.06-3.35-218.62-24.23-29.98-67.08-33.34-103.72-34.02-72.12-1.35-144.41,6.31-214.65,22.75-66.95,15.66-135.21,42.18-164.21,109.78-21.54,50.22-14.02,108.32,14.36,154.26,25.78,41.73,68.54,72.62,116.26,83.98,77.05,18.34,167.23,15.88,240.75-14.99,46.05-19.33,87.36-57.4,114.55-103.14Z"/><path class="cls-5" d="m3294,3786.65c-.53-104.93-1.06-209.86-1.59-314.8-.18-36.53,23.53-258.89-33.29-256.36-6.13.27-11.75,3.43-16.74,7-28.27,20.22-42.8,54.09-56.01,86.24-41.42,100.8-76.2,262.16-162.41,332.72-87.64,71.73-222.39,101.97-331.29,119.19-127.18,20.11-256.44,21.6-384.96,29.42-83.13,5.06-174.85,17.02-229.46,79.91-39,44.9-58.85,112.21-79.68,167.08-18.2,47.94-32.69,104.9,4.24,148.32,15.76,18.53,37.63,30.69,59.63,41.06,80.2,37.81,167.87,56.87,255.33,71.51,244.75,40.96,494.21,49.47,742.09,37.66,53-2.53,110.46-7.8,149.56-43.68,29.09-26.69,42.8-65.98,52.54-104.24,33.21-130.33,32.73-266.55,32.05-401.04Z"/></g></g><path class="cls-4" d="m2122.05,1994.6c-93.76,96.47-8.71,332.2,140.82,298.08,160.68-36.66,136.5-287.05-8.79-328.16-56.66-16.03-101.85-.97-132.03,30.08Z"/><path class="cls-7" d="m3401.97,3314.79c93.98,11.98,192.97,3.74,276.91-40.19,106.87-55.93,160.33-158.47,162.55-276.44,1.6-85.46-14.94-174.54-66.53-242.69-56.1-74.1-150.11-119.66-184.99-205.8-22.59-55.79-17.18-131.74,27.5-174.9,28.44-27.48,50.68-58.46,47.03-99.65-5.37-60.6-49.7-118.82-99.22-151.55-72.61-47.99-162.93-65.55-247.9-76.35-57.54-7.31-114.88-23.48-132.69-85.46-9.6-33.44-7.7-68.71-9.5-103.07-3.83-73.27-9.2-146.56-20.14-219.16-12.62-83.69-66.97-164.64-127.58-222.31-8.7-8.28-17.74-16.21-27.07-23.77-156.26-126.59-445.51-171.43-617.87-54.11-58.77,40-99.94,101.22-113.03,171.2-8.75,46.77-21.43,56.84-67.12,71.02-83.01,25.76-177.22,44.05-243.15,104.93-51.57,47.63-75.28,119.75-68.42,188.95,8.76,88.34,70.53,130.6,114.75,200.62,45.15,71.47,9.65,161.41-42.79,220.39-40.39,45.42-97.69,78.6-120.5,134.94-20.99,51.83-7.09,111.74,18.26,161.59,10.27,20.19,22.36,39.48,31.44,60.24,27.63,63.17,24.78,138.89-7.53,199.8"/><path class="cls-13" d="m3668.37,3451.49c28.74,51.85,57.31,103.78,85.35,156.04,56.93,106.07,162.62,341.73-6.59,399.95-85.25,29.33-134.02.65-190.38-61.46-213.2-234.97-394.99-498.36-539.05-780.97-53.62-105.19-195.99-379.3-23.06-441.93,54.6-19.78,117.54-15.17,168.69,12.34,23.39,12.58,44.12,29.52,63.94,47.2,124.8,111.3,213.67,254.9,292.73,400.55,48.86,90.01,98.88,179.03,148.37,268.29Z"/><path class="cls-12" d="m2688.62,2795.87c51.49-16.52,93.9-48.53,109.79-99.41,14.42-46.18-8.32-98.12-12.37-144.72-3.88-44.65-4.38-89.57-1.45-134.28,2.71-41.34,6.66-84.4.31-125.61-3.61-23.55-16.54-19.52-40.36-28.88-23.81-9.35-50.54-9.44-76.44-9.38-53.01.13-191.18-3.72-223.93,42.8-15.04,21.35-16.22,48.22-16.94,73.64-.86,30.7-6.3,70.44-11.33,113.26-2.24,19.06-.86,38.06-3.78,56.99-3.27,21.2-11.32,41.52-18.37,61.83-26.66,76.8-1.7,149.84,81.36,185,59.59,25.23,144.66,30.84,213.51,8.75Z"/><path class="cls-8" d="m2784.64,2291.85c-3.61-23.55-16.54-19.52-40.36-28.88-23.81-9.35-50.54-9.44-76.44-9.38-53.01.13-191.18-3.72-223.93,42.8-15.04,21.35-16.22,48.22-16.94,73.64-.86,30.69-6.3,70.44-11.33,113.26-2.24,19.06-.86,38.06-3.78,56.99-2.49,16.14-7.75,31.77-13.23,47.28,51.38,19.08,109.41,23.33,163.01,10.14,96.56-23.77,169.69-83.87,221.84-162.01.27-6.08.45-12.16.85-18.23,2.71-41.34,6.66-84.4.3-125.61Z"/><path class="cls-12" d="m2861.59,1989.25c-.42-70.78-10.19-137.92-28.4-193.67-78.57-240.55-378.64-299.97-559.34-127.31-201.5,192.56-124.39,652.95,87.86,814.68,56.75,43.24,133.87,58.43,202.79,39.95,208.53-55.92,298.41-312.55,297.1-533.65Z"/><path class="cls-12" d="m2822.15,1995.19c92.32-50.48,120.74,77.34,104.85,140.95-6.56,26.27-16.94,51.9-33.24,73.51-21.96,29.11-84.78,77.4-120.97,45.56-16.42-14.45-18.11-39-18.62-60.87-1.35-58.64,5.4-164.93,67.98-199.15Z"/><path class="cls-11" d="m2521.45,2416.24c-22.63,0-45.42-1.67-68.23-5.03l4.08-27.69c82.86,12.22,165.49.67,238.96-33.37,19.96-9.25,36.87-18.96,51.71-29.71,26.98-19.55,50.14-45.07,66.97-73.83l24.16,14.14c-18.77,32.08-44.61,60.56-74.71,82.36-16.31,11.81-34.75,22.42-56.36,32.43-58.16,26.95-121.66,40.7-186.57,40.7Z"/><path class="cls-11" d="m2372.29,2361.46c33.76-28.97,108.83-26.49,133.58,3.59,18.34,22.29,12.74,50.59-7.45,69.43-23.89,22.3-53.45,21-83.25,14.28-37.31-8.41-83.56-52.39-42.88-87.3Z"/><path class="cls-8" d="m2862.06,1805.49c-82.72-253.26-398.65-315.82-588.89-134.03-42.03,40.16-72.37,91.49-92.55,149.15,4.24,6.56,8.99,13.14,14.67,19.73,26.1,30.23,62.13,49.99,98.38,66.75,105.9,48.96,220.05,77.69,334.73,99.18,8.45,1.58,16.95,3.14,25.43,4.82,31.57,6.23,62.91,14.01,90.47,30.26,77.94,45.94,44.42,146.98,101.52,191.26,5.17,4.01,10.39,6.59,15.6,8.43,21.09-75.42,30.98-155.51,30.53-231.63-.44-74.52-10.73-145.2-29.9-203.9Z"/><path class="cls-16" d="m2662.02,1982.15c30.17,11.18,59.87,23.86,84.49,44.3,69.61,57.78,20.41,152.18,69.71,205,43.68,46.8,110.02-15.04,127.4-58.26,32.01-79.63,30.13-168.25,27.77-254.04-1.32-47.84-2.74-96.37-16.77-142.13-15.3-49.92-45.1-94.46-80.59-132.75-102.46-110.56-257.09-168.03-406.79-158.6-117.07,7.37-322.45,105.75-230.66,254.8,20.94,34.01,53.36,59.25,86.48,81.58,96.74,65.22,204.84,111.79,314.63,151.29,8.09,2.91,16.23,5.81,24.34,8.81Z"/><path class="cls-4" d="m2860.93,1958.83c-130.31,33.42-180.67,278.9-35.3,327.78,156.21,52.51,266.17-173.74,163.64-284.59-39.99-43.23-86.4-53.94-128.34-43.19Z"/><path class="cls-11" d="m2903.65,1990.34c-89.96,14.45-145.37,205.56-52.66,258.16,99.62,56.52,193.1-113.67,134.5-211.69-22.85-38.23-52.88-51.12-81.84-46.47Z"/><path class="cls-4" d="m2921.81,1976.01l-34.75-4.02c23.58-203.74,13.53-464.06-168.19-547.21-86.06-39.37-332.52-83.06-440.99,63.31-13.05,14.65-21.78,26.94-21.78,26.94,67.26-207.56,384.43-164.57,477.32-122.07,200.84,91.89,213.3,367.78,188.39,583.05Z"/><g><rect class="cls-4" x="1554.14" y="3893.6" width="711.32" height="139.26"/><g><path class="cls-4" d="m1676.2,3907.11l-179.52-913.94c-4.74-24.14-25.91-41.55-50.51-41.55H252.76c-17.28,0-32.08,8.55-41.36,21.22l-.16-.15-55.11,65.16,48.89-10.72,176.75,899.83c4.74,24.14,25.9,41.55,50.51,41.55h1193.42c32.41,0,56.75-29.59,50.51-61.39Z"/><path class="cls-16" d="m377.71,4032.87h1193.42c32.41,0,56.75-29.59,50.51-61.39l-179.52-913.94c-4.74-24.14-25.91-41.55-50.51-41.55H198.19c-32.41,0-56.75,29.59-50.51,61.39l179.52,913.94c4.74,24.14,25.9,41.55,50.51,41.55Z"/><path class="cls-4" d="m753.1,3501.78c11.01,61.65,69.91,111.63,131.56,111.63s101.99-49.98,90.1-111.63c-11.89-61.65-70.79-111.63-131.56-111.63s-101.11,49.98-90.1,111.63Z"/></g></g><g><path class="cls-1" d="m4180.27,3487.22c13.15-27.19,10.8-55.77,2.51-81.69-7.97-26.5-22.2-49.32-37.61-74.28-15.57-24.6-31.46-51.42-41.2-83.71-9.87-32.65-7.05-69.26,2.02-100.22,19.6-63.16,59.75-109.71,87.41-157.32,13.86-24.09,25.2-48.56,29.68-75.65,5.04-26.82,3.31-55.39-9.87-82.32,22.85,19.99,33.91,52.39,35.41,83.76,1.43,31.7-6.57,63.86-18.73,92.14-24.01,57.35-59.99,103.91-73.99,154.25-7.94,24.92-9.89,49.06-4.26,73.23,4.71,24.77,17.67,49.78,29.32,76.9,12.37,26.48,24.2,57.08,26.82,88.55,2.67,31.01-4.42,66.05-27.52,86.36Z"/><g><path class="cls-4" d="m4015.2,3521.94h354.66v414.46c0,51.63-41.92,93.54-93.54,93.54h-167.57c-51.63,0-93.54-41.92-93.54-93.54v-414.46h0Z"/><path class="cls-4" d="m4394.63,3636.84c-85.05,0-153.99,69.96-153.99,156.25s68.94,156.25,153.99,156.25,153.99-69.96,153.99-156.25-68.94-156.25-153.99-156.25Zm0,256.78c-54.72,0-99.08-45.01-99.08-100.53s44.36-100.53,99.08-100.53,99.07,45.01,99.07,100.53-44.36,100.53-99.07,100.53Z"/><path class="cls-2" d="m4068.23,3837.12h0c-10.55,0-19.17-8.63-19.17-19.17v-247.23c0-10.55,8.63-19.17,19.17-19.17h0c10.55,0,19.17,8.63,19.17,19.17v247.23c0,10.55-8.63,19.17-19.17,19.17Z"/><path class="cls-11" d="m4287.96,3521.94v418.19c0,49.6-40.21,89.82-89.82,89.82h81.91c49.61,0,89.82-40.21,89.82-89.82v-418.19h-81.9Z"/></g></g><g><rect class="cls-11" x="3320.81" y="785.73" width="1453.04" height="882.33" rx="124.72" ry="124.72" transform="translate(8094.66 2453.79) rotate(180)"/><polygon class="cls-11" points="3512.06 1900.31 3512.06 1494.85 3829.62 1668.06 3512.06 1900.31"/><rect class="cls-15" x="3542.13" y="1189.65" width="719.3" height="76.98" rx="38.49" ry="38.49"/><rect class="cls-15" x="4316.77" y="1189.65" width="235.76" height="76.98" rx="38.49" ry="38.49"/><path class="cls-15" d="m3871.72,1014.83h642.32c21.17,0,38.49,17.32,38.49,38.49h0c0,21.17-17.32,38.49-38.49,38.49h-642.32c-21.17,0-38.49-17.32-38.49-38.49h0c0-21.17,17.32-38.49,38.49-38.49Z"/><path class="cls-15" d="m3580.63,1014.83h158.78c21.17,0,38.49,17.32,38.49,38.49h0c0,21.17-17.32,38.49-38.49,38.49h-158.78c-21.17,0-38.49-17.32-38.49-38.49h0c0-21.17,17.32-38.49,38.49-38.49Z"/><path class="cls-15" d="m4008.84,1426.45h-428.21c-21.17,0-38.49-17.32-38.49-38.49h0c0-21.17,17.32-38.49,38.49-38.49h428.21c21.17,0,38.49,17.32,38.49,38.49h0c0,21.17-17.32,38.49-38.49,38.49Z"/></g><path class="cls-13" d="m2836.05,3821.81c14.55-2.48,29.13-4.89,43.74-7.18,71-11.14,141.71-24.36,212.02-39.65,139.25-30.28,279.32-56.28,421.07-69.71,15.02-1.42,30.06-2.7,45.1-3.84,63.55-4.8,130.14-6.36,188.32,24.02,58.17,30.38,104.44,102.28,90.23,171.58-9.98,48.69-47.21,85.34-88.58,103.81-41.37,18.47-86.92,21.69-131.59,24.7-144.73,9.74-289.46,19.48-434.2,29.23-71.66,4.78-143.31,9.73-214.96,14.71-68.43,4.76-137.89,14.42-206.5,14.35-29.02-.03-61.43-5.47-85.81-24.84-33.9-26.92-54.31-84.23-57.59-129.02-1.7-23.26,2.84-51.5,20.65-65.89,9.54-7.71,21.66-10.06,33.33-12.21,55-10.13,109.74-20.68,164.77-30.08Z"/><path class="cls-12" d="m2673.68,4042.35c-35,7.22-62.35,37.96-97.18,48.25-24.86,7.35-51.46,3.42-75.35-5.54-21.96-8.24-44.3-12.64-66.84-19.86-17.57-5.63-41.3-17.47-60.17-13.55-49.47,10.3-98.81,45.51-143.66,68.36-10.08,5.14-21.13,10.43-32.25,8.32-11.12-2.11-20.39-15.59-14.07-24.97-12.9,12.05-29.98,36.16-50.8,26.81-8.51-3.82-13.65-15.1-8.93-23.15-7.15,7.85-14.67,15.95-24.54,19.85-9.88,3.9-22.83,2.21-28.65-6.68-2.74-4.18-3.56-9.32-3.81-14.32-.85-17.17,4.33-34.14,11.49-49.76,35.32-77.08,115.19-134.27,183.16-180.19,12.02-8.12,24.27-16.36,38.15-20.6,12.42-3.79,25.59-4.21,38.57-4.27,84.28-.39,168.61,13.24,248.48,40.15,17.28,5.82,36.31.86,53.54-2.36,12.76-2.39,26.08-4.76,38.54-1.12,13.94,4.07,24.75,15.12,33.24,26.9,15.62,21.67,27.55,50.35,25.69,77.57-1.41,20.67-2.98,42.97-27.3,47.3-9.86,1.76-20,.67-29.96,1.71-2.49.26-4.94.65-7.35,1.15Z"/></g></g></g></svg>