<svg width="1728" height="820" viewBox="0 0 1728 820" fill="none" xmlns="http://www.w3.org/2000/svg">
<path d="M12.244 82.452C13.9506 85.4387 15.9133 88.0413 18.132 90.26C20.3506 92.3933 22.74 94.0147 25.3 95.124C27.9453 96.2333 30.5906 96.788 33.236 96.788C35.4546 96.788 37.332 96.3613 38.868 95.508C40.404 94.5693 41.172 93.1187 41.172 91.156C41.172 89.9613 40.7453 88.9373 39.892 88.084C39.124 87.2307 37.5453 86.2493 35.156 85.14C32.7666 84.0307 29.14 82.5373 24.276 80.66C22.1426 79.8067 19.668 78.6547 16.852 77.204C14.1213 75.7533 11.476 73.876 8.91596 71.572C6.44129 69.268 4.35063 66.452 2.64396 63.124C1.02263 59.796 0.211962 55.8707 0.211962 51.348C0.211962 45.46 1.79063 40.5107 4.94796 36.5C8.1053 32.4893 12.2866 29.46 17.492 27.412C22.6973 25.364 28.4146 24.34 34.644 24.34C41.3853 24.34 47.1453 25.364 51.924 27.412C56.788 29.46 60.756 32.02 63.828 35.092C66.9853 38.164 69.3746 41.236 70.996 44.308L50.132 55.828C48.7666 53.6947 47.2306 52.0307 45.524 50.836C43.9026 49.556 42.2386 48.6173 40.532 48.02C38.8253 47.4227 37.1613 47.124 35.54 47.124C33.5773 47.124 31.956 47.4653 30.676 48.148C29.4813 48.8307 28.884 49.8973 28.884 51.348C28.884 53.14 29.7373 54.6333 31.444 55.828C33.236 56.9373 35.5826 58.004 38.484 59.028C41.3853 59.9667 44.5853 61.076 48.084 62.356C51.668 63.636 54.868 65.172 57.684 66.964C60.5 68.6707 62.8893 70.676 64.852 72.98C66.9 75.284 68.436 77.8867 69.46 80.788C70.484 83.604 70.996 86.7613 70.996 90.26C70.996 95.2093 69.972 99.604 67.924 103.444C65.876 107.199 63.1026 110.313 59.604 112.788C56.1906 115.263 52.308 117.14 47.956 118.42C43.604 119.7 39.124 120.34 34.516 120.34C28.116 120.34 22.1426 119.273 16.596 117.14C11.1346 115.092 6.39863 112.233 2.38796 108.564C-1.62271 104.895 -4.65204 100.799 -6.70004 96.276L12.244 82.452ZM103.876 116.5L103.876 94.1L149.06 94.1V116.5H103.876ZM103.876 49.3V26.9L149.06 26.9V49.3L103.876 49.3ZM103.876 81.3V59.54L146.5 59.54L146.5 81.3L103.876 81.3ZM84.42 26.9L111.3 26.9L111.3 116.5H84.42L84.42 26.9ZM191.91 78.1L220.71 78.1L246.31 116.5H213.67L191.91 78.1ZM165.67 26.9L193.83 26.9L193.83 116.5H165.67L165.67 26.9ZM183.846 50.58V26.9L203.43 26.9C212.219 26.9 219.345 28.2227 224.806 30.868C230.353 33.5133 234.406 37.14 236.966 41.748C239.611 46.356 240.934 51.6467 240.934 57.62C240.934 63.508 239.611 68.7987 236.966 73.492C234.406 78.1 230.353 81.7267 224.806 84.372C219.345 87.0173 212.219 88.34 203.43 88.34H183.846L183.846 67.22H200.87C203.259 67.22 205.222 66.9213 206.758 66.324C208.294 65.6413 209.446 64.66 210.214 63.38C211.067 62.1 211.494 60.6067 211.494 58.9C211.494 57.108 211.067 55.6147 210.214 54.42C209.446 53.14 208.294 52.2013 206.758 51.604C205.222 50.9213 203.259 50.58 200.87 50.58H183.846ZM296.255 70.676L313.535 26.9L346.815 26.9L296.255 122.9L245.695 26.9L278.975 26.9L296.255 70.676ZM355.17 26.9L383.97 26.9V116.5H355.17V26.9ZM427.776 71.7C427.776 76.308 428.8 80.1907 430.848 83.348C432.981 86.42 435.755 88.724 439.168 90.26C442.667 91.796 446.507 92.564 450.688 92.564C454.955 92.564 458.624 92.0093 461.696 90.9C464.768 89.7907 467.456 88.4253 469.76 86.804C472.149 85.0973 474.283 83.348 476.16 81.556V110.484C472.661 112.873 468.821 114.879 464.64 116.5C460.544 118.207 455.211 119.06 448.64 119.06C440.875 119.06 433.792 117.951 427.392 115.732C420.992 113.513 415.531 110.313 411.008 106.132C406.485 101.951 402.987 96.9587 400.512 91.156C398.037 85.3533 396.8 78.868 396.8 71.7C396.8 64.532 398.037 58.0467 400.512 52.244C402.987 46.4413 406.485 41.4493 411.008 37.268C415.531 33.0867 420.992 29.8867 427.392 27.668C433.792 25.4493 440.875 24.34 448.64 24.34C455.211 24.34 460.544 25.1507 464.64 26.772C468.821 28.3933 472.661 30.4413 476.16 32.916V61.844C474.283 60.052 472.149 58.3027 469.76 56.596C467.456 54.8893 464.768 53.524 461.696 52.5C458.624 51.3907 454.955 50.836 450.688 50.836C446.507 50.836 442.667 51.604 439.168 53.14C435.755 54.676 432.981 57.0227 430.848 60.18C428.8 63.252 427.776 67.092 427.776 71.7ZM512.251 116.5V94.1H557.435V116.5H512.251ZM512.251 49.3V26.9L557.435 26.9V49.3H512.251ZM512.251 81.3V59.54H554.875V81.3H512.251ZM492.795 26.9L519.675 26.9V116.5H492.795V26.9ZM587.869 82.452C589.576 85.4387 591.538 88.0413 593.757 90.26C595.976 92.3933 598.365 94.0147 600.925 95.124C603.57 96.2333 606.216 96.788 608.861 96.788C611.08 96.788 612.957 96.3613 614.493 95.508C616.029 94.5693 616.797 93.1187 616.797 91.156C616.797 89.9613 616.37 88.9373 615.517 88.084C614.749 87.2307 613.17 86.2493 610.781 85.14C608.392 84.0307 604.765 82.5373 599.901 80.66C597.768 79.8067 595.293 78.6547 592.477 77.204C589.746 75.7533 587.101 73.876 584.541 71.572C582.066 69.268 579.976 66.452 578.269 63.124C576.648 59.796 575.837 55.8707 575.837 51.348C575.837 45.46 577.416 40.5107 580.573 36.5C583.73 32.4893 587.912 29.46 593.117 27.412C598.322 25.364 604.04 24.34 610.269 24.34C617.01 24.34 622.77 25.364 627.549 27.412C632.413 29.46 636.381 32.02 639.453 35.092C642.61 38.164 645 41.236 646.621 44.308L625.757 55.828C624.392 53.6947 622.856 52.0307 621.149 50.836C619.528 49.556 617.864 48.6173 616.157 48.02C614.45 47.4227 612.786 47.124 611.165 47.124C609.202 47.124 607.581 47.4653 606.301 48.148C605.106 48.8307 604.509 49.8973 604.509 51.348C604.509 53.14 605.362 54.6333 607.069 55.828C608.861 56.9373 611.208 58.004 614.109 59.028C617.01 59.9667 620.21 61.076 623.709 62.356C627.293 63.636 630.493 65.172 633.309 66.964C636.125 68.6707 638.514 70.676 640.477 72.98C642.525 75.284 644.061 77.8867 645.085 80.788C646.109 83.604 646.621 86.7613 646.621 90.26C646.621 95.2093 645.597 99.604 643.549 103.444C641.501 107.199 638.728 110.313 635.229 112.788C631.816 115.263 627.933 117.14 623.581 118.42C619.229 119.7 614.749 120.34 610.141 120.34C603.741 120.34 597.768 119.273 592.221 117.14C586.76 115.092 582.024 112.233 578.013 108.564C574.002 104.895 570.973 100.799 568.925 96.276L587.869 82.452Z" fill="white" fill-opacity="0.05"/>
<path d="M-270.216 737.952C-268.509 740.939 -266.547 743.541 -264.328 745.76C-262.109 747.893 -259.72 749.515 -257.16 750.624C-254.515 751.733 -251.869 752.288 -249.224 752.288C-247.005 752.288 -245.128 751.861 -243.592 751.008C-242.056 750.069 -241.288 748.619 -241.288 746.656C-241.288 745.461 -241.715 744.437 -242.568 743.584C-243.336 742.731 -244.915 741.749 -247.304 740.64C-249.693 739.531 -253.32 738.037 -258.184 736.16C-260.317 735.307 -262.792 734.155 -265.608 732.704C-268.339 731.253 -270.984 729.376 -273.544 727.072C-276.019 724.768 -278.109 721.952 -279.816 718.624C-281.437 715.296 -282.248 711.371 -282.248 706.848C-282.248 700.96 -280.669 696.011 -277.512 692C-274.355 687.989 -270.173 684.96 -264.968 682.912C-259.763 680.864 -254.045 679.84 -247.816 679.84C-241.075 679.84 -235.315 680.864 -230.536 682.912C-225.672 684.96 -221.704 687.52 -218.632 690.592C-215.475 693.664 -213.085 696.736 -211.464 699.808L-232.328 711.328C-233.693 709.195 -235.229 707.531 -236.936 706.336C-238.557 705.056 -240.221 704.117 -241.928 703.52C-243.635 702.923 -245.299 702.624 -246.92 702.624C-248.883 702.624 -250.504 702.965 -251.784 703.648C-252.979 704.331 -253.576 705.397 -253.576 706.848C-253.576 708.64 -252.723 710.133 -251.016 711.328C-249.224 712.437 -246.877 713.504 -243.976 714.528C-241.075 715.467 -237.875 716.576 -234.376 717.856C-230.792 719.136 -227.592 720.672 -224.776 722.464C-221.96 724.171 -219.571 726.176 -217.608 728.48C-215.56 730.784 -214.024 733.387 -213 736.288C-211.976 739.104 -211.464 742.261 -211.464 745.76C-211.464 750.709 -212.488 755.104 -214.536 758.944C-216.584 762.699 -219.357 765.813 -222.856 768.288C-226.269 770.763 -230.152 772.64 -234.504 773.92C-238.856 775.2 -243.336 775.84 -247.944 775.84C-254.344 775.84 -260.317 774.773 -265.864 772.64C-271.325 770.592 -276.061 767.733 -280.072 764.064C-284.083 760.395 -287.112 756.299 -289.16 751.776L-270.216 737.952ZM-178.584 772L-178.584 749.6H-133.4V772H-178.584ZM-178.584 704.8V682.4H-133.4V704.8H-178.584ZM-178.584 736.8V715.04H-135.96L-135.96 736.8H-178.584ZM-198.04 682.4H-171.16L-171.16 772H-198.04L-198.04 682.4ZM-90.55 733.6H-61.75L-36.15 772H-68.79L-90.55 733.6ZM-116.79 682.4H-88.63L-88.63 772H-116.79L-116.79 682.4ZM-98.614 706.08V682.4H-79.03C-70.2407 682.4 -63.1153 683.723 -57.654 686.368C-52.1073 689.013 -48.054 692.64 -45.494 697.248C-42.8487 701.856 -41.526 707.147 -41.526 713.12C-41.526 719.008 -42.8487 724.299 -45.494 728.992C-48.054 733.6 -52.1073 737.227 -57.654 739.872C-63.1153 742.517 -70.2407 743.84 -79.03 743.84H-98.614L-98.614 722.72H-81.59C-79.2007 722.72 -77.238 722.421 -75.702 721.824C-74.166 721.141 -73.014 720.16 -72.246 718.88C-71.3927 717.6 -70.966 716.107 -70.966 714.4C-70.966 712.608 -71.3927 711.115 -72.246 709.92C-73.014 708.64 -74.166 707.701 -75.702 707.104C-77.238 706.421 -79.2007 706.08 -81.59 706.08H-98.614ZM13.795 726.176L31.075 682.4H64.355L13.795 778.4L-36.765 682.4H-3.485L13.795 726.176ZM72.71 682.4L101.51 682.4V772H72.71V682.4ZM145.316 727.2C145.316 731.808 146.34 735.691 148.388 738.848C150.521 741.92 153.295 744.224 156.708 745.76C160.207 747.296 164.047 748.064 168.228 748.064C172.495 748.064 176.164 747.509 179.236 746.4C182.308 745.291 184.996 743.925 187.3 742.304C189.689 740.597 191.823 738.848 193.7 737.056V765.984C190.201 768.373 186.361 770.379 182.18 772C178.084 773.707 172.751 774.56 166.18 774.56C158.415 774.56 151.332 773.451 144.932 771.232C138.532 769.013 133.071 765.813 128.548 761.632C124.025 757.451 120.527 752.459 118.052 746.656C115.577 740.853 114.34 734.368 114.34 727.2C114.34 720.032 115.577 713.547 118.052 707.744C120.527 701.941 124.025 696.949 128.548 692.768C133.071 688.587 138.532 685.387 144.932 683.168C151.332 680.949 158.415 679.84 166.18 679.84C172.751 679.84 178.084 680.651 182.18 682.272C186.361 683.893 190.201 685.941 193.7 688.416V717.344C191.823 715.552 189.689 713.803 187.3 712.096C184.996 710.389 182.308 709.024 179.236 708C176.164 706.891 172.495 706.336 168.228 706.336C164.047 706.336 160.207 707.104 156.708 708.64C153.295 710.176 150.521 712.523 148.388 715.68C146.34 718.752 145.316 722.592 145.316 727.2ZM229.791 772V749.6H274.975V772H229.791ZM229.791 704.8V682.4H274.975V704.8H229.791ZM229.791 736.8V715.04H272.415V736.8H229.791ZM210.335 682.4H237.215V772H210.335V682.4ZM305.409 737.952C307.116 740.939 309.078 743.541 311.297 745.76C313.516 747.893 315.905 749.515 318.465 750.624C321.11 751.733 323.756 752.288 326.401 752.288C328.62 752.288 330.497 751.861 332.033 751.008C333.569 750.069 334.337 748.619 334.337 746.656C334.337 745.461 333.91 744.437 333.057 743.584C332.289 742.731 330.71 741.749 328.321 740.64C325.932 739.531 322.305 738.037 317.441 736.16C315.308 735.307 312.833 734.155 310.017 732.704C307.286 731.253 304.641 729.376 302.081 727.072C299.606 724.768 297.516 721.952 295.809 718.624C294.188 715.296 293.377 711.371 293.377 706.848C293.377 700.96 294.956 696.011 298.113 692C301.27 687.989 305.452 684.96 310.657 682.912C315.862 680.864 321.58 679.84 327.809 679.84C334.55 679.84 340.31 680.864 345.089 682.912C349.953 684.96 353.921 687.52 356.993 690.592C360.15 693.664 362.54 696.736 364.161 699.808L343.297 711.328C341.932 709.195 340.396 707.531 338.689 706.336C337.068 705.056 335.404 704.117 333.697 703.52C331.99 702.923 330.326 702.624 328.705 702.624C326.742 702.624 325.121 702.965 323.841 703.648C322.646 704.331 322.049 705.397 322.049 706.848C322.049 708.64 322.902 710.133 324.609 711.328C326.401 712.437 328.748 713.504 331.649 714.528C334.55 715.467 337.75 716.576 341.249 717.856C344.833 719.136 348.033 720.672 350.849 722.464C353.665 724.171 356.054 726.176 358.017 728.48C360.065 730.784 361.601 733.387 362.625 736.288C363.649 739.104 364.161 742.261 364.161 745.76C364.161 750.709 363.137 755.104 361.089 758.944C359.041 762.699 356.268 765.813 352.769 768.288C349.356 770.763 345.473 772.64 341.121 773.92C336.769 775.2 332.289 775.84 327.681 775.84C321.281 775.84 315.308 774.773 309.761 772.64C304.3 770.592 299.564 767.733 295.553 764.064C291.542 760.395 288.513 756.299 286.465 751.776L305.409 737.952Z" fill="white" fill-opacity="0.05"/>
<path d="M1106.24 294.048C1107.95 291.061 1109.91 288.459 1112.13 286.24C1114.35 284.107 1116.74 282.485 1119.3 281.376C1121.95 280.267 1124.59 279.712 1127.24 279.712C1129.45 279.712 1131.33 280.139 1132.87 280.992C1134.4 281.931 1135.17 283.381 1135.17 285.344C1135.17 286.539 1134.75 287.563 1133.89 288.416C1133.12 289.269 1131.55 290.251 1129.16 291.36C1126.77 292.469 1123.14 293.963 1118.28 295.84C1116.14 296.693 1113.67 297.845 1110.85 299.296C1108.12 300.747 1105.48 302.624 1102.92 304.928C1100.44 307.232 1098.35 310.048 1096.64 313.376C1095.02 316.704 1094.21 320.629 1094.21 325.152C1094.21 331.04 1095.79 335.989 1098.95 340C1102.11 344.011 1106.29 347.04 1111.49 349.088C1116.7 351.136 1122.41 352.16 1128.64 352.16C1135.39 352.16 1141.15 351.136 1145.92 349.088C1150.79 347.04 1154.76 344.48 1157.83 341.408C1160.99 338.336 1163.37 335.264 1165 332.192L1144.13 320.672C1142.77 322.805 1141.23 324.469 1139.52 325.664C1137.9 326.944 1136.24 327.883 1134.53 328.48C1132.83 329.077 1131.16 329.376 1129.54 329.376C1127.58 329.376 1125.96 329.035 1124.68 328.352C1123.48 327.669 1122.88 326.603 1122.88 325.152C1122.88 323.36 1123.74 321.867 1125.44 320.672C1127.24 319.563 1129.58 318.496 1132.48 317.472C1135.39 316.533 1138.59 315.424 1142.08 314.144C1145.67 312.864 1148.87 311.328 1151.68 309.536C1154.5 307.829 1156.89 305.824 1158.85 303.52C1160.9 301.216 1162.44 298.613 1163.46 295.712C1164.48 292.896 1165 289.739 1165 286.24C1165 281.291 1163.97 276.896 1161.92 273.056C1159.88 269.301 1157.1 266.187 1153.6 263.712C1150.19 261.237 1146.31 259.36 1141.96 258.08C1137.6 256.8 1133.12 256.16 1128.52 256.16C1122.12 256.16 1116.14 257.227 1110.6 259.36C1105.13 261.408 1100.4 264.267 1096.39 267.936C1092.38 271.605 1089.35 275.701 1087.3 280.224L1106.24 294.048ZM1197.88 260V282.4H1243.06V260H1197.88ZM1197.88 327.2V349.6H1243.06V327.2H1197.88ZM1197.88 295.2V316.96H1240.5V295.2H1197.88ZM1178.42 349.6H1205.3V260H1178.42V349.6ZM1285.91 298.4L1314.71 298.4L1340.31 260H1307.67L1285.91 298.4ZM1259.67 349.6L1287.83 349.6V260H1259.67V349.6ZM1277.85 325.92V349.6L1297.43 349.6C1306.22 349.6 1313.34 348.277 1318.81 345.632C1324.35 342.987 1328.41 339.36 1330.97 334.752C1333.61 330.144 1334.93 324.853 1334.93 318.88C1334.93 312.992 1333.61 307.701 1330.97 303.008C1328.41 298.4 1324.35 294.773 1318.81 292.128C1313.34 289.483 1306.22 288.16 1297.43 288.16H1277.85V309.28H1294.87C1297.26 309.28 1299.22 309.579 1300.76 310.176C1302.29 310.859 1303.45 311.84 1304.21 313.12C1305.07 314.4 1305.49 315.893 1305.49 317.6C1305.49 319.392 1305.07 320.885 1304.21 322.08C1303.45 323.36 1302.29 324.299 1300.76 324.896C1299.22 325.579 1297.26 325.92 1294.87 325.92H1277.85ZM1390.25 305.824L1407.53 349.6H1440.81L1390.25 253.6L1339.69 349.6H1372.97L1390.25 305.824ZM1449.17 349.6H1477.97V260H1449.17V349.6ZM1521.78 304.8C1521.78 300.192 1522.8 296.309 1524.85 293.152C1526.98 290.08 1529.75 287.776 1533.17 286.24C1536.67 284.704 1540.51 283.936 1544.69 283.936C1548.95 283.936 1552.62 284.491 1555.7 285.6C1558.77 286.709 1561.46 288.075 1563.76 289.696C1566.15 291.403 1568.28 293.152 1570.16 294.944V266.016C1566.66 263.627 1562.82 261.621 1558.64 260C1554.54 258.293 1549.21 257.44 1542.64 257.44C1534.87 257.44 1527.79 258.549 1521.39 260.768C1514.99 262.987 1509.53 266.187 1505.01 270.368C1500.49 274.549 1496.99 279.541 1494.51 285.344C1492.04 291.147 1490.8 297.632 1490.8 304.8C1490.8 311.968 1492.04 318.453 1494.51 324.256C1496.99 330.059 1500.49 335.051 1505.01 339.232C1509.53 343.413 1514.99 346.613 1521.39 348.832C1527.79 351.051 1534.87 352.16 1542.64 352.16C1549.21 352.16 1554.54 351.349 1558.64 349.728C1562.82 348.107 1566.66 346.059 1570.16 343.584V314.656C1568.28 316.448 1566.15 318.197 1563.76 319.904C1561.46 321.611 1558.77 322.976 1555.7 324C1552.62 325.109 1548.95 325.664 1544.69 325.664C1540.51 325.664 1536.67 324.896 1533.17 323.36C1529.75 321.824 1526.98 319.477 1524.85 316.32C1522.8 313.248 1521.78 309.408 1521.78 304.8ZM1606.25 260V282.4H1651.43V260H1606.25ZM1606.25 327.2V349.6H1651.43V327.2H1606.25ZM1606.25 295.2V316.96H1648.87V295.2H1606.25ZM1586.79 349.6L1613.67 349.6V260H1586.79V349.6ZM1681.87 294.048C1683.58 291.061 1685.54 288.459 1687.76 286.24C1689.98 284.107 1692.36 282.485 1694.92 281.376C1697.57 280.267 1700.22 279.712 1702.86 279.712C1705.08 279.712 1706.96 280.139 1708.49 280.992C1710.03 281.931 1710.8 283.381 1710.8 285.344C1710.8 286.539 1710.37 287.563 1709.52 288.416C1708.75 289.269 1707.17 290.251 1704.78 291.36C1702.39 292.469 1698.76 293.963 1693.9 295.84C1691.77 296.693 1689.29 297.845 1686.48 299.296C1683.75 300.747 1681.1 302.624 1678.54 304.928C1676.07 307.232 1673.98 310.048 1672.27 313.376C1670.65 316.704 1669.84 320.629 1669.84 325.152C1669.84 331.04 1671.42 335.989 1674.57 340C1677.73 344.011 1681.91 347.04 1687.12 349.088C1692.32 351.136 1698.04 352.16 1704.27 352.16C1711.01 352.16 1716.77 351.136 1721.55 349.088C1726.41 347.04 1730.38 344.48 1733.45 341.408C1736.61 338.336 1739 335.264 1740.62 332.192L1719.76 320.672C1718.39 322.805 1716.86 324.469 1715.15 325.664C1713.53 326.944 1711.86 327.883 1710.16 328.48C1708.45 329.077 1706.79 329.376 1705.16 329.376C1703.2 329.376 1701.58 329.035 1700.3 328.352C1699.11 327.669 1698.51 326.603 1698.51 325.152C1698.51 323.36 1699.36 321.867 1701.07 320.672C1702.86 319.563 1705.21 318.496 1708.11 317.472C1711.01 316.533 1714.21 315.424 1717.71 314.144C1721.29 312.864 1724.49 311.328 1727.31 309.536C1730.12 307.829 1732.51 305.824 1734.48 303.52C1736.52 301.216 1738.06 298.613 1739.08 295.712C1740.11 292.896 1740.62 289.739 1740.62 286.24C1740.62 281.291 1739.6 276.896 1737.55 273.056C1735.5 269.301 1732.73 266.187 1729.23 263.712C1725.82 261.237 1721.93 259.36 1717.58 258.08C1713.23 256.8 1708.75 256.16 1704.14 256.16C1697.74 256.16 1691.77 257.227 1686.22 259.36C1680.76 261.408 1676.02 264.267 1672.01 267.936C1668 271.605 1664.97 275.701 1662.92 280.224L1681.87 294.048Z" fill="white" fill-opacity="0.05"/>
</svg>
