<svg width="1478" height="470" viewBox="0 0 1478 470" fill="none" xmlns="http://www.w3.org/2000/svg">
<path d="M46.6259 37.5L46.9526 49.0321C47.231 58.8639 55.3401 66.7704 65.4241 67.0419L77.2519 67.3603L65.4241 67.6786C55.3401 67.9502 47.231 75.8566 46.9526 85.6886L46.6259 97.2206L46.2993 85.6886C46.0209 75.8566 37.9118 67.9502 27.8277 67.6786L16 67.3603L27.8277 67.0419C37.9118 66.7704 46.0209 58.8639 46.2993 49.0321L46.6259 37.5Z" fill="#FFFDFA"/>
<g clip-path="url(#clip0_1058_3365)">
<path d="M109.428 423L109.681 431.916C109.896 439.518 116.166 445.63 123.962 445.84L133.107 446.086L123.962 446.333C116.166 446.543 109.896 452.655 109.681 460.257L109.428 469.173L109.176 460.257C108.961 452.655 102.691 446.543 94.8946 446.333L85.75 446.086L94.8946 445.84C102.691 445.63 108.961 439.518 109.176 431.916L109.428 423Z" fill="#FFFDFA"/>
</g>
<g clip-path="url(#clip1_1058_3365)">
<path d="M1457.28 0L1457.49 7.42113C1457.67 13.7482 1462.89 18.8361 1469.38 19.0109L1476.99 19.2158L1469.38 19.4206C1462.89 19.5954 1457.67 24.6833 1457.49 31.0104L1457.28 38.4315L1457.07 31.0104C1456.89 24.6833 1451.67 19.5954 1445.18 19.4206L1437.57 19.2158L1445.18 19.0109C1451.67 18.8361 1456.89 13.7482 1457.07 7.42113L1457.28 0Z" fill="#FFFDFA"/>
</g>
<g clip-path="url(#clip2_1058_3365)">
<path d="M1409.48 186L1409.61 190.378C1409.71 194.111 1412.79 197.112 1416.62 197.215L1421.11 197.336L1416.62 197.457C1412.79 197.56 1409.71 200.562 1409.61 204.294L1409.48 208.672L1409.36 204.294C1409.25 200.562 1406.18 197.56 1402.35 197.457L1397.86 197.336L1402.35 197.215C1406.18 197.112 1409.25 194.111 1409.36 190.378L1409.48 186Z" fill="#FFFDFA"/>
</g>
<g clip-path="url(#clip3_1058_3365)">
<path d="M1437.36 393.056L1437.66 403.52C1437.91 412.441 1445.27 419.616 1454.42 419.862L1465.15 420.151L1454.42 420.44C1445.27 420.686 1437.91 427.861 1437.66 436.782L1437.36 447.247L1437.06 436.782C1436.81 427.861 1429.45 420.686 1420.3 420.44L1409.57 420.151L1420.3 419.862C1429.45 419.616 1436.81 412.441 1437.06 403.52L1437.36 393.056Z" fill="#FFFDFA"/>
</g>
<g clip-path="url(#clip4_1058_3365)">
<path d="M15.8842 283.5L16.0476 289.266C16.1868 294.182 20.2414 298.135 25.2833 298.271L31.1973 298.43L25.2833 298.589C20.2414 298.725 16.1868 302.678 16.0476 307.594L15.8842 313.36L15.721 307.594C15.5818 302.678 11.5272 298.725 6.48516 298.589L0.571289 298.43L6.48516 298.271C11.5272 298.135 15.5818 294.182 15.721 289.266L15.8842 283.5Z" fill="#FFFDFA"/>
</g>
<defs>
<clipPath id="clip0_1058_3365">
<rect width="47.7144" height="46.389" fill="white" transform="translate(85.75 423)"/>
</clipPath>
<clipPath id="clip1_1058_3365">
<rect width="39.7145" height="38.6113" fill="white" transform="translate(1437.57)"/>
</clipPath>
<clipPath id="clip2_1058_3365">
<rect width="23.429" height="22.7782" fill="white" transform="translate(1397.86 186)"/>
</clipPath>
<clipPath id="clip3_1058_3365">
<rect width="56" height="54.4444" fill="white" transform="translate(1409.57 393.056)"/>
</clipPath>
<clipPath id="clip4_1058_3365">
<rect width="30.8572" height="30" fill="white" transform="translate(0.571289 283.5)"/>
</clipPath>
</defs>
</svg>
