<svg width="36" height="36" viewBox="0 0 36 36" fill="none" xmlns="http://www.w3.org/2000/svg">
<path d="M18.0004 8.40002C16.1017 8.40002 14.2456 8.96305 12.6669 10.0179C11.0882 11.0728 9.85775 12.5721 9.13115 14.3263C8.40455 16.0804 8.21444 18.0107 8.58486 19.8729C8.95527 21.7351 9.86959 23.4457 11.2122 24.7882C12.5548 26.1308 14.2653 27.0451 16.1275 27.4156C17.9897 27.786 19.92 27.5959 21.6742 26.8693C23.4283 26.1427 24.9276 24.9122 25.9825 23.3335C27.0374 21.7548 27.6004 19.8987 27.6004 18C27.5974 15.4549 26.585 13.0148 24.7853 11.2151C22.9856 9.41544 20.5455 8.40304 18.0004 8.40002ZM18.0004 26.4C16.339 26.4 14.715 25.9074 13.3336 24.9844C11.9522 24.0614 10.8756 22.7495 10.2398 21.2146C9.60403 19.6797 9.43768 17.9907 9.7618 16.3613C10.0859 14.7318 10.8859 13.2351 12.0607 12.0603C13.2355 10.8856 14.7322 10.0855 16.3616 9.76143C17.9911 9.43731 19.68 9.60366 21.2149 10.2394C22.7498 10.8752 24.0617 11.9519 24.9847 13.3332C25.9077 14.7146 26.4004 16.3387 26.4004 18C26.398 20.2271 25.5123 22.3623 23.9375 23.9371C22.3627 25.5119 20.2275 26.3976 18.0004 26.4Z" fill="url(#paint0_linear_208_909)"/>
<path d="M19.1996 15.1104V14.4H17.9996V15H17.3996V14.4H16.1996V15C16.0405 15 15.8879 15.0632 15.7753 15.1758C15.6628 15.2883 15.5996 15.4409 15.5996 15.6V20.4C15.5996 20.5592 15.6628 20.7118 15.7753 20.8243C15.8879 20.9368 16.0405 21 16.1996 21V21.6H17.3996V21H17.9996V21.6H19.1996V20.8896C19.479 20.793 19.73 20.6284 19.9299 20.4106C20.1299 20.1929 20.2726 19.9289 20.3452 19.6423C20.4178 19.3557 20.418 19.0556 20.3458 18.7689C20.2736 18.4823 20.1313 18.218 19.9316 18C20.1313 17.782 20.2736 17.5178 20.3458 17.2311C20.418 16.9444 20.4178 16.6443 20.3452 16.3577C20.2726 16.0712 20.1299 15.8071 19.9299 15.5894C19.73 15.3717 19.479 15.2071 19.1996 15.1104ZM16.7996 16.2H18.5996C18.7587 16.2 18.9114 16.2632 19.0239 16.3758C19.1364 16.4883 19.1996 16.6409 19.1996 16.8C19.1996 16.9592 19.1364 17.1118 19.0239 17.2243C18.9114 17.3368 18.7587 17.4 18.5996 17.4H16.7996V16.2ZM18.5996 19.8H16.7996V18.6H18.5996C18.7587 18.6 18.9114 18.6632 19.0239 18.7758C19.1364 18.8883 19.1996 19.0409 19.1996 19.2C19.1996 19.3592 19.1364 19.5118 19.0239 19.6243C18.9114 19.7368 18.7587 19.8 18.5996 19.8Z" fill="url(#paint1_linear_208_909)"/>
<path d="M18.0002 10.2C16.4575 10.2 14.9495 10.6574 13.6668 11.5145C12.384 12.3716 11.3843 13.5898 10.7939 15.015C10.2036 16.4403 10.0491 18.0086 10.3501 19.5217C10.651 21.0347 11.3939 22.4245 12.4848 23.5154C13.5756 24.6062 14.9654 25.3491 16.4785 25.6501C17.9915 25.951 19.5599 25.7966 20.9851 25.2062C22.4104 24.6158 23.6286 23.6161 24.4857 22.3334C25.3427 21.0507 25.8002 19.5426 25.8002 18C25.7978 15.932 24.9753 13.9494 23.513 12.4871C22.0507 11.0249 20.0682 10.2023 18.0002 10.2ZM18.0002 24.6C16.6948 24.6 15.4188 24.2129 14.3334 23.4876C13.2481 22.7624 12.4021 21.7317 11.9026 20.5257C11.4031 19.3197 11.2724 17.9926 11.527 16.7124C11.7817 15.4321 12.4103 14.2561 13.3333 13.333C14.2563 12.41 15.4323 11.7814 16.7126 11.5268C17.9929 11.2721 19.3199 11.4028 20.5259 11.9023C21.7319 12.4019 22.7627 13.2478 23.4879 14.3332C24.2131 15.4186 24.6002 16.6946 24.6002 18C24.5981 19.7497 23.9021 21.4273 22.6648 22.6646C21.4275 23.9019 19.75 24.5979 18.0002 24.6Z" fill="url(#paint2_linear_208_909)"/>
<path d="M21.5996 17.4H22.7996V18.6H21.5996V17.4Z" fill="url(#paint3_linear_208_909)"/>
<path d="M13.2002 17.4H14.4002V18.6H13.2002V17.4Z" fill="url(#paint4_linear_208_909)"/>
<path d="M35.4 7.2C35.5591 7.2 35.7117 7.13679 35.8243 7.02426C35.9368 6.91174 36 6.75913 36 6.6V0.6C36 0.44087 35.9368 0.288258 35.8243 0.175736C35.7117 0.0632141 35.5591 0 35.4 0H29.4C29.2409 0 29.0883 0.0632141 28.9757 0.175736C28.8632 0.288258 28.8 0.44087 28.8 0.6V3H7.2V0.6C7.2 0.44087 7.13679 0.288258 7.02426 0.175736C6.91174 0.0632141 6.75913 0 6.6 0H0.6C0.44087 0 0.288258 0.0632141 0.175736 0.175736C0.0632141 0.288258 0 0.44087 0 0.6V6.6C0 6.75913 0.0632141 6.91174 0.175736 7.02426C0.288258 7.13679 0.44087 7.2 0.6 7.2H3V28.8H0.6C0.44087 28.8 0.288258 28.8632 0.175736 28.9757C0.0632141 29.0883 0 29.2409 0 29.4V35.4C0 35.5591 0.0632141 35.7117 0.175736 35.8243C0.288258 35.9368 0.44087 36 0.6 36H6.6C6.75913 36 6.91174 35.9368 7.02426 35.8243C7.13679 35.7117 7.2 35.5591 7.2 35.4V33H28.8V35.4C28.8 35.5591 28.8632 35.7117 28.9757 35.8243C29.0883 35.9368 29.2409 36 29.4 36H35.4C35.5591 36 35.7117 35.9368 35.8243 35.8243C35.9368 35.7117 36 35.5591 36 35.4V29.4C36 29.2409 35.9368 29.0883 35.8243 28.9757C35.7117 28.8632 35.5591 28.8 35.4 28.8H33V7.2H35.4ZM30 1.2H34.8V6H33V3.6C33 3.44087 32.9368 3.28826 32.8243 3.17574C32.7117 3.06321 32.5591 3 32.4 3H30V1.2ZM30 4.2H31.8V6H30V4.2ZM1.2 6V1.2H6V3H3.6C3.44087 3 3.28826 3.06321 3.17574 3.17574C3.06321 3.28826 3 3.44087 3 3.6V6H1.2ZM6 4.2V6H4.2V4.2H6ZM6 34.8H1.2V30H3V32.4C3 32.5591 3.06321 32.7117 3.17574 32.8243C3.28826 32.9368 3.44087 33 3.6 33H6V34.8ZM6 31.8H4.2V30H6V31.8ZM34.8 30V34.8H30V33H32.4C32.5591 33 32.7117 32.9368 32.8243 32.8243C32.9368 32.7117 33 32.5591 33 32.4V30H34.8ZM30 31.8V30H31.8V31.8H30ZM31.8 28.8H29.4C29.2409 28.8 29.0883 28.8632 28.9757 28.9757C28.8632 29.0883 28.8 29.2409 28.8 29.4V31.8H7.2V29.4C7.2 29.2409 7.13679 29.0883 7.02426 28.9757C6.91174 28.8632 6.75913 28.8 6.6 28.8H4.2V7.2H6.6C6.75913 7.2 6.91174 7.13679 7.02426 7.02426C7.13679 6.91174 7.2 6.75913 7.2 6.6V4.2H28.8V6.6C28.8 6.75913 28.8632 6.91174 28.9757 7.02426C29.0883 7.13679 29.2409 7.2 29.4 7.2H31.8V28.8Z" fill="url(#paint5_linear_208_909)"/>
<defs>
<linearGradient id="paint0_linear_208_909" x1="18.0004" y1="36.798" x2="18.0004" y2="-4.12198" gradientUnits="userSpaceOnUse">
<stop stop-color="#E93E3A"/>
<stop offset="0.358" stop-color="#ED683C"/>
<stop offset="0.702" stop-color="#F3903F"/>
<stop offset="1" stop-color="#FDC70C"/>
</linearGradient>
<linearGradient id="paint1_linear_208_909" x1="17.9996" y1="36.798" x2="17.9996" y2="-4.12197" gradientUnits="userSpaceOnUse">
<stop stop-color="#E93E3A"/>
<stop offset="0.358" stop-color="#ED683C"/>
<stop offset="0.702" stop-color="#F3903F"/>
<stop offset="1" stop-color="#FDC70C"/>
</linearGradient>
<linearGradient id="paint2_linear_208_909" x1="18.0002" y1="36.7979" x2="18.0002" y2="-4.12205" gradientUnits="userSpaceOnUse">
<stop stop-color="#E93E3A"/>
<stop offset="0.358" stop-color="#ED683C"/>
<stop offset="0.702" stop-color="#F3903F"/>
<stop offset="1" stop-color="#FDC70C"/>
</linearGradient>
<linearGradient id="paint3_linear_208_909" x1="22.1996" y1="36.798" x2="22.1996" y2="-4.12198" gradientUnits="userSpaceOnUse">
<stop stop-color="#E93E3A"/>
<stop offset="0.358" stop-color="#ED683C"/>
<stop offset="0.702" stop-color="#F3903F"/>
<stop offset="1" stop-color="#FDC70C"/>
</linearGradient>
<linearGradient id="paint4_linear_208_909" x1="13.8002" y1="36.798" x2="13.8002" y2="-4.12198" gradientUnits="userSpaceOnUse">
<stop stop-color="#E93E3A"/>
<stop offset="0.358" stop-color="#ED683C"/>
<stop offset="0.702" stop-color="#F3903F"/>
<stop offset="1" stop-color="#FDC70C"/>
</linearGradient>
<linearGradient id="paint5_linear_208_909" x1="18" y1="36.798" x2="18" y2="-4.122" gradientUnits="userSpaceOnUse">
<stop stop-color="#E93E3A"/>
<stop offset="0.358" stop-color="#ED683C"/>
<stop offset="0.702" stop-color="#F3903F"/>
<stop offset="1" stop-color="#FDC70C"/>
</linearGradient>
</defs>
</svg>
