<svg width="196" height="41" viewBox="0 0 196 41" fill="none" xmlns="http://www.w3.org/2000/svg">
<g filter="url(#filter0_d_434_21152)">
<path d="M120.318 32.5244H124.622V12.989H132.304V9.3468H112.636V12.989H120.318V32.5244ZM149.948 23.7831C149.948 18.2536 146.173 14.6445 141.008 14.6445C135.743 14.6445 131.869 18.4192 131.869 23.6838C131.869 28.9484 135.71 32.7562 141.637 32.7562C144.683 32.7562 147.167 31.7629 148.756 29.8755L146.538 27.326C145.279 28.6173 143.723 29.2464 141.736 29.2464C138.657 29.2464 136.505 27.5909 136.008 25.0082H149.882C149.915 24.6109 149.948 24.1143 149.948 23.7831ZM141.008 17.9556C143.723 17.9556 145.677 19.7105 146.008 22.26H135.975C136.372 19.6774 138.326 17.9556 141.008 17.9556ZM162.036 32.7562C165.479 32.7562 168.227 31.2662 169.585 28.6173L166.406 26.7631C165.347 28.4518 163.757 29.2133 162.003 29.2133C158.956 29.2133 156.639 27.1273 156.639 23.6838C156.639 20.2734 158.956 18.1543 162.003 18.1543C163.757 18.1543 165.347 18.9158 166.406 20.6045L169.585 18.7503C168.227 16.0683 165.479 14.6445 162.036 14.6445C156.44 14.6445 152.467 18.3861 152.467 23.6838C152.467 28.9815 156.44 32.7562 162.036 32.7562ZM183.034 14.6445C180.584 14.6445 178.498 15.4392 177.14 16.8961V7.95614H173.001V32.5244H177.14V23.5845C177.14 20.0416 179.127 18.2536 182.073 18.2536C184.722 18.2536 186.279 19.7767 186.279 22.9223V32.5244H190.417V22.3925C190.417 17.0616 187.272 14.6445 183.034 14.6445Z" fill="white"/>
</g>
<g filter="url(#filter1_i_434_21152)">
<path d="M77.6045 20.8357V14.9956L66.4316 23.584L77.6045 32.516V28.2218L72.9935 24.6146L77.6045 20.8357Z" fill="url(#paint0_linear_434_21152)"/>
</g>
<g filter="url(#filter2_i_434_21152)">
<path d="M78.9895 26.674V32.5142L90.1624 23.9257L78.9895 14.9938V19.288L83.6005 22.8951L78.9895 26.674Z" fill="url(#paint1_linear_434_21152)"/>
</g>
<g filter="url(#filter3_d_434_21152)">
<path d="M97.2756 17.4259V14.8432H93.3355V32.5244H97.4743V23.9487C97.4743 20.3396 99.461 18.4854 102.606 18.4854C102.904 18.4854 103.202 18.5185 103.567 18.5847V14.6445C100.62 14.6445 98.4676 15.5716 97.2756 17.4259Z" fill="white"/>
</g>
<g filter="url(#filter4_d_434_21152)">
<path d="M7.65121 28.9153V22.5249H18.8427V18.9821H7.65121V12.9559H20.2665V9.3468H3.3468V32.5244H20.73V28.9153H7.65121ZM33.0817 32.7562C36.5252 32.7562 39.2734 31.2662 40.6309 28.6173L37.4523 26.7631C36.3927 28.4518 34.8034 29.2133 33.0485 29.2133C30.0023 29.2133 27.6846 27.1273 27.6846 23.6838C27.6846 20.2734 30.0023 18.1543 33.0485 18.1543C34.8034 18.1543 36.3927 18.9158 37.4523 20.6045L40.6309 18.7503C39.2734 16.0683 36.5252 14.6445 33.0817 14.6445C27.4859 14.6445 23.5126 18.3861 23.5126 23.6838C23.5126 28.9815 27.4859 32.7562 33.0817 32.7562ZM54.0796 14.6445C51.6294 14.6445 49.5435 15.4392 48.1859 16.8961V7.95614H44.0471V32.5244H48.1859V23.5845C48.1859 20.0416 50.1726 18.2536 53.1194 18.2536C55.7683 18.2536 57.3245 19.7767 57.3245 22.9223V32.5244H61.4634V22.3925C61.4634 17.0616 58.3178 14.6445 54.0796 14.6445Z" fill="white"/>
</g>
<defs>
<filter id="filter0_d_434_21152" x="110.693" y="7.30831" width="81.6679" height="28.6868" filterUnits="userSpaceOnUse" color-interpolation-filters="sRGB">
<feFlood flood-opacity="0" result="BackgroundImageFix"/>
<feColorMatrix in="SourceAlpha" type="matrix" values="0 0 0 0 0 0 0 0 0 0 0 0 0 0 0 0 0 0 127 0" result="hardAlpha"/>
<feOffset dy="1.2955"/>
<feGaussianBlur stdDeviation="0.971622"/>
<feComposite in2="hardAlpha" operator="out"/>
<feColorMatrix type="matrix" values="0 0 0 0 0.160784 0 0 0 0 0.219608 0 0 0 0 0.564706 0 0 0 0.12 0"/>
<feBlend mode="normal" in2="BackgroundImageFix" result="effect1_dropShadow_434_21152"/>
<feBlend mode="normal" in="SourceGraphic" in2="effect1_dropShadow_434_21152" result="shape"/>
</filter>
<filter id="filter1_i_434_21152" x="66.4316" y="14.9956" width="11.1729" height="18.8984" filterUnits="userSpaceOnUse" color-interpolation-filters="sRGB">
<feFlood flood-opacity="0" result="BackgroundImageFix"/>
<feBlend mode="normal" in="SourceGraphic" in2="BackgroundImageFix" result="shape"/>
<feColorMatrix in="SourceAlpha" type="matrix" values="0 0 0 0 0 0 0 0 0 0 0 0 0 0 0 0 0 0 127 0" result="hardAlpha"/>
<feOffset dy="1.37786"/>
<feGaussianBlur stdDeviation="0.68893"/>
<feComposite in2="hardAlpha" operator="arithmetic" k2="-1" k3="1"/>
<feColorMatrix type="matrix" values="0 0 0 0 0 0 0 0 0 0 0 0 0 0 0 0 0 0 0.1 0"/>
<feBlend mode="difference" in2="shape" result="effect1_innerShadow_434_21152"/>
</filter>
<filter id="filter2_i_434_21152" x="78.9895" y="14.9937" width="11.1729" height="18.8984" filterUnits="userSpaceOnUse" color-interpolation-filters="sRGB">
<feFlood flood-opacity="0" result="BackgroundImageFix"/>
<feBlend mode="normal" in="SourceGraphic" in2="BackgroundImageFix" result="shape"/>
<feColorMatrix in="SourceAlpha" type="matrix" values="0 0 0 0 0 0 0 0 0 0 0 0 0 0 0 0 0 0 127 0" result="hardAlpha"/>
<feOffset dy="1.37786"/>
<feGaussianBlur stdDeviation="0.68893"/>
<feComposite in2="hardAlpha" operator="arithmetic" k2="-1" k3="1"/>
<feColorMatrix type="matrix" values="0 0 0 0 0 0 0 0 0 0 0 0 0 0 0 0 0 0 0.1 0"/>
<feBlend mode="difference" in2="shape" result="effect1_innerShadow_434_21152"/>
</filter>
<filter id="filter3_d_434_21152" x="91.3922" y="13.9968" width="14.1178" height="21.7664" filterUnits="userSpaceOnUse" color-interpolation-filters="sRGB">
<feFlood flood-opacity="0" result="BackgroundImageFix"/>
<feColorMatrix in="SourceAlpha" type="matrix" values="0 0 0 0 0 0 0 0 0 0 0 0 0 0 0 0 0 0 127 0" result="hardAlpha"/>
<feOffset dy="1.2955"/>
<feGaussianBlur stdDeviation="0.971622"/>
<feComposite in2="hardAlpha" operator="out"/>
<feColorMatrix type="matrix" values="0 0 0 0 0.160784 0 0 0 0 0.219608 0 0 0 0 0.564706 0 0 0 0.12 0"/>
<feBlend mode="normal" in2="BackgroundImageFix" result="effect1_dropShadow_434_21152"/>
<feBlend mode="normal" in="SourceGraphic" in2="effect1_dropShadow_434_21152" result="shape"/>
</filter>
<filter id="filter4_d_434_21152" x="1.40356" y="7.30831" width="62.0031" height="28.6868" filterUnits="userSpaceOnUse" color-interpolation-filters="sRGB">
<feFlood flood-opacity="0" result="BackgroundImageFix"/>
<feColorMatrix in="SourceAlpha" type="matrix" values="0 0 0 0 0 0 0 0 0 0 0 0 0 0 0 0 0 0 127 0" result="hardAlpha"/>
<feOffset dy="1.2955"/>
<feGaussianBlur stdDeviation="0.971622"/>
<feComposite in2="hardAlpha" operator="out"/>
<feColorMatrix type="matrix" values="0 0 0 0 0.160784 0 0 0 0 0.219608 0 0 0 0 0.564706 0 0 0 0.12 0"/>
<feBlend mode="normal" in2="BackgroundImageFix" result="effect1_dropShadow_434_21152"/>
<feBlend mode="normal" in="SourceGraphic" in2="effect1_dropShadow_434_21152" result="shape"/>
</filter>
<linearGradient id="paint0_linear_434_21152" x1="66.4316" y1="23.7558" x2="77.6045" y2="23.7558" gradientUnits="userSpaceOnUse">
<stop stop-color="#F83600"/>
<stop offset="1" stop-color="#F9D423"/>
</linearGradient>
<linearGradient id="paint1_linear_434_21152" x1="90.1624" y1="23.754" x2="78.9895" y2="23.754" gradientUnits="userSpaceOnUse">
<stop stop-color="#F83600"/>
<stop offset="1" stop-color="#F9D423"/>
</linearGradient>
</defs>
</svg>
