<svg width="40" height="36" viewBox="0 0 40 36" fill="none" xmlns="http://www.w3.org/2000/svg">
<path d="M39.3333 30.4615H38.6667V7.61538C38.6667 7.06454 38.456 6.53627 38.0809 6.14677C37.7058 5.75727 37.1971 5.53845 36.6667 5.53845H32V6.92307H36.6667C36.8435 6.92307 37.0131 6.99601 37.1381 7.12584C37.2631 7.25567 37.3333 7.43176 37.3333 7.61538V30.4615H2.66667V7.61538C2.66667 7.43176 2.7369 7.25567 2.86193 7.12584C2.98695 6.99601 3.15652 6.92307 3.33333 6.92307H9.33333V5.53845H3.33333C2.8029 5.53845 2.29419 5.75727 1.91912 6.14677C1.54405 6.53627 1.33333 7.06454 1.33333 7.61538V30.4615H0.666667C0.489856 30.4615 0.320286 30.5345 0.195262 30.6643C0.0702379 30.7941 0 30.9702 0 31.1538V33.9231C0 34.4739 0.210714 35.0022 0.585787 35.3917C0.960859 35.7812 1.46957 36 2 36H38C38.5304 36 39.0391 35.7812 39.4142 35.3917C39.7893 35.0022 40 34.4739 40 33.9231V31.1538C40 30.9702 39.9298 30.7941 39.8047 30.6643C39.6797 30.5345 39.5101 30.4615 39.3333 30.4615ZM38.6667 33.9231C38.6667 34.1067 38.5964 34.2828 38.4714 34.4126C38.3464 34.5424 38.1768 34.6154 38 34.6154H2C1.82319 34.6154 1.65362 34.5424 1.5286 34.4126C1.40357 34.2828 1.33333 34.1067 1.33333 33.9231V31.8461H16.6667V32.5385C16.6667 32.7221 16.7369 32.8982 16.8619 33.028C16.987 33.1578 17.1565 33.2308 17.3333 33.2308H22.6667C22.8435 33.2308 23.013 33.1578 23.1381 33.028C23.2631 32.8982 23.3333 32.7221 23.3333 32.5385V31.8461H38.6667V33.9231Z" fill="url(#paint0_linear_208_925)"/>
<path d="M5.33333 9.69235H7.33333V8.30774H4.66667C4.48986 8.30774 4.32029 8.38068 4.19526 8.51051C4.07024 8.64034 4 8.81644 4 9.00005V11.7693H5.33333V9.69235Z" fill="url(#paint1_linear_208_925)"/>
<path d="M34.6665 27.6923H32.6665V29.0769H35.3332C35.51 29.0769 35.6796 29.004 35.8046 28.8741C35.9296 28.7443 35.9998 28.5682 35.9998 28.3846V25.6154H34.6665V27.6923Z" fill="url(#paint2_linear_208_925)"/>
<path d="M20.6668 17.3076C21.7217 17.3076 22.7528 16.9828 23.6299 16.3742C24.5069 15.7657 25.1905 14.9007 25.5942 13.8887C25.9979 12.8766 26.1035 11.763 25.8977 10.6887C25.6919 9.61432 25.1839 8.62746 24.4381 7.85289C23.6922 7.07832 22.7419 6.55084 21.7073 6.33714C20.6727 6.12343 19.6004 6.23311 18.6259 6.65231C17.6513 7.0715 16.8184 7.78138 16.2323 8.69217C15.6463 9.60297 15.3335 10.6738 15.3335 11.7692C15.3351 13.2376 15.8975 14.6453 16.8973 15.6836C17.8972 16.7219 19.2528 17.306 20.6668 17.3076ZM20.6668 7.61533C21.458 7.61533 22.2313 7.85895 22.8891 8.31538C23.5469 8.77181 24.0596 9.42055 24.3623 10.1796C24.6651 10.9386 24.7443 11.7738 24.59 12.5796C24.4356 13.3853 24.0547 14.1255 23.4953 14.7064C22.9358 15.2873 22.2231 15.6829 21.4472 15.8432C20.6713 16.0035 19.867 15.9212 19.1361 15.6068C18.4052 15.2924 17.7805 14.76 17.341 14.0769C16.9014 13.3938 16.6668 12.5907 16.6668 11.7692C16.6679 10.6678 17.0897 9.61194 17.8396 8.83318C18.5895 8.05442 19.6063 7.61643 20.6668 7.61533Z" fill="url(#paint3_linear_208_925)"/>
<path d="M9.3335 13.8462C9.3335 14.0298 9.40373 14.2059 9.52876 14.3357C9.65378 14.4655 9.82335 14.5385 10.0002 14.5385H11.7295C11.9122 15.1745 12.158 15.7891 12.4628 16.3724L11.2388 17.6435C11.1138 17.7733 11.0436 17.9493 11.0436 18.1329C11.0436 18.3165 11.1138 18.4926 11.2388 18.6224L14.0668 21.5598C14.1918 21.6896 14.3614 21.7625 14.5382 21.7625C14.7149 21.7625 14.8845 21.6896 15.0095 21.5598L16.2335 20.2895C16.7955 20.6058 17.3875 20.8608 18.0002 21.0503V22.8462C18.0002 23.0298 18.0704 23.2059 18.1954 23.3357C18.3204 23.4655 18.49 23.5385 18.6668 23.5385H22.6668C22.8436 23.5385 23.0132 23.4655 23.1382 23.3357C23.2633 23.2059 23.3335 23.0298 23.3335 22.8462V21.0503C23.9459 20.8606 24.5378 20.6053 25.0995 20.2888L26.3235 21.5592C26.4485 21.6889 26.6181 21.7619 26.7948 21.7619C26.9716 21.7619 27.1411 21.6889 27.2662 21.5592L30.0955 18.6231C30.2205 18.4933 30.2907 18.3172 30.2907 18.1336C30.2907 17.95 30.2205 17.774 30.0955 17.6442L28.8715 16.3731C29.1762 15.7895 29.4217 15.1747 29.6042 14.5385H31.3335C31.5103 14.5385 31.6799 14.4655 31.8049 14.3357C31.9299 14.2059 32.0002 14.0298 32.0002 13.8462V9.69231C32.0002 9.5087 31.9299 9.3326 31.8049 9.20277C31.6799 9.07294 31.5103 9 31.3335 9H29.6042C29.4214 8.364 29.1757 7.74941 28.8708 7.16608L30.0948 5.895C30.2198 5.76517 30.29 5.58911 30.29 5.40554C30.29 5.22196 30.2198 5.0459 30.0948 4.91608L27.2668 1.97792C27.1418 1.84814 26.9723 1.77522 26.7955 1.77522C26.6187 1.77522 26.4492 1.84814 26.3242 1.97792L25.1002 3.249C24.5382 2.93262 23.9461 2.67763 23.3335 2.48815V0.692308C23.3335 0.508696 23.2633 0.332605 23.1382 0.202772C23.0132 0.0729395 22.8436 0 22.6668 0H18.6668C18.49 0 18.3204 0.0729395 18.1954 0.202772C18.0704 0.332605 18.0002 0.508696 18.0002 0.692308V2.48815C17.3877 2.6779 16.7959 2.93311 16.2342 3.24969L15.0102 1.97792C14.8851 1.84814 14.7156 1.77522 14.5388 1.77522C14.3621 1.77522 14.1925 1.84814 14.0675 1.97792L11.2382 4.91539C11.1132 5.04521 11.043 5.22127 11.043 5.40485C11.043 5.58842 11.1132 5.76448 11.2382 5.89431L12.4622 7.16539C12.1575 7.74896 11.912 8.36379 11.7295 9H10.0002C9.82335 9 9.65378 9.07294 9.52876 9.20277C9.40373 9.3326 9.3335 9.5087 9.3335 9.69231V13.8462ZM10.6668 10.3846H12.2408C12.391 10.3846 12.5367 10.3319 12.6544 10.2352C12.7721 10.1384 12.855 10.0033 12.8895 9.85154C13.0865 8.99089 13.4151 8.16861 13.8628 7.416C13.9418 7.28329 13.9752 7.12679 13.9578 6.97185C13.9404 6.81692 13.8731 6.67263 13.7668 6.56239L12.6528 5.40554L14.5388 3.447L15.6528 4.60385C15.759 4.7142 15.8979 4.78409 16.0471 4.80218C16.1963 4.82028 16.347 4.78552 16.4748 4.70354C17.1996 4.23861 17.9914 3.89736 18.8202 3.69277C18.9663 3.65691 19.0964 3.57089 19.1896 3.44864C19.2828 3.32639 19.3335 3.17506 19.3335 3.01915V1.38462H22.0002V3.01915C22.0002 3.17506 22.0509 3.32639 22.1441 3.44864C22.2372 3.57089 22.3674 3.65691 22.5135 3.69277C23.3423 3.89736 24.1341 4.23861 24.8588 4.70354C24.9866 4.78552 25.1373 4.82028 25.2865 4.80218C25.4357 4.78409 25.5747 4.7142 25.6808 4.60385L26.7948 3.447L28.6808 5.40554L27.5668 6.56239C27.4606 6.67263 27.3933 6.81692 27.3758 6.97185C27.3584 7.12679 27.3919 7.28329 27.4708 7.416C27.9185 8.16861 28.2472 8.99089 28.4442 9.85154C28.4787 10.0033 28.5615 10.1384 28.6792 10.2352C28.797 10.3319 28.9427 10.3846 29.0928 10.3846H30.6668V13.1538H29.0928C28.9427 13.1539 28.797 13.2065 28.6792 13.3033C28.5615 13.4 28.4787 13.5352 28.4442 13.6869C28.2472 14.5476 27.9185 15.3699 27.4708 16.1225C27.3919 16.2552 27.3584 16.4117 27.3758 16.5666C27.3933 16.7215 27.4606 16.8658 27.5668 16.9761L28.6808 18.1329L26.7948 20.0915L25.6808 18.9346C25.5747 18.8243 25.4357 18.7544 25.2865 18.7363C25.1373 18.7182 24.9866 18.7529 24.8588 18.8349C24.1341 19.2999 23.3423 19.6411 22.5135 19.8457C22.3674 19.8816 22.2372 19.9676 22.1441 20.0898C22.0509 20.2121 22.0002 20.3634 22.0002 20.5193V22.1538H19.3335V20.5193C19.3335 20.3634 19.2828 20.2121 19.1896 20.0898C19.0964 19.9676 18.9663 19.8816 18.8202 19.8457C17.9914 19.6411 17.1996 19.2999 16.4748 18.8349C16.347 18.7529 16.1963 18.7182 16.0471 18.7363C15.8979 18.7544 15.759 18.8243 15.6528 18.9346L14.5388 20.0915L12.6528 18.1329L13.7668 16.9761C13.8731 16.8658 13.9404 16.7215 13.9578 16.5666C13.9752 16.4117 13.9418 16.2552 13.8628 16.1225C13.4151 15.3699 13.0865 14.5476 12.8895 13.6869C12.855 13.5352 12.7721 13.4 12.6544 13.3033C12.5367 13.2065 12.391 13.1539 12.2408 13.1538H10.6668V10.3846Z" fill="url(#paint4_linear_208_925)"/>
<path d="M5.33333 13.1538H4V14.5384H5.33333V13.1538Z" fill="url(#paint5_linear_208_925)"/>
<path d="M35.9998 22.8462H34.6665V24.2308H35.9998V22.8462Z" fill="url(#paint6_linear_208_925)"/>
<defs>
<linearGradient id="paint0_linear_208_925" x1="-1.59533" y1="20.7692" x2="55.7687" y2="20.7692" gradientUnits="userSpaceOnUse">
<stop stop-color="#E93E3A"/>
<stop offset="0.355" stop-color="#ED683C"/>
<stop offset="0.688" stop-color="#F3903F"/>
<stop offset="1" stop-color="#FDC70C"/>
</linearGradient>
<linearGradient id="paint1_linear_208_925" x1="-1.59533" y1="10.0385" x2="55.7687" y2="10.0385" gradientUnits="userSpaceOnUse">
<stop stop-color="#E93E3A"/>
<stop offset="0.355" stop-color="#ED683C"/>
<stop offset="0.688" stop-color="#F3903F"/>
<stop offset="1" stop-color="#FDC70C"/>
</linearGradient>
<linearGradient id="paint2_linear_208_925" x1="-1.59549" y1="27.3461" x2="55.7685" y2="27.3461" gradientUnits="userSpaceOnUse">
<stop stop-color="#E93E3A"/>
<stop offset="0.355" stop-color="#ED683C"/>
<stop offset="0.688" stop-color="#F3903F"/>
<stop offset="1" stop-color="#FDC70C"/>
</linearGradient>
<linearGradient id="paint3_linear_208_925" x1="-1.59517" y1="11.7692" x2="55.7688" y2="11.7692" gradientUnits="userSpaceOnUse">
<stop stop-color="#E93E3A"/>
<stop offset="0.355" stop-color="#ED683C"/>
<stop offset="0.688" stop-color="#F3903F"/>
<stop offset="1" stop-color="#FDC70C"/>
</linearGradient>
<linearGradient id="paint4_linear_208_925" x1="-1.59517" y1="11.7692" x2="55.7688" y2="11.7692" gradientUnits="userSpaceOnUse">
<stop stop-color="#E93E3A"/>
<stop offset="0.355" stop-color="#ED683C"/>
<stop offset="0.688" stop-color="#F3903F"/>
<stop offset="1" stop-color="#FDC70C"/>
</linearGradient>
<linearGradient id="paint5_linear_208_925" x1="-1.59533" y1="13.8461" x2="55.7687" y2="13.8461" gradientUnits="userSpaceOnUse">
<stop stop-color="#E93E3A"/>
<stop offset="0.355" stop-color="#ED683C"/>
<stop offset="0.688" stop-color="#F3903F"/>
<stop offset="1" stop-color="#FDC70C"/>
</linearGradient>
<linearGradient id="paint6_linear_208_925" x1="-1.5955" y1="23.5385" x2="55.7685" y2="23.5385" gradientUnits="userSpaceOnUse">
<stop stop-color="#E93E3A"/>
<stop offset="0.355" stop-color="#ED683C"/>
<stop offset="0.688" stop-color="#F3903F"/>
<stop offset="1" stop-color="#FDC70C"/>
</linearGradient>
</defs>
</svg>
