<svg width="30" height="40" viewBox="0 0 30 40" fill="none" xmlns="http://www.w3.org/2000/svg">
<path d="M4.09781 0C1.85563 0 0 1.81228 0 4.00521V36.0026C0 38.1955 1.85563 40 4.09781 40H25.9049C28.147 40 30 38.1955 30 36.0026V4.00521C30 1.81227 28.147 0 25.9049 0H4.09781ZM4.09781 2.66667H25.9049C26.6837 2.66667 27.2735 3.24349 27.2735 4.00521V6.66406H2.72655V4.00521C2.72655 3.24348 3.31898 2.66667 4.09781 2.66667ZM2.72655 9.33073H27.2735V28.3568H2.72655V9.33073ZM2.72655 31.0234H27.2735V36.0026C27.2735 36.7643 26.6837 37.3333 25.9049 37.3333H4.09781C3.31898 37.3333 2.72655 36.7643 2.72655 36.0026V31.0234ZM15.0013 32.1719C13.8719 32.1719 12.9564 33.0673 12.9564 34.1719C12.9564 35.2764 13.8719 36.1719 15.0013 36.1719C16.1302 36.1719 17.0462 35.2764 17.0462 34.1719C17.0462 33.0673 16.1302 32.1719 15.0013 32.1719Z" fill="url(#paint0_linear_208_873)"/>
<defs>
<linearGradient id="paint0_linear_208_873" x1="-5.44777" y1="0.00260442" x2="34.5424" y2="40.8907" gradientUnits="userSpaceOnUse">
<stop stop-color="#FFC600"/>
<stop offset="1" stop-color="#FF4A00"/>
</linearGradient>
</defs>
</svg>
