<svg width="35" height="35" viewBox="0 0 35 35" fill="none" xmlns="http://www.w3.org/2000/svg">
<path d="M28 9.91667C27.1682 9.91667 26.3603 10.0613 25.5885 10.3472C25.2496 8.76925 23.8438 7.58333 22.1667 7.58333C22.1649 7.58333 22.1632 7.58333 22.1614 7.58333C22.0074 3.37575 18.5366 0 14.2917 0C9.94933 0 6.41667 3.53267 6.41667 7.875C6.41667 8.197 6.4365 8.519 6.47558 8.83925C2.79592 9.37883 0 12.5545 0 16.3333C0 20.5147 3.402 23.9167 7.58333 23.9167H12.25V26.8333H9.33333V28H12.8333C13.1553 28 13.4167 27.7387 13.4167 27.4167V23.9167H14.5833V25.0833H15.75V23.9167H16.9167V31.5H15.75V32.6667H17.5C17.822 32.6667 18.0833 32.4053 18.0833 32.0833V23.9167H19.25V26.25H20.4167V23.9167H21.5833V29.75C21.5833 30.072 21.8447 30.3333 22.1667 30.3333H25.0833V29.1667H22.75V23.9167H23.9167V27.4167C23.9167 27.7387 24.178 28 24.5 28H28V26.8333H25.0833V23.9167H28C31.8599 23.9167 35 20.7766 35 16.9167C35 13.0567 31.8599 9.91667 28 9.91667ZM28 22.75H7.58333C4.04542 22.75 1.16667 19.8713 1.16667 16.3333C1.16667 12.9541 3.81092 10.1442 7.18667 9.93767C7.35583 9.92717 7.51158 9.84433 7.61425 9.71017C7.71692 9.576 7.75658 9.40333 7.72275 9.23767C7.63 8.79025 7.58333 8.33175 7.58333 7.875C7.58333 4.17608 10.5927 1.16667 14.2917 1.16667C17.9906 1.16667 21 4.17608 21 7.875C21 7.93975 20.9953 8.00333 20.9907 8.0675L20.9825 8.20225C20.9737 8.3825 21.0496 8.55692 21.1867 8.67417C21.3243 8.79142 21.5087 8.83867 21.6848 8.80133C23.1671 8.49158 24.5 9.64075 24.4988 11.0723C24.4965 11.0909 24.4877 11.1673 24.4872 11.186C24.4778 11.3937 24.5799 11.5914 24.7549 11.704C24.9299 11.816 25.1522 11.8271 25.3371 11.7314C26.1724 11.3015 27.0684 11.0833 28 11.0833C31.2165 11.0833 33.8333 13.7002 33.8333 16.9167C33.8333 20.1332 31.2165 22.75 28 22.75Z" fill="#2E4FD7"/>
<path d="M15.9445 3.20049C15.4143 3.01266 14.8583 2.91699 14.2913 2.91699V4.08366C14.7248 4.08366 15.15 4.15658 15.5548 4.30008L15.9445 3.20049ZM13.0278 4.30008L12.6376 3.20049C10.6613 3.90166 9.33301 5.77999 9.33301 7.87533H10.4997C10.4997 6.27291 11.5158 4.83616 13.0278 4.30008ZM20.0028 13.8883L18.9621 13.4613C18.8915 13.2554 18.8093 13.0559 18.7159 12.864L19.1493 11.828C19.2304 11.6343 19.2007 11.4121 19.0723 11.2458C18.7398 10.8165 18.3525 10.4292 17.9214 10.0949C17.7552 9.96658 17.5329 9.93683 17.3393 10.0179L16.3033 10.4513C16.1108 10.358 15.9113 10.2757 15.7059 10.2052L15.2789 9.16449C15.199 8.97024 15.0211 8.83374 14.8128 8.80691C14.2044 8.72991 13.7961 8.72991 13.1877 8.80691C12.9794 8.83316 12.8009 8.96966 12.7216 9.16449L12.2946 10.2052C12.0893 10.2757 11.8898 10.358 11.6973 10.4513L10.6613 10.0179C10.4682 9.93741 10.2448 9.96658 10.0791 10.0949C9.64976 10.4274 9.26242 10.8142 8.92817 11.2452C8.79926 11.4115 8.77009 11.6337 8.85117 11.828L9.28459 12.864C9.19126 13.0565 9.10901 13.256 9.03842 13.4613L7.99776 13.8883C7.80351 13.9682 7.66701 14.1462 7.64017 14.3544C7.60109 14.6583 7.58301 14.9167 7.58301 15.167C7.58301 15.4172 7.60109 15.6757 7.63959 15.9796C7.66584 16.1878 7.80234 16.3663 7.99717 16.4457L9.03784 16.8727C9.10842 17.078 9.19067 17.2775 9.28401 17.47L8.85059 18.506C8.76951 18.6997 8.79926 18.9219 8.92759 19.0882C9.26009 19.5175 9.64684 19.9048 10.0779 20.2391C10.2442 20.368 10.467 20.3972 10.6607 20.3161L11.6967 19.8827C11.8892 19.976 12.0887 20.0582 12.294 20.1288L12.721 21.1695C12.8009 21.3637 12.9788 21.5002 13.1871 21.5271C13.491 21.5656 13.7494 21.5837 13.9997 21.5837C14.2499 21.5837 14.5083 21.5656 14.8123 21.5271C15.0205 21.5008 15.199 21.3643 15.2783 21.1695L15.7053 20.1288C15.9113 20.0582 16.1108 19.976 16.3027 19.8827L17.3387 20.3161C17.5323 20.3972 17.7546 20.368 17.9208 20.2391C18.3513 19.906 18.7381 19.5187 19.0718 19.0882C19.2007 18.9219 19.2298 18.6997 19.1488 18.506L18.7153 17.47C18.8087 17.2775 18.8909 17.078 18.9615 16.8727L20.0022 16.4457C20.1964 16.3657 20.3329 16.1878 20.3598 15.9796C20.3983 15.6757 20.4163 15.4172 20.4163 15.167C20.4163 14.9167 20.3983 14.6583 20.3598 14.3544C20.3335 14.1462 20.197 13.9677 20.0028 13.8883ZM19.2368 15.4989L18.2656 15.8973C18.0999 15.9656 17.9745 16.1056 17.9255 16.2782C17.8374 16.5897 17.7155 16.8855 17.5627 17.1579C17.4752 17.3142 17.4647 17.5021 17.5335 17.6677L17.936 18.6314C17.7884 18.7988 17.6309 18.9563 17.4635 19.1039L16.4998 18.7014C16.3342 18.632 16.1463 18.6431 15.9894 18.7306C15.7182 18.8828 15.4224 19.0047 15.1103 19.0928C14.9383 19.1418 14.7977 19.2672 14.7294 19.4329L14.331 20.4042C14.0977 20.4211 13.9011 20.4211 13.6672 20.4042L13.2688 19.4329C13.2005 19.2672 13.0605 19.1418 12.8878 19.0928C12.5763 19.0047 12.2806 18.8828 12.0082 18.73C11.8518 18.6425 11.664 18.632 11.4983 18.7008L10.5347 19.1039C10.3673 18.9563 10.2092 18.7988 10.0622 18.6314L10.4647 17.6677C10.5341 17.5021 10.5236 17.3142 10.4355 17.1579C10.2827 16.8855 10.1608 16.5892 10.0727 16.2782C10.0237 16.1062 9.89826 15.9656 9.73259 15.8973L8.76134 15.4989C8.75376 15.3822 8.74967 15.2732 8.74967 15.167C8.74967 15.0608 8.75376 14.9517 8.76251 14.8351L9.73376 14.4367C9.89942 14.3684 10.0248 14.2284 10.0738 14.0557C10.1619 13.7442 10.2838 13.4485 10.4367 13.1761C10.5242 13.0197 10.5347 12.8319 10.4658 12.6662L10.0628 11.7026C10.2103 11.5352 10.3678 11.3771 10.5353 11.2301L11.4989 11.6326C11.664 11.702 11.8524 11.6909 12.0088 11.6034C12.2812 11.4506 12.5775 11.3287 12.8884 11.2406C13.0605 11.1916 13.2011 11.0662 13.2693 10.9005L13.6678 9.92924C13.9011 9.91233 14.0977 9.91233 14.3316 9.92924L14.73 10.9005C14.7983 11.0662 14.9383 11.1916 15.1109 11.2406C15.4224 11.3287 15.7182 11.4506 15.9906 11.6034C16.1469 11.6909 16.3353 11.7014 16.5004 11.6326L17.4641 11.2301C17.6315 11.3777 17.7896 11.5352 17.9366 11.7026L17.5341 12.6662C17.4647 12.8319 17.4758 13.0197 17.5633 13.1767C17.7155 13.4479 17.8374 13.7437 17.9255 14.0557C17.9745 14.2278 18.0999 14.3684 18.2656 14.4367L19.2368 14.8351C19.2456 14.9517 19.2497 15.0608 19.2497 15.167C19.2497 15.2732 19.2456 15.3822 19.2368 15.4989ZM27.8375 17.1667L28.4057 16.8388L27.8223 15.8285L27.2548 16.1563C27.1778 16.07 27.0973 15.9889 27.0103 15.9119L27.3382 15.3443L26.3278 14.761L26 15.3292C25.8898 15.2924 25.7818 15.2498 25.6663 15.2259V14.5837H24.4997V15.2259C24.3842 15.2492 24.2763 15.2918 24.166 15.3292L23.8382 14.761L22.8278 15.3443L23.1557 15.9119C23.0693 15.9889 22.9883 16.0694 22.9113 16.1563L22.3437 15.8285L21.7603 16.8388L22.3285 17.1667C22.2918 17.2769 22.2492 17.3848 22.2253 17.5003H21.583V18.667H22.2253C22.2486 18.7825 22.2912 18.8904 22.3285 19.0007L21.7603 19.3285L22.3437 20.3388L22.9113 20.011C22.9883 20.0973 23.0688 20.1784 23.1557 20.2554L22.8278 20.823L23.8382 21.4063L24.166 20.8382C24.2763 20.8749 24.3842 20.9175 24.4997 20.9414V21.5837H25.6663V20.9414C25.7818 20.9181 25.8898 20.8755 26 20.8382L26.3278 21.4063L27.3382 20.823L27.0103 20.2554C27.0967 20.1784 27.1778 20.0979 27.2548 20.011L27.8223 20.3388L28.4057 19.3285L27.8375 19.0007C27.8743 18.8904 27.9168 18.7825 27.9408 18.667H28.583V17.5003H27.9408C27.9174 17.3848 27.8748 17.2769 27.8375 17.1667ZM26.833 18.0837C26.833 19.0485 26.0478 19.8337 25.083 19.8337C24.1182 19.8337 23.333 19.0485 23.333 18.0837C23.333 17.1188 24.1182 16.3337 25.083 16.3337C26.0478 16.3337 26.833 17.1188 26.833 18.0837Z" fill="#2E4FD7"/>
<path d="M13.9997 12.25C12.3914 12.25 11.083 13.5584 11.083 15.1667C11.083 16.7749 12.3914 18.0833 13.9997 18.0833C15.6079 18.0833 16.9163 16.7749 16.9163 15.1667C16.9163 13.5584 15.6079 12.25 13.9997 12.25ZM13.9997 16.9167C13.0348 16.9167 12.2497 16.1315 12.2497 15.1667C12.2497 14.2018 13.0348 13.4167 13.9997 13.4167C14.9645 13.4167 15.7497 14.2018 15.7497 15.1667C15.7497 16.1315 14.9645 16.9167 13.9997 16.9167Z" fill="#2E4FD7"/>
<path d="M8.16699 26.833H6.41699V27.9997H8.16699V26.833Z" fill="#2E4FD7"/>
<path d="M15.75 26.25H14.5833V29.1667H12.25V30.3333H15.1667C15.4887 30.3333 15.75 30.072 15.75 29.75V26.25Z" fill="#2E4FD7"/>
<path d="M11.083 29.167H9.33301V30.3337H11.083V29.167Z" fill="#2E4FD7"/>
<path d="M8.16699 29.167H6.41699V30.3337H8.16699V29.167Z" fill="#2E4FD7"/>
<path d="M14.5837 31.5H9.91699V32.6667H14.5837V31.5Z" fill="#2E4FD7"/>
<path d="M8.74967 33.833H7.58301V34.9997H8.74967V33.833Z" fill="#2E4FD7"/>
<path d="M11.0837 33.833H9.91699V34.9997H11.0837V33.833Z" fill="#2E4FD7"/>
<path d="M13.4167 33.833H12.25V34.9997H13.4167V33.833Z" fill="#2E4FD7"/>
<path d="M19.2497 33.8333H14.583V35H19.833C20.155 35 20.4163 34.7387 20.4163 34.4167V31.5H19.2497V33.8333Z" fill="#2E4FD7"/>
<path d="M20.4167 27.417H19.25V30.3337H20.4167V27.417Z" fill="#2E4FD7"/>
<path d="M1.75 25.667C0.785167 25.667 0 26.4522 0 27.417C0 28.3818 0.785167 29.167 1.75 29.167C2.5095 29.167 3.15117 28.6776 3.39267 28.0003H5.25V26.8337H3.39267C3.15117 26.1564 2.5095 25.667 1.75 25.667ZM1.75 28.0003C1.42858 28.0003 1.16667 27.7384 1.16667 27.417C1.16667 27.0956 1.42858 26.8337 1.75 26.8337C2.07142 26.8337 2.33333 27.0956 2.33333 27.417C2.33333 27.7384 2.07142 28.0003 1.75 28.0003Z" fill="#2E4FD7"/>
<path d="M28 29.167H26.25V30.3337H28V29.167Z" fill="#2E4FD7"/>
<path d="M30.917 29.167H29.167V30.3337H30.917V29.167Z" fill="#2E4FD7"/>
<path d="M33.25 25.667C32.4905 25.667 31.8488 26.1564 31.6073 26.8337H29.1667V28.0003H31.6073C31.8488 28.6776 32.4905 29.167 33.25 29.167C34.2148 29.167 35 28.3818 35 27.417C35 26.4522 34.2148 25.667 33.25 25.667ZM33.25 28.0003C32.9286 28.0003 32.6667 27.7384 32.6667 27.417C32.6667 27.0956 32.9286 26.8337 33.25 26.8337C33.5714 26.8337 33.8333 27.0956 33.8333 27.417C33.8333 27.7384 33.5714 28.0003 33.25 28.0003ZM3.5 30.3337C2.53517 30.3337 1.75 31.1188 1.75 32.0837C1.75 33.0485 2.53517 33.8337 3.5 33.8337C4.2595 33.8337 4.90117 33.3442 5.14267 32.667H8.75V31.5003H5.14267C4.90117 30.8231 4.2595 30.3337 3.5 30.3337ZM3.5 32.667C3.17858 32.667 2.91667 32.4051 2.91667 32.0837C2.91667 31.7622 3.17858 31.5003 3.5 31.5003C3.82142 31.5003 4.08333 31.7622 4.08333 32.0837C4.08333 32.4051 3.82142 32.667 3.5 32.667Z" fill="#2E4FD7"/>
</svg>
