<svg width="36" height="38" viewBox="0 0 36 38" fill="none" xmlns="http://www.w3.org/2000/svg">
<path d="M3.85266 0C1.73799 0 0 1.71207 0 3.79531V29.1634C0 31.2466 1.73799 32.9711 3.85266 32.9711H9.01884C8.99236 32.2972 9.49523 30.5371 9.53621 30.4351H3.85266C3.11782 30.4351 2.57179 29.8873 2.57179 29.1634V10.2849H33.4282V29.1634C33.4282 29.8873 32.8822 30.4351 32.1473 30.4351H26.3106C26.8133 31.3581 27.1618 32.2323 27.3755 32.9711H32.1473C34.262 32.9711 36 31.2466 36 29.1634V3.79531C36 1.71207 34.262 0 32.1473 0H3.85266ZM3.85266 2.5335H32.1473C32.8822 2.5335 33.4282 3.0714 33.4282 3.79531V7.76133H2.57179V3.79531C2.57179 3.0714 3.11782 2.5335 3.85266 2.5335ZM21.6166 3.80025C20.906 3.79729 20.3306 4.36238 20.3282 5.06206C20.3248 5.76566 20.9021 6.33673 21.6166 6.33376C22.3266 6.33127 22.9008 5.76178 22.8974 5.06206C22.895 4.36626 22.3227 3.80274 21.6166 3.80025ZM25.5948 3.80025C24.8848 3.79729 24.3068 4.36238 24.3039 5.06206C24.301 5.76566 24.8809 6.33673 25.5948 6.33376C26.3054 6.33127 26.8786 5.76178 26.8757 5.06206C26.8732 4.36626 26.3015 3.80274 25.5948 3.80025ZM29.573 3.80025C28.863 3.79733 28.2846 4.36238 28.2821 5.06206C28.2792 5.76566 28.8591 6.33673 29.573 6.33376C30.2831 6.33127 30.8593 5.76178 30.8564 5.06206C30.8535 4.36626 30.2792 3.80274 29.573 3.80025Z" fill="url(#paint0_linear_208_896)"/>
<path d="M18.0036 13.1245C14.9738 13.1245 12.4885 15.5728 12.4885 18.5575C12.4885 21.5422 14.9738 23.9905 18.0036 23.9905C21.0334 23.9905 23.5092 21.5422 23.5092 18.5575C23.5092 15.5728 21.0334 13.1245 18.0036 13.1245ZM18.0036 15.6587C19.6435 15.6587 20.9368 16.9421 20.9368 18.5575C20.9368 20.173 19.6435 21.4564 18.0036 21.4564C16.3637 21.4564 15.0609 20.173 15.0609 18.5575C15.0609 16.9421 16.3637 15.6587 18.0036 15.6587ZM18.0001 26.124C16.1394 26.124 14.2738 26.5966 12.6078 27.5442C9.27595 29.4392 7.22559 32.9481 7.22559 36.7381C7.22841 37.4339 7.80023 37.9972 8.50647 37.9999H27.4812C28.1913 38.0026 28.7693 37.4377 28.7721 36.7381C28.7721 32.9481 26.7142 29.4392 23.3823 27.5442C21.7164 26.5967 19.8608 26.124 18.0001 26.124ZM18.0001 28.6501C19.4155 28.6501 20.8291 29.0115 22.0989 29.7338C24.1781 30.9164 25.6508 32.9848 26.0916 35.4664H9.89897C10.3265 32.9584 11.8207 30.9157 13.8988 29.7338C15.1686 29.0116 16.5847 28.6501 18.0001 28.6501Z" fill="url(#paint1_linear_208_896)"/>
<defs>
<linearGradient id="paint0_linear_208_896" x1="-1.28841" y1="5.41395e-07" x2="34.14" y2="38.5327" gradientUnits="userSpaceOnUse">
<stop stop-color="#FFC600"/>
<stop offset="1" stop-color="#FF4A00"/>
</linearGradient>
<linearGradient id="paint1_linear_208_896" x1="-1.29139" y1="-0.00282806" x2="34.1069" y2="41.0615" gradientUnits="userSpaceOnUse">
<stop stop-color="#FFC600"/>
<stop offset="1" stop-color="#FF4A00"/>
</linearGradient>
</defs>
</svg>
