<svg width="95" height="95" viewBox="0 0 95 95" fill="none" xmlns="http://www.w3.org/2000/svg">
<g filter="url(#filter0_d_2033_418)">
<rect x="10.5859" y="3.57031" width="59.2981" height="59.2981" rx="7.23148" fill="white"/>
</g>
<rect x="22.1562" y="15.1406" width="36.1574" height="36.1574" rx="7.23148" fill="#6F75FF"/>
<path d="M44.4385 21.1914H31.2956C30.9147 21.1914 30.4385 21.5914 30.4385 21.9533V44.0485C30.4385 44.4105 30.9337 44.8105 31.2956 44.8105H48.667C49.029 44.8105 49.2956 44.4295 49.2956 44.0485V26.1438L44.4385 21.1914Z" fill="#F4EFEF"/>
<path d="M44.4004 21.2285V21.4952V24.8857C44.4004 25.5333 45.1242 26.1618 45.7718 26.1618H49.2194L44.4004 21.2285Z" fill="#D8D8D8"/>
<path d="M36.3426 27.1328C34.4378 27.1328 33.1426 28.6757 33.1426 30.5614C33.1426 32.4471 34.7045 33.99 36.5902 33.99C38.4759 33.99 40.0378 32.4661 40.0378 30.5614H36.3426V27.1328Z" fill="#DF5C4E"/>
<path d="M37.2002 26.4102V29.8578H40.724C40.724 27.953 39.105 26.4102 37.2002 26.4102Z" fill="#FFC52F"/>
<path d="M41.2952 36.0469H39.9619V41.3802H41.2952V36.0469Z" fill="#33A5D2"/>
<path d="M47.0091 37.3809H45.6758V41.3809H47.0091V37.3809Z" fill="#33A5D2"/>
<path d="M44.1527 38.7129H42.8193V41.3796H44.1527V38.7129Z" fill="#33A5D2"/>
<path d="M36.5331 34.2376C34.5331 34.2376 32.8379 32.5424 32.8379 30.5233C32.8379 28.4852 34.3617 26.9043 36.3236 26.9043C36.4379 26.9043 36.5141 26.9805 36.5141 27.0948V30.5233H40.0188C40.1331 30.5233 40.2093 30.5995 40.2093 30.7138C40.2284 32.6948 38.6093 34.2376 36.5331 34.2376ZM36.1522 27.2852C34.476 27.3805 33.2379 28.7329 33.2379 30.5233C33.2379 32.3329 34.7617 33.8567 36.5522 33.8567C38.3427 33.8567 39.7522 32.5805 39.8474 30.9043H36.3427C36.2284 30.9043 36.1522 30.8281 36.1522 30.7138V27.2852V27.2852Z" fill="white"/>
<path d="M40.8188 30.1421H37.1045C36.9903 30.1421 36.9141 30.0659 36.9141 29.9516V26.3135C36.9141 26.1992 36.9903 26.123 37.1045 26.123C39.1426 26.123 41.0093 27.9516 41.0093 29.9516C41.0093 30.0659 40.9141 30.1421 40.8188 30.1421ZM37.295 29.7611H40.6283C40.5141 28.123 38.9712 26.6183 37.295 26.523V29.7611Z" fill="white"/>
<path d="M47.0099 29.0001H42.8194C42.7051 29.0001 42.6289 28.9239 42.6289 28.8096C42.6289 28.6953 42.7051 28.6191 42.8194 28.6191H47.0099C47.1241 28.6191 47.2003 28.6953 47.2003 28.8096C47.2003 28.9239 47.1051 29.0001 47.0099 29.0001Z" fill="white"/>
<path d="M47.0099 30.9044H42.8194C42.7051 30.9044 42.6289 30.8282 42.6289 30.7139C42.6289 30.5996 42.7051 30.5234 42.8194 30.5234H47.0099C47.1241 30.5234 47.2003 30.5996 47.2003 30.7139C47.2003 30.8282 47.1051 30.9044 47.0099 30.9044Z" fill="white"/>
<path d="M47.0099 32.8087H42.8194C42.7051 32.8087 42.6289 32.7325 42.6289 32.6182C42.6289 32.5039 42.7051 32.4277 42.8194 32.4277H47.0099C47.1241 32.4277 47.2003 32.5039 47.2003 32.6182C47.2003 32.7325 47.1051 32.8087 47.0099 32.8087Z" fill="white"/>
<path d="M37.1046 37.381H32.9141C32.7998 37.381 32.7236 37.3048 32.7236 37.1905C32.7236 37.0762 32.7998 37 32.9141 37H37.1046C37.2189 37 37.2951 37.0762 37.2951 37.1905C37.2951 37.3048 37.1998 37.381 37.1046 37.381Z" fill="white"/>
<path d="M37.1046 39.2852H32.9141C32.7998 39.2852 32.7236 39.2091 32.7236 39.0948C32.7236 38.9805 32.7998 38.9043 32.9141 38.9043H37.1046C37.2189 38.9043 37.2951 38.9805 37.2951 39.0948C37.2951 39.2091 37.1998 39.2852 37.1046 39.2852Z" fill="white"/>
<path d="M37.1046 41.1895H32.9141C32.7998 41.1895 32.7236 41.1134 32.7236 40.9991C32.7236 40.8848 32.7998 40.8086 32.9141 40.8086H37.1046C37.2189 40.8086 37.2951 40.8848 37.2951 40.9991C37.2951 41.1134 37.1998 41.1895 37.1046 41.1895Z" fill="white"/>
<path d="M41.1049 41.7612H39.7715C39.6572 41.7612 39.5811 41.685 39.5811 41.5707V36.2374C39.5811 36.1231 39.6572 36.0469 39.7715 36.0469H41.1049C41.2192 36.0469 41.2953 36.1231 41.2953 36.2374V41.5707C41.2953 41.685 41.2001 41.7612 41.1049 41.7612ZM39.962 41.3802H40.9144V36.4278H39.962V41.3802Z" fill="white"/>
<path d="M46.8187 41.7618H45.4854C45.3711 41.7618 45.2949 41.6856 45.2949 41.5713V37.5713C45.2949 37.457 45.3711 37.3809 45.4854 37.3809H46.8187C46.933 37.3809 47.0092 37.457 47.0092 37.5713V41.5713C47.0092 41.6856 46.914 41.7618 46.8187 41.7618ZM45.6759 41.3809H46.6283V37.7618H45.6759V41.3809Z" fill="white"/>
<path d="M43.9623 41.7625H42.629C42.5147 41.7625 42.4385 41.6863 42.4385 41.572V38.9053C42.4385 38.791 42.5147 38.7148 42.629 38.7148H43.9623C44.0766 38.7148 44.1528 38.791 44.1528 38.9053V41.572C44.1528 41.6863 44.0575 41.7625 43.9623 41.7625ZM42.8194 41.3815H43.7718V39.0958H42.8194V41.3815Z" fill="white"/>
<path d="M41.1048 38.3341H39.962C39.8477 38.3341 39.7715 38.2579 39.7715 38.1436C39.7715 38.0293 39.8477 37.9531 39.962 37.9531H41.1048C41.2191 37.9531 41.2953 38.0293 41.2953 38.1436C41.2953 38.2579 41.2001 38.3341 41.1048 38.3341Z" fill="white"/>
<path d="M43.9622 40.8087H42.8194C42.7051 40.8087 42.6289 40.7325 42.6289 40.6182C42.6289 40.5039 42.7051 40.4277 42.8194 40.4277H43.9622C44.0765 40.4277 44.1527 40.5039 44.1527 40.6182C44.1527 40.7325 44.0575 40.8087 43.9622 40.8087Z" fill="white"/>
<path d="M46.8187 40.047H45.6758C45.5615 40.047 45.4854 39.9708 45.4854 39.8565C45.4854 39.7422 45.5615 39.666 45.6758 39.666H46.8187C46.933 39.666 47.0092 39.7422 47.0092 39.8565C47.0092 39.9708 46.9139 40.047 46.8187 40.047Z" fill="white"/>
<path d="M48.5904 45H31.4094C30.8951 45 30.4951 44.581 30.4951 44.0476V21.9524C30.4951 21.419 30.8951 21 31.4094 21H44.3618C44.4189 21 44.457 21.019 44.4951 21.0571L49.5046 26.0095C49.5427 26.0476 49.5618 26.0857 49.5618 26.1429V44.0476C49.5618 44.581 49.1237 45 48.5904 45ZM31.4094 21.381C31.1046 21.381 30.8761 21.6286 30.8761 21.9524V44.0476C30.8761 44.3714 31.1046 44.619 31.4094 44.619H48.5904C48.9142 44.619 49.1808 44.3524 49.1808 44.0476V26.219L44.2856 21.381H31.4094Z" fill="white"/>
<path d="M47.6571 26.3343H45.8285C45.0285 26.3343 44.2285 25.4962 44.2285 24.6771V21.3819C44.2285 21.2676 44.3047 21.1914 44.419 21.1914C44.5333 21.1914 44.6095 21.2676 44.6095 21.3819V24.6771C44.6095 25.2866 45.2571 25.9533 45.8285 25.9533H47.6571C47.7714 25.9533 47.8476 26.0295 47.8476 26.1438C47.8476 26.2581 47.7523 26.3343 47.6571 26.3343Z" fill="white"/>
<defs>
<filter id="filter0_d_2033_418" x="0.461868" y="0.67772" width="94.0089" height="94.0099" filterUnits="userSpaceOnUse" color-interpolation-filters="sRGB">
<feFlood flood-opacity="0" result="BackgroundImageFix"/>
<feColorMatrix in="SourceAlpha" type="matrix" values="0 0 0 0 0 0 0 0 0 0 0 0 0 0 0 0 0 0 127 0" result="hardAlpha"/>
<feOffset dx="7.23148" dy="14.463"/>
<feGaussianBlur stdDeviation="8.67777"/>
<feColorMatrix type="matrix" values="0 0 0 0 0.2 0 0 0 0 0.501961 0 0 0 0 0.533333 0 0 0 0.1 0"/>
<feBlend mode="normal" in2="BackgroundImageFix" result="effect1_dropShadow_2033_418"/>
<feBlend mode="normal" in="SourceGraphic" in2="effect1_dropShadow_2033_418" result="shape"/>
</filter>
</defs>
</svg>
