<svg width="32" height="32" viewBox="0 0 32 32" fill="none" xmlns="http://www.w3.org/2000/svg">
<path d="M26.6004 3.2V28.8C26.5993 29.6484 26.2619 30.4617 25.662 31.0616C25.0621 31.6615 24.2488 31.9989 23.4004 32H8.60039C7.75206 31.9988 6.93879 31.6613 6.33893 31.0615C5.73906 30.4616 5.40155 29.6483 5.40039 28.8V3.2C5.40145 2.35163 5.73893 1.53831 6.33882 0.938428C6.93871 0.338541 7.75202 0.00105848 8.60039 0H23.4004C24.2488 0.000952843 25.0622 0.338402 25.6621 0.938312C26.262 1.53822 26.5994 2.3516 26.6004 3.2V3.2ZM24.2004 28.8V25.6H7.80039V28.8C7.80369 29.0111 7.88903 29.2127 8.03835 29.362C8.18767 29.5114 8.38925 29.5967 8.60039 29.6H23.4004C23.6117 29.5973 23.8136 29.5122 23.9631 29.3627C24.1125 29.2133 24.1977 29.0113 24.2004 28.8V28.8ZM24.2004 23.2V3.2C24.1978 2.98863 24.1127 2.78665 23.9632 2.63718C23.8137 2.48771 23.6118 2.40259 23.4004 2.4H8.60039C8.38925 2.4033 8.18767 2.48864 8.03835 2.63796C7.88903 2.78728 7.80369 2.98886 7.80039 3.2V23.2H24.2004Z" fill="#4285F4"/>
<path d="M19.9968 15.3672H16.8008V18.2028H19.9968V15.3672Z" fill="#4285F4"/>
<path d="M19.9968 6.79688H16.8008V12.9613H19.9968V6.79688Z" fill="#4285F4"/>
<path d="M16.0008 26.5313C16.2255 26.5312 16.4452 26.5977 16.6321 26.7225C16.8189 26.8473 16.9646 27.0247 17.0506 27.2322C17.1367 27.4398 17.1592 27.6682 17.1155 27.8886C17.0717 28.109 16.9635 28.3115 16.8047 28.4704C16.6458 28.6293 16.4434 28.7375 16.223 28.7814C16.0026 28.8253 15.7742 28.8028 15.5666 28.7168C15.359 28.6308 15.1816 28.4852 15.0567 28.2984C14.9319 28.1116 14.8652 27.8919 14.8652 27.6672C14.8651 27.5181 14.8943 27.3703 14.9514 27.2324C15.0084 27.0946 15.092 26.9693 15.1975 26.8638C15.303 26.7583 15.4282 26.6746 15.5661 26.6175C15.7039 26.5605 15.8517 26.5311 16.0008 26.5313Z" fill="#4285F4"/>
<path d="M14.3999 6.79688H12.0039V18.1969H14.3999V6.79688Z" fill="#4285F4"/>
</svg>
