<svg width="26" height="26" viewBox="0 0 26 26" fill="none" xmlns="http://www.w3.org/2000/svg">
<path d="M17.0625 8.125H23.5625" stroke="black" stroke-width="2" stroke-linecap="round" stroke-linejoin="round"/>
<path d="M16.25 15.4375H24.375C24.3733 14.5004 24.0468 13.5928 23.4512 12.8693C22.8556 12.1458 22.0276 11.6511 21.1083 11.4695C20.1889 11.2878 19.235 11.4304 18.409 11.8729C17.5829 12.3155 16.9358 13.0306 16.5777 13.8967C16.2197 14.7627 16.1729 15.7261 16.4453 16.6227C16.7176 17.5194 17.2924 18.294 18.0716 18.8145C18.8509 19.3351 19.7864 19.5695 20.7191 19.4778C21.6517 19.3862 22.5237 18.9741 23.1867 18.3118" stroke="black" stroke-width="2" stroke-linecap="round" stroke-linejoin="round"/>
<path d="M3.25 12.5938H9.95312C10.869 12.5938 11.7473 12.9576 12.3949 13.6051C13.0424 14.2527 13.4062 15.131 13.4062 16.0469C13.4062 16.9627 13.0424 17.841 12.3949 18.4886C11.7473 19.1362 10.869 19.5 9.95312 19.5H3.25V6.5H8.73438C9.54246 6.5 10.3174 6.82101 10.8888 7.39241C11.4602 7.96381 11.7812 8.73879 11.7812 9.54688C11.7812 10.355 11.4602 11.1299 10.8888 11.7013C10.3174 12.2727 9.54246 12.5937 8.73438 12.5938" stroke="black" stroke-width="2" stroke-linecap="round" stroke-linejoin="round"/>
</svg>
