<svg width="50" height="49" viewBox="0 0 50 49" fill="none" xmlns="http://www.w3.org/2000/svg">
<rect opacity="0.01" x="0.648438" y="0.150879" width="48.6864" height="48.6864" fill="#FED11B"/>
<path d="M18.904 6.23682H10.7896C8.54889 6.23682 6.73242 8.05329 6.73242 10.294V18.4084C6.73242 20.6491 8.54889 22.4656 10.7896 22.4656H18.904C21.1447 22.4656 22.9612 20.6491 22.9612 18.4084V10.294C22.9612 8.05329 21.1447 6.23682 18.904 6.23682Z" fill="#FED11B"/>
<path d="M39.1911 6.23682H31.0767C28.836 6.23682 27.0195 8.05329 27.0195 10.294V18.4084C27.0195 20.6491 28.836 22.4656 31.0767 22.4656H39.1911C41.4319 22.4656 43.2483 20.6491 43.2483 18.4084V10.294C43.2483 8.05329 41.4319 6.23682 39.1911 6.23682Z" fill="#FED11B"/>
<path d="M18.904 26.5229H10.7896C8.54889 26.5229 6.73242 28.3394 6.73242 30.5801V38.6945C6.73242 40.9353 8.54889 42.7517 10.7896 42.7517H18.904C21.1447 42.7517 22.9612 40.9353 22.9612 38.6945V30.5801C22.9612 28.3394 21.1447 26.5229 18.904 26.5229Z" fill="#FED11B"/>
<path d="M39.1911 26.5229H31.0767C28.836 26.5229 27.0195 28.3394 27.0195 30.5801V38.6945C27.0195 40.9353 28.836 42.7517 31.0767 42.7517H39.1911C41.4319 42.7517 43.2483 40.9353 43.2483 38.6945V30.5801C43.2483 28.3394 41.4319 26.5229 39.1911 26.5229Z" fill="#FED11B"/>
</svg>
