<svg width="29" height="30" viewBox="0 0 29 30" fill="none" xmlns="http://www.w3.org/2000/svg">
<g clip-path="url(#clip0_843_5074)">
<path d="M21.7871 12.5236H28.93L25.3585 7.76172L21.7871 12.5236ZM21.7871 17.2855H28.93L25.3585 22.0474L21.7871 17.2855Z" fill="#F46953"/>
<path d="M1.54985 0.619141H8.69271V29.1906H1.54985C1.23412 29.1906 0.931314 29.0651 0.708056 28.8419C0.484799 28.6186 0.359375 28.3158 0.359375 28.0001V1.80962C0.359375 1.49388 0.484799 1.19108 0.708056 0.967822C0.931314 0.744565 1.23412 0.619141 1.54985 0.619141Z" fill="#FED11B"/>
<path d="M11.0723 0.619141H18.2151C18.5309 0.619141 18.8337 0.744565 19.0569 0.967822C19.2802 1.19108 19.4056 1.49388 19.4056 1.80962V28.0001C19.4056 28.3158 19.2802 28.6186 19.0569 28.8419C18.8337 29.0651 18.5309 29.1906 18.2151 29.1906H11.0723V0.619141Z" fill="#FED11B"/>
</g>
<defs>
<clipPath id="clip0_843_5074">
<rect width="28.5714" height="28.5714" fill="white" transform="translate(0.359375 0.619141)"/>
</clipPath>
</defs>
</svg>
