<svg width="57" height="57" viewBox="0 0 57 57" fill="none" xmlns="http://www.w3.org/2000/svg">
<path d="M31.4725 4.09572C33.535 2.03327 36.8789 2.03327 38.9413 4.09572L52.5974 17.7518C54.6599 19.8143 54.6599 23.1582 52.5974 25.2206L38.9413 38.8767C36.8789 40.9392 33.535 40.9392 31.4725 38.8767L17.8164 25.2206C15.754 23.1582 15.754 19.8143 17.8164 17.7518L31.4725 4.09572Z" fill="url(#paint0_linear_842_4483)"/>
<path d="M24.36 23.8337C23.9651 23.8337 23.5805 23.8337 23.2548 23.8603C22.8971 23.8895 22.475 23.9584 22.0502 24.1749C21.4614 24.4749 20.9826 24.9537 20.6826 25.5425C20.4661 25.9673 20.3972 26.3894 20.368 26.7471C20.3413 27.0728 20.3414 27.4574 20.3414 27.8523V32.3336C20.3414 32.7286 20.3413 33.1132 20.368 33.4389C20.3972 33.7966 20.4661 34.2187 20.6826 34.6434C20.9826 35.2323 21.4614 35.7111 22.0502 36.0111C22.475 36.2275 22.8971 36.2965 23.2548 36.3257C23.5805 36.3523 23.9651 36.3523 24.36 36.3522H28.8413C29.2362 36.3523 29.6209 36.3523 29.9466 36.3257C30.3043 36.2965 30.7264 36.2275 31.1511 36.0111C31.74 35.7111 32.2187 35.2323 32.5188 34.6434C32.7352 34.2187 32.8042 33.7966 32.8334 33.4389C32.86 33.1132 32.86 32.7286 32.8599 32.3336V27.8523C32.86 27.4574 32.86 27.0728 32.8334 26.7471C32.8042 26.3894 32.7352 25.9673 32.5188 25.5425C32.2187 24.9537 31.74 24.4749 31.1511 24.1749C30.7264 23.9584 30.3043 23.8895 29.9466 23.8603C29.6209 23.8337 29.2363 23.8337 28.8413 23.8337L24.36 23.8337Z" fill="#FED11B"/>
<path d="M8.71195 39.4818C8.31702 39.4818 7.93241 39.4817 7.60668 39.5083C7.24898 39.5376 6.82689 39.6065 6.40217 39.8229C5.81329 40.123 5.33452 40.6017 5.03447 41.1906C4.81807 41.6153 4.74911 42.0374 4.71988 42.3951C4.69327 42.7209 4.69332 43.1055 4.69336 43.5004L4.69336 47.9817C4.69332 48.3766 4.69327 48.7612 4.71988 49.087C4.74911 49.4447 4.81807 49.8668 5.03447 50.2915C5.33452 50.8804 5.81329 51.3591 6.40217 51.6592C6.82689 51.8756 7.24898 51.9445 7.60668 51.9738C7.93241 52.0004 8.31702 52.0003 8.71195 52.0003H13.1932C13.5882 52.0003 13.9728 52.0004 14.2985 51.9738C14.6562 51.9445 15.0783 51.8756 15.503 51.6592C16.0919 51.3591 16.5707 50.8804 16.8707 50.2915C17.0871 49.8668 17.1561 49.4447 17.1853 49.087C17.2119 48.7613 17.2119 48.3767 17.2118 47.9818V43.5004C17.2119 43.1055 17.2119 42.7208 17.1853 42.3951C17.1561 42.0374 17.0871 41.6153 16.8707 41.1906C16.5707 40.6017 16.0919 40.123 15.503 39.8229C15.0783 39.6065 14.6562 39.5376 14.2985 39.5083C13.9728 39.4817 13.5882 39.4818 13.1932 39.4818H8.71195Z" fill="#FED11B"/>
<path d="M24.36 39.4818C23.9651 39.4818 23.5805 39.4817 23.2548 39.5083C22.8971 39.5376 22.475 39.6065 22.0502 39.8229C21.4614 40.123 20.9826 40.6017 20.6826 41.1906C20.4661 41.6153 20.3972 42.0374 20.368 42.3951C20.3413 42.7209 20.3414 43.1055 20.3414 43.5004V47.9817C20.3414 48.3766 20.3413 48.7612 20.368 49.087C20.3972 49.4447 20.4661 49.8668 20.6826 50.2915C20.9826 50.8804 21.4614 51.3591 22.0502 51.6592C22.475 51.8756 22.8971 51.9445 23.2548 51.9738C23.5805 52.0004 23.9651 52.0003 24.36 52.0003H28.8413C29.2362 52.0003 29.6209 52.0004 29.9466 51.9738C30.3043 51.9445 30.7264 51.8756 31.1511 51.6592C31.74 51.3591 32.2187 50.8804 32.5188 50.2915C32.7352 49.8668 32.8042 49.4447 32.8334 49.087C32.86 48.7612 32.86 48.3766 32.8599 47.9817V43.5004C32.86 43.1055 32.86 42.7209 32.8334 42.3951C32.8042 42.0374 32.7352 41.6153 32.5188 41.1906C32.2187 40.6017 31.74 40.123 31.1511 39.8229C30.7264 39.6065 30.3043 39.5376 29.9466 39.5083C29.6209 39.4817 29.2362 39.4818 28.8413 39.4818H24.36Z" fill="#FED11B"/>
<path d="M8.71195 23.8337C8.31703 23.8337 7.9324 23.8337 7.60668 23.8603C7.24898 23.8895 6.82689 23.9584 6.40217 24.1749C5.81329 24.4749 5.33452 24.9537 5.03447 25.5425C4.81807 25.9673 4.74911 26.3894 4.71988 26.7471C4.69327 27.0728 4.69332 27.4574 4.69336 27.8523L4.69336 32.3336C4.69332 32.7285 4.69327 33.1132 4.71988 33.4389C4.74911 33.7966 4.81807 34.2187 5.03447 34.6434C5.33452 35.2323 5.81329 35.7111 6.40217 36.0111C6.82689 36.2275 7.24898 36.2965 7.60668 36.3257C7.93239 36.3523 8.31699 36.3523 8.7119 36.3522H13.1932C13.5882 36.3523 13.9728 36.3523 14.2985 36.3257C14.6562 36.2965 15.0783 36.2275 15.503 36.0111C16.0919 35.7111 16.5707 35.2323 16.8707 34.6434C17.0871 34.2187 17.1561 33.7966 17.1853 33.4389C17.2119 33.1132 17.2119 32.7286 17.2118 32.3337V27.8523C17.2119 27.4574 17.2119 27.0728 17.1853 26.7471C17.1561 26.3894 17.0871 25.9673 16.8707 25.5425C16.5707 24.9537 16.0919 24.4749 15.503 24.1749C15.0783 23.9584 14.6562 23.8895 14.2985 23.8603C13.9728 23.8337 13.5882 23.8337 13.1933 23.8337L8.71195 23.8337Z" fill="#FED11B"/>
<defs>
<linearGradient id="paint0_linear_842_4483" x1="35.2069" y1="0.361328" x2="35.2069" y2="42.6111" gradientUnits="userSpaceOnUse">
<stop stop-color="#DEDEDE"/>
<stop offset="1" stop-color="#DEDEDE" stop-opacity="0"/>
</linearGradient>
</defs>
</svg>
