<svg width="32" height="32" viewBox="0 0 32 32" fill="none" xmlns="http://www.w3.org/2000/svg">
<path d="M26.6663 20V10L18.333 5.3125M13.6663 5.3125L5.33301 10V20M7.33301 23.125L15.9997 28L21.333 25L24.6663 23.125" stroke="#4285F4" stroke-width="2.66667" stroke-linecap="round" stroke-linejoin="round"/>
<path d="M14 12.4948L12 13.6615V15.9948V18.3281L14 19.4948L16 20.6615L18 19.4948L20 18.3281V15.9948V13.6615L18 12.4948L16 11.3281L14 12.4948Z" fill="white" stroke="#4285F4" stroke-width="2.66667" stroke-linecap="round" stroke-linejoin="round"/>
<path d="M16 11.3307V6.66406" stroke="#4285F4" stroke-width="2.66667" stroke-linecap="round" stroke-linejoin="round"/>
<path d="M20 18L24.6667 20.6667" stroke="#4285F4" stroke-width="2.66667" stroke-linecap="round" stroke-linejoin="round"/>
<path d="M11.9997 18L7.33301 20.6667" stroke="#4285F4" stroke-width="2.66667" stroke-linecap="round" stroke-linejoin="round"/>
<path d="M16 6.66406C17.1046 6.66406 18 5.76863 18 4.66406C18 3.55949 17.1046 2.66406 16 2.66406C14.8954 2.66406 14 3.55949 14 4.66406C14 5.76863 14.8954 6.66406 16 6.66406Z" fill="white" stroke="#4285F4" stroke-width="2.66667" stroke-linecap="round" stroke-linejoin="round"/>
<path d="M5.33301 24C6.43758 24 7.33301 23.1046 7.33301 22C7.33301 20.8954 6.43758 20 5.33301 20C4.22844 20 3.33301 20.8954 3.33301 22C3.33301 23.1046 4.22844 24 5.33301 24Z" fill="white" stroke="#4285F4" stroke-width="2.66667" stroke-linecap="round" stroke-linejoin="round"/>
<path d="M26.666 24C27.7706 24 28.666 23.1046 28.666 22C28.666 20.8954 27.7706 20 26.666 20C25.5614 20 24.666 20.8954 24.666 22C24.666 23.1046 25.5614 24 26.666 24Z" fill="white" stroke="#4285F4" stroke-width="2.66667" stroke-linecap="round" stroke-linejoin="round"/>
</svg>
