<svg width="145" height="103" viewBox="0 0 145 103" fill="none" xmlns="http://www.w3.org/2000/svg">
<g filter="url(#filter0_d_826_3272)">
<path fill-rule="evenodd" clip-rule="evenodd" d="M101.595 44.436C103.813 44.436 105.36 42.755 105.36 40.9851C105.36 39.2151 103.813 37.5342 101.595 37.5342C99.3769 37.5342 97.8305 39.2151 97.8305 40.9851C97.8305 42.755 99.3769 44.436 101.595 44.436ZM101.595 47.5731C105.407 47.5731 108.497 44.6236 108.497 40.9851C108.497 37.3466 105.407 34.397 101.595 34.397C97.7834 34.397 94.6934 37.3466 94.6934 40.9851C94.6934 44.6236 97.7834 47.5731 101.595 47.5731Z" fill="#FED11B"/>
<path fill-rule="evenodd" clip-rule="evenodd" d="M58.3022 44.436C60.5205 44.436 62.0668 42.755 62.0668 40.9851C62.0668 39.2151 60.5205 37.5342 58.3022 37.5342C56.0839 37.5342 54.5376 39.2151 54.5376 40.9851C54.5376 42.755 56.0839 44.436 58.3022 44.436ZM58.3022 47.5731C62.1139 47.5731 65.204 44.6236 65.204 40.9851C65.204 37.3466 62.1139 34.397 58.3022 34.397C54.4904 34.397 51.4004 37.3466 51.4004 40.9851C51.4004 44.6236 54.4904 47.5731 58.3022 47.5731Z" fill="#FED11B"/>
<path fill-rule="evenodd" clip-rule="evenodd" d="M47.4256 5.53516C46.1245 5.53516 45.0391 6.52947 44.9254 7.82559L44.631 11.1821H51.4007C52.0937 11.1821 52.6555 11.7439 52.6555 12.437C52.6555 13.13 52.0937 13.6918 51.4007 13.6918H44.4108L44.1907 16.2016H48.8909C49.584 16.2016 50.1458 16.7634 50.1458 17.4564C50.1458 18.1495 49.584 18.7113 48.8909 18.7113H43.9705L43.7504 21.2211H52.0281C52.7212 21.2211 53.283 21.7829 53.283 22.4759C53.283 23.169 52.7212 23.7308 52.0281 23.7308H43.5302L43.3101 26.2406H49.5184C50.2114 26.2406 50.7732 26.8024 50.7732 27.4954C50.7732 28.1885 50.2114 28.7503 49.5184 28.7503H43.0899L42.2285 38.57C42.0999 40.037 43.256 41.299 44.7287 41.299H50.1458C50.1458 36.7942 53.7977 33.1424 58.3025 33.1424C62.8073 33.1424 66.4592 36.7942 66.4592 41.299H87.3944H88.0423H93.4389C93.4389 36.7942 97.0908 33.1424 101.596 33.1424C106.1 33.1424 109.752 36.7942 109.752 41.299H110.576C111.883 41.299 112.971 40.2961 113.078 38.9935L114.059 26.9698C114.114 26.3024 113.899 25.6408 113.463 25.1323L105.484 15.8231C105.007 15.2669 104.311 14.9467 103.578 14.9467H94.3173C93.8867 14.9467 93.4723 14.8364 93.1084 14.6363L93.7745 8.30763C93.9305 6.82578 92.7686 5.53516 91.2786 5.53516H47.4256ZM95.2989 17.1187C95.3115 16.9552 95.4478 16.829 95.6117 16.829H102.301C102.651 16.829 102.986 16.9754 103.223 17.2327L109.894 24.4592C110.079 24.6601 109.937 24.9857 109.663 24.9857H95.0326C94.8498 24.9857 94.7058 24.8301 94.7198 24.6479L95.2989 17.1187ZM64.0073 17.7426L64.2482 16.4024H58.0893L56.2371 26.868H57.9538L58.7669 22.245H62.2304L62.4713 20.9199H59.0079L59.565 17.7426H64.0073ZM71.8475 17.1101C71.3054 16.6383 70.5073 16.4024 69.4532 16.4024H65.8391L63.9869 26.868H65.7036L66.4415 22.6817H67.7666L69.423 26.868H71.471L69.6489 22.5312C70.5022 22.3304 71.1748 21.9489 71.6668 21.3867C72.1687 20.8245 72.4799 20.2071 72.6004 19.5345C72.6405 19.2735 72.6606 19.0777 72.6606 18.9472C72.6606 18.1943 72.3896 17.5819 71.8475 17.1101ZM70.8837 19.0978C70.8837 19.2384 70.8687 19.3839 70.8385 19.5345C70.7482 20.0867 70.5073 20.5234 70.1157 20.8446C69.7342 21.1659 69.2223 21.3265 68.5798 21.3265H66.6824L67.3149 17.7426H69.2122C69.7744 17.7426 70.191 17.863 70.4621 18.104C70.7432 18.3349 70.8837 18.6661 70.8837 19.0978ZM76.2722 20.9048L76.8293 17.7275H80.8951L81.1361 16.3873H75.3536L73.5014 26.868H79.2839L79.5248 25.5278H75.459L76.0463 22.23H79.6603L79.8862 20.9048H76.2722ZM84.1691 20.9048L84.7262 17.7275H88.792L89.0329 16.3873H83.2505L81.3983 26.868H87.1807L87.4217 25.5278H83.3559L83.9432 22.23H87.5572L87.7831 20.9048H84.1691Z" fill="#FED11B"/>
<path fill-rule="evenodd" clip-rule="evenodd" d="M38.8515 8.67236C38.1584 8.67236 37.5966 9.23419 37.5966 9.92724C37.5966 10.6203 38.1584 11.1821 38.8515 11.1821H53.91C54.603 11.1821 55.1648 10.6203 55.1648 9.92724C55.1648 9.23419 54.603 8.67236 53.91 8.67236H38.8515ZM33.832 13.6919C33.139 13.6919 32.5771 14.2537 32.5771 14.9467C32.5771 15.6398 33.139 16.2016 33.832 16.2016H53.91C54.603 16.2016 55.1648 15.6398 55.1648 14.9467C55.1648 14.2537 54.603 13.6919 53.91 13.6919H33.832ZM35.0869 19.9662C35.0869 19.2732 35.6487 18.7113 36.3417 18.7113H53.91C54.603 18.7113 55.1648 19.2732 55.1648 19.9662C55.1648 20.6593 54.603 21.2211 53.91 21.2211H36.3417C35.6487 21.2211 35.0869 20.6593 35.0869 19.9662ZM31.3223 23.7308C30.6292 23.7308 30.0674 24.2927 30.0674 24.9857C30.0674 25.6788 30.6292 26.2406 31.3223 26.2406H53.91C54.603 26.2406 55.1648 25.6788 55.1648 24.9857C55.1648 24.2927 54.603 23.7308 53.91 23.7308H31.3223Z" fill="#FED11B"/>
</g>
<defs>
<filter id="filter0_d_826_3272" x="0.0673828" y="0.535156" width="144" height="102.038" filterUnits="userSpaceOnUse" color-interpolation-filters="sRGB">
<feFlood flood-opacity="0" result="BackgroundImageFix"/>
<feColorMatrix in="SourceAlpha" type="matrix" values="0 0 0 0 0 0 0 0 0 0 0 0 0 0 0 0 0 0 127 0" result="hardAlpha"/>
<feOffset dy="25"/>
<feGaussianBlur stdDeviation="15"/>
<feColorMatrix type="matrix" values="0 0 0 0 0.972549 0 0 0 0 0.262745 0 0 0 0 0.266667 0 0 0 0.1 0"/>
<feBlend mode="normal" in2="BackgroundImageFix" result="effect1_dropShadow_826_3272"/>
<feBlend mode="normal" in="SourceGraphic" in2="effect1_dropShadow_826_3272" result="shape"/>
</filter>
</defs>
</svg>
