<svg width="62" height="62" viewBox="0 0 62 62" fill="none" xmlns="http://www.w3.org/2000/svg">
<circle cx="31" cy="31" r="31" fill="#121212"/>
<path d="M31 18C28.7423 17.9998 26.5234 18.5877 24.5619 19.7056C22.6003 20.8236 20.9638 22.4331 19.8133 24.3758C18.6629 26.3184 18.0382 28.5272 18.0008 30.7846C17.9634 33.042 18.5146 35.2703 19.6 37.25L18.5375 41C18.4384 41.3417 18.4328 41.7038 18.5214 42.0484C18.6099 42.393 18.7894 42.7075 19.041 42.9591C19.2925 43.2106 19.6071 43.3901 19.9516 43.4786C20.2962 43.5672 20.6583 43.5616 21 43.4625L24.75 42.4C26.4879 43.3525 28.4205 43.8951 30.4002 43.9862C32.3798 44.0774 34.3541 43.7148 36.1722 42.926C37.9902 42.1373 39.6039 40.9433 40.8898 39.4354C42.1757 37.9275 43.0999 36.1456 43.5916 34.2258C44.0834 32.306 44.1297 30.2992 43.7271 28.3588C43.3244 26.4183 42.4835 24.5956 41.2685 23.03C40.0535 21.4643 38.4967 20.1972 36.717 19.3254C34.9372 18.4536 32.9818 18.0003 31 18V18Z" fill="white"/>
</svg>
