<svg width="24" height="24" viewBox="0 0 24 24" fill="none" xmlns="http://www.w3.org/2000/svg">
<g clip-path="url(#clip0_2020_416)">
<path d="M2.81908 23.907C1.73132 23.622 0.855034 22.7626 0.540692 21.6723L0.432129 21.2958V12.0239C0.432129 4.41173 0.443477 2.70563 0.495499 2.4931C0.530354 2.35073 0.654736 2.03304 0.771907 1.78712C0.954023 1.40489 1.04388 1.28185 1.39099 0.939333C1.85542 0.481043 2.26868 0.245252 2.8753 0.092423C3.23978 0.000595593 3.40996 -0.00133032 10.9941 0.000294823L18.7406 0.00201078L21.1553 2.38892L23.57 4.77583L23.5556 13.0829L23.5413 21.39L23.43 21.7194C23.0467 22.8547 22.2342 23.6284 21.1284 23.9112C20.7831 23.9995 20.5199 24.002 11.9674 23.9995C3.45829 23.9971 3.15039 23.9939 2.81908 23.9071L2.81908 23.907ZM20.897 21.9144C21.21 21.7607 21.458 21.4633 21.5383 21.1455C21.5723 21.0108 21.5881 18.5665 21.5881 13.4391V5.92994L19.6702 5.91764L17.7522 5.90533L17.74 3.94035L17.7277 1.97535L10.5389 1.9757L3.35021 1.97603L3.11488 2.08586C2.98545 2.14626 2.80132 2.28246 2.70572 2.38852C2.36192 2.7699 2.38537 2.0663 2.38537 12.0011C2.38537 21.6444 2.37292 21.1568 2.629 21.5354C2.77247 21.7475 3.04186 21.932 3.3169 22.0064C3.49314 22.0541 5.28622 22.0646 12.0809 22.0575L20.6232 22.0486L20.8971 21.9141L20.897 21.9144ZM9.38209 18.3049C8.67084 18.1855 8.06024 17.8648 7.80204 17.475C7.44862 16.9414 7.3752 16.5227 7.37437 15.0361C7.37404 14.4148 7.35336 13.782 7.32844 13.6298C7.23858 13.0811 6.96174 12.7674 6.51984 12.7135L6.26825 12.6828V12.0003V11.3179L6.51604 11.2876C6.84592 11.2474 7.06828 11.074 7.2255 10.7346C7.34624 10.4739 7.34809 10.453 7.37804 9.01168C7.41126 7.41238 7.43697 7.23665 7.71368 6.71748C8.05099 6.08463 8.78384 5.73756 9.94368 5.66137L10.3865 5.63231V6.31971V7.00712L10.21 7.03676C9.74797 7.11432 9.54869 7.23742 9.38674 7.54533C9.29086 7.72764 9.28176 7.8287 9.2526 9.0352C9.21962 10.4005 9.17461 10.7383 8.96597 11.1866C8.85468 11.4258 8.43074 11.8783 8.27023 11.9292C8.13364 11.9726 8.1516 12.0056 8.40053 12.1687C9.0653 12.6043 9.25313 13.2683 9.2557 15.1917C9.25707 16.2004 9.2944 16.4285 9.49894 16.6766C9.64293 16.8513 9.97608 16.9893 10.2538 16.9893H10.3865V17.6717V18.3542L9.99819 18.3487C9.78463 18.3456 9.50739 18.3259 9.38209 18.3049V18.3049ZM12.8339 17.6717V16.9893H12.9665C13.1859 16.9893 13.5625 16.8568 13.6666 16.743C13.9238 16.4617 13.9344 16.3996 13.9675 14.9655C14 13.5556 14.035 13.2782 14.2334 12.8544C14.3873 12.5258 14.5837 12.3067 14.8721 12.142L15.1056 12.0087L14.9228 11.9144C14.5337 11.7136 14.2374 11.2814 14.0783 10.6825C14.0149 10.4438 13.9907 10.087 13.9684 9.05874C13.9404 7.76623 13.9376 7.73687 13.8222 7.53093C13.6728 7.26414 13.4622 7.12275 13.1114 7.05375L12.8339 6.99915V6.31574V5.63235L13.2957 5.66263C13.8504 5.69898 14.3727 5.8257 14.7476 6.01494C15.0672 6.1763 15.4369 6.54898 15.5653 6.8394C15.7833 7.33219 15.8093 7.54054 15.8423 9.05876C15.8694 10.3003 15.8864 10.5458 15.9567 10.706C16.1177 11.0729 16.4215 11.2944 16.7636 11.2944H16.9311L16.9181 11.9881L16.905 12.6817L16.6872 12.7128C16.4127 12.752 16.3187 12.8028 16.1369 13.0098C15.8829 13.2991 15.8461 13.5279 15.8457 14.8211C15.8454 16.5502 15.7289 17.1259 15.2812 17.6159C15.1427 17.7673 14.9346 17.9259 14.7544 18.0175C14.3909 18.2019 13.6929 18.3527 13.1986 18.3536L12.8339 18.3543V17.6718L12.8339 17.6717Z" fill="#00BCF2"/>
</g>
<defs>
<clipPath id="clip0_2020_416">
<rect width="24" height="24" fill="white"/>
</clipPath>
</defs>
</svg>
