<svg width="95" height="95" viewBox="0 0 95 95" fill="none" xmlns="http://www.w3.org/2000/svg">
<g filter="url(#filter0_d_2034_508)">
<rect x="11" y="3" width="59.2981" height="59.2981" rx="7.23148" fill="white"/>
</g>
<rect x="22.5703" y="14.5703" width="36.1574" height="36.1574" rx="7.23148" fill="#FF7E6F"/>
<path d="M37.9526 38.9853C37.7269 40.134 36.7144 41.0006 35.4995 41.0006H33.4995C33.2234 41.0006 32.9995 40.7767 32.9995 40.5006V38.5006C32.9995 37.2857 33.8661 36.2732 35.0148 36.0475L35.0267 35.7047C35.0466 35.1251 35.1063 34.5562 35.203 34.0006H31.4995C31.1458 34.0006 30.9039 33.6433 31.0353 33.3149L33.0353 28.3149C33.1112 28.1251 33.2951 28.0006 33.4995 28.0006H37.9995C38.0249 28.0006 38.0498 28.0025 38.0742 28.0061C40.4286 25.3221 43.9242 23.6776 47.7708 23.8102C48.3815 23.8313 48.9897 23.8977 49.5906 24.009C49.7942 24.0467 49.9535 24.206 49.9912 24.4095C50.8117 28.8405 49.1518 33.1564 45.9942 35.9277C45.9977 35.9515 45.9995 35.9758 45.9995 36.0006V40.5006C45.9995 40.705 45.875 40.8889 45.6852 40.9648L40.6852 42.9648C40.3568 43.0962 39.9995 42.8543 39.9995 42.5006V38.7955C39.4363 38.8943 38.8669 38.9537 38.2954 38.9734L37.9526 38.9853ZM36.987 38.6952L35.3049 37.0131C34.5684 37.1085 33.9995 37.7381 33.9995 38.5006V40.0006H35.4995C36.262 40.0006 36.8916 39.4317 36.987 38.6952ZM40.9995 38.5776V41.7621L44.9995 40.1621V36.7138C43.8174 37.5527 42.4709 38.1931 40.9995 38.5776ZM35.4203 33.0006C35.8015 31.5421 36.4421 30.192 37.2882 29.0006H33.838L32.238 33.0006H35.4203ZM37.6994 37.9934L38.2609 37.974C38.822 37.9547 39.381 37.8936 39.933 37.7914C45.9697 36.6735 49.9952 30.9606 49.066 24.9342C48.6257 24.8666 48.1817 24.825 47.7364 24.8096C41.4845 24.594 36.2416 29.4874 36.0261 35.7392L36.0067 36.3007L37.6994 37.9934ZM42.9995 34.0006C41.3427 34.0006 39.9995 32.6574 39.9995 31.0006C39.9995 29.3437 41.3427 28.0006 42.9995 28.0006C44.6564 28.0006 45.9995 29.3437 45.9995 31.0006C45.9995 32.6574 44.6564 34.0006 42.9995 34.0006ZM42.9995 33.0006C44.1041 33.0006 44.9995 32.1052 44.9995 31.0006C44.9995 29.896 44.1041 29.0006 42.9995 29.0006C41.8949 29.0006 40.9995 29.896 40.9995 31.0006C40.9995 32.1052 41.8949 33.0006 42.9995 33.0006Z" fill="white"/>
<defs>
<filter id="filter0_d_2034_508" x="0.87593" y="0.107408" width="94.0089" height="94.0099" filterUnits="userSpaceOnUse" color-interpolation-filters="sRGB">
<feFlood flood-opacity="0" result="BackgroundImageFix"/>
<feColorMatrix in="SourceAlpha" type="matrix" values="0 0 0 0 0 0 0 0 0 0 0 0 0 0 0 0 0 0 127 0" result="hardAlpha"/>
<feOffset dx="7.23148" dy="14.463"/>
<feGaussianBlur stdDeviation="8.67777"/>
<feColorMatrix type="matrix" values="0 0 0 0 0.2 0 0 0 0 0.501961 0 0 0 0 0.533333 0 0 0 0.1 0"/>
<feBlend mode="normal" in2="BackgroundImageFix" result="effect1_dropShadow_2034_508"/>
<feBlend mode="normal" in="SourceGraphic" in2="effect1_dropShadow_2034_508" result="shape"/>
</filter>
</defs>
</svg>
