<svg width="95" height="95" viewBox="0 0 95 95" fill="none" xmlns="http://www.w3.org/2000/svg">
<g filter="url(#filter0_d_2033_419)">
<rect x="11" y="3" width="59.2981" height="59.2981" rx="7.23148" fill="white"/>
</g>
<rect x="22.5703" y="14.5703" width="36.1574" height="36.1574" rx="7.23148" fill="#60A78F"/>
<g clip-path="url(#clip0_2033_419)">
<path d="M52.4574 40.5957H48.5957V44.4574H52.4574V40.5957Z" fill="#9AD7FF"/>
<path d="M52.4574 31.0684H48.5957V34.9301H52.4574V31.0684Z" fill="#9AD7FF"/>
<path d="M42.931 40.5957H39.0693V44.4574H42.931V40.5957Z" fill="#9AD7FF"/>
<path d="M33.4047 40.5957H29.543V44.4574H33.4047V40.5957Z" fill="#9AD7FF"/>
<path d="M42.931 21.543H39.0693V25.4047H42.931V21.543Z" fill="#9AD7FF"/>
<path d="M52.4574 21.543H48.5957V25.4047H52.4574V21.543Z" fill="#9AD7FF"/>
<path d="M33.4047 31.0684H29.543V34.9301H33.4047V31.0684Z" fill="#9AD7FF"/>
<path d="M33.4047 21.543H29.543V25.4047H33.4047V21.543Z" fill="#9AD7FF"/>
<path d="M52.457 25.9479C52.7569 25.9479 53 25.7048 53 25.4049V21.543C53 21.2431 52.7569 21 52.457 21H48.5951C48.2952 21 48.0521 21.2431 48.0521 21.543V22.931H43.4739V21.543C43.474 21.2431 43.2309 21 42.931 21H39.069C38.7691 21 38.526 21.2431 38.526 21.543V22.931H33.9479V21.543C33.9479 21.2431 33.7048 21 33.4049 21H29.543C29.2431 21 29 21.2431 29 21.543V25.4049C29 25.7048 29.2431 25.9479 29.543 25.9479H30.931V30.5261H29.543C29.2431 30.526 29 30.7691 29 31.069V34.931C29 35.2309 29.2431 35.474 29.543 35.474H30.931V40.0521H29.543C29.2431 40.0521 29 40.2952 29 40.5951V44.457C29 44.7569 29.2431 45 29.543 45H33.4049C33.7048 45 33.9479 44.7569 33.9479 44.457V43.069H38.5261V44.457C38.5261 44.7569 38.7692 45 39.0691 45H42.931C43.2309 45 43.474 44.7569 43.474 44.457V43.069H48.0522V44.457C48.0522 44.7569 48.2952 45 48.5952 45H52.4571C52.757 45 53.0001 44.7569 53.0001 44.457V40.5951C53.0001 40.2952 52.757 40.0521 52.4571 40.0521H51.0691V35.4739H52.4571C52.757 35.4739 53.0001 35.2308 53.0001 34.9309V31.069C53.0001 30.7691 52.757 30.526 52.4571 30.526H51.0691V25.9478H52.457V25.9479ZM49.1381 22.086H51.914V24.8619H49.1381V22.086ZM39.612 22.086H42.388V23.4734C42.388 23.4735 42.388 23.4737 42.388 23.474C42.388 23.4742 42.388 23.4743 42.388 23.4745V24.862H39.612V22.086ZM30.086 22.086H32.8619V24.8619H30.086V22.086ZM30.086 31.612H31.4734C31.4735 31.612 31.4737 31.612 31.474 31.612C31.4742 31.612 31.4743 31.612 31.4745 31.612H32.862V34.388H30.086V31.612ZM32.8619 43.914H30.086V41.1381H32.8619V43.914ZM42.388 43.914H39.612V41.1381H42.388L42.388 43.914ZM51.914 43.914H49.1381V41.1381H51.914V43.914ZM51.914 34.388H50.5266C50.5265 34.388 50.5263 34.388 50.526 34.388C50.5258 34.388 50.5257 34.388 50.5255 34.388H49.138V31.612H51.914V34.388H51.914ZM49.9831 30.526H48.5951C48.2952 30.526 48.0521 30.7691 48.0521 31.069V34.931C48.0521 35.2309 48.2952 35.474 48.5951 35.474H49.9831V40.0521H48.5951C48.2952 40.0521 48.0521 40.2952 48.0521 40.5951V41.9831H43.474V40.5951C43.474 40.2952 43.2309 40.0521 42.931 40.0521H39.069C38.7691 40.0521 38.526 40.2952 38.526 40.5951V41.9831H33.9479V40.5951C33.9479 40.2952 33.7048 40.0521 33.4049 40.0521H32.0169V35.474H33.4049C33.7048 35.474 33.9479 35.2309 33.9479 34.931V31.069C33.9479 30.7691 33.7048 30.526 33.4049 30.526H32.0169V25.9479H33.4049C33.7048 25.9479 33.9479 25.7048 33.9479 25.4049V24.0169H38.526V25.4049C38.526 25.7048 38.7691 25.9479 39.069 25.9479H42.931C43.2309 25.9479 43.474 25.7048 43.474 25.4049V24.0169H48.0521V25.4049C48.0521 25.7048 48.2952 25.9479 48.5951 25.9479H49.9831V30.526Z" fill="white"/>
<path d="M42.5752 32.4575H41.5435V31.4258C41.5435 31.1259 41.3004 30.8828 41.0005 30.8828C40.7006 30.8828 40.4575 31.1259 40.4575 31.4258V32.4575H39.4258C39.1259 32.4575 38.8828 32.7006 38.8828 33.0005C38.8828 33.3004 39.1259 33.5435 39.4258 33.5435H40.4575V34.5752C40.4575 34.8751 40.7006 35.1182 41.0005 35.1182C41.3004 35.1182 41.5435 34.8751 41.5435 34.5752V33.5435H42.5752C42.8751 33.5435 43.1182 33.3004 43.1182 33.0005C43.1181 32.7006 42.875 32.4575 42.5752 32.4575Z" fill="white"/>
</g>
<defs>
<filter id="filter0_d_2033_419" x="0.87593" y="0.107408" width="94.0089" height="94.0099" filterUnits="userSpaceOnUse" color-interpolation-filters="sRGB">
<feFlood flood-opacity="0" result="BackgroundImageFix"/>
<feColorMatrix in="SourceAlpha" type="matrix" values="0 0 0 0 0 0 0 0 0 0 0 0 0 0 0 0 0 0 127 0" result="hardAlpha"/>
<feOffset dx="7.23148" dy="14.463"/>
<feGaussianBlur stdDeviation="8.67777"/>
<feColorMatrix type="matrix" values="0 0 0 0 0.2 0 0 0 0 0.501961 0 0 0 0 0.533333 0 0 0 0.1 0"/>
<feBlend mode="normal" in2="BackgroundImageFix" result="effect1_dropShadow_2033_419"/>
<feBlend mode="normal" in="SourceGraphic" in2="effect1_dropShadow_2033_419" result="shape"/>
</filter>
<clipPath id="clip0_2033_419">
<rect width="24" height="24" fill="white" transform="translate(29 21)"/>
</clipPath>
</defs>
</svg>
