<svg width="95" height="95" viewBox="0 0 95 95" fill="none" xmlns="http://www.w3.org/2000/svg">
<g filter="url(#filter0_d_2033_480)">
<rect x="11" y="3" width="59.2981" height="59.2981" rx="7.23148" fill="white"/>
</g>
<rect x="22.5703" y="14.5703" width="36.1574" height="36.1574" rx="7.23148" fill="#D8D8D8"/>
<path d="M50 21H32V45H50V21Z" fill="black"/>
<path d="M49.6719 44.6725H32.3281V21.3262H49.6719V44.6725ZM32.5156 44.485H49.4844V21.5137H32.5156V44.485Z" fill="white"/>
<path d="M43.4301 31.8867H40.999V32.4492H43.4301V31.8867Z" fill="white"/>
<path d="M38.5683 31.8867H35.3271V32.4492H38.5683V31.8867Z" fill="#C1C1C1"/>
<path d="M38.5683 28.6465H35.3271V29.209H38.5683V28.6465Z" fill="#C1C1C1"/>
<path d="M43.431 28.6465H40.1895V29.209H43.431V28.6465Z" fill="#6B6B6B"/>
<path d="M47.4827 28.6465H44.2412V29.209H47.4827V28.6465Z" fill="#C1C1C1"/>
<path d="M48.2942 30.2676H46.6738V30.8301H48.2942V30.2676Z" fill="#C1C1C1"/>
<path d="M44.2409 30.2676H42.6201V30.8301H44.2409V30.2676Z" fill="#C1C1C1"/>
<path d="M39.293 30.2656H36.2461V30.8281H39.293V30.2656Z" fill="white"/>
<path d="M48.2942 27.0254H46.6738V27.5879H48.2942V27.0254Z" fill="white"/>
<path d="M44.2409 27.0254H42.6201V27.5879H44.2409V27.0254Z" fill="#C1C1C1"/>
<path d="M40.189 27.0254H35.3271V27.5879H40.189V27.0254Z" fill="white"/>
<path d="M48.2927 23.7852H44.2412V24.3477H48.2927V23.7852Z" fill="#6B6B6B"/>
<path d="M42.6201 23.7852H40.999V24.3477H42.6201V23.7852Z" fill="white"/>
<path d="M39.3785 23.7852H34.5166V24.3477H39.3785V23.7852Z" fill="#C1C1C1"/>
<path d="M48.2923 25.4062H45.0508V25.9688H48.2923V25.4062Z" fill="#C1C1C1"/>
<path d="M43.4303 25.4062H41.8096V25.9688H43.4303V25.4062Z" fill="#C1C1C1"/>
<path d="M38.5682 25.4043H33.707V25.9668H38.5682V25.4043Z" fill="#6B6B6B"/>
<path d="M43.4301 41.6543H40.999V42.2168H43.4301V41.6543Z" fill="white"/>
<path d="M38.5683 41.6562H35.3271V42.2188H38.5683V41.6562Z" fill="#C1C1C1"/>
<path d="M38.5683 38.4121H35.3271V38.9746H38.5683V38.4121Z" fill="#C1C1C1"/>
<path d="M43.431 38.4121H40.1895V38.9746H43.431V38.4121Z" fill="#6B6B6B"/>
<path d="M47.4827 38.4121H44.2412V38.9746H47.4827V38.4121Z" fill="#C1C1C1"/>
<path d="M48.2942 40.0332H46.6738V40.5957H48.2942V40.0332Z" fill="#C1C1C1"/>
<path d="M44.2409 40.0332H42.6201V40.5957H44.2409V40.0332Z" fill="#C1C1C1"/>
<path d="M39.293 40.0312H36.2461V40.5938H39.293V40.0312Z" fill="white"/>
<path d="M48.2942 36.791H46.6738V37.3535H48.2942V36.791Z" fill="white"/>
<path d="M44.2409 36.791H42.6201V37.3535H44.2409V36.791Z" fill="#C1C1C1"/>
<path d="M40.189 36.791H35.3271V37.3535H40.189V36.791Z" fill="white"/>
<path d="M48.2927 33.5508H44.2412V34.1133H48.2927V33.5508Z" fill="#6B6B6B"/>
<path d="M42.6201 33.5508H40.999V34.1133H42.6201V33.5508Z" fill="white"/>
<path d="M39.3785 33.5508H34.5166V34.1133H39.3785V33.5508Z" fill="#C1C1C1"/>
<path d="M48.2923 35.1719H45.0508V35.7344H48.2923V35.1719Z" fill="#C1C1C1"/>
<path d="M43.4303 35.1719H41.8096V35.7344H43.4303V35.1719Z" fill="#C1C1C1"/>
<path d="M38.5682 35.1699H33.707V35.7324H38.5682V35.1699Z" fill="#6B6B6B"/>
<defs>
<filter id="filter0_d_2033_480" x="0.87593" y="0.107408" width="94.0089" height="94.0099" filterUnits="userSpaceOnUse" color-interpolation-filters="sRGB">
<feFlood flood-opacity="0" result="BackgroundImageFix"/>
<feColorMatrix in="SourceAlpha" type="matrix" values="0 0 0 0 0 0 0 0 0 0 0 0 0 0 0 0 0 0 127 0" result="hardAlpha"/>
<feOffset dx="7.23148" dy="14.463"/>
<feGaussianBlur stdDeviation="8.67777"/>
<feColorMatrix type="matrix" values="0 0 0 0 0.2 0 0 0 0 0.501961 0 0 0 0 0.533333 0 0 0 0.1 0"/>
<feBlend mode="normal" in2="BackgroundImageFix" result="effect1_dropShadow_2033_480"/>
<feBlend mode="normal" in="SourceGraphic" in2="effect1_dropShadow_2033_480" result="shape"/>
</filter>
</defs>
</svg>
