<svg width="75" height="75" viewBox="0 0 75 75" fill="none" xmlns="http://www.w3.org/2000/svg">
<rect width="75" height="75" rx="18" fill="white"/>
<path d="M45.6484 30.8826V29.1326C45.6484 24.7576 42.3672 21.0935 38.2109 20.7107C35.9141 20.492 33.6172 21.3123 31.9219 22.8435C30.2813 24.3748 29.2969 26.5076 29.2969 28.7498V30.8279C26.0156 31.3201 23.5547 34.1638 23.5547 37.5545V47.8904C23.5547 51.4451 26.4531 54.3435 30.0078 54.3435H44.9375C48.4922 54.3435 51.3906 51.4451 51.3906 47.8904V37.4998C51.4453 34.1638 48.9297 31.4295 45.6484 30.8826ZM33.2344 24.2654C34.5469 23.0623 36.2422 22.4607 38.0469 22.6248C41.2188 22.8982 43.7344 25.742 43.7344 29.1326V30.7732H31.2656V28.7498C31.2656 27.0545 31.9766 25.4138 33.2344 24.2654ZM49.5313 47.8357C49.5313 50.3513 47.5078 52.3748 44.9922 52.3748H30.0078C27.4922 52.3748 25.4688 50.3513 25.4688 47.8357V37.6092C25.4688 34.9295 27.6563 32.6873 30.3906 32.6873H44.5547C47.2891 32.6873 49.5313 34.8201 49.5313 37.4998V47.8357Z" fill="#FED11B"/>
<path d="M37.5 39.4141C36.9531 39.4141 36.5156 39.8516 36.5156 40.3984V41.8203V43.2422V46.1406C36.5156 46.6875 36.9531 47.125 37.5 47.125C38.0469 47.125 38.4844 46.6875 38.4844 46.1406V43.2422V41.8203V40.3984C38.4844 39.8516 38.0469 39.4141 37.5 39.4141Z" fill="#FED11B"/>
</svg>
