<svg width="26" height="26" viewBox="0 0 26 26" fill="none" xmlns="http://www.w3.org/2000/svg">
<path d="M13 22.75C18.3848 22.75 22.75 18.3848 22.75 13C22.75 7.61522 18.3848 3.25 13 3.25C7.61522 3.25 3.25 7.61522 3.25 13C3.25 18.3848 7.61522 22.75 13 22.75Z" stroke="black" stroke-width="2" stroke-linecap="round" stroke-linejoin="round"/>
<path d="M7.21094 20.8508C8.65842 18.4553 10.6997 16.4741 13.1373 15.0987C15.5749 13.7233 18.3262 13.0005 21.125 13C21.6734 13 22.2117 13.0305 22.75 13.0813" stroke="black" stroke-width="2" stroke-linecap="round" stroke-linejoin="round"/>
<path d="M19.0932 5.39258C17.5703 7.26276 15.6499 8.77006 13.4714 9.80484C11.2929 10.8396 8.91117 11.3759 6.49941 11.3746C5.47385 11.3734 4.45056 11.2783 3.44238 11.0902" stroke="black" stroke-width="2" stroke-linecap="round" stroke-linejoin="round"/>
<path d="M8.72363 4.23633C11.7467 6.01836 14.1139 8.72836 15.4734 11.9635C16.833 15.1986 17.1123 18.7861 16.2697 22.1926" stroke="black" stroke-width="2" stroke-linecap="round" stroke-linejoin="round"/>
</svg>
