<svg width="303" height="62" viewBox="0 0 303 62" fill="none" xmlns="http://www.w3.org/2000/svg">
<g filter="url(#filter0_d_847_5440)">
<path d="M185.948 50.1135V19.8631H174.053V14.2232H204.508V19.8631H192.613V50.1135H185.948ZM231.83 36.5777C231.83 37.0905 231.778 37.8595 231.727 38.4748H210.244C211.013 42.474 214.346 45.0376 219.114 45.0376C222.191 45.0376 224.6 44.0634 226.549 42.0638L229.984 46.0118C227.523 48.9343 223.678 50.4724 218.961 50.4724C209.783 50.4724 203.835 44.5762 203.835 36.4239C203.835 28.2717 209.834 22.4267 217.986 22.4267C225.985 22.4267 231.83 28.0153 231.83 36.5777ZM217.986 27.5539C213.833 27.5539 210.808 30.22 210.193 34.2192H225.728C225.216 30.2713 222.191 27.5539 217.986 27.5539ZM250.548 50.4724C241.883 50.4724 235.73 44.6274 235.73 36.4239C235.73 28.2204 241.883 22.4267 250.548 22.4267C255.88 22.4267 260.135 24.6314 262.238 28.7844L257.316 31.6556C255.675 29.0408 253.214 27.8615 250.496 27.8615C245.779 27.8615 242.19 31.1429 242.19 36.4239C242.19 41.7562 245.779 44.9863 250.496 44.9863C253.214 44.9863 255.675 43.8071 257.316 41.1922L262.238 44.0634C260.135 48.1652 255.88 50.4724 250.548 50.4724ZM283.063 22.4267C289.626 22.4267 294.496 26.1695 294.496 34.4243V50.1135H288.087V35.2447C288.087 30.3738 285.678 28.0153 281.576 28.0153C277.013 28.0153 273.936 30.784 273.936 36.2701V50.1135H267.527V12.0698H273.936V25.9132C276.039 23.6572 279.269 22.4267 283.063 22.4267Z" fill="#141213"/>
</g>
<g filter="url(#filter1_i_847_5440)">
<path d="M119.807 31.5651V22.5217L102.506 35.8208L119.807 49.6519V43.0023L112.667 37.4167L119.807 31.5651Z" fill="url(#paint0_linear_847_5440)"/>
</g>
<g filter="url(#filter2_i_847_5440)">
<path d="M121.949 40.6058V49.6492L139.25 36.3501L121.949 22.519V29.1686L129.089 34.7542L121.949 40.6058Z" fill="url(#paint1_linear_847_5440)"/>
</g>
<g filter="url(#filter3_d_847_5440)">
<path d="M150.269 26.7335C152.114 23.8623 155.447 22.4267 160.01 22.4267V28.5281C159.446 28.4255 158.985 28.3742 158.523 28.3742C153.652 28.3742 150.576 31.2455 150.576 36.8341V50.1135H144.167V22.7343H150.269V26.7335Z" fill="#141213"/>
</g>
<g filter="url(#filter4_d_847_5440)">
<path d="M11.4849 44.5249H31.7373V50.1135H4.81956V14.2232H31.0195V19.8118H11.4849V29.1433H28.8148V34.6294H11.4849V44.5249ZM50.8637 50.4724C42.1988 50.4724 36.0461 44.6274 36.0461 36.4239C36.0461 28.2204 42.1988 22.4267 50.8637 22.4267C56.196 22.4267 60.4516 24.6314 62.5537 28.7844L57.6316 31.6556C55.9909 29.0408 53.5299 27.8615 50.8125 27.8615C46.0954 27.8615 42.5064 31.1429 42.5064 36.4239C42.5064 41.7562 46.0954 44.9863 50.8125 44.9863C53.5299 44.9863 55.9909 43.8071 57.6316 41.1922L62.5537 44.0634C60.4516 48.1652 56.196 50.4724 50.8637 50.4724ZM83.3789 22.4267C89.9417 22.4267 94.8126 26.1695 94.8126 34.4243V50.1135H88.4036V35.2447C88.4036 30.3738 85.9938 28.0153 81.892 28.0153C77.3288 28.0153 74.2525 30.784 74.2525 36.2701V50.1135H67.8435V12.0698H74.2525V25.9132C76.3547 23.6572 79.5848 22.4267 83.3789 22.4267Z" fill="#141213"/>
</g>
<defs>
<filter id="filter0_d_847_5440" x="171.044" y="11.0668" width="126.462" height="44.4208" filterUnits="userSpaceOnUse" color-interpolation-filters="sRGB">
<feFlood flood-opacity="0" result="BackgroundImageFix"/>
<feColorMatrix in="SourceAlpha" type="matrix" values="0 0 0 0 0 0 0 0 0 0 0 0 0 0 0 0 0 0 127 0" result="hardAlpha"/>
<feOffset dy="2.00607"/>
<feGaussianBlur stdDeviation="1.50455"/>
<feComposite in2="hardAlpha" operator="out"/>
<feColorMatrix type="matrix" values="0 0 0 0 0.160784 0 0 0 0 0.219608 0 0 0 0 0.564706 0 0 0 0.12 0"/>
<feBlend mode="normal" in2="BackgroundImageFix" result="effect1_dropShadow_847_5440"/>
<feBlend mode="normal" in="SourceGraphic" in2="effect1_dropShadow_847_5440" result="shape"/>
</filter>
<filter id="filter1_i_847_5440" x="102.506" y="22.5217" width="17.3008" height="29.2637" filterUnits="userSpaceOnUse" color-interpolation-filters="sRGB">
<feFlood flood-opacity="0" result="BackgroundImageFix"/>
<feBlend mode="normal" in="SourceGraphic" in2="BackgroundImageFix" result="shape"/>
<feColorMatrix in="SourceAlpha" type="matrix" values="0 0 0 0 0 0 0 0 0 0 0 0 0 0 0 0 0 0 127 0" result="hardAlpha"/>
<feOffset dy="2.1336"/>
<feGaussianBlur stdDeviation="1.0668"/>
<feComposite in2="hardAlpha" operator="arithmetic" k2="-1" k3="1"/>
<feColorMatrix type="matrix" values="0 0 0 0 0 0 0 0 0 0 0 0 0 0 0 0 0 0 0.1 0"/>
<feBlend mode="difference" in2="shape" result="effect1_innerShadow_847_5440"/>
</filter>
<filter id="filter2_i_847_5440" x="121.949" y="22.519" width="17.3008" height="29.2637" filterUnits="userSpaceOnUse" color-interpolation-filters="sRGB">
<feFlood flood-opacity="0" result="BackgroundImageFix"/>
<feBlend mode="normal" in="SourceGraphic" in2="BackgroundImageFix" result="shape"/>
<feColorMatrix in="SourceAlpha" type="matrix" values="0 0 0 0 0 0 0 0 0 0 0 0 0 0 0 0 0 0 127 0" result="hardAlpha"/>
<feOffset dy="2.1336"/>
<feGaussianBlur stdDeviation="1.0668"/>
<feComposite in2="hardAlpha" operator="arithmetic" k2="-1" k3="1"/>
<feColorMatrix type="matrix" values="0 0 0 0 0 0 0 0 0 0 0 0 0 0 0 0 0 0 0.1 0"/>
<feBlend mode="difference" in2="shape" result="effect1_innerShadow_847_5440"/>
</filter>
<filter id="filter3_d_847_5440" x="141.159" y="21.4237" width="21.86" height="33.705" filterUnits="userSpaceOnUse" color-interpolation-filters="sRGB">
<feFlood flood-opacity="0" result="BackgroundImageFix"/>
<feColorMatrix in="SourceAlpha" type="matrix" values="0 0 0 0 0 0 0 0 0 0 0 0 0 0 0 0 0 0 127 0" result="hardAlpha"/>
<feOffset dy="2.00607"/>
<feGaussianBlur stdDeviation="1.50455"/>
<feComposite in2="hardAlpha" operator="out"/>
<feColorMatrix type="matrix" values="0 0 0 0 0.160784 0 0 0 0 0.219608 0 0 0 0 0.564706 0 0 0 0.12 0"/>
<feBlend mode="normal" in2="BackgroundImageFix" result="effect1_dropShadow_847_5440"/>
<feBlend mode="normal" in="SourceGraphic" in2="effect1_dropShadow_847_5440" result="shape"/>
</filter>
<filter id="filter4_d_847_5440" x="1.81122" y="11.0668" width="96.0104" height="44.4208" filterUnits="userSpaceOnUse" color-interpolation-filters="sRGB">
<feFlood flood-opacity="0" result="BackgroundImageFix"/>
<feColorMatrix in="SourceAlpha" type="matrix" values="0 0 0 0 0 0 0 0 0 0 0 0 0 0 0 0 0 0 127 0" result="hardAlpha"/>
<feOffset dy="2.00607"/>
<feGaussianBlur stdDeviation="1.50455"/>
<feComposite in2="hardAlpha" operator="out"/>
<feColorMatrix type="matrix" values="0 0 0 0 0.160784 0 0 0 0 0.219608 0 0 0 0 0.564706 0 0 0 0.12 0"/>
<feBlend mode="normal" in2="BackgroundImageFix" result="effect1_dropShadow_847_5440"/>
<feBlend mode="normal" in="SourceGraphic" in2="effect1_dropShadow_847_5440" result="shape"/>
</filter>
<linearGradient id="paint0_linear_847_5440" x1="102.506" y1="36.0868" x2="119.807" y2="36.0868" gradientUnits="userSpaceOnUse">
<stop stop-color="#F83600"/>
<stop offset="1" stop-color="#F9D423"/>
</linearGradient>
<linearGradient id="paint1_linear_847_5440" x1="139.25" y1="36.0841" x2="121.949" y2="36.0841" gradientUnits="userSpaceOnUse">
<stop stop-color="#F83600"/>
<stop offset="1" stop-color="#F9D423"/>
</linearGradient>
</defs>
</svg>
