<svg width="87" height="86" viewBox="0 0 87 86" fill="none" xmlns="http://www.w3.org/2000/svg">
<rect x="0.787109" y="0.0478516" width="85.7143" height="85.7143" rx="42.8571" fill="white"/>
<g clip-path="url(#clip0_843_5073)">
<path d="M50.7871 40.5236H57.93L54.3585 35.7617L50.7871 40.5236ZM50.7871 45.2855H57.93L54.3585 50.0474L50.7871 45.2855Z" fill="#F46953"/>
<path d="M30.5499 28.6191H37.6927V57.1906H30.5499C30.2341 57.1906 29.9313 57.0651 29.7081 56.8419C29.4848 56.6186 29.3594 56.3158 29.3594 56.0001V29.8096C29.3594 29.4939 29.4848 29.1911 29.7081 28.9678C29.9313 28.7446 30.2341 28.6191 30.5499 28.6191Z" fill="#FED11B"/>
<path d="M40.0723 28.6191H47.2151C47.5309 28.6191 47.8337 28.7446 48.0569 28.9678C48.2802 29.1911 48.4056 29.4939 48.4056 29.8096V56.0001C48.4056 56.3158 48.2802 56.6186 48.0569 56.8419C47.8337 57.0651 47.5309 57.1906 47.2151 57.1906H40.0723V28.6191Z" fill="#FED11B"/>
</g>
<defs>
<clipPath id="clip0_843_5073">
<rect width="28.5714" height="28.5714" fill="white" transform="translate(29.3594 28.6191)"/>
</clipPath>
</defs>
</svg>
