<svg width="31" height="46" viewBox="0 0 31 46" fill="none" xmlns="http://www.w3.org/2000/svg">
<g clip-path="url(#clip0_1947_193)">
<path d="M15.5 23.0007C15.5 18.8097 18.9344 15.4121 23.1711 15.4121C27.4077 15.4121 30.8422 18.8097 30.8422 23.0007C30.8422 27.1918 27.4077 30.5893 23.1711 30.5893C18.9344 30.5893 15.5 27.1918 15.5 23.0007Z" fill="#1ABCFE"/>
<path d="M0.158203 38.1765C0.158203 33.9855 3.59267 30.5879 7.8293 30.5879H15.5004V38.1765C15.5004 42.3676 12.066 45.7651 7.8293 45.7651C3.59267 45.7651 0.158203 42.3676 0.158203 38.1765Z" fill="#0ACF83"/>
<path d="M15.5 0.234375V15.4116H23.1711C27.4078 15.4116 30.8422 12.0141 30.8422 7.82298C30.8422 3.63192 27.4078 0.234375 23.1711 0.234375H15.5Z" fill="#FF7262"/>
<path d="M0.158203 7.82299C0.158203 12.0141 3.59267 15.4116 7.8293 15.4116H15.5004V0.234375H7.8293C3.59267 0.234375 0.158203 3.63191 0.158203 7.82299Z" fill="#F24E1E"/>
<path d="M0.158203 23.0007C0.158203 27.1918 3.59267 30.5893 7.8293 30.5893H15.5004V15.4121H7.8293C3.59267 15.4121 0.158203 18.8097 0.158203 23.0007Z" fill="#A259FF"/>
</g>
<defs>
<clipPath id="clip0_1947_193">
<rect width="31" height="46" fill="white"/>
</clipPath>
</defs>
</svg>
