<svg width="72" height="72" viewBox="0 0 72 72" fill="none" xmlns="http://www.w3.org/2000/svg">
<path d="M45.5625 45.5625C50.8437 45.5625 55.125 41.2812 55.125 36C55.125 30.7188 50.8437 26.4375 45.5625 26.4375C40.2813 26.4375 36 30.7188 36 36C36 41.2812 40.2813 45.5625 45.5625 45.5625Z" stroke="black" stroke-width="2" stroke-linecap="round" stroke-linejoin="round"/>
<path d="M36 26.4375V7.3125H26.4375C23.9014 7.3125 21.4691 8.31997 19.6758 10.1133C17.8825 11.9066 16.875 14.3389 16.875 16.875C16.875 19.4111 17.8825 21.8434 19.6758 23.6367C21.4691 25.43 23.9014 26.4375 26.4375 26.4375H36Z" stroke="black" stroke-width="2" stroke-linecap="round" stroke-linejoin="round"/>
<path d="M36 45.5625V26.4375H26.4375C23.9014 26.4375 21.4691 27.445 19.6758 29.2383C17.8825 31.0316 16.875 33.4639 16.875 36C16.875 38.5361 17.8825 40.9684 19.6758 42.7617C21.4691 44.555 23.9014 45.5625 26.4375 45.5625H36Z" stroke="black" stroke-width="2" stroke-linecap="round" stroke-linejoin="round"/>
<path d="M36 26.4375V7.3125H45.5625C48.0986 7.3125 50.5309 8.31997 52.3242 10.1133C54.1175 11.9066 55.125 14.3389 55.125 16.875C55.125 19.4111 54.1175 21.8434 52.3242 23.6367C50.5309 25.43 48.0986 26.4375 45.5625 26.4375H36Z" stroke="black" stroke-width="2" stroke-linecap="round" stroke-linejoin="round"/>
<path d="M36 45.5625V55.125C36 57.0163 35.4392 58.8651 34.3884 60.4376C33.3377 62.0102 31.8442 63.2358 30.0969 63.9596C28.3496 64.6834 26.4269 64.8727 24.572 64.5038C22.717 64.1348 21.0131 63.224 19.6758 61.8867C18.3385 60.5494 17.4277 58.8455 17.0587 56.9906C16.6898 55.1356 16.8791 53.2129 17.6029 51.4656C18.3267 49.7183 19.5523 48.2248 21.1249 47.1741C22.6974 46.1233 24.5462 45.5625 26.4375 45.5625H36Z" stroke="black" stroke-width="2" stroke-linecap="round" stroke-linejoin="round"/>
</svg>
