<svg width="24" height="24" viewBox="0 0 24 24" fill="none" xmlns="http://www.w3.org/2000/svg">
<rect opacity="0.01" x="24" width="24" height="24" transform="rotate(90 24 0)" fill="#1E1E1E"/>
<path d="M17.56 21.0002C17.4001 21.0008 17.2424 20.9631 17.1 20.8902L12 18.2202L6.90003 20.8902C6.56217 21.0679 6.15263 21.0377 5.84446 20.8124C5.53629 20.5871 5.38327 20.206 5.45003 19.8302L6.45003 14.2002L2.33003 10.2002C2.06809 9.93881 1.97192 9.55412 2.08003 9.2002C2.19828 8.83763 2.51246 8.57387 2.89003 8.5202L8.59003 7.6902L11.1 2.5602C11.2671 2.21521 11.6167 1.99609 12 1.99609C12.3834 1.99609 12.7329 2.21521 12.9 2.5602L15.44 7.6802L21.14 8.5102C21.5176 8.56387 21.8318 8.82763 21.95 9.1902C22.0581 9.54412 21.962 9.9288 21.7 10.1902L17.58 14.1902L18.58 19.8202C18.6529 20.203 18.4968 20.5933 18.18 20.8202C17.999 20.9471 17.7809 21.0104 17.56 21.0002Z" fill="url(#paint0_linear_412_217)"/>
<defs>
<linearGradient id="paint0_linear_412_217" x1="2.03638" y1="11.5006" x2="21.9937" y2="11.5006" gradientUnits="userSpaceOnUse">
<stop stop-color="#F83600"/>
<stop offset="1" stop-color="#F9D423"/>
</linearGradient>
</defs>
</svg>
