<svg width="918" height="552" viewBox="0 0 918 552" fill="none" xmlns="http://www.w3.org/2000/svg">
<g opacity="0.6" clip-path="url(#clip0_2077_178)">
<path opacity="0.8" d="M892.493 0.826141C890.596 -0.27538 887.52 -0.27538 885.623 0.826141C884.201 1.65228 883.849 2.8609 884.568 3.87062L778.194 65.2804V142.8L752.278 157.762V242.075L663.514 293.326L649.684 285.34L718.131 245.823V199.605L717.856 199.452L640.03 154.519V138.838L684.045 113.426C685.942 114.222 688.604 114.13 690.317 113.151C692.215 112.049 692.215 110.275 690.317 109.188C688.42 108.087 685.345 108.087 683.448 109.188C681.735 110.183 681.582 111.713 682.959 112.814L638.944 138.226V155.162L639.219 155.315L717.045 200.247V245.211L665.334 275.074V255.813L689.048 242.121C690.945 242.916 693.607 242.824 695.32 241.845C697.217 240.744 697.217 238.969 695.32 237.883C693.423 236.781 690.348 236.781 688.451 237.883C686.738 238.877 686.585 240.407 687.961 241.509L664.248 255.201V275.717L648.597 284.743L630.101 274.065V240.529L664.982 220.381V197.203L664.707 197.05L591.257 154.641C592.634 153.54 592.481 152.01 590.767 151.016C588.87 149.914 585.795 149.914 583.898 151.016C582.001 152.117 582.001 153.892 583.898 154.978C585.612 155.972 588.274 156.049 590.171 155.253L663.881 197.815V219.738L630.086 239.26V216.143L629.81 215.99L584.877 190.043C586.254 188.942 586.101 187.412 584.388 186.417C582.491 185.316 579.416 185.316 577.519 186.417C575.622 187.519 575.622 189.293 577.519 190.38C579.232 191.374 581.894 191.451 583.791 190.655L628.999 216.755V273.407L616.011 265.91L594.607 278.272L575.224 267.073V239.872L574.948 239.719L523.697 210.131V184.49C524.753 184.428 525.778 184.168 526.589 183.694C528.486 182.592 528.486 180.818 526.589 179.732C524.691 178.63 521.616 178.63 519.719 179.732C517.822 180.833 517.822 182.608 519.719 183.694C520.53 184.168 521.555 184.413 522.611 184.49V210.758L522.886 210.911L574.138 240.499V266.446L490.728 218.285V167.232L535.967 141.117H577.488L577.61 141.041L648.857 99.9172C650.754 100.713 653.417 100.621 655.13 99.6418C657.027 98.5403 657.027 96.7656 655.13 95.6794C653.233 94.5779 650.158 94.5779 648.261 95.6794C646.547 96.6738 646.394 98.2037 647.771 99.3052L577.197 140.046H537.849L668.731 64.4849C670.628 65.2805 673.29 65.1887 675.003 64.2095C676.9 63.108 676.9 61.3333 675.003 60.2471C673.106 59.1456 670.031 59.1456 668.134 60.2471C666.421 61.2415 666.268 62.7714 667.644 63.8729L489.642 166.636V218.943L489.917 219.096L593.537 278.914L572.684 290.955L395.768 188.819V127.868L395.492 127.715L335.322 92.9868C336.698 91.8853 336.545 90.3554 334.832 89.3609C332.935 88.2594 329.86 88.2594 327.963 89.3609C326.066 90.4625 326.066 92.2371 327.963 93.3234C329.676 94.3178 332.338 94.3943 334.235 93.5987L394.666 128.496V189.446L394.941 189.599L571.583 291.582L551.725 303.041L376.766 202.022H272.428L207.224 164.371V106.511C207.912 106.373 208.57 106.159 209.106 105.853C211.003 104.752 211.003 102.977 209.106 101.891C207.208 100.789 204.133 100.789 202.236 101.891C200.339 102.992 200.339 104.767 202.236 105.853C203.307 106.465 204.745 106.725 206.138 106.649V164.999L206.413 165.152L272.152 203.108H376.491L524.187 288.384H494.476L444.066 259.286H405.238L405.115 259.362L351.263 290.45C349.366 289.654 346.704 289.746 344.99 290.725C343.093 291.827 343.093 293.601 344.99 294.688C346.888 295.789 349.963 295.789 351.86 294.688C353.573 293.693 353.726 292.163 352.349 291.062L405.528 260.357H443.776L494.185 289.455H526.068L550.654 303.653L497.658 334.251L482.589 325.545V302.704L444.311 280.597C445.688 279.496 445.535 277.966 443.821 276.971C441.924 275.87 438.849 275.87 436.952 276.971C435.055 278.073 435.055 279.848 436.952 280.934C438.666 281.928 441.328 282.005 443.225 281.209L481.503 303.316V324.903L440.67 301.327H421.332L421.21 301.404L398.154 314.714C396.257 313.918 393.595 314.01 391.882 314.989C389.985 316.091 389.985 317.865 391.882 318.952C393.779 320.053 396.854 320.053 398.751 318.952C400.464 317.957 400.617 316.427 399.24 315.326L421.623 302.414H440.364L496.557 334.847L486.352 340.737L518.924 359.54L503.671 368.352H480.6L464.092 358.821C465.408 357.734 465.225 356.22 463.542 355.241C461.645 354.139 458.57 354.139 456.673 355.241C454.775 356.342 454.775 358.117 456.673 359.203C458.401 360.198 461.109 360.274 463.022 359.448L480.309 369.423H501.789L462.884 391.882L371.366 339.039H305.504L305.382 339.116L268.297 360.519C266.4 359.723 263.738 359.815 262.024 360.794C260.127 361.896 260.127 363.67 262.024 364.757C263.922 365.858 266.997 365.858 268.894 364.757C270.607 363.762 270.76 362.232 269.383 361.131L305.795 340.11H371.06L441.649 380.866H411.434L381.907 363.823C383.284 362.722 383.131 361.192 381.417 360.198C379.52 359.096 376.445 359.096 374.548 360.198C372.651 361.299 372.651 363.074 374.548 364.16C376.261 365.154 378.923 365.231 380.82 364.435L411.143 381.937H443.531L461.782 392.478L415.32 419.297H266.828L151.459 352.686C152.836 351.584 152.683 350.054 150.97 349.06C149.073 347.958 145.998 347.958 144.1 349.06C142.203 350.161 142.203 351.936 144.1 353.022C145.814 354.017 148.476 354.093 150.373 353.298L266.538 420.368H413.438L395.003 431.016H285.08L284.958 431.093L230.753 462.394C228.856 461.599 226.194 461.691 224.481 462.67C222.584 463.771 222.584 465.546 224.481 466.632C226.378 467.734 229.453 467.734 231.35 466.632C233.064 465.638 233.217 464.108 231.84 463.006L285.386 432.102H395.309L395.431 432.026L520.01 360.106L533.84 368.092L402.866 443.714H307.08L306.957 443.791L191.267 510.586H30.9803L0 492.701V493.956L30.6896 511.672H191.558L191.68 511.596L264.289 469.677V494.491L216.434 522.121C214.537 521.326 211.875 521.417 210.161 522.397C208.264 523.498 208.264 525.273 210.161 526.359C212.058 527.461 215.133 527.461 217.03 526.359C218.744 525.365 218.897 523.835 217.52 522.733L265.375 495.103V469.187H265.13L307.386 444.785H403.172L403.295 444.709L534.942 368.704L550.654 377.776L295.223 525.242V551.893H296.309V525.869L551.74 378.403L571.154 389.617L439.4 465.684V479.284L416.039 492.778V524.064L370.739 550.225C368.841 549.43 366.179 549.522 364.466 550.501C363.778 550.898 363.334 551.388 363.15 551.908H372.62C372.483 551.526 372.223 551.174 371.825 550.853L417.125 524.691V493.405L439.4 480.539V530.627L452.542 538.216L428.859 551.893H431.032L453.628 538.843L476.225 551.893H478.397L440.471 530V466.311L572.225 390.245L589.895 400.449L496.649 454.286C494.752 453.49 492.089 453.582 490.376 454.561C488.479 455.663 488.479 457.437 490.376 458.524C492.273 459.625 495.348 459.625 497.245 458.524C498.959 457.529 499.112 455.999 497.735 454.898L590.982 401.061L608.04 410.913L496.496 475.307H466.188C466.005 474.786 465.561 474.281 464.857 473.868C462.96 472.767 459.885 472.767 457.988 473.868C456.091 474.97 456.091 476.745 457.988 477.831C459.885 478.932 462.96 478.932 464.857 477.831C465.561 477.418 466.005 476.913 466.188 476.393H496.786L496.909 476.316L609.111 411.541L615.995 415.518L621.289 412.459L648.016 427.88V449.36L625.94 462.104V462.042H591.288L591.165 462.119L553.147 484.073C551.25 483.277 548.588 483.369 546.875 484.348C544.978 485.45 544.978 487.224 546.875 488.311C548.772 489.412 551.847 489.412 553.744 488.311C555.458 487.316 555.611 485.786 554.234 484.685L591.578 463.129H624.15L559.236 500.596C557.324 499.739 554.586 499.8 552.826 500.81C550.929 501.911 550.929 503.686 552.826 504.772C554.723 505.874 557.798 505.874 559.695 504.772C561.363 503.808 561.562 502.324 560.292 501.223L641.254 454.485V464.811L593.093 492.625V512.253L553.882 534.896C551.985 534.1 549.323 534.192 547.609 535.171C545.712 536.273 545.712 538.047 547.609 539.134C549.506 540.235 552.581 540.235 554.478 539.134C556.192 538.139 556.345 536.609 554.968 535.508L594.179 512.865V493.237L642.34 465.423V453.842L649.087 449.941V427.207L622.36 411.77L639.923 401.627L694.907 433.372V469.462L657.563 491.019C655.65 490.162 652.912 490.223 651.152 491.233C649.255 492.334 649.255 494.109 651.152 495.195C653.049 496.297 656.124 496.297 658.021 495.195C659.689 494.231 659.888 492.747 658.618 491.646L694.892 470.702V499.861L666.237 516.415V551.816H667.323V517.042L694.892 501.116V551.801H695.978V432.714L640.994 400.969L660.714 389.587L732.588 431.077V529.908L767.133 549.858V551.801H768.22V549.231L733.675 529.281V430.45L661.8 388.959L676.411 380.514L773.406 436.509V520.821L827.029 551.786H829.201L774.492 520.194V435.881L677.497 379.887L701.18 366.21L862.568 459.38V501.33L917.874 533.259V532.004L863.654 500.703V458.753L772.886 406.339H844.668L917.874 448.61V447.355L844.959 405.253H770.989L702.266 365.583L729.804 349.687L788.873 383.788H883.726L917.874 403.493V402.239L910.392 397.925H917.874V396.838H908.511L884.032 382.702H789.179L772.641 373.156H812.969L813.091 373.079L833.316 361.406H917.598L917.874 361.559V360.305H835.198L857.963 347.163C859.86 347.958 862.522 347.867 864.236 346.887C866.133 345.786 866.133 344.011 864.236 342.925C862.338 341.824 859.263 341.824 857.366 342.925C855.653 343.919 855.5 345.449 856.877 346.551L812.663 372.085H770.744L730.875 349.075L745.608 340.569L736.122 335.092H763.676L799.689 355.883C798.313 356.985 798.466 358.515 800.179 359.509C802.076 360.611 805.151 360.611 807.048 359.509C808.945 358.408 808.945 356.633 807.048 355.547C805.335 354.552 802.673 354.476 800.776 355.271L763.966 334.021H734.241L714.077 322.379L726.469 315.219H748.453L767.791 304.051H782.218L814.805 322.868C813.336 323.97 813.458 325.546 815.202 326.555C817.1 327.657 820.175 327.657 822.072 326.555C823.969 325.454 823.969 323.679 822.072 322.593C820.389 321.629 817.803 321.522 815.906 322.256L782.509 302.98H767.501L748.163 314.148H728.351L767.99 291.261H789.393L834.005 317.009H917.858V315.922H834.296L789.684 290.174H767.699L767.577 290.251L712.99 321.767L698.671 313.505L760.356 277.889H803.866L839.757 298.604H917.874V297.518H840.063L806.054 277.889H917.874V276.803H760.081L759.958 276.88L697.615 312.878L681.337 303.484L767.348 253.824H917.874V252.738H808.18L917.874 189.401V188.146L806.008 252.738H768.143L849.686 205.663V195.291L888.714 172.771C890.611 173.566 893.273 173.474 894.986 172.495C896.883 171.394 896.883 169.619 894.986 168.533C893.089 167.431 890.014 167.431 888.117 168.533C886.404 169.527 886.251 171.057 887.628 172.159L866.377 184.428V155.988L917.889 126.247V124.992L865.291 155.36V185.056L848.6 194.694V205.067L766.384 252.539L766.659 253.013L680.251 302.903L664.539 293.831L753.303 242.58V158.267L917.874 63.2457V61.9912L779.219 142.05V65.7853L885.394 4.63557C885.47 4.68147 885.532 4.74266 885.608 4.78856C887.505 5.89008 890.58 5.89008 892.477 4.78856C894.374 3.68704 894.374 1.91236 892.477 0.826141H892.493ZM743.512 340.768L616.011 414.386L488.525 340.783L616.026 267.165L743.512 340.768V340.768Z" fill="url(#paint0_linear_2077_178)"/>
<path opacity="0.1" d="M917.935 132.734L895.277 145.814V187.978L693.944 304.219L678.645 295.392L782.494 235.435V224.711L800.898 214.078V189.432L836.606 168.824C838.105 169.451 840.201 169.375 841.548 168.594C843.047 167.738 843.047 166.33 841.548 165.473C840.048 164.617 837.631 164.617 836.132 165.473C834.785 166.254 834.663 167.462 835.749 168.334L800.042 188.957V213.604L782.494 223.732V184.26L782.28 184.138L772.136 178.279L833.011 143.137V103.605L876.261 78.6368C877.76 79.2641 879.856 79.1876 881.202 78.4073C882.702 77.5506 882.702 76.1431 881.202 75.2863C879.703 74.4296 877.286 74.4296 875.786 75.2863C874.44 76.0666 874.318 77.2752 875.404 78.1472L832.154 103.115V142.647L771.28 177.789L672.311 120.648V76.4338C673.137 76.3726 673.948 76.1737 674.59 75.8065C676.09 74.9498 676.09 73.5423 674.59 72.6855C673.091 71.8288 670.674 71.8288 669.175 72.6855C667.675 73.5423 667.675 74.9498 669.175 75.8065C669.817 76.1737 670.628 76.3726 671.454 76.4338V121.137L671.668 121.26L731.196 155.636H687.809L652.728 135.38C653.815 134.524 653.692 133.3 652.346 132.52C650.847 131.663 648.429 131.663 646.93 132.52C645.431 133.376 645.431 134.784 646.93 135.641C648.276 136.421 650.372 136.482 651.872 135.87L687.579 156.493H732.665L781.652 184.765V234.961L677.803 294.918L663.881 286.886L737.377 244.446C738.877 245.074 740.972 244.997 742.319 244.217C743.818 243.36 743.818 241.953 742.319 241.096C740.819 240.239 738.402 240.239 736.903 241.096C735.557 241.876 735.434 243.085 736.521 243.957L663.025 286.396L649.577 278.639L737.484 227.878H761.381C761.519 228.291 761.871 228.689 762.437 229.01C763.936 229.867 766.353 229.867 767.853 229.01C769.352 228.153 769.352 226.746 767.853 225.889C766.353 225.032 763.936 225.032 762.437 225.889C761.886 226.21 761.534 226.608 761.381 227.021H737.255L737.148 227.082L648.705 278.15L643.274 275.014L643.059 275.136L639.097 277.431L618.03 265.268V248.348L635.441 238.296V238.342H662.749L692.812 220.978C694.311 221.605 696.407 221.529 697.753 220.748C699.252 219.892 699.252 218.484 697.753 217.627C696.254 216.771 693.837 216.771 692.337 217.627C690.991 218.408 690.869 219.616 691.955 220.488L662.52 237.485H636.848L688.008 207.943C689.507 208.616 691.679 208.57 693.056 207.775C694.556 206.918 694.556 205.511 693.056 204.654C691.557 203.797 689.14 203.797 687.64 204.654C686.325 205.419 686.172 206.582 687.166 207.454L623.354 244.293V236.154L661.326 214.231V198.749L692.23 180.91C693.729 181.537 695.825 181.461 697.172 180.681C698.671 179.824 698.671 178.416 697.172 177.56C695.672 176.703 693.255 176.703 691.756 177.56C690.41 178.34 690.287 179.548 691.373 180.42L660.47 198.259V213.742L622.498 235.665V244.798L617.174 247.873V265.788L638.24 277.951L624.395 285.937L581.053 260.908V232.467L610.488 215.47C611.987 216.143 614.16 216.098 615.537 215.302C617.036 214.445 617.036 213.038 615.537 212.181C614.037 211.324 611.62 211.324 610.121 212.181C608.805 212.946 608.652 214.109 609.647 214.981L581.053 231.488V208.509L603.649 195.475V152.24C604.476 152.179 605.286 151.98 605.929 151.613C607.428 150.756 607.428 149.348 605.929 148.492C604.43 147.635 602.012 147.635 600.513 148.492C599.014 149.348 599.014 150.756 600.513 151.613C601.156 151.98 601.967 152.179 602.793 152.24V194.97L581.053 207.515V131.296H580.196V261.428L623.538 286.457L607.994 295.422L551.342 262.713V184.827L524.11 169.099V139.802L500.06 125.926C501.147 125.069 501.024 123.845 499.678 123.065C498.179 122.208 495.762 122.208 494.262 123.065C492.763 123.922 492.763 125.329 494.262 126.186C495.609 126.966 497.704 127.027 499.204 126.415L523.254 140.291V169.589L550.486 185.316V263.203L607.138 295.912L595.618 302.567L519.169 258.43V191.971L518.955 191.849L451.288 152.775C452.374 151.919 452.251 150.695 450.905 149.914C449.406 149.058 446.989 149.058 445.489 149.914C443.99 150.771 443.99 152.179 445.489 153.035C446.836 153.816 448.932 153.877 450.431 153.265L518.312 192.461V258.919L518.526 259.042L594.761 303.057L576.096 313.842L448.901 240.407V207.331L448.687 207.209L342.206 145.723C343.293 144.866 343.17 143.642 341.824 142.862C340.325 142.005 337.907 142.005 336.408 142.862C334.909 143.718 334.909 145.126 336.408 145.983C337.754 146.763 339.85 146.824 341.35 146.212L448.06 207.821V240.897L448.274 241.019L519.597 282.204H463.022L397.527 244.385C398.613 243.528 398.491 242.305 397.145 241.524C395.645 240.668 393.228 240.668 391.729 241.524C390.23 242.381 390.23 243.789 391.729 244.645C393.075 245.426 395.171 245.487 396.67 244.875L462.792 283.061H521.081L575.255 314.332L553.561 326.862L507.006 299.981H432.24L347.209 250.887H300.043L280.812 239.78C281.898 238.923 281.776 237.7 280.429 236.919C278.93 236.063 276.513 236.063 275.014 236.919C273.514 237.776 273.514 239.184 275.014 240.04C276.36 240.821 278.456 240.882 279.955 240.27L299.813 251.729H346.98L411.235 288.829H355.731L329.003 273.392C330.09 272.52 329.967 271.311 328.621 270.531C327.122 269.674 324.704 269.674 323.205 270.531C321.706 271.388 321.706 272.795 323.205 273.652C324.551 274.432 326.647 274.493 328.147 273.882L355.501 289.67H412.719L432.011 300.808H506.777L519.811 308.335H488.036L487.928 308.396L471.987 317.606H405.559L386.818 306.789H349.244C349.106 306.376 348.754 305.979 348.204 305.657C346.704 304.801 344.287 304.801 342.788 305.657C341.288 306.514 341.288 307.922 342.788 308.778C344.287 309.635 346.704 309.635 348.204 308.778C348.754 308.457 349.106 308.059 349.259 307.646H386.604L405.345 318.463H470.518L452.573 328.82C451.073 328.193 448.977 328.269 447.631 329.049C446.132 329.906 446.132 331.314 447.631 332.17C449.13 333.027 451.548 333.027 453.047 332.17C454.393 331.39 454.516 330.181 453.429 329.325L488.28 309.207H521.326L552.75 327.351L541.138 334.052L541.781 334.419L548.604 338.366H526.895L498.5 321.981C499.586 321.109 499.464 319.901 498.118 319.12C496.618 318.264 494.201 318.264 492.702 319.12C491.202 319.977 491.202 321.385 492.702 322.241C494.048 323.022 496.144 323.083 497.643 322.471L526.665 339.223H550.103L565.999 348.403L556.223 354.048H538.889L538.782 354.109L523.636 362.845H512.269L486.582 348.02C487.73 347.148 487.638 345.909 486.261 345.113C484.762 344.257 482.344 344.257 480.845 345.113C479.346 345.97 479.346 347.377 480.845 348.234C482.161 348.999 484.211 349.076 485.71 348.494L512.04 363.686H523.866L523.957 363.625L539.103 354.889H554.724L523.483 372.927H506.624L471.467 352.625H365.445L299.675 314.653C300.807 313.781 300.716 312.557 299.339 311.762C297.84 310.905 295.422 310.905 293.923 311.762C292.424 312.618 292.424 314.026 293.923 314.883C295.254 315.648 297.304 315.724 298.803 315.143L365.201 353.482H471.222L506.379 373.783H523.713L523.804 373.722L566.825 348.877L578.116 355.394L529.496 383.468H495.211L466.923 367.128H394.314C394.177 366.715 393.825 366.318 393.259 365.996C391.76 365.14 389.342 365.14 387.843 365.996C386.344 366.853 386.344 368.261 387.843 369.117C389.342 369.974 391.76 369.974 393.259 369.117C393.81 368.796 394.161 368.398 394.299 367.985H466.678L493.482 383.452H391.178L391.086 383.513L293.586 439.798C292.087 439.171 289.991 439.247 288.645 440.028C287.146 440.884 287.146 442.292 288.645 443.149C290.144 444.005 292.561 444.005 294.061 443.149C295.407 442.368 295.529 441.16 294.443 440.303L391.408 384.324H529.725L529.817 384.263L578.957 355.884L591.777 363.288L523.988 402.423H404.626L404.534 402.484L300.012 462.838H178.217L107.184 421.837C108.271 420.981 108.148 419.757 106.802 418.992C105.303 418.135 102.885 418.135 101.386 418.992C99.8869 419.848 99.8869 421.256 101.386 422.113C102.732 422.893 104.828 422.954 106.328 422.342L177.988 463.71H300.241L300.349 463.649L404.871 403.295H491.814L364.145 477.005V496.404L313.215 525.809C311.716 525.181 309.62 525.258 308.273 526.038C306.774 526.895 306.774 528.302 308.273 529.159C309.773 530.016 312.19 530.016 313.689 529.159C315.035 528.379 315.158 527.17 314.072 526.298L365.002 496.894V477.495L493.543 403.28H523.391L459.121 440.395V448.58L428.37 466.342C426.871 465.715 424.775 465.791 423.428 466.571C421.929 467.428 421.929 468.836 423.428 469.692C424.928 470.549 427.345 470.549 428.844 469.692C430.19 468.912 430.313 467.703 429.227 466.831L445.979 457.162V479.575L349.229 535.432C347.729 534.804 345.633 534.881 344.287 535.661C342.788 536.518 342.788 537.925 344.287 538.782C345.786 539.639 348.204 539.639 349.703 538.782C351.049 538.002 351.172 536.793 350.085 535.921L446.836 480.065V456.658L459.993 449.069V440.884L524.799 403.479L524.585 403.111L592.695 363.793L605.072 370.938L535.11 411.327V477.785L406.431 552.077H408.145L514.686 490.575V550.685L512.254 552.092H513.967L515.528 551.19V490.086L535.952 478.29V411.832L605.914 371.443L616.807 377.731L562.863 408.879V445.306L563.077 445.428L624.41 480.845V493.207L589.712 513.233C588.213 512.606 586.117 512.682 584.771 513.462C583.271 514.319 583.271 515.727 584.771 516.583C586.27 517.44 588.687 517.44 590.186 516.583C591.533 515.803 591.655 514.595 590.569 513.723L625.252 493.696V480.356L625.037 480.233L563.704 444.816V409.369L604.46 385.839V401.015L585.765 411.801C584.266 411.174 582.17 411.25 580.823 412.031C579.324 412.887 579.324 414.295 580.823 415.152C582.323 416.008 584.74 416.008 586.239 415.152C587.586 414.371 587.708 413.163 586.622 412.306L605.302 401.52V385.349L617.633 378.235L632.212 386.65V413.086L604.72 428.967V447.249L604.935 447.371L662.826 480.799C661.739 481.656 661.862 482.88 663.208 483.66C664.707 484.517 667.125 484.517 668.624 483.66C670.123 482.803 670.123 481.396 668.624 480.539C667.278 479.759 665.182 479.698 663.682 480.31L605.577 446.759V429.471L632.212 414.096V432.317L667.844 452.894C666.757 453.766 666.88 454.975 668.226 455.74C669.725 456.596 672.143 456.596 673.642 455.74C675.141 454.883 675.141 453.475 673.642 452.619C672.296 451.838 670.2 451.777 668.7 452.389L633.069 431.812V387.155L643.304 393.06L643.518 392.938L660.179 383.315L675.463 392.142V413.576L716.081 437.029V457.239C715.255 457.3 714.444 457.499 713.802 457.866C712.302 458.723 712.302 460.13 713.802 460.987C715.301 461.844 717.718 461.844 719.217 460.987C720.717 460.13 720.717 458.723 719.217 457.866C718.575 457.499 717.764 457.3 716.938 457.239V436.54L676.319 413.086V392.632L742.074 430.588V470.824L706.412 491.417H673.688L673.596 491.478L617.449 523.896C615.95 523.269 613.854 523.346 612.507 524.126C611.008 524.983 611.008 526.39 612.507 527.247C614.007 528.104 616.424 528.104 617.923 527.247C619.27 526.467 619.392 525.258 618.306 524.401L673.933 492.289H704.944L601.798 551.847C600.299 551.22 598.203 551.297 596.857 552.077C596.841 552.077 596.826 552.108 596.811 552.108H603.068L742.961 471.345V430.114L742.747 429.992L661.082 382.84L677.513 373.355L816.947 453.858V501.896L864.572 529.404C863.486 530.261 863.609 531.485 864.955 532.25C866.454 533.106 868.871 533.106 870.371 532.25C871.87 531.393 871.87 529.985 870.371 529.129C869.024 528.348 866.928 528.287 865.429 528.899L817.788 501.392V453.353L817.574 453.231L678.354 372.85L694.005 363.809L831.909 443.424H914.141L917.996 445.658V444.663L914.37 442.567H832.139L715.729 375.359H739.137L778.868 398.292H809.466L809.573 398.231L852.012 373.722C853.511 374.349 855.607 374.273 856.954 373.493C858.453 372.636 858.453 371.228 856.954 370.372C855.454 369.515 853.037 369.515 851.538 370.372C850.191 371.152 850.069 372.361 851.155 373.233L809.236 397.436H779.097L739.366 374.502H714.245L694.862 363.319L736.628 339.208L748.5 346.062V364.069L778.669 381.494C777.583 382.351 777.705 383.575 779.051 384.34C780.551 385.196 782.968 385.196 784.467 384.34C785.967 383.483 785.967 382.075 784.467 381.219C783.121 380.438 781.025 380.377 779.526 380.989L749.356 363.564V346.551L781.53 365.124H796.768L796.859 365.063L815.034 354.568C816.534 355.195 818.63 355.119 819.976 354.338C821.475 353.482 821.475 352.074 819.976 351.218C818.477 350.361 816.06 350.361 814.56 351.218C813.214 351.998 813.092 353.206 814.178 354.078L796.538 364.267H781.759L737.469 338.703L745.516 334.052L744.874 333.685L719.845 319.227L731.87 312.282H750.045L763.049 319.794C762.008 320.65 762.146 321.844 763.477 322.609C764.976 323.465 767.394 323.465 768.893 322.609C770.392 321.752 770.392 320.344 768.893 319.488C767.531 318.692 765.39 318.646 763.89 319.289L750.259 311.425H733.338L763.997 293.724L836.132 335.368H888.041L888.148 335.307L917.369 318.432C917.553 318.508 917.767 318.539 917.981 318.6V314.653C917.598 314.76 917.231 314.898 916.91 315.081C915.564 315.862 915.441 317.07 916.528 317.927L887.827 334.496H836.376L780.75 302.368H804.555L827.824 315.801C826.738 316.657 826.861 317.881 828.207 318.661C829.706 319.518 832.123 319.518 833.623 318.661C835.122 317.805 835.122 316.397 833.623 315.54C832.276 314.76 830.18 314.699 828.681 315.311L804.769 301.511H779.25L764.854 293.204L801.48 272.061H917.966V271.204H802.964L817.498 262.82H904.135L904.227 262.759L917.966 254.834V253.84L903.906 261.964H817.268L817.161 262.025L718.973 318.707L708.08 312.419L811.302 252.815H886.802L886.894 252.754L917.966 234.808V233.814L886.557 251.943H811.057L810.965 252.004L707.208 311.915L694.831 304.77L896.165 188.529V146.365L917.966 133.774V132.78L917.935 132.734ZM743.757 333.96L643.258 391.974L542.775 333.96L643.274 275.947L743.757 333.96Z" fill="url(#paint1_linear_2077_178)"/>
</g>
<defs>
<linearGradient id="paint0_linear_2077_178" x1="0" y1="275.954" x2="917.889" y2="275.954" gradientUnits="userSpaceOnUse">
<stop stop-color="#6A11CB"/>
<stop offset="1" stop-color="#2575FC"/>
</linearGradient>
<linearGradient id="paint1_linear_2077_178" x1="100.262" y1="312.075" x2="917.996" y2="312.075" gradientUnits="userSpaceOnUse">
<stop stop-color="#6A11CB"/>
<stop offset="1" stop-color="#2575FC"/>
</linearGradient>
<clipPath id="clip0_2077_178">
<rect width="917.935" height="552" fill="white"/>
</clipPath>
</defs>
</svg>
