<svg width="92" height="92" viewBox="0 0 92 92" fill="none" xmlns="http://www.w3.org/2000/svg">
<path d="M12.0424 58.8677L15.0252 26.6273C15.2065 24.6901 16.1224 22.8958 17.5849 21.6126C19.0475 20.3294 20.9457 19.6547 22.89 19.727C24.8343 19.7993 26.6772 20.6131 28.0404 22.0013C29.4036 23.3895 30.1838 25.2469 30.2207 27.1922L30.4565 31.6642C35.7464 23.0444 46.5203 5.53807 46.6489 5.32891C47.1769 4.45517 47.8751 3.69638 48.7019 3.09758C49.5287 2.49877 50.4674 2.07216 51.4623 1.84304C52.4326 1.61417 53.4389 1.58244 54.4216 1.74973C55.4044 1.91702 56.3436 2.27992 57.1834 2.81693C58.6506 3.75316 59.7553 5.16103 60.3157 6.80879L62.2239 3.68516C62.7519 2.81149 63.4499 2.05275 64.2766 1.45395C65.1033 0.85515 66.0419 0.428492 67.0366 0.199286C68.0072 -0.029884 69.0139 -0.0617681 69.9971 0.105526C70.9802 0.27282 71.9198 0.635883 72.7599 1.17318C74.474 2.29023 75.6848 4.03177 76.135 6.02758C76.5852 8.0234 76.2392 10.1161 75.1706 11.8608L74.0831 13.6404C75.8131 13.4195 77.5657 13.813 79.0352 14.7523C80.7493 15.8693 81.9601 17.6109 82.4103 19.6067C82.8605 21.6025 82.5145 23.6952 81.4459 25.4399L77.7264 31.5276C79.4565 31.3044 81.2099 31.6981 82.6785 32.6395C84.3928 33.7563 85.604 35.4978 86.0544 37.4936C86.5048 39.4894 86.1591 41.5822 85.0906 43.3271L65.0637 76.1267C59.5208 85.1972 49.2055 92 38.3468 92C34.0731 91.9998 29.8674 90.9291 26.1139 88.8857C26.0837 88.8692 26.0535 88.8519 26.024 88.8332L23.6982 87.3541C17.9303 83.6849 14.5084 79.5342 12.6052 73.8979C11.2116 69.7745 11.3977 66.0162 11.7327 62.2098C11.8908 60.3993 12.0417 58.8677 12.0417 58.8677H12.0424ZM15.3285 72.9779C17.0082 77.9494 20.065 81.6344 25.2413 84.9276L27.5219 86.378C40.6848 93.4296 55.6942 85.9482 62.6106 74.6267L82.6361 41.8285C83.3153 40.7277 83.5385 39.4054 83.2582 38.1427C82.978 36.8799 82.2164 35.7761 81.1354 35.0659C80.0591 34.4137 78.7687 34.2131 77.5453 34.5079C76.3218 34.8027 75.2645 35.5691 74.6035 36.64L61.8653 57.4906C61.6622 57.811 61.3424 58.04 60.9736 58.1291C60.6048 58.2181 60.2157 58.1603 59.8888 57.9678C59.7277 57.8693 59.5876 57.7401 59.4764 57.5874C59.3653 57.4348 59.2853 57.2618 59.2411 57.0782C59.1968 56.8947 59.1892 56.7042 59.2185 56.5177C59.2479 56.3312 59.3137 56.1523 59.4122 55.9913L78.9928 23.9406C79.6722 22.8399 79.8956 21.5176 79.6155 20.2548C79.3354 18.992 78.5739 17.8882 77.4928 17.178C76.4157 16.5241 75.1235 16.3232 73.8987 16.6192C72.6739 16.9153 71.6162 17.6841 70.9566 18.7578L51.3725 50.8135C51.1687 51.1332 50.849 51.3617 50.4805 51.4508C50.112 51.5399 49.7233 51.4828 49.3959 51.2914C49.2348 51.193 49.0947 51.0637 48.9836 50.9111C48.8725 50.7585 48.7925 50.5854 48.7482 50.4019C48.704 50.2183 48.6963 50.0279 48.7257 49.8414C48.7551 49.6549 48.8209 49.476 48.9194 49.3149L72.7168 10.3622C73.3965 9.26147 73.62 7.93903 73.3399 6.67604C73.0598 5.41305 72.2981 4.30912 71.2168 3.59891C70.1387 2.94386 68.8449 2.74299 67.619 3.04034C66.3931 3.33769 65.3351 4.109 64.677 5.18517L40.8803 44.1379C40.677 44.4581 40.3572 44.6868 39.9885 44.7758C39.6198 44.8649 39.2309 44.8072 38.9038 44.6151C38.5785 44.4162 38.3455 44.0963 38.256 43.7256C38.1665 43.355 38.2279 42.964 38.4266 42.6386L57.1418 12.0045C57.8215 10.9039 58.045 9.58141 57.7647 8.31848C57.4845 7.05555 56.7226 5.95178 55.641 5.24195C55.1229 4.91079 54.5435 4.6872 53.9373 4.58447C53.331 4.48174 52.7103 4.50197 52.112 4.64396C51.4888 4.78811 50.901 5.05607 50.3834 5.43191C49.8658 5.80776 49.429 6.28381 49.0991 6.83179C48.9424 7.08695 33.3458 32.4303 30.491 37.1093C30.331 37.3712 30.0914 37.5751 29.8072 37.691C29.5231 37.8069 29.2093 37.8289 28.9117 37.7536C28.6142 37.6783 28.3486 37.5098 28.1537 37.2727C27.9588 37.0356 27.845 36.7423 27.8288 36.4359L27.3487 27.3137C27.3406 26.0952 26.8638 24.9266 26.0172 24.0503C25.1705 23.174 24.019 22.6573 22.8015 22.6074C21.5841 22.5575 20.3941 22.9782 19.4786 23.7822C18.563 24.5862 17.9921 25.7118 17.8843 26.9255C17.8843 26.9255 14.7542 60.6631 14.5961 62.4606C14.2777 66.0838 14.1124 69.3763 15.3285 72.9772V72.9779ZM80.0364 79.1533C83.298 78.0615 86.0415 74.5872 87.5221 71.6985C89.2511 68.3388 89.5891 64.4337 88.4629 60.8269C88.3466 60.4638 88.3793 60.0693 88.5539 59.7303C88.7285 59.3914 89.0305 59.1356 89.3937 59.0193C89.7568 58.903 90.1512 58.9358 90.4902 59.1103C90.8292 59.2849 91.085 59.5869 91.2013 59.9501C92.557 64.282 92.1542 68.9734 90.08 73.011C89.237 74.6569 86.0839 80.1617 80.9485 81.8802C80.7694 81.9401 80.5803 81.9641 80.392 81.9509C80.2037 81.9377 80.0198 81.8876 79.8508 81.8033C79.6819 81.719 79.5312 81.6023 79.4073 81.4598C79.2835 81.3173 79.1889 81.1518 79.129 80.9728C79.0691 80.7937 79.0451 80.6046 79.0583 80.4163C79.0715 80.228 79.1216 80.0441 79.2059 79.8751C79.2901 79.7062 79.4069 79.5554 79.5494 79.4316C79.6919 79.3077 79.8574 79.2132 80.0364 79.1533ZM76.4427 71.9645C78.1318 71.3996 79.5764 69.551 80.367 68.0078C81.2811 66.2334 81.4605 64.1707 80.8666 62.2651C80.8075 62.085 80.7847 61.895 80.7994 61.706C80.8141 61.517 80.866 61.3328 80.9522 61.1639C81.0384 60.9951 81.1571 60.845 81.3015 60.7222C81.4459 60.5994 81.6132 60.5064 81.7937 60.4486C81.9742 60.3907 82.1644 60.3691 82.3533 60.385C82.5422 60.401 82.7261 60.4541 82.8943 60.5414C83.0626 60.6286 83.212 60.7483 83.3338 60.8935C83.4556 61.0388 83.5475 61.2067 83.6042 61.3875C84.4286 64.018 84.1849 66.8673 82.9257 69.3195C82.4169 70.3128 80.5108 73.6355 77.3548 74.6914C76.993 74.8078 76.6 74.778 76.2599 74.6083C75.9198 74.4387 75.6596 74.1427 75.535 73.7836C75.4143 73.422 75.4421 73.0273 75.6123 72.6861C75.7825 72.345 76.0812 72.0855 76.4427 71.9645ZM2.95041 14.845C3.97102 13.3241 7.70629 8.28077 12.9135 7.22135C13.2872 7.14539 13.6757 7.22095 13.9936 7.43143C14.3115 7.6419 14.5327 7.97004 14.6087 8.34366C14.6846 8.71727 14.6091 9.10577 14.3986 9.42367C14.1881 9.74157 13.86 9.96284 13.4864 10.0388C10.2018 10.7072 7.1234 13.7877 5.33733 16.4478C3.24641 19.5627 2.44323 23.3663 3.09631 27.0607C3.13048 27.2464 3.12772 27.437 3.08819 27.6216C3.04867 27.8063 2.97314 27.9813 2.86595 28.1368C2.75877 28.2922 2.62199 28.425 2.46346 28.5276C2.30493 28.6302 2.12774 28.7005 1.94202 28.7346C1.85598 28.7506 1.76863 28.7585 1.68111 28.7583C1.34515 28.7579 1.01992 28.6399 0.761917 28.4247C0.503914 28.2095 0.329437 27.9108 0.268799 27.5803C-0.517975 23.1481 0.443169 18.5835 2.95041 14.845ZM15.5211 14.7573C15.8948 14.6814 16.2834 14.7571 16.6013 14.9677C16.9192 15.1784 17.1404 15.5066 17.2163 15.8803C17.2921 16.254 17.2164 16.6426 17.0058 16.9605C16.7952 17.2784 16.4669 17.4996 16.0932 17.5755C14.3992 17.9205 12.7777 19.5592 11.8254 20.9773C10.7198 22.6233 10.2948 24.6336 10.6395 26.5863C10.6736 26.7719 10.6709 26.9625 10.6314 27.1471C10.5919 27.3317 10.5165 27.5067 10.4094 27.6622C10.3022 27.8176 10.1656 27.9504 10.0071 28.053C9.84866 28.1557 9.67155 28.2261 9.48589 28.2602C9.30023 28.2944 9.10966 28.2917 8.92506 28.2522C8.74046 28.2127 8.56544 28.1372 8.41 28.0301C8.25456 27.923 8.12174 27.7863 8.01913 27.6279C7.91651 27.4694 7.84612 27.2923 7.81194 27.1067C7.33351 24.4158 7.91678 21.6443 9.43916 19.3745C10.0551 18.4566 12.3148 15.4092 15.5204 14.7573H15.5211Z" fill="black"/>
</svg>
