<svg width="32" height="32" viewBox="0 0 32 32" fill="none" xmlns="http://www.w3.org/2000/svg">
<path fill-rule="evenodd" clip-rule="evenodd" d="M16.7203 16.572V10.6654C17.0291 10.5146 17.2778 10.2637 17.4257 9.95349C17.5735 9.64327 17.612 9.2921 17.5346 8.95726C17.4573 8.62241 17.2687 8.32366 16.9998 8.10974C16.7308 7.89583 16.3973 7.77937 16.0536 7.77937C15.7099 7.77937 15.3764 7.89583 15.1075 8.10974C14.8385 8.32366 14.65 8.62241 14.5726 8.95726C14.4953 9.2921 14.5337 9.64327 14.6816 9.95349C14.8294 10.2637 15.0781 10.5146 15.3869 10.6654V16.5587H9.6936V12.7987C9.99496 12.641 10.2347 12.3867 10.3745 12.0766C10.5142 11.7665 10.5459 11.4185 10.4645 11.0882C10.3831 10.758 10.1933 10.4646 9.9254 10.255C9.65752 10.0453 9.32708 9.93164 8.98694 9.93203C8.64793 9.9346 8.31951 10.0504 8.0539 10.2611C7.78828 10.4717 7.60072 10.7652 7.52102 11.0947C7.44132 11.4242 7.47407 11.7709 7.61406 12.0796C7.75405 12.3884 7.99324 12.6415 8.2936 12.7987V16.572H8.00027C7.25264 16.5691 6.51482 16.4017 5.83919 16.0815C5.16356 15.7614 4.56669 15.2965 4.09095 14.7197C3.61522 14.143 3.27229 13.4686 3.08651 12.7444C2.90073 12.0202 2.87666 11.264 3.016 10.5295C3.15535 9.79492 3.45469 9.10007 3.89277 8.49423C4.33086 7.88839 4.89695 7.38643 5.55085 7.02398C6.20475 6.66153 6.93043 6.44747 7.67636 6.39702C8.42229 6.34656 9.17018 6.46094 9.86694 6.73203C10.4239 5.53632 11.3092 4.52351 12.4197 3.81161C13.5302 3.0997 14.8201 2.71802 16.1391 2.71104C17.4582 2.70405 18.7521 3.07204 19.87 3.77215C20.988 4.47225 21.884 5.47562 22.4536 6.66537C22.983 6.49135 23.5364 6.40137 24.0936 6.3987C25.448 6.3987 26.7469 6.93672 27.7046 7.89441C28.6622 8.85209 29.2003 10.151 29.2003 11.5054C29.2003 12.8597 28.6622 14.1586 27.7046 15.1163C26.7469 16.074 25.448 16.612 24.0936 16.612H23.7603V12.7987C24.0611 12.6407 24.3004 12.3865 24.4398 12.0766C24.5792 11.7667 24.6108 11.419 24.5294 11.089C24.448 10.7591 24.2585 10.4659 23.991 10.2564C23.7234 10.0468 23.3934 9.93296 23.0536 9.93296C22.7138 9.93296 22.3838 10.0468 22.1163 10.2564C21.8487 10.4659 21.6592 10.7591 21.5778 11.089C21.4965 11.419 21.528 11.7667 21.6674 12.0766C21.8068 12.3865 22.0461 12.6407 22.3469 12.7987V16.572H16.7203Z" fill="#4285F4"/>
<path fill-rule="evenodd" clip-rule="evenodd" d="M9.69323 20.517C10.2898 20.6577 10.8197 20.9998 11.1937 21.4855C11.5677 21.9712 11.7629 22.5709 11.7466 23.1836C11.7475 23.6999 11.6035 24.2061 11.3312 24.6447C11.0588 25.0832 10.6688 25.4366 10.2057 25.6646C9.74248 25.8927 9.22462 25.9862 8.71093 25.9347C8.19724 25.8831 7.70831 25.6885 7.29969 25.373C6.89107 25.0574 6.57914 24.6336 6.39934 24.1497C6.21955 23.6657 6.17909 23.141 6.28258 22.6352C6.38606 22.1294 6.62934 21.6628 6.98476 21.2884C7.34019 20.9139 7.79351 20.6467 8.29323 20.517V16.5703H9.62656L9.69323 20.517ZM8.98656 24.517C9.34018 24.517 9.67932 24.3765 9.92937 24.1265C10.1794 23.8764 10.3199 23.5373 10.3199 23.1836C10.3199 22.83 10.1794 22.4909 9.92937 22.2408C9.67932 21.9908 9.34018 21.8503 8.98656 21.8503C8.63294 21.8503 8.2938 21.9908 8.04375 22.2408C7.7937 22.4909 7.65323 22.83 7.65323 23.1836C7.65323 23.5373 7.7937 23.8764 8.04375 24.1265C8.2938 24.3765 8.63294 24.517 8.98656 24.517ZM23.7599 20.517C24.4078 20.6886 24.9712 21.0901 25.3448 21.6467C25.7184 22.2032 25.8767 22.8766 25.7901 23.5413C25.7036 24.206 25.3781 24.8164 24.8745 25.2587C24.3709 25.7011 23.7235 25.945 23.0532 25.945C22.3829 25.945 21.7356 25.7011 21.2319 25.2587C20.7283 24.8164 20.4029 24.206 20.3163 23.5413C20.2298 22.8766 20.3881 22.2032 20.7617 21.6467C21.1353 21.0901 21.6986 20.6886 22.3466 20.517V16.5836H23.7599V20.517ZM23.0532 24.517C23.3729 24.5338 23.6879 24.4351 23.9408 24.2389C24.1937 24.0427 24.3676 23.7621 24.4306 23.4483C24.4937 23.1345 24.4418 22.8084 24.2844 22.5297C24.127 22.2511 23.8745 22.0383 23.5732 21.9303C23.393 21.8657 23.201 21.8407 23.0102 21.857C22.8194 21.8732 22.6344 21.9304 22.4677 22.0246C22.301 22.1187 22.1565 22.2477 22.0441 22.4027C21.9317 22.5576 21.854 22.735 21.8163 22.9227C21.7785 23.1104 21.7817 23.304 21.8255 23.4904C21.8692 23.6768 21.9527 23.8516 22.07 24.0028C22.1874 24.1541 22.3359 24.2783 22.5056 24.367C22.6753 24.4558 22.862 24.5069 23.0532 24.517V24.517ZM16.7199 23.9436C17.3701 24.1063 17.9385 24.5012 18.3178 25.0538C18.6971 25.6065 18.8612 26.2788 18.7793 26.944C18.6973 27.6093 18.3749 28.2216 17.8728 28.6657C17.3707 29.1097 16.7235 29.3548 16.0532 29.3548C15.3829 29.3548 14.7358 29.1097 14.2337 28.6657C13.7315 28.2216 13.4091 27.6093 13.3272 26.944C13.2452 26.2788 13.4093 25.6065 13.7887 25.0538C14.168 24.5012 14.7363 24.1063 15.3866 23.9436V16.6103H16.7999L16.7199 23.9436ZM15.9999 27.9436C16.2855 27.9422 16.5631 27.8491 16.7918 27.6781C17.0205 27.507 17.1882 27.2671 17.2703 26.9935C17.3524 26.72 17.3445 26.4273 17.2477 26.1586C17.1509 25.8899 16.9704 25.6593 16.7328 25.5009C16.4952 25.3425 16.213 25.2646 15.9277 25.2786C15.6425 25.2926 15.3693 25.3979 15.1483 25.5789C14.9274 25.7598 14.7704 26.007 14.7005 26.2839C14.6305 26.5608 14.6514 26.8528 14.7599 27.117C14.8649 27.3576 15.0385 27.5618 15.2591 27.7042C15.4797 27.8465 15.7374 27.9205 15.9999 27.917V27.9436Z" fill="#669DF6"/>
</svg>
