<svg width="32" height="32" viewBox="0 0 32 32" fill="none" xmlns="http://www.w3.org/2000/svg">
<path d="M26.2129 15.2878C26.399 15.479 26.5021 15.736 26.4997 16.0029C26.4974 16.2697 26.3898 16.5249 26.2004 16.7128L15.9504 26.9503C14.6375 28.2631 12.857 29.0007 11.0004 29.0007C9.14375 29.0007 7.36318 28.2631 6.05036 26.9503C4.73754 25.6375 4 23.8569 4 22.0003C4 20.1437 4.73754 18.3631 6.05036 17.0503L18.4629 4.47531C18.9221 3.99108 19.4736 3.60368 20.085 3.33596C20.6963 3.06824 21.355 2.92561 22.0223 2.91648C22.6897 2.90735 23.3521 3.03191 23.9705 3.28281C24.5889 3.53371 25.1508 3.90587 25.6231 4.37736C26.0955 4.84885 26.4686 5.41012 26.7206 6.0281C26.9726 6.64607 27.0983 7.30824 27.0904 7.97557C27.0824 8.6429 26.941 9.30188 26.6743 9.91368C26.4077 10.5255 26.0213 11.0777 25.5379 11.5378L13.1254 24.1128C12.8479 24.3945 12.5171 24.6181 12.1522 24.7705C11.7873 24.9229 11.3958 25.001 11.0004 25.0003C10.4059 25.0018 9.82449 24.8266 9.32979 24.4971C8.83508 24.1675 8.44943 23.6985 8.22176 23.1494C7.99409 22.6003 7.93466 21.9959 8.05103 21.413C8.1674 20.8301 8.45431 20.2949 8.87536 19.8753L19.2879 9.30031C19.378 9.19924 19.4876 9.11753 19.6103 9.06012C19.7329 9.00271 19.8659 8.9708 20.0012 8.96632C20.1366 8.96184 20.2714 8.9849 20.3975 9.03408C20.5237 9.08326 20.6385 9.15755 20.7351 9.25244C20.8317 9.34733 20.908 9.46084 20.9594 9.5861C21.0108 9.71136 21.0362 9.84576 21.0342 9.98114C21.0321 10.1165 21.0025 10.2501 20.9473 10.3737C20.8921 10.4973 20.8123 10.6084 20.7129 10.7003L10.3004 21.2878C10.2056 21.3807 10.1302 21.4916 10.0787 21.6139C10.0272 21.7362 10.0006 21.8676 10.0004 22.0003C10.004 22.197 10.0649 22.3884 10.1757 22.5511C10.2864 22.7138 10.4421 22.8407 10.6237 22.9163C10.8054 22.9918 11.0052 23.0128 11.1986 22.9767C11.392 22.9406 11.5707 22.8489 11.7129 22.7128L24.1129 10.1253C24.3946 9.84786 24.6182 9.51703 24.7706 9.15217C24.9229 8.7873 25.0011 8.39572 25.0004 8.00031C25.0018 7.40589 24.8267 6.82444 24.4971 6.32974C24.1676 5.83503 23.6985 5.44938 23.1494 5.22171C22.6003 4.99404 21.996 4.93462 21.4131 5.05098C20.8301 5.16735 20.2949 5.45426 19.8754 5.87531L7.47536 18.4628C6.99112 18.9221 6.60373 19.4736 6.33601 20.0849C6.06829 20.6963 5.92566 21.355 5.91653 22.0223C5.9074 22.6896 6.03196 23.352 6.28286 23.9704C6.53375 24.5888 6.90592 25.1508 7.37741 25.6231C7.84889 26.0954 8.41017 26.4686 9.02814 26.7206C9.64612 26.9726 10.3083 27.0983 10.9756 27.0903C11.6429 27.0824 12.3019 26.9409 12.9137 26.6743C13.5255 26.4076 14.0778 26.0212 14.5379 25.5378L24.7879 15.2878C24.9775 15.1 25.2335 14.9947 25.5004 14.9947C25.7672 14.9947 26.0233 15.1 26.2129 15.2878V15.2878Z" fill="black"/>
</svg>
