<svg width="26" height="26" viewBox="0 0 26 26" fill="none" xmlns="http://www.w3.org/2000/svg">
<path d="M12.1875 8.9375L8.9375 22.75" stroke="black" stroke-width="2" stroke-linecap="round" stroke-linejoin="round"/>
<path d="M6.24608 15.9034C5.54103 14.8491 5.09259 13.6444 4.93665 12.3857C4.78071 11.127 4.9216 9.84928 5.34805 8.65481C5.77451 7.46034 6.47467 6.38229 7.3925 5.50696C8.31034 4.63163 9.42035 3.98332 10.6337 3.61394C11.847 3.24455 13.13 3.16435 14.3799 3.37975C15.6298 3.59514 16.8119 4.10016 17.8316 4.85437C18.8513 5.60858 19.6802 6.59103 20.2521 7.72309C20.824 8.85515 21.123 10.1054 21.125 11.3737C21.125 15.8628 17.875 18.6862 14.625 18.6862C11.375 18.6862 10.4 16.5432 10.4 16.5432" stroke="black" stroke-width="2" stroke-linecap="round" stroke-linejoin="round"/>
</svg>
