<svg width="555" height="485" viewBox="0 0 555 485" fill="none" xmlns="http://www.w3.org/2000/svg">
<circle cx="270.961" cy="229.961" r="229.961" fill="#6610F2"/>
<g filter="url(#filter0_d_2034_543)">
<rect x="471" y="200" width="59.2981" height="59.2981" rx="7.23148" fill="white"/>
</g>
<rect x="482.57" y="211.57" width="36.1574" height="36.1574" rx="7.23148" fill="#60A78F"/>
<g clip-path="url(#clip0_2034_543)">
<path d="M512.457 237.596H508.596V241.457H512.457V237.596Z" fill="#9AD7FF"/>
<path d="M512.457 228.068H508.596V231.93H512.457V228.068Z" fill="#9AD7FF"/>
<path d="M502.931 237.596H499.069V241.457H502.931V237.596Z" fill="#9AD7FF"/>
<path d="M493.405 237.596H489.543V241.457H493.405V237.596Z" fill="#9AD7FF"/>
<path d="M502.931 218.543H499.069V222.405H502.931V218.543Z" fill="#9AD7FF"/>
<path d="M512.457 218.543H508.596V222.405H512.457V218.543Z" fill="#9AD7FF"/>
<path d="M493.405 228.068H489.543V231.93H493.405V228.068Z" fill="#9AD7FF"/>
<path d="M493.405 218.543H489.543V222.405H493.405V218.543Z" fill="#9AD7FF"/>
<path d="M512.457 222.948C512.757 222.948 513 222.705 513 222.405V218.543C513 218.243 512.757 218 512.457 218H508.595C508.295 218 508.052 218.243 508.052 218.543V219.931H503.474V218.543C503.474 218.243 503.231 218 502.931 218H499.069C498.769 218 498.526 218.243 498.526 218.543V219.931H493.948V218.543C493.948 218.243 493.705 218 493.405 218H489.543C489.243 218 489 218.243 489 218.543V222.405C489 222.705 489.243 222.948 489.543 222.948H490.931V227.526H489.543C489.243 227.526 489 227.769 489 228.069V231.931C489 232.231 489.243 232.474 489.543 232.474H490.931V237.052H489.543C489.243 237.052 489 237.295 489 237.595V241.457C489 241.757 489.243 242 489.543 242H493.405C493.705 242 493.948 241.757 493.948 241.457V240.069H498.526V241.457C498.526 241.757 498.769 242 499.069 242H502.931C503.231 242 503.474 241.757 503.474 241.457V240.069H508.052V241.457C508.052 241.757 508.295 242 508.595 242H512.457C512.757 242 513 241.757 513 241.457V237.595C513 237.295 512.757 237.052 512.457 237.052H511.069V232.474H512.457C512.757 232.474 513 232.231 513 231.931V228.069C513 227.769 512.757 227.526 512.457 227.526H511.069V222.948H512.457V222.948ZM509.138 219.086H511.914V221.862H509.138V219.086ZM499.612 219.086H502.388V220.473C502.388 220.474 502.388 220.474 502.388 220.474C502.388 220.474 502.388 220.474 502.388 220.475V221.862H499.612V219.086ZM490.086 219.086H492.862V221.862H490.086V219.086ZM490.086 228.612H491.473C491.474 228.612 491.474 228.612 491.474 228.612C491.474 228.612 491.474 228.612 491.475 228.612H492.862V231.388H490.086V228.612ZM492.862 240.914H490.086V238.138H492.862V240.914ZM502.388 240.914H499.612V238.138H502.388L502.388 240.914ZM511.914 240.914H509.138V238.138H511.914V240.914ZM511.914 231.388H510.527C510.526 231.388 510.526 231.388 510.526 231.388C510.526 231.388 510.526 231.388 510.525 231.388H509.138V228.612H511.914V231.388H511.914ZM509.983 227.526H508.595C508.295 227.526 508.052 227.769 508.052 228.069V231.931C508.052 232.231 508.295 232.474 508.595 232.474H509.983V237.052H508.595C508.295 237.052 508.052 237.295 508.052 237.595V238.983H503.474V237.595C503.474 237.295 503.231 237.052 502.931 237.052H499.069C498.769 237.052 498.526 237.295 498.526 237.595V238.983H493.948V237.595C493.948 237.295 493.705 237.052 493.405 237.052H492.017V232.474H493.405C493.705 232.474 493.948 232.231 493.948 231.931V228.069C493.948 227.769 493.705 227.526 493.405 227.526H492.017V222.948H493.405C493.705 222.948 493.948 222.705 493.948 222.405V221.017H498.526V222.405C498.526 222.705 498.769 222.948 499.069 222.948H502.931C503.231 222.948 503.474 222.705 503.474 222.405V221.017H508.052V222.405C508.052 222.705 508.295 222.948 508.595 222.948H509.983V227.526Z" fill="white"/>
<path d="M502.575 229.457H501.543V228.426C501.543 228.126 501.3 227.883 501 227.883C500.701 227.883 500.457 228.126 500.457 228.426V229.457H499.426C499.126 229.457 498.883 229.701 498.883 230C498.883 230.3 499.126 230.543 499.426 230.543H500.457V231.575C500.457 231.875 500.701 232.118 501 232.118C501.3 232.118 501.543 231.875 501.543 231.575V230.543H502.575C502.875 230.543 503.118 230.3 503.118 230C503.118 229.701 502.875 229.457 502.575 229.457Z" fill="white"/>
</g>
<g filter="url(#filter1_d_2034_543)">
<rect x="368.586" y="11.5703" width="59.2981" height="59.2981" rx="7.23148" fill="white"/>
</g>
<rect x="380.156" y="23.1406" width="36.1574" height="36.1574" rx="7.23148" fill="#6F75FF"/>
<path d="M402.438 29.1914H389.296C388.915 29.1914 388.438 29.5914 388.438 29.9533V52.0485C388.438 52.4105 388.934 52.8105 389.296 52.8105H406.667C407.029 52.8105 407.296 52.4295 407.296 52.0485V34.1438L402.438 29.1914Z" fill="#F4EFEF"/>
<path d="M402.4 29.2285V29.4952V32.8857C402.4 33.5333 403.124 34.1618 403.772 34.1618H407.219L402.4 29.2285Z" fill="#D8D8D8"/>
<path d="M394.343 35.1328C392.438 35.1328 391.143 36.6757 391.143 38.5614C391.143 40.4471 392.704 41.99 394.59 41.99C396.476 41.99 398.038 40.4661 398.038 38.5614H394.343V35.1328Z" fill="#DF5C4E"/>
<path d="M395.2 34.4102V37.8578H398.724C398.724 35.953 397.105 34.4102 395.2 34.4102Z" fill="#FFC52F"/>
<path d="M399.295 44.0469H397.962V49.3802H399.295V44.0469Z" fill="#33A5D2"/>
<path d="M405.009 45.3809H403.676V49.3809H405.009V45.3809Z" fill="#33A5D2"/>
<path d="M402.153 46.7129H400.819V49.3796H402.153V46.7129Z" fill="#33A5D2"/>
<path d="M394.533 42.2376C392.533 42.2376 390.838 40.5424 390.838 38.5233C390.838 36.4852 392.362 34.9043 394.324 34.9043C394.438 34.9043 394.514 34.9805 394.514 35.0948V38.5233H398.019C398.133 38.5233 398.209 38.5995 398.209 38.7138C398.228 40.6948 396.609 42.2376 394.533 42.2376ZM394.152 35.2852C392.476 35.3805 391.238 36.7329 391.238 38.5233C391.238 40.3329 392.762 41.8567 394.552 41.8567C396.343 41.8567 397.752 40.5805 397.847 38.9043H394.343C394.228 38.9043 394.152 38.8281 394.152 38.7138V35.2852V35.2852Z" fill="white"/>
<path d="M398.819 38.1421H395.105C394.99 38.1421 394.914 38.0659 394.914 37.9516V34.3135C394.914 34.1992 394.99 34.123 395.105 34.123C397.143 34.123 399.009 35.9516 399.009 37.9516C399.009 38.0659 398.914 38.1421 398.819 38.1421ZM395.295 37.7611H398.628C398.514 36.123 396.971 34.6183 395.295 34.523V37.7611Z" fill="white"/>
<path d="M405.01 37.0001H400.819C400.705 37.0001 400.629 36.9239 400.629 36.8096C400.629 36.6953 400.705 36.6191 400.819 36.6191H405.01C405.124 36.6191 405.2 36.6953 405.2 36.8096C405.2 36.9239 405.105 37.0001 405.01 37.0001Z" fill="white"/>
<path d="M405.01 38.9044H400.819C400.705 38.9044 400.629 38.8282 400.629 38.7139C400.629 38.5996 400.705 38.5234 400.819 38.5234H405.01C405.124 38.5234 405.2 38.5996 405.2 38.7139C405.2 38.8282 405.105 38.9044 405.01 38.9044Z" fill="white"/>
<path d="M405.01 40.8087H400.819C400.705 40.8087 400.629 40.7325 400.629 40.6182C400.629 40.5039 400.705 40.4277 400.819 40.4277H405.01C405.124 40.4277 405.2 40.5039 405.2 40.6182C405.2 40.7325 405.105 40.8087 405.01 40.8087Z" fill="white"/>
<path d="M395.105 45.381H390.914C390.8 45.381 390.724 45.3048 390.724 45.1905C390.724 45.0762 390.8 45 390.914 45H395.105C395.219 45 395.295 45.0762 395.295 45.1905C395.295 45.3048 395.2 45.381 395.105 45.381Z" fill="white"/>
<path d="M395.105 47.2852H390.914C390.8 47.2852 390.724 47.2091 390.724 47.0948C390.724 46.9805 390.8 46.9043 390.914 46.9043H395.105C395.219 46.9043 395.295 46.9805 395.295 47.0948C395.295 47.2091 395.2 47.2852 395.105 47.2852Z" fill="white"/>
<path d="M395.105 49.1895H390.914C390.8 49.1895 390.724 49.1134 390.724 48.9991C390.724 48.8848 390.8 48.8086 390.914 48.8086H395.105C395.219 48.8086 395.295 48.8848 395.295 48.9991C395.295 49.1134 395.2 49.1895 395.105 49.1895Z" fill="white"/>
<path d="M399.105 49.7612H397.772C397.657 49.7612 397.581 49.685 397.581 49.5707V44.2374C397.581 44.1231 397.657 44.0469 397.772 44.0469H399.105C399.219 44.0469 399.295 44.1231 399.295 44.2374V49.5707C399.295 49.685 399.2 49.7612 399.105 49.7612ZM397.962 49.3802H398.914V44.4278H397.962V49.3802Z" fill="white"/>
<path d="M404.819 49.7618H403.485C403.371 49.7618 403.295 49.6856 403.295 49.5713V45.5713C403.295 45.457 403.371 45.3809 403.485 45.3809H404.819C404.933 45.3809 405.009 45.457 405.009 45.5713V49.5713C405.009 49.6856 404.914 49.7618 404.819 49.7618ZM403.676 49.3809H404.628V45.7618H403.676V49.3809Z" fill="white"/>
<path d="M401.962 49.7625H400.629C400.515 49.7625 400.438 49.6863 400.438 49.572V46.9053C400.438 46.791 400.515 46.7148 400.629 46.7148H401.962C402.077 46.7148 402.153 46.791 402.153 46.9053V49.572C402.153 49.6863 402.058 49.7625 401.962 49.7625ZM400.819 49.3815H401.772V47.0958H400.819V49.3815Z" fill="white"/>
<path d="M399.105 46.3341H397.962C397.848 46.3341 397.771 46.2579 397.771 46.1436C397.771 46.0293 397.848 45.9531 397.962 45.9531H399.105C399.219 45.9531 399.295 46.0293 399.295 46.1436C399.295 46.2579 399.2 46.3341 399.105 46.3341Z" fill="white"/>
<path d="M401.962 48.8087H400.819C400.705 48.8087 400.629 48.7325 400.629 48.6182C400.629 48.5039 400.705 48.4277 400.819 48.4277H401.962C402.077 48.4277 402.153 48.5039 402.153 48.6182C402.153 48.7325 402.057 48.8087 401.962 48.8087Z" fill="white"/>
<path d="M404.819 48.047H403.676C403.562 48.047 403.485 47.9708 403.485 47.8565C403.485 47.7422 403.562 47.666 403.676 47.666H404.819C404.933 47.666 405.009 47.7422 405.009 47.8565C405.009 47.9708 404.914 48.047 404.819 48.047Z" fill="white"/>
<path d="M406.59 53H389.409C388.895 53 388.495 52.581 388.495 52.0476V29.9524C388.495 29.419 388.895 29 389.409 29H402.362C402.419 29 402.457 29.019 402.495 29.0571L407.505 34.0095C407.543 34.0476 407.562 34.0857 407.562 34.1429V52.0476C407.562 52.581 407.124 53 406.59 53ZM389.409 29.381C389.105 29.381 388.876 29.6286 388.876 29.9524V52.0476C388.876 52.3714 389.105 52.619 389.409 52.619H406.59C406.914 52.619 407.181 52.3524 407.181 52.0476V34.219L402.286 29.381H389.409Z" fill="white"/>
<path d="M405.657 34.3343H403.829C403.029 34.3343 402.229 33.4962 402.229 32.6771V29.3819C402.229 29.2676 402.305 29.1914 402.419 29.1914C402.533 29.1914 402.609 29.2676 402.609 29.3819V32.6771C402.609 33.2866 403.257 33.9533 403.829 33.9533H405.657C405.771 33.9533 405.848 34.0295 405.848 34.1438C405.848 34.2581 405.752 34.3343 405.657 34.3343Z" fill="white"/>
<g filter="url(#filter2_d_2034_543)">
<rect x="380" y="382" width="59.2981" height="59.2981" rx="7.23148" fill="white"/>
</g>
<rect x="391.57" y="393.57" width="36.1574" height="36.1574" rx="7.23148" fill="#D8D8D8"/>
<path d="M419 400H401V424H419V400Z" fill="black"/>
<path d="M418.672 423.673H401.328V400.326H418.672V423.673ZM401.516 423.485H418.484V400.514H401.516V423.485Z" fill="white"/>
<path d="M412.43 410.887H409.999V411.449H412.43V410.887Z" fill="white"/>
<path d="M407.568 410.887H404.327V411.449H407.568V410.887Z" fill="#C1C1C1"/>
<path d="M407.568 407.646H404.327V408.209H407.568V407.646Z" fill="#C1C1C1"/>
<path d="M412.431 407.646H409.189V408.209H412.431V407.646Z" fill="#6B6B6B"/>
<path d="M416.483 407.646H413.241V408.209H416.483V407.646Z" fill="#C1C1C1"/>
<path d="M417.294 409.268H415.674V409.83H417.294V409.268Z" fill="#C1C1C1"/>
<path d="M413.241 409.268H411.62V409.83H413.241V409.268Z" fill="#C1C1C1"/>
<path d="M408.293 409.266H405.246V409.828H408.293V409.266Z" fill="white"/>
<path d="M417.294 406.025H415.674V406.588H417.294V406.025Z" fill="white"/>
<path d="M413.241 406.025H411.62V406.588H413.241V406.025Z" fill="#C1C1C1"/>
<path d="M409.189 406.025H404.327V406.588H409.189V406.025Z" fill="white"/>
<path d="M417.293 402.785H413.241V403.348H417.293V402.785Z" fill="#6B6B6B"/>
<path d="M411.62 402.785H409.999V403.348H411.62V402.785Z" fill="white"/>
<path d="M408.378 402.785H403.517V403.348H408.378V402.785Z" fill="#C1C1C1"/>
<path d="M417.292 404.406H414.051V404.969H417.292V404.406Z" fill="#C1C1C1"/>
<path d="M412.43 404.406H410.81V404.969H412.43V404.406Z" fill="#C1C1C1"/>
<path d="M407.568 404.404H402.707V404.967H407.568V404.404Z" fill="#6B6B6B"/>
<path d="M412.43 420.654H409.999V421.217H412.43V420.654Z" fill="white"/>
<path d="M407.568 420.656H404.327V421.219H407.568V420.656Z" fill="#C1C1C1"/>
<path d="M407.568 417.412H404.327V417.975H407.568V417.412Z" fill="#C1C1C1"/>
<path d="M412.431 417.412H409.189V417.975H412.431V417.412Z" fill="#6B6B6B"/>
<path d="M416.483 417.412H413.241V417.975H416.483V417.412Z" fill="#C1C1C1"/>
<path d="M417.294 419.033H415.674V419.596H417.294V419.033Z" fill="#C1C1C1"/>
<path d="M413.241 419.033H411.62V419.596H413.241V419.033Z" fill="#C1C1C1"/>
<path d="M408.293 419.031H405.246V419.594H408.293V419.031Z" fill="white"/>
<path d="M417.294 415.791H415.674V416.354H417.294V415.791Z" fill="white"/>
<path d="M413.241 415.791H411.62V416.354H413.241V415.791Z" fill="#C1C1C1"/>
<path d="M409.189 415.791H404.327V416.354H409.189V415.791Z" fill="white"/>
<path d="M417.293 412.551H413.241V413.113H417.293V412.551Z" fill="#6B6B6B"/>
<path d="M411.62 412.551H409.999V413.113H411.62V412.551Z" fill="white"/>
<path d="M408.378 412.551H403.517V413.113H408.378V412.551Z" fill="#C1C1C1"/>
<path d="M417.292 414.172H414.051V414.734H417.292V414.172Z" fill="#C1C1C1"/>
<path d="M412.43 414.172H410.81V414.734H412.43V414.172Z" fill="#C1C1C1"/>
<path d="M407.568 414.17H402.707V414.732H407.568V414.17Z" fill="#6B6B6B"/>
<g filter="url(#filter3_d_2034_543)">
<rect x="124" y="393" width="59.2981" height="59.2981" rx="7.23148" fill="white"/>
</g>
<rect x="135.57" y="404.57" width="36.1574" height="36.1574" rx="7.23148" fill="#F9D423"/>
<path d="M153.537 416.793H148.571C148.343 416.793 148.157 416.608 148.157 416.379V411.414C148.157 411.185 148.343 411 148.571 411H153.537C153.765 411 153.95 411.185 153.95 411.414V416.379C153.95 416.608 153.765 416.793 153.537 416.793Z" fill="white"/>
<path d="M153.537 425.897H148.571C148.343 425.897 148.157 425.711 148.157 425.483V420.517C148.157 420.289 148.343 420.104 148.571 420.104H153.537C153.765 420.104 153.95 420.289 153.95 420.517V425.483C153.95 425.711 153.765 425.897 153.537 425.897Z" fill="white"/>
<path d="M153.537 435H148.571C148.343 435 148.157 434.815 148.157 434.586V429.621C148.157 429.392 148.343 429.207 148.571 429.207H153.537C153.765 429.207 153.95 429.392 153.95 429.621V434.586C153.95 434.815 153.765 435 153.537 435Z" fill="white"/>
<path d="M153.122 419.034V427.2C153.122 427.529 153.488 427.726 153.763 427.546L154.883 426.812C155.1 426.67 155.393 426.76 155.492 427L157.517 431.89C157.605 432.101 157.847 432.202 158.058 432.114L159.587 431.481C159.798 431.393 159.899 431.151 159.811 430.94L157.787 426.052C157.687 425.812 157.832 425.54 158.087 425.488L159.401 425.222C159.724 425.157 159.845 424.758 159.611 424.524L153.828 418.741C153.568 418.48 153.122 418.665 153.122 419.034Z" fill="#5B5D6E"/>
<path d="M150.639 415.758C150.481 415.758 150.322 415.697 150.201 415.576L148.959 414.334C148.717 414.092 148.717 413.699 148.959 413.457C149.202 413.214 149.594 413.214 149.837 413.457L150.639 414.259L152.27 412.629C152.512 412.387 152.905 412.387 153.147 412.629C153.39 412.871 153.39 413.265 153.147 413.507L151.078 415.576C150.957 415.697 150.798 415.758 150.639 415.758Z" fill="#464655"/>
<path d="M155.878 425.068H155.269C154.981 425.068 154.731 424.87 154.665 424.589L153.281 418.707C153.187 418.78 153.122 418.893 153.122 419.032V427.199C153.122 427.528 153.488 427.725 153.763 427.545L154.883 426.811C155.1 426.668 155.393 426.759 155.492 426.998L157.517 431.889C157.605 432.1 157.847 432.2 158.058 432.113L159.144 431.663L156.643 425.581C156.516 425.271 156.213 425.068 155.878 425.068Z" fill="#464655"/>
<g filter="url(#filter4_d_2034_543)">
<rect x="11" y="218" width="59.2981" height="59.2981" rx="7.23148" fill="white"/>
</g>
<rect x="22.5703" y="229.57" width="36.1574" height="36.1574" rx="7.23148" fill="#FF7E6F"/>
<path d="M37.9526 253.985C37.7269 255.134 36.7144 256.001 35.4995 256.001H33.4995C33.2234 256.001 32.9995 255.777 32.9995 255.501V253.501C32.9995 252.286 33.8661 251.273 35.0148 251.048L35.0267 250.705C35.0466 250.125 35.1063 249.556 35.203 249.001H31.4995C31.1458 249.001 30.9039 248.643 31.0353 248.315L33.0353 243.315C33.1112 243.125 33.2951 243.001 33.4995 243.001H37.9995C38.0249 243.001 38.0498 243.002 38.0742 243.006C40.4286 240.322 43.9242 238.678 47.7708 238.81C48.3815 238.831 48.9897 238.898 49.5906 239.009C49.7942 239.047 49.9535 239.206 49.9912 239.41C50.8117 243.84 49.1518 248.156 45.9942 250.928C45.9977 250.951 45.9995 250.976 45.9995 251.001V255.501C45.9995 255.705 45.875 255.889 45.6852 255.965L40.6852 257.965C40.3568 258.096 39.9995 257.854 39.9995 257.501V253.796C39.4363 253.894 38.8669 253.954 38.2954 253.973L37.9526 253.985ZM36.987 253.695L35.3049 252.013C34.5684 252.109 33.9995 252.738 33.9995 253.501V255.001H35.4995C36.262 255.001 36.8916 254.432 36.987 253.695ZM40.9995 253.578V256.762L44.9995 255.162V251.714C43.8174 252.553 42.4709 253.193 40.9995 253.578ZM35.4203 248.001C35.8015 246.542 36.4421 245.192 37.2882 244.001H33.838L32.238 248.001H35.4203ZM37.6994 252.993L38.2609 252.974C38.822 252.955 39.381 252.894 39.933 252.791C45.9697 251.674 49.9952 245.961 49.066 239.934C48.6257 239.867 48.1817 239.825 47.7364 239.81C41.4845 239.594 36.2416 244.487 36.0261 250.739L36.0067 251.301L37.6994 252.993ZM42.9995 249.001C41.3427 249.001 39.9995 247.657 39.9995 246.001C39.9995 244.344 41.3427 243.001 42.9995 243.001C44.6564 243.001 45.9995 244.344 45.9995 246.001C45.9995 247.657 44.6564 249.001 42.9995 249.001ZM42.9995 248.001C44.1041 248.001 44.9995 247.105 44.9995 246.001C44.9995 244.896 44.1041 244.001 42.9995 244.001C41.8949 244.001 40.9995 244.896 40.9995 246.001C40.9995 247.105 41.8949 248.001 42.9995 248.001Z" fill="white"/>
<g filter="url(#filter5_d_2034_543)">
<rect x="105" y="36" width="59.2981" height="59.2981" rx="7.23148" fill="white"/>
</g>
<rect x="116.57" y="47.5703" width="36.1574" height="36.1574" rx="7.23148" fill="#334688"/>
<path d="M144.793 65.1836H142.969V71.8556H144.793C145.753 71.8556 146.521 71.0876 146.521 70.1276V66.9596C146.521 65.9996 145.753 65.1836 144.793 65.1836Z" fill="#53B1E2"/>
<path d="M125.208 65.1836H127.032V71.8556H125.208C124.248 71.8556 123.48 71.0876 123.48 70.1276V66.9596C123.48 65.9996 124.248 65.1836 125.208 65.1836Z" fill="#53B1E2"/>
<path d="M143.64 64.464V73.104C143.64 74.832 142.2 76.272 140.472 76.272H136.776C136.392 76.272 136.104 75.984 136.104 75.6C136.104 75.216 136.392 74.928 136.776 74.928H140.472C141.48 74.928 142.296 74.112 142.296 73.104V64.704C142.296 60.768 139.272 57.408 135.384 57.216C131.208 57.024 127.704 60.336 127.704 64.464V72.24C127.704 72.624 127.416 72.912 127.032 72.912C126.696 72.912 126.36 72.576 126.36 72.24V64.704C126.36 60.048 130.008 56.064 134.664 55.872C139.56 55.68 143.64 59.616 143.64 64.464Z" fill="#E7E3E6"/>
<path d="M139.56 59.3272C139.272 59.3272 139.032 59.2312 138.792 59.0872C137.688 58.3192 136.392 57.8872 135 57.8872C133.608 57.8872 132.312 58.3192 131.208 59.0872C130.584 59.5192 129.768 59.3752 129.336 58.7512C128.904 58.1272 129.048 57.3112 129.672 56.8792C131.256 55.7752 133.08 55.1992 135 55.1992C136.92 55.1992 138.744 55.7752 140.328 56.8792C140.952 57.3112 141.096 58.1272 140.664 58.7512C140.376 59.0872 139.992 59.3272 139.56 59.3272Z" fill="#53B1E2"/>
<path d="M136.297 76.7984C136.959 76.7984 137.497 76.2612 137.497 75.5984C137.497 74.9357 136.959 74.3984 136.297 74.3984C135.634 74.3984 135.097 74.9357 135.097 75.5984C135.097 76.2612 135.634 76.7984 136.297 76.7984Z" fill="#53B1E2"/>
<g filter="url(#filter6_i_2034_543)">
<path d="M316.288 211.298V200.287L295.886 216.479L316.288 233.319V225.223L307.868 218.422L316.288 211.298Z" fill="url(#paint0_linear_2034_543)"/>
</g>
<g filter="url(#filter7_i_2034_543)">
<path d="M318.816 222.304V233.314L339.219 217.122L318.816 200.282V208.378L327.236 215.179L318.816 222.304Z" fill="url(#paint1_linear_2034_543)"/>
</g>
<g filter="url(#filter8_d_2034_543)">
<path d="M352.562 204.61V199.754H345.153V233H352.935V216.875C352.935 210.089 356.671 206.603 362.585 206.603C363.146 206.603 363.706 206.665 364.391 206.789V199.381C358.85 199.381 354.803 201.124 352.562 204.61Z" fill="white"/>
</g>
<g filter="url(#filter9_d_2034_543)">
<path d="M188.946 226.214V214.198H209.989V207.537H188.946V196.206H212.666V189.42H180.852V233H213.538V226.214H188.946ZM236.762 233.436C243.237 233.436 248.404 230.634 250.957 225.654L244.98 222.167C242.988 225.342 240 226.774 236.7 226.774C230.972 226.774 226.614 222.852 226.614 216.377C226.614 209.965 230.972 205.98 236.7 205.98C240 205.98 242.988 207.412 244.98 210.587L250.957 207.101C248.404 202.058 243.237 199.381 236.762 199.381C226.241 199.381 218.77 206.416 218.77 216.377C218.77 226.338 226.241 233.436 236.762 233.436ZM276.244 199.381C271.637 199.381 267.715 200.875 265.162 203.614V186.805H257.38V233H265.162V216.19C265.162 209.529 268.898 206.167 274.439 206.167C279.419 206.167 282.346 209.031 282.346 214.945V233H290.128V213.949C290.128 203.926 284.213 199.381 276.244 199.381Z" fill="white"/>
</g>
<g filter="url(#filter10_d_2034_543)">
<path d="M286.284 278.119H290.29V259.936H297.44V256.546H279.134V259.936H286.284V278.119ZM313.862 269.983C313.862 264.837 310.349 261.477 305.541 261.477C300.641 261.477 297.036 264.991 297.036 269.891C297.036 274.791 300.61 278.335 306.127 278.335C308.962 278.335 311.274 277.41 312.753 275.654L310.688 273.281C309.517 274.483 308.068 275.068 306.219 275.068C303.353 275.068 301.35 273.527 300.888 271.123H313.801C313.831 270.754 313.862 270.291 313.862 269.983ZM305.541 264.559C308.068 264.559 309.887 266.193 310.195 268.566H300.857C301.227 266.162 303.045 264.559 305.541 264.559ZM325.113 278.335C328.318 278.335 330.876 276.948 332.14 274.483L329.181 272.757C328.195 274.329 326.716 275.037 325.082 275.037C322.247 275.037 320.09 273.096 320.09 269.891C320.09 266.716 322.247 264.744 325.082 264.744C326.716 264.744 328.195 265.453 329.181 267.025L332.14 265.299C330.876 262.803 328.318 261.477 325.113 261.477C319.905 261.477 316.207 264.96 316.207 269.891C316.207 274.822 319.905 278.335 325.113 278.335ZM344.657 261.477C342.377 261.477 340.435 262.217 339.171 263.573V255.252H335.319V278.119H339.171V269.798C339.171 266.501 341.021 264.837 343.763 264.837C346.229 264.837 347.677 266.254 347.677 269.182V278.119H351.53V268.689C351.53 263.727 348.602 261.477 344.657 261.477Z" fill="white"/>
</g>
<g opacity="0.05" filter="url(#filter11_d_2034_543)">
<circle cx="271" cy="230" r="127" fill="black"/>
</g>
<g opacity="0.05" filter="url(#filter12_d_2034_543)">
<circle cx="271" cy="230" r="161" fill="black"/>
</g>
<defs>
<filter id="filter0_d_2034_543" x="460.876" y="197.107" width="94.0089" height="94.0099" filterUnits="userSpaceOnUse" color-interpolation-filters="sRGB">
<feFlood flood-opacity="0" result="BackgroundImageFix"/>
<feColorMatrix in="SourceAlpha" type="matrix" values="0 0 0 0 0 0 0 0 0 0 0 0 0 0 0 0 0 0 127 0" result="hardAlpha"/>
<feOffset dx="7.23148" dy="14.463"/>
<feGaussianBlur stdDeviation="8.67777"/>
<feColorMatrix type="matrix" values="0 0 0 0 0.2 0 0 0 0 0.501961 0 0 0 0 0.533333 0 0 0 0.1 0"/>
<feBlend mode="normal" in2="BackgroundImageFix" result="effect1_dropShadow_2034_543"/>
<feBlend mode="normal" in="SourceGraphic" in2="effect1_dropShadow_2034_543" result="shape"/>
</filter>
<filter id="filter1_d_2034_543" x="358.462" y="8.67772" width="94.0089" height="94.0099" filterUnits="userSpaceOnUse" color-interpolation-filters="sRGB">
<feFlood flood-opacity="0" result="BackgroundImageFix"/>
<feColorMatrix in="SourceAlpha" type="matrix" values="0 0 0 0 0 0 0 0 0 0 0 0 0 0 0 0 0 0 127 0" result="hardAlpha"/>
<feOffset dx="7.23148" dy="14.463"/>
<feGaussianBlur stdDeviation="8.67777"/>
<feColorMatrix type="matrix" values="0 0 0 0 0.2 0 0 0 0 0.501961 0 0 0 0 0.533333 0 0 0 0.1 0"/>
<feBlend mode="normal" in2="BackgroundImageFix" result="effect1_dropShadow_2034_543"/>
<feBlend mode="normal" in="SourceGraphic" in2="effect1_dropShadow_2034_543" result="shape"/>
</filter>
<filter id="filter2_d_2034_543" x="369.876" y="379.107" width="94.0089" height="94.0099" filterUnits="userSpaceOnUse" color-interpolation-filters="sRGB">
<feFlood flood-opacity="0" result="BackgroundImageFix"/>
<feColorMatrix in="SourceAlpha" type="matrix" values="0 0 0 0 0 0 0 0 0 0 0 0 0 0 0 0 0 0 127 0" result="hardAlpha"/>
<feOffset dx="7.23148" dy="14.463"/>
<feGaussianBlur stdDeviation="8.67777"/>
<feColorMatrix type="matrix" values="0 0 0 0 0.2 0 0 0 0 0.501961 0 0 0 0 0.533333 0 0 0 0.1 0"/>
<feBlend mode="normal" in2="BackgroundImageFix" result="effect1_dropShadow_2034_543"/>
<feBlend mode="normal" in="SourceGraphic" in2="effect1_dropShadow_2034_543" result="shape"/>
</filter>
<filter id="filter3_d_2034_543" x="113.876" y="390.107" width="94.0089" height="94.0099" filterUnits="userSpaceOnUse" color-interpolation-filters="sRGB">
<feFlood flood-opacity="0" result="BackgroundImageFix"/>
<feColorMatrix in="SourceAlpha" type="matrix" values="0 0 0 0 0 0 0 0 0 0 0 0 0 0 0 0 0 0 127 0" result="hardAlpha"/>
<feOffset dx="7.23148" dy="14.463"/>
<feGaussianBlur stdDeviation="8.67777"/>
<feColorMatrix type="matrix" values="0 0 0 0 0.2 0 0 0 0 0.501961 0 0 0 0 0.533333 0 0 0 0.1 0"/>
<feBlend mode="normal" in2="BackgroundImageFix" result="effect1_dropShadow_2034_543"/>
<feBlend mode="normal" in="SourceGraphic" in2="effect1_dropShadow_2034_543" result="shape"/>
</filter>
<filter id="filter4_d_2034_543" x="0.87593" y="215.107" width="94.0089" height="94.0099" filterUnits="userSpaceOnUse" color-interpolation-filters="sRGB">
<feFlood flood-opacity="0" result="BackgroundImageFix"/>
<feColorMatrix in="SourceAlpha" type="matrix" values="0 0 0 0 0 0 0 0 0 0 0 0 0 0 0 0 0 0 127 0" result="hardAlpha"/>
<feOffset dx="7.23148" dy="14.463"/>
<feGaussianBlur stdDeviation="8.67777"/>
<feColorMatrix type="matrix" values="0 0 0 0 0.2 0 0 0 0 0.501961 0 0 0 0 0.533333 0 0 0 0.1 0"/>
<feBlend mode="normal" in2="BackgroundImageFix" result="effect1_dropShadow_2034_543"/>
<feBlend mode="normal" in="SourceGraphic" in2="effect1_dropShadow_2034_543" result="shape"/>
</filter>
<filter id="filter5_d_2034_543" x="94.8759" y="33.1074" width="94.0089" height="94.0099" filterUnits="userSpaceOnUse" color-interpolation-filters="sRGB">
<feFlood flood-opacity="0" result="BackgroundImageFix"/>
<feColorMatrix in="SourceAlpha" type="matrix" values="0 0 0 0 0 0 0 0 0 0 0 0 0 0 0 0 0 0 127 0" result="hardAlpha"/>
<feOffset dx="7.23148" dy="14.463"/>
<feGaussianBlur stdDeviation="8.67777"/>
<feColorMatrix type="matrix" values="0 0 0 0 0.2 0 0 0 0 0.501961 0 0 0 0 0.533333 0 0 0 0.1 0"/>
<feBlend mode="normal" in2="BackgroundImageFix" result="effect1_dropShadow_2034_543"/>
<feBlend mode="normal" in="SourceGraphic" in2="effect1_dropShadow_2034_543" result="shape"/>
</filter>
<filter id="filter6_i_2034_543" x="295.886" y="200.287" width="20.4023" height="35.624" filterUnits="userSpaceOnUse" color-interpolation-filters="sRGB">
<feFlood flood-opacity="0" result="BackgroundImageFix"/>
<feBlend mode="normal" in="SourceGraphic" in2="BackgroundImageFix" result="shape"/>
<feColorMatrix in="SourceAlpha" type="matrix" values="0 0 0 0 0 0 0 0 0 0 0 0 0 0 0 0 0 0 127 0" result="hardAlpha"/>
<feOffset dy="2.59077"/>
<feGaussianBlur stdDeviation="1.29538"/>
<feComposite in2="hardAlpha" operator="arithmetic" k2="-1" k3="1"/>
<feColorMatrix type="matrix" values="0 0 0 0 0 0 0 0 0 0 0 0 0 0 0 0 0 0 0.1 0"/>
<feBlend mode="difference" in2="shape" result="effect1_innerShadow_2034_543"/>
</filter>
<filter id="filter7_i_2034_543" x="318.816" y="200.281" width="20.4023" height="35.624" filterUnits="userSpaceOnUse" color-interpolation-filters="sRGB">
<feFlood flood-opacity="0" result="BackgroundImageFix"/>
<feBlend mode="normal" in="SourceGraphic" in2="BackgroundImageFix" result="shape"/>
<feColorMatrix in="SourceAlpha" type="matrix" values="0 0 0 0 0 0 0 0 0 0 0 0 0 0 0 0 0 0 127 0" result="hardAlpha"/>
<feOffset dy="2.59077"/>
<feGaussianBlur stdDeviation="1.29538"/>
<feComposite in2="hardAlpha" operator="arithmetic" k2="-1" k3="1"/>
<feColorMatrix type="matrix" values="0 0 0 0 0 0 0 0 0 0 0 0 0 0 0 0 0 0 0.1 0"/>
<feBlend mode="difference" in2="shape" result="effect1_innerShadow_2034_543"/>
</filter>
<filter id="filter8_d_2034_543" x="341.499" y="198.163" width="26.545" height="40.9268" filterUnits="userSpaceOnUse" color-interpolation-filters="sRGB">
<feFlood flood-opacity="0" result="BackgroundImageFix"/>
<feColorMatrix in="SourceAlpha" type="matrix" values="0 0 0 0 0 0 0 0 0 0 0 0 0 0 0 0 0 0 127 0" result="hardAlpha"/>
<feOffset dy="2.4359"/>
<feGaussianBlur stdDeviation="1.82692"/>
<feComposite in2="hardAlpha" operator="out"/>
<feColorMatrix type="matrix" values="0 0 0 0 0.160784 0 0 0 0 0.219608 0 0 0 0 0.564706 0 0 0 0.12 0"/>
<feBlend mode="normal" in2="BackgroundImageFix" result="effect1_dropShadow_2034_543"/>
<feBlend mode="normal" in="SourceGraphic" in2="effect1_dropShadow_2034_543" result="shape"/>
</filter>
<filter id="filter9_d_2034_543" x="177.199" y="185.587" width="116.583" height="53.9386" filterUnits="userSpaceOnUse" color-interpolation-filters="sRGB">
<feFlood flood-opacity="0" result="BackgroundImageFix"/>
<feColorMatrix in="SourceAlpha" type="matrix" values="0 0 0 0 0 0 0 0 0 0 0 0 0 0 0 0 0 0 127 0" result="hardAlpha"/>
<feOffset dy="2.4359"/>
<feGaussianBlur stdDeviation="1.82692"/>
<feComposite in2="hardAlpha" operator="out"/>
<feColorMatrix type="matrix" values="0 0 0 0 0.160784 0 0 0 0 0.219608 0 0 0 0 0.564706 0 0 0 0.12 0"/>
<feBlend mode="normal" in2="BackgroundImageFix" result="effect1_dropShadow_2034_543"/>
<feBlend mode="normal" in="SourceGraphic" in2="effect1_dropShadow_2034_543" result="shape"/>
</filter>
<filter id="filter10_d_2034_543" x="275.48" y="254.034" width="79.7032" height="30.3897" filterUnits="userSpaceOnUse" color-interpolation-filters="sRGB">
<feFlood flood-opacity="0" result="BackgroundImageFix"/>
<feColorMatrix in="SourceAlpha" type="matrix" values="0 0 0 0 0 0 0 0 0 0 0 0 0 0 0 0 0 0 127 0" result="hardAlpha"/>
<feOffset dy="2.4359"/>
<feGaussianBlur stdDeviation="1.82692"/>
<feComposite in2="hardAlpha" operator="out"/>
<feColorMatrix type="matrix" values="0 0 0 0 0.160784 0 0 0 0 0.219608 0 0 0 0 0.564706 0 0 0 0.12 0"/>
<feBlend mode="normal" in2="BackgroundImageFix" result="effect1_dropShadow_2034_543"/>
<feBlend mode="normal" in="SourceGraphic" in2="effect1_dropShadow_2034_543" result="shape"/>
</filter>
<filter id="filter11_d_2034_543" x="100.749" y="77.0495" width="340.502" height="340.502" filterUnits="userSpaceOnUse" color-interpolation-filters="sRGB">
<feFlood flood-opacity="0" result="BackgroundImageFix"/>
<feColorMatrix in="SourceAlpha" type="matrix" values="0 0 0 0 0 0 0 0 0 0 0 0 0 0 0 0 0 0 127 0" result="hardAlpha"/>
<feOffset dy="17.3003"/>
<feGaussianBlur stdDeviation="21.6254"/>
<feComposite in2="hardAlpha" operator="out"/>
<feColorMatrix type="matrix" values="0 0 0 0 1 0 0 0 0 1 0 0 0 0 1 0 0 0 0.25 0"/>
<feBlend mode="normal" in2="BackgroundImageFix" result="effect1_dropShadow_2034_543"/>
<feBlend mode="normal" in="SourceGraphic" in2="effect1_dropShadow_2034_543" result="shape"/>
</filter>
<filter id="filter12_d_2034_543" x="55.1703" y="36.1022" width="431.659" height="431.659" filterUnits="userSpaceOnUse" color-interpolation-filters="sRGB">
<feFlood flood-opacity="0" result="BackgroundImageFix"/>
<feColorMatrix in="SourceAlpha" type="matrix" values="0 0 0 0 0 0 0 0 0 0 0 0 0 0 0 0 0 0 127 0" result="hardAlpha"/>
<feOffset dy="21.9319"/>
<feGaussianBlur stdDeviation="27.4149"/>
<feComposite in2="hardAlpha" operator="out"/>
<feColorMatrix type="matrix" values="0 0 0 0 1 0 0 0 0 1 0 0 0 0 1 0 0 0 0.25 0"/>
<feBlend mode="normal" in2="BackgroundImageFix" result="effect1_dropShadow_2034_543"/>
<feBlend mode="normal" in="SourceGraphic" in2="effect1_dropShadow_2034_543" result="shape"/>
</filter>
<linearGradient id="paint0_linear_2034_543" x1="295.886" y1="216.803" x2="316.288" y2="216.803" gradientUnits="userSpaceOnUse">
<stop stop-color="#F83600"/>
<stop offset="1" stop-color="#F9D423"/>
</linearGradient>
<linearGradient id="paint1_linear_2034_543" x1="339.219" y1="216.798" x2="318.816" y2="216.798" gradientUnits="userSpaceOnUse">
<stop stop-color="#F83600"/>
<stop offset="1" stop-color="#F9D423"/>
</linearGradient>
<clipPath id="clip0_2034_543">
<rect width="24" height="24" fill="white" transform="translate(489 218)"/>
</clipPath>
</defs>
</svg>
