<svg height="512" viewBox="0 0 96 96" width="512" xmlns="http://www.w3.org/2000/svg"><g id="Prototyping"><rect fill="#dbecff" height="45.76" rx="3.67" width="27.52" x="1" y="2.88"/><rect fill="#fff" height="19.52" rx="1.1" transform="matrix(0 1 -1 0 40.52 11)" width="37.76" x="-4.12" y="16"/><rect fill="#dbecff" height="10.5" rx="1.49" width="17.98" x="5.77" y="11.08"/><rect fill="#dbecff" height="10.5" rx="1.49" width="17.98" x="5.77" y="26.42"/><path d="m28.52 42.62v2.38a3.67 3.67 0 0 1 -3.67 3.67h-20.18a3.67 3.67 0 0 1 -3.67-3.67v-2.38z" fill="#777dba"/><path d="m24.52 42.62v.92a1.1 1.1 0 0 1 -1.1 1.1h-17.32a1.1 1.1 0 0 1 -1.1-1.1v-.92z" fill="#95aae2"/><rect fill="#619fff" height="45.76" rx="3.67" width="27.52" x="34.24" y="20.96"/><rect fill="#7fc7ff" height="19.52" rx="1.44" transform="matrix(0 1 -1 0 91.84 -4.16)" width="37.76" x="29.12" y="34.08"/><rect fill="#a9baeb" height="45.76" rx="3.67" width="27.52" x="67.48" y="47.36"/><rect fill="#bdceff" height="20.36" rx="1.12" transform="matrix(0 1 -1 0 151.48 -11)" width="37.76" x="62.36" y="60.06"/><path d="m61.76 60.7v2.35a3.67 3.67 0 0 1 -3.67 3.67h-20.18a3.67 3.67 0 0 1 -3.67-3.67v-2.35z" fill="#777dba"/><path d="m57.76 60.7v.58a1.45 1.45 0 0 1 -1.44 1.44h-16.64a1.45 1.45 0 0 1 -1.44-1.44v-.58z" fill="#95aae2"/><path d="m95 87.1v2.35a3.67 3.67 0 0 1 -3.67 3.67h-20.18a3.67 3.67 0 0 1 -3.67-3.67v-2.35z" fill="#777dba"/><path d="m91.42 87.1v.9a1.14 1.14 0 0 1 -1.13 1.13h-18.11a1.13 1.13 0 0 1 -1.12-1.13v-.9z" fill="#9bb4e3"/><rect fill="#dbecff" height="10.5" rx="1.49" width="17.98" x="72.25" y="71.13"/><rect fill="#619fff" height="10.5" rx="1.49" width="7.75" x="72.25" y="55.45"/><g fill="#5955a1"><path d="m55.5 29h-15a1 1 0 0 1 0-2h15a1 1 0 0 1 0 2z"/><path d="m55.5 33.88h-15a1 1 0 0 1 0-2h15a1 1 0 0 1 0 2z"/><path d="m55.5 38.75h-15a1 1 0 0 1 0-2h15a1 1 0 0 1 0 2z"/><path d="m45.75 43.62h-5.25a1 1 0 0 1 0-2h5.25a1 1 0 0 1 0 2z"/><path d="m48 22a1 1 0 0 1 -1-1v-3.88a2.21 2.21 0 0 0 -2.21-2.2h-21a1 1 0 0 1 0-2h21a4.21 4.21 0 0 1 4.21 4.2v3.88a1 1 0 0 1 -1 1z"/><circle cx="48" cy="20.96" r="2.13"/><path d="m67.48 77.38h-20.81a4.55 4.55 0 0 1 -4.55-4.55v-19.41a1 1 0 0 1 2 0v19.41a2.56 2.56 0 0 0 2.55 2.55h20.81a1 1 0 1 1 0 2z"/><circle cx="67.48" cy="76.38" r="2.13"/></g><rect fill="#619fff" height="13.88" rx="3.19" width="27.52" x="1" y="75.63"/><path d="m22.71 81.08h-15.89a1 1 0 0 1 0-2h15.89a1 1 0 0 1 0 2z" fill="#5955a1"/><path d="m22.71 86h-15.89a1 1 0 0 1 0-2h15.89a1 1 0 0 1 0 2z" fill="#5955a1"/><path d="m14.76 76.62a1 1 0 0 1 -1-1v-41.12a1 1 0 0 1 2 0v41.12a1 1 0 0 1 -1 1z" fill="#5955a1"/><circle cx="14.76" cy="75.63" fill="#5955a1" r="2.13"/><rect fill="#fff" height="4.78" rx=".87" width="5.67" x="40.5" y="48.64"/><rect fill="#fff" height="4.78" rx=".87" width="5.67" x="49.83" y="48.64"/><rect fill="#ffab57" height="10.5" rx="1.49" width="17.98" x="5.77" y="8.67"/><path d="m12.51 7.93h4.5v11.98h-4.5z" fill="#ffc46b" transform="matrix(0 1 -1 0 28.68 -.85)"/><rect fill="#00b496" height="10.5" rx="1.49" width="17.98" x="5.77" y="24"/><path d="m12.51 23.26h4.5v11.98h-4.5z" fill="#00d796" transform="matrix(0 1 -1 0 44.01 14.49)"/></g></svg>