<svg width="95" height="95" viewBox="0 0 95 95" fill="none" xmlns="http://www.w3.org/2000/svg">
<g filter="url(#filter0_d_2033_505)">
<rect x="11" y="3" width="59.2981" height="59.2981" rx="7.23148" fill="white"/>
</g>
<rect x="22.5703" y="14.5703" width="36.1574" height="36.1574" rx="7.23148" fill="#F9D423"/>
<path d="M40.5366 26.7931H35.571C35.3425 26.7931 35.1572 26.6078 35.1572 26.3793V21.4138C35.1572 21.1853 35.3425 21 35.571 21H40.5366C40.7651 21 40.9504 21.1853 40.9504 21.4138V26.3793C40.9504 26.6078 40.7651 26.7931 40.5366 26.7931Z" fill="white"/>
<path d="M40.5366 35.8967H35.571C35.3425 35.8967 35.1572 35.7114 35.1572 35.4828V30.5173C35.1572 30.2888 35.3425 30.1035 35.571 30.1035H40.5366C40.7651 30.1035 40.9504 30.2888 40.9504 30.5173V35.4828C40.9504 35.7114 40.7651 35.8967 40.5366 35.8967Z" fill="white"/>
<path d="M40.5366 45.0002H35.571C35.3425 45.0002 35.1572 44.8149 35.1572 44.5864V39.6208C35.1572 39.3923 35.3425 39.207 35.571 39.207H40.5366C40.7651 39.207 40.9504 39.3923 40.9504 39.6208V44.5864C40.9504 44.8149 40.7651 45.0002 40.5366 45.0002Z" fill="white"/>
<path d="M40.1221 29.0338V37.1999C40.1221 37.5289 40.4875 37.7263 40.7627 37.546L41.8826 36.8119C42.0996 36.6697 42.3925 36.76 42.4917 36.9997L44.5174 41.8902C44.6049 42.1014 44.847 42.2016 45.0581 42.1142L46.5872 41.4808C46.7983 41.3933 46.8986 41.1513 46.8112 40.9401L44.7866 36.0522C44.6869 35.8117 44.8316 35.5399 45.0867 35.4883L46.4008 35.2223C46.7243 35.1568 46.8447 34.7575 46.6113 34.5242L40.8284 28.7412C40.5678 28.4805 40.1221 28.6651 40.1221 29.0338Z" fill="#5B5D6E"/>
<path d="M37.6394 25.7577C37.4806 25.7577 37.3218 25.6971 37.2006 25.5758L35.9592 24.3344C35.7167 24.0921 35.7167 23.699 35.9592 23.4567C36.2017 23.2142 36.5944 23.2142 36.8369 23.4567L37.6394 24.2593L39.2696 22.6291C39.5121 22.3866 39.9048 22.3866 40.1473 22.6291C40.3897 22.8714 40.3897 23.2646 40.1473 23.5068L38.0783 25.5758C37.9571 25.6971 37.7983 25.7577 37.6394 25.7577Z" fill="#464655"/>
<path d="M42.8779 35.068H42.2688C41.9808 35.068 41.7306 34.8699 41.6646 34.5895L40.2806 28.707C40.1866 28.7796 40.1221 28.8926 40.1221 29.0325V37.1986C40.1221 37.5276 40.4875 37.725 40.7627 37.5447L41.8826 36.8106C42.0996 36.6684 42.3925 36.7587 42.4917 36.9984L44.5174 41.8889C44.6049 42.1001 44.847 42.2003 45.0581 42.1129L46.1439 41.6631L43.6433 35.581C43.5157 35.2706 43.2134 35.068 42.8779 35.068Z" fill="#464655"/>
<defs>
<filter id="filter0_d_2033_505" x="0.87593" y="0.107408" width="94.0089" height="94.0099" filterUnits="userSpaceOnUse" color-interpolation-filters="sRGB">
<feFlood flood-opacity="0" result="BackgroundImageFix"/>
<feColorMatrix in="SourceAlpha" type="matrix" values="0 0 0 0 0 0 0 0 0 0 0 0 0 0 0 0 0 0 127 0" result="hardAlpha"/>
<feOffset dx="7.23148" dy="14.463"/>
<feGaussianBlur stdDeviation="8.67777"/>
<feColorMatrix type="matrix" values="0 0 0 0 0.2 0 0 0 0 0.501961 0 0 0 0 0.533333 0 0 0 0.1 0"/>
<feBlend mode="normal" in2="BackgroundImageFix" result="effect1_dropShadow_2033_505"/>
<feBlend mode="normal" in="SourceGraphic" in2="effect1_dropShadow_2033_505" result="shape"/>
</filter>
</defs>
</svg>
