<svg width="64" height="64" viewBox="0 0 64 64" fill="none" xmlns="http://www.w3.org/2000/svg">
<path d="M35 18V40C35 43.1826 36.2643 46.2348 38.5147 48.4853C40.7652 50.7357 43.8174 52 47 52C47.5304 52 48.0391 51.7893 48.4142 51.4142C48.7893 51.0391 49 50.5304 49 50C49 49.4696 48.7893 48.9609 48.4142 48.5858C48.0391 48.2107 47.5304 48 47 48C44.8803 47.9934 42.8493 47.1484 41.3504 45.6496C39.8516 44.1507 39.0066 42.1197 39 40V38H54C55.0609 38 56.0783 37.5786 56.8284 36.8284C57.5786 36.0783 58 35.0609 58 34V18C58 16.9391 57.5786 15.9217 56.8284 15.1716C56.0783 14.4214 55.0609 14 54 14H39C37.9391 14 36.9217 14.4214 36.1716 15.1716C35.4214 15.9217 35 16.9391 35 18ZM10 14H25C26.0609 14 27.0783 14.4214 27.8284 15.1716C28.5786 15.9217 29 16.9391 29 18V34C29 35.0609 28.5786 36.0783 27.8284 36.8284C27.0783 37.5786 26.0609 38 25 38H10V40C10.0066 42.1197 10.8516 44.1507 12.3504 45.6496C13.8493 47.1484 15.8803 47.9934 18 48C18.5304 48 19.0391 48.2107 19.4142 48.5858C19.7893 48.9609 20 49.4696 20 50C20 50.5304 19.7893 51.0391 19.4142 51.4142C19.0391 51.7893 18.5304 52 18 52C14.8174 52 11.7652 50.7357 9.51472 48.4853C7.26428 46.2348 6 43.1826 6 40V18C6 16.9391 6.42143 15.9217 7.17157 15.1716C7.92172 14.4214 8.93913 14 10 14Z" fill="black"/>
</svg>
