<svg width="32" height="32" viewBox="0 0 32 32" fill="none" xmlns="http://www.w3.org/2000/svg">
<path d="M30.6666 8.00016V2.66683C30.6666 2.31321 30.5261 1.97407 30.2761 1.72402C30.026 1.47397 29.6869 1.3335 29.3333 1.3335H2.66659C2.31296 1.3335 1.97382 1.47397 1.72378 1.72402C1.47373 1.97407 1.33325 2.31321 1.33325 2.66683V8.00016H30.6666Z" fill="white"/>
<path d="M1.33325 10.667V29.3337C1.33325 29.6873 1.47373 30.0264 1.72378 30.2765C1.97382 30.5265 2.31296 30.667 2.66659 30.667H9.33325V10.667H1.33325Z" fill="white"/>
<path d="M12 30.667H29.3333C29.687 30.667 30.0261 30.5265 30.2761 30.2765C30.5262 30.0264 30.6667 29.6873 30.6667 29.3337V10.667H12V30.667Z" fill="white"/>
</svg>
