<svg width="28" height="32" viewBox="0 0 28 32" fill="none" xmlns="http://www.w3.org/2000/svg">
<path d="M26 31.9998H14C13.6463 31.9998 13.3072 31.8594 13.0571 31.6093C12.8071 31.3593 12.6666 31.0201 12.6666 30.6665V27.9998C12.6666 27.6462 12.8071 27.3071 13.0571 27.057C13.3072 26.807 13.6463 26.6665 14 26.6665H26C26.3536 26.6665 26.6927 26.807 26.9428 27.057C27.1928 27.3071 27.3333 27.6462 27.3333 27.9998V30.6665C27.3333 31.0201 27.1928 31.3593 26.9428 31.6093C26.6927 31.8594 26.3536 31.9998 26 31.9998Z" fill="white"/>
<path d="M26 0H1.99996C1.64634 0 1.3072 0.140475 1.05715 0.390523C0.807101 0.640572 0.666626 0.979711 0.666626 1.33333V4C0.666626 4.35362 0.807101 4.69276 1.05715 4.94281C1.3072 5.19286 1.64634 5.33333 1.99996 5.33333H26C26.3536 5.33333 26.6927 5.19286 26.9428 4.94281C27.1928 4.69276 27.3333 4.35362 27.3333 4V1.33333C27.3333 0.979711 27.1928 0.640572 26.9428 0.390523C26.6927 0.140475 26.3536 0 26 0Z" fill="white"/>
<path d="M26 8H1.99996C1.64634 8 1.3072 8.14047 1.05715 8.39052C0.807101 8.64057 0.666626 8.97971 0.666626 9.33333V22.6667C0.666626 23.0203 0.807101 23.3594 1.05715 23.6095C1.3072 23.8595 1.64634 24 1.99996 24H26C26.3536 24 26.6927 23.8595 26.9428 23.6095C27.1928 23.3594 27.3333 23.0203 27.3333 22.6667V9.33333C27.3333 8.97971 27.1928 8.64057 26.9428 8.39052C26.6927 8.14047 26.3536 8 26 8Z" fill="white"/>
</svg>
