<svg width="30" height="30" viewBox="0 0 30 30" fill="none" xmlns="http://www.w3.org/2000/svg">
<path d="M5.66658 0.333496H1.66659C1.31296 0.333496 0.973824 0.473971 0.723775 0.724019C0.473727 0.974068 0.333252 1.31321 0.333252 1.66683V28.3335C0.333252 28.6871 0.473727 29.0263 0.723775 29.2763C0.973824 29.5264 1.31296 29.6668 1.66659 29.6668H5.66658V0.333496Z" fill="white"/>
<path d="M8.33325 29.6668H21.6666V0.333496H8.33325V29.6668ZM14.9999 24.3335C14.6463 24.3335 14.3072 24.193 14.0571 23.943C13.8071 23.6929 13.6666 23.3538 13.6666 23.0002C13.6666 22.6465 13.8071 22.3074 14.0571 22.0574C14.3072 21.8073 14.6463 21.6668 14.9999 21.6668C15.3535 21.6668 15.6927 21.8073 15.9427 22.0574C16.1928 22.3074 16.3333 22.6465 16.3333 23.0002C16.3333 23.3538 16.1928 23.6929 15.9427 23.943C15.6927 24.193 15.3535 24.3335 14.9999 24.3335ZM14.9999 5.66683C15.3535 5.66683 15.6927 5.8073 15.9427 6.05735C16.1928 6.3074 16.3333 6.64654 16.3333 7.00016C16.3333 7.35378 16.1928 7.69292 15.9427 7.94297C15.6927 8.19302 15.3535 8.3335 14.9999 8.3335C14.6463 8.3335 14.3072 8.19302 14.0571 7.94297C13.8071 7.69292 13.6666 7.35378 13.6666 7.00016C13.6666 6.64654 13.8071 6.3074 14.0571 6.05735C14.3072 5.8073 14.6463 5.66683 14.9999 5.66683ZM14.9999 13.6668C15.3535 13.6668 15.6927 13.8073 15.9427 14.0574C16.1928 14.3074 16.3333 14.6465 16.3333 15.0002C16.3333 15.3538 16.1928 15.6929 15.9427 15.943C15.6927 16.193 15.3535 16.3335 14.9999 16.3335C14.6463 16.3335 14.3072 16.193 14.0571 15.943C13.8071 15.6929 13.6666 15.3538 13.6666 15.0002C13.6666 14.6465 13.8071 14.3074 14.0571 14.0574C14.3072 13.8073 14.6463 13.6668 14.9999 13.6668Z" fill="white"/>
<path d="M28.3333 0.333496H24.3333V29.6668H28.3333C28.6869 29.6668 29.026 29.5264 29.2761 29.2763C29.5261 29.0263 29.6666 28.6871 29.6666 28.3335V1.66683C29.6666 1.31321 29.5261 0.974068 29.2761 0.724019C29.026 0.473971 28.6869 0.333496 28.3333 0.333496Z" fill="white"/>
</svg>
