<svg width="95" height="95" viewBox="0 0 95 95" fill="none" xmlns="http://www.w3.org/2000/svg">
<g filter="url(#filter0_d_2034_521)">
<rect x="11" y="3" width="59.2981" height="59.2981" rx="7.23148" fill="white"/>
</g>
<rect x="22.5703" y="14.5703" width="36.1574" height="36.1574" rx="7.23148" fill="#334688"/>
<path d="M50.7928 32.1836H48.9688V38.8556H50.7928C51.7528 38.8556 52.5208 38.0876 52.5208 37.1276V33.9596C52.5208 32.9996 51.7528 32.1836 50.7928 32.1836Z" fill="#53B1E2"/>
<path d="M31.2085 32.1836H33.0325V38.8556H31.2085C30.2485 38.8556 29.4805 38.0876 29.4805 37.1276V33.9596C29.4805 32.9996 30.2485 32.1836 31.2085 32.1836Z" fill="#53B1E2"/>
<path d="M49.6404 31.464V40.104C49.6404 41.832 48.2004 43.272 46.4724 43.272H42.7764C42.3924 43.272 42.1044 42.984 42.1044 42.6C42.1044 42.216 42.3924 41.928 42.7764 41.928H46.4724C47.4804 41.928 48.2964 41.112 48.2964 40.104V31.704C48.2964 27.768 45.2724 24.408 41.3844 24.216C37.2084 24.024 33.7044 27.336 33.7044 31.464V39.24C33.7044 39.624 33.4164 39.912 33.0324 39.912C32.6964 39.912 32.3604 39.576 32.3604 39.24V31.704C32.3604 27.048 36.0084 23.064 40.6644 22.872C45.5604 22.68 49.6404 26.616 49.6404 31.464Z" fill="#E7E3E6"/>
<path d="M45.5602 26.3272C45.2722 26.3272 45.0322 26.2312 44.7922 26.0872C43.6882 25.3192 42.3922 24.8872 41.0002 24.8872C39.6082 24.8872 38.3122 25.3192 37.2082 26.0872C36.5842 26.5192 35.7682 26.3752 35.3362 25.7512C34.9042 25.1272 35.0482 24.3112 35.6722 23.8792C37.2562 22.7752 39.0802 22.1992 41.0002 22.1992C42.9202 22.1992 44.7442 22.7752 46.3282 23.8792C46.9522 24.3112 47.0962 25.1272 46.6642 25.7512C46.3762 26.0872 45.9922 26.3272 45.5602 26.3272Z" fill="#53B1E2"/>
<path d="M42.2967 43.7984C42.9594 43.7984 43.4967 43.2612 43.4967 42.5984C43.4967 41.9357 42.9594 41.3984 42.2967 41.3984C41.6339 41.3984 41.0967 41.9357 41.0967 42.5984C41.0967 43.2612 41.6339 43.7984 42.2967 43.7984Z" fill="#53B1E2"/>
<defs>
<filter id="filter0_d_2034_521" x="0.87593" y="0.107408" width="94.0089" height="94.0099" filterUnits="userSpaceOnUse" color-interpolation-filters="sRGB">
<feFlood flood-opacity="0" result="BackgroundImageFix"/>
<feColorMatrix in="SourceAlpha" type="matrix" values="0 0 0 0 0 0 0 0 0 0 0 0 0 0 0 0 0 0 127 0" result="hardAlpha"/>
<feOffset dx="7.23148" dy="14.463"/>
<feGaussianBlur stdDeviation="8.67777"/>
<feColorMatrix type="matrix" values="0 0 0 0 0.2 0 0 0 0 0.501961 0 0 0 0 0.533333 0 0 0 0.1 0"/>
<feBlend mode="normal" in2="BackgroundImageFix" result="effect1_dropShadow_2034_521"/>
<feBlend mode="normal" in="SourceGraphic" in2="effect1_dropShadow_2034_521" result="shape"/>
</filter>
</defs>
</svg>
