<svg width="804" height="491" viewBox="0 0 804 491" fill="none" xmlns="http://www.w3.org/2000/svg">
<circle cx="402" cy="245.5" r="196" stroke="white" stroke-width="12"/>
<g filter="url(#filter0_f_2083_178)">
<path d="M134.731 177.234H167.238V264.161C167.238 274.207 164.847 282.959 160.065 290.416C155.283 297.83 148.615 303.577 140.061 307.657C131.506 311.693 121.57 313.711 110.252 313.711C98.8016 313.711 88.7995 311.693 80.245 307.657C71.6905 303.577 65.0443 297.83 60.3064 290.416C55.5685 282.959 53.1996 274.207 53.1996 264.161V177.234H85.7725V261.331C85.7725 265.981 86.7815 270.127 88.7995 273.768C90.8613 277.409 93.7348 280.261 97.4198 282.322C101.105 284.384 105.382 285.415 110.252 285.415C115.121 285.415 119.376 284.384 123.017 282.322C126.702 280.261 129.576 277.409 131.638 273.768C133.7 270.127 134.731 265.981 134.731 261.331V177.234ZM302.349 177.234V312H274.712L221.082 234.22H220.226V312H187.653V177.234H215.686L268.724 254.882H269.842V177.234H302.349ZM355.404 177.234V312H322.831V177.234H355.404ZM427.377 263.568H453.698L464.885 277.848L479.559 294.694L502.13 322.529H472.65L456.857 303.643L447.513 290.219L427.377 263.568ZM503.051 244.617C503.051 259.445 500.2 272.013 494.497 282.322C488.794 292.632 481.073 300.462 471.334 305.814C461.638 311.166 450.759 313.843 438.695 313.843C426.587 313.843 415.685 311.145 405.99 305.749C396.295 300.353 388.596 292.522 382.893 282.257C377.234 271.947 374.405 259.401 374.405 244.617C374.405 229.789 377.234 217.221 382.893 206.911C388.596 196.602 396.295 188.771 405.99 183.419C415.685 178.067 426.587 175.391 438.695 175.391C450.759 175.391 461.638 178.067 471.334 183.419C481.073 188.771 488.794 196.602 494.497 206.911C500.2 217.221 503.051 229.789 503.051 244.617ZM469.754 244.617C469.754 235.843 468.504 228.429 466.003 222.375C463.547 216.321 459.993 211.737 455.343 208.622C450.737 205.507 445.188 203.95 438.695 203.95C432.246 203.95 426.697 205.507 422.047 208.622C417.396 211.737 413.821 216.321 411.32 222.375C408.864 228.429 407.635 235.843 407.635 244.617C407.635 253.391 408.864 260.805 411.32 266.859C413.821 272.913 417.396 277.497 422.047 280.612C426.697 283.726 432.246 285.284 438.695 285.284C445.188 285.284 450.737 283.726 455.343 280.612C459.993 277.497 463.547 272.913 466.003 266.859C468.504 260.805 469.754 253.391 469.754 244.617ZM603.78 177.234H636.287V264.161C636.287 274.207 633.896 282.959 629.115 290.416C624.333 297.83 617.665 303.577 609.11 307.657C600.556 311.693 590.619 313.711 579.301 313.711C567.851 313.711 557.849 311.693 549.295 307.657C540.74 303.577 534.094 297.83 529.356 290.416C524.618 282.959 522.249 274.207 522.249 264.161V177.234H554.822V261.331C554.822 265.981 555.831 270.127 557.849 273.768C559.911 277.409 562.784 280.261 566.469 282.322C570.154 284.384 574.432 285.415 579.301 285.415C584.171 285.415 588.426 284.384 592.067 282.322C595.752 280.261 598.626 277.409 600.687 273.768C602.749 270.127 603.78 265.981 603.78 261.331V177.234ZM656.703 312V177.234H750.671V203.687H689.276V231.325H745.867V257.843H689.276V285.547H750.671V312H656.703Z" fill="white"/>
</g>
<defs>
<filter id="filter0_f_2083_178" x="44.1992" y="166.391" width="715.471" height="165.139" filterUnits="userSpaceOnUse" color-interpolation-filters="sRGB">
<feFlood flood-opacity="0" result="BackgroundImageFix"/>
<feBlend mode="normal" in="SourceGraphic" in2="BackgroundImageFix" result="shape"/>
<feGaussianBlur stdDeviation="4.5" result="effect1_foregroundBlur_2083_178"/>
</filter>
</defs>
</svg>
