<svg id="Capa_1" enable-background="new 0 0 512 512" height="512" viewBox="0 0 512 512" width="512" xmlns="http://www.w3.org/2000/svg"><g><g><path d="m497 13.668h-482c-8.284 0-15 6.716-15 15v284.735l15 30h482l15-30v-284.735c0-8.284-6.716-15-15-15z" fill="#edf5ff"/><path d="m497 13.668h-241v329.735h241l15-30v-284.735c0-8.284-6.716-15-15-15z" fill="#d7e9ff"/><path d="m318.711 468.332h-4.321v-61.869c0-8.284-6.716-15-15-15h-86.78c-8.284 0-15 6.716-15 15v61.869h-4.321c-8.284 0-15 6.716-15 15s6.716 15 15 15h125.422c8.284 0 15-6.716 15-15s-6.716-15-15-15z" fill="#615ad3"/><path d="m318.711 468.332h-4.321v-61.869c0-8.284-6.716-15-15-15h-43.39v106.869h62.711c8.284 0 15-6.716 15-15s-6.716-15-15-15z" fill="#47419b"/><path d="m512 313.403h-512v93.06c0 8.284 6.716 15 15 15h482c8.284 0 15-6.716 15-15z" fill="#47419b"/><path d="m256 421.463h241c8.284 0 15-6.716 15-15v-93.06h-256z" fill="#2c3b73"/></g><g><g><path d="m125.699 102.126h260.602c8.284 0 15-6.716 15-15s-6.716-15-15-15h-260.602c-8.284 0-15 6.716-15 15s6.716 15 15 15z" fill="#ffd830"/><path d="m386.301 226.069h-100.301c-8.284 0-15 6.716-15 15s6.716 15 15 15h100.301c8.284 0 15-6.716 15-15s-6.716-15-15-15z" fill="#ffb44b"/><path d="m386.301 153.699h-100.301c-8.284 0-15 6.716-15 15s6.716 15 15 15h100.301c8.284 0 15-6.716 15-15s-6.716-15-15-15z" fill="#ffb44b"/><path d="m226 153.699h-100.301c-8.284 0-15 6.716-15 15v72.369c0 8.284 6.716 15 15 15h100.301c8.284 0 15-6.716 15-15v-72.369c0-8.284-6.716-15-15-15z" fill="#ff6680"/></g><path d="m386.301 72.126h-130.301v30h130.301c8.284 0 15-6.716 15-15s-6.716-15-15-15z" fill="#ffb44b"/></g></g></svg>