<svg width="19" height="19" viewBox="0 0 19 19" fill="none" xmlns="http://www.w3.org/2000/svg">
<g clip-path="url(#clip0_792_1602)">
<path d="M16.25 18.5H9.5C9.30109 18.5 9.11032 18.421 8.96967 18.2803C8.82902 18.1397 8.75 17.9489 8.75 17.75V16.25C8.75 16.0511 8.82902 15.8603 8.96967 15.7197C9.11032 15.579 9.30109 15.5 9.5 15.5H16.25C16.4489 15.5 16.6397 15.579 16.7803 15.7197C16.921 15.8603 17 16.0511 17 16.25V17.75C17 17.9489 16.921 18.1397 16.7803 18.2803C16.6397 18.421 16.4489 18.5 16.25 18.5Z" fill="#FED11B"/>
<path d="M16.25 0.5H2.75C2.55109 0.5 2.36032 0.579017 2.21967 0.719669C2.07902 0.860322 2 1.05109 2 1.25V2.75C2 2.94891 2.07902 3.13968 2.21967 3.28033C2.36032 3.42098 2.55109 3.5 2.75 3.5H16.25C16.4489 3.5 16.6397 3.42098 16.7803 3.28033C16.921 3.13968 17 2.94891 17 2.75V1.25C17 1.05109 16.921 0.860322 16.7803 0.719669C16.6397 0.579017 16.4489 0.5 16.25 0.5Z" fill="#FED11B"/>
<path d="M16.25 5H2.75C2.55109 5 2.36032 5.07902 2.21967 5.21967C2.07902 5.36032 2 5.55109 2 5.75V13.25C2 13.4489 2.07902 13.6397 2.21967 13.7803C2.36032 13.921 2.55109 14 2.75 14H16.25C16.4489 14 16.6397 13.921 16.7803 13.7803C16.921 13.6397 17 13.4489 17 13.25V5.75C17 5.55109 16.921 5.36032 16.7803 5.21967C16.6397 5.07902 16.4489 5 16.25 5Z" fill="#FED11B"/>
</g>
<defs>
<clipPath id="clip0_792_1602">
<rect width="19" height="18" fill="white" transform="translate(0 0.5)"/>
</clipPath>
</defs>
</svg>
