<svg width="32" height="32" viewBox="0 0 32 32" fill="none" xmlns="http://www.w3.org/2000/svg">
<path fill-rule="evenodd" clip-rule="evenodd" d="M5.33301 4C4.27214 4 3.25473 4.42143 2.50458 5.17157C1.75444 5.92172 1.33301 6.93913 1.33301 8V24C1.33301 25.0609 1.75444 26.0783 2.50458 26.8284C3.25473 27.5786 4.27214 28 5.33301 28H26.6663C27.7272 28 28.7446 27.5786 29.4948 26.8284C30.2449 26.0783 30.6663 25.0609 30.6663 24V8C30.6663 6.93913 30.2449 5.92172 29.4948 5.17157C28.7446 4.42143 27.7272 4 26.6663 4H5.33301ZM26.6663 6.66667H5.33301C4.97939 6.66667 4.64025 6.80714 4.3902 7.05719C4.14015 7.30724 3.99967 7.64638 3.99967 8V24C3.99967 24.3536 4.14015 24.6928 4.3902 24.9428C4.64025 25.1929 4.97939 25.3333 5.33301 25.3333H26.6663C27.02 25.3333 27.3591 25.1929 27.6092 24.9428C27.8592 24.6928 27.9997 24.3536 27.9997 24V8C27.9997 7.64638 27.8592 7.30724 27.6092 7.05719C27.3591 6.80714 27.02 6.66667 26.6663 6.66667Z" fill="#4285F4"/>
<rect x="7" y="10" width="18" height="6" rx="0.5" fill="#4285F4"/>
<rect x="7" y="17" width="7" height="6" rx="0.5" fill="#4285F4"/>
<rect x="15" y="17" width="10" height="6" rx="0.5" fill="#4285F4"/>
</svg>
