<svg width="32" height="32" viewBox="0 0 32 32" fill="none" xmlns="http://www.w3.org/2000/svg">
<path fill-rule="evenodd" clip-rule="evenodd" d="M18.6663 9.33594C18.3127 9.33594 17.9736 9.47641 17.7235 9.72646C17.4735 9.97651 17.333 10.3156 17.333 10.6693V21.3359C17.333 21.6896 17.4735 22.0287 17.7235 22.2787C17.9736 22.5288 18.3127 22.6693 18.6663 22.6693H23.9997C24.3533 22.6693 24.6924 22.5288 24.9425 22.2787C25.1925 22.0287 25.333 21.6896 25.333 21.3359V10.6693C25.333 10.3156 25.1925 9.97651 24.9425 9.72646C24.6924 9.47641 24.3533 9.33594 23.9997 9.33594H18.6663Z" fill="#4285F4"/>
<path d="M7.99935 9.33594C7.64573 9.33594 7.30659 9.47641 7.05654 9.72646C6.80649 9.97651 6.66602 10.3156 6.66602 10.6693C6.66602 11.0229 6.80649 11.362 7.05654 11.6121C7.30659 11.8621 7.64573 12.0026 7.99935 12.0026H13.3327C13.6863 12.0026 14.0254 11.8621 14.2755 11.6121C14.5255 11.362 14.666 11.0229 14.666 10.6693C14.666 10.3156 14.5255 9.97651 14.2755 9.72646C14.0254 9.47641 13.6863 9.33594 13.3327 9.33594H7.99935ZM7.99935 14.6693C7.64573 14.6693 7.30659 14.8097 7.05654 15.0598C6.80649 15.3098 6.66602 15.649 6.66602 16.0026C6.66602 16.3562 6.80649 16.6954 7.05654 16.9454C7.30659 17.1955 7.64573 17.3359 7.99935 17.3359H13.3327C13.6863 17.3359 14.0254 17.1955 14.2755 16.9454C14.5255 16.6954 14.666 16.3562 14.666 16.0026C14.666 15.649 14.5255 15.3098 14.2755 15.0598C14.0254 14.8097 13.6863 14.6693 13.3327 14.6693H7.99935ZM6.66602 21.3359C6.66602 20.9823 6.80649 20.6432 7.05654 20.3931C7.30659 20.1431 7.64573 20.0026 7.99935 20.0026H13.3327C13.6863 20.0026 14.0254 20.1431 14.2755 20.3931C14.5255 20.6432 14.666 20.9823 14.666 21.3359C14.666 21.6896 14.5255 22.0287 14.2755 22.2787C14.0254 22.5288 13.6863 22.6693 13.3327 22.6693H7.99935C7.64573 22.6693 7.30659 22.5288 7.05654 22.2787C6.80649 22.0287 6.66602 21.6896 6.66602 21.3359Z" fill="#4285F4"/>
<path fill-rule="evenodd" clip-rule="evenodd" d="M5.33301 4C4.27214 4 3.25473 4.42143 2.50458 5.17157C1.75444 5.92172 1.33301 6.93913 1.33301 8V24C1.33301 25.0609 1.75444 26.0783 2.50458 26.8284C3.25473 27.5786 4.27214 28 5.33301 28H26.6663C27.7272 28 28.7446 27.5786 29.4948 26.8284C30.2449 26.0783 30.6663 25.0609 30.6663 24V8C30.6663 6.93913 30.2449 5.92172 29.4948 5.17157C28.7446 4.42143 27.7272 4 26.6663 4H5.33301ZM26.6663 6.66667H5.33301C4.97939 6.66667 4.64025 6.80714 4.3902 7.05719C4.14015 7.30724 3.99967 7.64638 3.99967 8V24C3.99967 24.3536 4.14015 24.6928 4.3902 24.9428C4.64025 25.1929 4.97939 25.3333 5.33301 25.3333H26.6663C27.02 25.3333 27.3591 25.1929 27.6092 24.9428C27.8592 24.6928 27.9997 24.3536 27.9997 24V8C27.9997 7.64638 27.8592 7.30724 27.6092 7.05719C27.3591 6.80714 27.02 6.66667 26.6663 6.66667Z" fill="#4285F4"/>
</svg>
