<svg width="33" height="33" viewBox="0 0 33 33" fill="none" xmlns="http://www.w3.org/2000/svg">
<path fill-rule="evenodd" clip-rule="evenodd" d="M16.25 0.5C16.6284 0.5 16.9744 0.713767 17.144 1.05232L17.868 2.50133H27.25C28.9069 2.50133 30.25 3.84541 30.25 5.50342V20.5139H2.25V5.50342C2.25 3.84541 3.59315 2.50133 5.25 2.50133H14.63L15.356 1.05232C15.5256 0.713767 15.8716 0.5 16.25 0.5ZM1.25 22.5153C0.697715 22.5153 0.25 22.9633 0.25 23.516C0.25 24.0687 0.697715 24.5167 1.25 24.5167H6.97L5.28 31.2794C5.16073 31.8098 5.48643 32.3384 6.01354 32.47C6.54065 32.6016 7.07633 32.288 7.22 31.7637L8.03 28.5195H24.47L25.28 31.7637C25.4237 32.288 25.9594 32.6016 26.4865 32.47C27.0136 32.3384 27.3393 31.8098 27.22 31.2794L25.53 24.5167H31.25C31.8023 24.5167 32.25 24.0687 32.25 23.516C32.25 22.9633 31.8023 22.5153 31.25 22.5153H1.25ZM8.53 26.5181L9.03 24.5167H23.47L23.97 26.5181H8.53Z" fill="white"/>
</svg>
