<svg width="28" height="28" viewBox="0 0 28 28" fill="none" xmlns="http://www.w3.org/2000/svg">
<g clip-path="url(#clip0_1998_174)">
<path d="M5.38941 14.5319L5.27698 15.2916C5.17045 16.0115 5.52396 16.7216 6.16272 17.0704L6.83675 17.4385L7.0063 18.1875C7.02537 18.2717 7.05044 18.3535 7.08101 18.4324C6.63046 19.0389 6.1403 19.6088 5.61482 20.1364C5.10931 20.6439 4.96715 21.4097 5.25697 22.0648C5.53596 22.6955 6.16026 23.099 6.84495 23.099C6.87144 23.099 6.89794 23.0985 6.92457 23.0972L9.46252 22.9814L10.4382 24.6046C10.74 25.1067 11.2746 25.4228 11.86 25.4454C11.8824 25.4462 11.9048 25.4467 11.9271 25.4467C12.4877 25.4467 13.0157 25.1757 13.3423 24.7165C13.533 24.4483 13.7149 24.1646 13.8875 23.866C14.0602 24.1646 14.242 24.4483 14.4328 24.7165C14.7593 25.1756 15.2874 25.4467 15.848 25.4467C15.8704 25.4467 15.8927 25.4462 15.9151 25.4454C16.5005 25.4228 17.0351 25.1067 17.3369 24.6046L18.3125 22.9814L20.8505 23.0972C20.8771 23.0985 20.9037 23.099 20.9301 23.099C21.6149 23.099 22.2391 22.6956 22.5181 22.0648C22.8079 21.4097 22.6658 20.6439 22.1602 20.1364C21.6348 19.6088 21.1446 19.0389 20.694 18.4323C20.7246 18.3535 20.7496 18.2718 20.7687 18.1875L20.9383 17.4385L21.6124 17.0704C22.2511 16.7216 22.6046 16.0115 22.4981 15.2916L22.3856 14.5319L22.8812 13.9452C23.3508 13.3891 23.424 12.5994 23.0645 11.9666L22.6853 11.2988L22.9354 10.5727C23.1724 9.88457 22.9553 9.12169 22.3916 8.66147L21.7966 8.17569L21.7676 7.40821C21.74 6.68096 21.262 6.04801 20.5701 5.82256L19.8399 5.58458L19.5355 4.87943C19.2598 4.24054 18.6311 3.83081 17.9413 3.83076C17.9097 3.83072 17.878 3.83162 17.8461 3.83336L17.0792 3.87526L16.5407 3.32767C16.207 2.98835 15.7581 2.80859 15.3019 2.80859C15.0604 2.80859 14.817 2.8589 14.5875 2.96257L13.8876 3.27857L13.1876 2.96252C12.9581 2.8589 12.7146 2.80859 12.4732 2.80859C12.017 2.80855 11.5681 2.9883 11.2344 3.32767L10.6958 3.87521L9.929 3.83336C9.89714 3.83162 9.8654 3.83076 9.83376 3.83076C9.14392 3.83072 8.51532 4.24049 8.23956 4.87939L7.93519 5.58458L7.20499 5.82256C6.51306 6.04801 6.03507 6.68096 6.0075 7.40821L5.9784 8.17569L5.38346 8.66147C4.81972 9.12169 4.60268 9.88457 4.83972 10.5727L5.08984 11.2988L4.71055 11.9666C4.35108 12.5994 4.42427 13.3891 4.89389 13.9451L5.38941 14.5319V14.5319Z" fill="#DDCAC6"/>
<path d="M19.2992 17.5476L19.6419 16.0335L21.0043 15.2895L20.777 13.7539L21.7787 12.5679L21.012 11.2181L21.5176 9.75047L20.3151 8.76876L20.2564 7.21749L18.7804 6.73651L18.1653 5.31123L16.6153 5.39587L15.5268 4.28906L14.112 4.92791L12.6972 4.28906L11.6088 5.39587L10.0587 5.31123L9.44356 6.73651L7.96762 7.21749L7.9089 8.76876L6.70639 9.75047L7.21195 11.2181L6.44531 12.5679L7.44694 13.7539L7.21965 15.2895L8.58208 16.0335L8.92485 17.5476L9.7349 17.6537C9.1123 18.7056 8.24491 19.926 7.06984 21.1057L10.6422 20.9426L12.1514 23.4533C13.0216 22.2299 13.5722 20.7503 13.9194 19.4228L14.112 19.5571L14.3046 19.4228C14.6519 20.7503 15.2024 22.2299 16.0727 23.4533L17.5818 20.9426L21.1541 21.1057C19.9791 19.926 19.1117 18.7056 18.4891 17.6537L19.2992 17.5476V17.5476Z" fill="white"/>
<path d="M15.5269 4.28772L16.6154 5.39452L18.1654 5.30988L18.7805 6.73516L20.2565 7.21614L20.3153 8.76742L21.5178 9.74912L21.0122 11.2168L21.7788 12.5666L20.7772 13.7525L21.0045 15.2881L19.6421 16.0322L19.2993 17.5462L18.4892 17.6523C19.1118 18.7042 19.9792 19.9247 21.1543 21.1043L17.5819 20.9413L16.0728 23.4519C15.2025 22.2285 14.652 20.749 14.3047 19.4214L14.1121 19.5557L13.9195 19.4214C13.5723 20.749 13.0217 22.2285 12.1515 23.4519L10.6423 20.9413L7.07001 21.1043C8.24503 19.9247 9.11238 18.7042 9.73503 17.6523L8.92497 17.5462L8.5822 16.0322L7.21977 15.2881L7.44706 13.7525L6.44543 12.5666L7.21212 11.2168L6.70651 9.74912L7.90902 8.76742L7.96774 7.21614L9.44368 6.73516L10.0589 5.30988L11.6089 5.39452L12.6973 4.28772L14.1121 4.92657L15.5269 4.28772V4.28772ZM12.6978 2.55078C12.2416 2.55074 11.7927 2.73049 11.4589 3.06986L10.9204 3.6174L10.1536 3.57555C10.1217 3.5738 10.09 3.57295 10.0583 3.57295C9.36854 3.57295 8.73989 3.98268 8.46413 4.62158L8.15976 5.32676L7.4296 5.56475C6.73762 5.7902 6.25964 6.42319 6.23211 7.15044L6.20302 7.91793L5.60807 8.40366C5.04433 8.86387 4.82725 9.62675 5.06429 10.3148L5.31445 11.041L4.93516 11.7087C4.5757 12.3415 4.64888 13.1314 5.11845 13.6873L5.61403 14.2741L5.50159 15.0339C5.39502 15.7538 5.74857 16.4638 6.38729 16.8126L7.06137 17.1807L7.23092 17.9297C7.24998 18.0139 7.27505 18.0957 7.30562 18.1745C6.85507 18.7811 6.36491 19.351 5.83943 19.8785C5.33388 20.3861 5.19177 21.1519 5.48154 21.807C5.76057 22.4377 6.38487 22.8413 7.06956 22.8413C7.09605 22.8413 7.12255 22.8407 7.14919 22.8394L9.68713 22.7236L10.6628 24.3468C10.9646 24.8488 11.4992 25.165 12.0846 25.1876C12.107 25.1884 12.1293 25.1889 12.1517 25.1889C12.7123 25.1889 13.2403 24.9179 13.5669 24.4587C13.7576 24.1905 13.9395 23.9068 14.1121 23.6082C14.2848 23.9068 14.4666 24.1905 14.6574 24.4587C14.984 24.9178 15.512 25.1889 16.0726 25.1889C16.0949 25.1889 16.1173 25.1884 16.1397 25.1876C16.7251 25.165 17.2597 24.8488 17.5615 24.3468L18.5371 22.7236L21.075 22.8394C21.1017 22.8407 21.1283 22.8413 21.1547 22.8413C21.8394 22.8413 22.4637 22.4377 22.7427 21.807C23.0325 21.1519 22.8904 20.3861 22.3848 19.8785C21.8594 19.351 21.3692 18.7811 20.9186 18.1745C20.9492 18.0957 20.9742 18.0139 20.9933 17.9297L21.1629 17.1807L21.837 16.8126C22.4757 16.4638 22.8293 15.7537 22.7227 15.0338L22.6102 14.2741L23.1058 13.6874C23.5754 13.1314 23.6485 12.3415 23.2891 11.7087L22.9098 11.041L23.1599 10.3148C23.397 9.62675 23.1799 8.86387 22.6162 8.40366L22.0213 7.91793L21.9922 7.15044C21.9646 6.42319 21.4867 5.7902 20.7947 5.56475L20.0645 5.32676L19.7601 4.62162C19.4844 3.98277 18.8557 3.573 18.1659 3.57295C18.1343 3.57295 18.1026 3.5738 18.0707 3.57555L17.3038 3.61745L16.7653 3.06986C16.4316 2.73053 15.9826 2.55078 15.5264 2.55078C15.285 2.55078 15.0416 2.60109 14.8121 2.70476L14.1121 3.0208L13.4121 2.70471C13.1827 2.60109 12.9392 2.55078 12.6978 2.55078V2.55078Z" fill="white"/>
<path d="M17.1398 14.7695C17.1398 14.7695 18.1352 18.0761 21.1549 21.1075L17.5825 20.9444L16.0734 23.4551C13.9254 20.4356 13.7241 15.8542 13.7241 15.8542L17.1398 14.7695V14.7695Z" fill="#CC7587"/>
<path d="M11.0854 14.7695C11.0854 14.7695 10.09 18.0761 7.07031 21.1075L10.6427 20.9444L12.1518 23.4551C14.2998 20.4356 14.5011 15.8542 14.5011 15.8542L11.0854 14.7695V14.7695Z" fill="#CC7587"/>
<path d="M14.1125 4.92795L15.5273 4.28906L16.6158 5.39587L18.1658 5.31123L18.781 6.73651L20.2568 7.21753L20.3156 8.76876L21.5181 9.75042L21.0125 11.2181L21.7792 12.5679L20.7776 13.7539L21.0048 15.2895L19.6424 16.0335L19.2997 17.5476L17.7605 17.7492L16.8939 19.0371L15.3858 18.6691L14.1125 19.5571L12.8392 18.6691L11.3311 19.0371L10.4645 17.7492L8.92533 17.5476L8.58257 16.0335L7.22014 15.2895L7.44743 13.7539L6.4458 12.5679L7.21248 11.2181L6.70688 9.75042L7.90939 8.76876L7.96811 7.21753L9.44405 6.73651L10.0592 5.31123L11.6092 5.39587L12.6977 4.28906L14.1125 4.92795Z" fill="#DF8C9A"/>
<path d="M19.6316 11.9216C19.6316 14.9697 17.1606 17.4408 14.1125 17.4408C11.0642 17.4408 8.59326 14.9697 8.59326 11.9216C8.59326 8.87337 11.0642 6.40234 14.1125 6.40234C17.1606 6.40234 19.6316 8.87337 19.6316 11.9216Z" fill="#FFC15B"/>
<path d="M14.1123 16.8927C11.372 16.8927 9.14258 14.6633 9.14258 11.9229C9.14258 9.18255 11.372 6.95312 14.1123 6.95312C16.8527 6.95312 19.0822 9.18255 19.0822 11.9229C19.0822 14.6633 16.8527 16.8927 14.1123 16.8927ZM14.1123 7.07151C11.4372 7.07151 9.26101 9.24776 9.26101 11.9229C9.26101 14.5979 11.4372 16.7743 14.1123 16.7743C16.7874 16.7743 18.9638 14.5979 18.9638 11.9229C18.9638 9.24776 16.7874 7.07151 14.1123 7.07151V7.07151Z" fill="#DB9A3D"/>
<path d="M7.98848 9.44603H7.83057V8.76953H7.98848V9.44603Z" fill="#CC7587"/>
<path d="M9.33025 7.31384L9.18066 7.26296L9.3691 6.71094L9.51869 6.76178L9.33025 7.31384Z" fill="#CC7587"/>
<path d="M11.349 5.78005L11.2349 5.67088L11.5521 5.33984L11.6662 5.44901L11.349 5.78005Z" fill="#CC7587"/>
<path d="M13.7771 5.1751L13.709 5.03263L14.0786 4.85547L14.1467 4.99794L13.7771 5.1751Z" fill="#CC7587"/>
<path d="M16.2632 5.50081L16.2515 5.34322L16.6099 5.31641L16.6215 5.47401L16.2632 5.50081Z" fill="#CC7587"/>
<path d="M18.7599 6.81068L18.3999 6.71065L18.4422 6.55859L18.8022 6.65868L18.7599 6.81068Z" fill="#CC7587"/>
<path d="M20.2679 8.83185L19.998 8.62551L20.094 8.5L20.3638 8.70634L20.2679 8.83185Z" fill="#CC7587"/>
<path d="M7.30934 11.6935L7.13867 11.2478L7.28606 11.1914L7.45678 11.637L7.30934 11.6935Z" fill="#CC7587"/>
<path d="M7.67403 14.1429L7.38721 13.8055L7.50748 13.7031L7.7943 14.0405L7.67403 14.1429Z" fill="#CC7587"/>
<path d="M8.93603 16.3133L8.54541 16.1039L8.62007 15.9648L9.01064 16.1742L8.93603 16.3133Z" fill="#CC7587"/>
<path d="M10.9243 17.8871L10.4546 17.8285L10.474 17.6719L10.9437 17.7305L10.9243 17.8871Z" fill="#CC7587"/>
<path d="M12.8631 18.7433L12.8149 18.5927L13.202 18.4688L13.2501 18.6193L12.8631 18.7433Z" fill="#CC7587"/>
<path d="M15.431 18.7346L15.3403 18.6053L15.7237 18.3359L15.8143 18.4652L15.431 18.7346Z" fill="#CC7587"/>
<path d="M17.8281 17.7907L17.6934 17.7086L17.8989 17.3711L18.0337 17.4531L17.8281 17.7907Z" fill="#CC7587"/>
<path d="M19.7202 16.0475L19.5645 16.0226L19.6285 15.625L19.7842 15.65L19.7202 16.0475Z" fill="#CC7587"/>
<path d="M20.6995 13.7626L20.6465 13.3728L20.8028 13.3516L20.8559 13.7414L20.6995 13.7626Z" fill="#CC7587"/>
<path d="M20.9451 11.2609L20.7124 10.8789L20.8472 10.7969L21.0798 11.1789L20.9451 11.2609Z" fill="#CC7587"/>
<path d="M14.8548 13.5114C14.9559 13.5114 15.0554 13.5146 15.1534 13.5209C15.2513 13.5273 15.3413 13.5359 15.4235 13.5469C15.5056 13.5581 15.5752 13.5683 15.6321 13.5778C15.6321 13.6252 15.6304 13.7066 15.6274 13.8218C15.6241 13.9373 15.6186 14.062 15.6108 14.1962C15.6028 14.3305 15.5933 14.4569 15.5823 14.5753C15.5712 14.6939 15.5609 14.7831 15.5514 14.8431C15.4662 14.8431 15.324 14.8454 15.1249 14.8502C14.9259 14.8549 14.7 14.8605 14.4473 14.8667C14.1945 14.8732 13.9433 14.8803 13.6937 14.8881C13.4442 14.8961 13.2238 14.9048 13.0326 14.9141C12.8414 14.9237 12.7111 14.9332 12.6417 14.9427C12.6417 14.8479 12.6417 14.7199 12.6417 14.5588C12.6417 14.3976 12.6432 14.2365 12.6463 14.0753C12.6495 13.9143 12.6543 13.7879 12.6606 13.6962C12.7111 13.6836 12.7727 13.671 12.8454 13.6583C12.9181 13.6457 12.9938 13.6339 13.0728 13.6228C13.1518 13.6118 13.2261 13.6015 13.2957 13.592C13.3651 13.5825 13.4204 13.5762 13.4615 13.573C13.4615 13.4942 13.4631 13.3772 13.4662 13.2224C13.4693 13.0676 13.4741 12.8899 13.4805 12.6892C13.4868 12.4886 13.4931 12.2792 13.4994 12.0612C13.5057 11.8432 13.5129 11.6332 13.5207 11.4309C13.5285 11.2288 13.5365 11.0463 13.5445 10.8835C13.5523 10.721 13.5594 10.5968 13.5658 10.5116C13.531 10.5399 13.4868 10.5826 13.4331 10.6395C13.3793 10.6964 13.3256 10.7564 13.2719 10.8196C13.2182 10.8828 13.1684 10.9405 13.1227 10.9925C13.0768 11.0447 13.046 11.0834 13.0302 11.1087C12.926 10.9918 12.8028 10.8228 12.6606 10.6016C12.5184 10.3804 12.4 10.1751 12.3052 9.98551C12.3526 9.9318 12.4308 9.85203 12.5397 9.74622C12.6487 9.64037 12.7712 9.52104 12.9071 9.38837C13.0428 9.2557 13.1796 9.12537 13.317 8.99745C13.4545 8.86939 13.5753 8.75968 13.6795 8.66797C13.7743 8.66797 13.8951 8.67119 14.0421 8.67751C14.189 8.6839 14.335 8.69174 14.4804 8.70114C14.6257 8.71063 14.7427 8.72334 14.8312 8.73914C14.8407 8.80234 14.8501 8.91048 14.8595 9.06369C14.869 9.21703 14.8777 9.41295 14.8856 9.65143C14.8935 9.88995 14.9006 10.1648 14.9069 10.476C14.9132 10.7872 14.9164 11.1292 14.9164 11.502C14.9164 11.8117 14.9117 12.1363 14.9022 12.4759C14.8927 12.8156 14.8769 13.1607 14.8548 13.5114V13.5114Z" fill="white"/>
<path d="M18.0963 12.2512C17.5092 12.2787 16.9101 12.2774 16.3008 12.2512V11.3384C16.9127 11.2807 17.5112 11.2614 18.0963 11.2807V12.2512V12.2512Z" fill="white"/>
<path d="M10.252 11.3951C10.8391 11.3677 11.4382 11.369 12.0475 11.3951V12.308C11.4356 12.3657 10.8371 12.3849 10.252 12.3657V11.3951Z" fill="white"/>
</g>
<defs>
<clipPath id="clip0_1998_174">
<rect width="28" height="28" fill="white"/>
</clipPath>
</defs>
</svg>
