<svg width="26" height="32" viewBox="0 0 26 32" fill="none" xmlns="http://www.w3.org/2000/svg">
<path d="M17.7631 19.3461C17.9493 18.8013 18.2741 18.2941 18.6978 17.8831L25.2834 11.561V7.5H18.4489C17.9113 7.5 17.5078 7.08069 17.5078 6.5625V0H2.91797C1.30894 0 0 1.26163 0 2.8125V29.1875C0 30.7384 1.30894 32 2.91797 32H22.3395C23.9485 32 25.2834 30.7384 25.2834 29.1875V22.1906L24.2145 23.1958C23.7814 23.6096 23.2742 23.9108 22.7024 24.0949L19.6097 25.0901L19.1385 25.1148C18.3596 25.1148 17.6225 24.7495 17.1647 24.1379C16.7107 23.5291 16.5872 22.7399 16.8342 22.0268L17.7631 19.3461ZM4.86328 16.875H14.5583C15.0959 16.875 15.5309 17.2943 15.5309 17.8125C15.5309 18.3307 15.0959 18.75 14.5583 18.75H4.86328C4.32566 18.75 3.89062 18.3307 3.89062 17.8125C3.89062 17.2943 4.32566 16.875 4.86328 16.875ZM3.89062 14.0625C3.89062 13.5443 4.32566 13.125 4.86328 13.125H14.5583C15.0959 13.125 15.5309 13.5443 15.5309 14.0625C15.5309 14.5807 15.0959 15 14.5583 15H4.86328C4.32566 15 3.89062 14.5807 3.89062 14.0625ZM3.89062 21.5625C3.89062 21.0443 4.32566 20.625 4.86328 20.625H14.5583C15.0959 20.625 15.5309 21.0443 15.5309 21.5625C15.5309 22.0807 15.0959 22.5 14.5583 22.5H4.86328C4.32566 22.5 3.89062 22.0807 3.89062 21.5625ZM18.4489 26.25C18.9865 26.25 19.4215 26.6693 19.4215 27.1875C19.4215 27.7057 18.9866 28.125 18.4489 28.125H12.613C12.0753 28.125 11.6403 27.7057 11.6403 27.1875C11.6403 26.6693 12.0753 26.25 12.613 26.25H18.4489ZM4.86328 11.25C4.32566 11.25 3.89062 10.8307 3.89062 10.3125C3.89062 9.79431 4.32566 9.375 4.86328 9.375H18.4489C18.9865 9.375 19.4215 9.79431 19.4215 10.3125C19.4215 10.8307 18.9865 11.25 18.4489 11.25H4.86328Z" fill="#FED11B"/>
</svg>
