<svg width="41" height="41" viewBox="0 0 41 41" fill="none" xmlns="http://www.w3.org/2000/svg">
<g clip-path="url(#clip0_1852_204)">
<path d="M31.5218 0.873535H9.47818C4.51967 0.873535 0.5 4.8932 0.5 9.85171V31.8954C0.5 36.8539 4.51967 40.8735 9.47818 40.8735H31.5218C36.4803 40.8735 40.5 36.8539 40.5 31.8954V9.85171C40.5 4.8932 36.4803 0.873535 31.5218 0.873535Z" fill="#F25B98"/>
<path d="M20.5073 10.1289C18.3836 10.1289 16.3075 10.7587 14.5417 11.9386C12.7759 13.1184 11.3996 14.7954 10.5869 16.7575C9.77418 18.7196 9.56154 20.8786 9.97586 22.9615C10.3902 25.0445 11.4129 26.9578 12.9146 28.4595C14.4163 29.9612 16.3296 30.9838 18.4125 31.3982C20.4954 31.8125 22.6544 31.5998 24.6165 30.7871C26.5786 29.9744 28.2556 28.5981 29.4355 26.8323C30.6154 25.0665 31.2451 22.9904 31.2451 20.8667C31.2414 18.02 30.109 15.2909 28.096 13.278C26.0831 11.265 23.354 10.1326 20.5073 10.1289ZM27.4349 15.3662C28.5646 16.7893 29.2275 18.5263 29.3331 20.3402C27.3418 19.9371 25.2923 19.9136 23.2922 20.2709C23.0705 19.7583 22.8489 19.2595 22.6133 18.7884C24.4617 18.039 26.1119 16.8725 27.4349 15.38V15.3662ZM26.0494 13.9807C24.8731 15.3436 23.3788 16.3953 21.6989 17.0427L21.1447 16.1005C20.3247 14.7407 19.3981 13.4481 18.3736 12.2349C19.702 11.915 21.0865 11.9074 22.4183 12.2127C23.7501 12.518 24.993 13.1279 26.0494 13.9945V13.9807ZM16.4755 12.9277C17.7816 14.3959 18.9287 15.9981 19.8977 17.7077C17.2878 18.4092 14.5913 18.7358 11.8894 18.6776C12.2103 17.4497 12.7906 16.3049 13.5912 15.3202C14.3919 14.3355 15.3943 13.5338 16.5309 12.9692L16.4755 12.9277ZM11.5846 20.8806V20.5757H12.3882C14.1331 20.579 15.8754 20.44 17.5977 20.1601C18.6666 19.9832 19.7221 19.7333 20.7567 19.4119C20.9599 19.8276 21.1631 20.2571 21.3663 20.7004C19.8257 21.2238 18.3901 22.0166 17.1267 23.042C15.8468 24.0759 14.7385 25.3057 13.843 26.6859C12.4096 25.0896 11.6068 23.0258 11.5846 20.8806ZM15.2008 28.0021C16.0123 26.6784 17.043 25.5024 18.2489 24.5245C19.3883 23.5997 20.6897 22.895 22.0868 22.4462C22.8759 24.5979 23.4106 26.8346 23.6802 29.1105C22.2884 29.6582 20.7805 29.8438 19.2975 29.6499C17.8145 29.4561 16.405 28.8891 15.2008 28.0021ZM25.4675 28.1545C25.2035 26.0664 24.7301 24.01 24.0543 22.0167C25.8045 21.7775 27.5836 21.8573 29.3054 22.2522C29.1117 23.4442 28.6762 24.5839 28.0258 25.6013C27.3753 26.6188 26.5235 27.4924 25.5229 28.1684L25.4675 28.1545Z" fill="white"/>
</g>
<defs>
<clipPath id="clip0_1852_204">
<rect width="40" height="40" fill="white" transform="translate(0.5 0.873535)"/>
</clipPath>
</defs>
</svg>
