<svg width="196" height="41" fill="none" xmlns="http://www.w3.org/2000/svg"><g filter="url(#a)"><path d="M120.295 32.727h4.304V13.192h7.682V9.55h-19.668v3.642h7.682v19.535Zm29.63-8.74c0-5.53-3.775-9.14-8.94-9.14-5.265 0-9.139 3.775-9.139 9.04 0 5.265 3.841 9.072 9.768 9.072 3.046 0 5.53-.993 7.119-2.88l-2.218-2.55c-1.259 1.291-2.815 1.92-4.802 1.92-3.079 0-5.231-1.655-5.728-4.238h13.874c.033-.397.066-.894.066-1.225Zm-8.94-5.828c2.715 0 4.669 1.755 5 4.304h-10.033c.398-2.582 2.351-4.304 5.033-4.304Zm21.028 14.8c3.443 0 6.192-1.49 7.549-4.139l-3.179-1.854c-1.059 1.689-2.648 2.45-4.403 2.45-3.047 0-5.364-2.085-5.364-5.53 0-3.41 2.317-5.529 5.364-5.529 1.755 0 3.344.762 4.403 2.45l3.179-1.854c-1.357-2.682-4.106-4.105-7.549-4.105-5.596 0-9.569 3.741-9.569 9.039s3.973 9.072 9.569 9.072Zm20.998-18.111c-2.45 0-4.536.794-5.894 2.251V8.16h-4.139v24.569h4.139v-8.94c0-3.543 1.987-5.331 4.934-5.331 2.648 0 4.205 1.523 4.205 4.668v9.602h4.138V22.596c0-5.331-3.145-7.748-7.383-7.748Z" fill="#fff"/></g><g filter="url(#b)"><path d="M77.582 21.038v-5.84l-11.173 8.589 11.172 8.932v-4.295l-4.61-3.607 4.61-3.779Z" fill="url(#c)"/></g><g filter="url(#d)"><path d="M78.967 26.877v5.84l11.172-8.589-11.172-8.932v4.295l4.61 3.607-4.61 3.779Z" fill="url(#e)"/></g><g filter="url(#f)"><path d="M93.313 32.727v-17.68h3.94v4.867l-.464-1.424c.53-1.192 1.358-2.097 2.483-2.715 1.148-.618 2.572-.927 4.272-.927v3.94a2.053 2.053 0 0 0-.497-.066 3.277 3.277 0 0 0-.463-.034c-1.568 0-2.815.464-3.742 1.391-.927.905-1.39 2.263-1.39 4.073v8.575h-4.14Z" fill="#fff"/></g><g filter="url(#g)"><path d="M7.297 19.185H18.82v3.543H7.297v-3.543Zm.331 9.934h13.08v3.608H3.323V9.55h16.92v3.609H7.628v15.96Zm25.43 3.84c-1.854 0-3.509-.386-4.966-1.159-1.435-.794-2.56-1.876-3.377-3.244-.817-1.369-1.225-2.925-1.225-4.67 0-1.765.408-3.321 1.225-4.668a8.608 8.608 0 0 1 3.377-3.212c1.457-.772 3.113-1.158 4.967-1.158 1.722 0 3.233.353 4.536 1.06a6.817 6.817 0 0 1 3.013 3.045l-3.179 1.855c-.53-.84-1.18-1.457-1.953-1.855a5.156 5.156 0 0 0-2.45-.596c-1.016 0-1.932.221-2.749.663a4.732 4.732 0 0 0-1.92 1.92c-.464.817-.695 1.8-.695 2.947 0 1.148.231 2.141.695 2.98a4.787 4.787 0 0 0 1.92 1.887c.817.442 1.733.662 2.749.662.883 0 1.7-.198 2.45-.596.772-.397 1.424-1.015 1.953-1.854l3.179 1.854a7.24 7.24 0 0 1-3.013 3.08c-1.303.706-2.814 1.06-4.536 1.06Zm20.999-18.111c1.412 0 2.67.276 3.774.827 1.126.552 2.01 1.402 2.65 2.55.64 1.126.96 2.583.96 4.37v10.133H57.3v-9.603c0-1.567-.375-2.737-1.125-3.51-.729-.772-1.755-1.158-3.08-1.158-.97 0-1.832.198-2.582.596-.75.397-1.336.993-1.755 1.788-.397.772-.596 1.755-.596 2.947v8.94h-4.139V8.159h4.139v11.655l-.894-1.457c.618-1.125 1.512-1.986 2.682-2.582 1.192-.618 2.56-.927 4.106-.927Z" fill="#fff"/></g><defs><filter id="a" x="110.67" y="7.511" width="81.668" height="28.686" filterUnits="userSpaceOnUse" color-interpolation-filters="sRGB"><feFlood flood-opacity="0" result="BackgroundImageFix"/><feColorMatrix in="SourceAlpha" values="0 0 0 0 0 0 0 0 0 0 0 0 0 0 0 0 0 0 127 0" result="hardAlpha"/><feOffset dy="1.296"/><feGaussianBlur stdDeviation=".972"/><feComposite in2="hardAlpha" operator="out"/><feColorMatrix values="0 0 0 0 0.160784 0 0 0 0 0.219608 0 0 0 0 0.564706 0 0 0 0.12 0"/><feBlend in2="BackgroundImageFix" result="effect1_dropShadow_412_643"/><feBlend in="SourceGraphic" in2="effect1_dropShadow_412_643" result="shape"/></filter><filter id="b" x="66.409" y="15.198" width="11.173" height="18.898" filterUnits="userSpaceOnUse" color-interpolation-filters="sRGB"><feFlood flood-opacity="0" result="BackgroundImageFix"/><feBlend in="SourceGraphic" in2="BackgroundImageFix" result="shape"/><feColorMatrix in="SourceAlpha" values="0 0 0 0 0 0 0 0 0 0 0 0 0 0 0 0 0 0 127 0" result="hardAlpha"/><feOffset dy="1.378"/><feGaussianBlur stdDeviation=".689"/><feComposite in2="hardAlpha" operator="arithmetic" k2="-1" k3="1"/><feColorMatrix values="0 0 0 0 0 0 0 0 0 0 0 0 0 0 0 0 0 0 0.1 0"/><feBlend mode="difference" in2="shape" result="effect1_innerShadow_412_643"/></filter><filter id="d" x="78.967" y="15.196" width="11.173" height="18.898" filterUnits="userSpaceOnUse" color-interpolation-filters="sRGB"><feFlood flood-opacity="0" result="BackgroundImageFix"/><feBlend in="SourceGraphic" in2="BackgroundImageFix" result="shape"/><feColorMatrix in="SourceAlpha" values="0 0 0 0 0 0 0 0 0 0 0 0 0 0 0 0 0 0 127 0" result="hardAlpha"/><feOffset dy="1.378"/><feGaussianBlur stdDeviation=".689"/><feComposite in2="hardAlpha" operator="arithmetic" k2="-1" k3="1"/><feColorMatrix values="0 0 0 0 0 0 0 0 0 0 0 0 0 0 0 0 0 0 0.1 0"/><feBlend mode="difference" in2="shape" result="effect1_innerShadow_412_643"/></filter><filter id="f" x="91.369" y="14.2" width="14.118" height="21.766" filterUnits="userSpaceOnUse" color-interpolation-filters="sRGB"><feFlood flood-opacity="0" result="BackgroundImageFix"/><feColorMatrix in="SourceAlpha" values="0 0 0 0 0 0 0 0 0 0 0 0 0 0 0 0 0 0 127 0" result="hardAlpha"/><feOffset dy="1.296"/><feGaussianBlur stdDeviation=".972"/><feComposite in2="hardAlpha" operator="out"/><feColorMatrix values="0 0 0 0 0.160784 0 0 0 0 0.219608 0 0 0 0 0.564706 0 0 0 0.12 0"/><feBlend in2="BackgroundImageFix" result="effect1_dropShadow_412_643"/><feBlend in="SourceGraphic" in2="effect1_dropShadow_412_643" result="shape"/></filter><filter id="g" x="1.38" y="7.511" width="62.003" height="28.686" filterUnits="userSpaceOnUse" color-interpolation-filters="sRGB"><feFlood flood-opacity="0" result="BackgroundImageFix"/><feColorMatrix in="SourceAlpha" values="0 0 0 0 0 0 0 0 0 0 0 0 0 0 0 0 0 0 127 0" result="hardAlpha"/><feOffset dy="1.296"/><feGaussianBlur stdDeviation=".972"/><feComposite in2="hardAlpha" operator="out"/><feColorMatrix values="0 0 0 0 0.160784 0 0 0 0 0.219608 0 0 0 0 0.564706 0 0 0 0.12 0"/><feBlend in2="BackgroundImageFix" result="effect1_dropShadow_412_643"/><feBlend in="SourceGraphic" in2="effect1_dropShadow_412_643" result="shape"/></filter><linearGradient id="c" x1="66.409" y1="23.958" x2="77.582" y2="23.958" gradientUnits="userSpaceOnUse"><stop stop-color="#F83600"/><stop offset="1" stop-color="#F9D423"/></linearGradient><linearGradient id="e" x1="90.139" y1="23.957" x2="78.967" y2="23.957" gradientUnits="userSpaceOnUse"><stop stop-color="#F83600"/><stop offset="1" stop-color="#F9D423"/></linearGradient></defs></svg>