<svg width="37" height="37" fill="none" xmlns="http://www.w3.org/2000/svg"><g clip-path="url(#a)"><path d="M8.858 5.3H3.3a.526.526 0 0 0-.523.522V28.74a.52.52 0 0 0 .523.517h5.558a.52.52 0 0 0 .523-.517V5.822a.526.526 0 0 0-.523-.523Zm-.101 23.337h-5.36V5.918h5.36v22.72Z" fill="#4E5293"/><path d="M3.396 5.918h5.361v22.72h-5.36V5.917Z" fill="#EC9BAE"/><path d="M17.037 11.622h-5.558a.526.526 0 0 0-.523.523v16.593c0 .287.236.518.523.518h5.558a.52.52 0 0 0 .523-.518V12.14a.52.52 0 0 0-.523-.517Zm-.096 17.015h-5.366V12.246h5.366v16.391Z" fill="#4E5293"/><path d="M11.575 12.246h5.366v16.397h-5.366V12.246Z" fill="#F1CA6C"/><path d="M25.221 15.576h-5.563a.527.527 0 0 0-.523.529v12.634a.52.52 0 0 0 .523.517h5.563c.287 0 .517-.23.517-.517v-12.64a.516.516 0 0 0-.517-.523Zm-.101 13.061h-5.36V16.195h5.36v12.442Z" fill="#4E5293"/><path d="M19.76 16.195h5.36v12.442h-5.36V16.195Z" fill="#99D3BA"/><path d="M33.4 18.164h-5.563a.521.521 0 0 0-.518.523v10.052c0 .286.231.517.518.517H33.4a.52.52 0 0 0 .523-.517V18.692a.527.527 0 0 0-.523-.528Zm-.101 10.473h-5.36v-9.843h5.36v9.843Z" fill="#4E5293"/><path d="M27.939 18.794h5.36v9.849h-5.36v-9.85Z" fill="#4FBDE5"/><path d="M35.425 30.184H1.275a.924.924 0 1 0 0 1.85h34.15c.506 0 .923-.41.923-.922a.932.932 0 0 0-.923-.928Zm0 1.232H1.275a.302.302 0 0 1-.303-.304c0-.168.135-.303.304-.303h34.15c.162 0 .303.134.303.303 0 .169-.14.304-.304.304Z" fill="#4E5293"/><path d="M35.729 31.112c0 .17-.141.304-.304.304H1.275a.302.302 0 0 1-.303-.304c0-.168.135-.303.303-.303h34.15a.31.31 0 0 1 .304.303Z" fill="#BFC6DB"/></g><defs><clipPath id="a"><path fill="#fff" transform="translate(.348 .67)" d="M0 0h36v36H0z"/></clipPath></defs></svg>