<svg width="41" height="41" viewBox="0 0 41 41" fill="none" xmlns="http://www.w3.org/2000/svg">
<g clip-path="url(#clip0_1852_201)">
<path d="M20.5 40.8735C31.5457 40.8735 40.5 31.9192 40.5 20.8735C40.5 9.82784 31.5457 0.873535 20.5 0.873535C9.4543 0.873535 0.5 9.82784 0.5 20.8735C0.5 31.9192 9.4543 40.8735 20.5 40.8735Z" fill="#0177B5"/>
<path d="M29.25 10.8735H11.75C11.4185 10.8735 11.1005 11.0052 10.8661 11.2397C10.6317 11.4741 10.5 11.792 10.5 12.1235V29.6235C10.5 29.9551 10.6317 30.273 10.8661 30.5074C11.1005 30.7418 11.4185 30.8735 11.75 30.8735H29.25C29.5815 30.8735 29.8995 30.7418 30.1339 30.5074C30.3683 30.273 30.5 29.9551 30.5 29.6235V12.1235C30.5 11.792 30.3683 11.4741 30.1339 11.2397C29.8995 11.0052 29.5815 10.8735 29.25 10.8735ZM16.75 27.7485H13.625V18.3735H16.75V27.7485ZM15.1875 17.1235C14.8167 17.1235 14.4541 17.0136 14.1458 16.8075C13.8375 16.6015 13.5971 16.3087 13.4552 15.9661C13.3133 15.6235 13.2762 15.2465 13.3485 14.8827C13.4209 14.519 13.5995 14.1849 13.8617 13.9227C14.1239 13.6605 14.458 13.4819 14.8217 13.4096C15.1854 13.3372 15.5624 13.3743 15.905 13.5163C16.2476 13.6582 16.5405 13.8985 16.7465 14.2068C16.9525 14.5152 17.0625 14.8777 17.0625 15.2485C17.0625 15.7458 16.865 16.2227 16.5133 16.5744C16.1617 16.926 15.6848 17.1235 15.1875 17.1235ZM27.375 27.7485H24.25V21.4985C24.25 20.9798 23.55 20.561 22.6875 20.561C21.4375 20.561 21.125 22.2298 21.125 22.7485V27.7485H18V18.3735H21.125V20.561C21.125 18.9985 22.525 18.3735 24.25 18.3735C25.0788 18.3735 25.8737 18.7028 26.4597 19.2888C27.0458 19.8749 27.375 20.6697 27.375 21.4985V27.7485Z" fill="white"/>
</g>
<defs>
<clipPath id="clip0_1852_201">
<rect width="40" height="40" fill="white" transform="translate(0.5 0.873535)"/>
</clipPath>
</defs>
</svg>
