<svg width="36" height="37" viewBox="0 0 36 37" fill="none" xmlns="http://www.w3.org/2000/svg">
<path d="M31.8232 30.5924L31.3612 17.3184H22.1207L21.6592 30.5924H31.8232Z" fill="#FF7581"/>
<path d="M34.0003 30.5924L33.6148 19.5704C33.615 18.9724 33.378 18.3988 32.9558 17.9754C32.7465 17.7661 32.4979 17.6002 32.2242 17.4872C31.9506 17.3742 31.6574 17.3163 31.3613 17.3169L31.7648 30.5919L34.0003 30.5924Z" fill="#FF7581"/>
<path d="M31.8092 30.5926L31.3612 21.4536H30.8662L31.3117 30.5926H31.8092Z" fill="#F26678"/>
<path d="M21.7252 30.5924L22.1292 17.3174C21.8333 17.3173 21.5403 17.3755 21.2669 17.4887C20.9935 17.6019 20.7451 17.7679 20.5358 17.9771C20.3265 18.1863 20.1605 18.4347 20.0473 18.7081C19.934 18.9815 19.8757 19.2745 19.8757 19.5704L19.4902 30.5924H21.7252Z" fill="#FF7581"/>
<path d="M22.1504 30.5926L22.6269 21.4536H22.1314L21.7559 30.5926H22.1504Z" fill="#F26678"/>
<path d="M30.2761 17.3184C29.7461 19.3094 28.9851 20.5684 27.4361 20.8164C27.3391 20.8319 27.2361 20.8424 27.1311 20.8504C27.0386 20.8584 26.9411 20.8609 26.8436 20.8609C26.6331 20.8609 26.4356 20.8454 26.2511 20.8159C24.7021 20.5689 23.9411 19.3094 23.4111 17.3184H30.2761Z" fill="#F2F2F2"/>
<path d="M27.4375 20.8165C27.34 20.832 27.2375 20.8425 27.1315 20.8505C27.0395 20.8585 26.942 20.861 26.8445 20.861C26.634 20.861 26.4365 20.8455 26.252 20.816L26.489 18.8145L26.539 18.377H27.15L27.205 18.841L27.4375 20.816V20.8165Z" fill="#4B39A8"/>
<path d="M27.4368 20.8164C27.3393 20.8319 27.2368 20.8424 27.1308 20.8504L26.9282 19.1174L26.8438 18.3774H27.1493L27.2043 18.8409L27.4368 20.8159V20.8164Z" fill="#382F93"/>
<path d="M28.0453 18.0005L26.8593 19.186L25.6738 18.0005H28.0453Z" fill="#4B39A8"/>
<path d="M28.2762 15.2373V17.3163L26.8437 18.0003L25.4102 17.3163V15.2373H28.2762Z" fill="#FDC7B4"/>
<path d="M28.2762 15.2373V16.7273C27.2612 16.7748 26.3112 16.5323 25.4102 16.0463V15.2373H28.2762Z" fill="#EFB5A3"/>
<path d="M29.1199 17.3185L27.9979 18.833L26.8439 18.0005L28.2769 16.752L29.0989 17.3155L29.1199 17.3185ZM24.5674 17.3185L25.6894 18.833L26.8439 18.0005L25.4104 16.752L24.5884 17.3155L24.5674 17.3185Z" fill="#CCCCCC"/>
<path d="M31.1717 9.53769C31.5137 10.4692 30.8167 12.5302 29.8907 12.9597C29.1807 13.2892 28.3017 12.4567 28.0387 11.4117C27.7747 10.3642 28.1772 9.35919 28.9357 9.16819C29.6957 8.97669 30.7992 8.52319 31.1717 9.53769ZM25.4082 10.4807C25.6717 11.5257 25.2692 12.5307 24.5092 12.7222C23.7507 12.9132 22.9202 12.2187 22.6572 11.1737C22.3932 10.1262 22.7957 9.12119 23.5542 8.93019C24.3142 8.73869 25.1442 9.43319 25.4082 10.4807Z" fill="#34324C"/>
<path d="M29.6399 13.549C30.0263 13.549 30.3394 13.1837 30.3394 12.733C30.3394 12.2823 30.0263 11.917 29.6399 11.917C29.2536 11.917 28.9404 12.2823 28.9404 12.733C28.9404 13.1837 29.2536 13.549 29.6399 13.549Z" fill="#FDC7B4"/>
<path d="M29.919 13.1008C29.9071 13.1007 29.8955 13.097 29.8857 13.0902C29.8759 13.0834 29.8684 13.0738 29.8642 13.0627C29.86 13.0515 29.8592 13.0394 29.862 13.0278C29.8649 13.0162 29.8712 13.0057 29.88 12.9978C29.9194 12.9655 29.9513 12.9251 29.9738 12.8794C29.9962 12.8337 30.0086 12.7837 30.01 12.7328C30.0086 12.6819 29.9962 12.6319 29.9738 12.5862C29.9514 12.5405 29.9194 12.5001 29.88 12.4678C29.8703 12.457 29.8649 12.4431 29.8647 12.4286C29.8646 12.4141 29.8699 12.4 29.8795 12.3891C29.8891 12.3783 29.9023 12.3713 29.9167 12.3696C29.9311 12.3678 29.9457 12.3715 29.9575 12.3798C30.0675 12.4763 30.1275 12.6018 30.1275 12.7328C30.1275 12.8638 30.0675 12.9888 29.9575 13.0858C29.9469 13.0953 29.9333 13.1006 29.919 13.1008Z" fill="#EFB5A3"/>
<path d="M24.0901 13.549C24.4764 13.549 24.7896 13.1837 24.7896 12.733C24.7896 12.2823 24.4764 11.917 24.0901 11.917C23.7038 11.917 23.3906 12.2823 23.3906 12.733C23.3906 13.1837 23.7038 13.549 24.0901 13.549Z" fill="#FDC7B4"/>
<path d="M23.8101 13.1008C23.822 13.1008 23.8337 13.0972 23.8436 13.0905C23.8535 13.0837 23.8611 13.0741 23.8653 13.0629C23.8696 13.0517 23.8704 13.0395 23.8676 13.0279C23.8648 13.0163 23.8585 13.0058 23.8496 12.9978C23.8102 12.9655 23.7783 12.9251 23.7558 12.8794C23.7334 12.8337 23.7211 12.7837 23.7196 12.7328C23.7196 12.6363 23.7656 12.5418 23.8491 12.4678C23.8588 12.457 23.8643 12.4431 23.8644 12.4286C23.8645 12.4141 23.8592 12.4 23.8496 12.3891C23.8401 12.3783 23.8268 12.3713 23.8124 12.3696C23.798 12.3678 23.7835 12.3715 23.7716 12.3798C23.7196 12.423 23.6775 12.4769 23.6482 12.5378C23.6188 12.5987 23.6029 12.6652 23.6016 12.7328C23.6016 12.8638 23.6616 12.9888 23.7716 13.0858C23.7826 13.0958 23.7966 13.1008 23.8101 13.1008Z" fill="#EFB5A3"/>
<path d="M29.7306 11.8436V13.3471C29.7306 14.9411 28.4406 16.2371 26.8461 16.2371C26.4665 16.2373 26.0906 16.1627 25.7399 16.0175C25.3892 15.8724 25.0705 15.6595 24.8021 15.3911C24.5337 15.1227 24.3208 14.804 24.1756 14.4533C24.0305 14.1026 23.9559 13.7267 23.9561 13.3471V11.8436C23.9554 11.4639 24.0297 11.0878 24.1747 10.7369C24.3197 10.386 24.5326 10.0671 24.8011 9.79861C25.0695 9.53012 25.3884 9.31727 25.7393 9.17226C26.0903 9.02726 26.4664 8.95296 26.8461 8.95362C27.2253 8.95375 27.6008 9.02863 27.9511 9.17397C28.3014 9.31931 28.6196 9.53227 28.8875 9.80067C29.1555 10.0691 29.3679 10.3877 29.5126 10.7382C29.6574 11.0887 29.7311 11.4644 29.7306 11.8436Z" fill="#FDC7B4"/>
<path d="M25.9648 12.5388C25.9648 12.7388 25.8548 12.9008 25.7173 12.9008C25.5798 12.9008 25.4678 12.7393 25.4678 12.5388C25.4678 12.3383 25.5803 12.1738 25.7178 12.1738C25.8553 12.1738 25.9648 12.3383 25.9648 12.5388ZM28.2198 12.5388C28.2198 12.7388 28.1098 12.9008 27.9728 12.9008C27.8358 12.9008 27.7228 12.7393 27.7228 12.5388C27.7228 12.3383 27.8358 12.1738 27.9728 12.1738C28.1098 12.1738 28.2198 12.3383 28.2198 12.5388Z" fill="#333333"/>
<path d="M25.8356 14.0977C25.8351 14.1127 25.8311 14.1262 25.8311 14.1412C25.8311 14.4098 25.9378 14.6674 26.1277 14.8573C26.3176 15.0472 26.5752 15.1539 26.8438 15.1539C27.1124 15.1539 27.37 15.0472 27.5599 14.8573C27.7499 14.6674 27.8566 14.4098 27.8566 14.1412C27.8566 14.1262 27.8531 14.1127 27.8521 14.0977H25.8356Z" fill="white"/>
<path d="M22.8999 9.54598C22.8999 7.68898 23.3999 6.62598 25.5884 6.62598C27.7769 6.62598 29.5514 8.13148 29.5514 9.98898C29.5514 11.8465 22.8999 11.4035 22.8999 9.54598Z" fill="#34324C"/>
<path d="M26.9981 8.42968C28.0186 7.40968 29.6061 7.33968 30.5411 8.27518C31.4761 9.21018 31.4051 10.7957 30.3846 11.8162C29.3641 12.8367 25.9776 9.45018 26.9981 8.42968Z" fill="#34324C"/>
<path d="M4.69531 17.439H13.2838V29.648H4.69531V17.439Z" fill="#FDDF8C"/>
<path d="M4.69531 29.6479H13.2848V30.5919H4.69531V29.6479Z" fill="#34324C"/>
<path d="M10.4206 17.4409L9.00962 19.5954L7.55762 17.4409H10.4206Z" fill="#FDC7B4"/>
<path d="M4.902 30.5925V17.439H4.441C3.79369 17.439 3.17289 17.6961 2.71513 18.1537C2.25737 18.6114 2.00013 19.2322 2 19.8795V30.5925H4.902Z" fill="#FDDF8C"/>
<path d="M4.90234 22.0386H5.10934V29.6486H4.90234V22.0386Z" fill="#F2CF77"/>
<path d="M15.6735 30.5925V19.8795C15.6734 19.2322 15.4161 18.6114 14.9584 18.1537C14.5006 17.6961 13.8798 17.439 13.2325 17.439H12.7715V30.5925H15.6735Z" fill="#FDDF8C"/>
<path d="M12.7715 29.6476H12.5645V22.0376H12.7715V29.6476Z" fill="#F2CF77"/>
<path d="M5.45095 16.382C5.45095 16.382 5.92595 13.206 5.63945 12.091C5.63945 12.091 3.85245 9.48555 5.66095 8.04705C6.72695 7.19905 7.44195 7.59555 7.44195 7.59555C7.44195 7.59555 8.66945 5.65705 11.117 7.26205C14.2225 9.29855 11.2305 14.7115 12.461 16.382C10.2 17.111 7.86595 17.1355 5.45095 16.382Z" fill="#373754"/>
<path d="M10.453 14.9648L10.4735 17.4408H7.60546L7.58496 14.9648H10.453Z" fill="#FDC7B4"/>
<path d="M10.453 14.9648V16.4558C9.43796 16.5038 8.48646 16.2608 7.58496 15.7748V14.9648H10.453Z" fill="#EFB5A3"/>
<path d="M11.8172 13.2756C12.2038 13.2756 12.5172 12.91 12.5172 12.4591C12.5172 12.0081 12.2038 11.6426 11.8172 11.6426C11.4306 11.6426 11.1172 12.0081 11.1172 12.4591C11.1172 12.91 11.4306 13.2756 11.8172 13.2756Z" fill="#FDC7B4"/>
<path d="M12.0968 12.8266C12.0849 12.8266 12.0732 12.8229 12.0634 12.8161C12.0536 12.8093 12.0461 12.7997 12.0419 12.7885C12.0377 12.7774 12.0369 12.7652 12.0398 12.7536C12.0426 12.742 12.0489 12.7316 12.0578 12.7236C12.0971 12.6913 12.1291 12.6509 12.1515 12.6052C12.1739 12.5595 12.1863 12.5095 12.1878 12.4586C12.1863 12.4077 12.1739 12.3578 12.1515 12.3121C12.1291 12.2663 12.0971 12.226 12.0578 12.1936C12.0465 12.1832 12.0397 12.1687 12.0389 12.1533C12.0381 12.1379 12.0434 12.1229 12.0536 12.1113C12.0637 12.0997 12.0781 12.0926 12.0934 12.0915C12.1088 12.0903 12.124 12.0952 12.1358 12.1051C12.2458 12.2021 12.3058 12.3276 12.3058 12.4586C12.3058 12.5896 12.2458 12.7151 12.1358 12.8121C12.125 12.8217 12.1112 12.8271 12.0968 12.8271V12.8266Z" fill="#EFB5A3"/>
<path d="M6.26348 13.2756C6.65008 13.2756 6.96348 12.91 6.96348 12.4591C6.96348 12.0081 6.65008 11.6426 6.26348 11.6426C5.87688 11.6426 5.56348 12.0081 5.56348 12.4591C5.56348 12.91 5.87688 13.2756 6.26348 13.2756Z" fill="#FDC7B4"/>
<path d="M5.98341 12.8266C5.99534 12.8266 6.00697 12.8229 6.01676 12.8161C6.02656 12.8093 6.03406 12.7997 6.03829 12.7885C6.04251 12.7774 6.04325 12.7652 6.04042 12.7536C6.03759 12.742 6.03131 12.7316 6.02241 12.7236C5.98308 12.6913 5.95112 12.6509 5.9287 12.6052C5.90628 12.5595 5.8939 12.5095 5.89241 12.4586C5.89241 12.3616 5.93841 12.2676 6.02241 12.1936C6.03373 12.1832 6.0405 12.1687 6.04129 12.1533C6.04208 12.1379 6.03682 12.1229 6.02663 12.1113C6.01644 12.0997 6.00214 12.0926 5.98678 12.0915C5.97141 12.0903 5.95621 12.0952 5.94441 12.1051C5.89237 12.1484 5.85024 12.2024 5.82091 12.2634C5.79157 12.3244 5.77572 12.391 5.77441 12.4586C5.77441 12.5896 5.83441 12.7151 5.94441 12.8121C5.95591 12.8221 5.96941 12.8271 5.98341 12.8271V12.8266Z" fill="#EFB5A3"/>
<path d="M11.9109 10.8339V13.0739C11.9105 13.8405 11.6058 14.5755 11.0637 15.1175C10.5216 15.6595 9.78648 15.9641 9.01991 15.9644C7.41991 15.9644 6.12891 14.6694 6.12891 13.0734V10.8334C6.12891 9.93388 6.53891 9.12838 7.18291 8.60138C7.69974 8.17442 8.34953 7.94149 9.01991 7.94288C9.81791 7.94288 10.5409 8.26638 11.0639 8.78988C11.3328 9.058 11.546 9.3766 11.6913 9.72737C11.8367 10.0781 11.9113 10.4542 11.9109 10.8339Z" fill="#FDC7B4"/>
<path d="M8.1391 12.2644C8.1391 12.4654 8.0291 12.6269 7.8916 12.6269C7.7546 12.6269 7.6416 12.4654 7.6416 12.2644C7.6416 12.0634 7.7546 11.8994 7.8916 11.8994C8.0286 11.8994 8.1391 12.0639 8.1391 12.2644ZM10.3961 12.2644C10.3961 12.4654 10.2861 12.6269 10.1486 12.6269C10.0116 12.6269 9.8986 12.4654 9.8986 12.2644C9.8986 12.0634 10.0116 11.8994 10.1486 11.8994C10.2856 11.8994 10.3961 12.0639 10.3961 12.2644Z" fill="#333333"/>
<path d="M8.00986 13.8247C8.00986 13.8397 8.00586 13.8532 8.00586 13.8682C8.00586 14.137 8.11264 14.3948 8.30271 14.5849C8.49277 14.7749 8.75056 14.8817 9.01936 14.8817C9.28816 14.8817 9.54594 14.7749 9.73601 14.5849C9.92608 14.3948 10.0329 14.137 10.0329 13.8682C10.0329 13.8532 10.0294 13.8397 10.0284 13.8247H8.00986Z" fill="white"/>
<path d="M12.0379 10.7652L11.9099 11.6627C11.9099 12.6077 11.4619 13.1757 11.4619 13.1757C11.4619 13.1757 11.3379 12.2837 10.8109 11.3617C10.2839 10.4392 8.55243 9.85168 7.78093 9.57718C7.63194 9.52717 7.49656 9.44331 7.38543 9.33218C7.31043 10.2997 6.17343 12.9237 6.12793 12.8407V10.8347C6.12793 9.93468 6.49893 9.05318 7.14293 8.52668C7.65956 8.09965 8.30916 7.86655 8.97943 7.86768C9.77743 7.86768 10.5004 8.19118 11.0234 8.71468C11.5469 9.23768 12.0379 9.96768 12.0379 10.7652Z" fill="#373754"/>
<path d="M25.7955 30.5921L25.3505 18.0381C25.3346 17.6509 25.1696 17.2849 24.8901 17.0165C24.6105 16.7481 24.238 16.5982 23.8505 16.5981H22.2445L22.7485 30.5921H25.7955ZM13.2565 30.5921L13.7605 16.5981H12.154C11.7665 16.5982 11.394 16.7481 11.1144 17.0165C10.8348 17.2849 10.6699 17.6509 10.654 18.0381L10.209 30.5921H13.2565Z" fill="#98A2F5"/>
<path d="M12.7169 30.5922H24.0159V16.5962H14.2304C13.4139 16.5962 12.3244 17.1097 12.0469 17.8342H12.7169V30.5922Z" fill="#D7E9F9"/>
<path d="M19.4549 28.8309L18.0094 30.2289L16.5664 28.8309L17.6464 17.0469H18.3744L19.4549 28.8309Z" fill="#FF7581"/>
<path d="M18.0098 30.2289L19.0423 28.5374L18.0098 17.0469H18.3748L19.4553 28.8309L18.0098 30.2289Z" fill="#F26678"/>
<path d="M19.4437 16.5981L18.0292 18.0121L16.6152 16.5981H19.4437Z" fill="#FF7581"/>
<path d="M15.4885 30.5922C15.489 30.5837 15.4905 30.5757 15.4915 30.5672L16.314 16.5972H12.005L11.5 30.5927H15.488L15.4885 30.5922ZM20.5325 30.5922H24.52L24.015 16.5972H19.589L20.529 30.5672L20.5325 30.5922Z" fill="#98A2F5"/>
<path d="M16.3143 16.5977H18.0108L16.1973 18.1117L16.3143 16.5977Z" fill="#C5DAF5"/>
<path d="M19.7003 18.1117L18.1648 16.8222L17.9258 16.5977H19.5888L19.7003 18.1117Z" fill="#C5DAF5"/>
<path d="M23.6255 30.5924L23.2935 22.1109H22.9405L23.2725 30.5924H23.6255ZM12.748 30.5924L13.0795 22.1089H12.729L12.3945 30.5924H12.748Z" fill="#6675E9"/>
<path d="M16.3145 14.2217H19.5895V16.5982H16.3145V14.2217Z" fill="#FDC7B4"/>
<path d="M19.5895 14.2217V15.9247C18.4295 15.9792 17.3435 15.7017 16.3145 15.1467V14.2217H19.5895Z" fill="#EFB5A3"/>
<path d="M21.1462 12.2927C21.5877 12.2927 21.9457 11.8752 21.9457 11.3602C21.9457 10.8452 21.5877 10.4277 21.1462 10.4277C20.7046 10.4277 20.3467 10.8452 20.3467 11.3602C20.3467 11.8752 20.7046 12.2927 21.1462 12.2927Z" fill="#FDC7B4"/>
<path d="M14.8044 12.2927C15.2459 12.2927 15.6039 11.8752 15.6039 11.3602C15.6039 10.8452 15.2459 10.4277 14.8044 10.4277C14.3628 10.4277 14.0049 10.8452 14.0049 11.3602C14.0049 11.8752 14.3628 12.2927 14.8044 12.2927Z" fill="#FDC7B4"/>
<path d="M21.2524 10.3418V12.0583C21.2527 12.492 21.1676 12.9216 21.0019 13.3225C20.8361 13.7234 20.5931 14.0877 20.2865 14.3946C19.98 14.7015 19.616 14.945 19.2153 15.1112C18.8147 15.2774 18.3852 15.3631 17.9514 15.3633C17.5176 15.3631 17.0881 15.2774 16.6875 15.1112C16.2868 14.945 15.9228 14.7015 15.6163 14.3946C15.3097 14.0877 15.0666 13.7234 14.9009 13.3225C14.7352 12.9216 14.6501 12.492 14.6504 12.0583V10.3418C14.6507 9.68901 14.8445 9.051 15.2073 8.50833C15.5701 7.96567 16.0856 7.54271 16.6887 7.29289C17.2917 7.04307 17.9553 6.9776 18.5956 7.10475C19.2358 7.23191 19.824 7.54597 20.2859 8.00727C20.5931 8.31345 20.8367 8.67741 21.0025 9.07816C21.1684 9.47892 21.2533 9.90805 21.2524 10.3418Z" fill="#FDC7B4"/>
<path d="M16.9469 11.1382C16.9469 11.3672 16.8214 11.5517 16.6649 11.5517C16.5084 11.5517 16.3799 11.3672 16.3799 11.1382C16.3799 10.9087 16.5079 10.7217 16.6649 10.7217C16.8219 10.7217 16.9469 10.9087 16.9469 11.1382ZM19.5244 11.1382C19.5244 11.3672 19.3984 11.5517 19.2419 11.5517C19.0854 11.5517 18.9569 11.3672 18.9569 11.1382C18.9569 10.9087 19.0854 10.7217 19.2419 10.7217C19.3984 10.7217 19.5244 10.9087 19.5244 11.1382Z" fill="#333333"/>
<path d="M21.4501 11.7975C21.4352 11.7976 21.4206 11.7931 21.4083 11.7846C21.396 11.7761 21.3866 11.7641 21.3812 11.7502C21.3759 11.7362 21.375 11.721 21.3785 11.7065C21.3821 11.692 21.39 11.6789 21.4011 11.669C21.5061 11.5765 21.5636 11.459 21.5636 11.339C21.5636 11.218 21.5056 11.1005 21.4016 11.008C21.3885 10.9948 21.381 10.977 21.3804 10.9584C21.3799 10.9398 21.3865 10.9217 21.3988 10.9077C21.4111 10.8937 21.4283 10.885 21.4468 10.8832C21.4653 10.8814 21.4839 10.8867 21.4986 10.898C21.6351 11.019 21.7106 11.175 21.7106 11.3385C21.7106 11.502 21.6356 11.6585 21.4986 11.7795C21.4852 11.7911 21.468 11.7975 21.4501 11.7975ZM14.4626 11.841C14.4777 11.8411 14.4923 11.8365 14.5047 11.828C14.517 11.8195 14.5265 11.8074 14.5318 11.7934C14.537 11.7793 14.5379 11.764 14.5342 11.7495C14.5305 11.7349 14.5225 11.7218 14.5111 11.712C14.4066 11.6195 14.3491 11.502 14.3491 11.382C14.3491 11.261 14.4066 11.1435 14.5111 11.0515C14.5242 11.0383 14.5318 11.0205 14.5324 11.0019C14.5329 10.9833 14.5263 10.9652 14.514 10.9512C14.5017 10.9372 14.4845 10.9285 14.466 10.9267C14.4475 10.9249 14.4289 10.9302 14.4141 10.9415C14.2771 11.0615 14.2021 11.2185 14.2021 11.3815C14.2021 11.545 14.2771 11.7015 14.4136 11.8225C14.4272 11.8344 14.4446 11.841 14.4626 11.841Z" fill="#EFB5A3"/>
<path d="M17.9527 5.62724C20.0372 5.58524 21.6577 7.25824 21.8617 7.83374C22.0657 8.40974 21.2547 11.3387 21.2547 11.3387H20.7467L20.5022 9.06024C20.5022 9.06024 19.8082 8.23574 18.3947 8.78674C18.1887 8.86674 17.7167 8.86674 17.5107 8.78674C16.0972 8.23574 15.4027 9.06024 15.4027 9.06024L15.1582 11.3387H14.6507C14.6507 11.3387 13.8397 8.40974 14.0437 7.83374C14.2472 7.25824 15.8682 5.58524 17.9527 5.62724Z" fill="#373754"/>
<path d="M21.2524 11.3374V12.0584C21.2527 12.4922 21.1676 12.9218 21.0019 13.3226C20.8361 13.7235 20.5931 14.0878 20.2865 14.3947C19.98 14.7016 19.616 14.9451 19.2153 15.1113C18.8147 15.2776 18.3852 15.3632 17.9514 15.3634C17.5176 15.3632 17.0881 15.2776 16.6875 15.1113C16.2868 14.9451 15.9228 14.7016 15.6163 14.3947C15.3097 14.0878 15.0666 13.7235 14.9009 13.3226C14.7352 12.9218 14.6501 12.4922 14.6504 12.0584V11.3374H15.1459C15.6678 11.6598 16.0979 12.1111 16.3949 12.6479C17.3749 12.1789 18.3969 12.1699 19.4629 12.6479C19.6964 12.1114 20.1549 11.6909 20.7449 11.3379H21.2524V11.3374Z" fill="#373754"/>
<path d="M16.9847 13.0176C16.9847 13.0316 16.9807 13.0446 16.9807 13.0591C16.9778 13.1885 17.0007 13.3172 17.0482 13.4376C17.0957 13.558 17.1668 13.6677 17.2573 13.7602C17.3477 13.8528 17.4558 13.9263 17.5751 13.9765C17.6944 14.0268 17.8225 14.0526 17.952 14.0526C18.0814 14.0526 18.2095 14.0268 18.3288 13.9765C18.4481 13.9263 18.5562 13.8528 18.6467 13.7602C18.7371 13.6677 18.8082 13.558 18.8557 13.4376C18.9032 13.3172 18.9262 13.1885 18.9232 13.0591C18.9232 13.0446 18.9197 13.0316 18.9192 13.0176H16.9847Z" fill="white"/>
</svg>
