<svg width="36" height="37" fill="none" xmlns="http://www.w3.org/2000/svg"><path d="m31.823 30.592-.462-13.274h-9.24l-.462 13.274h10.164Z" fill="#FF7581"/><path d="m34 30.592-.385-11.022a2.258 2.258 0 0 0-1.39-2.083 2.248 2.248 0 0 0-.864-.17l.404 13.275H34Z" fill="#FF7581"/><path d="m31.81 30.593-.449-9.14h-.495l.446 9.14h.497Z" fill="#F26678"/><path d="m21.725 30.592.404-13.275a2.252 2.252 0 0 0-2.253 2.253l-.386 11.022h2.235Z" fill="#FF7581"/><path d="m22.15 30.593.477-9.14h-.496l-.375 9.14h.394Z" fill="#F26678"/><path d="M30.276 17.318c-.53 1.991-1.29 3.25-2.84 3.498a3.765 3.765 0 0 1-.592.045 3.83 3.83 0 0 1-.593-.045c-1.549-.247-2.31-1.507-2.84-3.498h6.865Z" fill="#F2F2F2"/><path d="M27.438 20.817a3.765 3.765 0 0 1-.593.044c-.211 0-.409-.015-.593-.045l.237-2.002.05-.437h.611l.055.464.233 1.975Z" fill="#4B39A8"/><path d="M27.437 20.816c-.098.016-.2.026-.306.034l-.203-1.733-.084-.74h.305l.055.464.233 1.975Z" fill="#382F93"/><path d="m28.045 18-1.186 1.186L25.674 18h2.371Z" fill="#4B39A8"/><path d="M28.276 15.237v2.08L26.844 18l-1.434-.684v-2.079h2.866Z" fill="#FDC7B4"/><path d="M28.276 15.237v1.49c-1.015.048-1.965-.195-2.866-.68v-.81h2.866Z" fill="#EFB5A3"/><path d="m29.12 17.319-1.122 1.514-1.154-.832 1.433-1.249.822.564.02.003Zm-4.553 0 1.122 1.514 1.155-.832-1.434-1.249-.822.564-.02.003Z" fill="#CCC"/><path d="M31.172 9.538c.342.931-.355 2.992-1.281 3.422-.71.33-1.59-.503-1.852-1.548-.264-1.048.138-2.053.897-2.244.76-.191 1.863-.645 2.236.37Zm-5.764.943c.264 1.045-.139 2.05-.899 2.241-.758.191-1.589-.503-1.852-1.548-.264-1.048.139-2.053.897-2.244.76-.191 1.59.503 1.854 1.55Z" fill="#34324C"/><path d="M29.64 13.549c.386 0 .7-.365.7-.816 0-.45-.314-.816-.7-.816-.386 0-.7.365-.7.816 0 .45.314.816.7.816Z" fill="#FDC7B4"/><path d="M29.919 13.1a.06.06 0 0 1-.057-.072.06.06 0 0 1 .018-.03.357.357 0 0 0 .13-.265.355.355 0 0 0-.13-.265.06.06 0 0 1 .037-.098.058.058 0 0 1 .04.01.47.47 0 0 1 .17.353.47.47 0 0 1-.17.353.059.059 0 0 1-.038.015Z" fill="#EFB5A3"/><path d="M24.09 13.549c.386 0 .7-.365.7-.816 0-.45-.314-.816-.7-.816-.386 0-.7.365-.7.816 0 .45.314.816.7.816Z" fill="#FDC7B4"/><path d="M23.81 13.1a.058.058 0 0 0 .055-.038.059.059 0 0 0-.015-.064.357.357 0 0 1-.13-.265c0-.097.046-.191.13-.265a.06.06 0 0 0 0-.079.059.059 0 0 0-.078-.01.47.47 0 0 0-.17.354c0 .13.06.256.17.353.01.01.025.015.038.015Z" fill="#EFB5A3"/><path d="M29.73 11.844v1.503a2.888 2.888 0 1 1-5.774 0v-1.503a2.884 2.884 0 0 1 2.89-2.89 2.886 2.886 0 0 1 2.885 2.89Z" fill="#FDC7B4"/><path d="M25.965 12.539c0 .2-.11.362-.248.362-.137 0-.25-.162-.25-.362 0-.2.113-.365.25-.365.138 0 .248.164.248.365Zm2.255 0c0 .2-.11.362-.247.362s-.25-.162-.25-.362c0-.2.113-.365.25-.365s.247.164.247.365Z" fill="#333"/><path d="M25.836 14.098c0 .015-.005.028-.005.043a1.013 1.013 0 1 0 2.026 0c0-.015-.004-.028-.005-.043h-2.016Z" fill="#fff"/><path d="M22.9 9.546c0-1.857.5-2.92 2.688-2.92 2.189 0 3.963 1.505 3.963 3.363 0 1.857-6.651 1.414-6.651-.443Z" fill="#34324C"/><path d="M26.998 8.43c1.02-1.02 2.608-1.09 3.543-.155s.864 2.52-.156 3.541c-1.02 1.02-4.407-2.366-3.387-3.386Z" fill="#34324C"/><path d="M4.695 17.439h8.589v12.209H4.695V17.439Z" fill="#FDDF8C"/><path d="M4.695 29.648h8.59v.944h-8.59v-.944Z" fill="#34324C"/><path d="m10.42 17.44-1.41 2.155-1.452-2.154h2.863Z" fill="#FDC7B4"/><path d="M4.902 30.593V17.439h-.461A2.441 2.441 0 0 0 2 19.879v10.713h2.902Z" fill="#FDDF8C"/><path d="M4.902 22.039h.207v7.61h-.207v-7.61Z" fill="#F2CF77"/><path d="M15.674 30.593V19.88a2.441 2.441 0 0 0-2.441-2.441h-.462v13.154h2.902Z" fill="#FDDF8C"/><path d="M12.771 29.648h-.207v-7.61h.207v7.61Z" fill="#F2CF77"/><path d="M5.45 16.382s.476-3.176.19-4.291c0 0-1.788-2.605.021-4.044 1.066-.848 1.781-.451 1.781-.451s1.227-1.939 3.675-.334c3.105 2.037.113 7.45 1.344 9.12-2.261.729-4.595.753-7.01 0Z" fill="#373754"/><path d="m10.453 14.965.02 2.476H7.605l-.02-2.476h2.868Z" fill="#FDC7B4"/><path d="M10.453 14.965v1.49c-1.015.049-1.967-.194-2.868-.68v-.81h2.868Z" fill="#EFB5A3"/><path d="M11.817 13.276c.387 0 .7-.366.7-.817 0-.45-.313-.816-.7-.816-.386 0-.7.365-.7.816 0 .451.314.817.7.817Z" fill="#FDC7B4"/><path d="M12.097 12.827a.059.059 0 0 1-.057-.073.059.059 0 0 1 .018-.03.356.356 0 0 0 .13-.265.357.357 0 0 0-.13-.265.059.059 0 0 1 .078-.089c.11.097.17.223.17.354 0 .13-.06.256-.17.353a.059.059 0 0 1-.04.015Z" fill="#EFB5A3"/><path d="M6.263 13.276c.387 0 .7-.366.7-.817 0-.45-.313-.816-.7-.816-.386 0-.7.365-.7.816 0 .451.314.817.7.817Z" fill="#FDC7B4"/><path d="M5.983 12.827a.058.058 0 0 0 .055-.038.059.059 0 0 0-.016-.065.356.356 0 0 1-.13-.265c0-.097.046-.191.13-.265a.059.059 0 0 0-.035-.103.059.059 0 0 0-.043.014.472.472 0 0 0-.17.354c0 .13.06.256.17.353a.06.06 0 0 0 .04.015Z" fill="#EFB5A3"/><path d="M11.91 10.834v2.24a2.892 2.892 0 0 1-5.781 0v-2.24c0-.9.41-1.706 1.054-2.233a2.875 2.875 0 0 1 1.837-.658 2.88 2.88 0 0 1 2.044.847 2.88 2.88 0 0 1 .847 2.044Z" fill="#FDC7B4"/><path d="M8.14 12.264c0 .201-.11.363-.248.363-.137 0-.25-.162-.25-.363 0-.2.113-.365.25-.365s.247.165.247.365Zm2.256 0c0 .201-.11.363-.247.363s-.25-.162-.25-.363c0-.2.113-.365.25-.365s.247.165.247.365Z" fill="#333"/><path d="M8.01 13.825c0 .015-.004.028-.004.043a1.014 1.014 0 0 0 2.027 0c0-.015-.004-.028-.005-.043H8.01Z" fill="#fff"/><path d="m12.038 10.765-.128.898c0 .945-.448 1.513-.448 1.513s-.124-.892-.651-1.814c-.527-.923-2.259-1.51-3.03-1.785a1.017 1.017 0 0 1-.396-.245c-.075.968-1.212 3.592-1.257 3.509v-2.006c0-.9.37-1.782 1.015-2.308a2.875 2.875 0 0 1 1.836-.66 2.88 2.88 0 0 1 2.044.848c.524.523 1.015 1.253 1.015 2.05Z" fill="#373754"/><path d="m25.796 30.592-.445-12.554a1.502 1.502 0 0 0-1.5-1.44h-1.607l.505 13.994h3.047Zm-12.54 0 .505-13.994h-1.607a1.502 1.502 0 0 0-1.5 1.44l-.445 12.554h3.048Z" fill="#98A2F5"/><path d="M12.717 30.592h11.299V16.596H14.23c-.816 0-1.906.514-2.183 1.238h.67v12.758Z" fill="#D7E9F9"/><path d="m19.455 28.83-1.446 1.399-1.443-1.398 1.08-11.784h.728l1.08 11.784Z" fill="#FF7581"/><path d="m18.01 30.229 1.032-1.692-1.032-11.49h.365l1.08 11.784-1.445 1.398Z" fill="#F26678"/><path d="m19.444 16.598-1.415 1.414-1.414-1.414h2.829Z" fill="#FF7581"/><path d="m15.489 30.592.002-.025.823-13.97h-4.309L11.5 30.593h3.988Zm5.043 0h3.988l-.505-13.995h-4.426l.94 13.97.003.025Z" fill="#98A2F5"/><path d="M16.314 16.598h1.697l-1.814 1.514.117-1.514Z" fill="#C5DAF5"/><path d="m19.7 18.112-1.535-1.29-.24-.224h1.664l.111 1.514Z" fill="#C5DAF5"/><path d="m23.625 30.592-.331-8.481h-.354l.332 8.481h.354Zm-10.877 0 .332-8.483h-.351l-.334 8.483h.353Z" fill="#6675E9"/><path d="M16.314 14.222h3.276v2.376h-3.276v-2.376Z" fill="#FDC7B4"/><path d="M19.59 14.222v1.703c-1.16.054-2.247-.223-3.276-.778v-.925h3.276Z" fill="#EFB5A3"/><path d="M21.146 12.293c.442 0 .8-.418.8-.933 0-.515-.358-.932-.8-.932-.441 0-.8.417-.8.932 0 .515.359.933.8.933Zm-6.342 0c.442 0 .8-.418.8-.933 0-.515-.358-.932-.8-.932-.441 0-.8.417-.8.932 0 .515.359.933.8.933Z" fill="#FDC7B4"/><path d="M21.252 10.342v1.716a3.304 3.304 0 0 1-3.3 3.305 3.302 3.302 0 0 1-3.302-3.305v-1.716a3.302 3.302 0 0 1 6.602 0Z" fill="#FDC7B4"/><path d="M16.947 11.138c0 .23-.126.414-.282.414-.157 0-.285-.185-.285-.414 0-.23.128-.416.285-.416.157 0 .282.187.282.416Zm2.577 0c0 .23-.126.414-.282.414-.157 0-.285-.185-.285-.414 0-.23.128-.416.285-.416.156 0 .282.187.282.416Z" fill="#333"/><path d="M21.45 11.797a.073.073 0 0 1-.069-.047.074.074 0 0 1 .02-.081.443.443 0 0 0 .163-.33.447.447 0 0 0-.162-.331.074.074 0 0 1-.003-.1.073.073 0 0 1 .1-.01.59.59 0 0 1 .212.44c0 .164-.075.32-.212.442a.074.074 0 0 1-.049.018Zm-6.987.044a.073.073 0 0 0 .048-.129.444.444 0 0 1-.162-.33c0-.121.058-.239.162-.33a.074.074 0 0 0 .003-.1.073.073 0 0 0-.1-.01.586.586 0 0 0-.212.44c0 .163.075.32.212.44a.074.074 0 0 0 .049.019Z" fill="#EFB5A3"/><path d="M17.953 5.627c2.084-.042 3.705 1.631 3.909 2.207.204.576-.607 3.505-.607 3.505h-.508l-.245-2.279s-.694-.824-2.107-.273c-.206.08-.678.08-.884 0-1.414-.551-2.108.273-2.108.273l-.245 2.279h-.507s-.811-2.93-.607-3.505c.203-.576 1.824-2.249 3.909-2.207Z" fill="#373754"/><path d="M21.252 11.337v.721a3.303 3.303 0 0 1-4.564 3.053 3.302 3.302 0 0 1-2.038-3.053v-.72h.496c.522.322.952.773 1.249 1.31.98-.47 2.002-.478 3.068 0 .233-.537.692-.957 1.282-1.31h.507Z" fill="#373754"/><path d="M16.985 13.018c0 .014-.004.027-.004.041a.972.972 0 1 0 1.942 0c0-.014-.003-.027-.004-.041h-1.934Z" fill="#fff"/></svg>