<svg width="942" height="45" viewBox="0 0 942 45" fill="none" xmlns="http://www.w3.org/2000/svg">
<path fill-rule="evenodd" clip-rule="evenodd" d="M196.555 5.82022H192.008V11.3818H189.557V15.395H192.008V29.4424H196.555V15.395H199.043V11.3818H196.555V5.82022ZM185.295 3.25C183.625 3.25 182.31 4.55277 182.31 6.24277C182.31 7.89674 183.625 9.20022 185.295 9.20022C187.035 9.20022 188.351 7.89674 188.351 6.24277C188.351 4.55277 187.035 3.25 185.295 3.25ZM257.583 10.9607C256.803 10.9607 256.198 10.3619 256.198 9.58674C256.198 8.84742 256.803 8.24865 257.583 8.24865C258.33 8.24865 258.933 8.84742 258.933 9.58674C258.933 10.3619 258.33 10.9607 257.583 10.9607ZM257.583 8.03853C256.696 8.03853 255.986 8.74236 255.986 9.58674C255.986 10.467 256.696 11.1715 257.583 11.1715C258.437 11.1715 259.147 10.467 259.147 9.58674C259.147 8.74236 258.437 8.03853 257.583 8.03853ZM204.334 18.5295C204.938 16.1357 206.786 14.7976 209.166 14.7976C211.547 14.7976 213.321 16.0997 213.891 18.5295H204.334ZM209.272 10.8189C203.803 10.8189 199.646 14.974 199.646 20.501C199.646 25.9573 203.447 29.9709 209.343 29.9709C212.611 29.9709 215.525 28.7744 217.656 26.5203L214.601 23.5289C213.109 24.9374 211.51 25.9573 209.45 25.9573C206.964 25.9573 205.081 24.5488 204.442 22.191H218.614V21.0998C218.614 14.938 214.779 10.8189 209.272 10.8189ZM249.519 10.8189C247.281 10.8189 245.364 11.6631 244.013 13.1076V3.7437H239.466V29.4424H244.013V19.6206C244.013 17.0159 245.684 15.2195 248.454 15.2195C251.047 15.2195 252.468 16.8035 252.468 19.6206V29.4424H257.015V18.811C257.015 13.8123 253.852 10.8189 249.519 10.8189ZM257.228 9.55213V8.9878H257.583C257.868 8.9878 257.975 9.09445 257.975 9.27067C257.975 9.44636 257.868 9.55213 257.583 9.55213H257.228ZM258.187 9.27067C258.187 8.91876 257.938 8.77697 257.583 8.77697H257.015V10.3963H257.228V9.76296H257.583L257.975 10.3963H258.222L257.797 9.72853C258.046 9.6918 258.187 9.55213 258.187 9.27067ZM229.911 15.1849C231.829 15.1849 233.392 16.1702 234.6 17.5443L237.761 14.4457C235.986 12.2274 233.179 10.8189 229.983 10.8189C224.477 10.8189 220.142 14.974 220.142 20.3943C220.142 25.8163 224.477 29.9709 229.983 29.9709C233.179 29.9709 235.986 28.562 237.761 26.346L234.6 23.2474C233.428 24.585 231.829 25.6054 229.876 25.6054C226.962 25.6054 224.724 23.3527 224.724 20.3943C224.724 17.4369 226.962 15.1849 229.911 15.1849ZM183.057 29.4424H187.605V11.3818H183.057V29.4424ZM150.163 25.6054C147.249 25.6054 144.94 23.3181 144.94 20.3599C144.94 17.4369 147.249 15.1849 150.163 15.1849C153.111 15.1849 155.42 17.4369 155.42 20.3943C155.42 23.3527 153.111 25.6054 150.163 25.6054ZM150.163 10.8189C144.656 10.8189 140.323 14.974 140.323 20.3943C140.323 25.8163 144.656 29.9709 150.163 29.9709C155.669 29.9709 160.002 25.8163 160.002 20.3943C160.002 14.974 155.669 10.8189 150.163 10.8189ZM134 29.4424H138.548V3.7437H134V29.4424ZM171.405 25.6054C168.493 25.6054 166.184 23.3181 166.184 20.3599C166.184 17.4369 168.493 15.1849 171.405 15.1849C174.354 15.1849 176.663 17.4369 176.663 20.3943C176.663 23.3527 174.354 25.6054 171.405 25.6054ZM181.068 14.974V11.3818H174.673C173.644 11.0313 172.543 10.8189 171.405 10.8189C165.9 10.8189 161.567 14.974 161.567 20.3943C161.567 25.8163 165.9 29.9709 171.405 29.9709C176.911 29.9709 181.246 25.8163 181.246 20.3943C181.246 18.564 180.748 16.7691 179.753 15.431L181.068 14.974ZM171.405 35.8501C168.493 35.8501 166.184 33.5975 166.184 30.6754H161.567C161.567 36.0971 165.9 40.25 171.405 40.25C176.911 40.25 181.246 36.0971 181.246 30.6754H176.627C176.627 33.5975 174.317 35.8501 171.405 35.8501Z" fill="#969696"/>
<path fill-rule="evenodd" clip-rule="evenodd" d="M301.992 30.6452C302.233 30.775 302.541 30.7622 302.754 30.5698L302.762 30.5768C303.406 30.0008 304.576 28.9783 305.235 28.4232C305.498 28.2077 305.451 27.8568 305.246 27.5618C305.183 27.4746 305.119 27.389 305.057 27.304C304.529 26.5912 304.028 25.9143 304.028 24.5567V19.5048C304.028 19.3309 304.029 19.1582 304.03 18.9868C304.042 17.0478 304.052 15.2788 302.611 13.9243C301.373 12.7307 299.322 12.3096 297.753 12.3096C294.684 12.3096 291.259 13.4616 290.541 17.2747C290.465 17.6797 290.759 17.8927 291.023 17.9522L294.148 18.2925C294.441 18.2778 294.653 17.9887 294.709 17.6966C294.977 16.3831 296.071 15.7494 297.301 15.7494C297.964 15.7494 298.719 15.9951 299.111 16.5917C299.516 17.1889 299.51 17.9832 299.504 18.6972C299.503 18.7804 299.503 18.8625 299.503 18.9431V19.3643C299.213 19.397 298.909 19.428 298.595 19.4599C296.891 19.6338 294.917 19.835 293.439 20.4876C291.418 21.3652 290 23.155 290 25.7875C290 29.1567 292.111 30.8412 294.827 30.8412C297.12 30.8412 298.374 30.2972 300.144 28.4843C300.233 28.6146 300.314 28.7348 300.389 28.8479C300.809 29.4741 301.085 29.8869 301.992 30.6452ZM299.503 22.8293C299.503 22.7745 299.503 22.7192 299.503 22.6636V21.9618C297.17 21.9618 294.706 22.4642 294.706 25.2258C294.706 26.6294 295.43 27.5772 296.667 27.5772C297.572 27.5772 298.387 27.016 298.899 26.1034C299.505 25.0296 299.504 24.0199 299.503 22.8293ZM345.031 30.5698C344.817 30.7622 344.51 30.775 344.269 30.6452C343.361 29.8864 343.085 29.4734 342.665 28.8464L342.665 28.8461C342.59 28.7335 342.51 28.614 342.42 28.4843C340.65 30.2972 339.396 30.8412 337.103 30.8412C334.388 30.8412 332.276 29.1567 332.276 25.7875C332.276 23.155 333.694 21.3652 335.715 20.4876C337.194 19.835 339.167 19.6337 340.872 19.4599C341.185 19.428 341.489 19.397 341.78 19.3643V18.9431C341.78 18.863 341.78 18.7814 341.781 18.6988V18.6984C341.787 17.9841 341.793 17.1892 341.387 16.5917C340.995 15.9951 340.241 15.7494 339.577 15.7494C338.347 15.7494 337.254 16.3831 336.985 17.6966C336.929 17.9887 336.717 18.2778 336.425 18.2925L333.299 17.9522C333.035 17.8927 332.742 17.6797 332.818 17.2747C333.536 13.4616 336.961 12.3096 340.03 12.3096C341.598 12.3096 343.65 12.7307 344.887 13.9243C346.328 15.2785 346.318 17.0472 346.307 18.9858C346.306 19.1575 346.305 19.3306 346.305 19.5048V24.5567C346.305 25.9133 346.805 26.5903 347.332 27.3025L347.332 27.3027C347.395 27.3882 347.459 27.4741 347.522 27.5618C347.728 27.8568 347.774 28.2077 347.511 28.4232C346.853 28.9783 345.682 30.0008 345.038 30.5768L345.031 30.5698ZM341.779 22.6636L341.78 22.8275C341.781 24.0189 341.782 25.029 341.176 26.1034C340.663 27.016 339.849 27.5772 338.943 27.5772C337.707 27.5772 336.983 26.6294 336.983 25.2258C336.983 22.4642 339.446 21.9618 341.779 21.9618V22.6636ZM429.785 30.0173C429.785 30.3432 430.052 30.6055 430.387 30.6158H431.797C432.12 30.5948 432.376 30.337 432.376 30.0181L432.377 20.4251C432.377 18.9542 432.527 17.5182 433.31 16.3625C433.919 15.4522 434.946 14.6717 435.961 14.6147C436.94 14.6665 437.874 15.3198 438.395 16.3272C438.846 17.203 438.906 18.3587 438.906 19.3393L438.913 30.0173C438.913 30.3432 439.181 30.6055 439.515 30.6158H440.925C441.22 30.5963 441.458 30.3807 441.499 30.1049V21.0202L441.498 20.8544C441.497 19.2533 441.497 17.9959 442.341 16.6075C443.009 15.4923 444.042 14.671 445.168 14.6147C446.176 14.6658 447.113 15.3562 447.606 16.4674C448.039 17.4452 448.034 18.5651 448.028 19.6478C448.028 19.7673 448.027 19.8863 448.027 20.0047V30.099C448.068 30.3866 448.318 30.6062 448.623 30.6158H450.04C450.364 30.5948 450.619 30.337 450.619 30.0181L450.619 20.0047L450.619 19.8222V19.822C450.62 18.2152 450.622 16.3434 449.897 14.9266C449.114 13.3858 447.609 12.3703 446.044 12.3703L445.915 12.3721L445.799 12.3703C443.585 12.3703 441.906 13.9589 441.015 16.1963C440.444 13.9302 438.905 12.3703 436.802 12.3703L436.683 12.3721L436.559 12.3703C434.576 12.3703 433.008 13.8768 432.166 15.7998V13.3729C432.14 13.0643 431.872 12.8249 431.546 12.8249L430.363 12.8253C430.055 12.8451 429.808 13.079 429.785 13.3726V30.0173ZM308.337 30.6114H311.562C311.906 30.6114 312.185 30.3447 312.184 30.0122L312.185 21.1909L312.185 20.9816C312.182 19.0777 312.178 16.6031 314.413 16.6031C316.469 16.6031 316.434 18.8089 316.406 20.603V20.603V20.6031V20.6031V20.6032V20.6032V20.6033V20.6033V20.6034C316.403 20.8057 316.4 21.0028 316.4 21.1909L316.403 30.0137C316.403 30.3326 316.659 30.5904 316.982 30.6114H320.203C320.547 30.6114 320.825 30.3447 320.825 30.0122V21.1909C320.825 21.1197 320.825 21.046 320.825 20.9701C320.823 20.0376 320.82 18.7813 321.126 18.0041C321.457 17.1633 322.27 16.638 323.053 16.638C323.986 16.638 324.709 16.9533 324.949 18.074C325.071 18.6116 325.055 19.858 325.044 20.6862L325.044 20.687C325.042 20.8835 325.04 21.0565 325.04 21.1909L325.04 30.0137C325.04 30.3326 325.296 30.5904 325.619 30.6114H328.841C329.184 30.6114 329.463 30.3447 329.463 30.0122L329.465 19.5099C329.465 19.2523 329.47 18.9895 329.474 18.7242C329.5 17.1508 329.528 15.4903 328.652 14.2917C327.749 13.0309 326.274 12.4707 324.919 12.4707C323.023 12.4707 321.247 13.4513 320.464 15.5526C319.561 13.4513 318.296 12.4707 316.28 12.4707C314.293 12.4707 312.818 13.4513 312.035 15.5526H311.975V13.3795C311.955 13.0761 311.703 12.837 311.388 12.8208L308.385 12.8216C308.041 12.8216 307.763 13.0879 307.763 13.4207L307.761 30.0633C307.785 30.359 308.03 30.5911 308.337 30.6114ZM350.23 15.7582V13.3803C350.231 13.0184 350.503 12.7771 350.829 12.7778L361.43 12.7767C361.768 12.7767 362.041 13.0246 362.041 13.3773L362.041 15.4169C362.038 15.7589 361.752 16.2055 361.242 16.9139L355.752 24.7966C357.79 24.7487 359.946 25.0551 361.798 26.1019C362.216 26.3377 362.327 26.6875 362.36 27.0303V29.5675C362.36 29.9173 361.98 30.3219 361.58 30.1115C358.317 28.3931 353.987 28.2047 350.38 30.1321C350.011 30.3296 349.625 29.9309 349.625 29.5811V27.169C349.625 26.7831 349.632 26.1229 350.019 25.5344L356.381 16.3578L350.842 16.357C350.504 16.357 350.232 16.1143 350.23 15.7582ZM350.103 33.87C352.059 33.6347 356.389 33.114 357.163 34.1093C357.937 35.1057 356.303 39.2087 355.572 41.0457L355.571 41.0496C355.349 41.605 355.824 41.829 356.324 41.4086C359.572 38.6768 360.411 32.9525 359.746 32.1257C359.086 31.3069 353.408 30.6 349.942 33.0474C349.409 33.4237 349.501 33.9427 350.092 33.8713L350.103 33.87ZM332.254 43.8822C339.812 43.8822 348.589 41.4928 354.643 37.0007C355.645 36.2573 354.787 35.1421 353.763 35.5791C346.976 38.4734 339.6 39.8737 332.89 39.8737C322.943 39.8737 313.312 37.1294 305.524 32.5726C304.843 32.1738 304.338 32.8771 304.904 33.3913C312.123 39.9454 321.661 43.8822 332.254 43.8822ZM371.197 15.8675C368.818 15.8675 368.668 19.1245 368.668 21.1556L368.668 21.2262C368.667 23.2858 368.667 27.5298 371.167 27.5298C373.665 27.5298 373.785 24.0275 373.785 21.8912C373.785 20.4905 373.725 18.8093 373.304 17.4785C372.942 16.3228 372.22 15.8675 371.197 15.8675ZM371.167 12.4707C375.953 12.4707 378.542 16.6031 378.542 21.8562C378.542 26.9339 375.683 30.9619 371.167 30.9619C366.47 30.9619 363.911 26.8291 363.911 21.6812C363.911 16.4979 366.5 12.4707 371.167 12.4707ZM381.536 30.6114H384.749C385.093 30.6114 385.371 30.3447 385.377 30.0122V21.0507C385.377 19.93 385.438 18.9144 385.889 17.8989C386.25 17.0934 386.973 16.5681 387.755 16.5681C389.81 16.5681 389.79 18.8323 389.775 20.6128L389.775 20.6153C389.774 20.7644 389.772 20.91 389.772 21.0507V30.0869C389.808 30.3715 390.048 30.5919 390.347 30.6114H393.58C393.898 30.6114 394.161 30.3822 394.198 30.0869V19.6148C394.198 18.0041 394.198 15.7626 393.355 14.4319C392.452 12.9959 391.036 12.4707 389.592 12.4707C387.364 12.4707 386.1 13.5561 385.197 15.8325H385.136V13.2869C385.077 13.0287 384.845 12.8352 384.563 12.8208L381.572 12.8216C381.247 12.8216 380.979 13.0607 380.952 13.3648L380.957 30.0137C380.957 30.3326 381.213 30.5904 381.536 30.6114ZM396.219 29.2909C396.219 28.4534 396.93 27.7744 397.807 27.7744C398.684 27.7744 399.394 28.4534 399.394 29.2909C399.394 30.128 398.684 30.8067 397.807 30.8067C396.93 30.8067 396.219 30.128 396.219 29.2909ZM421.006 28.6873C422.511 28.638 423.699 27.7005 424.402 26.1332C425.033 24.7326 425.154 23.1215 425.154 21.5807C425.154 19.8995 424.973 18.1487 424.191 16.7127C423.49 15.4566 422.281 14.6614 421.001 14.6136C419.575 14.6662 418.305 15.635 417.661 17.1327C417.09 18.4286 416.909 20.1448 416.909 21.5807C416.909 23.1914 417.12 25.0474 417.782 26.4484C418.425 27.7755 419.666 28.6399 421.006 28.6873ZM420.669 30.9663C416.093 30.9663 414.046 26.2733 414.046 21.5807C414.046 16.6424 416.455 12.3703 421.06 12.3703L421.179 12.3714L421.304 12.3703C425.789 12.3703 428.017 16.9227 428.017 21.6153C428.017 26.5886 425.548 30.9663 420.912 30.9663L420.794 30.9648L420.669 30.9663ZM409.95 24.7521C409.502 26.8979 408.424 28.5531 406.37 28.6178C403.279 28.5152 402.545 24.3813 402.545 21.5454C402.545 18.6077 403.425 14.7828 406.516 14.6835C408.456 14.7478 409.621 16.3688 409.963 18.4076C410.008 18.6945 410.204 18.9531 410.499 18.9954L411.923 19.0123C412.22 18.9777 412.473 18.7405 412.473 18.4664C411.984 14.8144 409.733 12.3703 406.579 12.3703L406.455 12.3714L406.335 12.3703C401.789 12.3703 399.802 17.0978 399.802 21.7205C399.802 26.3785 401.759 30.9663 406.305 30.9663L406.423 30.9648L406.549 30.9663C409.671 30.9663 411.863 28.4865 412.49 24.8367C412.514 24.5361 412.22 24.2897 411.9 24.2728L410.541 24.2787C410.241 24.2787 410.037 24.4847 409.95 24.7521Z" fill="#969696"/>
<path fill-rule="evenodd" clip-rule="evenodd" d="M494.284 7.54932V3.25336H490.598C490.598 3.25336 488.065 3.10004 486.145 4.86431C484.225 6.62886 484.686 8.7767 484.686 8.7767V12.6894H481V17.2925H484.532V30.4104H489.754V17.352H493.747L494.284 12.6894H489.754V9.31387C489.754 7.24241 491.904 7.54932 491.904 7.54932H494.284ZM503.212 26.8433C505.079 26.8433 506.593 25.1704 506.593 23.3909V20.0156C506.593 18.2361 505.079 16.5635 503.212 16.5635C501.344 16.5635 499.83 18.2361 499.83 20.0156V23.3909C499.83 25.1704 501.344 26.8433 503.212 26.8433ZM506.874 15.1069V12.7661H511.907V30.4104H506.877L506.912 28.1345C505.577 29.9154 503.698 31.024 501.617 31.024C497.567 31.024 494.284 27.4185 494.284 21.6456C494.284 15.8347 497.567 12.2672 501.617 12.2672C503.679 12.2672 505.542 13.3554 506.874 15.1069ZM553.272 19.9006C553.272 18.1211 554.786 16.4482 556.653 16.4482C558.521 16.4482 560.035 18.1211 560.035 19.9006V23.2759C560.035 25.0554 558.521 26.728 556.653 26.728C554.786 26.728 553.272 25.0554 553.272 23.2759V19.9006ZM552.991 30.5254V28.1846C554.323 29.9361 556.186 31.0243 558.248 31.0243C562.298 31.0243 565.581 27.4568 565.581 21.6456C565.581 15.873 562.298 12.2672 558.248 12.2672C556.167 12.2672 554.288 13.3761 552.953 15.1567L552.988 3.50406L547.757 4.09206V30.4449L552.991 30.5254ZM519.24 21.7584C519.24 26.9751 523.271 26.7448 523.271 26.7448C525.997 26.7832 526.957 25.8244 526.957 25.8244L528.224 29.6218C526.036 31.2327 519.432 31.501 516.476 28.7777C513.918 26.4214 513.918 22.6025 513.965 21.6157C513.918 20.6289 513.918 16.8103 516.476 14.4537C519.432 11.7303 526.036 11.9989 528.224 13.6099L526.957 17.4073C526.957 17.4073 525.997 16.4482 523.271 16.4868C523.271 16.4868 519.24 16.2565 519.24 21.4732V21.7584ZM534.252 19.9388C534.252 19.9388 533.983 16.0264 537.515 16.0264C541.047 16.0264 540.779 19.9388 540.779 19.9388H534.252ZM545.578 23.506C545.578 23.506 547.689 12.459 537.592 12.3992C527.494 12.3391 528.953 22.3936 528.953 22.3936C529.184 28.4924 531.986 30.257 536.786 30.8322C541.585 31.4077 545.232 29.5665 545.232 29.5665L544.119 25.9993C544.119 25.9993 540.241 27.1884 537.17 26.9198C534.098 26.6515 534.328 23.506 534.328 23.506H545.578ZM575.941 26.75C577.857 26.75 579.41 25.0771 579.41 23.2976V19.9223C579.41 18.1428 577.857 16.4702 575.941 16.4702C574.024 16.4702 572.471 18.1428 572.471 19.9223V23.2976C572.471 25.0771 574.024 26.75 575.941 26.75ZM567.2 21.766C567.2 16.4702 569.412 12.508 575.985 12.508C582.261 12.508 584.771 16.6531 584.771 21.766C584.771 27.7672 580.838 31.0242 575.985 31.0242C570.051 31.0242 567.2 27.3845 567.2 21.766ZM598.811 23.2976C598.811 25.0771 597.257 26.75 595.341 26.75C593.425 26.75 591.871 25.0771 591.871 23.2976V19.9223C591.871 18.1428 593.425 16.4702 595.341 16.4702C597.257 16.4702 598.811 18.1428 598.811 19.9223V23.2976ZM595.386 12.508C588.813 12.508 586.6 16.4702 586.6 21.766C586.6 27.3845 589.451 31.0242 595.386 31.0242C600.238 31.0242 604.171 27.7672 604.171 21.766C604.171 16.6531 601.661 12.508 595.386 12.508ZM616.849 21.604L622.593 30.4874H617.147L611.361 21.4502V30.4874H606.086V3.96459L611.361 3.4122V20.6727L616.722 12.7204H622.338L616.849 21.604Z" fill="#969696"/>
<path fill-rule="evenodd" clip-rule="evenodd" d="M675.83 18.2174C675.83 18.2462 675.829 18.2821 675.828 18.3048H675.832C675.832 18.1281 675.831 18.1579 675.83 18.2174ZM675.825 18.3048C675.827 18.3387 675.827 18.3297 675.828 18.3048H675.825ZM660.872 32.8242C660.847 32.8233 660.837 32.8225 660.872 32.8213C660.903 32.8204 660.967 32.8193 661.082 32.8181C665.374 32.7735 669.042 31.4091 671.668 28.903C674.296 26.3949 675.823 22.801 675.823 18.3048H675.825C675.824 18.2746 675.823 18.2109 675.822 18.0949L675.797 15.9001H673.563H660.997V20.3239H671.159C670.818 22.6042 669.884 24.4335 668.497 25.7578C666.719 27.4546 664.137 28.3793 661.047 28.4114C660.842 28.4136 660.878 28.4127 660.948 28.4109H660.948H660.948C661.049 28.4083 661.222 28.4039 660.872 28.4039C657.727 28.4039 654.896 27.1654 652.853 25.1633C650.801 23.1526 649.536 20.3662 649.536 17.2836C649.536 14.2022 650.8 11.419 652.851 9.41058C654.894 7.41029 657.726 6.17377 660.872 6.17377C662.356 6.17377 663.771 6.44884 665.067 6.94942C666.421 7.47203 667.643 8.23406 668.676 9.18043L671.777 5.96623C670.319 4.63087 668.611 3.56159 666.733 2.83638C664.917 2.13551 662.94 1.75 660.872 1.75C656.48 1.75 652.516 3.48826 649.644 6.30015C646.771 9.11348 645 12.9972 645 17.2836C645 21.57 646.771 25.4572 649.645 28.2738C652.517 31.0874 656.481 32.8277 660.872 32.8277C661.061 32.8277 661.029 32.8272 660.966 32.8261C660.935 32.8256 660.897 32.825 660.872 32.8242ZM687.779 16.8568C689.408 16.8568 690.881 17.5197 691.945 18.5913C693.011 19.6646 693.671 21.1551 693.671 22.8084C693.671 24.4617 693.011 25.9524 691.945 27.0255C690.881 28.0971 689.408 28.76 687.779 28.76C686.15 28.76 684.677 28.0971 683.612 27.0255C682.546 25.9524 681.887 24.4617 681.887 22.8084C681.887 21.1551 682.546 19.6646 683.612 18.5913C684.677 17.5197 686.15 16.8568 687.779 16.8568ZM695.06 15.7953C693.195 13.9933 690.621 12.8785 687.779 12.8785C684.937 12.8785 682.362 13.9933 680.497 15.7953C678.634 17.5959 677.481 20.0759 677.481 22.8084C677.481 25.5408 678.634 28.0208 680.497 29.8214C682.362 31.6237 684.937 32.7382 687.779 32.7382C690.621 32.7382 693.195 31.6237 695.06 29.8214C696.924 28.0208 698.076 25.5408 698.076 22.8084C698.076 20.0759 696.924 17.5959 695.06 15.7953ZM714.093 18.5913C713.028 17.5197 711.555 16.8568 709.926 16.8568C708.297 16.8568 706.824 17.5197 705.76 18.5913C704.694 19.6646 704.034 21.1551 704.034 22.8084C704.034 24.4617 704.694 25.9524 705.76 27.0255C706.824 28.0971 708.297 28.76 709.926 28.76C711.555 28.76 713.028 28.0971 714.093 27.0255C715.159 25.9524 715.818 24.4617 715.818 22.8084C715.818 21.1551 715.159 19.6646 714.093 18.5913ZM709.926 12.8785C712.768 12.8785 715.343 13.9933 717.208 15.7953C719.071 17.5959 720.224 20.0759 720.224 22.8084C720.224 25.5408 719.071 28.0208 717.208 29.8214C715.343 31.6237 712.768 32.7382 709.926 32.7382C707.085 32.7382 704.51 31.6237 702.645 29.8214C700.781 28.0208 699.629 25.5408 699.629 22.8084C699.629 20.0759 700.781 17.5959 702.645 15.7953C704.51 13.9933 707.085 12.8785 709.926 12.8785ZM731.898 16.8568C733.449 16.8568 734.852 17.5197 735.866 18.5913C736.882 19.6646 737.51 21.1551 737.51 22.8084C737.51 24.4617 736.882 25.9524 735.866 27.0255C734.852 28.0971 733.449 28.8693 731.898 28.8693C728.595 28.8693 726.285 26.1495 726.285 22.8084C726.285 21.1551 726.913 19.6646 727.929 18.5913C728.943 17.5197 730.346 16.8568 731.898 16.8568ZM737.084 15.1669C735.573 13.7379 733.892 12.8785 731.119 12.8785C726.476 12.8785 721.802 17.2893 721.802 22.8084C721.802 25.5408 722.845 28.0208 724.531 29.8214C726.219 31.6237 728.979 32.7382 731.55 32.7382C733.81 32.7382 735.55 31.8771 737.084 30.4449V32.6188C737.084 35.8397 734.372 37.7945 732.21 37.7945C729.159 37.7945 727.528 36.5791 726.435 34.2203L722.574 35.9174C723.494 37.9032 724.835 39.313 726.407 40.2568C728.175 41.3177 730.197 41.6962 732.21 41.6962C734.416 41.6962 736.643 40.7887 738.302 39.3507C740.023 37.8579 741.294 34.9962 741.294 32.3577V13.4385H737.084V15.1669ZM744.016 32.1693H748.364V3.02838H744.016V32.1693ZM765.458 26.1286C763.172 29.8431 757.142 29.7993 755.43 25.8231C758.065 24.7885 760.692 23.7416 763.319 22.6947C765.272 21.9163 767.225 21.138 769.181 20.3648C767.664 16.5512 765.587 14.357 763.03 13.4512C759.092 12.0564 755.275 13.3567 752.8 15.9141C749.766 19.0492 748.83 25.6622 753.207 29.9721C754.999 31.7358 757.396 32.8245 760.375 32.8213C763.721 32.8034 766.792 31.3924 768.901 28.379L765.458 26.1286ZM763.997 18.8254L754.739 22.4619C754.602 20.5495 755.656 18.8573 756.86 17.866C759.989 15.7839 762.363 16.7761 763.997 18.8254Z" fill="#969696"/>
<path fill-rule="evenodd" clip-rule="evenodd" d="M939.132 0.999023H908.514C907.051 0.999023 905.862 2.15614 905.862 3.58211V34.2613C905.862 35.6888 907.051 36.8474 908.514 36.8474H939.132C940.598 36.8474 941.792 35.6888 941.792 34.2613V3.58211C941.792 2.15614 940.598 0.999023 939.132 0.999023ZM913.855 5.93448C915.559 5.93448 916.943 7.3159 916.943 9.01647C916.943 10.7185 915.559 12.0999 913.855 12.0999C912.147 12.0999 910.764 10.7185 910.764 9.01647C910.764 7.3159 912.147 5.93448 913.855 5.93448ZM916.518 31.5466H911.189V14.4386H916.518V31.5466ZM919.861 14.4386H924.972V16.7762H925.043C925.755 15.4312 927.493 14.0134 930.086 14.0134C935.482 14.0134 936.478 17.5569 936.478 22.1627V31.5466H931.153V23.227C931.153 21.2431 931.116 18.6911 928.384 18.6911C925.611 18.6911 925.185 20.8523 925.185 23.0836V31.5466H919.861V14.4386ZM820.916 5.92681C822.622 5.92681 824.006 7.30823 824.006 9.0088C824.006 10.7124 822.622 12.0898 820.916 12.0898C819.212 12.0898 817.828 10.7124 817.828 9.0088C817.828 7.30823 819.212 5.92681 820.916 5.92681ZM818.252 31.5389H823.58V14.4309H818.252V31.5389ZM800 6.30091V31.5458H815.804V26.4431H805.543V6.30091H800ZM851.173 6.29914H845.848V31.5458H851.173V23.0887H851.243L856.895 31.5458H863.589L856.748 22.3444L863.735 14.4233H857.206L851.173 21.3872V6.29914ZM826.526 14.4334H831.64V16.772H831.711C832.421 15.4254 834.161 14.0087 836.753 14.0087C842.152 14.0087 843.146 17.5517 843.146 22.157V31.5389H837.819V23.2208C837.819 21.2359 837.782 18.6857 835.047 18.6857C832.278 18.6857 831.853 20.8475 831.853 23.0789V31.5389H826.526V14.4334ZM872.176 31.9804C874.948 31.9804 877.752 30.7391 879.457 28.5773L875.729 25.8488C874.84 27.0534 873.669 27.9397 871.929 27.9397C869.868 27.9397 868.339 26.6287 867.916 24.6088H880.274V22.9433C880.274 17.452 877.152 13.909 872.176 13.909C866.851 13.909 862.589 17.452 862.589 22.9433C862.589 28.4354 866.851 31.9804 872.176 31.9804ZM871.678 17.7358C873.598 17.7358 874.983 19.2243 874.948 20.996H867.916C868.056 19.3303 869.336 17.7358 871.678 17.7358ZM900.535 31.5364H895.633V29.2678H895.564C894.744 30.5075 892.686 31.9614 890.271 31.9614C885.155 31.9614 881.782 28.2777 881.782 23.0682C881.782 18.2842 884.765 13.8905 889.666 13.8905C891.869 13.8905 893.929 14.4924 895.136 16.1579H895.206V6.29901H900.535V31.5364ZM891.369 18.5679C888.707 18.5679 887.11 20.341 887.11 22.9255C887.11 25.5144 888.707 27.2836 891.369 27.2836C894.034 27.2836 895.633 25.5144 895.633 22.9255C895.633 20.341 894.034 18.5679 891.369 18.5679Z" fill="#969696"/>
<path fill-rule="evenodd" clip-rule="evenodd" d="M35.2265 12.6321H29.6493V19.8802H23.8409V12.6321H18.2614V30.8692H23.8409V23.6947H29.6493V30.8692H35.2265V12.6321ZM54.6376 27.2058V12.6321H49.0578V30.8692H59.1462L59.9855 27.2058H54.6376ZM39.3537 30.8692H44.9319V12.6321H39.3537V30.8692ZM61.9735 30.8692H67.5507V12.6321H61.9735V30.8692ZM95.0596 17.2852C95.0596 16.2942 96.054 15.8351 97.6578 15.8351C99.4153 15.8351 101.327 16.2171 102.624 16.7533L102.168 12.7844C100.715 12.4797 99.4153 12.25 97.0472 12.25C92.5386 12.25 89.4823 14.0248 89.4823 17.7456C89.4823 24.1529 98.1959 22.8573 98.1959 25.8328C98.1959 26.9764 97.3525 27.5853 95.2886 27.5853C93.4579 27.5853 90.6272 26.9764 88.948 26.1374L89.5599 30.3361C91.2401 30.9454 93.5321 31.25 95.3671 31.25C100.027 31.25 103.849 29.7234 103.849 25.1439C103.849 19.0415 95.0596 20.1861 95.0596 17.2852ZM79.3214 26.5194C84.5145 26.5194 87.801 23.847 87.801 19.1939C87.801 14.0812 84.2868 12.25 78.5544 12.25C76.3393 12.25 73.6632 12.4023 71.7528 12.632V30.8692H77.3338V26.5194H79.3214ZM82.2976 19.27C82.2976 21.6353 81.1543 23.2377 78.2494 23.2377H77.3338V15.7038C77.6577 15.6849 77.963 15.6849 78.2494 15.6849C80.9994 15.6849 82.2976 16.9809 82.2976 19.27ZM7.56489 26.5194C12.7605 26.5194 16.0457 23.847 16.0457 19.1939C16.0457 14.0812 12.5302 12.25 6.80067 12.25C4.58372 12.25 1.90913 12.4023 0 12.632V30.8692H5.57692V26.5194H7.56489ZM10.5462 19.27C10.5462 21.6353 9.39904 23.2377 6.49546 23.2377H5.57702V15.7038C5.90369 15.6849 6.209 15.6849 6.49546 15.6849C9.24419 15.6849 10.5462 16.9809 10.5462 19.27Z" fill="#969696"/>
</svg>
