<svg width="112" height="42" viewBox="0 0 112 42" fill="none" xmlns="http://www.w3.org/2000/svg">
<path d="M35.1674 6.3326C32.2864 3.45156 28.6157 1.48954 24.6196 0.694662C20.6234 -0.100216 16.4814 0.307745 12.7171 1.86696C8.95282 3.42617 5.73545 6.0666 3.47182 9.45435C1.2082 12.8421 -6.15219e-07 16.825 0 20.8994C6.15219e-07 24.9738 1.2082 28.9568 3.47183 32.3445C5.73545 35.7323 8.95282 38.3727 12.7171 39.9319C16.4814 41.4911 20.6234 41.8991 24.6196 41.1042C28.6157 40.3093 32.2864 38.3473 35.1674 35.4662L30.5759 30.8747C28.603 32.8476 26.0893 34.1912 23.3528 34.7355C20.6162 35.2799 17.7798 35.0005 15.202 33.9328C12.6243 32.865 10.421 31.0569 8.8709 28.737C7.32078 26.417 6.49341 23.6896 6.49341 20.8994C6.49341 18.1093 7.32078 15.3818 8.8709 13.0619C10.421 10.742 12.6243 8.93382 15.202 7.86608C17.7798 6.79834 20.6162 6.51897 23.3528 7.0633C26.0893 7.60763 28.603 8.95121 30.5759 10.9241L35.1674 6.3326Z" fill="white"/>
<path d="M14.8921 22.9963H24.4606C26.3041 22.9963 27.7985 24.4907 27.7985 26.3342C27.7985 28.1776 26.3041 29.672 24.4606 29.672H14.8921V22.9963Z" fill="white"/>
<path d="M14.8921 11.716H24.4606C26.3041 11.716 27.7985 13.2104 27.7985 15.0539C27.7985 16.8973 26.3041 18.3917 24.4606 18.3917H14.8921V11.716Z" fill="white"/>
<path d="M45.2854 18.9993H42.1039C42.0813 18.736 42.0212 18.4972 41.9234 18.2829C41.8294 18.0685 41.6978 17.8843 41.5285 17.7301C41.3631 17.5721 41.1619 17.4518 40.925 17.3691C40.688 17.2826 40.4192 17.2393 40.1183 17.2393C39.5918 17.2393 39.1462 17.3672 38.7814 17.6229C38.4204 17.8786 38.1459 18.2453 37.9578 18.7229C37.7736 19.2005 37.6814 19.774 37.6814 20.4433C37.6814 21.1503 37.7755 21.7426 37.9635 22.2202C38.1553 22.6941 38.4317 23.0513 38.7927 23.292C39.1537 23.5289 39.5881 23.6474 40.0958 23.6474C40.3853 23.6474 40.6448 23.6117 40.8742 23.5402C41.1036 23.465 41.3029 23.3578 41.4721 23.2187C41.6414 23.0795 41.7786 22.9122 41.8839 22.7166C41.993 22.5173 42.0663 22.2936 42.1039 22.0454L45.2854 22.0679C45.2478 22.5568 45.1105 23.0551 44.8736 23.5628C44.6367 24.0667 44.3001 24.533 43.8639 24.9617C43.4314 25.3867 42.8955 25.7289 42.2562 25.9884C41.6169 26.2478 40.8742 26.3776 40.0281 26.3776C38.9676 26.3776 38.0161 26.1501 37.1738 25.695C36.3351 25.24 35.6714 24.5706 35.1825 23.6869C34.6974 22.8031 34.4548 21.722 34.4548 20.4433C34.4548 19.1572 34.703 18.0742 35.1994 17.1942C35.6958 16.3104 36.3652 15.6429 37.2076 15.1917C38.05 14.7366 38.9901 14.5091 40.0281 14.5091C40.7576 14.5091 41.4289 14.6088 42.0419 14.8081C42.6548 15.0074 43.1926 15.2988 43.6552 15.6824C44.1177 16.0622 44.49 16.5304 44.7721 17.087C45.0541 17.6436 45.2252 18.281 45.2854 18.9993ZM50.0673 26.2196H46.6828L50.496 14.6671H54.7831L58.5963 26.2196H55.2118L52.6847 17.8485H52.5944L50.0673 26.2196ZM49.4355 21.6618H55.7985V24.0084H49.4355V21.6618ZM60.4238 14.6671H64.3273L67.0124 21.2105H67.1478L69.8329 14.6671H73.7364V26.2196H70.6677V19.5408H70.5775L68.0052 26.1294H66.155L63.5827 19.4957H63.4925V26.2196H60.4238V14.6671ZM75.9376 26.2196V14.6671H80.9467C81.8267 14.6671 82.5656 14.7855 83.1636 15.0224C83.7653 15.2594 84.2184 15.594 84.523 16.0265C84.8314 16.459 84.9856 16.9685 84.9856 17.5552C84.9856 17.9801 84.8916 18.3675 84.7035 18.7172C84.5193 19.067 84.2598 19.3603 83.9251 19.5972C83.5904 19.8304 83.1993 19.9921 82.7518 20.0823V20.1951C83.2482 20.2139 83.6995 20.3399 84.1056 20.5731C84.5117 20.8025 84.8352 21.1203 85.0758 21.5264C85.3165 21.9288 85.4369 22.4026 85.4369 22.9479C85.4369 23.5797 85.2714 24.1419 84.9405 24.6345C84.6133 25.1272 84.147 25.5145 83.5415 25.7966C82.9361 26.0786 82.214 26.2196 81.3754 26.2196H75.9376ZM79.0739 23.7151H80.5405C81.067 23.7151 81.4619 23.6173 81.7251 23.4217C81.9884 23.2224 82.12 22.9291 82.12 22.5418C82.12 22.271 82.058 22.0416 81.9339 21.8536C81.8098 21.6655 81.633 21.5226 81.4036 21.4249C81.178 21.3271 80.9053 21.2782 80.5857 21.2782H79.0739V23.7151ZM79.0739 19.3377H80.36C80.6346 19.3377 80.8771 19.2945 81.0877 19.208C81.2983 19.1215 81.4619 18.9974 81.5785 18.8357C81.6988 18.6702 81.759 18.469 81.759 18.2321C81.759 17.8749 81.6311 17.6022 81.3754 17.4142C81.1197 17.2224 80.7963 17.1265 80.4052 17.1265H79.0739V19.3377ZM90.2639 26.2196H86.8793L90.6926 14.6671H94.9797L98.7929 26.2196H95.4084L92.8813 17.8485H92.791L90.2639 26.2196ZM89.6321 21.6618H95.9951V24.0084H89.6321V21.6618ZM98.9676 14.6671H102.465L104.721 19.3603H104.812L107.068 14.6671H110.565L106.323 22.5869V26.2196H103.21V22.5869L98.9676 14.6671Z" fill="white"/>
</svg>
