<svg width="45" height="42" viewBox="0 0 45 42" fill="none" xmlns="http://www.w3.org/2000/svg">
<path d="M15.6576 0C12.5695 0 10.2804 2.58896 10.0378 5.46966L9.66797 10.6127H15.0131L15.2746 7.28238C15.3807 6.02278 16.0909 5.25067 17.1576 5.25067H27.8428C28.9095 5.25067 29.6197 6.02278 29.7258 7.28238L29.9873 10.6127H35.3324L34.9626 5.46966C34.72 2.58896 32.431 0 29.3428 0H15.6576Z" fill="url(#paint0_linear_208_1004)"/>
<path d="M0 22.7092V37.5186C0 39.596 1.67248 41.2685 3.74995 41.2685H41.2495C43.3269 41.2685 44.9994 39.596 44.9994 37.5186V22.7092H0Z" fill="url(#paint1_linear_208_1004)"/>
<path d="M3.75 9.86266C1.6725 9.86266 0 11.5352 0 13.6127V22.7093C5.12731 26.9366 13.5301 29.4564 22.5 29.4564C31.4699 29.4564 39.8727 26.9366 45 22.7093V13.6127C45 11.5352 43.3275 9.86266 41.25 9.86266H3.75Z" fill="url(#paint2_linear_208_1004)"/>
<path d="M1.5 13.3667V13.7403H2.25V13.3667H1.5ZM3.37427 13.3667V13.7403H4.12427V13.3667H3.37427ZM5.25073 13.3667V13.7403H6.00073V13.3667H5.25073ZM7.125 13.3667V13.7403H7.875V13.3667H7.125ZM8.99927 13.3667V13.7403H9.74927V13.3667H8.99927ZM10.8757 13.3667V13.7403H11.6257V13.3667H10.8757ZM12.75 13.3667V13.7403H13.5V13.3667H12.75ZM14.6243 13.3667V13.7403H15.3743V13.3667H14.6243ZM16.5007 13.3667V13.7403H17.2507V13.3667H16.5007ZM18.375 13.3667V13.7403H19.125V13.3667H18.375ZM20.2493 13.3667V13.7403H20.9993V13.3667H20.2493ZM22.1257 13.3667V13.7403H22.8757V13.3667H22.1257ZM24 13.3667V13.7403H24.75V13.3667H24ZM25.8743 13.3667V13.7403H26.6243V13.3667H25.8743ZM27.7507 13.3667V13.7403H28.5007V13.3667H27.7507ZM29.625 13.3667V13.7403H30.375V13.3667H29.625ZM31.4993 13.3667V13.7403H32.2493V13.3667H31.4993ZM33.3757 13.3667V13.7403H34.1235V13.3667H33.3757ZM35.25 13.3667V13.7403H36V13.3667H35.25ZM37.1243 13.3667V13.7403H37.8743V13.3667H37.1243ZM38.9978 13.3667V13.7403H39.7485V13.3667H38.9978ZM40.8721 13.3667V13.7403H41.6221V13.3667H40.8721ZM42.7493 13.3667V13.7403H43.4993V13.3667H42.7493Z" fill="#E53B38"/>
<path d="M22.5031 24.5974C24.518 24.5974 26.4404 26.242 26.1401 28.2344L25.7423 30.8731C25.2232 34.3172 19.9276 34.494 19.3136 30.8731L18.8661 28.2344C18.5293 26.2479 20.4882 24.5974 22.5031 24.5974Z" fill="url(#paint3_linear_208_1004)"/>
<path d="M1.5 37.3226V37.6961H2.25V37.3226H1.5ZM3.37427 37.3226V37.6961H4.12427V37.3226H3.37427ZM5.25073 37.3226V37.6961H6.00073V37.3226H5.25073ZM7.125 37.3226V37.6961H7.875V37.3226H7.125ZM8.99927 37.3226V37.6961H9.74927V37.3226H8.99927ZM10.8757 37.3226V37.6961H11.6257V37.3226H10.8757ZM12.75 37.3226V37.6961H13.5V37.3226H12.75ZM14.6243 37.3226V37.6961H15.3743V37.3226H14.6243ZM16.5007 37.3226V37.6961H17.2507V37.3226H16.5007ZM18.375 37.3226V37.6961H19.125V37.3226H18.375ZM20.2493 37.3226V37.6961H20.9993V37.3226H20.2493ZM22.1257 37.3226V37.6961H22.8757V37.3226H22.1257ZM24 37.3226V37.6961H24.75V37.3226H24ZM25.8743 37.3226V37.6961H26.6243V37.3226H25.8743ZM27.7507 37.3226V37.6961H28.5007V37.3226H27.7507ZM29.625 37.3226V37.6961H30.375V37.3226H29.625ZM31.4993 37.3226V37.6961H32.2493V37.3226H31.4993ZM33.3757 37.3226V37.6961H34.1235V37.3226H33.3757ZM35.25 37.3226V37.6961H36V37.3226H35.25ZM37.1243 37.3226V37.6961H37.8743V37.3226H37.1243ZM38.9978 37.3226V37.6961H39.7485V37.3226H38.9978ZM40.8721 37.3226V37.6961H41.6221V37.3226H40.8721ZM42.7493 37.3226V37.6961H43.4993V37.3226H42.7493Z" fill="#A03A5E"/>
<defs>
<linearGradient id="paint0_linear_208_1004" x1="23.3441" y1="-1.85567" x2="23.3441" y2="9.57065" gradientUnits="userSpaceOnUse">
<stop stop-color="#BCA6AE"/>
<stop offset="1" stop-color="#534666"/>
</linearGradient>
<linearGradient id="paint1_linear_208_1004" x1="22.4993" y1="25.519" x2="22.4993" y2="43.7526" gradientUnits="userSpaceOnUse">
<stop stop-color="#C94A45"/>
<stop offset="1" stop-color="#DD9379"/>
</linearGradient>
<linearGradient id="paint2_linear_208_1004" x1="22.4997" y1="30.8147" x2="22.4997" y2="9.7411" gradientUnits="userSpaceOnUse">
<stop stop-color="#FF5E3F"/>
<stop offset="1" stop-color="#FFB93F"/>
</linearGradient>
<linearGradient id="paint3_linear_208_1004" x1="21.9819" y1="25.442" x2="21.9819" y2="36.7777" gradientUnits="userSpaceOnUse">
<stop stop-color="#EAF2FF"/>
<stop offset="1" stop-color="#9BBAFF"/>
</linearGradient>
</defs>
</svg>
