<svg width="30" height="30" viewBox="0 0 30 30" fill="none" xmlns="http://www.w3.org/2000/svg">
<path d="M0.000913028 12.6506V19.3985C-0.000232162 20.7369 0.356096 22.0512 1.03299 23.2054C1.70989 24.3595 2.68275 25.3116 3.8508 25.9629L5.00076 26.6052V29.1659C5.00076 29.3871 5.08856 29.5993 5.24483 29.7557C5.40111 29.9121 5.61306 30 5.83407 30H12.5005C12.7215 30 12.9335 29.9121 13.0898 29.7557C13.246 29.5993 13.3338 29.3871 13.3338 29.1659V22.9184C13.3338 20.683 13.1505 19.8573 11.9422 18.6395L9.88395 16.5709C9.38158 16.0994 8.73318 15.8142 8.04648 15.7626C7.35977 15.711 6.67611 15.8962 6.10906 16.2873L5.27575 12.1167C5.15875 11.4557 4.79641 10.8633 4.26138 10.4584C3.72635 10.0535 3.05818 9.86604 2.39085 9.93358C1.72352 10.0011 1.10637 10.3187 0.663129 10.8226C0.219892 11.3265 -0.0166565 11.9794 0.000913028 12.6506ZM3.64247 12.4838L4.90076 18.7562C4.90076 18.8563 4.90076 18.9481 4.90076 19.0482C4.89666 19.1288 4.89666 19.2095 4.90076 19.2901C4.90076 19.3985 4.96743 19.5069 5.00076 19.6154L5.06743 19.8156C5.12306 19.9367 5.1871 20.0537 5.25909 20.1659C5.28089 20.2121 5.30595 20.2567 5.33408 20.2993C5.43632 20.455 5.55354 20.6003 5.68407 20.7331L7.67568 22.7266C7.83259 22.8837 8.04542 22.9719 8.26733 22.9719C8.48924 22.9719 8.70206 22.8837 8.85898 22.7266C9.01589 22.5695 9.10404 22.3565 9.10404 22.1344C9.10404 21.9122 9.01589 21.6992 8.85898 21.5422L6.86737 19.5486C6.63329 19.314 6.50181 18.996 6.50181 18.6645C6.50181 18.3329 6.63329 18.0149 6.86737 17.7803C7.10484 17.552 7.42137 17.4244 7.75068 17.4244C8.07998 17.4244 8.39652 17.552 8.63398 17.7803L10.6923 19.8489C11.4506 20.608 11.6006 20.9249 11.6006 22.9435V28.3318H6.66738V26.1131C6.66712 25.9653 6.62764 25.8202 6.55296 25.6927C6.47829 25.5652 6.37111 25.4598 6.24239 25.3874L4.66744 24.5533C3.7506 24.0434 2.98807 23.2955 2.46013 22.3883C1.9322 21.4812 1.65838 20.4483 1.66753 19.3985V12.6506C1.67963 12.4086 1.77899 12.1793 1.94718 12.005C2.11537 11.8308 2.34099 11.7236 2.58216 11.7032C2.82334 11.6829 3.06371 11.7507 3.25869 11.8943C3.45368 12.0378 3.59003 12.2472 3.64247 12.4838ZM27.3334 9.98144C26.7175 9.97968 26.1203 10.1927 25.6443 10.5839C25.1683 10.9751 24.8433 11.5201 24.7252 12.1251L23.8918 16.2956C23.3253 15.903 22.6414 15.717 21.9543 15.7686C21.2671 15.8202 20.6186 16.1064 20.117 16.5792L18.0587 18.6478C16.8504 19.8573 16.6671 20.683 16.6671 22.9184V29.1659C16.6671 29.3871 16.7549 29.5993 16.9111 29.7557C17.0674 29.9121 17.2794 30 17.5004 30H24.1668C24.3878 30 24.5998 29.9121 24.7561 29.7557C24.9124 29.5993 25.0002 29.3871 25.0002 29.1659V26.6052L26.1501 25.9629C27.3182 25.3116 28.291 24.3595 28.9679 23.2054C29.6448 22.0512 30.0011 20.7369 30 19.3985V12.6506C29.9978 11.9434 29.7162 11.2657 29.2165 10.7656C28.7169 10.2656 28.04 9.98364 27.3334 9.98144ZM28.3334 19.3985C28.335 20.4413 28.0577 21.4654 27.5301 22.3646C27.0026 23.2638 26.2441 24.0051 25.3335 24.5116L23.7585 25.3457C23.6298 25.4181 23.5226 25.5235 23.4479 25.651C23.3733 25.7785 23.3338 25.9236 23.3335 26.0714V28.3318H18.3337V22.9184C18.3337 20.8999 18.4837 20.5829 19.242 19.8239L21.3003 17.7553C21.5377 17.5269 21.8543 17.3994 22.1836 17.3994C22.5129 17.3994 22.8294 17.5269 23.0669 17.7553C23.301 17.9899 23.4324 18.3079 23.4324 18.6395C23.4324 18.971 23.301 19.289 23.0669 19.5236L21.0753 21.5171C20.9184 21.6742 20.8302 21.8872 20.8302 22.1094C20.8302 22.3315 20.9184 22.5445 21.0753 22.7016C21.2322 22.8586 21.445 22.9469 21.6669 22.9469C21.8888 22.9469 22.1017 22.8586 22.2586 22.7016L24.2502 20.7081C24.3778 20.5727 24.4948 20.4277 24.6002 20.2743C24.6312 20.2233 24.659 20.1703 24.6835 20.1158C24.7499 20.012 24.8084 19.9032 24.8585 19.7905C24.8872 19.7224 24.9122 19.6528 24.9335 19.582C24.9335 19.4736 25.0001 19.3735 25.0251 19.2567C25.0297 19.1734 25.0297 19.0898 25.0251 19.0065C25.0251 18.9147 25.0251 18.8313 25.0251 18.7396L26.3584 12.4838C26.4109 12.2472 26.5472 12.0378 26.7422 11.8943C26.9372 11.7507 27.1776 11.6829 27.4188 11.7032C27.6599 11.7236 27.8855 11.8308 28.0537 12.005C28.2219 12.1793 28.3213 12.4086 28.3334 12.6506V19.3985ZM14.4171 18.0806C14.5729 18.2334 14.7823 18.319 15.0005 18.319C15.2186 18.319 15.428 18.2334 15.5838 18.0806L24.1668 9.59775C24.6914 9.07671 25.1077 8.45689 25.3919 7.77403C25.676 7.09117 25.8223 6.35877 25.8223 5.61906C25.8223 4.87934 25.676 4.14695 25.3919 3.46409C25.1077 2.78123 24.6914 2.16141 24.1668 1.64037C23.0938 0.588868 21.6519 0 20.1503 0C18.6487 0 17.2068 0.588868 16.1338 1.64037L15.0005 2.73305L13.8672 1.64037C12.7941 0.588868 11.3523 0 9.85061 0C8.34897 0 6.90709 0.588868 5.83407 1.64037C5.30573 2.16184 4.88619 2.78322 4.59984 3.46839C4.31348 4.15356 4.16602 4.88886 4.16602 5.63157C4.16602 6.37428 4.31348 7.10958 4.59984 7.79475C4.88619 8.47992 5.30573 9.1013 5.83407 9.62277L14.4171 18.0806ZM7.00903 2.80812C7.76807 2.06082 8.79011 1.64202 9.85478 1.64202C10.9195 1.64202 11.9415 2.06082 12.7005 2.80812L14.4171 4.47633C14.5729 4.62916 14.7823 4.71477 15.0005 4.71477C15.2186 4.71477 15.428 4.62916 15.5838 4.47633L17.3004 2.80812C18.0605 2.0628 19.0821 1.64537 20.1461 1.64537C21.2102 1.64537 22.2318 2.0628 22.9919 2.80812C23.3635 3.17307 23.6587 3.60853 23.8603 4.08903C24.0618 4.56953 24.1656 5.08542 24.1656 5.60655C24.1656 6.12767 24.0618 6.64357 23.8603 7.12406C23.6587 7.60456 23.3635 8.04002 22.9919 8.40498L15.0005 16.3123L7.00903 8.40498C6.63739 8.04002 6.34218 7.60456 6.14065 7.12406C5.93912 6.64357 5.83532 6.12767 5.83532 5.60655C5.83532 5.08542 5.93912 4.56953 6.14065 4.08903C6.34218 3.60853 6.63739 3.17307 7.00903 2.80812Z" fill="#2E4FD7"/>
<path d="M12.5003 9.98157H14.1669V11.6498C14.1669 11.871 14.2547 12.0832 14.411 12.2396C14.5673 12.396 14.7792 12.4839 15.0002 12.4839C15.2212 12.4839 15.4332 12.396 15.5895 12.2396C15.7457 12.0832 15.8335 11.871 15.8335 11.6498V9.98157H17.5001C17.7212 9.98157 17.9331 9.89369 18.0894 9.73727C18.2457 9.58084 18.3335 9.36868 18.3335 9.14746C18.3335 8.92624 18.2457 8.71408 18.0894 8.55766C17.9331 8.40123 17.7212 8.31336 17.5001 8.31336H15.8335V6.64514C15.8335 6.42392 15.7457 6.21176 15.5895 6.05534C15.4332 5.89891 15.2212 5.81104 15.0002 5.81104C14.7792 5.81104 14.5673 5.89891 14.411 6.05534C14.2547 6.21176 14.1669 6.42392 14.1669 6.64514V8.31336H12.5003C12.2793 8.31336 12.0673 8.40123 11.9111 8.55766C11.7548 8.71408 11.667 8.92624 11.667 9.14746C11.667 9.36868 11.7548 9.58084 11.9111 9.73727C12.0673 9.89369 12.2793 9.98157 12.5003 9.98157Z" fill="#2E4FD7"/>
</svg>
