<svg width="30" height="33" viewBox="0 0 30 33" fill="none" xmlns="http://www.w3.org/2000/svg">
<path d="M29.4462 24.094L29.2675 23.9953C28.8105 23.7192 28.3477 23.5411 27.7697 23.4635V12.7603L29.8023 10.1071L28.6689 9.24076V3.21135H29.5681V0.25691H22.6315V3.21135H23.5307V5.34034L16.5185 0L3.21909 10.1056L5.16179 12.6836V21.0902L5.14919 21.1041L5.08687 20.9763L0 23.705L4.80721 32.669L9.8979 29.9403L8.82179 27.9322L9.92687 27.4101L18.5344 29.7361C18.9408 29.8459 19.3586 29.9004 19.7759 29.9004C20.4375 29.9004 21.0978 29.7633 21.7085 29.4929L29.3175 26.1239C29.7098 25.9502 29.9705 25.5763 29.9977 25.148C30.0248 24.7198 29.8135 24.3159 29.4462 24.094ZM23.5949 1.28454H28.5404V2.24795H23.5949V1.28454ZM24.5583 3.21135H27.7055V8.4703L24.5583 6.11079V3.21135ZM16.5313 1.27313L28.4048 10.2992L27.2464 11.816L16.5316 3.63928L5.80025 11.8148L4.65587 10.3007L16.5313 1.27313ZM6.18942 12.7843L16.5355 4.91376L26.8063 12.7402V23.4409C26.5494 23.4645 26.3498 23.5063 26.1282 23.5691L21.5397 24.8677V12.46H11.2634V18.1725C10.5569 18.2714 9.87368 18.4958 9.2477 18.8417L6.18942 20.5301V12.7843ZM20.512 20.4248C20.3836 20.3551 20.264 20.2979 20.1263 20.2577L13.73 18.3462C13.2584 18.2084 12.7406 18.1328 12.291 18.1174V13.4877H20.512V20.4248H20.512ZM20.512 25.1548L20.3394 25.2043C19.9499 25.3147 19.5374 25.3151 19.1476 25.2054L16.9331 24.5826C16.6012 24.4893 16.3123 24.2807 16.1193 23.9952L15.5088 23.0925L19.3543 23.7643L19.3695 23.767C19.7662 23.8223 20.1909 23.7422 20.512 23.5455V25.1548H20.512ZM5.22313 31.2969L1.3752 24.1194L4.67867 22.3484L8.52657 29.5259L5.22313 31.2969ZM28.9862 25.0839C28.9839 25.1206 28.9683 25.1702 28.9072 25.1972L21.2981 28.5662C20.5141 28.9134 19.6265 28.9813 18.7988 28.7577L9.83131 26.3343L8.3427 27.0379L5.64049 21.9974L9.7454 19.7287C10.8658 19.1095 12.2131 18.9602 13.439 19.3182L19.8412 21.2296C20.1936 21.3326 20.4308 21.6732 20.4051 22.0395C20.3897 22.2593 20.2869 22.4568 20.1158 22.5955C19.9465 22.7326 19.7352 22.7925 19.5194 22.7643L13.3323 21.6834L15.28 24.563C15.6071 25.0467 16.097 25.4002 16.6592 25.5583L18.8743 26.1811C19.4444 26.3415 20.0477 26.3409 20.6175 26.1794L26.3896 24.5442C27.1864 24.3185 28.05 24.4346 28.7588 24.8628L28.9221 24.9615C28.9793 24.996 28.9885 25.0471 28.9862 25.0839Z" fill="#2E4FD7"/>
</svg>
